<svg width="389" height="205" viewBox="0 0 389 205" fill="none" xmlns="http://www.w3.org/2000/svg">
<g clip-path="url(#clip0_21_286)">
<path d="M100.474 94.2252H120.004L85.0853 3.13184H65.2002L97.2149 85.8238L100.474 94.2252Z" fill="url(#paint0_linear_21_286)"/>
<path d="M85.0853 3.13184H65.2002L98.6011 89.4057L109.513 66.2362L85.0853 3.13184Z" fill="#282C2E"/>
<path d="M64.3853 171.488H83.9331C90.2836 158.455 105.411 149.275 123.066 149.275C140.722 149.275 155.849 158.445 162.2 171.488H181.766C177.177 157.161 165.328 145.328 149.705 138.905V138.923C148.974 138.614 148.234 138.323 147.485 138.042C139.954 135.257 131.618 133.701 122.851 133.701C114.084 133.701 105.532 135.285 97.9267 138.145C81.6196 144.399 69.1622 156.598 64.3946 171.488H64.3853Z" fill="url(#paint1_linear_21_286)"/>
<path d="M148.946 3.13184H129.061L174.929 121.595C170.302 118.876 165.356 116.513 160.158 114.544L117.025 3.13184H97.1399L129.155 85.8238H35.7332V102.636H135.664L138.109 108.956C133.285 108.281 128.33 107.934 123.282 107.934C78.5474 107.934 41.3625 135.37 33.8318 171.498H51.5626C56.7984 152.116 73.0025 136.214 94.4237 128.618C94.5923 128.562 94.7608 128.497 94.9294 128.44C95.1542 128.365 95.379 128.281 95.6132 128.206C104.062 125.337 113.307 123.743 122.991 123.743C142.043 123.743 159.38 129.866 172.353 139.889C172.381 139.908 172.409 139.927 172.428 139.955C172.831 140.264 173.224 140.583 173.617 140.902C173.852 141.089 174.086 141.286 174.32 141.474C174.432 141.568 174.535 141.652 174.638 141.746C181.139 147.184 186.421 153.645 190.112 160.818L190.618 162.112C191.779 164.559 192.763 167.072 193.54 169.66L194.252 171.498H214.137L148.946 3.13184Z" fill="url(#paint2_linear_21_286)"/>
<path d="M106.9 135.407C86.256 140.17 69.9958 153.963 64.3853 171.488H83.9331C87.1458 164.887 92.6159 159.27 99.5284 155.342L106.9 135.407Z" fill="#282C2E"/>
<path d="M119.029 102.627H42.5614V85.8237H125.249L119.029 102.627Z" fill="#282C2E"/>
<path d="M117.006 108.112C75.3254 110.709 40.9784 137.207 33.8318 171.488H51.5626C58.1659 147.053 82.3221 128.225 110.899 124.605L117.006 108.112Z" fill="#282C2E"/>
<path d="M148.946 3.13184H129.07L142.811 38.3596L152.561 12.3396L148.946 3.13184Z" fill="#282C2E"/>
<path d="M117.025 3.13184H97.1399L127.122 80.573L136.873 54.4029L117.025 3.13184Z" fill="#282C2E"/>
<path d="M148.946 3.13184H129.061L63.8795 171.488H83.7646L148.946 3.13184Z" fill="url(#paint3_linear_21_286)"/>
<path d="M117.016 3.13184H97.1399L31.9491 171.488H51.8342L117.016 3.13184Z" fill="url(#paint4_linear_21_286)"/>
<path d="M85.0946 3.13184H65.2095L0.0280762 171.488H19.9038L85.0946 3.13184Z" fill="url(#paint5_linear_21_286)"/>
<path d="M319.754 162.918C313.16 155.595 309.863 145.084 309.863 131.394V121.736H334.955V133.325C334.955 144.277 339.536 149.753 348.705 149.753C353.211 149.753 356.629 148.422 358.962 145.768C361.294 143.115 362.465 138.801 362.465 132.847C362.465 125.768 360.854 119.523 357.641 114.132C354.419 108.74 348.471 102.261 339.788 94.6846C328.848 85.0268 321.215 76.2878 316.869 68.4771C312.523 60.6664 310.359 51.8524 310.359 42.0258C310.359 28.6642 313.74 18.3218 320.494 10.9893C327.247 3.66624 337.063 0 349.932 0C362.802 0 372.253 3.66624 378.763 10.9893C385.272 18.3218 388.532 28.8236 388.532 42.5134V49.5177H363.439V40.8256C363.439 35.0309 362.315 30.802 360.058 28.1485C357.8 25.4949 354.513 24.1634 350.167 24.1634C341.315 24.1634 336.894 29.5643 336.894 40.3474C336.894 46.4703 338.543 52.1806 341.84 57.4971C345.137 62.8137 351.131 69.2554 359.814 76.8223C370.913 86.4801 378.547 95.266 382.734 103.152C386.911 111.047 389.009 120.301 389.009 130.925C389.009 144.774 385.591 155.407 378.753 162.805C371.916 170.213 361.987 173.917 348.958 173.917C335.93 173.917 326.357 170.26 319.763 162.927L319.754 162.918Z" fill="url(#paint6_linear_21_286)"/>
<path d="M2.1075 203.397C1.12402 202.328 0.636963 200.809 0.636963 198.811V185.891C0.636963 183.903 1.12402 182.374 2.1075 181.305C3.09099 180.237 4.51469 179.711 6.38799 179.711C8.26129 179.711 9.685 180.246 10.6685 181.305C11.652 182.374 12.139 183.903 12.139 185.891V188H8.49545V185.647C8.49545 184.034 7.83043 183.228 6.50039 183.228C5.17035 183.228 4.50533 184.034 4.50533 185.647V199.093C4.50533 200.687 5.17035 201.484 6.50039 201.484C7.83043 201.484 8.49545 200.687 8.49545 199.093V194.283H6.56596V190.776H12.139V198.811C12.139 200.799 11.652 202.328 10.6685 203.397C9.685 204.466 8.26129 204.991 6.38799 204.991C4.51469 204.991 3.09099 204.456 2.1075 203.397Z" fill="#E43E56"/>
<path d="M41.6342 180.068H47.3477C49.3334 180.068 50.7852 180.527 51.6938 181.455C52.6023 182.384 53.0613 183.8 53.0613 185.722V187.231C53.0613 189.782 52.2183 191.395 50.5323 192.079V192.145C51.469 192.426 52.1246 192.998 52.518 193.861C52.9021 194.723 53.0987 195.886 53.0987 197.339V201.662C53.0987 202.365 53.1175 202.928 53.1643 203.368C53.2111 203.8 53.3235 204.231 53.5109 204.653H49.5863C49.4458 204.259 49.3521 203.884 49.3053 203.528C49.2585 203.181 49.2397 202.543 49.2397 201.634V197.142C49.2397 196.017 49.0618 195.239 48.6965 194.789C48.3312 194.348 47.713 194.123 46.8232 194.123H45.4932V204.653H41.6342V180.077V180.068ZM46.8981 190.607C47.6662 190.607 48.2469 190.41 48.6309 190.007C49.015 189.613 49.2117 188.938 49.2117 188.01V186.116C49.2117 185.225 49.0524 184.587 48.734 184.184C48.4155 183.79 47.9191 183.584 47.2447 183.584H45.4932V190.607H46.8981Z" fill="#E43E56"/>
<path d="M83.9987 203.387C82.9965 202.309 82.4907 200.79 82.4907 198.821V185.9C82.4907 183.931 82.9965 182.412 83.9987 181.333C85.0009 180.255 86.4528 179.721 88.3448 179.721C90.2368 179.721 91.6886 180.255 92.6908 181.333C93.6931 182.412 94.1988 183.931 94.1988 185.9V198.821C94.1988 200.79 93.6931 202.309 92.6908 203.387C91.6886 204.465 90.2368 205 88.3448 205C86.4528 205 85.0009 204.465 83.9987 203.387ZM90.3492 199.065V185.656C90.3492 184.043 89.6842 183.237 88.3542 183.237C87.0241 183.237 86.3591 184.043 86.3591 185.656V199.065C86.3591 200.677 87.0241 201.484 88.3542 201.484C89.6842 201.484 90.3492 200.677 90.3492 199.065Z" fill="#E43E56"/>
<path d="M125.136 203.397C124.153 202.328 123.666 200.809 123.666 198.811V180.058H127.525V199.083C127.525 199.927 127.693 200.537 128.031 200.912C128.368 201.287 128.855 201.474 129.482 201.474C130.11 201.474 130.597 201.287 130.934 200.912C131.271 200.537 131.44 199.927 131.44 199.083V180.058H135.159V198.811C135.159 200.799 134.672 202.328 133.688 203.397C132.705 204.466 131.281 204.991 129.408 204.991C127.534 204.991 126.111 204.456 125.127 203.397H125.136Z" fill="#E43E56"/>
<path d="M164.907 180.068H170.592C172.512 180.068 173.945 180.583 174.91 181.615C175.865 182.646 176.352 184.156 176.352 186.144V188.563C176.352 190.551 175.875 192.06 174.91 193.092C173.955 194.123 172.512 194.639 170.592 194.639H168.766V204.644H164.907V180.068ZM170.592 191.132C171.22 191.132 171.697 190.954 172.016 190.607C172.334 190.26 172.493 189.66 172.493 188.816V185.9C172.493 185.056 172.334 184.456 172.016 184.109C171.697 183.762 171.229 183.584 170.592 183.584H168.766V191.132H170.592Z" fill="#E43E56"/>
<path d="M205.454 180.068H215.973V183.575H209.313V190.073H214.605V193.579H209.313V201.128H215.973V204.634H205.454V180.058V180.068Z" fill="#E43E56"/>
<path d="M256.782 2.41919L239.895 123.424H239.408L222.52 2.41919H184.642V67.5489L207.805 127.381V43.4792H208.283L227.587 171.488H249.786L269.09 43.4792H269.568V171.488H294.661V2.41919H256.782Z" fill="url(#paint7_linear_21_286)"/>
<g style="mix-blend-mode:color">
<g style="mix-blend-mode:color">
<path d="M319.753 162.918C313.159 155.595 309.862 145.084 309.862 131.394V121.736H334.955V133.325C334.955 144.277 339.535 149.753 348.705 149.753C353.211 149.753 356.629 148.422 358.962 145.768C361.294 143.115 362.465 138.801 362.465 132.847C362.465 125.768 360.854 119.523 357.641 114.132C354.419 108.74 348.471 102.261 339.788 94.6846C328.848 85.0268 321.215 76.2878 316.869 68.4771C312.522 60.6664 310.359 51.8524 310.359 42.0258C310.359 28.6642 313.74 18.3218 320.493 10.9893C327.247 3.66624 337.063 0 349.932 0C362.802 0 372.253 3.66624 378.762 10.9893C385.272 18.3218 388.532 28.8236 388.532 42.5134V49.5177H363.439V40.8256C363.439 35.0309 362.315 30.802 360.057 28.1485C357.8 25.4949 354.513 24.1634 350.166 24.1634C341.315 24.1634 336.894 29.5643 336.894 40.3474C336.894 46.4703 338.543 52.1806 341.84 57.4971C345.137 62.8137 351.131 69.2554 359.814 76.8223C370.913 86.4801 378.547 95.266 382.734 103.152C386.911 111.047 389.009 120.301 389.009 130.925C389.009 144.774 385.591 155.407 378.753 162.805C371.915 170.213 361.987 173.917 348.958 173.917C335.929 173.917 326.357 170.26 319.763 162.927L319.753 162.918Z" fill="#1D63AF"/>
</g>
<g style="mix-blend-mode:color">
<path d="M256.782 2.41919L239.895 123.424H239.408L222.52 2.41919H184.642V67.5489L207.805 127.381V43.4792H208.283L227.587 171.488H249.786L269.09 43.4792H269.568V171.488H294.661V2.41919H256.782Z" fill="#1D63AF"/>
</g>
</g>
<g style="mix-blend-mode:hard-light">
<path d="M58.5219 102.636L65.0316 85.8237H53.0799L75.1474 28.8235L81.1232 44.2668L91.0704 18.5843L85.0852 3.15049L85.0946 3.14111H85.0852H65.2095H65.2002L65.2095 3.15049L0.0280762 171.497H19.9038L46.5702 102.636H58.5219Z" fill="#1A60AD"/>
<path d="M152.533 12.4052L152.561 12.3395L148.946 3.14111H129.061L123.038 18.6968L117.016 3.14111H116.922L107.068 28.5891V28.8235L113.091 44.3699L107.059 59.935L101.036 44.3793V44.1542L91.1735 69.621L93.6275 76.6159L97.1118 85.6174L97.0275 85.8331H84.8885L78.3788 102.645H90.5178L85.8252 114.779C80.5987 116.785 75.6344 119.204 70.9887 121.98L71.0823 121.745L70.9699 121.802L56.9576 157.995L57.1262 158.239C57.6789 157.292 58.2596 156.354 58.8684 155.435C58.8965 155.389 58.934 155.342 58.9621 155.295C59.3836 154.667 59.8144 154.048 60.2546 153.429C60.2546 153.419 60.2734 153.41 60.2734 153.401C60.4888 153.101 60.7136 152.801 60.9384 152.501C61.0133 152.397 61.0883 152.294 61.1726 152.2C61.5004 151.769 61.8376 151.338 62.1841 150.907C62.3434 150.7 62.512 150.503 62.6806 150.297C62.8398 150.1 62.999 149.913 63.1583 149.725C63.4861 149.341 63.8139 148.956 64.1511 148.572C64.226 148.487 64.301 148.412 64.3665 148.328C68.0476 144.221 72.3281 140.527 77.105 137.31L63.8607 171.516H83.9144C84.1111 171.104 84.3265 170.7 84.542 170.297C84.6075 170.175 84.6825 170.053 84.748 169.932C84.9073 169.65 85.0571 169.369 85.2164 169.097C85.3007 168.956 85.385 168.825 85.4693 168.694C85.6285 168.441 85.7784 168.178 85.947 167.925C86.0312 167.794 86.1249 167.653 86.2186 167.522C86.3872 167.269 86.5464 167.025 86.7244 166.781C86.818 166.65 86.9117 166.528 87.0054 166.406C87.1833 166.162 87.3613 165.909 87.5486 165.665C87.6423 165.543 87.7359 165.431 87.8296 165.309C88.0263 165.065 88.2136 164.812 88.4197 164.578C88.5134 164.465 88.607 164.362 88.7007 164.249C88.9068 164.006 89.1222 163.752 89.3376 163.518C89.4313 163.415 89.525 163.321 89.6186 163.218C89.8434 162.974 90.0682 162.73 90.3024 162.487C90.396 162.393 90.4897 162.299 90.574 162.205C90.8175 161.962 91.0517 161.718 91.3046 161.483C91.3983 161.399 91.4825 161.314 91.5762 161.23C91.8291 160.986 92.0914 160.752 92.3536 160.508C92.4379 160.433 92.5316 160.349 92.6253 160.274C92.8969 160.039 93.1685 159.796 93.4495 159.57C93.5338 159.495 93.6275 159.43 93.7118 159.355C93.9928 159.12 94.2831 158.886 94.5735 158.661C94.6578 158.595 94.7515 158.53 94.8358 158.464C95.1355 158.239 95.4352 158.014 95.7443 157.789C95.8286 157.723 95.9223 157.667 96.0066 157.611C96.3157 157.395 96.6341 157.17 96.9526 156.964C97.0369 156.908 97.1306 156.851 97.2148 156.795C97.5427 156.579 97.8611 156.373 98.1983 156.167C98.2826 156.111 98.3763 156.064 98.4606 156.007C98.7978 155.801 99.1256 155.604 99.4722 155.407C106.216 151.563 114.327 149.312 123.066 149.312C140.722 149.312 155.849 158.483 162.2 171.526H181.766C177.177 157.198 165.328 145.365 149.705 138.942V138.961C148.974 138.651 148.234 138.361 147.485 138.079C139.954 135.295 131.618 133.738 122.851 133.738C117.325 133.738 111.976 134.357 106.881 135.51L106.9 135.454C104.109 136.101 101.402 136.917 98.7884 137.873C98.4981 137.976 98.1983 138.079 97.908 138.192C97.4115 138.379 96.9245 138.576 96.4281 138.783L101.149 126.574C103.528 125.946 105.963 125.421 108.445 124.999C109.251 124.868 110.066 124.755 110.881 124.652V124.624C114.814 124.071 118.851 123.789 122.963 123.789C142.015 123.789 159.352 129.912 172.325 139.936C172.353 139.955 172.381 139.973 172.4 140.002C172.802 140.311 173.196 140.63 173.589 140.949C173.823 141.136 174.058 141.333 174.292 141.521C174.404 141.614 174.507 141.699 174.61 141.792C181.111 147.231 186.393 153.691 190.084 160.864L190.589 162.158C191.751 164.606 192.734 167.119 193.512 169.707L194.224 171.544H214.109L152.533 12.4052ZM123.038 70.043L125.886 77.3848L129.155 85.8331H116.931L123.048 70.043H123.038ZM123.282 107.934C121.174 107.934 119.076 107.999 117.006 108.112C117.006 108.112 116.959 108.112 116.931 108.112C113.897 108.29 110.899 108.599 107.949 109.021L110.422 102.627H135.664L138.109 108.946C133.285 108.271 128.33 107.924 123.282 107.924V107.934ZM160.158 114.554L136.873 54.4122L133.997 46.9766L132.985 44.3699L139.008 28.8142L174.938 121.605C170.311 118.886 165.365 116.523 160.167 114.554H160.158Z" fill="#1A60AD"/>
</g>
<path d="M117.016 3.13184H97.1399L31.9491 171.488H51.8342L117.016 3.13184Z" fill="#E43E56"/>
<g style="mix-blend-mode:overlay">
<path d="M85.0665 3.13184H65.1814L0 171.488H19.8851L85.0665 3.13184Z" fill="#509ED7"/>
</g>
</g>
<defs>
<linearGradient id="paint0_linear_21_286" x1="132.976" y1="151.797" x2="97.7862" y2="61.7235" gradientUnits="userSpaceOnUse">
<stop offset="0.29" stop-color="#C6C8C8"/>
<stop offset="1" stop-color="#808385"/>
</linearGradient>
<linearGradient id="paint1_linear_21_286" x1="187.639" y1="256.637" x2="91.5648" y2="127.17" gradientUnits="userSpaceOnUse">
<stop offset="0.29" stop-color="#C6C8C8"/>
<stop offset="1" stop-color="#808385"/>
</linearGradient>
<linearGradient id="paint2_linear_21_286" x1="204.976" y1="240.715" x2="114.924" y2="119.363" gradientUnits="userSpaceOnUse">
<stop offset="0.29" stop-color="#C6C8C8"/>
<stop offset="1" stop-color="#808385"/>
</linearGradient>
<linearGradient id="paint3_linear_21_286" x1="129.033" y1="-8.53262" x2="98.1261" y2="122.143" gradientUnits="userSpaceOnUse">
<stop offset="0.29" stop-color="#C6C8C8"/>
<stop offset="1" stop-color="#808385"/>
</linearGradient>
<linearGradient id="paint4_linear_21_286" x1="104.287" y1="-2.19406" x2="51.0663" y2="157.305" gradientUnits="userSpaceOnUse">
<stop offset="0.29" stop-color="#C6C8C8"/>
<stop offset="1" stop-color="#808385"/>
</linearGradient>
<linearGradient id="paint5_linear_21_286" x1="72.3655" y1="-2.19406" x2="19.1359" y2="157.305" gradientUnits="userSpaceOnUse">
<stop offset="0.29" stop-color="#C6C8C8"/>
<stop offset="1" stop-color="#808385"/>
</linearGradient>
<linearGradient id="paint6_linear_21_286" x1="349.427" y1="-7.25747" x2="349.427" y2="148.169" gradientUnits="userSpaceOnUse">
<stop stop-color="#0877AC"/>
<stop offset="1" stop-color="#194889"/>
</linearGradient>
<linearGradient id="paint7_linear_21_286" x1="239.651" y1="-7.25743" x2="239.651" y2="148.169" gradientUnits="userSpaceOnUse">
<stop stop-color="#0877AC"/>
<stop offset="1" stop-color="#194889"/>
</linearGradient>
<clipPath id="clip0_21_286">
<rect width="389" height="205" fill="white"/>
</clipPath>
</defs>
</svg>
