<svg width="771" height="139" viewBox="0 0 771 139" fill="none" xmlns="http://www.w3.org/2000/svg">
<mask id="path-1-outside-1_723_546" maskUnits="userSpaceOnUse" x="-0.210938" y="-0.875" width="771" height="140" fill="black">
<rect fill="white" x="-0.210938" y="-0.875" width="771" height="140"/>
<path d="M63.2271 86.625H30.4771L25.2271 102.125H2.85205L34.6021 14.375H59.3521L91.1021 102.125H68.4771L63.2271 86.625ZM57.7271 70.125L46.8521 38L36.1021 70.125H57.7271ZM127.265 31.375C132.182 31.375 136.473 32.375 140.14 34.375C143.89 36.375 146.765 39 148.765 42.25V32.375H170.14V102C170.14 108.417 168.848 114.208 166.265 119.375C163.765 124.625 159.89 128.792 154.64 131.875C149.473 134.958 143.015 136.5 135.265 136.5C124.932 136.5 116.557 134.042 110.14 129.125C103.723 124.292 100.057 117.708 99.1401 109.375H120.265C120.932 112.042 122.515 114.125 125.015 115.625C127.515 117.208 130.598 118 134.265 118C138.682 118 142.182 116.708 144.765 114.125C147.432 111.625 148.765 107.583 148.765 102V92.125C146.682 95.375 143.807 98.0417 140.14 100.125C136.473 102.125 132.182 103.125 127.265 103.125C121.515 103.125 116.307 101.667 111.64 98.75C106.973 95.75 103.265 91.5417 100.515 86.125C97.8485 80.625 96.5151 74.2917 96.5151 67.125C96.5151 59.9583 97.8485 53.6667 100.515 48.25C103.265 42.8333 106.973 38.6667 111.64 35.75C116.307 32.8333 121.515 31.375 127.265 31.375ZM148.765 67.25C148.765 61.9167 147.265 57.7083 144.265 54.625C141.348 51.5417 137.765 50 133.515 50C129.265 50 125.64 51.5417 122.64 54.625C119.723 57.625 118.265 61.7917 118.265 67.125C118.265 72.4583 119.723 76.7083 122.64 79.875C125.64 82.9583 129.265 84.5 133.515 84.5C137.765 84.5 141.348 82.9583 144.265 79.875C147.265 76.7917 148.765 72.5833 148.765 67.25ZM251.354 66.125C251.354 68.125 251.229 70.2083 250.979 72.375H202.604C202.937 76.7083 204.312 80.0417 206.729 82.375C209.229 84.625 212.271 85.75 215.854 85.75C221.187 85.75 224.896 83.5 226.979 79H249.729C248.562 83.5833 246.437 87.7083 243.354 91.375C240.354 95.0417 236.562 97.9167 231.979 100C227.396 102.083 222.271 103.125 216.604 103.125C209.771 103.125 203.687 101.667 198.354 98.75C193.021 95.8333 188.854 91.6667 185.854 86.25C182.854 80.8333 181.354 74.5 181.354 67.25C181.354 60 182.812 53.6667 185.729 48.25C188.729 42.8333 192.896 38.6667 198.229 35.75C203.562 32.8333 209.687 31.375 216.604 31.375C223.354 31.375 229.354 32.7917 234.604 35.625C239.854 38.4583 243.937 42.5 246.854 47.75C249.854 53 251.354 59.125 251.354 66.125ZM229.479 60.5C229.479 56.8333 228.229 53.9167 225.729 51.75C223.229 49.5833 220.104 48.5 216.354 48.5C212.771 48.5 209.729 49.5417 207.229 51.625C204.812 53.7083 203.312 56.6667 202.729 60.5H229.479ZM305.13 31.625C313.297 31.625 319.797 34.2917 324.63 39.625C329.547 44.875 332.005 52.125 332.005 61.375V102.125H310.755V64.25C310.755 59.5833 309.547 55.9583 307.13 53.375C304.714 50.7917 301.464 49.5 297.38 49.5C293.297 49.5 290.047 50.7917 287.63 53.375C285.214 55.9583 284.005 59.5833 284.005 64.25V102.125H262.63V32.375H284.005V41.625C286.172 38.5417 289.089 36.125 292.755 34.375C296.422 32.5417 300.547 31.625 305.13 31.625ZM342.609 67.25C342.609 60 344.067 53.6667 346.984 48.25C349.984 42.8333 354.109 38.6667 359.359 35.75C364.692 32.8333 370.776 31.375 377.609 31.375C386.359 31.375 393.651 33.6667 399.484 38.25C405.401 42.8333 409.276 49.2917 411.109 57.625H388.359C386.442 52.2917 382.734 49.625 377.234 49.625C373.317 49.625 370.192 51.1667 367.859 54.25C365.526 57.25 364.359 61.5833 364.359 67.25C364.359 72.9167 365.526 77.2917 367.859 80.375C370.192 83.375 373.317 84.875 377.234 84.875C382.734 84.875 386.442 82.2083 388.359 76.875H411.109C409.276 85.0417 405.401 91.4583 399.484 96.125C393.567 100.792 386.276 103.125 377.609 103.125C370.776 103.125 364.692 101.667 359.359 98.75C354.109 95.8333 349.984 91.6667 346.984 86.25C344.067 80.8333 342.609 74.5 342.609 67.25ZM493.792 32.375L450.042 135.25H427.042L443.042 99.75L414.667 32.375H438.542L454.667 76L470.667 32.375H493.792ZM536.522 50.125H525.022V102.125H503.647V50.125H495.897V32.375H503.647V30.375C503.647 21.7917 506.105 15.2917 511.022 10.875C515.939 6.375 523.147 4.125 532.647 4.125C534.23 4.125 535.397 4.16666 536.147 4.24999V22.375C532.064 22.125 529.189 22.7083 527.522 24.125C525.855 25.5417 525.022 28.0833 525.022 31.75V32.375H536.522V50.125ZM578.316 103.125C571.483 103.125 565.316 101.667 559.816 98.75C554.399 95.8333 550.108 91.6667 546.941 86.25C543.858 80.8333 542.316 74.5 542.316 67.25C542.316 60.0833 543.899 53.7917 547.066 48.375C550.233 42.875 554.566 38.6667 560.066 35.75C565.566 32.8333 571.733 31.375 578.566 31.375C585.399 31.375 591.566 32.8333 597.066 35.75C602.566 38.6667 606.899 42.875 610.066 48.375C613.233 53.7917 614.816 60.0833 614.816 67.25C614.816 74.4167 613.191 80.75 609.941 86.25C606.774 91.6667 602.399 95.8333 596.816 98.75C591.316 101.667 585.149 103.125 578.316 103.125ZM578.316 84.625C582.399 84.625 585.858 83.125 588.691 80.125C591.608 77.125 593.066 72.8333 593.066 67.25C593.066 61.6667 591.649 57.375 588.816 54.375C586.066 51.375 582.649 49.875 578.566 49.875C574.399 49.875 570.941 51.375 568.191 54.375C565.441 57.2917 564.066 61.5833 564.066 67.25C564.066 72.8333 565.399 77.125 568.066 80.125C570.816 83.125 574.233 84.625 578.316 84.625ZM647.531 9.625V102.125H626.156V9.625H647.531ZM673.771 25.125C670.021 25.125 666.938 24.0417 664.521 21.875C662.188 19.625 661.021 16.875 661.021 13.625C661.021 10.2917 662.188 7.54166 664.521 5.37499C666.938 3.12499 670.021 1.99999 673.771 1.99999C677.438 1.99999 680.438 3.12499 682.771 5.37499C685.188 7.54166 686.396 10.2917 686.396 13.625C686.396 16.875 685.188 19.625 682.771 21.875C680.438 24.0417 677.438 25.125 673.771 25.125ZM684.396 32.375V102.125H663.021V32.375H684.396ZM731.636 103.125C724.803 103.125 718.636 101.667 713.136 98.75C707.72 95.8333 703.428 91.6667 700.261 86.25C697.178 80.8333 695.636 74.5 695.636 67.25C695.636 60.0833 697.22 53.7917 700.386 48.375C703.553 42.875 707.886 38.6667 713.386 35.75C718.886 32.8333 725.053 31.375 731.886 31.375C738.72 31.375 744.886 32.8333 750.386 35.75C755.886 38.6667 760.22 42.875 763.386 48.375C766.553 53.7917 768.136 60.0833 768.136 67.25C768.136 74.4167 766.511 80.75 763.261 86.25C760.095 91.6667 755.72 95.8333 750.136 98.75C744.636 101.667 738.47 103.125 731.636 103.125ZM731.636 84.625C735.72 84.625 739.178 83.125 742.011 80.125C744.928 77.125 746.386 72.8333 746.386 67.25C746.386 61.6667 744.97 57.375 742.136 54.375C739.386 51.375 735.97 49.875 731.886 49.875C727.72 49.875 724.261 51.375 721.511 54.375C718.761 57.2917 717.386 61.5833 717.386 67.25C717.386 72.8333 718.72 77.125 721.386 80.125C724.136 83.125 727.553 84.625 731.636 84.625Z"/>
</mask>
<path d="M63.2271 86.625L65.1213 85.9834L64.6612 84.625H63.2271V86.625ZM30.4771 86.625V84.625H29.0429L28.5828 85.9834L30.4771 86.625ZM25.2271 102.125V104.125H26.6612L27.1213 102.767L25.2271 102.125ZM2.85205 102.125L0.971372 101.445L0.00151348 104.125H2.85205V102.125ZM34.6021 14.375V12.375H33.1988L32.7214 13.6945L34.6021 14.375ZM59.3521 14.375L61.2327 13.6945L60.7553 12.375H59.3521V14.375ZM91.1021 102.125V104.125H93.9526L92.9827 101.445L91.1021 102.125ZM68.4771 102.125L66.5828 102.767L67.0429 104.125H68.4771V102.125ZM57.7271 70.125V72.125H60.5156L59.6214 69.4837L57.7271 70.125ZM46.8521 38L48.7465 37.3587L46.8411 31.7302L44.9554 37.3653L46.8521 38ZM36.1021 70.125L34.2054 69.4903L33.3238 72.125H36.1021V70.125ZM63.2271 86.625V84.625H30.4771V86.625V88.625H63.2271V86.625ZM30.4771 86.625L28.5828 85.9834L23.3328 101.483L25.2271 102.125L27.1213 102.767L32.3713 87.2666L30.4771 86.625ZM25.2271 102.125V100.125H2.85205V102.125V104.125H25.2271V102.125ZM2.85205 102.125L4.73273 102.805L36.4827 15.0555L34.6021 14.375L32.7214 13.6945L0.971372 101.445L2.85205 102.125ZM34.6021 14.375V16.375H59.3521V14.375V12.375H34.6021V14.375ZM59.3521 14.375L57.4714 15.0555L89.2214 102.805L91.1021 102.125L92.9827 101.445L61.2327 13.6945L59.3521 14.375ZM91.1021 102.125V100.125H68.4771V102.125V104.125H91.1021V102.125ZM68.4771 102.125L70.3713 101.483L65.1213 85.9834L63.2271 86.625L61.3328 87.2666L66.5828 102.767L68.4771 102.125ZM57.7271 70.125L59.6214 69.4837L48.7465 37.3587L46.8521 38L44.9577 38.6413L55.8327 70.7663L57.7271 70.125ZM46.8521 38L44.9554 37.3653L34.2054 69.4903L36.1021 70.125L37.9987 70.7597L48.7487 38.6347L46.8521 38ZM36.1021 70.125V72.125H57.7271V70.125V68.125H36.1021V70.125ZM140.14 34.375L139.182 36.1308L139.191 36.1353L139.199 36.1397L140.14 34.375ZM148.765 42.25L147.062 43.2982L150.765 49.3161V42.25H148.765ZM148.765 32.375V30.375H146.765V32.375H148.765ZM170.14 32.375H172.14V30.375H170.14V32.375ZM166.265 119.375L164.476 118.481L164.468 118.498L164.459 118.515L166.265 119.375ZM154.64 131.875L153.627 130.15L153.615 130.158L154.64 131.875ZM110.14 129.125L111.357 127.537L111.35 127.532L111.343 127.527L110.14 129.125ZM99.1401 109.375V107.375H96.9081L97.1521 109.594L99.1401 109.375ZM120.265 109.375L122.205 108.89L121.827 107.375H120.265V109.375ZM125.015 115.625L126.085 113.935L126.065 113.922L126.044 113.91L125.015 115.625ZM144.765 114.125L143.397 112.666L143.374 112.688L143.351 112.711L144.765 114.125ZM148.765 92.125H150.765V85.299L147.081 91.0457L148.765 92.125ZM140.14 100.125L141.098 101.881L141.113 101.872L141.128 101.864L140.14 100.125ZM111.64 98.75L110.559 100.432L110.569 100.439L110.58 100.446L111.64 98.75ZM100.515 86.125L98.7155 86.9975L98.7235 87.014L98.7318 87.0304L100.515 86.125ZM100.515 48.25L98.7318 47.3446L98.7262 47.3556L98.7208 47.3666L100.515 48.25ZM111.64 35.75L112.7 37.446V37.446L111.64 35.75ZM144.265 54.625L142.812 55.9994L142.822 56.0096L142.832 56.0197L144.265 54.625ZM122.64 54.625L121.207 53.2303L121.206 53.2308L122.64 54.625ZM122.64 79.875L121.169 81.2299L121.188 81.2501L121.207 81.2697L122.64 79.875ZM144.265 79.875L142.832 78.4803L142.822 78.4904L142.812 78.5006L144.265 79.875ZM127.265 31.375V33.375C131.907 33.375 135.858 34.3173 139.182 36.1308L140.14 34.375L141.098 32.6192C137.089 30.4327 132.457 29.375 127.265 29.375V31.375ZM140.14 34.375L139.199 36.1397C142.672 37.9922 145.268 40.3838 147.062 43.2982L148.765 42.25L150.468 41.2018C148.262 37.6162 145.108 34.7578 141.081 32.6103L140.14 34.375ZM148.765 42.25H150.765V32.375H148.765H146.765V42.25H148.765ZM148.765 32.375V34.375H170.14V32.375V30.375H148.765V32.375ZM170.14 32.375H168.14V102H170.14H172.14V32.375H170.14ZM170.14 102H168.14C168.14 108.141 166.906 113.621 164.476 118.481L166.265 119.375L168.054 120.269C170.791 114.795 172.14 108.692 172.14 102H170.14ZM166.265 119.375L164.459 118.515C162.14 123.387 158.55 127.26 153.627 130.15L154.64 131.875L155.653 133.6C161.231 130.324 165.391 125.863 168.071 120.235L166.265 119.375ZM154.64 131.875L153.615 130.158C148.836 133.01 142.756 134.5 135.265 134.5V136.5V138.5C143.274 138.5 150.111 136.907 155.665 133.592L154.64 131.875ZM135.265 136.5V134.5C125.248 134.5 117.337 132.12 111.357 127.537L110.14 129.125L108.924 130.713C115.776 135.963 124.616 138.5 135.265 138.5V136.5ZM110.14 129.125L111.343 127.527C105.388 123.042 101.987 116.968 101.128 109.156L99.1401 109.375L97.1521 109.594C98.1261 118.448 102.059 125.541 108.937 130.723L110.14 129.125ZM99.1401 109.375V111.375H120.265V109.375V107.375H99.1401V109.375ZM120.265 109.375L118.325 109.86C119.129 113.075 121.062 115.585 123.986 117.34L125.015 115.625L126.044 113.91C123.968 112.665 122.735 111.008 122.205 108.89L120.265 109.375ZM125.015 115.625L123.945 117.315C126.834 119.144 130.31 120 134.265 120V118V116C130.887 116 128.196 115.272 126.085 113.935L125.015 115.625ZM134.265 118V120C139.094 120 143.145 118.574 146.179 115.539L144.765 114.125L143.351 112.711C141.219 114.843 138.27 116 134.265 116V118ZM144.765 114.125L146.133 115.584C149.374 112.546 150.765 107.847 150.765 102H148.765H146.765C146.765 107.319 145.49 110.704 143.397 112.666L144.765 114.125ZM148.765 102H150.765V92.125H148.765H146.765V102H148.765ZM148.765 92.125L147.081 91.0457C145.189 93.998 142.563 96.4478 139.152 98.3861L140.14 100.125L141.128 101.864C145.05 99.6355 148.175 96.752 150.449 93.2043L148.765 92.125ZM140.14 100.125L139.182 98.3692C135.858 100.183 131.907 101.125 127.265 101.125V103.125V105.125C132.457 105.125 137.089 104.067 141.098 101.881L140.14 100.125ZM127.265 103.125V101.125C121.872 101.125 117.034 99.7629 112.7 97.054L111.64 98.75L110.58 100.446C115.579 103.57 121.158 105.125 127.265 105.125V103.125ZM111.64 98.75L112.722 97.0676C108.382 94.2777 104.903 90.3505 102.298 85.2196L100.515 86.125L98.7318 87.0304C101.627 92.7328 105.565 97.2223 110.559 100.432L111.64 98.75ZM100.515 86.125L102.315 85.2525C99.8009 80.0675 98.5151 74.0413 98.5151 67.125H96.5151H94.5151C94.5151 74.5421 95.8961 81.1825 98.7155 86.9975L100.515 86.125ZM96.5151 67.125H98.5151C98.5151 60.2078 99.8011 54.2284 102.309 49.1334L100.515 48.25L98.7208 47.3666C95.8958 53.1049 94.5151 59.7088 94.5151 67.125H96.5151ZM100.515 48.25L102.298 49.1554C104.901 44.0284 108.373 40.1502 112.7 37.446L111.64 35.75L110.58 34.054C105.574 37.1831 101.629 41.6382 98.7318 47.3446L100.515 48.25ZM111.64 35.75L112.7 37.446C117.034 34.7371 121.872 33.375 127.265 33.375V31.375V29.375C121.158 29.375 115.579 30.9295 110.58 34.054L111.64 35.75ZM148.765 67.25H150.765C150.765 61.5274 149.144 56.7718 145.699 53.2303L144.265 54.625L142.832 56.0197C145.386 58.6448 146.765 62.3059 146.765 67.25H148.765ZM144.265 54.625L145.718 53.2506C142.423 49.7673 138.314 48 133.515 48V50V52C137.216 52 140.274 53.316 142.812 55.9994L144.265 54.625ZM133.515 50V48C128.718 48 124.578 49.7653 121.207 53.2303L122.64 54.625L124.074 56.0197C126.702 53.318 129.812 52 133.515 52V50ZM122.64 54.625L121.206 53.2308C117.834 56.6991 116.265 61.4204 116.265 67.125H118.265H120.265C120.265 62.1629 121.613 58.5509 124.074 56.0192L122.64 54.625ZM118.265 67.125H116.265C116.265 72.8349 117.836 77.6111 121.169 81.2299L122.64 79.875L124.111 78.5201C121.611 75.8056 120.265 72.0817 120.265 67.125H118.265ZM122.64 79.875L121.207 81.2697C124.578 84.7347 128.718 86.5 133.515 86.5V84.5V82.5C129.812 82.5 126.702 81.182 124.074 78.4803L122.64 79.875ZM133.515 84.5V86.5C138.314 86.5 142.423 84.7327 145.718 81.2494L144.265 79.875L142.812 78.5006C140.274 81.184 137.216 82.5 133.515 82.5V84.5ZM144.265 79.875L145.699 81.2697C149.144 77.7282 150.765 72.9726 150.765 67.25H148.765H146.765C146.765 72.1941 145.386 75.8552 142.832 78.4803L144.265 79.875ZM250.979 72.375V74.375H252.762L252.966 72.6042L250.979 72.375ZM202.604 72.375V70.375H200.444L200.61 72.5284L202.604 72.375ZM206.729 82.375L205.34 83.8138L205.365 83.8381L205.391 83.8616L206.729 82.375ZM226.979 79V77H225.701L225.164 78.1598L226.979 79ZM249.729 79L251.667 79.4934L252.302 77H249.729V79ZM243.354 91.375L241.823 90.0878L241.815 90.0981L241.806 90.1085L243.354 91.375ZM231.979 100L232.807 101.821L231.979 100ZM198.354 98.75L197.394 100.505V100.505L198.354 98.75ZM185.854 86.25L187.604 85.281V85.281L185.854 86.25ZM185.729 48.25L183.979 47.281L183.974 47.2914L183.968 47.3018L185.729 48.25ZM198.229 35.75L199.189 37.5047V37.5047L198.229 35.75ZM234.604 35.625L233.654 37.385V37.385L234.604 35.625ZM246.854 47.75L245.106 48.7213L245.112 48.7318L245.118 48.7423L246.854 47.75ZM229.479 60.5V62.5H231.479V60.5H229.479ZM225.729 51.75L227.039 50.2386V50.2386L225.729 51.75ZM207.229 51.625L205.949 50.0886L205.936 50.0993L205.923 50.1102L207.229 51.625ZM202.729 60.5L200.752 60.1991L200.402 62.5H202.729V60.5ZM251.354 66.125H249.354C249.354 68.0419 249.234 70.0484 248.992 72.1458L250.979 72.375L252.966 72.6042C253.224 70.3682 253.354 68.2081 253.354 66.125H251.354ZM250.979 72.375V70.375H202.604V72.375V74.375H250.979V72.375ZM202.604 72.375L200.61 72.5284C200.969 77.2027 202.478 81.0503 205.34 83.8138L206.729 82.375L208.118 80.9362C206.147 79.033 204.905 76.214 204.598 72.2216L202.604 72.375ZM206.729 82.375L205.391 83.8616C208.284 86.465 211.812 87.75 215.854 87.75V85.75V83.75C212.73 83.75 210.174 82.785 208.067 80.8884L206.729 82.375ZM215.854 85.75V87.75C218.803 87.75 221.441 87.1264 223.673 85.7724C225.914 84.4127 227.61 82.3977 228.794 79.8402L226.979 79L225.164 78.1598C224.265 80.1023 223.065 81.4623 221.598 82.3526C220.121 83.2486 218.239 83.75 215.854 83.75V85.75ZM226.979 79V81H249.729V79V77H226.979V79ZM249.729 79L247.791 78.5066C246.699 82.7942 244.715 86.6486 241.823 90.0878L243.354 91.375L244.885 92.6622C248.159 88.7681 250.425 84.3725 251.667 79.4934L249.729 79ZM243.354 91.375L241.806 90.1085C239.013 93.5228 235.473 96.2148 231.151 98.1793L231.979 100L232.807 101.821C237.651 99.6185 241.695 96.5605 244.902 92.6415L243.354 91.375ZM231.979 100L231.151 98.1793C226.859 100.13 222.021 101.125 216.604 101.125V103.125V105.125C222.52 105.125 227.933 104.036 232.807 101.821L231.979 100ZM216.604 103.125V101.125C210.064 101.125 204.318 99.7319 199.314 96.9953L198.354 98.75L197.394 100.505C203.057 103.601 209.478 105.125 216.604 105.125V103.125ZM198.354 98.75L199.314 96.9953C194.319 94.2639 190.424 90.3727 187.604 85.281L185.854 86.25L184.104 87.219C187.284 92.9606 191.722 97.4027 197.394 100.505L198.354 98.75ZM185.854 86.25L187.604 85.281C184.794 80.208 183.354 74.2192 183.354 67.25H181.354H179.354C179.354 74.7808 180.914 81.4587 184.104 87.219L185.854 86.25ZM181.354 67.25H183.354C183.354 60.2719 184.756 54.2755 187.49 49.1982L185.729 48.25L183.968 47.3018C180.869 53.0578 179.354 59.7281 179.354 67.25H181.354ZM185.729 48.25L187.479 49.219C190.299 44.1273 194.194 40.2361 199.189 37.5047L198.229 35.75L197.269 33.9953C191.597 37.0973 187.159 41.5394 183.979 47.281L185.729 48.25ZM198.229 35.75L199.189 37.5047C204.189 34.7701 209.976 33.375 216.604 33.375V31.375V29.375C209.399 29.375 202.935 30.8966 197.269 33.9953L198.229 35.75ZM216.604 31.375V33.375C223.067 33.375 228.733 34.7289 233.654 37.385L234.604 35.625L235.554 33.865C229.975 30.8544 223.641 29.375 216.604 29.375V31.375ZM234.604 35.625L233.654 37.385C238.566 40.0358 242.373 43.8026 245.106 48.7213L246.854 47.75L248.602 46.7787C245.502 41.1973 241.142 36.8809 235.554 33.865L234.604 35.625ZM246.854 47.75L245.118 48.7423C247.919 53.6453 249.354 59.4176 249.354 66.125H251.354H253.354C253.354 58.8324 251.789 52.3547 248.59 46.7577L246.854 47.75ZM229.479 60.5H231.479C231.479 56.3238 230.028 52.8291 227.039 50.2386L225.729 51.75L224.419 53.2614C226.43 55.0043 227.479 57.3428 227.479 60.5H229.479ZM225.729 51.75L227.039 50.2386C224.127 47.7147 220.517 46.5 216.354 46.5V48.5V50.5C219.691 50.5 222.331 51.452 224.419 53.2614L225.729 51.75ZM216.354 48.5V46.5C212.353 46.5 208.845 47.6748 205.949 50.0886L207.229 51.625L208.509 53.1614C210.613 51.4085 213.188 50.5 216.354 50.5V48.5ZM207.229 51.625L205.923 50.1102C203.071 52.5685 201.391 55.9998 200.752 60.1991L202.729 60.5L204.706 60.8009C205.234 57.3335 206.553 54.8481 208.535 53.1398L207.229 51.625ZM202.729 60.5V62.5H229.479V60.5V58.5H202.729V60.5ZM324.63 39.625L323.148 40.968L323.159 40.9802L323.171 40.9921L324.63 39.625ZM332.005 102.125V104.125H334.005V102.125H332.005ZM310.755 102.125H308.755V104.125H310.755V102.125ZM307.13 53.375L305.67 54.7413V54.7413L307.13 53.375ZM287.63 53.375L289.091 54.7413V54.7413L287.63 53.375ZM284.005 102.125V104.125H286.005V102.125H284.005ZM262.63 102.125H260.63V104.125H262.63V102.125ZM262.63 32.375V30.375H260.63V32.375H262.63ZM284.005 32.375H286.005V30.375H284.005V32.375ZM284.005 41.625H282.005V47.9497L285.642 42.7749L284.005 41.625ZM292.755 34.375L293.617 36.18L293.633 36.1721L293.65 36.1638L292.755 34.375ZM305.13 31.625V33.625C312.817 33.625 318.747 36.1115 323.148 40.968L324.63 39.625L326.112 38.282C320.847 32.4718 313.778 29.625 305.13 29.625V31.625ZM324.63 39.625L323.171 40.9921C327.649 45.7746 330.005 52.4823 330.005 61.375H332.005H334.005C334.005 51.7677 331.445 43.9754 326.09 38.2579L324.63 39.625ZM332.005 61.375H330.005V102.125H332.005H334.005V61.375H332.005ZM332.005 102.125V100.125H310.755V102.125V104.125H332.005V102.125ZM310.755 102.125H312.755V64.25H310.755H308.755V102.125H310.755ZM310.755 64.25H312.755C312.755 59.2422 311.453 55.0683 308.591 52.0087L307.13 53.375L305.67 54.7413C307.641 56.8483 308.755 59.9244 308.755 64.25H310.755ZM307.13 53.375L308.591 52.0087C305.737 48.9575 301.924 47.5 297.38 47.5V49.5V51.5C301.004 51.5 303.691 52.6258 305.67 54.7413L307.13 53.375ZM297.38 49.5V47.5C292.837 47.5 289.024 48.9575 286.17 52.0087L287.63 53.375L289.091 54.7413C291.07 52.6258 293.757 51.5 297.38 51.5V49.5ZM287.63 53.375L286.17 52.0087C283.308 55.0683 282.005 59.2422 282.005 64.25H284.005H286.005C286.005 59.9244 287.12 56.8483 289.091 54.7413L287.63 53.375ZM284.005 64.25H282.005V102.125H284.005H286.005V64.25H284.005ZM284.005 102.125V100.125H262.63V102.125V104.125H284.005V102.125ZM262.63 102.125H264.63V32.375H262.63H260.63V102.125H262.63ZM262.63 32.375V34.375H284.005V32.375V30.375H262.63V32.375ZM284.005 32.375H282.005V41.625H284.005H286.005V32.375H284.005ZM284.005 41.625L285.642 42.7749C287.595 39.9947 290.236 37.7938 293.617 36.18L292.755 34.375L291.894 32.57C287.942 34.4562 284.749 37.0886 282.369 40.4751L284.005 41.625ZM292.755 34.375L293.65 36.1638C297.007 34.485 300.82 33.625 305.13 33.625V31.625V29.625C300.274 29.625 295.837 30.5983 291.861 32.5861L292.755 34.375ZM346.984 48.25L345.234 47.281L345.229 47.2914L345.223 47.3018L346.984 48.25ZM359.359 35.75L358.399 33.9952L358.388 34.0017L359.359 35.75ZM399.484 38.25L398.248 39.8227L398.259 39.8311L399.484 38.25ZM411.109 57.625V59.625H413.597L413.062 57.1953L411.109 57.625ZM388.359 57.625L386.477 58.3014L386.952 59.625H388.359V57.625ZM367.859 54.25L369.438 55.4779L369.446 55.4674L369.454 55.4569L367.859 54.25ZM367.859 80.375L366.264 81.5819L366.272 81.5924L366.28 81.6029L367.859 80.375ZM388.359 76.875V74.875H386.952L386.477 76.1986L388.359 76.875ZM411.109 76.875L413.06 77.3131L413.608 74.875H411.109V76.875ZM399.484 96.125L398.245 94.5547V94.5547L399.484 96.125ZM359.359 98.75L358.388 100.498L358.399 100.505L359.359 98.75ZM346.984 86.25L345.223 87.1982L345.229 87.2086L345.234 87.219L346.984 86.25ZM342.609 67.25H344.609C344.609 60.2719 346.011 54.2755 348.745 49.1982L346.984 48.25L345.223 47.3018C342.124 53.0578 340.609 59.7281 340.609 67.25H342.609ZM346.984 48.25L348.733 49.219C351.558 44.1191 355.418 40.2273 360.33 37.4983L359.359 35.75L358.388 34.0017C352.8 37.106 348.41 41.5475 345.234 47.281L346.984 48.25ZM359.359 35.75L360.319 37.5047C365.323 34.7681 371.069 33.375 377.609 33.375V31.375V29.375C370.482 29.375 364.062 30.8985 358.399 33.9953L359.359 35.75ZM377.609 31.375V33.375C385.994 33.375 392.828 35.5638 398.248 39.8226L399.484 38.25L400.72 36.6774C394.473 31.7696 386.723 29.375 377.609 29.375V31.375ZM399.484 38.25L398.259 39.8311C403.754 44.0879 407.408 50.1108 409.156 58.0547L411.109 57.625L413.062 57.1953C411.143 48.4725 407.047 41.5788 400.709 36.6689L399.484 38.25ZM411.109 57.625V55.625H388.359V57.625V59.625H411.109V57.625ZM388.359 57.625L390.241 56.9486C389.179 53.9935 387.562 51.6223 385.308 50.0012C383.049 48.3767 380.315 47.625 377.234 47.625V49.625V51.625C379.652 51.625 381.523 52.2066 382.973 53.2488C384.427 54.2944 385.622 55.9232 386.477 58.3014L388.359 57.625ZM377.234 49.625V47.625C372.7 47.625 368.981 49.4527 366.264 53.0431L367.859 54.25L369.454 55.4569C371.403 52.8807 373.934 51.625 377.234 51.625V49.625ZM367.859 54.25L366.28 53.0221C363.569 56.5086 362.359 61.3475 362.359 67.25H364.359H366.359C366.359 61.8191 367.483 57.9914 369.438 55.4779L367.859 54.25ZM364.359 67.25H362.359C362.359 73.1576 363.571 78.0226 366.264 81.5819L367.859 80.375L369.454 79.1681C367.481 76.5607 366.359 72.6757 366.359 67.25H364.359ZM367.859 80.375L366.28 81.6029C369.006 85.1072 372.722 86.875 377.234 86.875V84.875V82.875C373.912 82.875 371.379 81.6428 369.438 79.1471L367.859 80.375ZM377.234 84.875V86.875C380.315 86.875 383.049 86.1233 385.308 84.4988C387.562 82.8777 389.179 80.5065 390.241 77.5514L388.359 76.875L386.477 76.1986C385.622 78.5768 384.427 80.2056 382.973 81.2512C381.523 82.2934 379.652 82.875 377.234 82.875V84.875ZM388.359 76.875V78.875H411.109V76.875V74.875H388.359V76.875ZM411.109 76.875L409.157 76.4369C407.413 84.2083 403.761 90.2042 398.245 94.5547L399.484 96.125L400.722 97.6953C407.04 92.7125 411.138 85.8751 413.06 77.3131L411.109 76.875ZM399.484 96.125L398.245 94.5547C392.733 98.9022 385.897 101.125 377.609 101.125V103.125V105.125C386.654 105.125 394.401 102.681 400.722 97.6953L399.484 96.125ZM377.609 103.125V101.125C371.069 101.125 365.323 99.7319 360.319 96.9953L359.359 98.75L358.399 100.505C364.062 103.601 370.482 105.125 377.609 105.125V103.125ZM359.359 98.75L360.33 97.0017C355.418 94.2727 351.558 90.3809 348.733 85.281L346.984 86.25L345.234 87.219C348.41 92.9525 352.8 97.394 358.388 100.498L359.359 98.75ZM346.984 86.25L348.745 85.3018C346.011 80.2245 344.609 74.2281 344.609 67.25H342.609H340.609C340.609 74.7719 342.124 81.4422 345.223 87.1982L346.984 86.25ZM493.792 32.375L495.633 33.1577L496.816 30.375H493.792V32.375ZM450.042 135.25V137.25H451.365L451.883 136.033L450.042 135.25ZM427.042 135.25L425.219 134.428L423.947 137.25H427.042V135.25ZM443.042 99.75L444.866 100.572L445.224 99.7771L444.886 98.9737L443.042 99.75ZM414.667 32.375V30.375H411.655L412.824 33.1513L414.667 32.375ZM438.542 32.375L440.418 31.6816L439.935 30.375H438.542V32.375ZM454.667 76L452.792 76.6934L454.675 81.7884L456.545 76.6887L454.667 76ZM470.667 32.375V30.375H469.271L468.79 31.6863L470.667 32.375ZM493.792 32.375L491.952 31.5923L448.202 134.467L450.042 135.25L451.883 136.033L495.633 33.1577L493.792 32.375ZM450.042 135.25V133.25H427.042V135.25V137.25H450.042V135.25ZM427.042 135.25L428.866 136.072L444.866 100.572L443.042 99.75L441.219 98.9282L425.219 134.428L427.042 135.25ZM443.042 99.75L444.886 98.9737L416.511 31.5987L414.667 32.375L412.824 33.1513L441.199 100.526L443.042 99.75ZM414.667 32.375V34.375H438.542V32.375V30.375H414.667V32.375ZM438.542 32.375L436.667 33.0684L452.792 76.6934L454.667 76L456.543 75.3066L440.418 31.6816L438.542 32.375ZM454.667 76L456.545 76.6887L472.545 33.0637L470.667 32.375L468.79 31.6863L452.79 75.3113L454.667 76ZM470.667 32.375V34.375H493.792V32.375V30.375H470.667V32.375ZM536.522 50.125V52.125H538.522V50.125H536.522ZM525.022 50.125V48.125H523.022V50.125H525.022ZM525.022 102.125V104.125H527.022V102.125H525.022ZM503.647 102.125H501.647V104.125H503.647V102.125ZM503.647 50.125H505.647V48.125H503.647V50.125ZM495.897 50.125H493.897V52.125H495.897V50.125ZM495.897 32.375V30.375H493.897V32.375H495.897ZM503.647 32.375V34.375H505.647V32.375H503.647ZM511.022 10.875L512.359 12.3628L512.365 12.3566L512.372 12.3503L511.022 10.875ZM536.147 4.24999H538.147V2.45991L536.368 2.26222L536.147 4.24999ZM536.147 22.375L536.025 24.3713L538.147 24.5012V22.375H536.147ZM527.522 24.125L528.817 25.6489V25.6489L527.522 24.125ZM525.022 32.375H523.022V34.375H525.022V32.375ZM536.522 32.375H538.522V30.375H536.522V32.375ZM536.522 50.125V48.125H525.022V50.125V52.125H536.522V50.125ZM525.022 50.125H523.022V102.125H525.022H527.022V50.125H525.022ZM525.022 102.125V100.125H503.647V102.125V104.125H525.022V102.125ZM503.647 102.125H505.647V50.125H503.647H501.647V102.125H503.647ZM503.647 50.125V48.125H495.897V50.125V52.125H503.647V50.125ZM495.897 50.125H497.897V32.375H495.897H493.897V50.125H495.897ZM495.897 32.375V34.375H503.647V32.375V30.375H495.897V32.375ZM503.647 32.375H505.647V30.375H503.647H501.647V32.375H503.647ZM503.647 30.375H505.647C505.647 22.1794 507.982 16.2946 512.359 12.3628L511.022 10.875L509.685 9.38715C504.229 14.2887 501.647 21.4039 501.647 30.375H503.647ZM511.022 10.875L512.372 12.3503C516.789 8.30763 523.435 6.12499 532.647 6.12499V4.12499V2.12499C522.859 2.12499 515.088 4.44236 509.672 9.39965L511.022 10.875ZM532.647 4.12499V6.12499C534.218 6.12499 535.292 6.16734 535.926 6.23776L536.147 4.24999L536.368 2.26222C535.502 2.16599 534.242 2.12499 532.647 2.12499V4.12499ZM536.147 4.24999H534.147V22.375H536.147H538.147V4.24999H536.147ZM536.147 22.375L536.269 20.3787C532.07 20.1217 528.512 20.6582 526.227 22.6011L527.522 24.125L528.817 25.6489C529.865 24.7584 532.057 24.1283 536.025 24.3713L536.147 22.375ZM527.522 24.125L526.227 22.6011C523.886 24.5908 523.022 27.8805 523.022 31.75H525.022H527.022C527.022 28.2861 527.825 26.4925 528.817 25.6489L527.522 24.125ZM525.022 31.75H523.022V32.375H525.022H527.022V31.75H525.022ZM525.022 32.375V34.375H536.522V32.375V30.375H525.022V32.375ZM536.522 32.375H534.522V50.125H536.522H538.522V32.375H536.522ZM559.816 98.75L558.868 100.511L558.879 100.517L559.816 98.75ZM546.941 86.25L545.203 87.2394L545.208 87.2494L545.214 87.2594L546.941 86.25ZM547.066 48.375L548.793 49.3844L548.799 49.3729L547.066 48.375ZM560.066 35.75L561.003 37.5169V37.5169L560.066 35.75ZM597.066 35.75L596.129 37.5169V37.5169L597.066 35.75ZM610.066 48.375L608.333 49.373L608.339 49.3844L610.066 48.375ZM609.941 86.25L608.219 85.2325L608.214 85.2406L609.941 86.25ZM596.816 98.75L595.89 96.9773L595.879 96.9831L596.816 98.75ZM588.691 80.125L587.257 78.7308L587.247 78.7412L587.237 78.7518L588.691 80.125ZM588.816 54.375L587.342 55.7264L587.352 55.7374L587.362 55.7482L588.816 54.375ZM568.191 54.375L569.646 55.747L569.656 55.7368L569.665 55.7264L568.191 54.375ZM568.066 80.125L566.571 81.4537L566.581 81.4652L566.592 81.4764L568.066 80.125ZM578.316 103.125V101.125C571.777 101.125 565.937 99.7321 560.753 96.9831L559.816 98.75L558.879 100.517C564.695 103.601 571.188 105.125 578.316 105.125V103.125ZM559.816 98.75L560.764 96.9891C555.678 94.2502 551.653 90.3466 548.668 85.2406L546.941 86.25L545.214 87.2594C548.563 92.9867 553.121 97.4164 558.868 100.511L559.816 98.75ZM546.941 86.25L548.679 85.2606C545.794 80.1915 544.316 74.2102 544.316 67.25H542.316H540.316C540.316 74.7898 541.922 81.4752 545.203 87.2394L546.941 86.25ZM542.316 67.25H544.316C544.316 60.3868 545.829 54.4533 548.793 49.3844L547.066 48.375L545.339 47.3656C541.969 53.13 540.316 59.7799 540.316 67.25H542.316ZM547.066 48.375L548.799 49.3729C551.782 44.1924 555.842 40.2537 561.003 37.5169L560.066 35.75L559.129 33.9831C553.29 37.0796 548.683 41.5576 545.333 47.3771L547.066 48.375ZM560.066 35.75L561.003 37.5169C566.187 34.7679 572.027 33.375 578.566 33.375V31.375V29.375C571.438 29.375 564.945 30.8988 559.129 33.9831L560.066 35.75ZM578.566 31.375V33.375C585.105 33.375 590.945 34.7679 596.129 37.5169L597.066 35.75L598.003 33.9831C592.187 30.8988 585.693 29.375 578.566 29.375V31.375ZM597.066 35.75L596.129 37.5169C601.29 40.2537 605.35 44.1924 608.333 49.3729L610.066 48.375L611.799 47.3771C608.449 41.5576 603.842 37.0796 598.003 33.9831L597.066 35.75ZM610.066 48.375L608.339 49.3844C611.303 54.4533 612.816 60.3868 612.816 67.25H614.816H616.816C616.816 59.7799 615.162 53.13 611.793 47.3656L610.066 48.375ZM614.816 67.25H612.816C612.816 74.1034 611.266 80.077 608.219 85.2325L609.941 86.25L611.663 87.2675C615.116 81.423 616.816 74.73 616.816 67.25H614.816ZM609.941 86.25L608.214 85.2406C605.238 90.3313 601.141 94.234 595.89 96.9773L596.816 98.75L597.742 100.523C603.657 97.4326 608.31 93.0021 611.667 87.2594L609.941 86.25ZM596.816 98.75L595.879 96.9831C590.695 99.7321 584.855 101.125 578.316 101.125V103.125V105.125C585.443 105.125 591.937 103.601 597.753 100.517L596.816 98.75ZM578.316 84.625V86.625C582.956 86.625 586.938 84.8935 590.145 81.4982L588.691 80.125L587.237 78.7518C584.777 81.3565 581.842 82.625 578.316 82.625V84.625ZM588.691 80.125L590.125 81.5192C593.513 78.0346 595.066 73.1749 595.066 67.25H593.066H591.066C591.066 72.4917 589.703 76.2154 587.257 78.7308L588.691 80.125ZM593.066 67.25H595.066C595.066 61.3397 593.562 56.4879 590.27 53.0018L588.816 54.375L587.362 55.7482C589.736 58.2621 591.066 61.9936 591.066 67.25H593.066ZM588.816 54.375L590.29 53.0235C587.16 49.6087 583.208 47.875 578.566 47.875V49.875V51.875C582.091 51.875 584.972 53.1413 587.342 55.7264L588.816 54.375ZM578.566 49.875V47.875C573.854 47.875 569.856 49.5992 566.717 53.0235L568.191 54.375L569.665 55.7264C572.026 53.1508 574.945 51.875 578.566 51.875V49.875ZM568.191 54.375L566.736 53.003C563.514 56.4204 562.066 61.2847 562.066 67.25H564.066H566.066C566.066 61.882 567.368 58.163 569.646 55.747L568.191 54.375ZM564.066 67.25H562.066C562.066 73.1317 563.471 77.9661 566.571 81.4537L568.066 80.125L569.561 78.7963C567.328 76.2839 566.066 72.535 566.066 67.25H564.066ZM568.066 80.125L566.592 81.4764C569.722 84.8913 573.674 86.625 578.316 86.625V84.625V82.625C574.791 82.625 571.91 81.3587 569.54 78.7736L568.066 80.125ZM647.531 9.625H649.531V7.625H647.531V9.625ZM647.531 102.125V104.125H649.531V102.125H647.531ZM626.156 102.125H624.156V104.125H626.156V102.125ZM626.156 9.625V7.625H624.156V9.625H626.156ZM647.531 9.625H645.531V102.125H647.531H649.531V9.625H647.531ZM647.531 102.125V100.125H626.156V102.125V104.125H647.531V102.125ZM626.156 102.125H628.156V9.625H626.156H624.156V102.125H626.156ZM626.156 9.625V11.625H647.531V9.625V7.625H626.156V9.625ZM664.521 21.875L663.133 23.3147L663.159 23.3399L663.186 23.3641L664.521 21.875ZM664.521 5.37499L665.882 6.84058L665.884 6.83878L664.521 5.37499ZM682.771 5.37499L681.383 6.81468L681.409 6.83989L681.436 6.86414L682.771 5.37499ZM682.771 21.875L684.132 23.3406L684.134 23.3388L682.771 21.875ZM684.396 32.375H686.396V30.375H684.396V32.375ZM684.396 102.125V104.125H686.396V102.125H684.396ZM663.021 102.125H661.021V104.125H663.021V102.125ZM663.021 32.375V30.375H661.021V32.375H663.021ZM673.771 25.125V23.125C670.432 23.125 667.849 22.1729 665.856 20.3859L664.521 21.875L663.186 23.3641C666.026 25.9104 669.61 27.125 673.771 27.125V25.125ZM664.521 21.875L665.909 20.4353C663.968 18.5634 663.021 16.3336 663.021 13.625H661.021H659.021C659.021 17.4164 660.407 20.6866 663.133 23.3147L664.521 21.875ZM661.021 13.625H663.021C663.021 10.8184 663.977 8.60929 665.882 6.84058L664.521 5.37499L663.16 3.90941C660.398 6.47403 659.021 9.76489 659.021 13.625H661.021ZM664.521 5.37499L665.884 6.83878C667.88 4.98065 670.453 3.99999 673.771 3.99999V1.99999V-7.62939e-06C669.589 -7.62939e-06 665.996 1.26934 663.158 3.91121L664.521 5.37499ZM673.771 1.99999V3.99999C676.993 3.99999 679.472 4.97218 681.383 6.81468L682.771 5.37499L684.159 3.9353C681.403 1.2778 677.882 -7.62939e-06 673.771 -7.62939e-06V1.99999ZM682.771 5.37499L681.436 6.86414C683.417 8.63992 684.396 10.8425 684.396 13.625H686.396H688.396C688.396 9.74084 686.959 6.44341 684.106 3.88586L682.771 5.37499ZM686.396 13.625H684.396C684.396 16.3098 683.426 18.5327 681.408 20.4112L682.771 21.875L684.134 23.3388C686.949 20.7173 688.396 17.4402 688.396 13.625H686.396ZM682.771 21.875L681.41 20.4094C679.503 22.1806 677.015 23.125 673.771 23.125V25.125V27.125C677.86 27.125 681.373 25.9028 684.132 23.3406L682.771 21.875ZM684.396 32.375H682.396V102.125H684.396H686.396V32.375H684.396ZM684.396 102.125V100.125H663.021V102.125V104.125H684.396V102.125ZM663.021 102.125H665.021V32.375H663.021H661.021V102.125H663.021ZM663.021 32.375V34.375H684.396V32.375V30.375H663.021V32.375ZM713.136 98.75L712.188 100.511L712.199 100.517L713.136 98.75ZM700.261 86.25L698.523 87.2394L698.529 87.2494L698.535 87.2594L700.261 86.25ZM700.386 48.375L702.113 49.3844L702.119 49.3729L700.386 48.375ZM713.386 35.75L714.323 37.5169V37.5169L713.386 35.75ZM750.386 35.75L749.449 37.5169V37.5169L750.386 35.75ZM763.386 48.375L761.653 49.373L761.66 49.3844L763.386 48.375ZM763.261 86.25L761.539 85.2325L761.535 85.2406L763.261 86.25ZM750.136 98.75L749.21 96.9773L749.199 96.9831L750.136 98.75ZM742.011 80.125L740.577 78.7308L740.567 78.7412L740.557 78.7518L742.011 80.125ZM742.136 54.375L740.662 55.7264L740.672 55.7374L740.682 55.7482L742.136 54.375ZM721.511 54.375L722.966 55.747L722.976 55.7368L722.986 55.7264L721.511 54.375ZM721.386 80.125L719.891 81.4537L719.902 81.4652L719.912 81.4764L721.386 80.125ZM731.636 103.125V101.125C725.097 101.125 719.257 99.7321 714.073 96.9831L713.136 98.75L712.199 100.517C718.015 103.601 724.509 105.125 731.636 105.125V103.125ZM713.136 98.75L714.084 96.9891C708.998 94.2502 704.973 90.3466 701.988 85.2406L700.261 86.25L698.535 87.2594C701.883 92.9867 706.441 97.4164 712.188 100.511L713.136 98.75ZM700.261 86.25L701.999 85.2606C699.114 80.1915 697.636 74.2102 697.636 67.25H695.636H693.636C693.636 74.7898 695.242 81.4752 698.523 87.2394L700.261 86.25ZM695.636 67.25H697.636C697.636 60.3868 699.149 54.4533 702.113 49.3844L700.386 48.375L698.66 47.3656C695.29 53.13 693.636 59.7799 693.636 67.25H695.636ZM700.386 48.375L702.119 49.3729C705.102 44.1924 709.162 40.2537 714.323 37.5169L713.386 35.75L712.449 33.9831C706.61 37.0796 702.004 41.5576 698.653 47.3771L700.386 48.375ZM713.386 35.75L714.323 37.5169C719.507 34.7679 725.347 33.375 731.886 33.375V31.375V29.375C724.759 29.375 718.265 30.8988 712.449 33.9831L713.386 35.75ZM731.886 31.375V33.375C738.425 33.375 744.265 34.7679 749.449 37.5169L750.386 35.75L751.323 33.9831C745.507 30.8988 739.014 29.375 731.886 29.375V31.375ZM750.386 35.75L749.449 37.5169C754.61 40.2537 758.67 44.1924 761.653 49.3729L763.386 48.375L765.12 47.3771C761.769 41.5576 757.162 37.0796 751.323 33.9831L750.386 35.75ZM763.386 48.375L761.66 49.3844C764.623 54.4533 766.136 60.3868 766.136 67.25H768.136H770.136C770.136 59.7799 768.483 53.13 765.113 47.3656L763.386 48.375ZM768.136 67.25H766.136C766.136 74.1034 764.586 80.077 761.539 85.2325L763.261 86.25L764.983 87.2675C768.437 81.423 770.136 74.73 770.136 67.25H768.136ZM763.261 86.25L761.535 85.2406C758.559 90.3313 754.462 94.234 749.21 96.9773L750.136 98.75L751.062 100.523C756.978 97.4326 761.631 93.0021 764.988 87.2594L763.261 86.25ZM750.136 98.75L749.199 96.9831C744.015 99.7321 738.175 101.125 731.636 101.125V103.125V105.125C738.764 105.125 745.257 103.601 751.073 100.517L750.136 98.75ZM731.636 84.625V86.625C736.276 86.625 740.259 84.8935 743.465 81.4982L742.011 80.125L740.557 78.7518C738.097 81.3565 735.163 82.625 731.636 82.625V84.625ZM742.011 80.125L743.445 81.5192C746.833 78.0346 748.386 73.1749 748.386 67.25H746.386H744.386C744.386 72.4917 743.023 76.2154 740.577 78.7308L742.011 80.125ZM746.386 67.25H748.386C748.386 61.3397 746.883 56.4879 743.59 53.0018L742.136 54.375L740.682 55.7482C743.056 58.2621 744.386 61.9936 744.386 67.25H746.386ZM742.136 54.375L743.611 53.0235C740.48 49.6087 736.528 47.875 731.886 47.875V49.875V51.875C735.411 51.875 738.292 53.1413 740.662 55.7264L742.136 54.375ZM731.886 49.875V47.875C727.174 47.875 723.176 49.5992 720.037 53.0235L721.511 54.375L722.986 55.7264C725.347 53.1508 728.265 51.875 731.886 51.875V49.875ZM721.511 54.375L720.056 53.003C716.834 56.4204 715.386 61.2847 715.386 67.25H717.386H719.386C719.386 61.882 720.689 58.163 722.966 55.747L721.511 54.375ZM717.386 67.25H715.386C715.386 73.1317 716.791 77.9661 719.891 81.4537L721.386 80.125L722.881 78.7963C720.648 76.2839 719.386 72.535 719.386 67.25H717.386ZM721.386 80.125L719.912 81.4764C723.042 84.8913 726.994 86.625 731.636 86.625V84.625V82.625C728.111 82.625 725.23 81.3587 722.861 78.7736L721.386 80.125Z" fill="black" mask="url(#path-1-outside-1_723_546)"/>
</svg>
