<svg width="213" height="75" viewBox="0 0 213 75" fill="none" xmlns="http://www.w3.org/2000/svg">
<path d="M86.8853 21.1768C86.2141 19.2132 85.0839 17.3671 83.5179 15.7915L67.7054 0L57.2383 10.4532L62.937 16.1443L67.9056 11.1822L77.9371 21.2004C77.9371 21.2004 77.9841 21.2474 78.0076 21.2709C78.0312 21.2944 78.0548 21.3179 78.0783 21.3415C79.9504 23.2698 80.3037 26.1154 79.1498 28.4082C78.8672 28.9727 78.5022 29.5018 78.043 29.9721C78.0194 29.9956 77.996 30.0191 77.9724 30.0544C77.9489 30.0779 77.9252 30.1015 77.8899 30.125C75.4409 32.4884 71.5555 32.4767 69.1654 30.0897L44.0633 5.02083C42.1912 3.15125 39.8364 1.76376 37.2343 1.03474C35.5153 0.552644 33.6668 0.36451 31.7829 0.529127C30.8528 0.611436 29.9463 0.764295 29.0632 0.999462C27.5091 1.41101 26.0608 2.05772 24.7539 2.90432C27.4737 3.504 30.0522 4.50346 32.4306 5.84391C34.6912 7.11382 36.7634 8.67769 38.5883 10.512L63.6788 35.5691C65.2447 37.133 67.0932 38.2618 69.0712 38.932C69.4362 39.0613 69.7895 39.1672 70.1663 39.2495C72.7683 39.9079 75.5234 39.8139 78.0783 38.9673C78.2785 38.9085 78.4787 38.8262 78.667 38.7556C80.4449 38.0736 82.1051 37.0271 83.5415 35.5926C85.131 34.0052 86.2613 32.1357 86.9206 30.1367C87.8861 27.2207 87.8743 24.0576 86.8853 21.1416V21.1768Z" fill="url(#paint0_linear_29_505)"/>
<path d="M64.9372 43.0944C62.7708 41.848 60.7927 40.3312 59.0266 38.5674L34.3956 13.9689C32.5824 12.2757 30.3805 11.0293 27.9433 10.359C26.2243 9.87695 24.3758 9.68881 22.4919 9.85343C22.0445 9.8887 21.6089 9.95926 21.1732 10.0298C21.1144 10.0298 21.0556 10.0533 20.9968 10.0651C20.4198 10.1709 19.8664 10.3002 19.313 10.4649C19.2188 10.4884 19.1246 10.5237 19.0422 10.5472C18.8892 10.5942 18.7361 10.653 18.583 10.7C18.5595 10.7 18.536 10.7118 18.5125 10.7236C17.4293 11.1116 16.4166 11.6172 15.4629 12.2169C16.2871 12.3932 17.0996 12.6049 17.9002 12.8636C23.0807 14.4862 27.6726 17.5669 31.1106 21.6706L53.3399 43.8704C55.2237 45.7518 57.5666 47.1393 60.1687 47.8565C61.8995 48.3386 63.7362 48.515 65.6201 48.3621C66.5502 48.2798 67.4569 48.127 68.3399 47.8918C68.752 47.786 69.1523 47.6566 69.5409 47.5155C70.577 47.151 71.566 46.6689 72.4726 46.1045C71.672 45.9164 70.8949 45.693 70.1178 45.4343C68.3046 44.8346 66.562 44.0468 64.9254 43.1061L64.9372 43.0944Z" fill="url(#paint1_linear_29_505)"/>
<path d="M49.7508 47.9977L24.3779 22.6584C22.812 21.0946 20.9634 19.9658 18.9971 19.2955C18.6321 19.1662 18.2554 19.0604 17.8786 18.9663C15.2766 18.3078 12.5215 18.4019 9.97835 19.2485C9.78996 19.3073 9.61326 19.3778 9.43665 19.4484C7.65877 20.1186 5.99864 21.1769 4.57398 22.5996C2.99627 24.1753 1.87777 26.0213 1.21843 28.0085C0.241186 30.9246 0.26478 34.0993 1.26557 37.0154C1.94846 38.9791 3.06697 40.8251 4.63291 42.389L20.6573 58.3922L31.1126 47.9507L25.414 42.2597L20.4453 47.2217L10.1196 36.9096C8.20047 34.993 7.80015 32.1239 8.94223 29.8075C9.21303 29.2431 9.58973 28.714 10.0489 28.2319C10.0725 28.2084 10.0961 28.1849 10.1196 28.1614C10.1432 28.1378 10.1667 28.1143 10.1902 28.0908C12.6156 25.7509 16.4775 25.7744 18.8794 28.1614L44.6173 53.8652C46.3716 55.429 48.4792 56.5931 50.7987 57.2281C52.5177 57.7102 54.3662 57.8983 56.25 57.7337C57.1919 57.6514 58.1103 57.4868 58.9933 57.2516C60.4533 56.8636 61.8192 56.2639 63.0554 55.4996C60.3945 54.8529 57.8749 53.8299 55.5436 52.4777C53.4243 51.2431 51.4698 49.738 49.739 48.0095L49.7508 47.9977Z" fill="url(#paint2_linear_29_505)"/>
<path d="M104.003 0.0118408H117.79L128.34 59.0742H118.155L116.307 47.3511V47.5157H104.733L102.884 59.0742H93.4414L103.991 0.0118408H104.003ZM115.106 39.4965L110.573 10.3004H110.384L105.945 39.4965H115.106Z" fill="url(#paint3_linear_29_505)"/>
<path d="M133.248 0.0115967H147.777L154.253 42.283H154.441L160.917 0.0115967H175.446V59.074H165.815V14.3568H165.627L158.221 59.074H149.708L142.302 14.3568H142.114V59.074H133.225V0.0115967H133.248Z" fill="url(#paint4_linear_29_505)"/>
<path d="M181.275 44.6231V41.3425H190.895V45.2815C190.895 49.3852 192.932 50.855 196.169 50.855C199.407 50.855 201.444 49.3734 201.444 45.1169C201.444 40.3548 199.407 37.3211 192.743 32.1592C184.231 25.5157 181.452 20.8358 181.452 14.2747C181.452 5.24424 186.727 0 196.629 0C206.53 0 211.44 5.25599 211.44 14.4393V16.8145H201.821V13.8631C201.821 9.75945 199.972 8.20735 196.735 8.20735C193.497 8.20735 191.648 9.77121 191.648 13.6985C191.648 17.8845 193.779 20.9182 200.443 26.0918C208.956 32.7353 211.641 37.3329 211.641 44.4702C211.641 53.8181 206.272 59.0741 196.275 59.0741C186.279 59.0741 181.287 53.8181 181.287 44.6348L181.275 44.6231Z" fill="url(#paint5_linear_29_505)"/>
<path d="M94.9969 66.1646H96.8335L98.2347 74.7599H96.8807L96.6335 73.055V73.0785H95.091L94.8438 74.7599H93.5957L94.9969 66.1646ZM96.4804 71.9144L95.8799 67.6696H95.8564L95.2677 71.9144H96.4804Z" fill="#DF344D"/>
<path d="M116.756 72.7255V68.2103C116.756 66.8346 117.439 66.0468 118.769 66.0468C120.1 66.0468 120.783 66.8346 120.783 68.2103V68.9511H119.511V68.128C119.511 67.5166 119.24 67.2814 118.805 67.2814C118.369 67.2814 118.098 67.5166 118.098 68.128V72.8313C118.098 73.4428 118.369 73.6662 118.805 73.6662C119.24 73.6662 119.511 73.4428 119.511 72.8313V71.1499H118.84V69.927H120.794V72.7373C120.794 74.113 120.111 74.9008 118.781 74.9008C117.45 74.9008 116.768 74.113 116.768 72.7373L116.756 72.7255Z" fill="#DF344D"/>
<path d="M139.645 66.1643H143.33V67.3872H140.987V69.6566H142.847V70.8795H140.987V73.5251H143.33V74.748H139.645V66.1526V66.1643Z" fill="#DF344D"/>
<path d="M162.098 66.1646H163.793L165.112 71.303H165.135V66.1646H166.348V74.7599H164.959L163.334 68.4927H163.31V74.7599H162.098V66.1646Z" fill="#DF344D"/>
<path d="M185.244 72.7725V68.1633C185.244 66.8346 185.927 66.0468 187.234 66.0468C188.541 66.0468 189.224 66.8346 189.224 68.1633V69.0687H187.952V68.081C187.952 67.5165 187.681 67.2814 187.281 67.2814C186.881 67.2814 186.61 67.5165 186.61 68.081V72.8784C186.61 73.4428 186.881 73.6662 187.281 73.6662C187.681 73.6662 187.952 73.4428 187.952 72.8784V71.5614H189.224V72.7725C189.224 74.1012 188.541 74.8891 187.234 74.8891C185.927 74.8891 185.244 74.1012 185.244 72.7725Z" fill="#DF344D"/>
<path d="M209.156 71.1031L207.52 66.1646H208.956L209.874 69.3158H209.898L210.816 66.1646H212.135L210.498 71.1031V74.7599H209.144V71.1031H209.156Z" fill="#DF344D"/>
<defs>
<linearGradient id="paint0_linear_29_505" x1="24.7539" y1="19.8599" x2="87.6388" y2="19.8599" gradientUnits="userSpaceOnUse">
<stop stop-color="#0877AC"/>
<stop offset="1" stop-color="#194889"/>
</linearGradient>
<linearGradient id="paint1_linear_29_505" x1="15.4629" y1="29.1019" x2="72.4844" y2="29.1019" gradientUnits="userSpaceOnUse">
<stop stop-color="#EB2D28"/>
<stop offset="0.33" stop-color="#EB2F2A"/>
<stop offset="0.56" stop-color="#EC3833"/>
<stop offset="0.76" stop-color="#EE4843"/>
<stop offset="0.94" stop-color="#F15D58"/>
<stop offset="1" stop-color="#F26661"/>
</linearGradient>
<linearGradient id="paint2_linear_29_505" x1="0.500237" y1="38.4499" x2="63.0672" y2="38.4499" gradientUnits="userSpaceOnUse">
<stop stop-color="#0877AC"/>
<stop offset="1" stop-color="#194889"/>
</linearGradient>
<linearGradient id="paint3_linear_29_505" x1="110.902" y1="-1.61082" x2="110.902" y2="48.8209" gradientUnits="userSpaceOnUse">
<stop stop-color="#0877AC"/>
<stop offset="1" stop-color="#194889"/>
</linearGradient>
<linearGradient id="paint4_linear_29_505" x1="154.347" y1="-1.61106" x2="154.347" y2="48.8206" gradientUnits="userSpaceOnUse">
<stop stop-color="#0877AC"/>
<stop offset="1" stop-color="#194889"/>
</linearGradient>
<linearGradient id="paint5_linear_29_505" x1="196.464" y1="-1.6109" x2="196.464" y2="48.8208" gradientUnits="userSpaceOnUse">
<stop stop-color="#0877AC"/>
<stop offset="1" stop-color="#194889"/>
</linearGradient>
</defs>
</svg>
