<svg width="63" height="63" viewBox="0 0 63 63" fill="none" xmlns="http://www.w3.org/2000/svg">
<ellipse cx="31.1758" cy="31.5" rx="31" ry="31.5" fill="#E54259"/>
<g clip-path="url(#clip0_25_696)">
<path d="M32.1758 37.5C31.1427 37.5 30.1095 37.1611 29.2283 36.4744L16.1758 26.325V40.5C16.1758 42.1562 17.5189 43.5 19.1758 43.5H45.1758C46.8327 43.5 48.1758 42.1569 48.1758 40.5V26.325L35.1258 36.4813C34.2445 37.1625 33.207 37.5 32.1758 37.5ZM17.1939 24.5813L30.4564 34.9C31.4683 35.6875 32.8858 35.6875 33.8977 34.9L47.1602 24.5813C47.7445 24.0813 48.1758 23.3125 48.1758 22.5C48.1758 20.8431 46.832 19.5 45.1758 19.5H19.1758C17.5189 19.5 16.1758 20.8431 16.1758 22.5C16.1758 23.3125 16.5514 24.0813 17.1939 24.5813Z" fill="white"/>
</g>
<defs>
<clipPath id="clip0_25_696">
<rect width="32" height="32" fill="white" transform="translate(16.1758 15.5)"/>
</clipPath>
</defs>
</svg>
