<svg width="22" height="23" viewBox="0 0 22 23" fill="none" xmlns="http://www.w3.org/2000/svg">
<path d="M11 0.5C4.92456 0.5 0 5.42456 0 11.5C0 17.5748 4.92456 22.5 11 22.5C17.0754 22.5 22 17.5748 22 11.5C22 5.42456 17.0754 0.5 11 0.5Z" fill="white"/>
<path d="M17.0927 9.80762C16.958 9.80762 16.8289 9.86111 16.7337 9.95632C16.6385 10.0515 16.585 10.1807 16.585 10.3153V14.3768C16.585 14.5115 16.5315 14.6406 16.4363 14.7358C16.3411 14.8311 16.212 14.8845 16.0773 14.8845H5.92347C5.78882 14.8845 5.65969 14.8311 5.56447 14.7358C5.46926 14.6406 5.41578 14.5115 5.41578 14.3768V10.3153C5.41578 10.1807 5.36229 10.0515 5.26708 9.95632C5.17186 9.86111 5.04273 9.80762 4.90808 9.80762C4.77343 9.80762 4.6443 9.86111 4.54909 9.95632C4.45388 10.0515 4.40039 10.1807 4.40039 10.3153V14.3768C4.40075 14.7807 4.56145 15.1678 4.84716 15.4532C5.13252 15.7389 5.51966 15.8996 5.92347 15.8999H16.0773C16.4811 15.8996 16.8683 15.7389 17.1536 15.4532C17.4393 15.1678 17.6 14.7807 17.6004 14.3768V10.3153C17.6004 10.1807 17.5469 10.0515 17.4517 9.95632C17.3565 9.86111 17.2273 9.80762 17.0927 9.80762Z" fill="#1D61AB"/>
<path d="M10.6959 12.7525C10.7838 12.8184 10.8907 12.854 11.0005 12.854C11.1104 12.854 11.2173 12.8184 11.3051 12.7525L17.301 8.25433C17.3945 8.1838 17.4608 8.08309 17.4886 7.96928C17.5163 7.85546 17.5039 7.73555 17.4533 7.62987C17.3777 7.47367 17.2764 7.33123 17.1538 7.20849C16.8684 6.92277 16.4813 6.76207 16.0775 6.76172H5.92361C5.5198 6.76207 5.13266 6.92277 4.8473 7.20849C4.72462 7.33123 4.62337 7.47367 4.54776 7.62987C4.4972 7.73555 4.48475 7.85546 4.51251 7.96928C4.54027 8.08309 4.60653 8.1838 4.70007 8.25433L10.6959 12.7525ZM5.92361 7.7771H16.0775C16.1245 7.76969 16.1725 7.76969 16.2196 7.7771L11.0005 11.7117L5.78145 7.7771C5.82855 7.76969 5.87651 7.76969 5.92361 7.7771Z" fill="#1D61AB"/>
</svg>
