<svg width="20" height="20" viewBox="0 0 20 20" fill="none" xmlns="http://www.w3.org/2000/svg">
<path d="M10 0C4.47688 0 0 4.47688 0 10C0 15.5225 4.47688 20 10 20C15.5231 20 20 15.5225 20 10C20 4.47688 15.5231 0 10 0Z" fill="white"/>
<path d="M10.0005 3.45874C7.6693 3.45874 5.7793 5.34874 5.7793 7.67999C5.7793 8.07062 5.83242 8.44937 5.9318 8.80874C5.9718 8.95249 6.01867 9.09374 6.07305 9.23062L6.20117 9.52124L10.0005 16.5412L13.8049 9.51062L13.9205 9.24874C13.978 9.10562 14.0274 8.95874 14.0693 8.80812C14.1687 8.44874 14.2218 8.07062 14.2218 7.67937C14.2218 5.34874 12.3318 3.45874 10.0005 3.45874ZM10.0005 9.50874C8.9693 9.50874 8.13305 8.67249 8.13305 7.64124C8.13305 6.60999 8.9693 5.77374 10.0005 5.77374C11.0318 5.77374 11.868 6.60999 11.868 7.64124C11.868 8.67312 11.0318 9.50874 10.0005 9.50874Z" fill="#1D61AB"/>
</svg>
