<svg width="63" height="63" viewBox="0 0 63 63" fill="none" xmlns="http://www.w3.org/2000/svg">
<ellipse cx="31.1758" cy="31.5" rx="31" ry="31.5" fill="#E54259"/>
<path d="M22.2174 29.4917C24.6174 34.2083 28.4758 38.0667 33.2008 40.4667L36.8674 36.7917C37.3258 36.3333 37.9841 36.2 38.5591 36.3833C40.4258 37 42.4341 37.3333 44.5091 37.3333C45.4341 37.3333 46.1758 38.075 46.1758 39V44.8333C46.1758 45.7583 45.4341 46.5 44.5091 46.5C28.8591 46.5 16.1758 33.8167 16.1758 18.1667C16.1758 17.2417 16.9258 16.5 17.8424 16.5H23.6758C24.6008 16.5 25.3424 17.2417 25.3424 18.1667C25.3424 20.2417 25.6758 22.25 26.2924 24.1167C26.4758 24.6917 26.3424 25.35 25.8841 25.8083L22.2174 29.4917Z" fill="white"/>
</svg>
