<svg width="22" height="22" viewBox="0 0 22 22" fill="none" xmlns="http://www.w3.org/2000/svg">
<path d="M11 0C4.92456 0 0 4.92456 0 11C0 17.0748 4.92456 22 11 22C17.0754 22 22 17.0748 22 11C22 4.92456 17.0754 0 11 0Z" fill="white"/>
<path d="M6.75564 10.4693C7.80064 12.523 9.48062 14.203 11.538 15.248L13.1345 13.6478C13.3341 13.4483 13.6207 13.3902 13.8711 13.47C14.6839 13.7385 15.5583 13.8837 16.4618 13.8837C16.8646 13.8837 17.1875 14.2066 17.1875 14.6094V17.1493C17.1875 17.5521 16.8646 17.875 16.4618 17.875C9.64753 17.875 4.125 12.3525 4.125 5.53819C4.125 5.13543 4.45156 4.8125 4.85069 4.8125H7.39062C7.79339 4.8125 8.11632 5.13543 8.11632 5.53819C8.11632 6.44168 8.26146 7.31615 8.52996 8.12892C8.60979 8.37929 8.55174 8.66594 8.35217 8.8655L6.75564 10.4693Z" fill="#1D61AB"/>
</svg>
