<svg width="390" height="352" viewBox="0 0 390 352" fill="none" xmlns="http://www.w3.org/2000/svg">
<g filter="url(#filter0_f_208_2129)">
<ellipse cx="201.5" cy="131.5" rx="122.5" ry="474.5" transform="rotate(90 201.5 131.5)" fill="#DA1F2F"/>
<path d="M675.5 131.5C675.5 148.136 662.431 164.119 638.451 178.756C614.5 193.375 579.809 206.558 536.897 217.637C451.081 239.792 332.5 253.5 201.5 253.5C70.5 253.5 -48.0813 239.792 -133.897 217.637C-176.809 206.558 -211.5 193.375 -235.451 178.756C-259.431 164.119 -272.5 148.136 -272.5 131.5C-272.5 114.864 -259.431 98.881 -235.451 84.2442C-211.5 69.6251 -176.809 56.4417 -133.897 45.3633C-48.0813 23.2085 70.5 9.50003 201.5 9.50004C332.5 9.50005 451.081 23.2085 536.897 45.3633C579.809 56.4417 614.5 69.6251 638.451 84.2442C662.431 98.881 675.5 114.864 675.5 131.5Z" stroke="black"/>
<path d="M675.5 131.5C675.5 148.136 662.431 164.119 638.451 178.756C614.5 193.375 579.809 206.558 536.897 217.637C451.081 239.792 332.5 253.5 201.5 253.5C70.5 253.5 -48.0813 239.792 -133.897 217.637C-176.809 206.558 -211.5 193.375 -235.451 178.756C-259.431 164.119 -272.5 148.136 -272.5 131.5C-272.5 114.864 -259.431 98.881 -235.451 84.2442C-211.5 69.6251 -176.809 56.4417 -133.897 45.3633C-48.0813 23.2085 70.5 9.50003 201.5 9.50004C332.5 9.50005 451.081 23.2085 536.897 45.3633C579.809 56.4417 614.5 69.6251 638.451 84.2442C662.431 98.881 675.5 114.864 675.5 131.5Z" stroke="black" stroke-opacity="0.2"/>
</g>
<defs>
<filter id="filter0_f_208_2129" x="-371" y="-88.9999" width="1145" height="441" filterUnits="userSpaceOnUse" color-interpolation-filters="sRGB">
<feFlood flood-opacity="0" result="BackgroundImageFix"/>
<feBlend mode="normal" in="SourceGraphic" in2="BackgroundImageFix" result="shape"/>
<feGaussianBlur stdDeviation="49" result="effect1_foregroundBlur_208_2129"/>
</filter>
</defs>
</svg>
