<svg width="661" height="150" viewBox="0 0 661 150" fill="none" xmlns="http://www.w3.org/2000/svg">
<mask id="path-1-outside-1_164_84" maskUnits="userSpaceOnUse" x="0" y="5" width="658" height="113" fill="black">
<rect fill="white" y="5" width="658" height="113"/>
<path d="M78.6 98.95H43.2L37.95 115H3L41.85 8.8H80.25L118.95 115H83.85L78.6 98.95ZM70.5 73.9L60.9 44.35L51.3 73.9H70.5ZM191.616 45.1C190.316 43 188.466 41.4 186.066 40.3C183.666 39.1 180.766 38.5 177.366 38.5C170.966 38.5 166.016 40.6 162.516 44.8C159.016 48.9 157.266 54.55 157.266 61.75C157.266 70.05 159.216 76.25 163.116 80.35C167.016 84.45 173.016 86.5 181.116 86.5C188.816 86.5 195.016 83.4 199.716 77.2H173.166V53.65H227.316V86.95C222.716 94.85 216.366 101.65 208.266 107.35C200.166 112.95 189.916 115.75 177.516 115.75C166.516 115.75 156.916 113.5 148.716 109C140.616 104.4 134.366 98 129.966 89.8C125.666 81.6 123.516 72.25 123.516 61.75C123.516 51.25 125.666 41.9 129.966 33.7C134.366 25.5 140.616 19.15 148.716 14.65C156.816 10.05 166.316 7.74999 177.216 7.74999C191.116 7.74999 202.416 11.1 211.116 17.8C219.916 24.5 225.116 33.6 226.716 45.1H191.616ZM272.609 35.35V48.4H305.609V73.45H272.609V88.45H310.109V115H239.309V8.8H310.109V35.35H272.609ZM424.508 115H391.208L355.958 61.6V115H322.658V8.8H355.958L391.208 63.1V8.8H424.508V115ZM436.553 61.75C436.553 51.25 438.653 41.9 442.853 33.7C447.153 25.5 453.253 19.15 461.153 14.65C469.053 10.05 478.353 7.74999 489.053 7.74999C498.253 7.74999 506.453 9.5 513.653 13C520.953 16.4 526.853 21.25 531.353 27.55C535.953 33.85 539.003 41.2 540.503 49.6H505.403C503.803 46.1 501.503 43.4 498.503 41.5C495.603 39.5 492.253 38.5 488.453 38.5C482.853 38.5 478.403 40.6 475.103 44.8C471.903 49 470.303 54.65 470.303 61.75C470.303 68.85 471.903 74.5 475.103 78.7C478.403 82.9 482.853 85 488.453 85C492.253 85 495.603 84.05 498.503 82.15C501.503 80.15 503.803 77.4 505.403 73.9H540.503C539.003 82.3 535.953 89.65 531.353 95.95C526.853 102.25 520.953 107.15 513.653 110.65C506.453 114.05 498.253 115.75 489.053 115.75C478.353 115.75 469.053 113.5 461.153 109C453.253 104.4 447.153 98 442.853 89.8C438.653 81.6 436.553 72.25 436.553 61.75ZM654.492 8.8L616.392 82.75V115H583.092V82.75L544.992 8.8H583.092L600.042 46.45L616.992 8.8H654.492Z"/>
</mask>
<path d="M78.6 98.95L80.5009 98.3282L80.0501 96.95H78.6V98.95ZM43.2 98.95V96.95H41.7499L41.2991 98.3282L43.2 98.95ZM37.95 115V117H39.4001L39.8509 115.622L37.95 115ZM3 115L1.12173 114.313L0.138738 117H3V115ZM41.85 8.8V6.8H40.452L39.9717 8.11289L41.85 8.8ZM80.25 8.8L82.1291 8.11523L81.6498 6.8H80.25V8.8ZM118.95 115V117H121.807L120.829 114.315L118.95 115ZM83.85 115L81.9491 115.622L82.3999 117H83.85V115ZM70.5 73.9V75.9H73.2526L72.4021 73.282L70.5 73.9ZM60.9 44.35L62.8021 43.732L60.9 37.877L58.9979 43.732L60.9 44.35ZM51.3 73.9L49.3979 73.282L48.5474 75.9H51.3V73.9ZM78.6 98.95V96.95H43.2V98.95V100.95H78.6V98.95ZM43.2 98.95L41.2991 98.3282L36.0491 114.378L37.95 115L39.8509 115.622L45.1009 99.5718L43.2 98.95ZM37.95 115V113H3V115V117H37.95V115ZM3 115L4.87827 115.687L43.7283 9.48711L41.85 8.8L39.9717 8.11289L1.12173 114.313L3 115ZM41.85 8.8V10.8H80.25V8.8V6.8H41.85V8.8ZM80.25 8.8L78.3709 9.48476L117.071 115.685L118.95 115L120.829 114.315L82.1291 8.11523L80.25 8.8ZM118.95 115V113H83.85V115V117H118.95V115ZM83.85 115L85.7509 114.378L80.5009 98.3282L78.6 98.95L76.6991 99.5718L81.9491 115.622L83.85 115ZM70.5 73.9L72.4021 73.282L62.8021 43.732L60.9 44.35L58.9979 44.968L68.5979 74.518L70.5 73.9ZM60.9 44.35L58.9979 43.732L49.3979 73.282L51.3 73.9L53.2021 74.518L62.8021 44.968L60.9 44.35ZM51.3 73.9V75.9H70.5V73.9V71.9H51.3V73.9ZM191.616 45.1L189.915 46.1527L190.502 47.1H191.616V45.1ZM186.066 40.3L185.171 42.0889L185.202 42.104L185.232 42.1181L186.066 40.3ZM162.516 44.8L164.037 46.0985L164.044 46.0895L164.052 46.0804L162.516 44.8ZM163.116 80.35L161.667 81.7284L163.116 80.35ZM199.716 77.2L201.309 78.4082L203.741 75.2H199.716V77.2ZM173.166 77.2H171.166V79.2H173.166V77.2ZM173.166 53.65V51.65H171.166V53.65H173.166ZM227.316 53.65H229.316V51.65H227.316V53.65ZM227.316 86.95L229.044 87.9564L229.316 87.4899V86.95H227.316ZM208.266 107.35L209.403 108.995L209.41 108.99L209.417 108.986L208.266 107.35ZM148.716 109L147.728 110.739L147.741 110.746L147.753 110.753L148.716 109ZM129.966 89.8L128.194 90.7288L128.199 90.7373L128.203 90.7456L129.966 89.8ZM129.966 33.7L128.203 32.7544L128.199 32.7627L128.194 32.7712L129.966 33.7ZM148.716 14.65L149.687 16.3983L149.695 16.3938L149.703 16.3891L148.716 14.65ZM211.116 17.8L209.895 19.3846L209.904 19.3913L211.116 17.8ZM226.716 45.1V47.1H229.013L228.697 44.8244L226.716 45.1ZM191.616 45.1L193.316 44.0473C191.794 41.5889 189.631 39.7341 186.899 38.4819L186.066 40.3L185.232 42.1181C187.3 43.0658 188.837 44.4111 189.915 46.1527L191.616 45.1ZM186.066 40.3L186.96 38.5111C184.218 37.1402 180.995 36.5 177.366 36.5V38.5V40.5C180.536 40.5 183.113 41.0598 185.171 42.0889L186.066 40.3ZM177.366 38.5V36.5C170.485 36.5 164.926 38.7837 160.979 43.5196L162.516 44.8L164.052 46.0804C167.105 42.4163 171.447 40.5 177.366 40.5V38.5ZM162.516 44.8L160.994 43.5015C157.095 48.0697 155.266 54.2352 155.266 61.75H157.266H159.266C159.266 54.8648 160.936 49.7303 164.037 46.0985L162.516 44.8ZM157.266 61.75H155.266C155.266 70.3261 157.278 77.1145 161.667 81.7284L163.116 80.35L164.565 78.9716C161.154 75.3854 159.266 69.7739 159.266 61.75H157.266ZM163.116 80.35L161.667 81.7284C166.082 86.3707 172.708 88.5 181.116 88.5V86.5V84.5C173.324 84.5 167.949 82.5293 164.565 78.9716L163.116 80.35ZM181.116 86.5V88.5C189.449 88.5 196.236 85.1009 201.309 78.4082L199.716 77.2L198.122 75.9918C193.795 81.6991 188.182 84.5 181.116 84.5V86.5ZM199.716 77.2V75.2H173.166V77.2V79.2H199.716V77.2ZM173.166 77.2H175.166V53.65H173.166H171.166V77.2H173.166ZM173.166 53.65V55.65H227.316V53.65V51.65H173.166V53.65ZM227.316 53.65H225.316V86.95H227.316H229.316V53.65H227.316ZM227.316 86.95L225.587 85.9436C221.144 93.5745 214.999 100.166 207.115 105.714L208.266 107.35L209.417 108.986C217.732 103.134 224.287 96.1255 229.044 87.9564L227.316 86.95ZM208.266 107.35L207.128 105.705C199.44 111.02 189.615 113.75 177.516 113.75V115.75V117.75C190.216 117.75 200.891 114.88 209.403 108.995L208.266 107.35ZM177.516 115.75V113.75C166.793 113.75 157.535 111.558 149.678 107.247L148.716 109L147.753 110.753C156.296 115.442 166.239 117.75 177.516 117.75V115.75ZM148.716 109L149.703 107.261C141.931 102.847 135.949 96.7218 131.728 88.8544L129.966 89.8L128.203 90.7456C132.782 99.2782 139.3 105.953 147.728 110.739L148.716 109ZM129.966 89.8L131.737 88.8712C127.606 80.9942 125.516 71.9703 125.516 61.75H123.516H121.516C121.516 72.5297 123.725 82.2058 128.194 90.7288L129.966 89.8ZM123.516 61.75H125.516C125.516 51.5297 127.606 42.5058 131.737 34.6288L129.966 33.7L128.194 32.7712C123.725 41.2942 121.516 50.9703 121.516 61.75H123.516ZM129.966 33.7L131.728 34.6456C135.947 26.7819 141.924 20.7113 149.687 16.3983L148.716 14.65L147.744 12.9017C139.308 17.5887 132.784 24.2181 128.203 32.7544L129.966 33.7ZM148.716 14.65L149.703 16.3891C157.454 11.9872 166.603 9.75 177.216 9.75V7.75V5.75C166.029 5.75 156.177 8.11279 147.728 12.9109L148.716 14.65ZM177.216 7.75V9.75C190.793 9.75 201.629 13.0185 209.895 19.3846L211.116 17.8L212.336 16.2154C203.202 9.18149 191.438 5.75 177.216 5.75V7.75ZM211.116 17.8L209.904 19.3913C218.261 25.7542 223.203 34.3696 224.735 45.3756L226.716 45.1L228.697 44.8244C227.028 32.8304 221.57 23.2458 212.327 16.2087L211.116 17.8ZM226.716 45.1V43.1H191.616V45.1V47.1H226.716V45.1ZM272.609 35.35V33.35H270.609V35.35H272.609ZM272.609 48.4H270.609V50.4H272.609V48.4ZM305.609 48.4H307.609V46.4H305.609V48.4ZM305.609 73.45V75.45H307.609V73.45H305.609ZM272.609 73.45V71.45H270.609V73.45H272.609ZM272.609 88.45H270.609V90.45H272.609V88.45ZM310.109 88.45H312.109V86.45H310.109V88.45ZM310.109 115V117H312.109V115H310.109ZM239.309 115H237.309V117H239.309V115ZM239.309 8.8V6.8H237.309V8.8H239.309ZM310.109 8.8H312.109V6.8H310.109V8.8ZM310.109 35.35V37.35H312.109V35.35H310.109ZM272.609 35.35H270.609V48.4H272.609H274.609V35.35H272.609ZM272.609 48.4V50.4H305.609V48.4V46.4H272.609V48.4ZM305.609 48.4H303.609V73.45H305.609H307.609V48.4H305.609ZM305.609 73.45V71.45H272.609V73.45V75.45H305.609V73.45ZM272.609 73.45H270.609V88.45H272.609H274.609V73.45H272.609ZM272.609 88.45V90.45H310.109V88.45V86.45H272.609V88.45ZM310.109 88.45H308.109V115H310.109H312.109V88.45H310.109ZM310.109 115V113H239.309V115V117H310.109V115ZM239.309 115H241.309V8.8H239.309H237.309V115H239.309ZM239.309 8.8V10.8H310.109V8.8V6.8H239.309V8.8ZM310.109 8.8H308.109V35.35H310.109H312.109V8.8H310.109ZM310.109 35.35V33.35H272.609V35.35V37.35H310.109V35.35ZM424.508 115V117H426.508V115H424.508ZM391.208 115L389.539 116.102L390.132 117H391.208V115ZM355.958 61.6L357.627 60.4982L353.958 54.9398V61.6H355.958ZM355.958 115V117H357.958V115H355.958ZM322.658 115H320.658V117H322.658V115ZM322.658 8.8V6.8H320.658V8.8H322.658ZM355.958 8.8L357.636 7.711L357.044 6.8H355.958V8.8ZM391.208 63.1L389.531 64.189L393.208 69.8539V63.1H391.208ZM391.208 8.8V6.8H389.208V8.8H391.208ZM424.508 8.8H426.508V6.8H424.508V8.8ZM424.508 115V113H391.208V115V117H424.508V115ZM391.208 115L392.877 113.898L357.627 60.4982L355.958 61.6L354.289 62.7018L389.539 116.102L391.208 115ZM355.958 61.6H353.958V115H355.958H357.958V61.6H355.958ZM355.958 115V113H322.658V115V117H355.958V115ZM322.658 115H324.658V8.8H322.658H320.658V115H322.658ZM322.658 8.8V10.8H355.958V8.8V6.8H322.658V8.8ZM355.958 8.8L354.281 9.889L389.531 64.189L391.208 63.1L392.886 62.011L357.636 7.711L355.958 8.8ZM391.208 63.1H393.208V8.8H391.208H389.208V63.1H391.208ZM391.208 8.8V10.8H424.508V8.8V6.8H391.208V8.8ZM424.508 8.8H422.508V115H424.508H426.508V8.8H424.508ZM442.853 33.7L441.081 32.7712L441.077 32.7797L441.073 32.7882L442.853 33.7ZM461.153 14.65L462.143 16.3878L462.151 16.3831L462.159 16.3783L461.153 14.65ZM513.653 13L512.778 14.7987L512.793 14.806L512.808 14.813L513.653 13ZM531.353 27.55L529.725 28.7125L529.731 28.721L529.737 28.7294L531.353 27.55ZM540.503 49.6V51.6H542.892L542.472 49.2484L540.503 49.6ZM505.403 49.6L503.584 50.4315L504.118 51.6H505.403V49.6ZM498.503 41.5L497.367 43.1464L497.4 43.1687L497.433 43.1896L498.503 41.5ZM475.103 44.8L473.53 43.5644L473.521 43.5761L473.512 43.5879L475.103 44.8ZM475.103 78.7L473.512 79.9121L473.521 79.9239L473.53 79.9356L475.103 78.7ZM498.503 82.15L499.599 83.8229L499.605 83.8185L499.612 83.8141L498.503 82.15ZM505.403 73.9V71.9H504.118L503.584 73.0685L505.403 73.9ZM540.503 73.9L542.472 74.2516L542.892 71.9H540.503V73.9ZM531.353 95.95L529.737 94.7706L529.731 94.779L529.725 94.7875L531.353 95.95ZM513.653 110.65L514.507 112.459L514.517 112.453L513.653 110.65ZM461.153 109L460.146 110.728L460.155 110.733L460.163 110.738L461.153 109ZM442.853 89.8L441.073 90.7117L441.077 90.7203L441.081 90.7288L442.853 89.8ZM436.553 61.75H438.553C438.553 51.5224 440.596 42.4924 444.633 34.6117L442.853 33.7L441.073 32.7882C436.709 41.3076 434.553 50.9775 434.553 61.75H436.553ZM442.853 33.7L444.624 34.6288C448.75 26.7611 454.582 20.6948 462.143 16.3878L461.153 14.65L460.163 12.9122C451.924 17.6052 445.556 24.2389 441.081 32.7712L442.853 33.7ZM461.153 14.65L462.159 16.3783C469.705 11.9846 478.645 9.75 489.053 9.75V7.75V5.75C478.06 5.75 468.401 8.11543 460.146 12.9216L461.153 14.65ZM489.053 7.75V9.75C497.995 9.75 505.889 11.4496 512.778 14.7987L513.653 13L514.527 11.2013C507.017 7.55037 498.51 5.75 489.053 5.75V7.75ZM513.653 13L512.808 14.813C519.809 18.0734 525.434 22.7047 529.725 28.7125L531.353 27.55L532.98 26.3875C528.271 19.7953 522.097 14.7266 514.497 11.187L513.653 13ZM531.353 27.55L529.737 28.7294C534.142 34.7615 537.082 41.8223 538.534 49.9516L540.503 49.6L542.472 49.2484C540.923 40.5777 537.764 32.9385 532.968 26.3706L531.353 27.55ZM540.503 49.6V47.6H505.403V49.6V51.6H540.503V49.6ZM505.403 49.6L507.222 48.7685C505.475 44.9467 502.928 41.9352 499.573 39.8104L498.503 41.5L497.433 43.1896C500.078 44.8648 502.131 47.2533 503.584 50.4315L505.403 49.6ZM498.503 41.5L499.638 39.8536C496.378 37.605 492.625 36.5 488.453 36.5V38.5V40.5C491.881 40.5 494.828 41.395 497.367 43.1464L498.503 41.5ZM488.453 38.5V36.5C482.273 36.5 477.23 38.8553 473.53 43.5644L475.103 44.8L476.675 46.0356C479.575 42.3447 483.432 40.5 488.453 40.5V38.5ZM475.103 44.8L473.512 43.5879C469.968 48.239 468.303 54.3618 468.303 61.75H470.303H472.303C472.303 54.9382 473.837 49.7609 476.694 46.0121L475.103 44.8ZM470.303 61.75H468.303C468.303 69.1382 469.968 75.2609 473.512 79.9121L475.103 78.7L476.694 77.4879C473.837 73.7391 472.303 68.5618 472.303 61.75H470.303ZM475.103 78.7L473.53 79.9356C477.23 84.6447 482.273 87 488.453 87V85V83C483.432 83 479.575 81.1553 476.675 77.4644L475.103 78.7ZM488.453 85V87C492.603 87 496.342 85.9567 499.599 83.8229L498.503 82.15L497.407 80.4771C494.863 82.1433 491.902 83 488.453 83V85ZM498.503 82.15L499.612 83.8141C502.942 81.5939 505.478 78.5459 507.222 74.7315L505.403 73.9L503.584 73.0685C502.127 76.2541 500.063 78.7061 497.393 80.4859L498.503 82.15ZM505.403 73.9V75.9H540.503V73.9V71.9H505.403V73.9ZM540.503 73.9L538.534 73.5484C537.082 81.6777 534.142 88.7385 529.737 94.7706L531.353 95.95L532.968 97.1294C537.764 90.5615 540.923 82.9223 542.472 74.2516L540.503 73.9ZM531.353 95.95L529.725 94.7875C525.43 100.8 519.798 105.486 512.788 108.847L513.653 110.65L514.517 112.453C522.107 108.814 528.275 103.7 532.98 97.1125L531.353 95.95ZM513.653 110.65L512.799 108.841C505.904 112.097 498.003 113.75 489.053 113.75V115.75V117.75C498.502 117.75 507.001 116.003 514.507 112.458L513.653 110.65ZM489.053 115.75V113.75C478.638 113.75 469.692 111.562 462.143 107.262L461.153 109L460.163 110.738C468.414 115.438 478.067 117.75 489.053 117.75V115.75ZM461.153 109L462.159 107.272C454.589 102.863 448.752 96.7426 444.624 88.8712L442.853 89.8L441.081 90.7288C445.554 99.2574 451.917 105.937 460.146 110.728L461.153 109ZM442.853 89.8L444.633 88.8882C440.596 81.0076 438.553 71.9775 438.553 61.75H436.553H434.553C434.553 72.5225 436.709 82.1924 441.073 90.7117L442.853 89.8ZM654.492 8.8L656.27 9.716L657.772 6.8H654.492V8.8ZM616.392 82.75L614.614 81.834L614.392 82.2651V82.75H616.392ZM616.392 115V117H618.392V115H616.392ZM583.092 115H581.092V117H583.092V115ZM583.092 82.75H585.092V82.2651L584.87 81.834L583.092 82.75ZM544.992 8.8V6.8H541.712L543.214 9.716L544.992 8.8ZM583.092 8.8L584.916 7.97897L584.385 6.8H583.092V8.8ZM600.042 46.45L598.219 47.271L600.042 51.3219L601.866 47.271L600.042 46.45ZM616.992 8.8V6.8H615.699L615.168 7.97897L616.992 8.8ZM654.492 8.8L652.714 7.884L614.614 81.834L616.392 82.75L618.17 83.666L656.27 9.716L654.492 8.8ZM616.392 82.75H614.392V115H616.392H618.392V82.75H616.392ZM616.392 115V113H583.092V115V117H616.392V115ZM583.092 115H585.092V82.75H583.092H581.092V115H583.092ZM583.092 82.75L584.87 81.834L546.77 7.884L544.992 8.8L543.214 9.716L581.314 83.666L583.092 82.75ZM544.992 8.8V10.8H583.092V8.8V6.8H544.992V8.8ZM583.092 8.8L581.268 9.62103L598.219 47.271L600.042 46.45L601.866 45.629L584.916 7.97897L583.092 8.8ZM600.042 46.45L601.866 47.271L618.816 9.62103L616.992 8.8L615.168 7.97897L598.219 45.629L600.042 46.45ZM616.992 8.8V10.8H654.492V8.8V6.8H616.992V8.8Z" fill="white" mask="url(#path-1-outside-1_164_84)"/>
<path d="M202.588 71.6H211.144V117.17L180.268 88.092V115H171.712V69.43L202.588 98.508V71.6ZM218.327 100.74C218.327 97.764 219.009 95.16 220.373 92.928C221.779 90.696 223.659 88.96 226.015 87.72C228.413 86.48 231.12 85.86 234.137 85.86C237.155 85.86 239.841 86.48 242.197 87.72C244.595 88.96 246.475 90.696 247.839 92.928C249.245 95.16 249.947 97.764 249.947 100.74C249.947 103.675 249.245 106.279 247.839 108.552C246.475 110.784 244.595 112.52 242.197 113.76C239.841 115 237.155 115.62 234.137 115.62C231.12 115.62 228.413 115 226.015 113.76C223.659 112.52 221.779 110.784 220.373 108.552C219.009 106.279 218.327 103.675 218.327 100.74ZM226.511 100.74C226.511 102.352 226.842 103.778 227.503 105.018C228.206 106.217 229.136 107.167 230.293 107.87C231.451 108.531 232.732 108.862 234.137 108.862C235.543 108.862 236.824 108.531 237.981 107.87C239.139 107.167 240.048 106.217 240.709 105.018C241.412 103.778 241.763 102.352 241.763 100.74C241.763 99.128 241.412 97.702 240.709 96.462C240.048 95.222 239.139 94.2713 237.981 93.61C236.824 92.9487 235.543 92.618 234.137 92.618C232.732 92.618 231.451 92.9487 230.293 93.61C229.136 94.2713 228.206 95.222 227.503 96.462C226.842 97.702 226.511 99.128 226.511 100.74ZM252.734 86.48H270.342V93.238H252.734V86.48ZM257.632 76.56H265.382V115H257.632V76.56ZM282.911 86.48V115H275.037V86.48H282.911ZM291.281 94.85C290.743 94.354 290.185 93.982 289.607 93.734C289.069 93.4447 288.387 93.3 287.561 93.3C286.569 93.3 285.721 93.5687 285.019 94.106C284.316 94.6433 283.779 95.408 283.407 96.4C283.076 97.3507 282.911 98.508 282.911 99.872L280.679 97.64C280.679 95.3667 281.113 93.362 281.981 91.626C282.849 89.8487 283.985 88.4433 285.391 87.41C286.796 86.3353 288.243 85.798 289.731 85.798C290.764 85.798 291.735 85.984 292.645 86.356C293.595 86.728 294.36 87.286 294.939 88.03L291.281 94.85ZM312.161 115.62C309.061 115.62 306.353 115 304.039 113.76C301.724 112.52 299.926 110.805 298.645 108.614C297.405 106.382 296.785 103.757 296.785 100.74C296.785 97.6813 297.405 95.0567 298.645 92.866C299.926 90.634 301.724 88.9187 304.039 87.72C306.353 86.48 309.081 85.86 312.223 85.86C315.364 85.86 318.03 86.4387 320.221 87.596C322.453 88.712 324.147 90.3653 325.305 92.556C326.462 94.7053 327.041 97.3093 327.041 100.368C327.041 100.74 327.02 101.133 326.979 101.546C326.979 101.959 326.958 102.29 326.917 102.538H301.373V97.578H319.911L317.741 100.43C317.906 100.182 318.051 99.8513 318.175 99.438C318.34 98.9833 318.423 98.6113 318.423 98.322C318.423 96.9167 318.154 95.718 317.617 94.726C317.121 93.734 316.397 92.9487 315.447 92.37C314.496 91.7913 313.38 91.502 312.099 91.502C310.528 91.502 309.205 91.8533 308.131 92.556C307.097 93.2173 306.291 94.23 305.713 95.594C305.175 96.9167 304.886 98.57 304.845 100.554C304.845 102.455 305.113 104.067 305.651 105.39C306.229 106.713 307.077 107.725 308.193 108.428C309.309 109.131 310.652 109.482 312.223 109.482C314 109.482 315.509 109.151 316.749 108.49C318.03 107.787 319.084 106.754 319.911 105.39L326.917 107.56C325.429 110.247 323.445 112.272 320.965 113.636C318.526 114.959 315.591 115.62 312.161 115.62ZM359.283 105.142L360.337 98.136H381.169L382.223 105.142H359.283ZM370.629 85.674L364.119 100.616L364.305 102.6L358.601 115H348.619L370.629 69.058L392.639 115H382.595L377.015 102.972L377.139 100.74L370.629 85.674ZM397.767 71.6H406.819V115H397.767V71.6ZM412.523 115H403.471V106.94H412.213C414.115 106.94 415.913 106.692 417.607 106.196C419.302 105.659 420.79 104.832 422.071 103.716C423.353 102.6 424.345 101.195 425.047 99.5C425.791 97.764 426.163 95.6973 426.163 93.3C426.163 90.9027 425.791 88.8567 425.047 87.162C424.345 85.426 423.353 84 422.071 82.884C420.79 81.768 419.302 80.962 417.607 80.466C415.913 79.9287 414.115 79.66 412.213 79.66H403.471V71.6H412.523C417.07 71.6 421.038 72.4887 424.427 74.266C427.858 76.0433 430.524 78.5647 432.425 81.83C434.327 85.054 435.277 88.8773 435.277 93.3C435.277 97.7227 434.327 101.567 432.425 104.832C430.524 108.056 427.858 110.557 424.427 112.334C421.038 114.111 417.07 115 412.523 115ZM473.444 71.6H482V117.17L451.124 88.092V115H442.568V69.43L473.444 98.508V71.6Z" fill="#214182"/>
</svg>
