<svg width="766" height="136" viewBox="0 0 766 136" fill="none" xmlns="http://www.w3.org/2000/svg">
<path d="M60.438 85.5H27.688L22.438 101H0.0629884L31.813 13.25H56.563L88.313 101H65.688L60.438 85.5ZM54.938 69L44.063 36.875L33.313 69H54.938ZM124.476 30.25C129.393 30.25 133.684 31.25 137.351 33.25C141.101 35.25 143.976 37.875 145.976 41.125V31.25H167.351V100.875C167.351 107.292 166.059 113.083 163.476 118.25C160.976 123.5 157.101 127.667 151.851 130.75C146.684 133.833 140.226 135.375 132.476 135.375C122.143 135.375 113.768 132.917 107.351 128C100.934 123.167 97.2677 116.583 96.3511 108.25H117.476C118.143 110.917 119.726 113 122.226 114.5C124.726 116.083 127.809 116.875 131.476 116.875C135.893 116.875 139.393 115.583 141.976 113C144.643 110.5 145.976 106.458 145.976 100.875V91C143.893 94.25 141.018 96.9167 137.351 99C133.684 101 129.393 102 124.476 102C118.726 102 113.518 100.542 108.851 97.625C104.184 94.625 100.476 90.4167 97.7261 85C95.0594 79.5 93.7261 73.1667 93.7261 66C93.7261 58.8333 95.0594 52.5417 97.7261 47.125C100.476 41.7083 104.184 37.5417 108.851 34.625C113.518 31.7083 118.726 30.25 124.476 30.25ZM145.976 66.125C145.976 60.7917 144.476 56.5833 141.476 53.5C138.559 50.4167 134.976 48.875 130.726 48.875C126.476 48.875 122.851 50.4167 119.851 53.5C116.934 56.5 115.476 60.6667 115.476 66C115.476 71.3333 116.934 75.5833 119.851 78.75C122.851 81.8333 126.476 83.375 130.726 83.375C134.976 83.375 138.559 81.8333 141.476 78.75C144.476 75.6667 145.976 71.4583 145.976 66.125ZM248.565 65C248.565 67 248.44 69.0833 248.19 71.25H199.815C200.148 75.5833 201.523 78.9167 203.94 81.25C206.44 83.5 209.482 84.625 213.065 84.625C218.398 84.625 222.107 82.375 224.19 77.875H246.94C245.773 82.4583 243.648 86.5833 240.565 90.25C237.565 93.9167 233.773 96.7917 229.19 98.875C224.607 100.958 219.482 102 213.815 102C206.982 102 200.898 100.542 195.565 97.625C190.232 94.7083 186.065 90.5417 183.065 85.125C180.065 79.7083 178.565 73.375 178.565 66.125C178.565 58.875 180.023 52.5417 182.94 47.125C185.94 41.7083 190.107 37.5417 195.44 34.625C200.773 31.7083 206.898 30.25 213.815 30.25C220.565 30.25 226.565 31.6667 231.815 34.5C237.065 37.3333 241.148 41.375 244.065 46.625C247.065 51.875 248.565 58 248.565 65ZM226.69 59.375C226.69 55.7083 225.44 52.7917 222.94 50.625C220.44 48.4583 217.315 47.375 213.565 47.375C209.982 47.375 206.94 48.4167 204.44 50.5C202.023 52.5833 200.523 55.5417 199.94 59.375H226.69ZM302.341 30.5C310.508 30.5 317.008 33.1667 321.841 38.5C326.758 43.75 329.216 51 329.216 60.25V101H307.966V63.125C307.966 58.4583 306.758 54.8333 304.341 52.25C301.925 49.6667 298.675 48.375 294.591 48.375C290.508 48.375 287.258 49.6667 284.841 52.25C282.425 54.8333 281.216 58.4583 281.216 63.125V101H259.841V31.25H281.216V40.5C283.383 37.4167 286.3 35 289.966 33.25C293.633 31.4167 297.758 30.5 302.341 30.5ZM339.82 66.125C339.82 58.875 341.278 52.5417 344.195 47.125C347.195 41.7083 351.32 37.5417 356.57 34.625C361.903 31.7083 367.986 30.25 374.82 30.25C383.57 30.25 390.861 32.5417 396.695 37.125C402.611 41.7083 406.486 48.1667 408.32 56.5H385.57C383.653 51.1667 379.945 48.5 374.445 48.5C370.528 48.5 367.403 50.0417 365.07 53.125C362.736 56.125 361.57 60.4583 361.57 66.125C361.57 71.7917 362.736 76.1667 365.07 79.25C367.403 82.25 370.528 83.75 374.445 83.75C379.945 83.75 383.653 81.0833 385.57 75.75H408.32C406.486 83.9167 402.611 90.3333 396.695 95C390.778 99.6667 383.486 102 374.82 102C367.986 102 361.903 100.542 356.57 97.625C351.32 94.7083 347.195 90.5417 344.195 85.125C341.278 79.7083 339.82 73.375 339.82 66.125ZM491.003 31.25L447.253 134.125H424.253L440.253 98.625L411.878 31.25H435.753L451.878 74.875L467.878 31.25H491.003ZM533.733 49H522.233V101H500.858V49H493.108V31.25H500.858V29.25C500.858 20.6667 503.316 14.1667 508.233 9.75C513.15 5.25 520.358 3 529.858 3C531.441 3 532.608 3.04166 533.358 3.12499V21.25C529.275 21 526.4 21.5833 524.733 23C523.066 24.4167 522.233 26.9583 522.233 30.625V31.25H533.733V49ZM575.527 102C568.694 102 562.527 100.542 557.027 97.625C551.61 94.7083 547.319 90.5417 544.152 85.125C541.069 79.7083 539.527 73.375 539.527 66.125C539.527 58.9583 541.11 52.6667 544.277 47.25C547.444 41.75 551.777 37.5417 557.277 34.625C562.777 31.7083 568.944 30.25 575.777 30.25C582.61 30.25 588.777 31.7083 594.277 34.625C599.777 37.5417 604.11 41.75 607.277 47.25C610.444 52.6667 612.027 58.9583 612.027 66.125C612.027 73.2917 610.402 79.625 607.152 85.125C603.985 90.5417 599.61 94.7083 594.027 97.625C588.527 100.542 582.36 102 575.527 102ZM575.527 83.5C579.61 83.5 583.069 82 585.902 79C588.819 76 590.277 71.7083 590.277 66.125C590.277 60.5417 588.86 56.25 586.027 53.25C583.277 50.25 579.86 48.75 575.777 48.75C571.61 48.75 568.152 50.25 565.402 53.25C562.652 56.1667 561.277 60.4583 561.277 66.125C561.277 71.7083 562.61 76 565.277 79C568.027 82 571.444 83.5 575.527 83.5ZM644.742 8.5V101H623.367V8.5H644.742ZM670.982 24C667.232 24 664.149 22.9167 661.732 20.75C659.399 18.5 658.232 15.75 658.232 12.5C658.232 9.16666 659.399 6.41666 661.732 4.24999C664.149 1.99999 667.232 0.874993 670.982 0.874993C674.649 0.874993 677.649 1.99999 679.982 4.24999C682.399 6.41666 683.607 9.16666 683.607 12.5C683.607 15.75 682.399 18.5 679.982 20.75C677.649 22.9167 674.649 24 670.982 24ZM681.607 31.25V101H660.232V31.25H681.607ZM728.847 102C722.014 102 715.847 100.542 710.347 97.625C704.931 94.7083 700.639 90.5417 697.472 85.125C694.389 79.7083 692.847 73.375 692.847 66.125C692.847 58.9583 694.431 52.6667 697.597 47.25C700.764 41.75 705.097 37.5417 710.597 34.625C716.097 31.7083 722.264 30.25 729.097 30.25C735.931 30.25 742.097 31.7083 747.597 34.625C753.097 37.5417 757.431 41.75 760.597 47.25C763.764 52.6667 765.347 58.9583 765.347 66.125C765.347 73.2917 763.722 79.625 760.472 85.125C757.306 90.5417 752.931 94.7083 747.347 97.625C741.847 100.542 735.681 102 728.847 102ZM728.847 83.5C732.931 83.5 736.389 82 739.222 79C742.139 76 743.597 71.7083 743.597 66.125C743.597 60.5417 742.181 56.25 739.347 53.25C736.597 50.25 733.181 48.75 729.097 48.75C724.931 48.75 721.472 50.25 718.722 53.25C715.972 56.1667 714.597 60.4583 714.597 66.125C714.597 71.7083 715.931 76 718.597 79C721.347 82 724.764 83.5 728.847 83.5Z" fill="white"/>
</svg>
