<svg width="658" height="113" viewBox="0 0 658 113" fill="none" xmlns="http://www.w3.org/2000/svg">
<mask id="path-1-outside-1_24_72" maskUnits="userSpaceOnUse" x="0" y="0" width="658" height="113" fill="black">
<rect fill="white" width="658" height="113"/>
<path d="M78.6 93.95H43.2L37.95 110H3L41.85 3.8H80.25L118.95 110H83.85L78.6 93.95ZM70.5 68.9L60.9 39.35L51.3 68.9H70.5ZM191.616 40.1C190.316 38 188.466 36.4 186.066 35.3C183.666 34.1 180.766 33.5 177.366 33.5C170.966 33.5 166.016 35.6 162.516 39.8C159.016 43.9 157.266 49.55 157.266 56.75C157.266 65.05 159.216 71.25 163.116 75.35C167.016 79.45 173.016 81.5 181.116 81.5C188.816 81.5 195.016 78.4 199.716 72.2H173.166V48.65H227.316V81.95C222.716 89.85 216.366 96.65 208.266 102.35C200.166 107.95 189.916 110.75 177.516 110.75C166.516 110.75 156.916 108.5 148.716 104C140.616 99.4 134.366 93 129.966 84.8C125.666 76.6 123.516 67.25 123.516 56.75C123.516 46.25 125.666 36.9 129.966 28.7C134.366 20.5 140.616 14.15 148.716 9.65C156.816 5.05 166.316 2.74999 177.216 2.74999C191.116 2.74999 202.416 6.1 211.116 12.8C219.916 19.5 225.116 28.6 226.716 40.1H191.616ZM272.609 30.35V43.4H305.609V68.45H272.609V83.45H310.109V110H239.309V3.8H310.109V30.35H272.609ZM424.508 110H391.208L355.958 56.6V110H322.658V3.8H355.958L391.208 58.1V3.8H424.508V110ZM436.553 56.75C436.553 46.25 438.653 36.9 442.853 28.7C447.153 20.5 453.253 14.15 461.153 9.65C469.053 5.05 478.353 2.74999 489.053 2.74999C498.253 2.74999 506.453 4.5 513.653 8C520.953 11.4 526.853 16.25 531.353 22.55C535.953 28.85 539.003 36.2 540.503 44.6H505.403C503.803 41.1 501.503 38.4 498.503 36.5C495.603 34.5 492.253 33.5 488.453 33.5C482.853 33.5 478.403 35.6 475.103 39.8C471.903 44 470.303 49.65 470.303 56.75C470.303 63.85 471.903 69.5 475.103 73.7C478.403 77.9 482.853 80 488.453 80C492.253 80 495.603 79.05 498.503 77.15C501.503 75.15 503.803 72.4 505.403 68.9H540.503C539.003 77.3 535.953 84.65 531.353 90.95C526.853 97.25 520.953 102.15 513.653 105.65C506.453 109.05 498.253 110.75 489.053 110.75C478.353 110.75 469.053 108.5 461.153 104C453.253 99.4 447.153 93 442.853 84.8C438.653 76.6 436.553 67.25 436.553 56.75ZM654.492 3.8L616.392 77.75V110H583.092V77.75L544.992 3.8H583.092L600.042 41.45L616.992 3.8H654.492Z"/>
</mask>
<path d="M78.6 93.95L80.5009 93.3282L80.0501 91.95H78.6V93.95ZM43.2 93.95V91.95H41.7499L41.2991 93.3282L43.2 93.95ZM37.95 110V112H39.4001L39.8509 110.622L37.95 110ZM3 110L1.12173 109.313L0.138738 112H3V110ZM41.85 3.8V1.8H40.452L39.9717 3.11289L41.85 3.8ZM80.25 3.8L82.1291 3.11523L81.6498 1.8H80.25V3.8ZM118.95 110V112H121.807L120.829 109.315L118.95 110ZM83.85 110L81.9491 110.622L82.3999 112H83.85V110ZM70.5 68.9V70.9H73.2526L72.4021 68.282L70.5 68.9ZM60.9 39.35L62.8021 38.732L60.9 32.877L58.9979 38.732L60.9 39.35ZM51.3 68.9L49.3979 68.282L48.5474 70.9H51.3V68.9ZM78.6 93.95V91.95H43.2V93.95V95.95H78.6V93.95ZM43.2 93.95L41.2991 93.3282L36.0491 109.378L37.95 110L39.8509 110.622L45.1009 94.5718L43.2 93.95ZM37.95 110V108H3V110V112H37.95V110ZM3 110L4.87827 110.687L43.7283 4.48711L41.85 3.8L39.9717 3.11289L1.12173 109.313L3 110ZM41.85 3.8V5.8H80.25V3.8V1.8H41.85V3.8ZM80.25 3.8L78.3709 4.48476L117.071 110.685L118.95 110L120.829 109.315L82.1291 3.11523L80.25 3.8ZM118.95 110V108H83.85V110V112H118.95V110ZM83.85 110L85.7509 109.378L80.5009 93.3282L78.6 93.95L76.6991 94.5718L81.9491 110.622L83.85 110ZM70.5 68.9L72.4021 68.282L62.8021 38.732L60.9 39.35L58.9979 39.968L68.5979 69.518L70.5 68.9ZM60.9 39.35L58.9979 38.732L49.3979 68.282L51.3 68.9L53.2021 69.518L62.8021 39.968L60.9 39.35ZM51.3 68.9V70.9H70.5V68.9V66.9H51.3V68.9ZM191.616 40.1L189.915 41.1527L190.502 42.1H191.616V40.1ZM186.066 35.3L185.171 37.0889L185.202 37.104L185.232 37.1181L186.066 35.3ZM162.516 39.8L164.037 41.0985L164.044 41.0895L164.052 41.0804L162.516 39.8ZM163.116 75.35L161.667 76.7284L163.116 75.35ZM199.716 72.2L201.309 73.4082L203.741 70.2H199.716V72.2ZM173.166 72.2H171.166V74.2H173.166V72.2ZM173.166 48.65V46.65H171.166V48.65H173.166ZM227.316 48.65H229.316V46.65H227.316V48.65ZM227.316 81.95L229.044 82.9564L229.316 82.4899V81.95H227.316ZM208.266 102.35L209.403 103.995L209.41 103.99L209.417 103.986L208.266 102.35ZM148.716 104L147.728 105.739L147.741 105.746L147.753 105.753L148.716 104ZM129.966 84.8L128.194 85.7288L128.199 85.7373L128.203 85.7456L129.966 84.8ZM129.966 28.7L128.203 27.7544L128.199 27.7627L128.194 27.7712L129.966 28.7ZM148.716 9.65L149.687 11.3983L149.695 11.3938L149.703 11.3891L148.716 9.65ZM211.116 12.8L209.895 14.3846L209.904 14.3913L211.116 12.8ZM226.716 40.1V42.1H229.013L228.697 39.8244L226.716 40.1ZM191.616 40.1L193.316 39.0473C191.794 36.5889 189.631 34.7341 186.899 33.4819L186.066 35.3L185.232 37.1181C187.3 38.0658 188.837 39.4111 189.915 41.1527L191.616 40.1ZM186.066 35.3L186.96 33.5111C184.218 32.1402 180.995 31.5 177.366 31.5V33.5V35.5C180.536 35.5 183.113 36.0598 185.171 37.0889L186.066 35.3ZM177.366 33.5V31.5C170.485 31.5 164.926 33.7837 160.979 38.5196L162.516 39.8L164.052 41.0804C167.105 37.4163 171.447 35.5 177.366 35.5V33.5ZM162.516 39.8L160.994 38.5015C157.095 43.0697 155.266 49.2352 155.266 56.75H157.266H159.266C159.266 49.8648 160.936 44.7303 164.037 41.0985L162.516 39.8ZM157.266 56.75H155.266C155.266 65.3261 157.278 72.1145 161.667 76.7284L163.116 75.35L164.565 73.9716C161.154 70.3854 159.266 64.7739 159.266 56.75H157.266ZM163.116 75.35L161.667 76.7284C166.082 81.3707 172.708 83.5 181.116 83.5V81.5V79.5C173.324 79.5 167.949 77.5293 164.565 73.9716L163.116 75.35ZM181.116 81.5V83.5C189.449 83.5 196.236 80.1009 201.309 73.4082L199.716 72.2L198.122 70.9918C193.795 76.6991 188.182 79.5 181.116 79.5V81.5ZM199.716 72.2V70.2H173.166V72.2V74.2H199.716V72.2ZM173.166 72.2H175.166V48.65H173.166H171.166V72.2H173.166ZM173.166 48.65V50.65H227.316V48.65V46.65H173.166V48.65ZM227.316 48.65H225.316V81.95H227.316H229.316V48.65H227.316ZM227.316 81.95L225.587 80.9436C221.144 88.5745 214.999 95.1661 207.115 100.714L208.266 102.35L209.417 103.986C217.732 98.1339 224.287 91.1255 229.044 82.9564L227.316 81.95ZM208.266 102.35L207.128 100.705C199.44 106.02 189.615 108.75 177.516 108.75V110.75V112.75C190.216 112.75 200.891 109.88 209.403 103.995L208.266 102.35ZM177.516 110.75V108.75C166.793 108.75 157.535 106.558 149.678 102.247L148.716 104L147.753 105.753C156.296 110.442 166.239 112.75 177.516 112.75V110.75ZM148.716 104L149.703 102.261C141.931 97.8469 135.949 91.7218 131.728 83.8544L129.966 84.8L128.203 85.7456C132.782 94.2782 139.3 100.953 147.728 105.739L148.716 104ZM129.966 84.8L131.737 83.8712C127.606 75.9942 125.516 66.9703 125.516 56.75H123.516H121.516C121.516 67.5297 123.725 77.2058 128.194 85.7288L129.966 84.8ZM123.516 56.75H125.516C125.516 46.5297 127.606 37.5058 131.737 29.6288L129.966 28.7L128.194 27.7712C123.725 36.2942 121.516 45.9703 121.516 56.75H123.516ZM129.966 28.7L131.728 29.6456C135.947 21.7819 141.924 15.7113 149.687 11.3983L148.716 9.65L147.744 7.90168C139.308 12.5887 132.784 19.2181 128.203 27.7544L129.966 28.7ZM148.716 9.65L149.703 11.3891C157.454 6.9872 166.603 4.75 177.216 4.75V2.75V0.749995C166.029 0.749995 156.177 3.11279 147.728 7.91087L148.716 9.65ZM177.216 2.75V4.75C190.793 4.75 201.629 8.0185 209.895 14.3846L211.116 12.8L212.336 11.2154C203.202 4.18149 191.438 0.749995 177.216 0.749995V2.75ZM211.116 12.8L209.904 14.3913C218.261 20.7542 223.203 29.3696 224.735 40.3756L226.716 40.1L228.697 39.8244C227.028 27.8304 221.57 18.2458 212.327 11.2087L211.116 12.8ZM226.716 40.1V38.1H191.616V40.1V42.1H226.716V40.1ZM272.609 30.35V28.35H270.609V30.35H272.609ZM272.609 43.4H270.609V45.4H272.609V43.4ZM305.609 43.4H307.609V41.4H305.609V43.4ZM305.609 68.45V70.45H307.609V68.45H305.609ZM272.609 68.45V66.45H270.609V68.45H272.609ZM272.609 83.45H270.609V85.45H272.609V83.45ZM310.109 83.45H312.109V81.45H310.109V83.45ZM310.109 110V112H312.109V110H310.109ZM239.309 110H237.309V112H239.309V110ZM239.309 3.8V1.8H237.309V3.8H239.309ZM310.109 3.8H312.109V1.8H310.109V3.8ZM310.109 30.35V32.35H312.109V30.35H310.109ZM272.609 30.35H270.609V43.4H272.609H274.609V30.35H272.609ZM272.609 43.4V45.4H305.609V43.4V41.4H272.609V43.4ZM305.609 43.4H303.609V68.45H305.609H307.609V43.4H305.609ZM305.609 68.45V66.45H272.609V68.45V70.45H305.609V68.45ZM272.609 68.45H270.609V83.45H272.609H274.609V68.45H272.609ZM272.609 83.45V85.45H310.109V83.45V81.45H272.609V83.45ZM310.109 83.45H308.109V110H310.109H312.109V83.45H310.109ZM310.109 110V108H239.309V110V112H310.109V110ZM239.309 110H241.309V3.8H239.309H237.309V110H239.309ZM239.309 3.8V5.8H310.109V3.8V1.8H239.309V3.8ZM310.109 3.8H308.109V30.35H310.109H312.109V3.8H310.109ZM310.109 30.35V28.35H272.609V30.35V32.35H310.109V30.35ZM424.508 110V112H426.508V110H424.508ZM391.208 110L389.539 111.102L390.132 112H391.208V110ZM355.958 56.6L357.627 55.4982L353.958 49.9398V56.6H355.958ZM355.958 110V112H357.958V110H355.958ZM322.658 110H320.658V112H322.658V110ZM322.658 3.8V1.8H320.658V3.8H322.658ZM355.958 3.8L357.636 2.711L357.044 1.8H355.958V3.8ZM391.208 58.1L389.531 59.189L393.208 64.8539V58.1H391.208ZM391.208 3.8V1.8H389.208V3.8H391.208ZM424.508 3.8H426.508V1.8H424.508V3.8ZM424.508 110V108H391.208V110V112H424.508V110ZM391.208 110L392.877 108.898L357.627 55.4982L355.958 56.6L354.289 57.7018L389.539 111.102L391.208 110ZM355.958 56.6H353.958V110H355.958H357.958V56.6H355.958ZM355.958 110V108H322.658V110V112H355.958V110ZM322.658 110H324.658V3.8H322.658H320.658V110H322.658ZM322.658 3.8V5.8H355.958V3.8V1.8H322.658V3.8ZM355.958 3.8L354.281 4.889L389.531 59.189L391.208 58.1L392.886 57.011L357.636 2.711L355.958 3.8ZM391.208 58.1H393.208V3.8H391.208H389.208V58.1H391.208ZM391.208 3.8V5.8H424.508V3.8V1.8H391.208V3.8ZM424.508 3.8H422.508V110H424.508H426.508V3.8H424.508ZM442.853 28.7L441.081 27.7712L441.077 27.7797L441.073 27.7882L442.853 28.7ZM461.153 9.65L462.143 11.3878L462.151 11.3831L462.159 11.3783L461.153 9.65ZM513.653 8L512.778 9.79873L512.793 9.80599L512.808 9.813L513.653 8ZM531.353 22.55L529.725 23.7125L529.731 23.721L529.737 23.7294L531.353 22.55ZM540.503 44.6V46.6H542.892L542.472 44.2484L540.503 44.6ZM505.403 44.6L503.584 45.4315L504.118 46.6H505.403V44.6ZM498.503 36.5L497.367 38.1464L497.4 38.1687L497.433 38.1896L498.503 36.5ZM475.103 39.8L473.53 38.5644L473.521 38.5761L473.512 38.5879L475.103 39.8ZM475.103 73.7L473.512 74.9121L473.521 74.9239L473.53 74.9356L475.103 73.7ZM498.503 77.15L499.599 78.8229L499.605 78.8185L499.612 78.8141L498.503 77.15ZM505.403 68.9V66.9H504.118L503.584 68.0685L505.403 68.9ZM540.503 68.9L542.472 69.2516L542.892 66.9H540.503V68.9ZM531.353 90.95L529.737 89.7706L529.731 89.779L529.725 89.7875L531.353 90.95ZM513.653 105.65L514.507 107.459L514.517 107.453L513.653 105.65ZM461.153 104L460.146 105.728L460.155 105.733L460.163 105.738L461.153 104ZM442.853 84.8L441.073 85.7117L441.077 85.7203L441.081 85.7288L442.853 84.8ZM436.553 56.75H438.553C438.553 46.5224 440.596 37.4924 444.633 29.6117L442.853 28.7L441.073 27.7882C436.709 36.3076 434.553 45.9775 434.553 56.75H436.553ZM442.853 28.7L444.624 29.6288C448.75 21.7611 454.582 15.6948 462.143 11.3878L461.153 9.65L460.163 7.91216C451.924 12.6052 445.556 19.2389 441.081 27.7712L442.853 28.7ZM461.153 9.65L462.159 11.3783C469.705 6.98456 478.645 4.75 489.053 4.75V2.75V0.749995C478.06 0.749995 468.401 3.11543 460.146 7.92165L461.153 9.65ZM489.053 2.75V4.75C497.995 4.75 505.889 6.44963 512.778 9.79873L513.653 8L514.527 6.20126C507.017 2.55037 498.51 0.749995 489.053 0.749995V2.75ZM513.653 8L512.808 9.813C519.809 13.0734 525.434 17.7047 529.725 23.7125L531.353 22.55L532.98 21.3875C528.271 14.7953 522.097 9.72658 514.497 6.187L513.653 8ZM531.353 22.55L529.737 23.7294C534.142 29.7615 537.082 36.8223 538.534 44.9516L540.503 44.6L542.472 44.2484C540.923 35.5777 537.764 27.9385 532.968 21.3706L531.353 22.55ZM540.503 44.6V42.6H505.403V44.6V46.6H540.503V44.6ZM505.403 44.6L507.222 43.7685C505.475 39.9467 502.928 36.9352 499.573 34.8104L498.503 36.5L497.433 38.1896C500.078 39.8648 502.131 42.2533 503.584 45.4315L505.403 44.6ZM498.503 36.5L499.638 34.8536C496.378 32.605 492.625 31.5 488.453 31.5V33.5V35.5C491.881 35.5 494.828 36.395 497.367 38.1464L498.503 36.5ZM488.453 33.5V31.5C482.273 31.5 477.23 33.8553 473.53 38.5644L475.103 39.8L476.675 41.0356C479.575 37.3447 483.432 35.5 488.453 35.5V33.5ZM475.103 39.8L473.512 38.5879C469.968 43.239 468.303 49.3618 468.303 56.75H470.303H472.303C472.303 49.9382 473.837 44.7609 476.694 41.0121L475.103 39.8ZM470.303 56.75H468.303C468.303 64.1382 469.968 70.2609 473.512 74.9121L475.103 73.7L476.694 72.4879C473.837 68.7391 472.303 63.5618 472.303 56.75H470.303ZM475.103 73.7L473.53 74.9356C477.23 79.6447 482.273 82 488.453 82V80V78C483.432 78 479.575 76.1553 476.675 72.4644L475.103 73.7ZM488.453 80V82C492.603 82 496.342 80.9567 499.599 78.8229L498.503 77.15L497.407 75.4771C494.863 77.1433 491.902 78 488.453 78V80ZM498.503 77.15L499.612 78.8141C502.942 76.5939 505.478 73.5459 507.222 69.7315L505.403 68.9L503.584 68.0685C502.127 71.2541 500.063 73.7061 497.393 75.4859L498.503 77.15ZM505.403 68.9V70.9H540.503V68.9V66.9H505.403V68.9ZM540.503 68.9L538.534 68.5484C537.082 76.6777 534.142 83.7385 529.737 89.7706L531.353 90.95L532.968 92.1294C537.764 85.5615 540.923 77.9223 542.472 69.2516L540.503 68.9ZM531.353 90.95L529.725 89.7875C525.43 95.8002 519.798 100.486 512.788 103.847L513.653 105.65L514.517 107.453C522.107 103.814 528.275 98.6998 532.98 92.1125L531.353 90.95ZM513.653 105.65L512.799 103.841C505.904 107.097 498.003 108.75 489.053 108.75V110.75V112.75C498.502 112.75 507.001 111.003 514.507 107.458L513.653 105.65ZM489.053 110.75V108.75C478.638 108.75 469.692 106.562 462.143 102.262L461.153 104L460.163 105.738C468.414 110.438 478.067 112.75 489.053 112.75V110.75ZM461.153 104L462.159 102.272C454.589 97.8635 448.752 91.7426 444.624 83.8712L442.853 84.8L441.081 85.7288C445.554 94.2574 451.917 100.937 460.146 105.728L461.153 104ZM442.853 84.8L444.633 83.8882C440.596 76.0076 438.553 66.9775 438.553 56.75H436.553H434.553C434.553 67.5225 436.709 77.1924 441.073 85.7117L442.853 84.8ZM654.492 3.8L656.27 4.716L657.772 1.8H654.492V3.8ZM616.392 77.75L614.614 76.834L614.392 77.2651V77.75H616.392ZM616.392 110V112H618.392V110H616.392ZM583.092 110H581.092V112H583.092V110ZM583.092 77.75H585.092V77.2651L584.87 76.834L583.092 77.75ZM544.992 3.8V1.8H541.712L543.214 4.716L544.992 3.8ZM583.092 3.8L584.916 2.97897L584.385 1.8H583.092V3.8ZM600.042 41.45L598.219 42.271L600.042 46.3219L601.866 42.271L600.042 41.45ZM616.992 3.8V1.8H615.699L615.168 2.97897L616.992 3.8ZM654.492 3.8L652.714 2.884L614.614 76.834L616.392 77.75L618.17 78.666L656.27 4.716L654.492 3.8ZM616.392 77.75H614.392V110H616.392H618.392V77.75H616.392ZM616.392 110V108H583.092V110V112H616.392V110ZM583.092 110H585.092V77.75H583.092H581.092V110H583.092ZM583.092 77.75L584.87 76.834L546.77 2.884L544.992 3.8L543.214 4.716L581.314 78.666L583.092 77.75ZM544.992 3.8V5.8H583.092V3.8V1.8H544.992V3.8ZM583.092 3.8L581.268 4.62103L598.219 42.271L600.042 41.45L601.866 40.629L584.916 2.97897L583.092 3.8ZM600.042 41.45L601.866 42.271L618.816 4.62103L616.992 3.8L615.168 2.97897L598.219 40.629L600.042 41.45ZM616.992 3.8V5.8H654.492V3.8V1.8H616.992V3.8Z" fill="white" mask="url(#path-1-outside-1_24_72)"/>
</svg>
