<svg width="702" height="228" viewBox="0 0 702 228" fill="none" xmlns="http://www.w3.org/2000/svg">
<mask id="path-1-outside-1_164_80" maskUnits="userSpaceOnUse" x="0" y="0" width="656" height="111" fill="black">
<rect fill="white" width="656" height="111"/>
<path d="M77.6 92.95H42.2L36.95 109H2L40.85 2.8H79.25L117.95 109H82.85L77.6 92.95ZM69.5 67.9L59.9 38.35L50.3 67.9H69.5ZM190.616 39.1C189.316 37 187.466 35.4 185.066 34.3C182.666 33.1 179.766 32.5 176.366 32.5C169.966 32.5 165.016 34.6 161.516 38.8C158.016 42.9 156.266 48.55 156.266 55.75C156.266 64.05 158.216 70.25 162.116 74.35C166.016 78.45 172.016 80.5 180.116 80.5C187.816 80.5 194.016 77.4 198.716 71.2H172.166V47.65H226.316V80.95C221.716 88.85 215.366 95.65 207.266 101.35C199.166 106.95 188.916 109.75 176.516 109.75C165.516 109.75 155.916 107.5 147.716 103C139.616 98.4 133.366 92 128.966 83.8C124.666 75.6 122.516 66.25 122.516 55.75C122.516 45.25 124.666 35.9 128.966 27.7C133.366 19.5 139.616 13.15 147.716 8.65C155.816 4.05 165.316 1.74999 176.216 1.74999C190.116 1.74999 201.416 5.1 210.116 11.8C218.916 18.5 224.116 27.6 225.716 39.1H190.616ZM271.609 29.35V42.4H304.609V67.45H271.609V82.45H309.109V109H238.309V2.8H309.109V29.35H271.609ZM423.508 109H390.208L354.958 55.6V109H321.658V2.8H354.958L390.208 57.1V2.8H423.508V109ZM435.553 55.75C435.553 45.25 437.653 35.9 441.853 27.7C446.153 19.5 452.253 13.15 460.153 8.65C468.053 4.05 477.353 1.74999 488.053 1.74999C497.253 1.74999 505.453 3.5 512.653 7C519.953 10.4 525.853 15.25 530.353 21.55C534.953 27.85 538.003 35.2 539.503 43.6H504.403C502.803 40.1 500.503 37.4 497.503 35.5C494.603 33.5 491.253 32.5 487.453 32.5C481.853 32.5 477.403 34.6 474.103 38.8C470.903 43 469.303 48.65 469.303 55.75C469.303 62.85 470.903 68.5 474.103 72.7C477.403 76.9 481.853 79 487.453 79C491.253 79 494.603 78.05 497.503 76.15C500.503 74.15 502.803 71.4 504.403 67.9H539.503C538.003 76.3 534.953 83.65 530.353 89.95C525.853 96.25 519.953 101.15 512.653 104.65C505.453 108.05 497.253 109.75 488.053 109.75C477.353 109.75 468.053 107.5 460.153 103C452.253 98.4 446.153 92 441.853 83.8C437.653 75.6 435.553 66.25 435.553 55.75ZM653.492 2.8L615.392 76.75V109H582.092V76.75L543.992 2.8H582.092L599.042 40.45L615.992 2.8H653.492Z"/>
</mask>
<path d="M77.6 92.95L78.5504 92.6391L78.325 91.95H77.6V92.95ZM42.2 92.95V91.95H41.475L41.2496 92.6391L42.2 92.95ZM36.95 109V110H37.675L37.9004 109.311L36.95 109ZM2 109L1.06087 108.656L0.569369 110H2V109ZM40.85 2.8V1.8H40.151L39.9109 2.45645L40.85 2.8ZM79.25 2.8L80.1896 2.45762L79.9499 1.8H79.25V2.8ZM117.95 109V110H119.379L118.89 108.658L117.95 109ZM82.85 109L81.8996 109.311L82.125 110H82.85V109ZM69.5 67.9V68.9H70.8763L70.4511 67.591L69.5 67.9ZM59.9 38.35L60.8511 38.041L59.9 35.1135L58.9489 38.041L59.9 38.35ZM50.3 67.9L49.3489 67.591L48.9237 68.9H50.3V67.9ZM77.6 92.95V91.95H42.2V92.95V93.95H77.6V92.95ZM42.2 92.95L41.2496 92.6391L35.9996 108.689L36.95 109L37.9004 109.311L43.1504 93.2609L42.2 92.95ZM36.95 109V108H2V109V110H36.95V109ZM2 109L2.93913 109.344L41.7891 3.14355L40.85 2.8L39.9109 2.45645L1.06087 108.656L2 109ZM40.85 2.8V3.8H79.25V2.8V1.8H40.85V2.8ZM79.25 2.8L78.3104 3.14238L117.01 109.342L117.95 109L118.89 108.658L80.1896 2.45762L79.25 2.8ZM117.95 109V108H82.85V109V110H117.95V109ZM82.85 109L83.8004 108.689L78.5504 92.6391L77.6 92.95L76.6496 93.2609L81.8996 109.311L82.85 109ZM69.5 67.9L70.4511 67.591L60.8511 38.041L59.9 38.35L58.9489 38.659L68.5489 68.209L69.5 67.9ZM59.9 38.35L58.9489 38.041L49.3489 67.591L50.3 67.9L51.2511 68.209L60.8511 38.659L59.9 38.35ZM50.3 67.9V68.9H69.5V67.9V66.9H50.3V67.9ZM190.616 39.1L189.765 39.6264L190.059 40.1H190.616V39.1ZM185.066 34.3L184.618 35.1944L184.634 35.202L184.649 35.2091L185.066 34.3ZM161.516 38.8L162.276 39.4493L162.284 39.4402L161.516 38.8ZM162.116 74.35L161.391 75.0392L161.391 75.0392L162.116 74.35ZM198.716 71.2L199.513 71.8041L200.729 70.2H198.716V71.2ZM172.166 71.2H171.166V72.2H172.166V71.2ZM172.166 47.65V46.65H171.166V47.65H172.166ZM226.316 47.65H227.316V46.65H226.316V47.65ZM226.316 80.95L227.18 81.4532L227.316 81.2199V80.95H226.316ZM207.266 101.35L207.834 102.173L207.841 102.168L207.266 101.35ZM147.716 103L147.222 103.87L147.228 103.873L147.235 103.877L147.716 103ZM128.966 83.8L128.08 84.2644L128.084 84.2728L128.966 83.8ZM128.966 27.7L128.084 27.2272L128.08 27.2356L128.966 27.7ZM147.716 8.65L148.201 9.52419L148.209 9.51956L147.716 8.65ZM210.116 11.8L209.505 12.5923L209.51 12.5956L210.116 11.8ZM225.716 39.1V40.1H226.864L226.706 38.9622L225.716 39.1ZM190.616 39.1L191.466 38.5736C190.055 36.2944 188.048 34.5671 185.482 33.3909L185.066 34.3L184.649 35.2091C186.883 36.2329 188.576 37.7056 189.765 39.6264L190.616 39.1ZM185.066 34.3L185.513 33.4056C182.942 32.1201 179.881 31.5 176.366 31.5V32.5V33.5C179.651 33.5 182.389 34.0799 184.618 35.1944L185.066 34.3ZM176.366 32.5V31.5C169.725 31.5 164.471 33.6918 160.747 38.1598L161.516 38.8L162.284 39.4402C165.561 35.5082 170.206 33.5 176.366 33.5V32.5ZM161.516 38.8L160.755 38.1507C157.055 42.4849 155.266 48.3926 155.266 55.75H156.266H157.266C157.266 48.7074 158.976 43.3151 162.276 39.4493L161.516 38.8ZM156.266 55.75H155.266C155.266 64.1881 157.247 70.6823 161.391 75.0392L162.116 74.35L162.84 73.6608C159.185 69.8177 157.266 63.9119 157.266 55.75H156.266ZM162.116 74.35L161.391 75.0392C165.549 79.4104 171.862 81.5 180.116 81.5V80.5V79.5C172.17 79.5 166.482 77.4896 162.84 73.6608L162.116 74.35ZM180.116 80.5V81.5C188.132 81.5 194.626 78.2504 199.513 71.8041L198.716 71.2L197.919 70.5959C193.405 76.5496 187.499 79.5 180.116 79.5V80.5ZM198.716 71.2V70.2H172.166V71.2V72.2H198.716V71.2ZM172.166 71.2H173.166V47.65H172.166H171.166V71.2H172.166ZM172.166 47.65V48.65H226.316V47.65V46.65H172.166V47.65ZM226.316 47.65H225.316V80.95H226.316H227.316V47.65H226.316ZM226.316 80.95L225.451 80.4468C220.93 88.2123 214.682 94.908 206.69 100.532L207.266 101.35L207.841 102.168C216.049 96.392 222.501 89.4877 227.18 81.4532L226.316 80.95ZM207.266 101.35L206.697 100.527C198.803 105.985 188.765 108.75 176.516 108.75V109.75V110.75C189.066 110.75 199.528 107.915 207.834 102.173L207.266 101.35ZM176.516 109.75V108.75C165.654 108.75 156.225 106.529 148.197 102.123L147.716 103L147.235 103.877C155.606 108.471 165.377 110.75 176.516 110.75V109.75ZM147.716 103L148.209 102.13C140.273 97.6234 134.158 91.3609 129.847 83.3272L128.966 83.8L128.084 84.2728C132.574 92.6391 138.958 99.1766 147.222 103.87L147.716 103ZM128.966 83.8L129.851 83.3356C125.636 75.2971 123.516 66.1101 123.516 55.75H122.516H121.516C121.516 66.3899 123.695 75.9029 128.08 84.2644L128.966 83.8ZM122.516 55.75H123.516C123.516 45.3899 125.636 36.2029 129.851 28.1644L128.966 27.7L128.08 27.2356C123.695 35.5971 121.516 45.1101 121.516 55.75H122.516ZM128.966 27.7L129.847 28.1728C134.157 20.141 140.27 13.9306 148.201 9.52415L147.716 8.65L147.23 7.77584C138.962 12.3694 132.575 18.859 128.084 27.2272L128.966 27.7ZM147.716 8.65L148.209 9.51956C156.135 5.0186 165.459 2.74999 176.216 2.74999V1.74999V0.749995C165.172 0.749995 155.496 3.08139 147.222 7.78043L147.716 8.65ZM176.216 1.74999V2.74999C189.954 2.74999 201.022 6.05925 209.505 12.5923L210.116 11.8L210.726 11.0077C201.809 4.14074 190.277 0.749995 176.216 0.749995V1.74999ZM210.116 11.8L209.51 12.5956C218.088 19.1271 223.16 27.9848 224.725 39.2378L225.716 39.1L226.706 38.9622C225.072 27.2152 219.743 17.8729 210.721 11.0044L210.116 11.8ZM225.716 39.1V38.1H190.616V39.1V40.1H225.716V39.1ZM271.609 29.35V28.35H270.609V29.35H271.609ZM271.609 42.4H270.609V43.4H271.609V42.4ZM304.609 42.4H305.609V41.4H304.609V42.4ZM304.609 67.45V68.45H305.609V67.45H304.609ZM271.609 67.45V66.45H270.609V67.45H271.609ZM271.609 82.45H270.609V83.45H271.609V82.45ZM309.109 82.45H310.109V81.45H309.109V82.45ZM309.109 109V110H310.109V109H309.109ZM238.309 109H237.309V110H238.309V109ZM238.309 2.8V1.8H237.309V2.8H238.309ZM309.109 2.8H310.109V1.8H309.109V2.8ZM309.109 29.35V30.35H310.109V29.35H309.109ZM271.609 29.35H270.609V42.4H271.609H272.609V29.35H271.609ZM271.609 42.4V43.4H304.609V42.4V41.4H271.609V42.4ZM304.609 42.4H303.609V67.45H304.609H305.609V42.4H304.609ZM304.609 67.45V66.45H271.609V67.45V68.45H304.609V67.45ZM271.609 67.45H270.609V82.45H271.609H272.609V67.45H271.609ZM271.609 82.45V83.45H309.109V82.45V81.45H271.609V82.45ZM309.109 82.45H308.109V109H309.109H310.109V82.45H309.109ZM309.109 109V108H238.309V109V110H309.109V109ZM238.309 109H239.309V2.8H238.309H237.309V109H238.309ZM238.309 2.8V3.8H309.109V2.8V1.8H238.309V2.8ZM309.109 2.8H308.109V29.35H309.109H310.109V2.8H309.109ZM309.109 29.35V28.35H271.609V29.35V30.35H309.109V29.35ZM423.508 109V110H424.508V109H423.508ZM390.208 109L389.374 109.551L389.67 110H390.208V109ZM354.958 55.6L355.793 55.0491L353.958 52.2699V55.6H354.958ZM354.958 109V110H355.958V109H354.958ZM321.658 109H320.658V110H321.658V109ZM321.658 2.8V1.8H320.658V2.8H321.658ZM354.958 2.8L355.797 2.2555L355.501 1.8H354.958V2.8ZM390.208 57.1L389.369 57.6445L391.208 60.477V57.1H390.208ZM390.208 2.8V1.8H389.208V2.8H390.208ZM423.508 2.8H424.508V1.8H423.508V2.8ZM423.508 109V108H390.208V109V110H423.508V109ZM390.208 109L391.043 108.449L355.793 55.0491L354.958 55.6L354.124 56.1509L389.374 109.551L390.208 109ZM354.958 55.6H353.958V109H354.958H355.958V55.6H354.958ZM354.958 109V108H321.658V109V110H354.958V109ZM321.658 109H322.658V2.8H321.658H320.658V109H321.658ZM321.658 2.8V3.8H354.958V2.8V1.8H321.658V2.8ZM354.958 2.8L354.119 3.3445L389.369 57.6445L390.208 57.1L391.047 56.5555L355.797 2.2555L354.958 2.8ZM390.208 57.1H391.208V2.8H390.208H389.208V57.1H390.208ZM390.208 2.8V3.8H423.508V2.8V1.8H390.208V2.8ZM423.508 2.8H422.508V109H423.508H424.508V2.8H423.508ZM441.853 27.7L440.967 27.2356L440.963 27.2441L441.853 27.7ZM460.153 8.65L460.648 9.51895L460.656 9.51417L460.153 8.65ZM512.653 7L512.216 7.89937L512.223 7.903L512.231 7.9065L512.653 7ZM530.353 21.55L529.539 22.1313L529.545 22.1397L530.353 21.55ZM539.503 43.6V44.6H540.697L540.487 43.4242L539.503 43.6ZM504.403 43.6L503.493 44.0158L503.76 44.6H504.403V43.6ZM497.503 35.5L496.935 36.3232L496.951 36.3343L496.968 36.3448L497.503 35.5ZM474.103 38.8L473.316 38.1822L473.312 38.188L473.307 38.194L474.103 38.8ZM474.103 72.7L473.307 73.306L473.312 73.312L473.316 73.3178L474.103 72.7ZM497.503 76.15L498.051 76.9865L498.057 76.982L497.503 76.15ZM504.403 67.9V66.9H503.76L503.493 67.4842L504.403 67.9ZM539.503 67.9L540.487 68.0758L540.697 66.9H539.503V67.9ZM530.353 89.95L529.545 89.3603L529.539 89.3688L530.353 89.95ZM512.653 104.65L513.08 105.554L513.085 105.552L512.653 104.65ZM460.153 103L459.65 103.864L459.658 103.869L460.153 103ZM441.853 83.8L440.963 84.2559L440.967 84.2644L441.853 83.8ZM435.553 55.75H436.553C436.553 45.3862 438.625 36.1962 442.743 28.1559L441.853 27.7L440.963 27.2441C436.681 35.6038 434.553 45.1138 434.553 55.75H435.553ZM441.853 27.7L442.738 28.1644C446.951 20.1305 452.917 13.9224 460.648 9.51891L460.153 8.65L459.658 7.78108C451.588 12.3776 445.354 18.8695 440.967 27.2356L441.853 27.7ZM460.153 8.65L460.656 9.51417C468.379 5.01728 477.499 2.74999 488.053 2.74999V1.74999V0.749995C477.206 0.749995 467.727 3.08271 459.65 7.78582L460.153 8.65ZM488.053 1.74999V2.74999C497.124 2.74999 505.171 4.47481 512.216 7.89937L512.653 7L513.09 6.10063C505.735 2.52518 497.382 0.749995 488.053 0.749995V1.74999ZM512.653 7L512.231 7.9065C519.381 11.2367 525.143 15.9774 529.539 22.1312L530.353 21.55L531.166 20.9688C526.562 14.5226 520.525 9.56329 513.075 6.0935L512.653 7ZM530.353 21.55L529.545 22.1397C534.047 28.3058 537.042 35.5111 538.518 43.7758L539.503 43.6L540.487 43.4242C538.963 34.8889 535.858 27.3942 531.16 20.9603L530.353 21.55ZM539.503 43.6V42.6H504.403V43.6V44.6H539.503V43.6ZM504.403 43.6L505.312 43.1842C503.639 39.5234 501.215 36.6676 498.038 34.6552L497.503 35.5L496.968 36.3448C499.79 38.1324 501.967 40.6766 503.493 44.0158L504.403 43.6ZM497.503 35.5L498.07 34.6768C494.99 32.5525 491.439 31.5 487.453 31.5V32.5V33.5C491.067 33.5 494.215 34.4475 496.935 36.3232L497.503 35.5ZM487.453 32.5V31.5C481.563 31.5 476.816 33.7276 473.316 38.1822L474.103 38.8L474.889 39.4178C477.989 35.4723 482.142 33.5 487.453 33.5V32.5ZM474.103 38.8L473.307 38.194C469.935 42.6195 468.303 48.5059 468.303 55.75H469.303H470.303C470.303 48.7941 471.87 43.3805 474.898 39.406L474.103 38.8ZM469.303 55.75H468.303C468.303 62.9941 469.935 68.8805 473.307 73.306L474.103 72.7L474.898 72.094C471.87 68.1195 470.303 62.7059 470.303 55.75H469.303ZM474.103 72.7L473.316 73.3178C476.816 77.7723 481.563 80 487.453 80V79V78C482.142 78 477.989 76.0277 474.889 72.0822L474.103 72.7ZM487.453 79V80C491.428 80 494.972 79.0033 498.051 76.9865L497.503 76.15L496.955 75.3135C494.233 77.0966 491.077 78 487.453 78V79ZM497.503 76.15L498.057 76.982C501.223 74.8719 503.64 71.9729 505.312 68.3158L504.403 67.9L503.493 67.4842C501.965 70.8271 499.783 73.4281 496.948 75.3179L497.503 76.15ZM504.403 67.9V68.9H539.503V67.9V66.9H504.403V67.9ZM539.503 67.9L538.518 67.7242C537.042 75.9889 534.047 83.1942 529.545 89.3603L530.353 89.95L531.16 90.5397C535.858 84.1058 538.963 76.6111 540.487 68.0758L539.503 67.9ZM530.353 89.95L529.539 89.3688C525.142 95.5251 519.375 100.318 512.22 103.748L512.653 104.65L513.085 105.552C520.53 101.982 526.564 96.9749 531.166 90.5312L530.353 89.95ZM512.653 104.65L512.226 103.746C505.179 107.074 497.128 108.75 488.053 108.75V109.75V110.75C497.378 110.75 505.727 109.026 513.08 105.554L512.653 104.65ZM488.053 109.75V108.75C477.495 108.75 468.372 106.531 460.648 102.131L460.153 103L459.658 103.869C467.733 108.469 477.21 110.75 488.053 110.75V109.75ZM460.153 103L460.656 102.136C452.921 97.6317 446.952 91.3713 442.738 83.3356L441.853 83.8L440.967 84.2644C445.353 92.6287 451.585 99.1683 459.65 103.864L460.153 103ZM441.853 83.8L442.743 83.3441C438.625 75.3038 436.553 66.1138 436.553 55.75H435.553H434.553C434.553 66.3862 436.681 75.8962 440.963 84.2559L441.853 83.8ZM653.492 2.8L654.381 3.258L655.132 1.8H653.492V2.8ZM615.392 76.75L614.503 76.292L614.392 76.5075V76.75H615.392ZM615.392 109V110H616.392V109H615.392ZM582.092 109H581.092V110H582.092V109ZM582.092 76.75H583.092V76.5075L582.981 76.292L582.092 76.75ZM543.992 2.8V1.8H542.352L543.103 3.258L543.992 2.8ZM582.092 2.8L583.004 2.38948L582.739 1.8H582.092V2.8ZM599.042 40.45L598.13 40.8605L599.042 42.886L599.954 40.8605L599.042 40.45ZM615.992 2.8V1.8H615.346L615.08 2.38948L615.992 2.8ZM653.492 2.8L652.603 2.342L614.503 76.292L615.392 76.75L616.281 77.208L654.381 3.258L653.492 2.8ZM615.392 76.75H614.392V109H615.392H616.392V76.75H615.392ZM615.392 109V108H582.092V109V110H615.392V109ZM582.092 109H583.092V76.75H582.092H581.092V109H582.092ZM582.092 76.75L582.981 76.292L544.881 2.342L543.992 2.8L543.103 3.258L581.203 77.208L582.092 76.75ZM543.992 2.8V3.8H582.092V2.8V1.8H543.992V2.8ZM582.092 2.8L581.18 3.21052L598.13 40.8605L599.042 40.45L599.954 40.0395L583.004 2.38948L582.092 2.8ZM599.042 40.45L599.954 40.8605L616.904 3.21052L615.992 2.8L615.08 2.38948L598.13 40.0395L599.042 40.45ZM615.992 2.8V3.8H653.492V2.8V1.8H615.992V2.8Z" fill="#E0324C" mask="url(#path-1-outside-1_164_80)"/>
<path d="M181.676 102.684V132H175.796V102.684H181.676ZM219.867 102.684V132H213.987V112.932L206.133 132H201.681L193.785 112.932V132H187.905V102.684H194.583L203.907 124.482L213.231 102.684H219.867ZM247.479 111.756C247.479 113.324 247.101 114.794 246.345 116.166C245.617 117.538 244.455 118.644 242.859 119.484C241.291 120.324 239.303 120.744 236.895 120.744H231.981V132H226.101V102.684H236.895C239.163 102.684 241.095 103.076 242.691 103.86C244.287 104.644 245.477 105.722 246.261 107.094C247.073 108.466 247.479 110.02 247.479 111.756ZM236.643 115.998C238.267 115.998 239.471 115.634 240.255 114.906C241.039 114.15 241.431 113.1 241.431 111.756C241.431 108.9 239.835 107.472 236.643 107.472H231.981V115.998H236.643ZM270.049 126.414H258.373L256.441 132H250.267L260.809 102.642H267.655L278.197 132H271.981L270.049 126.414ZM268.453 121.71L264.211 109.446L259.969 121.71H268.453ZM281.13 117.3C281.13 114.416 281.774 111.84 283.062 109.572C284.378 107.276 286.156 105.498 288.396 104.238C290.664 102.95 293.198 102.306 295.998 102.306C299.274 102.306 302.144 103.146 304.608 104.826C307.072 106.506 308.794 108.83 309.774 111.798H303.012C302.34 110.398 301.388 109.348 300.156 108.648C298.952 107.948 297.552 107.598 295.956 107.598C294.248 107.598 292.722 108.004 291.378 108.816C290.062 109.6 289.026 110.72 288.27 112.176C287.542 113.632 287.178 115.34 287.178 117.3C287.178 119.232 287.542 120.94 288.27 122.424C289.026 123.88 290.062 125.014 291.378 125.826C292.722 126.61 294.248 127.002 295.956 127.002C297.552 127.002 298.952 126.652 300.156 125.952C301.388 125.224 302.34 124.16 303.012 122.76H309.774C308.794 125.756 307.072 128.094 304.608 129.774C302.172 131.426 299.302 132.252 295.998 132.252C293.198 132.252 290.664 131.622 288.396 130.362C286.156 129.074 284.378 127.296 283.062 125.028C281.774 122.76 281.13 120.184 281.13 117.3ZM335.166 102.684V107.43H327.354V132H321.474V107.43H313.662V102.684H335.166ZM376.638 102.684L365.886 132H358.746L347.994 102.684H354.294L362.358 125.994L370.38 102.684H376.638ZM386.464 102.684V132H380.584V102.684H386.464ZM402.815 132.294C400.771 132.294 398.923 131.944 397.271 131.244C395.647 130.544 394.359 129.536 393.407 128.22C392.455 126.904 391.965 125.35 391.937 123.558H398.237C398.321 124.762 398.741 125.714 399.497 126.414C400.281 127.114 401.345 127.464 402.689 127.464C404.061 127.464 405.139 127.142 405.923 126.498C406.707 125.826 407.099 124.958 407.099 123.894C407.099 123.026 406.833 122.312 406.301 121.752C405.769 121.192 405.097 120.758 404.285 120.45C403.501 120.114 402.409 119.75 401.009 119.358C399.105 118.798 397.551 118.252 396.347 117.72C395.171 117.16 394.149 116.334 393.281 115.242C392.441 114.122 392.021 112.638 392.021 110.79C392.021 109.054 392.455 107.542 393.323 106.254C394.191 104.966 395.409 103.986 396.977 103.314C398.545 102.614 400.337 102.264 402.353 102.264C405.377 102.264 407.827 103.006 409.703 104.49C411.607 105.946 412.657 107.99 412.853 110.622H406.385C406.329 109.614 405.895 108.788 405.083 108.144C404.299 107.472 403.249 107.136 401.933 107.136C400.785 107.136 399.861 107.43 399.161 108.018C398.489 108.606 398.153 109.46 398.153 110.58C398.153 111.364 398.405 112.022 398.909 112.554C399.441 113.058 400.085 113.478 400.841 113.814C401.625 114.122 402.717 114.486 404.117 114.906C406.021 115.466 407.575 116.026 408.779 116.586C409.983 117.146 411.019 117.986 411.887 119.106C412.755 120.226 413.189 121.696 413.189 123.516C413.189 125.084 412.783 126.54 411.971 127.884C411.159 129.228 409.969 130.306 408.401 131.118C406.833 131.902 404.971 132.294 402.815 132.294ZM424.503 102.684V120.828C424.503 122.816 425.021 124.342 426.057 125.406C427.093 126.442 428.549 126.96 430.425 126.96C432.329 126.96 433.799 126.442 434.835 125.406C435.871 124.342 436.389 122.816 436.389 120.828V102.684H442.311V120.786C442.311 123.278 441.765 125.392 440.673 127.128C439.609 128.836 438.167 130.124 436.347 130.992C434.555 131.86 432.553 132.294 430.341 132.294C428.157 132.294 426.169 131.86 424.377 130.992C422.613 130.124 421.213 128.836 420.177 127.128C419.141 125.392 418.623 123.278 418.623 120.786V102.684H424.503ZM454.292 107.43V114.78H464.162V119.442H454.292V127.212H465.422V132H448.412V102.642H465.422V107.43H454.292ZM477.066 127.338H486.726V132H471.186V102.684H477.066V127.338ZM523.865 132L520.673 128.85C517.957 131.286 514.639 132.504 510.719 132.504C508.563 132.504 506.659 132.14 505.007 131.412C503.383 130.656 502.123 129.606 501.227 128.262C500.331 126.89 499.883 125.308 499.883 123.516C499.883 121.584 500.429 119.848 501.521 118.308C502.613 116.768 504.223 115.522 506.351 114.57C505.595 113.646 505.049 112.764 504.713 111.924C504.377 111.056 504.209 110.132 504.209 109.152C504.209 107.808 504.559 106.604 505.259 105.54C505.959 104.448 506.953 103.594 508.241 102.978C509.557 102.362 511.083 102.054 512.819 102.054C514.583 102.054 516.095 102.39 517.355 103.062C518.615 103.734 519.553 104.63 520.169 105.75C520.785 106.87 521.051 108.116 520.967 109.488H515.255C515.283 108.564 515.059 107.864 514.583 107.388C514.107 106.884 513.463 106.632 512.651 106.632C511.867 106.632 511.209 106.87 510.677 107.346C510.173 107.794 509.921 108.382 509.921 109.11C509.921 109.81 510.131 110.51 510.551 111.21C510.971 111.882 511.657 112.722 512.609 113.73L520.001 121.038C520.057 120.982 520.099 120.926 520.127 120.87C520.155 120.814 520.183 120.758 520.211 120.702L522.605 116.712H528.737L525.797 121.878C525.237 122.97 524.635 124.006 523.991 124.986L531.089 132H523.865ZM510.887 127.632C513.183 127.632 515.213 126.82 516.977 125.196L509.753 118.056C507.037 119.26 505.679 120.968 505.679 123.18C505.679 124.44 506.155 125.504 507.107 126.372C508.059 127.212 509.319 127.632 510.887 127.632ZM98.2437 153.3C98.2437 150.416 98.8877 147.84 100.176 145.572C101.492 143.276 103.27 141.498 105.51 140.238C107.778 138.95 110.312 138.306 113.112 138.306C116.388 138.306 119.258 139.146 121.722 140.826C124.186 142.506 125.908 144.83 126.888 147.798H120.126C119.454 146.398 118.502 145.348 117.27 144.648C116.066 143.948 114.666 143.598 113.07 143.598C111.362 143.598 109.836 144.004 108.492 144.816C107.176 145.6 106.14 146.72 105.384 148.176C104.656 149.632 104.292 151.34 104.292 153.3C104.292 155.232 104.656 156.94 105.384 158.424C106.14 159.88 107.176 161.014 108.492 161.826C109.836 162.61 111.362 163.002 113.07 163.002C114.666 163.002 116.066 162.652 117.27 161.952C118.502 161.224 119.454 160.16 120.126 158.76H126.888C125.908 161.756 124.186 164.094 121.722 165.774C119.286 167.426 116.416 168.252 113.112 168.252C110.312 168.252 107.778 167.622 105.51 166.362C103.27 165.074 101.492 163.296 100.176 161.028C98.8877 158.76 98.2437 156.184 98.2437 153.3ZM145.938 168.294C143.194 168.294 140.674 167.65 138.378 166.362C136.082 165.074 134.262 163.296 132.918 161.028C131.574 158.732 130.902 156.142 130.902 153.258C130.902 150.402 131.574 147.84 132.918 145.572C134.262 143.276 136.082 141.484 138.378 140.196C140.674 138.908 143.194 138.264 145.938 138.264C148.71 138.264 151.23 138.908 153.498 140.196C155.794 141.484 157.6 143.276 158.916 145.572C160.26 147.84 160.932 150.402 160.932 153.258C160.932 156.142 160.26 158.732 158.916 161.028C157.6 163.296 155.794 165.074 153.498 166.362C151.202 167.65 148.682 168.294 145.938 168.294ZM145.938 163.044C147.702 163.044 149.256 162.652 150.6 161.868C151.944 161.056 152.994 159.908 153.75 158.424C154.506 156.94 154.884 155.218 154.884 153.258C154.884 151.298 154.506 149.59 153.75 148.134C152.994 146.65 151.944 145.516 150.6 144.732C149.256 143.948 147.702 143.556 145.938 143.556C144.174 143.556 142.606 143.948 141.234 144.732C139.89 145.516 138.84 146.65 138.084 148.134C137.328 149.59 136.95 151.298 136.95 153.258C136.95 155.218 137.328 156.94 138.084 158.424C138.84 159.908 139.89 161.056 141.234 161.868C142.606 162.652 144.174 163.044 145.938 163.044ZM190.801 168H184.921L171.607 147.882V168H165.727V138.642H171.607L184.921 158.802V138.642H190.801V168ZM216.981 138.684V143.43H209.169V168H203.289V143.43H195.477V138.684H216.981ZM227.572 143.43V150.78H237.442V155.442H227.572V163.212H238.702V168H221.692V138.642H238.702V143.43H227.572ZM269.539 168H263.659L250.345 147.882V168H244.465V138.642H250.345L263.659 158.802V138.642H269.539V168ZM281.566 138.684V156.828C281.566 158.816 282.084 160.342 283.12 161.406C284.156 162.442 285.612 162.96 287.488 162.96C289.392 162.96 290.862 162.442 291.898 161.406C292.934 160.342 293.452 158.816 293.452 156.828V138.684H299.374V156.786C299.374 159.278 298.828 161.392 297.736 163.128C296.672 164.836 295.23 166.124 293.41 166.992C291.618 167.86 289.616 168.294 287.404 168.294C285.22 168.294 283.232 167.86 281.44 166.992C279.676 166.124 278.276 164.836 277.24 163.128C276.204 161.392 275.686 159.278 275.686 156.786V138.684H281.566ZM315.597 168.294C313.553 168.294 311.705 167.944 310.053 167.244C308.429 166.544 307.141 165.536 306.189 164.22C305.237 162.904 304.747 161.35 304.719 159.558H311.019C311.103 160.762 311.523 161.714 312.279 162.414C313.063 163.114 314.127 163.464 315.471 163.464C316.843 163.464 317.921 163.142 318.705 162.498C319.489 161.826 319.881 160.958 319.881 159.894C319.881 159.026 319.615 158.312 319.083 157.752C318.551 157.192 317.879 156.758 317.067 156.45C316.283 156.114 315.191 155.75 313.791 155.358C311.887 154.798 310.333 154.252 309.129 153.72C307.953 153.16 306.931 152.334 306.063 151.242C305.223 150.122 304.803 148.638 304.803 146.79C304.803 145.054 305.237 143.542 306.105 142.254C306.973 140.966 308.191 139.986 309.759 139.314C311.327 138.614 313.119 138.264 315.135 138.264C318.159 138.264 320.609 139.006 322.485 140.49C324.389 141.946 325.439 143.99 325.635 146.622H319.167C319.111 145.614 318.677 144.788 317.865 144.144C317.081 143.472 316.031 143.136 314.715 143.136C313.567 143.136 312.643 143.43 311.943 144.018C311.271 144.606 310.935 145.46 310.935 146.58C310.935 147.364 311.187 148.022 311.691 148.554C312.223 149.058 312.867 149.478 313.623 149.814C314.407 150.122 315.499 150.486 316.899 150.906C318.803 151.466 320.357 152.026 321.561 152.586C322.765 153.146 323.801 153.986 324.669 155.106C325.537 156.226 325.971 157.696 325.971 159.516C325.971 161.084 325.565 162.54 324.753 163.884C323.941 165.228 322.751 166.306 321.183 167.118C319.615 167.902 317.753 168.294 315.597 168.294ZM340.489 153.3C340.489 150.416 341.133 147.84 342.421 145.572C343.737 143.276 345.515 141.498 347.755 140.238C350.023 138.95 352.557 138.306 355.357 138.306C358.633 138.306 361.503 139.146 363.967 140.826C366.431 142.506 368.153 144.83 369.133 147.798H362.371C361.699 146.398 360.747 145.348 359.515 144.648C358.311 143.948 356.911 143.598 355.315 143.598C353.607 143.598 352.081 144.004 350.737 144.816C349.421 145.6 348.385 146.72 347.629 148.176C346.901 149.632 346.537 151.34 346.537 153.3C346.537 155.232 346.901 156.94 347.629 158.424C348.385 159.88 349.421 161.014 350.737 161.826C352.081 162.61 353.607 163.002 355.315 163.002C356.911 163.002 358.311 162.652 359.515 161.952C360.747 161.224 361.699 160.16 362.371 158.76H369.133C368.153 161.756 366.431 164.094 363.967 165.774C361.531 167.426 358.661 168.252 355.357 168.252C352.557 168.252 350.023 167.622 347.755 166.362C345.515 165.074 343.737 163.296 342.421 161.028C341.133 158.76 340.489 156.184 340.489 153.3ZM392.551 162.414H380.875L378.943 168H372.769L383.311 138.642H390.157L400.699 168H394.483L392.551 162.414ZM390.955 157.71L386.713 145.446L382.471 157.71H390.955ZM426.437 147.756C426.437 149.324 426.059 150.794 425.303 152.166C424.575 153.538 423.413 154.644 421.817 155.484C420.249 156.324 418.261 156.744 415.853 156.744H410.939V168H405.059V138.684H415.853C418.121 138.684 420.053 139.076 421.649 139.86C423.245 140.644 424.435 141.722 425.219 143.094C426.031 144.466 426.437 146.02 426.437 147.756ZM415.601 151.998C417.225 151.998 418.429 151.634 419.213 150.906C419.997 150.15 420.389 149.1 420.389 147.756C420.389 144.9 418.793 143.472 415.601 143.472H410.939V151.998H415.601ZM450.982 138.684V143.43H443.17V168H437.29V143.43H429.478V138.684H450.982ZM461.572 138.684V168H455.692V138.684H461.572ZM494.136 138.684L483.384 168H476.244L465.492 138.684H471.792L479.856 161.994L487.878 138.684H494.136ZM516.057 162.414H504.381L502.449 168H496.275L506.817 138.642H513.663L524.205 168H517.989L516.057 162.414ZM514.461 157.71L510.219 145.446L505.977 157.71H514.461ZM553.64 168H547.76L534.446 147.882V168H528.566V138.642H534.446L547.76 158.802V138.642H553.64V168ZM579.82 138.684V143.43H572.008V168H566.128V143.43H558.316V138.684H579.82ZM594.653 168.294C592.609 168.294 590.761 167.944 589.109 167.244C587.485 166.544 586.197 165.536 585.245 164.22C584.293 162.904 583.803 161.35 583.775 159.558H590.075C590.159 160.762 590.579 161.714 591.335 162.414C592.119 163.114 593.183 163.464 594.527 163.464C595.899 163.464 596.977 163.142 597.761 162.498C598.545 161.826 598.937 160.958 598.937 159.894C598.937 159.026 598.671 158.312 598.139 157.752C597.607 157.192 596.935 156.758 596.123 156.45C595.339 156.114 594.247 155.75 592.847 155.358C590.943 154.798 589.389 154.252 588.185 153.72C587.009 153.16 585.987 152.334 585.119 151.242C584.279 150.122 583.859 148.638 583.859 146.79C583.859 145.054 584.293 143.542 585.161 142.254C586.029 140.966 587.247 139.986 588.815 139.314C590.383 138.614 592.175 138.264 594.191 138.264C597.215 138.264 599.665 139.006 601.541 140.49C603.445 141.946 604.495 143.99 604.691 146.622H598.223C598.167 145.614 597.733 144.788 596.921 144.144C596.137 143.472 595.087 143.136 593.771 143.136C592.623 143.136 591.699 143.43 590.999 144.018C590.327 144.606 589.991 145.46 589.991 146.58C589.991 147.364 590.243 148.022 590.747 148.554C591.279 149.058 591.923 149.478 592.679 149.814C593.463 150.122 594.555 150.486 595.955 150.906C597.859 151.466 599.413 152.026 600.617 152.586C601.821 153.146 602.857 153.986 603.725 155.106C604.593 156.226 605.027 157.696 605.027 159.516C605.027 161.084 604.621 162.54 603.809 163.884C602.997 165.228 601.807 166.306 600.239 167.118C598.671 167.902 596.809 168.294 594.653 168.294Z" fill="#224181"/>
</svg>
