<svg width="912" height="323" viewBox="0 0 912 323" fill="none" xmlns="http://www.w3.org/2000/svg">
<g clip-path="url(#clip0_22_4509)">
<path d="M372.229 91.3553C369.317 82.8646 364.491 74.9046 357.719 68.1346L289.608 0.0482178L244.517 45.1228L269.098 69.6944L290.525 48.2747L333.734 91.4679C333.846 91.5644 333.959 91.6769 334.055 91.7734C334.152 91.8699 334.265 91.9825 334.361 92.095C342.404 100.409 343.933 112.679 338.978 122.584C337.771 125.013 336.179 127.296 334.184 129.354C334.088 129.467 333.975 129.579 333.862 129.692C333.75 129.805 333.653 129.901 333.525 130.014C322.988 140.209 306.242 140.177 295.93 129.869L187.796 21.7895C179.704 13.7009 169.586 7.71878 158.357 4.61518C150.925 2.54075 142.994 1.73671 134.838 2.44426C130.817 2.78196 126.908 3.47344 123.127 4.48653C116.435 6.28759 110.194 9.06958 104.531 12.6878C116.242 15.2929 127.358 19.6025 137.589 25.3756C147.322 30.8431 156.25 37.6131 164.132 45.4927L272.267 153.588C279.039 160.358 287.002 165.199 295.496 168.093C297.04 168.624 298.601 169.09 300.193 169.492C311.405 172.355 323.277 171.936 334.297 168.27C335.149 167.997 336.002 167.675 336.855 167.353C344.512 164.411 351.67 159.876 357.832 153.717C364.684 146.866 369.543 138.778 372.39 130.174C376.572 117.615 376.524 103.931 372.213 91.3875L372.229 91.3553Z" fill="white"/>
<path d="M277.671 185.895C268.357 180.524 259.799 173.963 252.206 166.389L146.067 60.271C138.265 52.9864 128.757 47.5832 118.269 44.6887C110.837 42.6142 102.922 41.8102 94.7824 42.5017C92.852 42.6625 90.9699 42.9359 89.1038 43.2575C88.8464 43.3057 88.6051 43.3379 88.3638 43.3861C85.8865 43.8364 83.4735 44.4153 81.1249 45.1229C80.7227 45.2354 80.3366 45.3641 79.9344 45.4927C79.2749 45.7018 78.6153 45.9269 77.9558 46.152C77.8593 46.1842 77.7627 46.2164 77.6501 46.2485C73.0011 47.937 68.6094 50.0758 64.5234 52.6809C68.0947 53.4527 71.6016 54.3854 75.0441 55.4628C97.3885 62.458 117.127 75.7569 131.991 93.4458L227.755 189.175C235.846 197.264 245.965 203.246 257.193 206.366C264.625 208.424 272.556 209.228 280.696 208.536C284.717 208.199 288.626 207.507 292.407 206.494C294.16 206.012 295.898 205.481 297.587 204.886C302.059 203.294 306.29 201.236 310.231 198.775C306.804 197.971 303.426 197.006 300.112 195.897C292.278 193.308 284.782 189.931 277.72 185.862L277.671 185.895Z" fill="white"/>
<path d="M212.247 207.025L102.922 97.7394C96.15 90.9693 88.1871 86.129 79.7094 83.2184C78.1169 82.6716 76.5082 82.1892 74.8834 81.7711C63.671 78.9248 51.8313 79.3429 40.8441 82.9932C40.0559 83.2666 39.2676 83.54 38.4955 83.8294C30.8543 86.7401 23.6797 91.2749 17.5346 97.4178C10.7621 104.188 5.9361 112.196 3.10485 120.719C-1.09377 133.278 -1.02942 146.979 3.29789 159.586C6.20957 168.061 11.0677 176.021 17.8402 182.775L86.9002 251.81L131.959 206.768L107.378 182.196L85.9993 203.567L41.5197 159.104C33.2351 150.822 31.5299 138.44 36.4364 128.486C37.6268 126.042 39.2194 123.742 41.2141 121.684C41.3106 121.571 41.4232 121.459 41.5197 121.362C41.6163 121.266 41.7289 121.153 41.8415 121.057C52.2817 110.942 68.9475 111.054 79.259 121.362L190.16 232.224C197.721 238.961 206.81 243.979 216.768 246.745C224.2 248.819 232.13 249.607 240.27 248.915C244.34 248.562 248.297 247.87 252.11 246.841C258.384 245.136 264.255 242.564 269.628 239.267C258.159 236.485 247.284 232.063 237.278 226.241C228.141 220.935 219.711 214.438 212.247 206.993V207.025Z" fill="white"/>
<path d="M446.018 0.0482178H505.443L550.903 254.785H507.035L499.056 204.195V204.918H449.204L441.225 254.769H400.542L446.018 0.0482178ZM493.876 170.361L474.331 44.4474H473.543L454.4 170.361H493.876Z" fill="white"/>
<path d="M572.041 0.0482178H634.65L662.561 182.357H663.365L691.275 0.0482178H753.884V254.785H712.413V61.9113H711.625L679.725 254.785H643.031L611.132 61.9113H610.327V254.785H572.041V0.0482178Z" fill="white"/>
<path d="M779.012 192.504V178.353H820.483V195.334C820.483 213.023 829.25 219.391 843.213 219.391C857.177 219.391 865.944 213.023 865.944 194.627C865.944 174.107 857.177 161.001 828.462 138.713C791.768 110.041 779.8 89.8759 779.8 61.5736C779.8 22.6418 802.53 0 845.208 0C887.886 0 909.008 22.6418 909.008 62.2811V72.5407H867.536V59.8047C867.536 42.1157 859.558 35.394 845.594 35.394C831.631 35.394 823.668 42.1158 823.668 59.0971C823.668 77.1399 832.838 90.2458 861.552 112.534C898.246 141.19 909.812 161.018 909.812 191.796C909.812 232.143 886.68 254.785 843.616 254.785C800.552 254.785 779.012 232.143 779.012 192.504Z" fill="white"/>
<path d="M407.233 285.403H415.132L421.18 322.469H415.341L414.295 315.104V315.217H407.668L406.622 322.469H401.233L407.265 285.403H407.233ZM413.587 310.184L410.981 291.867H410.869L408.327 310.184H413.571H413.587Z" fill="white"/>
<path d="M500.954 313.673V294.183C500.954 288.249 503.914 284.856 509.625 284.856C515.336 284.856 518.312 288.249 518.312 294.183V297.367H512.81V293.813C512.81 291.176 511.636 290.163 509.786 290.163C507.936 290.163 506.761 291.176 506.761 293.813V314.091C506.761 316.745 507.936 317.693 509.786 317.693C511.636 317.693 512.81 316.745 512.81 314.091V306.839H509.898V301.548H518.312V313.673C518.312 319.607 515.352 322.984 509.625 322.984C503.898 322.984 500.954 319.607 500.954 313.673Z" fill="white"/>
<path d="M599.597 285.403H615.491V290.694H605.421V300.487H613.416V305.777H605.421V317.163H615.491V322.453H599.597V285.387V285.403Z" fill="white"/>
<path d="M696.326 285.403H703.629L709.292 307.595H709.405V285.403H714.601V322.469H708.616L701.619 295.405H701.506V322.469H696.31V285.403H696.326Z" fill="white"/>
<path d="M796.096 313.882V293.974C796.096 288.249 799.056 284.856 804.67 284.856C810.284 284.856 813.26 288.249 813.26 293.974V297.882H807.759V293.604C807.759 291.176 806.584 290.163 804.847 290.163C803.109 290.163 801.935 291.176 801.935 293.604V314.3C801.935 316.728 803.109 317.693 804.847 317.693C806.584 317.693 807.759 316.745 807.759 314.3V308.64H813.26V313.882C813.26 319.607 810.3 322.984 804.67 322.984C799.04 322.984 796.096 319.607 796.096 313.882Z" fill="white"/>
<path d="M899.13 306.694L892.084 285.403H898.294L902.267 299.007H902.38L906.353 285.403H912.016L904.986 306.694V322.469H899.147V306.694H899.13Z" fill="white"/>
</g>
<defs>
<clipPath id="clip0_22_4509">
<rect width="912" height="323" fill="white"/>
</clipPath>
</defs>
</svg>
