<svg width="276" height="50" viewBox="0 0 276 50" fill="none" xmlns="http://www.w3.org/2000/svg">
<path d="M21.9763 31.42H10.1863L8.29632 37H0.241317L11.6713 5.41H20.5813L32.0113 37H23.8663L21.9763 31.42ZM19.9963 25.48L16.0813 13.915L12.2113 25.48H19.9963ZM45.03 11.53C46.8 11.53 48.345 11.89 49.665 12.61C51.015 13.33 52.05 14.275 52.77 15.445V11.89H60.465V36.955C60.465 39.265 60 41.35 59.07 43.21C58.17 45.1 56.775 46.6 54.885 47.71C53.025 48.82 50.7 49.375 47.91 49.375C44.19 49.375 41.175 48.49 38.865 46.72C36.555 44.98 35.235 42.61 34.905 39.61H42.51C42.75 40.57 43.32 41.32 44.22 41.86C45.12 42.43 46.23 42.715 47.55 42.715C49.14 42.715 50.4 42.25 51.33 41.32C52.29 40.42 52.77 38.965 52.77 36.955V33.4C52.02 34.57 50.985 35.53 49.665 36.28C48.345 37 46.8 37.36 45.03 37.36C42.96 37.36 41.085 36.835 39.405 35.785C37.725 34.705 36.39 33.19 35.4 31.24C34.44 29.26 33.96 26.98 33.96 24.4C33.96 21.82 34.44 19.555 35.4 17.605C36.39 15.655 37.725 14.155 39.405 13.105C41.085 12.055 42.96 11.53 45.03 11.53ZM52.77 24.445C52.77 22.525 52.23 21.01 51.15 19.9C50.1 18.79 48.81 18.235 47.28 18.235C45.75 18.235 44.445 18.79 43.365 19.9C42.315 20.98 41.79 22.48 41.79 24.4C41.79 26.32 42.315 27.85 43.365 28.99C44.445 30.1 45.75 30.655 47.28 30.655C48.81 30.655 50.1 30.1 51.15 28.99C52.23 27.88 52.77 26.365 52.77 24.445ZM89.702 24.04C89.702 24.76 89.657 25.51 89.567 26.29H72.152C72.272 27.85 72.767 29.05 73.637 29.89C74.537 30.7 75.632 31.105 76.922 31.105C78.842 31.105 80.177 30.295 80.927 28.675H89.117C88.697 30.325 87.932 31.81 86.822 33.13C85.742 34.45 84.377 35.485 82.727 36.235C81.077 36.985 79.232 37.36 77.192 37.36C74.732 37.36 72.542 36.835 70.622 35.785C68.702 34.735 67.202 33.235 66.122 31.285C65.042 29.335 64.502 27.055 64.502 24.445C64.502 21.835 65.027 19.555 66.077 17.605C67.157 15.655 68.657 14.155 70.577 13.105C72.497 12.055 74.702 11.53 77.192 11.53C79.622 11.53 81.782 12.04 83.672 13.06C85.562 14.08 87.032 15.535 88.082 17.425C89.162 19.315 89.702 21.52 89.702 24.04ZM81.827 22.015C81.827 20.695 81.377 19.645 80.477 18.865C79.577 18.085 78.452 17.695 77.102 17.695C75.812 17.695 74.717 18.07 73.817 18.82C72.947 19.57 72.407 20.635 72.197 22.015H81.827ZM109.062 11.62C112.002 11.62 114.342 12.58 116.082 14.5C117.852 16.39 118.737 19 118.737 22.33V37H111.087V23.365C111.087 21.685 110.652 20.38 109.782 19.45C108.912 18.52 107.742 18.055 106.272 18.055C104.802 18.055 103.632 18.52 102.762 19.45C101.892 20.38 101.457 21.685 101.457 23.365V37H93.7615V11.89H101.457V15.22C102.237 14.11 103.287 13.24 104.607 12.61C105.927 11.95 107.412 11.62 109.062 11.62ZM122.554 24.445C122.554 21.835 123.079 19.555 124.129 17.605C125.209 15.655 126.694 14.155 128.584 13.105C130.504 12.055 132.694 11.53 135.154 11.53C138.304 11.53 140.929 12.355 143.029 14.005C145.159 15.655 146.554 17.98 147.214 20.98H139.024C138.334 19.06 136.999 18.1 135.019 18.1C133.609 18.1 132.484 18.655 131.644 19.765C130.804 20.845 130.384 22.405 130.384 24.445C130.384 26.485 130.804 28.06 131.644 29.17C132.484 30.25 133.609 30.79 135.019 30.79C136.999 30.79 138.334 29.83 139.024 27.91H147.214C146.554 30.85 145.159 33.16 143.029 34.84C140.899 36.52 138.274 37.36 135.154 37.36C132.694 37.36 130.504 36.835 128.584 35.785C126.694 34.735 125.209 33.235 124.129 31.285C123.079 29.335 122.554 27.055 122.554 24.445ZM176.98 11.89L161.23 48.925H152.95L158.71 36.145L148.495 11.89H157.09L162.895 27.595L168.655 11.89H176.98ZM192.362 18.28H188.222V37H180.527V18.28H177.737V11.89H180.527V11.17C180.527 8.08 181.412 5.74 183.182 4.15C184.952 2.53 187.547 1.72 190.967 1.72C191.537 1.72 191.957 1.735 192.227 1.765V8.29C190.757 8.2 189.722 8.41 189.122 8.92C188.522 9.43 188.222 10.345 188.222 11.665V11.89H192.362V18.28ZM207.408 37.36C204.948 37.36 202.728 36.835 200.748 35.785C198.798 34.735 197.253 33.235 196.113 31.285C195.003 29.335 194.448 27.055 194.448 24.445C194.448 21.865 195.018 19.6 196.158 17.65C197.298 15.67 198.858 14.155 200.838 13.105C202.818 12.055 205.038 11.53 207.498 11.53C209.958 11.53 212.178 12.055 214.158 13.105C216.138 14.155 217.698 15.67 218.838 17.65C219.978 19.6 220.548 21.865 220.548 24.445C220.548 27.025 219.963 29.305 218.793 31.285C217.653 33.235 216.078 34.735 214.068 35.785C212.088 36.835 209.868 37.36 207.408 37.36ZM207.408 30.7C208.878 30.7 210.123 30.16 211.143 29.08C212.193 28 212.718 26.455 212.718 24.445C212.718 22.435 212.208 20.89 211.188 19.81C210.198 18.73 208.968 18.19 207.498 18.19C205.998 18.19 204.753 18.73 203.763 19.81C202.773 20.86 202.278 22.405 202.278 24.445C202.278 26.455 202.758 28 203.718 29.08C204.708 30.16 205.938 30.7 207.408 30.7ZM232.326 3.7V37H224.631V3.7H232.326ZM241.772 9.28C240.422 9.28 239.312 8.89 238.442 8.11C237.602 7.3 237.182 6.31 237.182 5.14C237.182 3.94 237.602 2.95 238.442 2.17C239.312 1.36 240.422 0.954997 241.772 0.954997C243.092 0.954997 244.172 1.36 245.012 2.17C245.882 2.95 246.317 3.94 246.317 5.14C246.317 6.31 245.882 7.3 245.012 8.11C244.172 8.89 243.092 9.28 241.772 9.28ZM245.597 11.89V37H237.902V11.89H245.597ZM262.604 37.36C260.144 37.36 257.924 36.835 255.944 35.785C253.994 34.735 252.449 33.235 251.309 31.285C250.199 29.335 249.644 27.055 249.644 24.445C249.644 21.865 250.214 19.6 251.354 17.65C252.494 15.67 254.054 14.155 256.034 13.105C258.014 12.055 260.234 11.53 262.694 11.53C265.154 11.53 267.374 12.055 269.354 13.105C271.334 14.155 272.894 15.67 274.034 17.65C275.174 19.6 275.744 21.865 275.744 24.445C275.744 27.025 275.159 29.305 273.989 31.285C272.849 33.235 271.274 34.735 269.264 35.785C267.284 36.835 265.064 37.36 262.604 37.36ZM262.604 30.7C264.074 30.7 265.319 30.16 266.339 29.08C267.389 28 267.914 26.455 267.914 24.445C267.914 22.435 267.404 20.89 266.384 19.81C265.394 18.73 264.164 18.19 262.694 18.19C261.194 18.19 259.949 18.73 258.959 19.81C257.969 20.86 257.474 22.405 257.474 24.445C257.474 26.455 257.954 28 258.914 29.08C259.904 30.16 261.134 30.7 262.604 30.7Z" fill="#1D61AB"/>
</svg>
