<svg width="702" height="211" viewBox="0 0 702 211" fill="none" xmlns="http://www.w3.org/2000/svg">
<mask id="path-1-outside-1_655_4" maskUnits="userSpaceOnUse" x="-0.569336" y="41" width="656" height="111" fill="black">
<rect fill="white" x="-0.569336" y="41" width="656" height="111"/>
<path d="M77.0307 133.95H41.6307L36.3807 150H1.43066L40.2807 43.8H78.6807L117.381 150H82.2807L77.0307 133.95ZM68.9307 108.9L59.3307 79.35L49.7307 108.9H68.9307ZM190.046 80.1C188.746 78 186.896 76.4 184.496 75.3C182.096 74.1 179.196 73.5 175.796 73.5C169.396 73.5 164.446 75.6 160.946 79.8C157.446 83.9 155.696 89.55 155.696 96.75C155.696 105.05 157.646 111.25 161.546 115.35C165.446 119.45 171.446 121.5 179.546 121.5C187.246 121.5 193.446 118.4 198.146 112.2H171.596V88.65H225.746V121.95C221.146 129.85 214.796 136.65 206.696 142.35C198.596 147.95 188.346 150.75 175.946 150.75C164.946 150.75 155.346 148.5 147.146 144C139.046 139.4 132.796 133 128.396 124.8C124.096 116.6 121.946 107.25 121.946 96.75C121.946 86.25 124.096 76.9 128.396 68.7C132.796 60.5 139.046 54.15 147.146 49.65C155.246 45.05 164.746 42.75 175.646 42.75C189.546 42.75 200.846 46.1 209.546 52.8C218.346 59.5 223.546 68.6 225.146 80.1H190.046ZM271.039 70.35V83.4H304.039V108.45H271.039V123.45H308.539V150H237.739V43.8H308.539V70.35H271.039ZM422.939 150H389.639L354.389 96.6V150H321.089V43.8H354.389L389.639 98.1V43.8H422.939V150ZM434.983 96.75C434.983 86.25 437.083 76.9 441.283 68.7C445.583 60.5 451.683 54.15 459.583 49.65C467.483 45.05 476.783 42.75 487.483 42.75C496.683 42.75 504.883 44.5 512.083 48C519.383 51.4 525.283 56.25 529.783 62.55C534.383 68.85 537.433 76.2 538.933 84.6H503.833C502.233 81.1 499.933 78.4 496.933 76.5C494.033 74.5 490.683 73.5 486.883 73.5C481.283 73.5 476.833 75.6 473.533 79.8C470.333 84 468.733 89.65 468.733 96.75C468.733 103.85 470.333 109.5 473.533 113.7C476.833 117.9 481.283 120 486.883 120C490.683 120 494.033 119.05 496.933 117.15C499.933 115.15 502.233 112.4 503.833 108.9H538.933C537.433 117.3 534.383 124.65 529.783 130.95C525.283 137.25 519.383 142.15 512.083 145.65C504.883 149.05 496.683 150.75 487.483 150.75C476.783 150.75 467.483 148.5 459.583 144C451.683 139.4 445.583 133 441.283 124.8C437.083 116.6 434.983 107.25 434.983 96.75ZM652.923 43.8L614.823 117.75V150H581.523V117.75L543.423 43.8H581.523L598.473 81.45L615.423 43.8H652.923Z"/>
</mask>
<path d="M77.0307 133.95L77.9811 133.639L77.7557 132.95H77.0307V133.95ZM41.6307 133.95V132.95H40.9056L40.6802 133.639L41.6307 133.95ZM36.3807 150V151H37.1057L37.3311 150.311L36.3807 150ZM1.43066 150L0.491531 149.656L3.32594e-05 151H1.43066V150ZM40.2807 43.8V42.8H39.5817L39.3415 43.4564L40.2807 43.8ZM78.6807 43.8L79.6202 43.4576L79.3806 42.8H78.6807V43.8ZM117.381 150V151H118.809L118.32 149.658L117.381 150ZM82.2807 150L81.3302 150.311L81.5556 151H82.2807V150ZM68.9307 108.9V109.9H70.307L69.8817 108.591L68.9307 108.9ZM59.3307 79.35L60.2817 79.041L59.3307 76.1135L58.3796 79.041L59.3307 79.35ZM49.7307 108.9L48.7796 108.591L48.3543 109.9H49.7307V108.9ZM77.0307 133.95V132.95H41.6307V133.95V134.95H77.0307V133.95ZM41.6307 133.95L40.6802 133.639L35.4302 149.689L36.3807 150L37.3311 150.311L42.5811 134.261L41.6307 133.95ZM36.3807 150V149H1.43066V150V151H36.3807V150ZM1.43066 150L2.3698 150.344L41.2198 44.1436L40.2807 43.8L39.3415 43.4564L0.491531 149.656L1.43066 150ZM40.2807 43.8V44.8H78.6807V43.8V42.8H40.2807V43.8ZM78.6807 43.8L77.7411 44.1424L116.441 150.342L117.381 150L118.32 149.658L79.6202 43.4576L78.6807 43.8ZM117.381 150V149H82.2807V150V151H117.381V150ZM82.2807 150L83.2311 149.689L77.9811 133.639L77.0307 133.95L76.0802 134.261L81.3302 150.311L82.2807 150ZM68.9307 108.9L69.8817 108.591L60.2817 79.041L59.3307 79.35L58.3796 79.659L67.9796 109.209L68.9307 108.9ZM59.3307 79.35L58.3796 79.041L48.7796 108.591L49.7307 108.9L50.6817 109.209L60.2817 79.659L59.3307 79.35ZM49.7307 108.9V109.9H68.9307V108.9V107.9H49.7307V108.9ZM190.046 80.1L189.196 80.6264L189.489 81.1H190.046V80.1ZM184.496 75.3L184.049 76.1944L184.064 76.202L184.08 76.2091L184.496 75.3ZM160.946 79.8L161.707 80.4493L161.715 80.4402L160.946 79.8ZM161.546 115.35L160.822 116.039V116.039L161.546 115.35ZM198.146 112.2L198.943 112.804L200.159 111.2H198.146V112.2ZM171.596 112.2H170.596V113.2H171.596V112.2ZM171.596 88.65V87.65H170.596V88.65H171.596ZM225.746 88.65H226.746V87.65H225.746V88.65ZM225.746 121.95L226.61 122.453L226.746 122.22V121.95H225.746ZM206.696 142.35L207.265 143.173L207.272 143.168L206.696 142.35ZM147.146 144L146.652 144.87L146.659 144.873L146.665 144.877L147.146 144ZM128.396 124.8L127.511 125.264L127.515 125.273L128.396 124.8ZM128.396 68.7L127.515 68.2271L127.511 68.2356L128.396 68.7ZM147.146 49.65L147.632 50.5242L147.64 50.5196L147.146 49.65ZM209.546 52.8L208.936 53.5923L208.941 53.5956L209.546 52.8ZM225.146 80.1V81.1H226.295L226.137 79.9622L225.146 80.1ZM190.046 80.1L190.897 79.5736C189.486 77.2944 187.479 75.5671 184.913 74.3909L184.496 75.3L184.08 76.2091C186.314 77.2329 188.007 78.7056 189.196 80.6264L190.046 80.1ZM184.496 75.3L184.944 74.4056C182.373 73.1201 179.311 72.5 175.796 72.5V73.5V74.5C179.081 74.5 181.82 75.0799 184.049 76.1944L184.496 75.3ZM175.796 73.5V72.5C169.156 72.5 163.901 74.6918 160.178 79.1598L160.946 79.8L161.715 80.4402C164.991 76.5081 169.637 74.5 175.796 74.5V73.5ZM160.946 79.8L160.186 79.1507C156.486 83.4849 154.696 89.3926 154.696 96.75H155.696H156.696C156.696 89.7074 158.407 84.3151 161.707 80.4493L160.946 79.8ZM155.696 96.75H154.696C154.696 105.188 156.677 111.682 160.822 116.039L161.546 115.35L162.271 114.661C158.615 110.818 156.696 104.912 156.696 96.75H155.696ZM161.546 115.35L160.822 116.039C164.98 120.41 171.292 122.5 179.546 122.5V121.5V120.5C171.6 120.5 165.913 118.49 162.271 114.661L161.546 115.35ZM179.546 121.5V122.5C187.563 122.5 194.056 119.25 198.943 112.804L198.146 112.2L197.349 111.596C192.836 117.55 186.93 120.5 179.546 120.5V121.5ZM198.146 112.2V111.2H171.596V112.2V113.2H198.146V112.2ZM171.596 112.2H172.596V88.65H171.596H170.596V112.2H171.596ZM171.596 88.65V89.65H225.746V88.65V87.65H171.596V88.65ZM225.746 88.65H224.746V121.95H225.746H226.746V88.65H225.746ZM225.746 121.95L224.882 121.447C220.36 129.212 214.113 135.908 206.121 141.532L206.696 142.35L207.272 143.168C215.48 137.392 221.932 130.488 226.61 122.453L225.746 121.95ZM206.696 142.35L206.128 141.527C198.233 146.985 188.196 149.75 175.946 149.75V150.75V151.75C188.497 151.75 198.959 148.915 207.265 143.173L206.696 142.35ZM175.946 150.75V149.75C165.085 149.75 155.656 147.529 147.627 143.123L147.146 144L146.665 144.877C155.037 149.471 164.808 151.75 175.946 151.75V150.75ZM147.146 144L147.64 143.13C139.704 138.623 133.588 132.361 129.277 124.327L128.396 124.8L127.515 125.273C132.004 133.639 138.389 140.177 146.652 144.87L147.146 144ZM128.396 124.8L129.282 124.336C125.067 116.297 122.946 107.11 122.946 96.75H121.946H120.946C120.946 107.39 123.126 116.903 127.511 125.264L128.396 124.8ZM121.946 96.75H122.946C122.946 86.3899 125.067 77.2029 129.282 69.1644L128.396 68.7L127.511 68.2356C123.126 76.5971 120.946 86.1101 120.946 96.75H121.946ZM128.396 68.7L129.277 69.1728C133.587 61.141 139.7 54.9306 147.632 50.5242L147.146 49.65L146.661 48.7758C138.392 53.3694 132.005 59.859 127.515 68.2272L128.396 68.7ZM147.146 49.65L147.64 50.5196C155.566 46.0186 164.89 43.75 175.646 43.75V42.75V41.75C164.603 41.75 154.927 44.0814 146.652 48.7804L147.146 49.65ZM175.646 42.75V43.75C189.385 43.75 200.453 47.0592 208.936 53.5923L209.546 52.8L210.156 52.0077C201.24 45.1407 189.708 41.75 175.646 41.75V42.75ZM209.546 52.8L208.941 53.5956C217.519 60.1271 222.59 68.9848 224.156 80.2378L225.146 80.1L226.137 79.9622C224.502 68.2152 219.173 58.8729 210.152 52.0044L209.546 52.8ZM225.146 80.1V79.1H190.046V80.1V81.1H225.146V80.1ZM271.039 70.35V69.35H270.039V70.35H271.039ZM271.039 83.4H270.039V84.4H271.039V83.4ZM304.039 83.4H305.039V82.4H304.039V83.4ZM304.039 108.45V109.45H305.039V108.45H304.039ZM271.039 108.45V107.45H270.039V108.45H271.039ZM271.039 123.45H270.039V124.45H271.039V123.45ZM308.539 123.45H309.539V122.45H308.539V123.45ZM308.539 150V151H309.539V150H308.539ZM237.739 150H236.739V151H237.739V150ZM237.739 43.8V42.8H236.739V43.8H237.739ZM308.539 43.8H309.539V42.8H308.539V43.8ZM308.539 70.35V71.35H309.539V70.35H308.539ZM271.039 70.35H270.039V83.4H271.039H272.039V70.35H271.039ZM271.039 83.4V84.4H304.039V83.4V82.4H271.039V83.4ZM304.039 83.4H303.039V108.45H304.039H305.039V83.4H304.039ZM304.039 108.45V107.45H271.039V108.45V109.45H304.039V108.45ZM271.039 108.45H270.039V123.45H271.039H272.039V108.45H271.039ZM271.039 123.45V124.45H308.539V123.45V122.45H271.039V123.45ZM308.539 123.45H307.539V150H308.539H309.539V123.45H308.539ZM308.539 150V149H237.739V150V151H308.539V150ZM237.739 150H238.739V43.8H237.739H236.739V150H237.739ZM237.739 43.8V44.8H308.539V43.8V42.8H237.739V43.8ZM308.539 43.8H307.539V70.35H308.539H309.539V43.8H308.539ZM308.539 70.35V69.35H271.039V70.35V71.35H308.539V70.35ZM422.939 150V151H423.939V150H422.939ZM389.639 150L388.804 150.551L389.101 151H389.639V150ZM354.389 96.6L355.223 96.0491L353.389 93.2699V96.6H354.389ZM354.389 150V151H355.389V150H354.389ZM321.089 150H320.089V151H321.089V150ZM321.089 43.8V42.8H320.089V43.8H321.089ZM354.389 43.8L355.228 43.2555L354.932 42.8H354.389V43.8ZM389.639 98.1L388.8 98.6445L390.639 101.477V98.1H389.639ZM389.639 43.8V42.8H388.639V43.8H389.639ZM422.939 43.8H423.939V42.8H422.939V43.8ZM422.939 150V149H389.639V150V151H422.939V150ZM389.639 150L390.473 149.449L355.223 96.0491L354.389 96.6L353.554 97.1509L388.804 150.551L389.639 150ZM354.389 96.6H353.389V150H354.389H355.389V96.6H354.389ZM354.389 150V149H321.089V150V151H354.389V150ZM321.089 150H322.089V43.8H321.089H320.089V150H321.089ZM321.089 43.8V44.8H354.389V43.8V42.8H321.089V43.8ZM354.389 43.8L353.55 44.3445L388.8 98.6445L389.639 98.1L390.478 97.5555L355.228 43.2555L354.389 43.8ZM389.639 98.1H390.639V43.8H389.639H388.639V98.1H389.639ZM389.639 43.8V44.8H422.939V43.8V42.8H389.639V43.8ZM422.939 43.8H421.939V150H422.939H423.939V43.8H422.939ZM441.283 68.7L440.398 68.2356L440.393 68.2441L441.283 68.7ZM459.583 49.65L460.078 50.519L460.087 50.5142L459.583 49.65ZM512.083 48L511.646 48.8994L511.654 48.903L511.661 48.9065L512.083 48ZM529.783 62.55L528.97 63.1313L528.976 63.1397L529.783 62.55ZM538.933 84.6V85.6H540.128L539.918 84.4242L538.933 84.6ZM503.833 84.6L502.924 85.0158L503.191 85.6H503.833V84.6ZM496.933 76.5L496.366 77.3232L496.382 77.3343L496.398 77.3448L496.933 76.5ZM473.533 79.8L472.747 79.1822L472.742 79.188L472.738 79.194L473.533 79.8ZM473.533 113.7L472.738 114.306L472.742 114.312L472.747 114.318L473.533 113.7ZM496.933 117.15L497.481 117.986L497.488 117.982L496.933 117.15ZM503.833 108.9V107.9H503.191L502.924 108.484L503.833 108.9ZM538.933 108.9L539.918 109.076L540.128 107.9H538.933V108.9ZM529.783 130.95L528.976 130.36L528.97 130.369L529.783 130.95ZM512.083 145.65L512.51 146.554L512.516 146.552L512.083 145.65ZM459.583 144L459.08 144.864L459.088 144.869L459.583 144ZM441.283 124.8L440.393 125.256L440.398 125.264L441.283 124.8ZM434.983 96.75H435.983C435.983 86.3862 438.055 77.1962 442.173 69.1559L441.283 68.7L440.393 68.2441C436.112 76.6038 433.983 86.1138 433.983 96.75H434.983ZM441.283 68.7L442.169 69.1644C446.382 61.1305 452.348 54.9224 460.078 50.5189L459.583 49.65L459.088 48.7811C451.019 53.3776 444.785 59.8695 440.398 68.2356L441.283 68.7ZM459.583 49.65L460.087 50.5142C467.81 46.0173 476.93 43.75 487.483 43.75V42.75V41.75C476.637 41.75 467.157 44.0827 459.08 48.7858L459.583 49.65ZM487.483 42.75V43.75C496.555 43.75 504.601 45.4748 511.646 48.8994L512.083 48L512.521 47.1006C505.165 43.5252 496.812 41.75 487.483 41.75V42.75ZM512.083 48L511.661 48.9065C518.811 52.2367 524.574 56.9774 528.97 63.1312L529.783 62.55L530.597 61.9688C525.993 55.5226 519.955 50.5633 512.506 47.0935L512.083 48ZM529.783 62.55L528.976 63.1397C533.478 69.3058 536.473 76.5111 537.949 84.7758L538.933 84.6L539.918 84.4242C538.394 75.8889 535.289 68.3942 530.591 61.9603L529.783 62.55ZM538.933 84.6V83.6H503.833V84.6V85.6H538.933V84.6ZM503.833 84.6L504.743 84.1842C503.069 80.5234 500.646 77.6676 497.468 75.6552L496.933 76.5L496.398 77.3448C499.221 79.1324 501.397 81.6766 502.924 85.0158L503.833 84.6ZM496.933 76.5L497.501 75.6768C494.421 73.5525 490.869 72.5 486.883 72.5V73.5V74.5C490.497 74.5 493.646 75.4475 496.366 77.3232L496.933 76.5ZM486.883 73.5V72.5C480.994 72.5 476.247 74.7276 472.747 79.1822L473.533 79.8L474.32 80.4178C477.42 76.4723 481.573 74.5 486.883 74.5V73.5ZM473.533 79.8L472.738 79.194C469.366 83.6195 467.733 89.5059 467.733 96.75H468.733H469.733C469.733 89.7941 471.301 84.3805 474.329 80.406L473.533 79.8ZM468.733 96.75H467.733C467.733 103.994 469.366 109.88 472.738 114.306L473.533 113.7L474.329 113.094C471.301 109.12 469.733 103.706 469.733 96.75H468.733ZM473.533 113.7L472.747 114.318C476.247 118.772 480.994 121 486.883 121V120V119C481.573 119 477.42 117.028 474.32 113.082L473.533 113.7ZM486.883 120V121C490.859 121 494.403 120.003 497.481 117.986L496.933 117.15L496.385 116.314C493.664 118.097 490.508 119 486.883 119V120ZM496.933 117.15L497.488 117.982C500.653 115.872 503.071 112.973 504.743 109.316L503.833 108.9L502.924 108.484C501.396 111.827 499.214 114.428 496.379 116.318L496.933 117.15ZM503.833 108.9V109.9H538.933V108.9V107.9H503.833V108.9ZM538.933 108.9L537.949 108.724C536.473 116.989 533.478 124.194 528.976 130.36L529.783 130.95L530.591 131.54C535.289 125.106 538.394 117.611 539.918 109.076L538.933 108.9ZM529.783 130.95L528.97 130.369C524.572 136.525 518.806 141.318 511.651 144.748L512.083 145.65L512.516 146.552C519.961 142.982 525.995 137.975 530.597 131.531L529.783 130.95ZM512.083 145.65L511.656 144.746C504.609 148.074 496.559 149.75 487.483 149.75V150.75V151.75C496.808 151.75 505.158 150.026 512.51 146.554L512.083 145.65ZM487.483 150.75V149.75C476.926 149.75 467.803 147.531 460.078 143.131L459.583 144L459.088 144.869C467.164 149.469 476.641 151.75 487.483 151.75V150.75ZM459.583 144L460.087 143.136C452.351 138.632 446.383 132.371 442.169 124.336L441.283 124.8L440.398 125.264C444.784 133.629 451.015 140.168 459.08 144.864L459.583 144ZM441.283 124.8L442.173 124.344C438.055 116.304 435.983 107.114 435.983 96.75H434.983H433.983C433.983 107.386 436.112 116.896 440.393 125.256L441.283 124.8ZM652.923 43.8L653.812 44.258L654.563 42.8H652.923V43.8ZM614.823 117.75L613.934 117.292L613.823 117.508V117.75H614.823ZM614.823 150V151H615.823V150H614.823ZM581.523 150H580.523V151H581.523V150ZM581.523 117.75H582.523V117.508L582.412 117.292L581.523 117.75ZM543.423 43.8V42.8H541.783L542.534 44.258L543.423 43.8ZM581.523 43.8L582.435 43.3895L582.169 42.8H581.523V43.8ZM598.473 81.45L597.561 81.8605L598.473 83.886L599.385 81.8605L598.473 81.45ZM615.423 43.8V42.8H614.776L614.511 43.3895L615.423 43.8ZM652.923 43.8L652.034 43.342L613.934 117.292L614.823 117.75L615.712 118.208L653.812 44.258L652.923 43.8ZM614.823 117.75H613.823V150H614.823H615.823V117.75H614.823ZM614.823 150V149H581.523V150V151H614.823V150ZM581.523 150H582.523V117.75H581.523H580.523V150H581.523ZM581.523 117.75L582.412 117.292L544.312 43.342L543.423 43.8L542.534 44.258L580.634 118.208L581.523 117.75ZM543.423 43.8V44.8H581.523V43.8V42.8H543.423V43.8ZM581.523 43.8L580.611 44.2105L597.561 81.8605L598.473 81.45L599.385 81.0395L582.435 43.3895L581.523 43.8ZM598.473 81.45L599.385 81.8605L616.335 44.2105L615.423 43.8L614.511 43.3895L597.561 81.0395L598.473 81.45ZM615.423 43.8V44.8H652.923V43.8V42.8H615.423V43.8Z" fill="#E0324C" mask="url(#path-1-outside-1_655_4)"/>
<path d="M192.491 120.684L181.739 150H174.599L163.847 120.684H170.147L178.211 143.994L186.233 120.684H192.491ZM202.317 120.684V150H196.437V120.684H202.317ZM218.668 150.294C216.624 150.294 214.776 149.944 213.124 149.244C211.5 148.544 210.212 147.536 209.26 146.22C208.308 144.904 207.818 143.35 207.79 141.558H214.09C214.174 142.762 214.594 143.714 215.35 144.414C216.134 145.114 217.198 145.464 218.542 145.464C219.914 145.464 220.992 145.142 221.776 144.498C222.56 143.826 222.952 142.958 222.952 141.894C222.952 141.026 222.686 140.312 222.154 139.752C221.622 139.192 220.95 138.758 220.138 138.45C219.354 138.114 218.262 137.75 216.862 137.358C214.958 136.798 213.404 136.252 212.2 135.72C211.024 135.16 210.002 134.334 209.134 133.242C208.294 132.122 207.874 130.638 207.874 128.79C207.874 127.054 208.308 125.542 209.176 124.254C210.044 122.966 211.262 121.986 212.83 121.314C214.398 120.614 216.19 120.264 218.206 120.264C221.23 120.264 223.68 121.006 225.556 122.49C227.46 123.946 228.51 125.99 228.706 128.622H222.238C222.182 127.614 221.748 126.788 220.936 126.144C220.152 125.472 219.102 125.136 217.786 125.136C216.638 125.136 215.714 125.43 215.014 126.018C214.342 126.606 214.006 127.46 214.006 128.58C214.006 129.364 214.258 130.022 214.762 130.554C215.294 131.058 215.938 131.478 216.694 131.814C217.478 132.122 218.57 132.486 219.97 132.906C221.874 133.466 223.428 134.026 224.632 134.586C225.836 135.146 226.872 135.986 227.74 137.106C228.608 138.226 229.042 139.696 229.042 141.516C229.042 143.084 228.636 144.54 227.824 145.884C227.012 147.228 225.822 148.306 224.254 149.118C222.686 149.902 220.824 150.294 218.668 150.294ZM240.356 120.684V138.828C240.356 140.816 240.874 142.342 241.91 143.406C242.946 144.442 244.402 144.96 246.278 144.96C248.182 144.96 249.652 144.442 250.688 143.406C251.724 142.342 252.242 140.816 252.242 138.828V120.684H258.164V138.786C258.164 141.278 257.618 143.392 256.526 145.128C255.462 146.836 254.02 148.124 252.2 148.992C250.408 149.86 248.406 150.294 246.194 150.294C244.01 150.294 242.022 149.86 240.23 148.992C238.466 148.124 237.066 146.836 236.03 145.128C234.994 143.392 234.476 141.278 234.476 138.786V120.684H240.356ZM282.241 144.414H270.565L268.633 150H262.459L273.001 120.642H279.847L290.389 150H284.173L282.241 144.414ZM280.645 139.71L276.403 127.446L272.161 139.71H280.645ZM300.629 145.338H310.289V150H294.749V120.684H300.629V145.338ZM330.755 120.684V150H324.875V120.684H330.755ZM368.946 120.684V150H363.066V130.932L355.212 150H350.76L342.864 130.932V150H336.984V120.684H343.662L352.986 142.482L362.31 120.684H368.946ZM396.557 129.756C396.557 131.324 396.179 132.794 395.423 134.166C394.695 135.538 393.533 136.644 391.937 137.484C390.369 138.324 388.381 138.744 385.973 138.744H381.059V150H375.179V120.684H385.973C388.241 120.684 390.173 121.076 391.769 121.86C393.365 122.644 394.555 123.722 395.339 125.094C396.151 126.466 396.557 128.02 396.557 129.756ZM385.721 133.998C387.345 133.998 388.549 133.634 389.333 132.906C390.117 132.15 390.509 131.1 390.509 129.756C390.509 126.9 388.913 125.472 385.721 125.472H381.059V133.998H385.721ZM419.128 144.414H407.452L405.52 150H399.346L409.888 120.642H416.734L427.276 150H421.06L419.128 144.414ZM417.532 139.71L413.29 127.446L409.048 139.71H417.532ZM430.209 135.3C430.209 132.416 430.853 129.84 432.141 127.572C433.457 125.276 435.235 123.498 437.475 122.238C439.743 120.95 442.277 120.306 445.077 120.306C448.353 120.306 451.223 121.146 453.687 122.826C456.151 124.506 457.873 126.83 458.853 129.798H452.091C451.419 128.398 450.467 127.348 449.235 126.648C448.031 125.948 446.631 125.598 445.035 125.598C443.327 125.598 441.801 126.004 440.457 126.816C439.141 127.6 438.105 128.72 437.349 130.176C436.621 131.632 436.257 133.34 436.257 135.3C436.257 137.232 436.621 138.94 437.349 140.424C438.105 141.88 439.141 143.014 440.457 143.826C441.801 144.61 443.327 145.002 445.035 145.002C446.631 145.002 448.031 144.652 449.235 143.952C450.467 143.224 451.419 142.16 452.091 140.76H458.853C457.873 143.756 456.151 146.094 453.687 147.774C451.251 149.426 448.381 150.252 445.077 150.252C442.277 150.252 439.743 149.622 437.475 148.362C435.235 147.074 433.457 145.296 432.141 143.028C430.853 140.76 430.209 138.184 430.209 135.3ZM484.245 120.684V125.43H476.433V150H470.553V125.43H462.741V120.684H484.245ZM521.937 150L518.745 146.85C516.029 149.286 512.711 150.504 508.791 150.504C506.635 150.504 504.731 150.14 503.079 149.412C501.455 148.656 500.195 147.606 499.299 146.262C498.403 144.89 497.955 143.308 497.955 141.516C497.955 139.584 498.501 137.848 499.593 136.308C500.685 134.768 502.295 133.522 504.423 132.57C503.667 131.646 503.121 130.764 502.785 129.924C502.449 129.056 502.281 128.132 502.281 127.152C502.281 125.808 502.631 124.604 503.331 123.54C504.031 122.448 505.025 121.594 506.313 120.978C507.629 120.362 509.155 120.054 510.891 120.054C512.655 120.054 514.167 120.39 515.427 121.062C516.687 121.734 517.625 122.63 518.241 123.75C518.857 124.87 519.123 126.116 519.039 127.488H513.327C513.355 126.564 513.131 125.864 512.655 125.388C512.179 124.884 511.535 124.632 510.723 124.632C509.939 124.632 509.281 124.87 508.749 125.346C508.245 125.794 507.993 126.382 507.993 127.11C507.993 127.81 508.203 128.51 508.623 129.21C509.043 129.882 509.729 130.722 510.681 131.73L518.073 139.038C518.129 138.982 518.171 138.926 518.199 138.87C518.227 138.814 518.255 138.758 518.283 138.702L520.677 134.712H526.809L523.869 139.878C523.309 140.97 522.707 142.006 522.063 142.986L529.161 150H521.937ZM508.959 145.632C511.255 145.632 513.285 144.82 515.049 143.196L507.825 136.056C505.109 137.26 503.751 138.968 503.751 141.18C503.751 142.44 504.227 143.504 505.179 144.372C506.131 145.212 507.391 145.632 508.959 145.632ZM103.827 171.3C103.827 168.416 104.471 165.84 105.759 163.572C107.075 161.276 108.853 159.498 111.093 158.238C113.361 156.95 115.895 156.306 118.695 156.306C121.971 156.306 124.841 157.146 127.305 158.826C129.769 160.506 131.491 162.83 132.471 165.798H125.709C125.037 164.398 124.085 163.348 122.853 162.648C121.649 161.948 120.249 161.598 118.653 161.598C116.945 161.598 115.419 162.004 114.075 162.816C112.759 163.6 111.723 164.72 110.967 166.176C110.239 167.632 109.875 169.34 109.875 171.3C109.875 173.232 110.239 174.94 110.967 176.424C111.723 177.88 112.759 179.014 114.075 179.826C115.419 180.61 116.945 181.002 118.653 181.002C120.249 181.002 121.649 180.652 122.853 179.952C124.085 179.224 125.037 178.16 125.709 176.76H132.471C131.491 179.756 129.769 182.094 127.305 183.774C124.869 185.426 121.999 186.252 118.695 186.252C115.895 186.252 113.361 185.622 111.093 184.362C108.853 183.074 107.075 181.296 105.759 179.028C104.471 176.76 103.827 174.184 103.827 171.3ZM155.889 180.414H144.213L142.281 186H136.107L146.649 156.642H153.495L164.037 186H157.821L155.889 180.414ZM154.293 175.71L150.051 163.446L145.809 175.71H154.293ZM189.775 165.756C189.775 167.324 189.397 168.794 188.641 170.166C187.913 171.538 186.751 172.644 185.155 173.484C183.587 174.324 181.599 174.744 179.191 174.744H174.277V186H168.397V156.684H179.191C181.459 156.684 183.391 157.076 184.987 157.86C186.583 158.644 187.773 159.722 188.557 161.094C189.369 162.466 189.775 164.02 189.775 165.756ZM178.939 169.998C180.563 169.998 181.767 169.634 182.551 168.906C183.335 168.15 183.727 167.1 183.727 165.756C183.727 162.9 182.131 161.472 178.939 161.472H174.277V169.998H178.939ZM214.32 156.684V161.43H206.508V186H200.628V161.43H192.816V156.684H214.32ZM224.91 156.684V186H219.03V156.684H224.91ZM257.474 156.684L246.722 186H239.582L228.83 156.684H235.13L243.194 179.994L251.216 156.684H257.474ZM279.395 180.414H267.719L265.787 186H259.613L270.155 156.642H277.001L287.543 186H281.327L279.395 180.414ZM277.799 175.71L273.557 163.446L269.315 175.71H277.799ZM311.854 156.684V161.43H304.042V186H298.162V161.43H290.35V156.684H311.854ZM322.444 156.684V186H316.564V156.684H322.444ZM353.747 186H347.867L334.553 165.882V186H328.673V156.642H334.553L347.867 176.802V156.642H353.747V186ZM380.39 165.504C379.718 164.272 378.794 163.334 377.618 162.69C376.442 162.046 375.07 161.724 373.502 161.724C371.766 161.724 370.226 162.116 368.882 162.9C367.538 163.684 366.488 164.804 365.732 166.26C364.976 167.716 364.598 169.396 364.598 171.3C364.598 173.26 364.976 174.968 365.732 176.424C366.516 177.88 367.594 179 368.966 179.784C370.338 180.568 371.934 180.96 373.754 180.96C375.994 180.96 377.828 180.372 379.256 179.196C380.684 177.992 381.622 176.326 382.07 174.198H371.99V169.704H387.866V174.828C387.474 176.872 386.634 178.762 385.346 180.498C384.058 182.234 382.392 183.634 380.348 184.698C378.332 185.734 376.064 186.252 373.544 186.252C370.716 186.252 368.154 185.622 365.858 184.362C363.59 183.074 361.798 181.296 360.482 179.028C359.194 176.76 358.55 174.184 358.55 171.3C358.55 168.416 359.194 165.84 360.482 163.572C361.798 161.276 363.59 159.498 365.858 158.238C368.154 156.95 370.702 156.306 373.502 156.306C376.806 156.306 379.676 157.118 382.112 158.742C384.548 160.338 386.228 162.592 387.152 165.504H380.39ZM401.636 171.3C401.636 168.416 402.28 165.84 403.568 163.572C404.884 161.276 406.662 159.498 408.902 158.238C411.17 156.95 413.704 156.306 416.504 156.306C419.78 156.306 422.65 157.146 425.114 158.826C427.578 160.506 429.3 162.83 430.28 165.798H423.518C422.846 164.398 421.894 163.348 420.662 162.648C419.458 161.948 418.058 161.598 416.462 161.598C414.754 161.598 413.228 162.004 411.884 162.816C410.568 163.6 409.532 164.72 408.776 166.176C408.048 167.632 407.684 169.34 407.684 171.3C407.684 173.232 408.048 174.94 408.776 176.424C409.532 177.88 410.568 179.014 411.884 179.826C413.228 180.61 414.754 181.002 416.462 181.002C418.058 181.002 419.458 180.652 420.662 179.952C421.894 179.224 422.846 178.16 423.518 176.76H430.28C429.3 179.756 427.578 182.094 425.114 183.774C422.678 185.426 419.808 186.252 416.504 186.252C413.704 186.252 411.17 185.622 408.902 184.362C406.662 183.074 404.884 181.296 403.568 179.028C402.28 176.76 401.636 174.184 401.636 171.3ZM449.331 186.294C446.587 186.294 444.067 185.65 441.771 184.362C439.475 183.074 437.655 181.296 436.311 179.028C434.967 176.732 434.295 174.142 434.295 171.258C434.295 168.402 434.967 165.84 436.311 163.572C437.655 161.276 439.475 159.484 441.771 158.196C444.067 156.908 446.587 156.264 449.331 156.264C452.103 156.264 454.623 156.908 456.891 158.196C459.187 159.484 460.993 161.276 462.309 163.572C463.653 165.84 464.325 168.402 464.325 171.258C464.325 174.142 463.653 176.732 462.309 179.028C460.993 181.296 459.187 183.074 456.891 184.362C454.595 185.65 452.075 186.294 449.331 186.294ZM449.331 181.044C451.095 181.044 452.649 180.652 453.993 179.868C455.337 179.056 456.387 177.908 457.143 176.424C457.899 174.94 458.277 173.218 458.277 171.258C458.277 169.298 457.899 167.59 457.143 166.134C456.387 164.65 455.337 163.516 453.993 162.732C452.649 161.948 451.095 161.556 449.331 161.556C447.567 161.556 445.999 161.948 444.627 162.732C443.283 163.516 442.233 164.65 441.477 166.134C440.721 167.59 440.343 169.298 440.343 171.258C440.343 173.218 440.721 174.94 441.477 176.424C442.233 177.908 443.283 179.056 444.627 179.868C445.999 180.652 447.567 181.044 449.331 181.044ZM494.193 186H488.313L474.999 165.882V186H469.119V156.642H474.999L488.313 176.802V156.642H494.193V186ZM520.374 156.684V161.43H512.562V186H506.682V161.43H498.87V156.684H520.374ZM530.964 161.43V168.78H540.834V173.442H530.964V181.212H542.094V186H525.084V156.642H542.094V161.43H530.964ZM572.932 186H567.052L553.738 165.882V186H547.858V156.642H553.738L567.052 176.802V156.642H572.932V186ZM599.112 156.684V161.43H591.3V186H585.42V161.43H577.608V156.684H599.112Z" fill="#224181"/>
</svg>
