<svg width="702" height="211" viewBox="0 0 702 211" fill="none" xmlns="http://www.w3.org/2000/svg">
<mask id="path-1-outside-1_655_5" maskUnits="userSpaceOnUse" x="-0.569336" y="41" width="656" height="111" fill="black">
<rect fill="white" x="-0.569336" y="41" width="656" height="111"/>
<path d="M77.0307 133.95H41.6307L36.3807 150H1.43066L40.2807 43.8H78.6807L117.381 150H82.2807L77.0307 133.95ZM68.9307 108.9L59.3307 79.35L49.7307 108.9H68.9307ZM190.046 80.1C188.746 78 186.896 76.4 184.496 75.3C182.096 74.1 179.196 73.5 175.796 73.5C169.396 73.5 164.446 75.6 160.946 79.8C157.446 83.9 155.696 89.55 155.696 96.75C155.696 105.05 157.646 111.25 161.546 115.35C165.446 119.45 171.446 121.5 179.546 121.5C187.246 121.5 193.446 118.4 198.146 112.2H171.596V88.65H225.746V121.95C221.146 129.85 214.796 136.65 206.696 142.35C198.596 147.95 188.346 150.75 175.946 150.75C164.946 150.75 155.346 148.5 147.146 144C139.046 139.4 132.796 133 128.396 124.8C124.096 116.6 121.946 107.25 121.946 96.75C121.946 86.25 124.096 76.9 128.396 68.7C132.796 60.5 139.046 54.15 147.146 49.65C155.246 45.05 164.746 42.75 175.646 42.75C189.546 42.75 200.846 46.1 209.546 52.8C218.346 59.5 223.546 68.6 225.146 80.1H190.046ZM271.039 70.35V83.4H304.039V108.45H271.039V123.45H308.539V150H237.739V43.8H308.539V70.35H271.039ZM422.939 150H389.639L354.389 96.6V150H321.089V43.8H354.389L389.639 98.1V43.8H422.939V150ZM434.983 96.75C434.983 86.25 437.083 76.9 441.283 68.7C445.583 60.5 451.683 54.15 459.583 49.65C467.483 45.05 476.783 42.75 487.483 42.75C496.683 42.75 504.883 44.5 512.083 48C519.383 51.4 525.283 56.25 529.783 62.55C534.383 68.85 537.433 76.2 538.933 84.6H503.833C502.233 81.1 499.933 78.4 496.933 76.5C494.033 74.5 490.683 73.5 486.883 73.5C481.283 73.5 476.833 75.6 473.533 79.8C470.333 84 468.733 89.65 468.733 96.75C468.733 103.85 470.333 109.5 473.533 113.7C476.833 117.9 481.283 120 486.883 120C490.683 120 494.033 119.05 496.933 117.15C499.933 115.15 502.233 112.4 503.833 108.9H538.933C537.433 117.3 534.383 124.65 529.783 130.95C525.283 137.25 519.383 142.15 512.083 145.65C504.883 149.05 496.683 150.75 487.483 150.75C476.783 150.75 467.483 148.5 459.583 144C451.683 139.4 445.583 133 441.283 124.8C437.083 116.6 434.983 107.25 434.983 96.75ZM652.923 43.8L614.823 117.75V150H581.523V117.75L543.423 43.8H581.523L598.473 81.45L615.423 43.8H652.923Z"/>
</mask>
<path d="M77.0307 133.95L77.9811 133.639L77.7557 132.95H77.0307V133.95ZM41.6307 133.95V132.95H40.9056L40.6802 133.639L41.6307 133.95ZM36.3807 150V151H37.1057L37.3311 150.311L36.3807 150ZM1.43066 150L0.491531 149.656L3.32594e-05 151H1.43066V150ZM40.2807 43.8V42.8H39.5817L39.3415 43.4564L40.2807 43.8ZM78.6807 43.8L79.6202 43.4576L79.3806 42.8H78.6807V43.8ZM117.381 150V151H118.809L118.32 149.658L117.381 150ZM82.2807 150L81.3302 150.311L81.5556 151H82.2807V150ZM68.9307 108.9V109.9H70.307L69.8817 108.591L68.9307 108.9ZM59.3307 79.35L60.2817 79.041L59.3307 76.1135L58.3796 79.041L59.3307 79.35ZM49.7307 108.9L48.7796 108.591L48.3543 109.9H49.7307V108.9ZM77.0307 133.95V132.95H41.6307V133.95V134.95H77.0307V133.95ZM41.6307 133.95L40.6802 133.639L35.4302 149.689L36.3807 150L37.3311 150.311L42.5811 134.261L41.6307 133.95ZM36.3807 150V149H1.43066V150V151H36.3807V150ZM1.43066 150L2.3698 150.344L41.2198 44.1436L40.2807 43.8L39.3415 43.4564L0.491531 149.656L1.43066 150ZM40.2807 43.8V44.8H78.6807V43.8V42.8H40.2807V43.8ZM78.6807 43.8L77.7411 44.1424L116.441 150.342L117.381 150L118.32 149.658L79.6202 43.4576L78.6807 43.8ZM117.381 150V149H82.2807V150V151H117.381V150ZM82.2807 150L83.2311 149.689L77.9811 133.639L77.0307 133.95L76.0802 134.261L81.3302 150.311L82.2807 150ZM68.9307 108.9L69.8817 108.591L60.2817 79.041L59.3307 79.35L58.3796 79.659L67.9796 109.209L68.9307 108.9ZM59.3307 79.35L58.3796 79.041L48.7796 108.591L49.7307 108.9L50.6817 109.209L60.2817 79.659L59.3307 79.35ZM49.7307 108.9V109.9H68.9307V108.9V107.9H49.7307V108.9ZM190.046 80.1L189.196 80.6264L189.489 81.1H190.046V80.1ZM184.496 75.3L184.049 76.1944L184.064 76.202L184.08 76.2091L184.496 75.3ZM160.946 79.8L161.707 80.4493L161.715 80.4402L160.946 79.8ZM161.546 115.35L160.822 116.039V116.039L161.546 115.35ZM198.146 112.2L198.943 112.804L200.159 111.2H198.146V112.2ZM171.596 112.2H170.596V113.2H171.596V112.2ZM171.596 88.65V87.65H170.596V88.65H171.596ZM225.746 88.65H226.746V87.65H225.746V88.65ZM225.746 121.95L226.61 122.453L226.746 122.22V121.95H225.746ZM206.696 142.35L207.265 143.173L207.272 143.168L206.696 142.35ZM147.146 144L146.652 144.87L146.659 144.873L146.665 144.877L147.146 144ZM128.396 124.8L127.511 125.264L127.515 125.273L128.396 124.8ZM128.396 68.7L127.515 68.2271L127.511 68.2356L128.396 68.7ZM147.146 49.65L147.632 50.5242L147.64 50.5196L147.146 49.65ZM209.546 52.8L208.936 53.5923L208.941 53.5956L209.546 52.8ZM225.146 80.1V81.1H226.295L226.137 79.9622L225.146 80.1ZM190.046 80.1L190.897 79.5736C189.486 77.2944 187.479 75.5671 184.913 74.3909L184.496 75.3L184.08 76.2091C186.314 77.2329 188.007 78.7056 189.196 80.6264L190.046 80.1ZM184.496 75.3L184.944 74.4056C182.373 73.1201 179.311 72.5 175.796 72.5V73.5V74.5C179.081 74.5 181.82 75.0799 184.049 76.1944L184.496 75.3ZM175.796 73.5V72.5C169.156 72.5 163.901 74.6918 160.178 79.1598L160.946 79.8L161.715 80.4402C164.991 76.5081 169.637 74.5 175.796 74.5V73.5ZM160.946 79.8L160.186 79.1507C156.486 83.4849 154.696 89.3926 154.696 96.75H155.696H156.696C156.696 89.7074 158.407 84.3151 161.707 80.4493L160.946 79.8ZM155.696 96.75H154.696C154.696 105.188 156.677 111.682 160.822 116.039L161.546 115.35L162.271 114.661C158.615 110.818 156.696 104.912 156.696 96.75H155.696ZM161.546 115.35L160.822 116.039C164.98 120.41 171.292 122.5 179.546 122.5V121.5V120.5C171.6 120.5 165.913 118.49 162.271 114.661L161.546 115.35ZM179.546 121.5V122.5C187.563 122.5 194.056 119.25 198.943 112.804L198.146 112.2L197.349 111.596C192.836 117.55 186.93 120.5 179.546 120.5V121.5ZM198.146 112.2V111.2H171.596V112.2V113.2H198.146V112.2ZM171.596 112.2H172.596V88.65H171.596H170.596V112.2H171.596ZM171.596 88.65V89.65H225.746V88.65V87.65H171.596V88.65ZM225.746 88.65H224.746V121.95H225.746H226.746V88.65H225.746ZM225.746 121.95L224.882 121.447C220.36 129.212 214.113 135.908 206.121 141.532L206.696 142.35L207.272 143.168C215.48 137.392 221.932 130.488 226.61 122.453L225.746 121.95ZM206.696 142.35L206.128 141.527C198.233 146.985 188.196 149.75 175.946 149.75V150.75V151.75C188.497 151.75 198.959 148.915 207.265 143.173L206.696 142.35ZM175.946 150.75V149.75C165.085 149.75 155.656 147.529 147.627 143.123L147.146 144L146.665 144.877C155.037 149.471 164.808 151.75 175.946 151.75V150.75ZM147.146 144L147.64 143.13C139.704 138.623 133.588 132.361 129.277 124.327L128.396 124.8L127.515 125.273C132.004 133.639 138.389 140.177 146.652 144.87L147.146 144ZM128.396 124.8L129.282 124.336C125.067 116.297 122.946 107.11 122.946 96.75H121.946H120.946C120.946 107.39 123.126 116.903 127.511 125.264L128.396 124.8ZM121.946 96.75H122.946C122.946 86.3899 125.067 77.2029 129.282 69.1644L128.396 68.7L127.511 68.2356C123.126 76.5971 120.946 86.1101 120.946 96.75H121.946ZM128.396 68.7L129.277 69.1728C133.587 61.141 139.7 54.9306 147.632 50.5242L147.146 49.65L146.661 48.7758C138.392 53.3694 132.005 59.859 127.515 68.2272L128.396 68.7ZM147.146 49.65L147.64 50.5196C155.566 46.0186 164.89 43.75 175.646 43.75V42.75V41.75C164.603 41.75 154.927 44.0814 146.652 48.7804L147.146 49.65ZM175.646 42.75V43.75C189.385 43.75 200.453 47.0592 208.936 53.5923L209.546 52.8L210.156 52.0077C201.24 45.1407 189.708 41.75 175.646 41.75V42.75ZM209.546 52.8L208.941 53.5956C217.519 60.1271 222.59 68.9848 224.156 80.2378L225.146 80.1L226.137 79.9622C224.502 68.2152 219.173 58.8729 210.152 52.0044L209.546 52.8ZM225.146 80.1V79.1H190.046V80.1V81.1H225.146V80.1ZM271.039 70.35V69.35H270.039V70.35H271.039ZM271.039 83.4H270.039V84.4H271.039V83.4ZM304.039 83.4H305.039V82.4H304.039V83.4ZM304.039 108.45V109.45H305.039V108.45H304.039ZM271.039 108.45V107.45H270.039V108.45H271.039ZM271.039 123.45H270.039V124.45H271.039V123.45ZM308.539 123.45H309.539V122.45H308.539V123.45ZM308.539 150V151H309.539V150H308.539ZM237.739 150H236.739V151H237.739V150ZM237.739 43.8V42.8H236.739V43.8H237.739ZM308.539 43.8H309.539V42.8H308.539V43.8ZM308.539 70.35V71.35H309.539V70.35H308.539ZM271.039 70.35H270.039V83.4H271.039H272.039V70.35H271.039ZM271.039 83.4V84.4H304.039V83.4V82.4H271.039V83.4ZM304.039 83.4H303.039V108.45H304.039H305.039V83.4H304.039ZM304.039 108.45V107.45H271.039V108.45V109.45H304.039V108.45ZM271.039 108.45H270.039V123.45H271.039H272.039V108.45H271.039ZM271.039 123.45V124.45H308.539V123.45V122.45H271.039V123.45ZM308.539 123.45H307.539V150H308.539H309.539V123.45H308.539ZM308.539 150V149H237.739V150V151H308.539V150ZM237.739 150H238.739V43.8H237.739H236.739V150H237.739ZM237.739 43.8V44.8H308.539V43.8V42.8H237.739V43.8ZM308.539 43.8H307.539V70.35H308.539H309.539V43.8H308.539ZM308.539 70.35V69.35H271.039V70.35V71.35H308.539V70.35ZM422.939 150V151H423.939V150H422.939ZM389.639 150L388.804 150.551L389.101 151H389.639V150ZM354.389 96.6L355.223 96.0491L353.389 93.2699V96.6H354.389ZM354.389 150V151H355.389V150H354.389ZM321.089 150H320.089V151H321.089V150ZM321.089 43.8V42.8H320.089V43.8H321.089ZM354.389 43.8L355.228 43.2555L354.932 42.8H354.389V43.8ZM389.639 98.1L388.8 98.6445L390.639 101.477V98.1H389.639ZM389.639 43.8V42.8H388.639V43.8H389.639ZM422.939 43.8H423.939V42.8H422.939V43.8ZM422.939 150V149H389.639V150V151H422.939V150ZM389.639 150L390.473 149.449L355.223 96.0491L354.389 96.6L353.554 97.1509L388.804 150.551L389.639 150ZM354.389 96.6H353.389V150H354.389H355.389V96.6H354.389ZM354.389 150V149H321.089V150V151H354.389V150ZM321.089 150H322.089V43.8H321.089H320.089V150H321.089ZM321.089 43.8V44.8H354.389V43.8V42.8H321.089V43.8ZM354.389 43.8L353.55 44.3445L388.8 98.6445L389.639 98.1L390.478 97.5555L355.228 43.2555L354.389 43.8ZM389.639 98.1H390.639V43.8H389.639H388.639V98.1H389.639ZM389.639 43.8V44.8H422.939V43.8V42.8H389.639V43.8ZM422.939 43.8H421.939V150H422.939H423.939V43.8H422.939ZM441.283 68.7L440.398 68.2356L440.393 68.2441L441.283 68.7ZM459.583 49.65L460.078 50.519L460.087 50.5142L459.583 49.65ZM512.083 48L511.646 48.8994L511.654 48.903L511.661 48.9065L512.083 48ZM529.783 62.55L528.97 63.1313L528.976 63.1397L529.783 62.55ZM538.933 84.6V85.6H540.128L539.918 84.4242L538.933 84.6ZM503.833 84.6L502.924 85.0158L503.191 85.6H503.833V84.6ZM496.933 76.5L496.366 77.3232L496.382 77.3343L496.398 77.3448L496.933 76.5ZM473.533 79.8L472.747 79.1822L472.742 79.188L472.738 79.194L473.533 79.8ZM473.533 113.7L472.738 114.306L472.742 114.312L472.747 114.318L473.533 113.7ZM496.933 117.15L497.481 117.986L497.488 117.982L496.933 117.15ZM503.833 108.9V107.9H503.191L502.924 108.484L503.833 108.9ZM538.933 108.9L539.918 109.076L540.128 107.9H538.933V108.9ZM529.783 130.95L528.976 130.36L528.97 130.369L529.783 130.95ZM512.083 145.65L512.51 146.554L512.516 146.552L512.083 145.65ZM459.583 144L459.08 144.864L459.088 144.869L459.583 144ZM441.283 124.8L440.393 125.256L440.398 125.264L441.283 124.8ZM434.983 96.75H435.983C435.983 86.3862 438.055 77.1962 442.173 69.1559L441.283 68.7L440.393 68.2441C436.112 76.6038 433.983 86.1138 433.983 96.75H434.983ZM441.283 68.7L442.169 69.1644C446.382 61.1305 452.348 54.9224 460.078 50.5189L459.583 49.65L459.088 48.7811C451.019 53.3776 444.785 59.8695 440.398 68.2356L441.283 68.7ZM459.583 49.65L460.087 50.5142C467.81 46.0173 476.93 43.75 487.483 43.75V42.75V41.75C476.637 41.75 467.157 44.0827 459.08 48.7858L459.583 49.65ZM487.483 42.75V43.75C496.555 43.75 504.601 45.4748 511.646 48.8994L512.083 48L512.521 47.1006C505.165 43.5252 496.812 41.75 487.483 41.75V42.75ZM512.083 48L511.661 48.9065C518.811 52.2367 524.574 56.9774 528.97 63.1312L529.783 62.55L530.597 61.9688C525.993 55.5226 519.955 50.5633 512.506 47.0935L512.083 48ZM529.783 62.55L528.976 63.1397C533.478 69.3058 536.473 76.5111 537.949 84.7758L538.933 84.6L539.918 84.4242C538.394 75.8889 535.289 68.3942 530.591 61.9603L529.783 62.55ZM538.933 84.6V83.6H503.833V84.6V85.6H538.933V84.6ZM503.833 84.6L504.743 84.1842C503.069 80.5234 500.646 77.6676 497.468 75.6552L496.933 76.5L496.398 77.3448C499.221 79.1324 501.397 81.6766 502.924 85.0158L503.833 84.6ZM496.933 76.5L497.501 75.6768C494.421 73.5525 490.869 72.5 486.883 72.5V73.5V74.5C490.497 74.5 493.646 75.4475 496.366 77.3232L496.933 76.5ZM486.883 73.5V72.5C480.994 72.5 476.247 74.7276 472.747 79.1822L473.533 79.8L474.32 80.4178C477.42 76.4723 481.573 74.5 486.883 74.5V73.5ZM473.533 79.8L472.738 79.194C469.366 83.6195 467.733 89.5059 467.733 96.75H468.733H469.733C469.733 89.7941 471.301 84.3805 474.329 80.406L473.533 79.8ZM468.733 96.75H467.733C467.733 103.994 469.366 109.88 472.738 114.306L473.533 113.7L474.329 113.094C471.301 109.12 469.733 103.706 469.733 96.75H468.733ZM473.533 113.7L472.747 114.318C476.247 118.772 480.994 121 486.883 121V120V119C481.573 119 477.42 117.028 474.32 113.082L473.533 113.7ZM486.883 120V121C490.859 121 494.403 120.003 497.481 117.986L496.933 117.15L496.385 116.314C493.664 118.097 490.508 119 486.883 119V120ZM496.933 117.15L497.488 117.982C500.653 115.872 503.071 112.973 504.743 109.316L503.833 108.9L502.924 108.484C501.396 111.827 499.214 114.428 496.379 116.318L496.933 117.15ZM503.833 108.9V109.9H538.933V108.9V107.9H503.833V108.9ZM538.933 108.9L537.949 108.724C536.473 116.989 533.478 124.194 528.976 130.36L529.783 130.95L530.591 131.54C535.289 125.106 538.394 117.611 539.918 109.076L538.933 108.9ZM529.783 130.95L528.97 130.369C524.572 136.525 518.806 141.318 511.651 144.748L512.083 145.65L512.516 146.552C519.961 142.982 525.995 137.975 530.597 131.531L529.783 130.95ZM512.083 145.65L511.656 144.746C504.609 148.074 496.559 149.75 487.483 149.75V150.75V151.75C496.808 151.75 505.158 150.026 512.51 146.554L512.083 145.65ZM487.483 150.75V149.75C476.926 149.75 467.803 147.531 460.078 143.131L459.583 144L459.088 144.869C467.164 149.469 476.641 151.75 487.483 151.75V150.75ZM459.583 144L460.087 143.136C452.351 138.632 446.383 132.371 442.169 124.336L441.283 124.8L440.398 125.264C444.784 133.629 451.015 140.168 459.08 144.864L459.583 144ZM441.283 124.8L442.173 124.344C438.055 116.304 435.983 107.114 435.983 96.75H434.983H433.983C433.983 107.386 436.112 116.896 440.393 125.256L441.283 124.8ZM652.923 43.8L653.812 44.258L654.563 42.8H652.923V43.8ZM614.823 117.75L613.934 117.292L613.823 117.508V117.75H614.823ZM614.823 150V151H615.823V150H614.823ZM581.523 150H580.523V151H581.523V150ZM581.523 117.75H582.523V117.508L582.412 117.292L581.523 117.75ZM543.423 43.8V42.8H541.783L542.534 44.258L543.423 43.8ZM581.523 43.8L582.435 43.3895L582.169 42.8H581.523V43.8ZM598.473 81.45L597.561 81.8605L598.473 83.886L599.385 81.8605L598.473 81.45ZM615.423 43.8V42.8H614.776L614.511 43.3895L615.423 43.8ZM652.923 43.8L652.034 43.342L613.934 117.292L614.823 117.75L615.712 118.208L653.812 44.258L652.923 43.8ZM614.823 117.75H613.823V150H614.823H615.823V117.75H614.823ZM614.823 150V149H581.523V150V151H614.823V150ZM581.523 150H582.523V117.75H581.523H580.523V150H581.523ZM581.523 117.75L582.412 117.292L544.312 43.342L543.423 43.8L542.534 44.258L580.634 118.208L581.523 117.75ZM543.423 43.8V44.8H581.523V43.8V42.8H543.423V43.8ZM581.523 43.8L580.611 44.2105L597.561 81.8605L598.473 81.45L599.385 81.0395L582.435 43.3895L581.523 43.8ZM598.473 81.45L599.385 81.8605L616.335 44.2105L615.423 43.8L614.511 43.3895L597.561 81.0395L598.473 81.45ZM615.423 43.8V44.8H652.923V43.8V42.8H615.423V43.8Z" fill="#E0324C" mask="url(#path-1-outside-1_655_5)"/>
<path d="M155.339 120.684V150H149.459V120.684H155.339ZM193.53 120.684V150H187.65V130.932L179.796 150H175.344L167.448 130.932V150H161.568V120.684H168.246L177.57 142.482L186.894 120.684H193.53ZM221.142 129.756C221.142 131.324 220.764 132.794 220.008 134.166C219.28 135.538 218.118 136.644 216.522 137.484C214.954 138.324 212.966 138.744 210.558 138.744H205.644V150H199.764V120.684H210.558C212.826 120.684 214.758 121.076 216.354 121.86C217.95 122.644 219.14 123.722 219.924 125.094C220.736 126.466 221.142 128.02 221.142 129.756ZM210.306 133.998C211.93 133.998 213.134 133.634 213.918 132.906C214.702 132.15 215.094 131.1 215.094 129.756C215.094 126.9 213.498 125.472 210.306 125.472H205.644V133.998H210.306ZM243.712 144.414H232.036L230.104 150H223.93L234.472 120.642H241.318L251.86 150H245.644L243.712 144.414ZM242.116 139.71L237.874 127.446L233.632 139.71H242.116ZM254.793 135.3C254.793 132.416 255.437 129.84 256.725 127.572C258.041 125.276 259.819 123.498 262.059 122.238C264.327 120.95 266.861 120.306 269.661 120.306C272.937 120.306 275.807 121.146 278.271 122.826C280.735 124.506 282.457 126.83 283.437 129.798H276.675C276.003 128.398 275.051 127.348 273.819 126.648C272.615 125.948 271.215 125.598 269.619 125.598C267.911 125.598 266.385 126.004 265.041 126.816C263.725 127.6 262.689 128.72 261.933 130.176C261.205 131.632 260.841 133.34 260.841 135.3C260.841 137.232 261.205 138.94 261.933 140.424C262.689 141.88 263.725 143.014 265.041 143.826C266.385 144.61 267.911 145.002 269.619 145.002C271.215 145.002 272.615 144.652 273.819 143.952C275.051 143.224 276.003 142.16 276.675 140.76H283.437C282.457 143.756 280.735 146.094 278.271 147.774C275.835 149.426 272.965 150.252 269.661 150.252C266.861 150.252 264.327 149.622 262.059 148.362C259.819 147.074 258.041 145.296 256.725 143.028C255.437 140.76 254.793 138.184 254.793 135.3ZM308.829 120.684V125.43H301.017V150H295.137V125.43H287.325V120.684H308.829ZM327.147 150.294C324.403 150.294 321.883 149.65 319.587 148.362C317.291 147.074 315.471 145.296 314.127 143.028C312.783 140.732 312.111 138.142 312.111 135.258C312.111 132.402 312.783 129.84 314.127 127.572C315.471 125.276 317.291 123.484 319.587 122.196C321.883 120.908 324.403 120.264 327.147 120.264C329.919 120.264 332.439 120.908 334.707 122.196C337.003 123.484 338.809 125.276 340.125 127.572C341.469 129.84 342.141 132.402 342.141 135.258C342.141 138.142 341.469 140.732 340.125 143.028C338.809 145.296 337.003 147.074 334.707 148.362C332.411 149.65 329.891 150.294 327.147 150.294ZM327.147 145.044C328.911 145.044 330.465 144.652 331.809 143.868C333.153 143.056 334.203 141.908 334.959 140.424C335.715 138.94 336.093 137.218 336.093 135.258C336.093 133.298 335.715 131.59 334.959 130.134C334.203 128.65 333.153 127.516 331.809 126.732C330.465 125.948 328.911 125.556 327.147 125.556C325.383 125.556 323.815 125.948 322.443 126.732C321.099 127.516 320.049 128.65 319.293 130.134C318.537 131.59 318.159 133.298 318.159 135.258C318.159 137.218 318.537 138.94 319.293 140.424C320.049 141.908 321.099 143.056 322.443 143.868C323.815 144.652 325.383 145.044 327.147 145.044ZM383.698 120.684L372.946 150H365.806L355.054 120.684H361.354L369.418 143.994L377.44 120.684H383.698ZM393.523 120.684V150H387.643V120.684H393.523ZM409.875 150.294C407.831 150.294 405.983 149.944 404.331 149.244C402.707 148.544 401.419 147.536 400.467 146.22C399.515 144.904 399.025 143.35 398.997 141.558H405.297C405.381 142.762 405.801 143.714 406.557 144.414C407.341 145.114 408.405 145.464 409.749 145.464C411.121 145.464 412.199 145.142 412.983 144.498C413.767 143.826 414.159 142.958 414.159 141.894C414.159 141.026 413.893 140.312 413.361 139.752C412.829 139.192 412.157 138.758 411.345 138.45C410.561 138.114 409.469 137.75 408.069 137.358C406.165 136.798 404.611 136.252 403.407 135.72C402.231 135.16 401.209 134.334 400.341 133.242C399.501 132.122 399.081 130.638 399.081 128.79C399.081 127.054 399.515 125.542 400.383 124.254C401.251 122.966 402.469 121.986 404.037 121.314C405.605 120.614 407.397 120.264 409.413 120.264C412.437 120.264 414.887 121.006 416.763 122.49C418.667 123.946 419.717 125.99 419.913 128.622H413.445C413.389 127.614 412.955 126.788 412.143 126.144C411.359 125.472 410.309 125.136 408.993 125.136C407.845 125.136 406.921 125.43 406.221 126.018C405.549 126.606 405.213 127.46 405.213 128.58C405.213 129.364 405.465 130.022 405.969 130.554C406.501 131.058 407.145 131.478 407.901 131.814C408.685 132.122 409.777 132.486 411.177 132.906C413.081 133.466 414.635 134.026 415.839 134.586C417.043 135.146 418.079 135.986 418.947 137.106C419.815 138.226 420.249 139.696 420.249 141.516C420.249 143.084 419.843 144.54 419.031 145.884C418.219 147.228 417.029 148.306 415.461 149.118C413.893 149.902 412.031 150.294 409.875 150.294ZM431.562 120.684V138.828C431.562 140.816 432.08 142.342 433.116 143.406C434.152 144.442 435.608 144.96 437.484 144.96C439.388 144.96 440.858 144.442 441.894 143.406C442.93 142.342 443.448 140.816 443.448 138.828V120.684H449.37V138.786C449.37 141.278 448.824 143.392 447.732 145.128C446.668 146.836 445.226 148.124 443.406 148.992C441.614 149.86 439.612 150.294 437.4 150.294C435.216 150.294 433.228 149.86 431.436 148.992C429.672 148.124 428.272 146.836 427.236 145.128C426.2 143.392 425.682 141.278 425.682 138.786V120.684H431.562ZM473.448 144.414H461.772L459.84 150H453.666L464.208 120.642H471.054L481.596 150H475.38L473.448 144.414ZM471.852 139.71L467.61 127.446L463.368 139.71H471.852ZM491.836 145.338H501.496V150H485.956V120.684H491.836V145.338ZM538.635 150L535.443 146.85C532.727 149.286 529.409 150.504 525.489 150.504C523.333 150.504 521.429 150.14 519.777 149.412C518.153 148.656 516.893 147.606 515.997 146.262C515.101 144.89 514.653 143.308 514.653 141.516C514.653 139.584 515.199 137.848 516.291 136.308C517.383 134.768 518.993 133.522 521.121 132.57C520.365 131.646 519.819 130.764 519.483 129.924C519.147 129.056 518.979 128.132 518.979 127.152C518.979 125.808 519.329 124.604 520.029 123.54C520.729 122.448 521.723 121.594 523.011 120.978C524.327 120.362 525.853 120.054 527.589 120.054C529.353 120.054 530.865 120.39 532.125 121.062C533.385 121.734 534.323 122.63 534.939 123.75C535.555 124.87 535.821 126.116 535.737 127.488H530.025C530.053 126.564 529.829 125.864 529.353 125.388C528.877 124.884 528.233 124.632 527.421 124.632C526.637 124.632 525.979 124.87 525.447 125.346C524.943 125.794 524.691 126.382 524.691 127.11C524.691 127.81 524.901 128.51 525.321 129.21C525.741 129.882 526.427 130.722 527.379 131.73L534.771 139.038C534.827 138.982 534.869 138.926 534.897 138.87C534.925 138.814 534.953 138.758 534.981 138.702L537.375 134.712H543.507L540.567 139.878C540.007 140.97 539.405 142.006 538.761 142.986L545.859 150H538.635ZM525.657 145.632C527.953 145.632 529.983 144.82 531.747 143.196L524.523 136.056C521.807 137.26 520.449 138.968 520.449 141.18C520.449 142.44 520.925 143.504 521.877 144.372C522.829 145.212 524.089 145.632 525.657 145.632ZM43.6166 171.3C43.6166 168.416 44.2606 165.84 45.5486 163.572C46.8646 161.276 48.6426 159.498 50.8826 158.238C53.1506 156.95 55.6846 156.306 58.4846 156.306C61.7606 156.306 64.6306 157.146 67.0946 158.826C69.5586 160.506 71.2806 162.83 72.2606 165.798H65.4986C64.8266 164.398 63.8746 163.348 62.6426 162.648C61.4386 161.948 60.0386 161.598 58.4426 161.598C56.7346 161.598 55.2086 162.004 53.8646 162.816C52.5486 163.6 51.5126 164.72 50.7566 166.176C50.0286 167.632 49.6646 169.34 49.6646 171.3C49.6646 173.232 50.0286 174.94 50.7566 176.424C51.5126 177.88 52.5486 179.014 53.8646 179.826C55.2086 180.61 56.7346 181.002 58.4426 181.002C60.0386 181.002 61.4386 180.652 62.6426 179.952C63.8746 179.224 64.8266 178.16 65.4986 176.76H72.2606C71.2806 179.756 69.5586 182.094 67.0946 183.774C64.6586 185.426 61.7886 186.252 58.4846 186.252C55.6846 186.252 53.1506 185.622 50.8826 184.362C48.6426 183.074 46.8646 181.296 45.5486 179.028C44.2606 176.76 43.6166 174.184 43.6166 171.3ZM91.3109 186.294C88.5669 186.294 86.0469 185.65 83.7509 184.362C81.4549 183.074 79.6349 181.296 78.2909 179.028C76.9469 176.732 76.2749 174.142 76.2749 171.258C76.2749 168.402 76.9469 165.84 78.2909 163.572C79.6349 161.276 81.4549 159.484 83.7509 158.196C86.0469 156.908 88.5669 156.264 91.3109 156.264C94.0829 156.264 96.6029 156.908 98.8709 158.196C101.167 159.484 102.973 161.276 104.289 163.572C105.633 165.84 106.305 168.402 106.305 171.258C106.305 174.142 105.633 176.732 104.289 179.028C102.973 181.296 101.167 183.074 98.8709 184.362C96.5749 185.65 94.0549 186.294 91.3109 186.294ZM91.3109 181.044C93.0749 181.044 94.6289 180.652 95.9729 179.868C97.3169 179.056 98.3669 177.908 99.1229 176.424C99.8789 174.94 100.257 173.218 100.257 171.258C100.257 169.298 99.8789 167.59 99.1229 166.134C98.3669 164.65 97.3169 163.516 95.9729 162.732C94.6289 161.948 93.0749 161.556 91.3109 161.556C89.5469 161.556 87.9789 161.948 86.6069 162.732C85.2629 163.516 84.2129 164.65 83.4569 166.134C82.7009 167.59 82.3229 169.298 82.3229 171.258C82.3229 173.218 82.7009 174.94 83.4569 176.424C84.2129 177.908 85.2629 179.056 86.6069 179.868C87.9789 180.652 89.5469 181.044 91.3109 181.044ZM136.173 186H130.293L116.979 165.882V186H111.099V156.642H116.979L130.293 176.802V156.642H136.173V186ZM162.354 156.684V161.43H154.542V186H148.662V161.43H140.85V156.684H162.354ZM172.944 161.43V168.78H182.814V173.442H172.944V181.212H184.074V186H167.064V156.642H184.074V161.43H172.944ZM214.912 186H209.032L195.718 165.882V186H189.838V156.642H195.718L209.032 176.802V156.642H214.912V186ZM227.023 156.684V186H221.143V156.684H227.023ZM243.5 156.684C246.58 156.684 249.282 157.286 251.606 158.49C253.958 159.694 255.764 161.416 257.024 163.656C258.312 165.868 258.956 168.444 258.956 171.384C258.956 174.324 258.312 176.9 257.024 179.112C255.764 181.296 253.958 182.99 251.606 184.194C249.282 185.398 246.58 186 243.5 186H233.252V156.684H243.5ZM243.29 181.002C246.37 181.002 248.75 180.162 250.43 178.482C252.11 176.802 252.95 174.436 252.95 171.384C252.95 168.332 252.11 165.952 250.43 164.244C248.75 162.508 246.37 161.64 243.29 161.64H239.132V181.002H243.29ZM277.386 186.294C274.642 186.294 272.122 185.65 269.826 184.362C267.53 183.074 265.71 181.296 264.366 179.028C263.022 176.732 262.35 174.142 262.35 171.258C262.35 168.402 263.022 165.84 264.366 163.572C265.71 161.276 267.53 159.484 269.826 158.196C272.122 156.908 274.642 156.264 277.386 156.264C280.158 156.264 282.678 156.908 284.946 158.196C287.242 159.484 289.048 161.276 290.364 163.572C291.708 165.84 292.38 168.402 292.38 171.258C292.38 174.142 291.708 176.732 290.364 179.028C289.048 181.296 287.242 183.074 284.946 184.362C282.65 185.65 280.13 186.294 277.386 186.294ZM277.386 181.044C279.15 181.044 280.704 180.652 282.048 179.868C283.392 179.056 284.442 177.908 285.198 176.424C285.954 174.94 286.332 173.218 286.332 171.258C286.332 169.298 285.954 167.59 285.198 166.134C284.442 164.65 283.392 163.516 282.048 162.732C280.704 161.948 279.15 161.556 277.386 161.556C275.622 161.556 274.054 161.948 272.682 162.732C271.338 163.516 270.288 164.65 269.532 166.134C268.776 167.59 268.398 169.298 268.398 171.258C268.398 173.218 268.776 174.94 269.532 176.424C270.288 177.908 271.338 179.056 272.682 179.868C274.054 180.652 275.622 181.044 277.386 181.044ZM307.296 186.294C305.252 186.294 303.404 185.944 301.752 185.244C300.128 184.544 298.84 183.536 297.888 182.22C296.936 180.904 296.446 179.35 296.418 177.558H302.718C302.802 178.762 303.222 179.714 303.978 180.414C304.762 181.114 305.826 181.464 307.17 181.464C308.542 181.464 309.62 181.142 310.404 180.498C311.188 179.826 311.58 178.958 311.58 177.894C311.58 177.026 311.314 176.312 310.782 175.752C310.25 175.192 309.578 174.758 308.766 174.45C307.982 174.114 306.89 173.75 305.49 173.358C303.586 172.798 302.032 172.252 300.828 171.72C299.652 171.16 298.63 170.334 297.762 169.242C296.922 168.122 296.502 166.638 296.502 164.79C296.502 163.054 296.936 161.542 297.804 160.254C298.672 158.966 299.89 157.986 301.458 157.314C303.026 156.614 304.818 156.264 306.834 156.264C309.858 156.264 312.308 157.006 314.184 158.49C316.088 159.946 317.138 161.99 317.334 164.622H310.866C310.81 163.614 310.376 162.788 309.564 162.144C308.78 161.472 307.73 161.136 306.414 161.136C305.266 161.136 304.342 161.43 303.642 162.018C302.97 162.606 302.634 163.46 302.634 164.58C302.634 165.364 302.886 166.022 303.39 166.554C303.922 167.058 304.566 167.478 305.322 167.814C306.106 168.122 307.198 168.486 308.598 168.906C310.502 169.466 312.056 170.026 313.26 170.586C314.464 171.146 315.5 171.986 316.368 173.106C317.236 174.226 317.67 175.696 317.67 177.516C317.67 179.084 317.264 180.54 316.452 181.884C315.64 183.228 314.45 184.306 312.882 185.118C311.314 185.902 309.452 186.294 307.296 186.294ZM332.188 171.3C332.188 168.416 332.832 165.84 334.12 163.572C335.436 161.276 337.214 159.498 339.454 158.238C341.722 156.95 344.256 156.306 347.056 156.306C350.332 156.306 353.202 157.146 355.666 158.826C358.13 160.506 359.852 162.83 360.832 165.798H354.07C353.398 164.398 352.446 163.348 351.214 162.648C350.01 161.948 348.61 161.598 347.014 161.598C345.306 161.598 343.78 162.004 342.436 162.816C341.12 163.6 340.084 164.72 339.328 166.176C338.6 167.632 338.236 169.34 338.236 171.3C338.236 173.232 338.6 174.94 339.328 176.424C340.084 177.88 341.12 179.014 342.436 179.826C343.78 180.61 345.306 181.002 347.014 181.002C348.61 181.002 350.01 180.652 351.214 179.952C352.446 179.224 353.398 178.16 354.07 176.76H360.832C359.852 179.756 358.13 182.094 355.666 183.774C353.23 185.426 350.36 186.252 347.056 186.252C344.256 186.252 341.722 185.622 339.454 184.362C337.214 183.074 335.436 181.296 334.12 179.028C332.832 176.76 332.188 174.184 332.188 171.3ZM384.25 180.414H372.574L370.642 186H364.468L375.01 156.642H381.856L392.398 186H386.182L384.25 180.414ZM382.654 175.71L378.412 163.446L374.17 175.71H382.654ZM402.555 156.684V174.828C402.555 176.816 403.073 178.342 404.109 179.406C405.145 180.442 406.601 180.96 408.477 180.96C410.381 180.96 411.851 180.442 412.887 179.406C413.923 178.342 414.441 176.816 414.441 174.828V156.684H420.363V174.786C420.363 177.278 419.817 179.392 418.725 181.128C417.661 182.836 416.219 184.124 414.399 184.992C412.607 185.86 410.605 186.294 408.393 186.294C406.209 186.294 404.221 185.86 402.429 184.992C400.665 184.124 399.265 182.836 398.229 181.128C397.193 179.392 396.675 177.278 396.675 174.786V156.684H402.555ZM446.414 156.684V161.43H438.602V186H432.722V161.43H424.91V156.684H446.414ZM457.004 156.684V186H451.124V156.684H457.004ZM489.567 156.684L478.815 186H471.675L460.923 156.684H467.223L475.287 179.994L483.309 156.684H489.567ZM511.489 180.414H499.813L497.881 186H491.707L502.249 156.642H509.095L519.637 186H513.421L511.489 180.414ZM509.893 175.71L505.651 163.446L501.409 175.71H509.893ZM534.245 156.684C537.325 156.684 540.027 157.286 542.351 158.49C544.703 159.694 546.509 161.416 547.769 163.656C549.057 165.868 549.701 168.444 549.701 171.384C549.701 174.324 549.057 176.9 547.769 179.112C546.509 181.296 544.703 182.99 542.351 184.194C540.027 185.398 537.325 186 534.245 186H523.997V156.684H534.245ZM534.035 181.002C537.115 181.002 539.495 180.162 541.175 178.482C542.855 176.802 543.695 174.436 543.695 171.384C543.695 168.332 542.855 165.952 541.175 164.244C539.495 162.508 537.115 161.64 534.035 161.64H529.877V181.002H534.035ZM568.131 186.294C565.387 186.294 562.867 185.65 560.571 184.362C558.275 183.074 556.455 181.296 555.111 179.028C553.767 176.732 553.095 174.142 553.095 171.258C553.095 168.402 553.767 165.84 555.111 163.572C556.455 161.276 558.275 159.484 560.571 158.196C562.867 156.908 565.387 156.264 568.131 156.264C570.903 156.264 573.423 156.908 575.691 158.196C577.987 159.484 579.793 161.276 581.109 163.572C582.453 165.84 583.125 168.402 583.125 171.258C583.125 174.142 582.453 176.732 581.109 179.028C579.793 181.296 577.987 183.074 575.691 184.362C573.395 185.65 570.875 186.294 568.131 186.294ZM568.131 181.044C569.895 181.044 571.449 180.652 572.793 179.868C574.137 179.056 575.187 177.908 575.943 176.424C576.699 174.94 577.077 173.218 577.077 171.258C577.077 169.298 576.699 167.59 575.943 166.134C575.187 164.65 574.137 163.516 572.793 162.732C571.449 161.948 569.895 161.556 568.131 161.556C566.367 161.556 564.799 161.948 563.427 162.732C562.083 163.516 561.033 164.65 560.277 166.134C559.521 167.59 559.143 169.298 559.143 171.258C559.143 173.218 559.521 174.94 560.277 176.424C561.033 177.908 562.083 179.056 563.427 179.868C564.799 180.652 566.367 181.044 568.131 181.044ZM603.039 186L596.571 174.576H593.799V186H587.919V156.684H598.923C601.191 156.684 603.123 157.09 604.719 157.902C606.315 158.686 607.505 159.764 608.289 161.136C609.101 162.48 609.507 163.992 609.507 165.672C609.507 167.604 608.947 169.354 607.827 170.922C606.707 172.462 605.041 173.526 602.829 174.114L609.843 186H603.039ZM593.799 170.166H598.713C600.309 170.166 601.499 169.788 602.283 169.032C603.067 168.248 603.459 167.17 603.459 165.798C603.459 164.454 603.067 163.418 602.283 162.69C601.499 161.934 600.309 161.556 598.713 161.556H593.799V170.166ZM621.125 161.43V168.78H630.995V173.442H621.125V181.212H632.255V186H615.245V156.642H632.255V161.43H621.125ZM648.141 186.294C646.097 186.294 644.249 185.944 642.597 185.244C640.973 184.544 639.685 183.536 638.733 182.22C637.781 180.904 637.291 179.35 637.263 177.558H643.563C643.647 178.762 644.067 179.714 644.823 180.414C645.607 181.114 646.671 181.464 648.015 181.464C649.387 181.464 650.465 181.142 651.249 180.498C652.033 179.826 652.425 178.958 652.425 177.894C652.425 177.026 652.159 176.312 651.627 175.752C651.095 175.192 650.423 174.758 649.611 174.45C648.827 174.114 647.735 173.75 646.335 173.358C644.431 172.798 642.877 172.252 641.673 171.72C640.497 171.16 639.475 170.334 638.607 169.242C637.767 168.122 637.347 166.638 637.347 164.79C637.347 163.054 637.781 161.542 638.649 160.254C639.517 158.966 640.735 157.986 642.303 157.314C643.871 156.614 645.663 156.264 647.679 156.264C650.703 156.264 653.153 157.006 655.029 158.49C656.933 159.946 657.983 161.99 658.179 164.622H651.711C651.655 163.614 651.221 162.788 650.409 162.144C649.625 161.472 648.575 161.136 647.259 161.136C646.111 161.136 645.187 161.43 644.487 162.018C643.815 162.606 643.479 163.46 643.479 164.58C643.479 165.364 643.731 166.022 644.235 166.554C644.767 167.058 645.411 167.478 646.167 167.814C646.951 168.122 648.043 168.486 649.443 168.906C651.347 169.466 652.901 170.026 654.105 170.586C655.309 171.146 656.345 171.986 657.213 173.106C658.081 174.226 658.515 175.696 658.515 177.516C658.515 179.084 658.109 180.54 657.297 181.884C656.485 183.228 655.295 184.306 653.727 185.118C652.159 185.902 650.297 186.294 648.141 186.294Z" fill="#224181"/>
</svg>
