<svg width="661" height="160" viewBox="0 0 661 160" fill="none" xmlns="http://www.w3.org/2000/svg">
<mask id="path-1-outside-1_647_3" maskUnits="userSpaceOnUse" x="-0.138672" y="5" width="658" height="113" fill="black">
<rect fill="white" x="-0.138672" y="5" width="658" height="113"/>
<path d="M78.4613 98.95H43.0613L37.8113 115H2.86133L41.7113 8.8H80.1113L118.811 115H83.7113L78.4613 98.95ZM70.3613 73.9L60.7613 44.35L51.1613 73.9H70.3613ZM191.477 45.1C190.177 43 188.327 41.4 185.927 40.3C183.527 39.1 180.627 38.5 177.227 38.5C170.827 38.5 165.877 40.6 162.377 44.8C158.877 48.9 157.127 54.55 157.127 61.75C157.127 70.05 159.077 76.25 162.977 80.35C166.877 84.45 172.877 86.5 180.977 86.5C188.677 86.5 194.877 83.4 199.577 77.2H173.027V53.65H227.177V86.95C222.577 94.85 216.227 101.65 208.127 107.35C200.027 112.95 189.777 115.75 177.377 115.75C166.377 115.75 156.777 113.5 148.577 109C140.477 104.4 134.227 98 129.827 89.8C125.527 81.6 123.377 72.25 123.377 61.75C123.377 51.25 125.527 41.9 129.827 33.7C134.227 25.5 140.477 19.15 148.577 14.65C156.677 10.05 166.177 7.74999 177.077 7.74999C190.977 7.74999 202.277 11.1 210.977 17.8C219.777 24.5 224.977 33.6 226.577 45.1H191.477ZM272.47 35.35V48.4H305.47V73.45H272.47V88.45H309.97V115H239.17V8.8H309.97V35.35H272.47ZM424.37 115H391.07L355.82 61.6V115H322.52V8.8H355.82L391.07 63.1V8.8H424.37V115ZM436.414 61.75C436.414 51.25 438.514 41.9 442.714 33.7C447.014 25.5 453.114 19.15 461.014 14.65C468.914 10.05 478.214 7.74999 488.914 7.74999C498.114 7.74999 506.314 9.5 513.514 13C520.814 16.4 526.714 21.25 531.214 27.55C535.814 33.85 538.864 41.2 540.364 49.6H505.264C503.664 46.1 501.364 43.4 498.364 41.5C495.464 39.5 492.114 38.5 488.314 38.5C482.714 38.5 478.264 40.6 474.964 44.8C471.764 49 470.164 54.65 470.164 61.75C470.164 68.85 471.764 74.5 474.964 78.7C478.264 82.9 482.714 85 488.314 85C492.114 85 495.464 84.05 498.364 82.15C501.364 80.15 503.664 77.4 505.264 73.9H540.364C538.864 82.3 535.814 89.65 531.214 95.95C526.714 102.25 520.814 107.15 513.514 110.65C506.314 114.05 498.114 115.75 488.914 115.75C478.214 115.75 468.914 113.5 461.014 109C453.114 104.4 447.014 98 442.714 89.8C438.514 81.6 436.414 72.25 436.414 61.75ZM654.354 8.8L616.254 82.75V115H582.954V82.75L544.854 8.8H582.954L599.904 46.45L616.854 8.8H654.354Z"/>
</mask>
<path d="M78.4613 98.95L80.3622 98.3282L79.9114 96.95H78.4613V98.95ZM43.0613 98.95V96.95H41.6113L41.1604 98.3282L43.0613 98.95ZM37.8113 115V117H39.2614L39.7122 115.622L37.8113 115ZM2.86133 115L0.983062 114.313L6.65188e-05 117H2.86133V115ZM41.7113 8.8V6.8H40.3133L39.8331 8.11289L41.7113 8.8ZM80.1113 8.8L81.9905 8.11523L81.5112 6.8H80.1113V8.8ZM118.811 115V117H121.669L120.69 114.315L118.811 115ZM83.7113 115L81.8104 115.622L82.2613 117H83.7113V115ZM70.3613 73.9V75.9H73.114L72.2635 73.282L70.3613 73.9ZM60.7613 44.35L62.6635 43.732L60.7613 37.877L58.8592 43.732L60.7613 44.35ZM51.1613 73.9L49.2592 73.282L48.4087 75.9H51.1613V73.9ZM78.4613 98.95V96.95H43.0613V98.95V100.95H78.4613V98.95ZM43.0613 98.95L41.1604 98.3282L35.9104 114.378L37.8113 115L39.7122 115.622L44.9622 99.5718L43.0613 98.95ZM37.8113 115V113H2.86133V115V117H37.8113V115ZM2.86133 115L4.73959 115.687L43.5896 9.48711L41.7113 8.8L39.8331 8.11289L0.983062 114.313L2.86133 115ZM41.7113 8.8V10.8H80.1113V8.8V6.8H41.7113V8.8ZM80.1113 8.8L78.2322 9.48476L116.932 115.685L118.811 115L120.69 114.315L81.9905 8.11523L80.1113 8.8ZM118.811 115V113H83.7113V115V117H118.811V115ZM83.7113 115L85.6122 114.378L80.3622 98.3282L78.4613 98.95L76.5604 99.5718L81.8104 115.622L83.7113 115ZM70.3613 73.9L72.2635 73.282L62.6635 43.732L60.7613 44.35L58.8592 44.9679L68.4592 74.518L70.3613 73.9ZM60.7613 44.35L58.8592 43.732L49.2592 73.282L51.1613 73.9L53.0635 74.518L62.6635 44.9679L60.7613 44.35ZM51.1613 73.9V75.9H70.3613V73.9V71.9H51.1613V73.9ZM191.477 45.1L189.776 46.1527L190.363 47.1H191.477V45.1ZM185.927 40.3L185.033 42.0889L185.063 42.104L185.094 42.1181L185.927 40.3ZM162.377 44.8L163.898 46.0985L163.906 46.0895L163.913 46.0804L162.377 44.8ZM162.977 80.35L161.528 81.7284V81.7284L162.977 80.35ZM199.577 77.2L201.171 78.4082L203.603 75.2H199.577V77.2ZM173.027 77.2H171.027V79.2H173.027V77.2ZM173.027 53.65V51.65H171.027V53.65H173.027ZM227.177 53.65H229.177V51.65H227.177V53.65ZM227.177 86.95L228.905 87.9564L229.177 87.4899V86.95H227.177ZM208.127 107.35L209.264 108.995L209.271 108.99L209.278 108.986L208.127 107.35ZM148.577 109L147.589 110.739L147.602 110.746L147.615 110.753L148.577 109ZM129.827 89.8L128.056 90.7288L128.06 90.7372L128.065 90.7456L129.827 89.8ZM129.827 33.7L128.065 32.7544L128.06 32.7627L128.056 32.7712L129.827 33.7ZM148.577 14.65L149.548 16.3983L149.556 16.3938L149.565 16.3891L148.577 14.65ZM210.977 17.8L209.757 19.3846L209.765 19.3913L210.977 17.8ZM226.577 45.1V47.1H228.874L228.558 44.8244L226.577 45.1ZM191.477 45.1L193.177 44.0473C191.656 41.5889 189.493 39.7341 186.76 38.4819L185.927 40.3L185.094 42.1181C187.161 43.0658 188.698 44.4111 189.776 46.1527L191.477 45.1ZM185.927 40.3L186.821 38.5111C184.08 37.1402 180.857 36.5 177.227 36.5V38.5V40.5C180.397 40.5 182.974 41.0598 185.033 42.0889L185.927 40.3ZM177.227 38.5V36.5C170.346 36.5 164.787 38.7837 160.841 43.5196L162.377 44.8L163.913 46.0804C166.967 42.4163 171.308 40.5 177.227 40.5V38.5ZM162.377 44.8L160.856 43.5015C156.956 48.0697 155.127 54.2352 155.127 61.75H157.127H159.127C159.127 54.8648 160.798 49.7303 163.898 46.0985L162.377 44.8ZM157.127 61.75H155.127C155.127 70.3261 157.139 77.1145 161.528 81.7284L162.977 80.35L164.426 78.9716C161.015 75.3855 159.127 69.7739 159.127 61.75H157.127ZM162.977 80.35L161.528 81.7284C165.944 86.3707 172.569 88.5 180.977 88.5V86.5V84.5C173.185 84.5 167.81 82.5293 164.426 78.9716L162.977 80.35ZM180.977 86.5V88.5C189.31 88.5 196.097 85.1009 201.171 78.4082L199.577 77.2L197.983 75.9918C193.657 81.6991 188.043 84.5 180.977 84.5V86.5ZM199.577 77.2V75.2H173.027V77.2V79.2H199.577V77.2ZM173.027 77.2H175.027V53.65H173.027H171.027V77.2H173.027ZM173.027 53.65V55.65H227.177V53.65V51.65H173.027V53.65ZM227.177 53.65H225.177V86.95H227.177H229.177V53.65H227.177ZM227.177 86.95L225.449 85.9436C221.005 93.5745 214.86 100.166 206.976 105.714L208.127 107.35L209.278 108.986C217.594 103.134 224.149 96.1255 228.905 87.9564L227.177 86.95ZM208.127 107.35L206.99 105.705C199.301 111.02 189.476 113.75 177.377 113.75V115.75V117.75C190.078 117.75 200.753 114.88 209.264 108.995L208.127 107.35ZM177.377 115.75V113.75C166.654 113.75 157.396 111.558 149.539 107.247L148.577 109L147.615 110.753C156.158 115.442 166.1 117.75 177.377 117.75V115.75ZM148.577 109L149.565 107.261C141.792 102.847 135.811 96.7218 131.589 88.8544L129.827 89.8L128.065 90.7456C132.643 99.2782 139.162 105.953 147.589 110.739L148.577 109ZM129.827 89.8L131.598 88.8712C127.468 80.9942 125.377 71.9703 125.377 61.75H123.377H121.377C121.377 72.5297 123.586 82.2058 128.056 90.7288L129.827 89.8ZM123.377 61.75H125.377C125.377 51.5297 127.468 42.5058 131.598 34.6288L129.827 33.7L128.056 32.7712C123.586 41.2942 121.377 50.9703 121.377 61.75H123.377ZM129.827 33.7L131.589 34.6456C135.809 26.7819 141.785 20.7113 149.548 16.3983L148.577 14.65L147.606 12.9017C139.169 17.5887 132.645 24.2181 128.065 32.7544L129.827 33.7ZM148.577 14.65L149.565 16.3891C157.316 11.9872 166.464 9.74999 177.077 9.74999V7.74999V5.74999C165.89 5.74999 156.038 8.11279 147.589 12.9109L148.577 14.65ZM177.077 7.74999V9.74999C190.655 9.74999 201.49 13.0185 209.757 19.3846L210.977 17.8L212.197 16.2154C203.064 9.1815 191.299 5.74999 177.077 5.74999V7.74999ZM210.977 17.8L209.765 19.3913C218.123 25.7542 223.065 34.3696 224.596 45.3756L226.577 45.1L228.558 44.8244C226.889 32.8304 221.431 23.2458 212.189 16.2087L210.977 17.8ZM226.577 45.1V43.1H191.477V45.1V47.1H226.577V45.1ZM272.47 35.35V33.35H270.47V35.35H272.47ZM272.47 48.4H270.47V50.4H272.47V48.4ZM305.47 48.4H307.47V46.4H305.47V48.4ZM305.47 73.45V75.45H307.47V73.45H305.47ZM272.47 73.45V71.45H270.47V73.45H272.47ZM272.47 88.45H270.47V90.45H272.47V88.45ZM309.97 88.45H311.97V86.45H309.97V88.45ZM309.97 115V117H311.97V115H309.97ZM239.17 115H237.17V117H239.17V115ZM239.17 8.8V6.8H237.17V8.8H239.17ZM309.97 8.8H311.97V6.8H309.97V8.8ZM309.97 35.35V37.35H311.97V35.35H309.97ZM272.47 35.35H270.47V48.4H272.47H274.47V35.35H272.47ZM272.47 48.4V50.4H305.47V48.4V46.4H272.47V48.4ZM305.47 48.4H303.47V73.45H305.47H307.47V48.4H305.47ZM305.47 73.45V71.45H272.47V73.45V75.45H305.47V73.45ZM272.47 73.45H270.47V88.45H272.47H274.47V73.45H272.47ZM272.47 88.45V90.45H309.97V88.45V86.45H272.47V88.45ZM309.97 88.45H307.97V115H309.97H311.97V88.45H309.97ZM309.97 115V113H239.17V115V117H309.97V115ZM239.17 115H241.17V8.8H239.17H237.17V115H239.17ZM239.17 8.8V10.8H309.97V8.8V6.8H239.17V8.8ZM309.97 8.8H307.97V35.35H309.97H311.97V8.8H309.97ZM309.97 35.35V33.35H272.47V35.35V37.35H309.97V35.35ZM424.37 115V117H426.37V115H424.37ZM391.07 115L389.4 116.102L389.993 117H391.07V115ZM355.82 61.6L357.489 60.4982L353.82 54.9398V61.6H355.82ZM355.82 115V117H357.82V115H355.82ZM322.52 115H320.52V117H322.52V115ZM322.52 8.8V6.8H320.52V8.8H322.52ZM355.82 8.8L357.497 7.711L356.906 6.8H355.82V8.8ZM391.07 63.1L389.392 64.189L393.07 69.8539V63.1H391.07ZM391.07 8.8V6.8H389.07V8.8H391.07ZM424.37 8.8H426.37V6.8H424.37V8.8ZM424.37 115V113H391.07V115V117H424.37V115ZM391.07 115L392.739 113.898L357.489 60.4982L355.82 61.6L354.15 62.7018L389.4 116.102L391.07 115ZM355.82 61.6H353.82V115H355.82H357.82V61.6H355.82ZM355.82 115V113H322.52V115V117H355.82V115ZM322.52 115H324.52V8.8H322.52H320.52V115H322.52ZM322.52 8.8V10.8H355.82V8.8V6.8H322.52V8.8ZM355.82 8.8L354.142 9.889L389.392 64.189L391.07 63.1L392.747 62.011L357.497 7.711L355.82 8.8ZM391.07 63.1H393.07V8.8H391.07H389.07V63.1H391.07ZM391.07 8.8V10.8H424.37V8.8V6.8H391.07V8.8ZM424.37 8.8H422.37V115H424.37H426.37V8.8H424.37ZM442.714 33.7L440.943 32.7712L440.938 32.7797L440.934 32.7882L442.714 33.7ZM461.014 14.65L462.004 16.3878L462.012 16.3831L462.02 16.3783L461.014 14.65ZM513.514 13L512.64 14.7987L512.655 14.806L512.67 14.813L513.514 13ZM531.214 27.55L529.587 28.7125L529.593 28.721L529.599 28.7294L531.214 27.55ZM540.364 49.6V51.6H542.753L542.333 49.2484L540.364 49.6ZM505.264 49.6L503.445 50.4315L503.979 51.6H505.264V49.6ZM498.364 41.5L497.229 43.1464L497.261 43.1687L497.294 43.1896L498.364 41.5ZM474.964 44.8L473.391 43.5644L473.382 43.5761L473.373 43.5879L474.964 44.8ZM474.964 78.7L473.373 79.9121L473.382 79.9239L473.391 79.9356L474.964 78.7ZM498.364 82.15L499.46 83.8229L499.467 83.8185L499.473 83.8141L498.364 82.15ZM505.264 73.9V71.9H503.979L503.445 73.0685L505.264 73.9ZM540.364 73.9L542.333 74.2516L542.753 71.9H540.364V73.9ZM531.214 95.95L529.599 94.7706L529.593 94.779L529.587 94.7875L531.214 95.95ZM513.514 110.65L514.368 112.459L514.379 112.453L513.514 110.65ZM461.014 109L460.008 110.728L460.016 110.733L460.024 110.738L461.014 109ZM442.714 89.8L440.934 90.7117L440.938 90.7203L440.943 90.7288L442.714 89.8ZM436.414 61.75H438.414C438.414 51.5224 440.458 42.4924 444.494 34.6117L442.714 33.7L440.934 32.7882C436.57 41.3076 434.414 50.9775 434.414 61.75H436.414ZM442.714 33.7L444.485 34.6288C448.611 26.7611 454.443 20.6948 462.004 16.3878L461.014 14.65L460.024 12.9122C451.785 17.6052 445.417 24.2389 440.943 32.7712L442.714 33.7ZM461.014 14.65L462.02 16.3783C469.566 11.9846 478.507 9.74999 488.914 9.74999V7.74999V5.74999C477.921 5.74999 468.262 8.11543 460.008 12.9216L461.014 14.65ZM488.914 7.74999V9.74999C497.856 9.74999 505.75 11.4496 512.64 14.7987L513.514 13L514.388 11.2013C506.878 7.55037 498.372 5.74999 488.914 5.74999V7.74999ZM513.514 13L512.67 14.813C519.67 18.0734 525.295 22.7047 529.587 28.7125L531.214 27.55L532.842 26.3875C528.133 19.7953 521.958 14.7266 514.358 11.187L513.514 13ZM531.214 27.55L529.599 28.7294C534.003 34.7615 536.944 41.8223 538.395 49.9516L540.364 49.6L542.333 49.2484C540.785 40.5777 537.625 32.9385 532.829 26.3706L531.214 27.55ZM540.364 49.6V47.6H505.264V49.6V51.6H540.364V49.6ZM505.264 49.6L507.083 48.7685C505.336 44.9467 502.789 41.9352 499.434 39.8104L498.364 41.5L497.294 43.1896C499.939 44.8648 501.992 47.2533 503.445 50.4315L505.264 49.6ZM498.364 41.5L499.5 39.8536C496.239 37.605 492.486 36.5 488.314 36.5V38.5V40.5C491.742 40.5 494.689 41.395 497.229 43.1464L498.364 41.5ZM488.314 38.5V36.5C482.135 36.5 477.091 38.8553 473.391 43.5644L474.964 44.8L476.537 46.0356C479.437 42.3447 483.293 40.5 488.314 40.5V38.5ZM474.964 44.8L473.373 43.5879C469.829 48.239 468.164 54.3618 468.164 61.75H470.164H472.164C472.164 54.9382 473.699 49.7609 476.555 46.0121L474.964 44.8ZM470.164 61.75H468.164C468.164 69.1382 469.829 75.2609 473.373 79.9121L474.964 78.7L476.555 77.4879C473.699 73.739 472.164 68.5618 472.164 61.75H470.164ZM474.964 78.7L473.391 79.9356C477.091 84.6447 482.135 87 488.314 87V85V83C483.293 83 479.437 81.1553 476.537 77.4644L474.964 78.7ZM488.314 85V87C492.465 87 496.203 85.9567 499.46 83.8229L498.364 82.15L497.268 80.4771C494.725 82.1433 491.764 83 488.314 83V85ZM498.364 82.15L499.473 83.8141C502.804 81.5939 505.339 78.5459 507.083 74.7315L505.264 73.9L503.445 73.0685C501.989 76.2541 499.924 78.7061 497.255 80.4859L498.364 82.15ZM505.264 73.9V75.9H540.364V73.9V71.9H505.264V73.9ZM540.364 73.9L538.395 73.5484C536.944 81.6777 534.003 88.7385 529.599 94.7706L531.214 95.95L532.829 97.1294C537.625 90.5615 540.785 82.9223 542.333 74.2516L540.364 73.9ZM531.214 95.95L529.587 94.7875C525.292 100.8 519.66 105.486 512.649 108.847L513.514 110.65L514.379 112.453C521.969 108.814 528.136 103.7 532.842 97.1125L531.214 95.95ZM513.514 110.65L512.66 108.841C505.766 112.097 497.865 113.75 488.914 113.75V115.75V117.75C498.364 117.75 506.863 116.003 514.368 112.458L513.514 110.65ZM488.914 115.75V113.75C478.499 113.75 469.553 111.562 462.004 107.262L461.014 109L460.024 110.738C468.275 115.438 477.929 117.75 488.914 117.75V115.75ZM461.014 109L462.02 107.272C454.45 102.863 448.613 96.7426 444.485 88.8712L442.714 89.8L440.943 90.7288C445.415 99.2574 451.778 105.937 460.008 110.728L461.014 109ZM442.714 89.8L444.494 88.8882C440.458 81.0076 438.414 71.9775 438.414 61.75H436.414H434.414C434.414 72.5225 436.57 82.1924 440.934 90.7117L442.714 89.8ZM654.354 8.8L656.131 9.716L657.634 6.8H654.354V8.8ZM616.254 82.75L614.476 81.834L614.254 82.2651V82.75H616.254ZM616.254 115V117H618.254V115H616.254ZM582.953 115H580.953V117H582.953V115ZM582.953 82.75H584.953V82.2651L584.731 81.834L582.953 82.75ZM544.854 8.8V6.8H541.573L543.076 9.716L544.854 8.8ZM582.953 8.8L584.777 7.97897L584.246 6.8H582.953V8.8ZM599.904 46.45L598.08 47.271L599.904 51.3219L601.727 47.271L599.904 46.45ZM616.854 8.8V6.8H615.561L615.03 7.97897L616.854 8.8ZM654.354 8.8L652.576 7.884L614.476 81.834L616.254 82.75L618.031 83.666L656.131 9.716L654.354 8.8ZM616.254 82.75H614.254V115H616.254H618.254V82.75H616.254ZM616.254 115V113H582.953V115V117H616.254V115ZM582.953 115H584.953V82.75H582.953H580.953V115H582.953ZM582.953 82.75L584.731 81.834L546.631 7.884L544.854 8.8L543.076 9.716L581.176 83.666L582.953 82.75ZM544.854 8.8V10.8H582.953V8.8V6.8H544.854V8.8ZM582.953 8.8L581.13 9.62103L598.08 47.271L599.904 46.45L601.727 45.629L584.777 7.97897L582.953 8.8ZM599.904 46.45L601.727 47.271L618.677 9.62103L616.854 8.8L615.03 7.97897L598.08 45.629L599.904 46.45ZM616.854 8.8V10.8H654.354V8.8V6.8H616.854V8.8Z" fill="white" mask="url(#path-1-outside-1_647_3)"/>
<path d="M203.449 81.6H212.005V127.17L181.129 98.092V125H172.573V79.43L203.449 108.508V81.6ZM229.419 113.84C229.419 115.7 229.791 117.147 230.535 118.18C231.279 119.172 232.477 119.668 234.131 119.668C235.288 119.668 236.28 119.441 237.107 118.986C237.975 118.49 238.636 117.808 239.091 116.94C239.587 116.072 239.835 115.039 239.835 113.84V96.48H247.833V125H239.835V120.66C238.925 122.272 237.768 123.512 236.363 124.38C234.957 125.207 233.242 125.62 231.217 125.62C227.827 125.62 225.285 124.649 223.591 122.706C221.937 120.763 221.111 118.097 221.111 114.708V96.48H229.419V113.84ZM269.617 125.62C266.517 125.62 263.81 125 261.495 123.76C259.181 122.52 257.383 120.805 256.101 118.614C254.861 116.382 254.241 113.757 254.241 110.74C254.241 107.681 254.861 105.057 256.101 102.866C257.383 100.634 259.181 98.9187 261.495 97.72C263.81 96.48 266.538 95.86 269.679 95.86C272.821 95.86 275.487 96.4387 277.677 97.596C279.909 98.712 281.604 100.365 282.761 102.556C283.919 104.705 284.497 107.309 284.497 110.368C284.497 110.74 284.477 111.133 284.435 111.546C284.435 111.959 284.415 112.29 284.373 112.538H258.829V107.578H277.367L275.197 110.43C275.363 110.182 275.507 109.851 275.631 109.438C275.797 108.983 275.879 108.611 275.879 108.322C275.879 106.917 275.611 105.718 275.073 104.726C274.577 103.734 273.854 102.949 272.903 102.37C271.953 101.791 270.837 101.502 269.555 101.502C267.985 101.502 266.662 101.853 265.587 102.556C264.554 103.217 263.748 104.23 263.169 105.594C262.632 106.917 262.343 108.57 262.301 110.554C262.301 112.455 262.57 114.067 263.107 115.39C263.686 116.713 264.533 117.725 265.649 118.428C266.765 119.131 268.109 119.482 269.679 119.482C271.457 119.482 272.965 119.151 274.205 118.49C275.487 117.787 276.541 116.754 277.367 115.39L284.373 117.56C282.885 120.247 280.901 122.272 278.421 123.636C275.983 124.959 273.048 125.62 269.617 125.62ZM292.4 115.142C293.599 116.258 294.715 117.167 295.748 117.87C296.781 118.531 297.753 119.027 298.662 119.358C299.613 119.689 300.501 119.854 301.328 119.854C302.403 119.854 303.229 119.627 303.808 119.172C304.387 118.676 304.676 118.015 304.676 117.188C304.676 116.444 304.428 115.824 303.932 115.328C303.477 114.791 302.795 114.315 301.886 113.902C300.977 113.489 299.819 113.055 298.414 112.6C297.091 112.104 295.81 111.525 294.57 110.864C293.33 110.161 292.297 109.252 291.47 108.136C290.685 106.979 290.292 105.511 290.292 103.734C290.292 102.039 290.747 100.613 291.656 99.456C292.565 98.2573 293.785 97.3687 295.314 96.79C296.885 96.17 298.621 95.86 300.522 95.86C302.134 95.86 303.643 96.0667 305.048 96.48C306.453 96.8933 307.755 97.4513 308.954 98.154C310.153 98.8153 311.207 99.6007 312.116 100.51L308.582 105.47C307.549 104.354 306.309 103.445 304.862 102.742C303.457 102.039 302.072 101.688 300.708 101.688C299.799 101.688 299.075 101.874 298.538 102.246C298.042 102.577 297.794 103.093 297.794 103.796C297.794 104.416 298.042 104.974 298.538 105.47C299.075 105.925 299.819 106.338 300.77 106.71C301.762 107.082 302.878 107.537 304.118 108.074C305.647 108.653 307.053 109.314 308.334 110.058C309.657 110.761 310.711 111.649 311.496 112.724C312.281 113.799 312.674 115.204 312.674 116.94C312.674 119.792 311.744 122.024 309.884 123.636C308.024 125.207 305.461 125.992 302.196 125.992C300.171 125.992 298.311 125.723 296.616 125.186C294.963 124.649 293.454 123.946 292.09 123.078C290.767 122.169 289.569 121.197 288.494 120.164L292.4 115.142ZM314.982 96.48H332.59V103.238H314.982V96.48ZM319.88 86.56H327.63V125H319.88V86.56ZM345.159 96.48V125H337.285V96.48H345.159ZM353.529 104.85C352.991 104.354 352.433 103.982 351.855 103.734C351.317 103.445 350.635 103.3 349.809 103.3C348.817 103.3 347.969 103.569 347.267 104.106C346.564 104.643 346.027 105.408 345.655 106.4C345.324 107.351 345.159 108.508 345.159 109.872L342.927 107.64C342.927 105.367 343.361 103.362 344.229 101.626C345.097 99.8487 346.233 98.4433 347.639 97.41C349.044 96.3353 350.491 95.798 351.979 95.798C353.012 95.798 353.983 95.984 354.893 96.356C355.843 96.728 356.608 97.286 357.187 98.03L353.529 104.85ZM359.033 110.74C359.033 107.764 359.715 105.16 361.079 102.928C362.484 100.696 364.365 98.96 366.721 97.72C369.118 96.48 371.825 95.86 374.843 95.86C377.86 95.86 380.547 96.48 382.903 97.72C385.3 98.96 387.181 100.696 388.545 102.928C389.95 105.16 390.653 107.764 390.653 110.74C390.653 113.675 389.95 116.279 388.545 118.552C387.181 120.784 385.3 122.52 382.903 123.76C380.547 125 377.86 125.62 374.843 125.62C371.825 125.62 369.118 125 366.721 123.76C364.365 122.52 362.484 120.784 361.079 118.552C359.715 116.279 359.033 113.675 359.033 110.74ZM367.217 110.74C367.217 112.352 367.547 113.778 368.209 115.018C368.911 116.217 369.841 117.167 370.999 117.87C372.156 118.531 373.437 118.862 374.843 118.862C376.248 118.862 377.529 118.531 378.687 117.87C379.844 117.167 380.753 116.217 381.415 115.018C382.117 113.778 382.469 112.352 382.469 110.74C382.469 109.128 382.117 107.702 381.415 106.462C380.753 105.222 379.844 104.271 378.687 103.61C377.529 102.949 376.248 102.618 374.843 102.618C373.437 102.618 372.156 102.949 370.999 103.61C369.841 104.271 368.911 105.222 368.209 106.462C367.547 107.702 367.217 109.128 367.217 110.74ZM422.863 115.142L423.917 108.136H444.749L445.803 115.142H422.863ZM434.209 95.674L427.699 110.616L427.885 112.6L422.181 125H412.199L434.209 79.058L456.219 125H446.175L440.595 112.972L440.719 110.74L434.209 95.674ZM461.347 81.6H470.399V125H461.347V81.6ZM476.103 125H467.051V116.94H475.793C477.695 116.94 479.493 116.692 481.187 116.196C482.882 115.659 484.37 114.832 485.651 113.716C486.933 112.6 487.925 111.195 488.627 109.5C489.371 107.764 489.743 105.697 489.743 103.3C489.743 100.903 489.371 98.8567 488.627 97.162C487.925 95.426 486.933 94 485.651 92.884C484.37 91.768 482.882 90.962 481.187 90.466C479.493 89.9287 477.695 89.66 475.793 89.66H467.051V81.6H476.103C480.65 81.6 484.618 82.4887 488.007 84.266C491.438 86.0433 494.104 88.5647 496.005 91.83C497.907 95.054 498.857 98.8773 498.857 103.3C498.857 107.723 497.907 111.567 496.005 114.832C494.104 118.056 491.438 120.557 488.007 122.334C484.618 124.111 480.65 125 476.103 125ZM537.024 81.6H545.58V127.17L514.704 98.092V125H506.148V79.43L537.024 108.508V81.6Z" fill="#214182"/>
</svg>
