<svg width="709" height="261" viewBox="0 0 709 261" fill="none" xmlns="http://www.w3.org/2000/svg">
<mask id="path-1-outside-1_595_18" maskUnits="userSpaceOnUse" x="-0.820312" y="-0.300049" width="710" height="261" fill="black">
<rect fill="white" x="-0.820312" y="-0.300049" width="710" height="261"/>
<path d="M103.35 107.7H70.05L34.8 54.3V107.7H1.5V1.49995H34.8L70.05 55.7999V1.49995H103.35V107.7ZM207.945 23.0999V107.7H174.645V94.8C172.045 98.8 168.545 102.05 164.145 104.55C159.845 107.05 154.695 108.3 148.695 108.3C138.995 108.3 131.395 105.05 125.895 98.55C120.495 92.05 117.795 83.25 117.795 72.1499V23.0999H150.945V67.9499C150.945 71.9499 151.995 75.15 154.095 77.55C156.295 79.85 159.195 81 162.795 81C166.495 81 169.395 79.85 171.495 77.55C173.595 75.15 174.645 71.9499 174.645 67.9499V23.0999H207.945ZM304.884 64.65C304.884 66.95 304.734 69.15 304.434 71.2499H250.884C251.384 78.55 254.434 82.2 260.034 82.2C263.634 82.2 266.234 80.55 267.834 77.2499H303.084C301.884 83.25 299.334 88.65 295.434 93.45C291.634 98.15 286.784 101.9 280.884 104.7C275.084 107.4 268.684 108.75 261.684 108.75C253.284 108.75 245.784 107 239.184 103.5C232.684 100 227.584 95 223.884 88.5C220.284 81.9 218.484 74.2 218.484 65.4C218.484 56.6 220.284 48.9499 223.884 42.4499C227.584 35.8499 232.684 30.7999 239.184 27.2999C245.784 23.7999 253.284 22.0499 261.684 22.0499C270.084 22.0499 277.534 23.7999 284.034 27.2999C290.634 30.6999 295.734 35.5999 299.334 41.9999C303.034 48.3999 304.884 55.9499 304.884 64.65ZM271.134 56.7C271.134 53.8999 270.234 51.7999 268.434 50.3999C266.634 48.8999 264.384 48.1499 261.684 48.1499C255.784 48.1499 252.334 50.9999 251.334 56.7H271.134ZM353.066 108.75C345.066 108.75 337.966 107.45 331.766 104.85C325.666 102.25 320.816 98.65 317.216 94.05C313.616 89.4499 311.566 84.2499 311.066 78.45H343.016C343.416 80.95 344.466 82.8 346.166 84C347.966 85.1999 350.216 85.7999 352.916 85.7999C354.616 85.7999 355.966 85.4499 356.966 84.7499C357.966 83.9499 358.466 82.9999 358.466 81.9C358.466 79.9999 357.416 78.6499 355.316 77.8499C353.216 77.0499 349.666 76.1499 344.666 75.15C338.566 73.9499 333.516 72.6499 329.516 71.2499C325.616 69.85 322.166 67.45 319.166 64.0499C316.266 60.6499 314.816 55.9499 314.816 49.9499C314.816 44.7499 316.166 40.0499 318.866 35.8499C321.666 31.5499 325.766 28.1999 331.166 25.8C336.566 23.2999 343.116 22.0499 350.816 22.0499C362.216 22.0499 371.116 24.8499 377.516 30.4499C384.016 36.0499 387.916 43.3499 389.216 52.3499H359.666C359.166 50.0499 358.116 48.2999 356.516 47.0999C354.916 45.7999 352.766 45.1499 350.066 45.1499C348.366 45.1499 347.066 45.4999 346.166 46.1999C345.266 46.7999 344.816 47.7499 344.816 49.0499C344.816 50.7499 345.866 52.0499 347.966 52.9499C350.066 53.7499 353.416 54.5999 358.016 55.4999C364.116 56.6999 369.266 58.0499 373.466 59.5499C377.666 61.0499 381.316 63.6499 384.416 67.3499C387.516 70.9499 389.066 75.9499 389.066 82.3499C389.066 87.35 387.616 91.85 384.716 95.85C381.816 99.85 377.616 103 372.116 105.3C366.716 107.6 360.366 108.75 353.066 108.75ZM454.931 79.3499V107.7H442.331C419.131 107.7 407.531 96.15 407.531 73.05V50.8499H397.031V23.0999H407.531V2.69994H440.831V23.0999H454.631V50.8499H440.831V73.6499C440.831 75.6499 441.281 77.0999 442.181 77.9999C443.181 78.8999 444.781 79.3499 446.981 79.3499H454.931ZM500.913 38.6999C504.313 33.8 508.463 29.8999 513.363 26.9999C518.263 23.9999 523.363 22.4999 528.663 22.4999V58.0499H519.213C512.913 58.0499 508.263 59.1499 505.263 61.3499C502.363 63.55 500.913 67.45 500.913 73.05V107.7H467.613V23.0999H500.913V38.6999ZM577.833 108.75C569.333 108.75 561.683 107 554.883 103.5C548.083 100 542.733 95 538.833 88.5C535.033 81.9 533.133 74.2 533.133 65.4C533.133 56.6 535.033 48.9499 538.833 42.4499C542.733 35.8499 548.083 30.7999 554.883 27.2999C561.683 23.7999 569.333 22.0499 577.833 22.0499C586.333 22.0499 593.983 23.7999 600.783 27.2999C607.583 30.7999 612.883 35.8499 616.683 42.4499C620.583 48.9499 622.533 56.6 622.533 65.4C622.533 74.2 620.583 81.9 616.683 88.5C612.883 95 607.583 100 600.783 103.5C593.983 107 586.333 108.75 577.833 108.75ZM577.833 79.95C580.933 79.95 583.533 78.75 585.633 76.35C587.733 73.8499 588.783 70.1999 588.783 65.4C588.783 60.5999 587.733 56.9999 585.633 54.6C583.533 52.1 580.933 50.8499 577.833 50.8499C574.733 50.8499 572.133 52.1 570.033 54.6C567.933 56.9999 566.883 60.5999 566.883 65.4C566.883 70.1999 567.883 73.8499 569.883 76.35C571.983 78.75 574.633 79.95 577.833 79.95ZM670.644 108.75C662.644 108.75 655.544 107.45 649.344 104.85C643.244 102.25 638.394 98.65 634.794 94.05C631.194 89.4499 629.144 84.2499 628.644 78.45H660.594C660.994 80.95 662.044 82.8 663.744 84C665.544 85.1999 667.794 85.7999 670.494 85.7999C672.194 85.7999 673.544 85.4499 674.544 84.7499C675.544 83.9499 676.044 82.9999 676.044 81.9C676.044 79.9999 674.994 78.6499 672.894 77.8499C670.794 77.0499 667.244 76.1499 662.244 75.15C656.144 73.9499 651.094 72.6499 647.094 71.2499C643.194 69.85 639.744 67.45 636.744 64.0499C633.844 60.6499 632.394 55.9499 632.394 49.9499C632.394 44.7499 633.744 40.0499 636.444 35.8499C639.244 31.5499 643.344 28.1999 648.744 25.8C654.144 23.2999 660.694 22.0499 668.394 22.0499C679.794 22.0499 688.694 24.8499 695.094 30.4499C701.594 36.0499 705.494 43.3499 706.794 52.3499H677.244C676.744 50.0499 675.694 48.2999 674.094 47.0999C672.494 45.7999 670.344 45.1499 667.644 45.1499C665.944 45.1499 664.644 45.4999 663.744 46.1999C662.844 46.7999 662.394 47.7499 662.394 49.0499C662.394 50.7499 663.444 52.0499 665.544 52.9499C667.644 53.7499 670.994 54.5999 675.594 55.4999C681.694 56.6999 686.844 58.0499 691.044 59.5499C695.244 61.0499 698.894 63.6499 701.994 67.3499C705.094 70.9499 706.644 75.9499 706.644 82.3499C706.644 87.35 705.194 91.85 702.294 95.85C699.394 99.85 695.194 103 689.694 105.3C684.294 107.6 677.944 108.75 670.644 108.75ZM32.0449 204.45C32.0449 193.95 34.1449 184.6 38.3449 176.4C42.6449 168.2 48.7449 161.85 56.6449 157.35C64.5449 152.75 73.8449 150.45 84.5449 150.45C93.7449 150.45 101.945 152.2 109.145 155.7C116.445 159.1 122.345 163.95 126.845 170.25C131.445 176.55 134.495 183.9 135.995 192.3H100.895C99.2949 188.8 96.9949 186.1 93.9949 184.2C91.0949 182.2 87.7449 181.2 83.9449 181.2C78.3449 181.2 73.8949 183.3 70.5949 187.5C67.3949 191.7 65.7949 197.35 65.7949 204.45C65.7949 211.55 67.3949 217.2 70.5949 221.4C73.8949 225.6 78.3449 227.7 83.9449 227.7C87.7449 227.7 91.0949 226.75 93.9949 224.85C96.9949 222.85 99.2949 220.1 100.895 216.6H135.995C134.495 225 131.445 232.35 126.845 238.65C122.345 244.95 116.445 249.85 109.145 253.35C101.945 256.75 93.7449 258.45 84.5449 258.45C73.8449 258.45 64.5449 256.2 56.6449 251.7C48.7449 247.1 42.6449 240.7 38.3449 232.5C34.1449 224.3 32.0449 214.95 32.0449 204.45ZM181.284 146.7V257.7H147.984V146.7H181.284ZM213.124 166.35C207.324 166.35 202.674 164.8 199.174 161.7C195.674 158.6 193.924 154.7 193.924 150C193.924 145.2 195.674 141.25 199.174 138.15C202.674 134.95 207.324 133.35 213.124 133.35C218.824 133.35 223.424 134.95 226.924 138.15C230.424 141.25 232.174 145.2 232.174 150C232.174 154.7 230.424 158.6 226.924 161.7C223.424 164.8 218.824 166.35 213.124 166.35ZM229.624 173.1V257.7H196.324V173.1H229.624ZM326.564 214.65C326.564 216.95 326.414 219.15 326.114 221.25H272.564C273.064 228.55 276.114 232.2 281.714 232.2C285.314 232.2 287.914 230.55 289.514 227.25H324.764C323.564 233.25 321.014 238.65 317.114 243.45C313.314 248.15 308.464 251.9 302.564 254.7C296.764 257.4 290.364 258.75 283.364 258.75C274.964 258.75 267.464 257 260.864 253.5C254.364 250 249.264 245 245.564 238.5C241.964 231.9 240.164 224.2 240.164 215.4C240.164 206.6 241.964 198.95 245.564 192.45C249.264 185.85 254.364 180.8 260.864 177.3C267.464 173.8 274.964 172.05 283.364 172.05C291.764 172.05 299.214 173.8 305.714 177.3C312.314 180.7 317.414 185.6 321.014 192C324.714 198.4 326.564 205.95 326.564 214.65ZM292.814 206.7C292.814 203.9 291.914 201.8 290.114 200.4C288.314 198.9 286.064 198.15 283.364 198.15C277.464 198.15 274.014 201 273.014 206.7H292.814ZM396.346 172.5C406.046 172.5 413.596 175.75 418.996 182.25C424.496 188.75 427.246 197.55 427.246 208.65V257.7H394.096V212.85C394.096 208.85 392.996 205.7 390.796 203.4C388.696 201 385.846 199.8 382.246 199.8C378.546 199.8 375.646 201 373.546 203.4C371.446 205.7 370.396 208.85 370.396 212.85V257.7H337.096V173.1H370.396V186C372.996 182 376.446 178.75 380.746 176.25C385.146 173.75 390.346 172.5 396.346 172.5ZM494.336 229.35V257.7H481.736C458.536 257.7 446.936 246.15 446.936 223.05V200.85H436.436V173.1H446.936V152.7H480.236V173.1H494.036V200.85H480.236V223.65C480.236 225.65 480.686 227.1 481.586 228C482.586 228.9 484.186 229.35 486.386 229.35H494.336ZM588.918 214.65C588.918 216.95 588.768 219.15 588.468 221.25H534.918C535.418 228.55 538.468 232.2 544.068 232.2C547.668 232.2 550.268 230.55 551.868 227.25H587.118C585.918 233.25 583.368 238.65 579.468 243.45C575.668 248.15 570.818 251.9 564.918 254.7C559.118 257.4 552.718 258.75 545.718 258.75C537.318 258.75 529.818 257 523.218 253.5C516.718 250 511.618 245 507.918 238.5C504.318 231.9 502.518 224.2 502.518 215.4C502.518 206.6 504.318 198.95 507.918 192.45C511.618 185.85 516.718 180.8 523.218 177.3C529.818 173.8 537.318 172.05 545.718 172.05C554.118 172.05 561.568 173.8 568.068 177.3C574.668 180.7 579.768 185.6 583.368 192C587.068 198.4 588.918 205.95 588.918 214.65ZM555.168 206.7C555.168 203.9 554.268 201.8 552.468 200.4C550.668 198.9 548.418 198.15 545.718 198.15C539.818 198.15 536.368 201 535.368 206.7H555.168ZM637.099 258.75C629.099 258.75 621.999 257.45 615.799 254.85C609.699 252.25 604.849 248.65 601.249 244.05C597.649 239.45 595.599 234.25 595.099 228.45H627.049C627.449 230.95 628.499 232.8 630.199 234C631.999 235.2 634.249 235.8 636.949 235.8C638.649 235.8 639.999 235.45 640.999 234.75C641.999 233.95 642.499 233 642.499 231.9C642.499 230 641.449 228.65 639.349 227.85C637.249 227.05 633.699 226.15 628.699 225.15C622.599 223.95 617.549 222.65 613.549 221.25C609.649 219.85 606.199 217.45 603.199 214.05C600.299 210.65 598.849 205.95 598.849 199.95C598.849 194.75 600.199 190.05 602.899 185.85C605.699 181.55 609.799 178.2 615.199 175.8C620.599 173.3 627.149 172.05 634.849 172.05C646.249 172.05 655.149 174.85 661.549 180.45C668.049 186.05 671.949 193.35 673.249 202.35H643.699C643.199 200.05 642.149 198.3 640.549 197.1C638.949 195.8 636.799 195.15 634.099 195.15C632.399 195.15 631.099 195.5 630.199 196.2C629.299 196.8 628.849 197.75 628.849 199.05C628.849 200.75 629.899 202.05 631.999 202.95C634.099 203.75 637.449 204.6 642.049 205.5C648.149 206.7 653.299 208.05 657.499 209.55C661.699 211.05 665.349 213.65 668.449 217.35C671.549 220.95 673.099 225.95 673.099 232.35C673.099 237.35 671.649 241.85 668.749 245.85C665.849 249.85 661.649 253 656.149 255.3C650.749 257.6 644.399 258.75 637.099 258.75Z"/>
</mask>
<path d="M103.35 107.7V109.2H104.85V107.7H103.35ZM70.05 107.7L68.7982 108.526L69.2428 109.2H70.05V107.7ZM34.8 54.2999L36.0518 53.4736L33.3 49.3048V54.2999H34.8ZM34.8 107.7V109.2H36.3V107.7H34.8ZM1.5 107.7H0V109.2H1.5V107.7ZM1.5 1.49995V-4.57764e-05H0V1.49995H1.5ZM34.8 1.49995L36.0581 0.683205L35.6146 -4.57764e-05H34.8V1.49995ZM70.05 55.7999L68.7919 56.6167L71.55 60.8654V55.7999H70.05ZM70.05 1.49995V-4.57764e-05H68.55V1.49995H70.05ZM103.35 1.49995H104.85V-4.57764e-05H103.35V1.49995ZM103.35 107.7V106.2H70.05V107.7V109.2H103.35V107.7ZM70.05 107.7L71.3018 106.874L36.0518 53.4736L34.8 54.2999L33.5482 55.1263L68.7982 108.526L70.05 107.7ZM34.8 54.2999H33.3V107.7H34.8H36.3V54.2999H34.8ZM34.8 107.7V106.2H1.5V107.7V109.2H34.8V107.7ZM1.5 107.7H3V1.49995H1.5H0V107.7H1.5ZM1.5 1.49995V2.99995H34.8V1.49995V-4.57764e-05H1.5V1.49995ZM34.8 1.49995L33.5419 2.3167L68.7919 56.6167L70.05 55.7999L71.3081 54.9832L36.0581 0.683205L34.8 1.49995ZM70.05 55.7999H71.55V1.49995H70.05H68.55V55.7999H70.05ZM70.05 1.49995V2.99995H103.35V1.49995V-4.57764e-05H70.05V1.49995ZM103.35 1.49995H101.85V107.7H103.35H104.85V1.49995H103.35ZM207.945 23.1H209.445V21.6H207.945V23.1ZM207.945 107.7V109.2H209.445V107.7H207.945ZM174.645 107.7H173.145V109.2H174.645V107.7ZM174.645 94.7999H176.145V89.7399L173.387 93.9825L174.645 94.7999ZM164.145 104.55L163.404 103.246L163.397 103.249L163.391 103.253L164.145 104.55ZM125.895 98.5499L124.741 99.5085L124.749 99.5189L125.895 98.5499ZM117.795 23.1V21.6H116.295V23.1H117.795ZM150.945 23.1H152.445V21.6H150.945V23.1ZM154.095 77.5499L152.966 78.5377L152.988 78.5627L153.011 78.5868L154.095 77.5499ZM171.495 77.5499L172.602 78.5614L172.613 78.5496L172.623 78.5377L171.495 77.5499ZM174.645 23.1V21.6H173.145V23.1H174.645ZM207.945 23.1H206.445V107.7H207.945H209.445V23.1H207.945ZM207.945 107.7V106.2H174.645V107.7V109.2H207.945V107.7ZM174.645 107.7H176.145V94.7999H174.645H173.145V107.7H174.645ZM174.645 94.7999L173.387 93.9825C170.926 97.769 167.608 100.857 163.404 103.246L164.145 104.55L164.886 105.854C169.481 103.243 173.163 99.8309 175.902 95.6174L174.645 94.7999ZM164.145 104.55L163.391 103.253C159.363 105.595 154.484 106.8 148.695 106.8V108.3V109.8C154.905 109.8 160.326 108.505 164.898 105.847L164.145 104.55ZM148.695 108.3V106.8C139.367 106.8 132.213 103.695 127.04 97.581L125.895 98.5499L124.749 99.5189C130.576 106.405 138.622 109.8 148.695 109.8V108.3ZM125.895 98.5499L127.048 97.5914C121.934 91.4353 119.295 83.0108 119.295 72.1499H117.795H116.295C116.295 83.4891 119.055 92.6646 124.741 99.5085L125.895 98.5499ZM117.795 72.1499H119.295V23.1H117.795H116.295V72.1499H117.795ZM117.795 23.1V24.6H150.945V23.1V21.6H117.795V23.1ZM150.945 23.1H149.445V67.9499H150.945H152.445V23.1H150.945ZM150.945 67.9499H149.445C149.445 72.2177 150.57 75.8 152.966 78.5377L154.095 77.5499L155.223 76.5622C153.419 74.4999 152.445 71.6822 152.445 67.9499H150.945ZM154.095 77.5499L153.011 78.5868C155.532 81.2227 158.844 82.5 162.795 82.5V81V79.5C159.545 79.5 157.057 78.4773 155.178 76.5131L154.095 77.5499ZM162.795 81V82.5C166.83 82.5 170.165 81.2311 172.602 78.5614L171.495 77.5499L170.387 76.5385C168.624 78.4688 166.159 79.5 162.795 79.5V81ZM171.495 77.5499L172.623 78.5377C175.019 75.8 176.145 72.2177 176.145 67.9499H174.645H173.145C173.145 71.6822 172.17 74.4999 170.366 76.5622L171.495 77.5499ZM174.645 67.9499H176.145V23.1H174.645H173.145V67.9499H174.645ZM174.645 23.1V24.6H207.945V23.1V21.6H174.645V23.1ZM304.434 71.25V72.75H305.735L305.919 71.4621L304.434 71.25ZM250.884 71.25V69.75H249.278L249.388 71.3524L250.884 71.25ZM267.834 77.25V75.75H266.895L266.485 76.5955L267.834 77.25ZM303.084 77.25L304.555 77.5441L304.914 75.75H303.084V77.25ZM295.434 93.45L294.27 92.5041L294.268 92.5069L295.434 93.45ZM280.884 104.7L281.517 106.06L281.527 106.055L280.884 104.7ZM239.184 103.5L238.473 104.821L238.482 104.825L239.184 103.5ZM223.884 88.5L222.568 89.2182L222.574 89.2302L222.581 89.242L223.884 88.5ZM223.884 42.4499L222.576 41.7164L222.572 41.7232L223.884 42.4499ZM239.184 27.2999L238.482 25.9747L238.473 25.9792L239.184 27.2999ZM284.034 27.2999L283.323 28.6207L283.335 28.6271L283.347 28.6334L284.034 27.2999ZM299.334 41.9999L298.027 42.7353L298.031 42.743L298.036 42.7507L299.334 41.9999ZM271.134 56.7V58.2H272.634V56.7H271.134ZM268.434 50.3999L267.474 51.5523L267.494 51.5685L267.513 51.584L268.434 50.3999ZM251.334 56.7L249.857 56.4408L249.548 58.2H251.334V56.7ZM304.884 64.65H303.384C303.384 66.8848 303.239 69.0137 302.949 71.0378L304.434 71.25L305.919 71.4621C306.23 69.2862 306.384 67.0151 306.384 64.65H304.884ZM304.434 71.25V69.75H250.884V71.25V72.75H304.434V71.25ZM250.884 71.25L249.388 71.3524C249.649 75.1588 250.585 78.2574 252.396 80.4243C254.258 82.6522 256.877 83.7 260.034 83.7V82.2V80.7C257.591 80.7 255.886 79.9227 254.698 78.5006C253.459 77.0175 252.62 74.6411 252.381 71.1474L250.884 71.25ZM260.034 82.2V83.7C262.07 83.7 263.91 83.2307 265.488 82.2289C267.065 81.2282 268.286 79.7568 269.184 77.9044L267.834 77.25L266.485 76.5955C265.783 78.0431 264.904 79.0467 263.881 79.696C262.859 80.3442 261.599 80.7 260.034 80.7V82.2ZM267.834 77.25V78.75H303.084V77.25V75.75H267.834V77.25ZM303.084 77.25L301.614 76.9558C300.462 82.7142 298.018 87.891 294.27 92.5041L295.434 93.45L296.599 94.3958C300.65 89.4089 303.307 83.7857 304.555 77.5441L303.084 77.25ZM295.434 93.45L294.268 92.5069C290.62 97.0182 285.955 100.633 280.241 103.345L280.884 104.7L281.527 106.055C287.614 103.167 292.648 99.2817 296.601 94.393L295.434 93.45ZM280.884 104.7L280.251 103.34C274.668 105.939 268.487 107.25 261.684 107.25V108.75V110.25C268.882 110.25 275.501 108.861 281.517 106.06L280.884 104.7ZM261.684 108.75V107.25C253.499 107.25 246.245 105.546 239.887 102.175L239.184 103.5L238.482 104.825C245.324 108.454 253.07 110.25 261.684 110.25V108.75ZM239.184 103.5L239.896 102.179C233.647 98.8146 228.751 94.0166 225.188 87.7579L223.884 88.5L222.581 89.242C226.418 95.9833 231.722 101.185 238.473 104.821L239.184 103.5ZM223.884 88.5L225.201 87.7817C221.74 81.4369 219.984 73.9919 219.984 65.4H218.484H216.984C216.984 74.408 218.828 82.363 222.568 89.2182L223.884 88.5ZM218.484 65.4H219.984C219.984 56.8073 221.741 49.4165 225.197 43.1767L223.884 42.4499L222.572 41.7232C218.828 48.4834 216.984 56.3926 216.984 65.4H218.484ZM223.884 42.4499L225.193 43.1835C228.757 36.8254 233.653 31.9821 239.896 28.6207L239.184 27.2999L238.473 25.9792C231.716 29.6178 226.412 34.8745 222.576 41.7164L223.884 42.4499ZM239.184 27.2999L239.887 28.6251C246.245 25.2536 253.499 23.5499 261.684 23.5499V22.0499V20.5499C253.07 20.5499 245.324 22.3463 238.482 25.9748L239.184 27.2999ZM261.684 22.0499V23.5499C269.871 23.5499 277.07 25.2537 283.323 28.6207L284.034 27.2999L284.746 25.9792C277.998 22.3462 270.298 20.5499 261.684 20.5499V22.0499ZM284.034 27.2999L283.347 28.6334C289.69 31.9006 294.573 36.5941 298.027 42.7353L299.334 41.9999L300.642 41.2646C296.896 34.6058 291.579 29.4993 284.721 25.9665L284.034 27.2999ZM299.334 41.9999L298.036 42.7507C301.582 48.885 303.384 56.1666 303.384 64.65H304.884H306.384C306.384 55.7333 304.487 47.9149 300.633 41.2492L299.334 41.9999ZM271.134 56.7H272.634C272.634 53.554 271.604 50.9649 269.355 49.2159L268.434 50.3999L267.513 51.584C268.865 52.635 269.634 54.2459 269.634 56.7H271.134ZM268.434 50.3999L269.395 49.2476C267.285 47.4893 264.679 46.6499 261.684 46.6499V48.1499V49.6499C264.09 49.6499 265.984 50.3106 267.474 51.5523L268.434 50.3999ZM261.684 48.1499V46.6499C258.498 46.6499 255.786 47.4217 253.717 49.131C251.644 50.8433 250.4 53.3443 249.857 56.4408L251.334 56.7L252.812 56.9591C253.269 54.3556 254.25 52.5816 255.627 51.4439C257.008 50.3032 258.971 49.6499 261.684 49.6499V48.1499ZM251.334 56.7V58.2H271.134V56.7V55.2H251.334V56.7ZM331.766 104.85L331.178 106.23L331.186 106.233L331.766 104.85ZM311.066 78.4499V76.9499H309.431L309.572 78.5788L311.066 78.4499ZM343.016 78.4499L344.497 78.213L344.295 76.9499H343.016V78.4499ZM346.166 84L345.301 85.2254L345.317 85.2369L345.334 85.248L346.166 84ZM356.966 84.7499L357.826 85.9788L357.866 85.9513L357.903 85.9213L356.966 84.7499ZM344.666 75.1499L344.96 73.6791L344.956 73.6782L344.666 75.1499ZM329.516 71.25L329.009 72.6618L329.02 72.6657L329.516 71.25ZM319.166 64.0499L318.025 65.0234L318.033 65.0329L318.041 65.0424L319.166 64.0499ZM318.866 35.8499L317.609 35.0314L317.604 35.0388L318.866 35.8499ZM331.166 25.7999L331.775 27.1707L331.786 27.166L331.796 27.1611L331.166 25.7999ZM377.516 30.4499L376.528 31.5788L376.537 31.5864L377.516 30.4499ZM389.216 52.3499V53.8499H390.948L390.701 52.1355L389.216 52.3499ZM359.666 52.3499L358.2 52.6686L358.457 53.8499H359.666V52.3499ZM356.516 47.0999L355.57 48.2641L355.593 48.2825L355.616 48.2999L356.516 47.0999ZM346.166 46.1999L346.998 47.448L347.044 47.4176L347.087 47.384L346.166 46.1999ZM347.966 52.95L347.375 54.3287L347.403 54.3408L347.432 54.3517L347.966 52.95ZM358.016 55.4999L358.306 54.0282L358.304 54.0279L358.016 55.4999ZM373.466 59.5499L372.962 60.9626V60.9626L373.466 59.5499ZM384.416 67.3499L383.266 68.3133L383.273 68.321L383.279 68.3287L384.416 67.3499ZM384.716 95.85L385.93 96.7304V96.7304L384.716 95.85ZM372.116 105.3L371.537 103.916L371.528 103.92L372.116 105.3ZM353.066 108.75V107.25C345.228 107.25 338.331 105.976 332.346 103.467L331.766 104.85L331.186 106.233C337.601 108.923 344.904 110.25 353.066 110.25V108.75ZM331.766 104.85L332.354 103.47C326.455 100.956 321.821 97.5004 318.397 93.1255L317.216 94.0499L316.035 94.9744C319.811 99.7995 324.877 103.544 331.178 106.23L331.766 104.85ZM317.216 94.0499L318.397 93.1255C314.976 88.7539 313.035 83.8301 312.56 78.3211L311.066 78.4499L309.572 78.5788C310.097 84.6698 312.256 90.146 316.035 94.9744L317.216 94.0499ZM311.066 78.4499V79.9499H343.016V78.4499V76.9499H311.066V78.4499ZM343.016 78.4499L341.535 78.6869C341.984 81.4935 343.201 83.7434 345.301 85.2254L346.166 84L347.031 82.7745C345.731 81.8565 344.848 80.4064 344.497 78.213L343.016 78.4499ZM346.166 84L345.334 85.248C347.435 86.6489 349.993 87.2999 352.916 87.2999V85.7999V84.2999C350.439 84.2999 348.497 83.751 346.998 82.7519L346.166 84ZM352.916 85.7999V87.2999C354.807 87.2999 356.493 86.9123 357.826 85.9788L356.966 84.7499L356.106 83.5211C355.439 83.9876 354.425 84.2999 352.916 84.2999V85.7999ZM356.966 84.7499L357.903 85.9213C359.193 84.889 359.966 83.5334 359.966 81.9H358.466H356.966C356.966 82.4665 356.739 83.0109 356.029 83.5786L356.966 84.7499ZM358.466 81.9H359.966C359.966 80.6555 359.615 79.5091 358.863 78.5415C358.124 77.5918 357.078 76.916 355.85 76.4482L355.316 77.8499L354.782 79.2517C355.654 79.5839 356.183 79.9831 356.494 80.3834C356.792 80.7658 356.966 81.2444 356.966 81.9H358.466ZM355.316 77.8499L355.85 76.4482C353.623 75.5999 349.966 74.6802 344.96 73.6791L344.666 75.1499L344.372 76.6208C349.366 77.6197 352.809 78.5 354.782 79.2517L355.316 77.8499ZM344.666 75.1499L344.956 73.6782C338.896 72.4862 333.921 71.2025 330.012 69.8342L329.516 71.25L329.02 72.6657C333.111 74.0974 338.236 75.4137 344.376 76.6217L344.666 75.1499ZM329.516 71.25L330.023 69.8382C326.383 68.5315 323.14 66.2862 320.291 63.0575L319.166 64.0499L318.041 65.0424C321.192 68.6137 324.849 71.1684 329.009 72.6617L329.516 71.25ZM319.166 64.0499L320.307 63.0765C317.708 60.0289 316.316 55.7163 316.316 49.9499H314.816H313.316C313.316 56.1836 314.824 61.271 318.025 65.0234L319.166 64.0499ZM314.816 49.9499H316.316C316.316 45.025 317.59 40.6088 320.128 36.6611L318.866 35.8499L317.604 35.0388C314.742 39.4911 313.316 44.4749 313.316 49.9499H314.816ZM318.866 35.8499L320.123 36.6685C322.742 32.6464 326.599 29.4713 331.775 27.1707L331.166 25.7999L330.557 24.4292C324.933 26.9286 320.59 30.4535 317.609 35.0314L318.866 35.8499ZM331.166 25.7999L331.796 27.1611C336.95 24.7753 343.272 23.5499 350.816 23.5499V22.0499V20.5499C342.96 20.5499 336.182 21.8246 330.536 24.4388L331.166 25.7999ZM350.816 22.0499V23.5499C361.978 23.5499 370.483 26.2893 376.528 31.5788L377.516 30.4499L378.504 29.3211C371.749 23.4106 362.454 20.5499 350.816 20.5499V22.0499ZM377.516 30.4499L376.537 31.5864C382.745 36.9352 386.48 43.8993 387.731 52.5644L389.216 52.3499L390.701 52.1355C389.352 42.8006 385.287 35.1647 378.495 29.3135L377.516 30.4499ZM389.216 52.3499V50.8499H359.666V52.3499V53.8499H389.216V52.3499ZM359.666 52.3499L361.132 52.0313C360.569 49.4447 359.354 47.3534 357.416 45.8999L356.516 47.0999L355.616 48.2999C356.878 49.2465 357.763 50.6552 358.2 52.6686L359.666 52.3499ZM356.516 47.0999L357.462 45.9358C355.521 44.3592 353.003 43.6499 350.066 43.6499V45.1499V46.6499C352.529 46.6499 354.311 47.2407 355.57 48.2641L356.516 47.0999ZM350.066 45.1499V43.6499C348.189 43.6499 346.51 44.0322 345.245 45.0159L346.166 46.1999L347.087 47.384C347.622 46.9677 348.543 46.6499 350.066 46.6499V45.1499ZM346.166 46.1999L345.334 44.9519C343.928 45.8889 343.316 47.3647 343.316 49.0499H344.816H346.316C346.316 48.1352 346.604 47.711 346.998 47.448L346.166 46.1999ZM344.816 49.0499H343.316C343.316 50.2365 343.692 51.3206 344.437 52.2425C345.161 53.1395 346.179 53.816 347.375 54.3287L347.966 52.95L348.557 51.5712C347.653 51.1839 347.096 50.7604 346.77 50.3574C346.465 49.9793 346.316 49.5634 346.316 49.0499H344.816ZM347.966 52.95L347.432 54.3517C349.658 55.1998 353.114 56.0693 357.728 56.972L358.016 55.4999L358.304 54.0279C353.718 53.1306 350.474 52.3001 348.5 51.5482L347.966 52.95ZM358.016 55.4999L357.727 56.9717C363.78 58.1625 368.853 59.4952 372.962 60.9626L373.466 59.5499L373.971 58.1373C369.679 56.6047 364.452 55.2374 358.306 54.0282L358.016 55.4999ZM373.466 59.5499L372.962 60.9626C376.89 62.3655 380.323 64.8004 383.266 68.3133L384.416 67.3499L385.566 66.3866C382.309 62.4995 378.442 59.7344 373.971 58.1373L373.466 59.5499ZM384.416 67.3499L383.279 68.3287C386.074 71.5744 387.566 76.1836 387.566 82.3499H389.066H390.566C390.566 75.7163 388.958 70.3255 385.553 66.3712L384.416 67.3499ZM389.066 82.3499H387.566C387.566 87.0378 386.214 91.2288 383.502 94.9695L384.716 95.85L385.93 96.7304C389.018 92.4711 390.566 87.6621 390.566 82.3499H389.066ZM384.716 95.85L383.502 94.9695C380.794 98.7044 376.836 101.7 371.537 103.916L372.116 105.3L372.695 106.684C378.396 104.3 382.838 100.996 385.93 96.7304L384.716 95.85ZM372.116 105.3L371.528 103.92C366.353 106.124 360.212 107.25 353.066 107.25V108.75V110.25C360.52 110.25 367.079 109.076 372.704 106.68L372.116 105.3ZM454.931 79.3499H456.431V77.8499H454.931V79.3499ZM454.931 107.7V109.2H456.431V107.7H454.931ZM407.531 50.8499H409.031V49.3499H407.531V50.8499ZM397.031 50.8499H395.531V52.3499H397.031V50.8499ZM397.031 23.1V21.6H395.531V23.1H397.031ZM407.531 23.1V24.6H409.031V23.1H407.531ZM407.531 2.69994V1.19994H406.031V2.69994H407.531ZM440.831 2.69994H442.331V1.19994H440.831V2.69994ZM440.831 23.1H439.331V24.6H440.831V23.1ZM454.631 23.1H456.131V21.6H454.631V23.1ZM454.631 50.8499V52.3499H456.131V50.8499H454.631ZM440.831 50.8499V49.3499H439.331V50.8499H440.831ZM442.181 77.9999L441.121 79.0606L441.148 79.0885L441.178 79.1149L442.181 77.9999ZM454.931 79.3499H453.431V107.7H454.931H456.431V79.3499H454.931ZM454.931 107.7V106.2H442.331V107.7V109.2H454.931V107.7ZM442.331 107.7V106.2C430.961 106.2 422.709 103.37 417.29 97.9745C411.872 92.5798 409.031 84.3671 409.031 73.0499H407.531H406.031C406.031 84.8328 408.991 93.9451 415.173 100.1C421.354 106.255 430.502 109.2 442.331 109.2V107.7ZM407.531 73.0499H409.031V50.8499H407.531H406.031V73.0499H407.531ZM407.531 50.8499V49.3499H397.031V50.8499V52.3499H407.531V50.8499ZM397.031 50.8499H398.531V23.1H397.031H395.531V50.8499H397.031ZM397.031 23.1V24.6H407.531V23.1V21.6H397.031V23.1ZM407.531 23.1H409.031V2.69994H407.531H406.031V23.1H407.531ZM407.531 2.69994V4.19994H440.831V2.69994V1.19994H407.531V2.69994ZM440.831 2.69994H439.331V23.1H440.831H442.331V2.69994H440.831ZM440.831 23.1V24.6H454.631V23.1V21.6H440.831V23.1ZM454.631 23.1H453.131V50.8499H454.631H456.131V23.1H454.631ZM454.631 50.8499V49.3499H440.831V50.8499V52.3499H454.631V50.8499ZM440.831 50.8499H439.331V73.6499H440.831H442.331V50.8499H440.831ZM440.831 73.6499H439.331C439.331 75.8274 439.815 77.7546 441.121 79.0606L442.181 77.9999L443.242 76.9393C442.748 76.4453 442.331 75.4725 442.331 73.6499H440.831ZM442.181 77.9999L441.178 79.1149C442.582 80.3789 444.632 80.8499 446.981 80.8499V79.3499V77.8499C444.931 77.8499 443.78 77.421 443.185 76.885L442.181 77.9999ZM446.981 79.3499V80.8499H454.931V79.3499V77.8499H446.981V79.3499ZM500.913 38.7H499.413V43.4929L502.146 39.5551L500.913 38.7ZM513.363 26.9999L514.127 28.2908L514.137 28.2851L514.146 28.2792L513.363 26.9999ZM528.663 22.4999H530.163V20.9999H528.663V22.4999ZM528.663 58.0499V59.5499H530.163V58.0499H528.663ZM505.263 61.3499L504.376 60.1403L504.366 60.1475L504.357 60.1549L505.263 61.3499ZM500.913 107.7V109.2H502.413V107.7H500.913ZM467.613 107.7H466.113V109.2H467.613V107.7ZM467.613 23.1V21.6H466.113V23.1H467.613ZM500.913 23.1H502.413V21.6H500.913V23.1ZM500.913 38.7L502.146 39.5551C505.429 34.8237 509.422 31.0757 514.127 28.2908L513.363 26.9999L512.599 25.7091C507.505 28.7242 503.198 32.7762 499.681 37.8448L500.913 38.7ZM513.363 26.9999L514.146 28.2792C518.831 25.411 523.663 23.9999 528.663 23.9999V22.4999V20.9999C523.064 20.9999 517.695 22.5889 512.58 25.7207L513.363 26.9999ZM528.663 22.4999H527.163V58.0499H528.663H530.163V22.4999H528.663ZM528.663 58.0499V56.5499H519.213V58.0499V59.5499H528.663V58.0499ZM519.213 58.0499V56.5499C512.794 56.5499 507.758 57.6606 504.376 60.1403L505.263 61.3499L506.15 62.5596C508.769 60.6393 513.033 59.5499 519.213 59.5499V58.0499ZM505.263 61.3499L504.357 60.1549C500.916 62.7649 499.413 67.2394 499.413 73.0499H500.913H502.413C502.413 67.6605 503.81 64.335 506.17 62.545L505.263 61.3499ZM500.913 73.0499H499.413V107.7H500.913H502.413V73.0499H500.913ZM500.913 107.7V106.2H467.613V107.7V109.2H500.913V107.7ZM467.613 107.7H469.113V23.1H467.613H466.113V107.7H467.613ZM467.613 23.1V24.6H500.913V23.1V21.6H467.613V23.1ZM500.913 23.1H499.413V38.7H500.913H502.413V23.1H500.913ZM554.883 103.5L555.569 102.166L554.883 103.5ZM538.833 88.5L537.533 89.2484L537.54 89.2601L537.547 89.2717L538.833 88.5ZM538.833 42.4499L537.541 41.6868L537.538 41.6929L538.833 42.4499ZM554.883 27.2999L555.569 28.6337V28.6337L554.883 27.2999ZM600.783 27.2999L600.096 28.6337V28.6337L600.783 27.2999ZM616.683 42.4499L615.383 43.1984L615.39 43.2101L615.397 43.2217L616.683 42.4499ZM616.683 88.5L615.391 87.7368L615.388 87.7429L616.683 88.5ZM600.783 103.5L600.096 102.166V102.166L600.783 103.5ZM585.633 76.35L586.762 77.3377L586.772 77.3263L586.781 77.3147L585.633 76.35ZM585.633 54.6L584.484 55.5647L584.494 55.5763L584.504 55.5877L585.633 54.6ZM570.033 54.6L571.162 55.5877L571.172 55.5763L571.181 55.5647L570.033 54.6ZM569.883 76.35L568.711 77.287L568.732 77.3128L568.754 77.3377L569.883 76.35ZM577.833 108.75V107.25C569.545 107.25 562.134 105.545 555.569 102.166L554.883 103.5L554.196 104.834C561.231 108.455 569.121 110.25 577.833 110.25V108.75ZM554.883 103.5L555.569 102.166C549.015 98.7929 543.874 93.9865 540.119 87.7282L538.833 88.5L537.547 89.2717C541.592 96.0135 547.15 101.207 554.196 104.834L554.883 103.5ZM538.833 88.5L540.133 87.7515C536.483 81.4125 534.633 73.9786 534.633 65.4H533.133H531.633C531.633 74.4213 533.583 82.3874 537.533 89.2484L538.833 88.5ZM533.133 65.4H534.633C534.633 56.8207 536.483 49.4411 540.128 43.207L538.833 42.4499L537.538 41.6929C533.582 48.4588 531.633 56.3792 531.633 65.4H533.133ZM538.833 42.4499L540.124 43.213C543.881 36.8558 549.021 32.0039 555.569 28.6337L554.883 27.2999L554.196 25.9662C547.144 29.596 541.585 34.8441 537.541 41.6869L538.833 42.4499ZM554.883 27.2999L555.569 28.6337C562.134 25.2547 569.545 23.5499 577.833 23.5499V22.0499V20.5499C569.121 20.5499 561.231 22.3452 554.196 25.9662L554.883 27.2999ZM577.833 22.0499V23.5499C586.121 23.5499 593.531 25.2547 600.096 28.6337L600.783 27.2999L601.469 25.9662C594.434 22.3452 586.545 20.5499 577.833 20.5499V22.0499ZM600.783 27.2999L600.096 28.6337C606.641 32.0022 611.727 36.8495 615.383 43.1984L616.683 42.4499L617.983 41.7015C614.038 34.8504 608.525 29.5977 601.469 25.9662L600.783 27.2999ZM616.683 42.4499L615.397 43.2217C619.135 49.4532 621.033 56.8274 621.033 65.4H622.533H624.033C624.033 56.3725 622.03 48.4467 617.969 41.6782L616.683 42.4499ZM622.533 65.4H621.033C621.033 73.9719 619.136 81.4004 615.391 87.7369L616.683 88.5L617.974 89.263C622.03 82.3995 624.033 74.428 624.033 65.4H622.533ZM616.683 88.5L615.388 87.7429C611.734 93.9927 606.647 98.7946 600.096 102.166L600.783 103.5L601.469 104.834C608.519 101.205 614.031 96.0072 617.978 89.257L616.683 88.5ZM600.783 103.5L600.096 102.166C593.531 105.545 586.121 107.25 577.833 107.25V108.75V110.25C586.545 110.25 594.434 108.455 601.469 104.834L600.783 103.5ZM577.833 79.95V81.45C581.379 81.45 584.386 80.0525 586.762 77.3377L585.633 76.35L584.504 75.3622C582.679 77.4474 580.486 78.45 577.833 78.45V79.95ZM585.633 76.35L586.781 77.3147C589.194 74.4425 590.283 70.3917 590.283 65.4H588.783H587.283C587.283 70.0082 586.272 73.2574 584.484 75.3852L585.633 76.35ZM588.783 65.4H590.283C590.283 60.4143 589.197 56.3949 586.762 53.6122L585.633 54.6L584.504 55.5877C586.269 57.605 587.283 60.7856 587.283 65.4H588.783ZM585.633 54.6L586.781 53.6352C584.414 50.8165 581.402 49.3499 577.833 49.3499V50.8499V52.3499C580.463 52.3499 582.652 53.3834 584.484 55.5647L585.633 54.6ZM577.833 50.8499V49.3499C574.263 49.3499 571.252 50.8165 568.884 53.6352L570.033 54.6L571.181 55.5647C573.014 53.3834 575.202 52.3499 577.833 52.3499V50.8499ZM570.033 54.6L568.904 53.6122C566.469 56.3949 565.383 60.4143 565.383 65.4H566.883H568.383C568.383 60.7856 569.397 57.605 571.162 55.5877L570.033 54.6ZM566.883 65.4H565.383C565.383 70.3776 566.415 74.4169 568.711 77.287L569.883 76.35L571.054 75.4129C569.35 73.283 568.383 70.0223 568.383 65.4H566.883ZM569.883 76.35L568.754 77.3377C571.14 80.0645 574.202 81.45 577.833 81.45V79.95V78.45C575.064 78.45 572.826 77.4354 571.012 75.3622L569.883 76.35ZM649.344 104.85L648.756 106.23L648.764 106.233L649.344 104.85ZM628.644 78.4499V76.9499H627.009L627.15 78.5788L628.644 78.4499ZM660.594 78.4499L662.075 78.213L661.873 76.9499H660.594V78.4499ZM663.744 84L662.879 85.2254L662.895 85.2369L662.912 85.248L663.744 84ZM674.544 84.7499L675.404 85.9788L675.444 85.9513L675.481 85.9213L674.544 84.7499ZM662.244 75.1499L662.538 73.6791L662.534 73.6782L662.244 75.1499ZM647.094 71.25L646.587 72.6618L646.599 72.6657L647.094 71.25ZM636.744 64.0499L635.603 65.0234L635.611 65.0329L635.619 65.0424L636.744 64.0499ZM636.444 35.8499L635.187 35.0314L635.182 35.0388L636.444 35.8499ZM648.744 25.7999L649.353 27.1707L649.364 27.166L649.374 27.1611L648.744 25.7999ZM695.094 30.4499L694.106 31.5788L694.115 31.5864L695.094 30.4499ZM706.794 52.3499V53.8499H708.526L708.279 52.1355L706.794 52.3499ZM677.244 52.3499L675.778 52.6686L676.035 53.8499H677.244V52.3499ZM674.094 47.0999L673.148 48.2641L673.171 48.2825L673.194 48.2999L674.094 47.0999ZM663.744 46.1999L664.576 47.448L664.622 47.4176L664.665 47.384L663.744 46.1999ZM665.544 52.95L664.953 54.3287L664.981 54.3408L665.01 54.3517L665.544 52.95ZM675.594 55.4999L675.884 54.0282L675.882 54.0279L675.594 55.4999ZM691.044 59.5499L690.54 60.9626V60.9626L691.044 59.5499ZM701.994 67.3499L700.844 68.3133L700.851 68.321L700.857 68.3287L701.994 67.3499ZM702.294 95.85L703.509 96.7304V96.7304L702.294 95.85ZM689.694 105.3L689.115 103.916L689.106 103.92L689.694 105.3ZM670.644 108.75V107.25C662.806 107.25 655.909 105.976 649.924 103.467L649.344 104.85L648.764 106.233C655.179 108.923 662.482 110.25 670.644 110.25V108.75ZM649.344 104.85L649.932 103.47C644.033 100.956 639.399 97.5004 635.975 93.1255L634.794 94.0499L633.613 94.9744C637.389 99.7995 642.455 103.544 648.756 106.23L649.344 104.85ZM634.794 94.0499L635.975 93.1255C632.554 88.7539 630.614 83.8301 630.139 78.3211L628.644 78.4499L627.15 78.5788C627.675 84.6698 629.834 90.146 633.613 94.9744L634.794 94.0499ZM628.644 78.4499V79.9499H660.594V78.4499V76.9499H628.644V78.4499ZM660.594 78.4499L659.113 78.6869C659.562 81.4935 660.78 83.7434 662.879 85.2254L663.744 84L664.609 82.7745C663.309 81.8565 662.426 80.4064 662.075 78.213L660.594 78.4499ZM663.744 84L662.912 85.248C665.013 86.6489 667.572 87.2999 670.494 87.2999V85.7999V84.2999C668.017 84.2999 666.075 83.751 664.576 82.7519L663.744 84ZM670.494 85.7999V87.2999C672.385 87.2999 674.071 86.9123 675.404 85.9788L674.544 84.7499L673.684 83.5211C673.018 83.9876 672.004 84.2999 670.494 84.2999V85.7999ZM674.544 84.7499L675.481 85.9213C676.771 84.889 677.544 83.5334 677.544 81.9H676.044H674.544C674.544 82.4665 674.317 83.0109 673.607 83.5786L674.544 84.7499ZM676.044 81.9H677.544C677.544 80.6555 677.193 79.5091 676.441 78.5415C675.702 77.5918 674.656 76.916 673.428 76.4482L672.894 77.8499L672.36 79.2517C673.232 79.5839 673.761 79.9831 674.073 80.3834C674.37 80.7658 674.544 81.2444 674.544 81.9H676.044ZM672.894 77.8499L673.428 76.4482C671.201 75.5999 667.544 74.6802 662.538 73.6791L662.244 75.1499L661.95 76.6208C666.944 77.6197 670.387 78.5 672.36 79.2517L672.894 77.8499ZM662.244 75.1499L662.534 73.6782C656.474 72.4862 651.499 71.2025 647.59 69.8342L647.094 71.25L646.599 72.6657C650.689 74.0974 655.814 75.4137 661.955 76.6217L662.244 75.1499ZM647.094 71.25L647.601 69.8382C643.961 68.5315 640.718 66.2862 637.869 63.0575L636.744 64.0499L635.619 65.0424C638.771 68.6137 642.427 71.1684 646.587 72.6617L647.094 71.25ZM636.744 64.0499L637.885 63.0765C635.286 60.0289 633.894 55.7163 633.894 49.9499H632.394H630.894C630.894 56.1836 632.402 61.271 635.603 65.0234L636.744 64.0499ZM632.394 49.9499H633.894C633.894 45.025 635.168 40.6088 637.706 36.6611L636.444 35.8499L635.182 35.0388C632.32 39.4911 630.894 44.4749 630.894 49.9499H632.394ZM636.444 35.8499L637.701 36.6685C640.32 32.6464 644.177 29.4713 649.353 27.1707L648.744 25.7999L648.135 24.4292C642.511 26.9286 638.168 30.4535 635.187 35.0314L636.444 35.8499ZM648.744 25.7999L649.374 27.1611C654.528 24.7753 660.85 23.5499 668.394 23.5499V22.0499V20.5499C660.538 20.5499 653.761 21.8246 648.114 24.4388L648.744 25.7999ZM668.394 22.0499V23.5499C679.556 23.5499 688.061 26.2893 694.106 31.5788L695.094 30.4499L696.082 29.3211C689.327 23.4106 680.032 20.5499 668.394 20.5499V22.0499ZM695.094 30.4499L694.115 31.5864C700.323 36.9352 704.058 43.8993 705.31 52.5644L706.794 52.3499L708.279 52.1355C706.93 42.8006 702.865 35.1647 696.073 29.3135L695.094 30.4499ZM706.794 52.3499V50.8499H677.244V52.3499V53.8499H706.794V52.3499ZM677.244 52.3499L678.71 52.0313C678.148 49.4447 676.932 47.3534 674.994 45.8999L674.094 47.0999L673.194 48.2999C674.456 49.2465 675.341 50.6552 675.778 52.6686L677.244 52.3499ZM674.094 47.0999L675.04 45.9358C673.1 44.3592 670.581 43.6499 667.644 43.6499V45.1499V46.6499C670.107 46.6499 671.889 47.2407 673.148 48.2641L674.094 47.0999ZM667.644 45.1499V43.6499C665.767 43.6499 664.088 44.0322 662.823 45.0159L663.744 46.1999L664.665 47.384C665.2 46.9677 666.121 46.6499 667.644 46.6499V45.1499ZM663.744 46.1999L662.912 44.9519C661.507 45.8889 660.894 47.3647 660.894 49.0499H662.394H663.894C663.894 48.1352 664.182 47.711 664.576 47.448L663.744 46.1999ZM662.394 49.0499H660.894C660.894 50.2365 661.27 51.3206 662.015 52.2425C662.739 53.1395 663.757 53.816 664.953 54.3287L665.544 52.95L666.135 51.5712C665.231 51.1839 664.674 50.7604 664.349 50.3574C664.043 49.9793 663.894 49.5634 663.894 49.0499H662.394ZM665.544 52.95L665.01 54.3517C667.237 55.1998 670.692 56.0693 675.306 56.972L675.594 55.4999L675.882 54.0279C671.296 53.1306 668.052 52.3001 666.078 51.5482L665.544 52.95ZM675.594 55.4999L675.305 56.9717C681.358 58.1625 686.431 59.4952 690.54 60.9626L691.044 59.5499L691.549 58.1373C687.257 56.6047 682.031 55.2374 675.884 54.0282L675.594 55.4999ZM691.044 59.5499L690.54 60.9626C694.468 62.3655 697.901 64.8004 700.844 68.3133L701.994 67.3499L703.144 66.3866C699.887 62.4995 696.02 59.7344 691.549 58.1373L691.044 59.5499ZM701.994 67.3499L700.857 68.3287C703.652 71.5744 705.144 76.1836 705.144 82.3499H706.644H708.144C708.144 75.7163 706.536 70.3255 703.131 66.3712L701.994 67.3499ZM706.644 82.3499H705.144C705.144 87.0378 703.792 91.2288 701.08 94.9695L702.294 95.85L703.509 96.7304C706.597 92.4711 708.144 87.6621 708.144 82.3499H706.644ZM702.294 95.85L701.08 94.9695C698.372 98.7044 694.414 101.7 689.115 103.916L689.694 105.3L690.273 106.684C695.974 104.3 700.416 100.996 703.509 96.7304L702.294 95.85ZM689.694 105.3L689.106 103.92C683.932 106.124 677.79 107.25 670.644 107.25V108.75V110.25C678.098 110.25 684.657 109.076 690.282 106.68L689.694 105.3ZM38.3449 176.4L37.0165 175.703L37.0131 175.71L37.0099 175.716L38.3449 176.4ZM56.6449 157.35L57.3874 158.653L57.3936 158.65L57.3997 158.646L56.6449 157.35ZM109.145 155.7L108.489 157.049L108.5 157.054L108.512 157.06L109.145 155.7ZM126.845 170.25L125.624 171.122L125.629 171.128L125.633 171.134L126.845 170.25ZM135.995 192.3V193.8H137.787L137.472 192.036L135.995 192.3ZM100.895 192.3L99.5307 192.924L99.9313 193.8H100.895V192.3ZM93.9949 184.2L93.1433 185.435L93.1675 185.451L93.1924 185.467L93.9949 184.2ZM70.5949 187.5L69.4154 186.573L69.4085 186.582L69.4018 186.591L70.5949 187.5ZM70.5949 221.4L69.4018 222.309L69.4085 222.318L69.4154 222.327L70.5949 221.4ZM93.9949 224.85L94.817 226.105L94.827 226.098L93.9949 224.85ZM100.895 216.6V215.1H99.9313L99.5307 215.976L100.895 216.6ZM135.995 216.6L137.472 216.864L137.787 215.1H135.995V216.6ZM126.845 238.65L125.633 237.765L125.629 237.772L125.624 237.778L126.845 238.65ZM109.145 253.35L109.785 254.706L109.793 254.703L109.145 253.35ZM56.6449 251.7L55.8901 252.996L55.8963 253L55.9025 253.003L56.6449 251.7ZM38.3449 232.5L37.0099 233.184L37.0131 233.19L37.0165 233.197L38.3449 232.5ZM32.0449 204.45H33.5449C33.5449 194.154 35.6027 185.044 39.68 177.084L38.3449 176.4L37.0099 175.716C32.6872 184.156 30.5449 193.746 30.5449 204.45H32.0449ZM38.3449 176.4L39.6734 177.097C43.8427 169.146 49.7415 163.009 57.3874 158.653L56.6449 157.35L55.9025 156.047C47.7483 160.691 41.4472 167.254 37.0165 175.703L38.3449 176.4ZM56.6449 157.35L57.3997 158.646C65.0341 154.201 74.0645 151.95 84.5449 151.95V150.45V148.95C73.6254 148.95 64.0558 151.299 55.8901 156.054L56.6449 157.35ZM84.5449 150.45V151.95C93.5516 151.95 101.522 153.662 108.489 157.049L109.145 155.7L109.801 154.351C102.368 150.738 93.9382 148.95 84.5449 148.95V150.45ZM109.145 155.7L108.512 157.06C115.587 160.355 121.281 165.041 125.624 171.122L126.845 170.25L128.066 169.378C123.409 162.859 117.303 157.845 109.778 154.34L109.145 155.7ZM126.845 170.25L125.633 171.134C130.087 177.234 133.055 184.367 134.518 192.564L135.995 192.3L137.472 192.036C135.935 183.433 132.803 175.866 128.056 169.365L126.845 170.25ZM135.995 192.3V190.8H100.895V192.3V193.8H135.995V192.3ZM100.895 192.3L102.259 191.676C100.549 187.935 98.0638 185.001 94.7975 182.933L93.9949 184.2L93.1924 185.467C95.9261 187.199 98.041 189.665 99.5307 192.924L100.895 192.3ZM93.9949 184.2L94.8465 182.965C91.6762 180.779 88.024 179.7 83.9449 179.7V181.2V182.7C87.4659 182.7 90.5137 183.621 93.1433 185.435L93.9949 184.2ZM83.9449 181.2V179.7C77.9105 179.7 73.0154 181.991 69.4154 186.573L70.5949 187.5L71.7744 188.427C74.7744 184.608 78.7794 182.7 83.9449 182.7V181.2ZM70.5949 187.5L69.4018 186.591C65.944 191.129 64.2949 197.134 64.2949 204.45H65.7949H67.2949C67.2949 197.566 68.8459 192.271 71.7881 188.409L70.5949 187.5ZM65.7949 204.45H64.2949C64.2949 211.766 65.944 217.771 69.4018 222.309L70.5949 221.4L71.7881 220.491C68.8459 216.629 67.2949 211.334 67.2949 204.45H65.7949ZM70.5949 221.4L69.4154 222.327C73.0154 226.908 77.9105 229.2 83.9449 229.2V227.7V226.2C78.7794 226.2 74.7744 224.291 71.7744 220.473L70.5949 221.4ZM83.9449 227.7V229.2C88.0078 229.2 91.6494 228.18 94.817 226.105L93.9949 224.85L93.1729 223.595C90.5405 225.32 87.4821 226.2 83.9449 226.2V227.7ZM93.9949 224.85L94.827 226.098C98.0747 223.933 100.551 220.959 102.259 217.224L100.895 216.6L99.5307 215.976C98.0385 219.241 95.9151 221.767 93.1629 223.602L93.9949 224.85ZM100.895 216.6V218.1H135.995V216.6V215.1H100.895V216.6ZM135.995 216.6L134.518 216.336C133.055 224.533 130.087 231.666 125.633 237.765L126.845 238.65L128.056 239.534C132.803 233.034 135.935 225.467 137.472 216.864L135.995 216.6ZM126.845 238.65L125.624 237.778C121.278 243.863 115.579 248.602 108.496 251.997L109.145 253.35L109.793 254.703C117.311 251.098 123.412 246.037 128.066 239.522L126.845 238.65ZM109.145 253.35L108.504 251.994C101.534 255.285 93.5578 256.95 84.5449 256.95V258.45V259.95C93.9321 259.95 102.356 258.215 109.785 254.706L109.145 253.35ZM84.5449 258.45V256.95C74.0589 256.95 65.024 254.747 57.3874 250.397L56.6449 251.7L55.9025 253.003C64.0658 257.653 73.6309 259.95 84.5449 259.95V258.45ZM56.6449 251.7L57.3997 250.404C49.7468 245.948 43.8441 239.757 39.6734 231.803L38.3449 232.5L37.0165 233.197C41.4457 241.643 47.743 248.252 55.8901 252.996L56.6449 251.7ZM38.3449 232.5L39.68 231.816C35.6027 223.856 33.5449 214.746 33.5449 204.45H32.0449H30.5449C30.5449 215.154 32.6872 224.744 37.0099 233.184L38.3449 232.5ZM181.284 146.7H182.784V145.2H181.284V146.7ZM181.284 257.7V259.2H182.784V257.7H181.284ZM147.984 257.7H146.484V259.2H147.984V257.7ZM147.984 146.7V145.2H146.484V146.7H147.984ZM181.284 146.7H179.784V257.7H181.284H182.784V146.7H181.284ZM181.284 257.7V256.2H147.984V257.7V259.2H181.284V257.7ZM147.984 257.7H149.484V146.7H147.984H146.484V257.7H147.984ZM147.984 146.7V148.2H181.284V146.7V145.2H147.984V146.7ZM199.174 161.7L200.169 160.577V160.577L199.174 161.7ZM199.174 138.15L200.169 139.273L200.178 139.265L200.186 139.257L199.174 138.15ZM226.924 138.15L225.912 139.257L225.921 139.265L225.93 139.273L226.924 138.15ZM226.924 161.7L225.93 160.577V160.577L226.924 161.7ZM229.624 173.1H231.124V171.6H229.624V173.1ZM229.624 257.7V259.2H231.124V257.7H229.624ZM196.324 257.7H194.824V259.2H196.324V257.7ZM196.324 173.1V171.6H194.824V173.1H196.324ZM213.124 166.35V164.85C207.599 164.85 203.333 163.38 200.169 160.577L199.174 161.7L198.18 162.823C202.016 166.22 207.049 167.85 213.124 167.85V166.35ZM199.174 161.7L200.169 160.577C196.992 157.763 195.424 154.273 195.424 150H193.924H192.424C192.424 155.127 194.356 159.436 198.18 162.823L199.174 161.7ZM193.924 150H195.424C195.424 145.616 197 142.08 200.169 139.273L199.174 138.15L198.18 137.027C194.349 140.42 192.424 144.784 192.424 150H193.924ZM199.174 138.15L200.186 139.257C203.351 136.363 207.611 134.85 213.124 134.85V133.35V131.85C207.037 131.85 201.997 133.537 198.162 137.043L199.174 138.15ZM213.124 133.35V134.85C218.529 134.85 222.742 136.359 225.912 139.257L226.924 138.15L227.936 137.043C224.106 133.541 219.119 131.85 213.124 131.85V133.35ZM226.924 138.15L225.93 139.273C229.099 142.08 230.674 145.616 230.674 150H232.174H233.674C233.674 144.784 231.75 140.42 227.919 137.027L226.924 138.15ZM232.174 150H230.674C230.674 154.273 229.106 157.763 225.93 160.577L226.924 161.7L227.919 162.823C231.742 159.436 233.674 155.127 233.674 150H232.174ZM226.924 161.7L225.93 160.577C222.761 163.384 218.542 164.85 213.124 164.85V166.35V167.85C219.107 167.85 224.087 166.216 227.919 162.823L226.924 161.7ZM229.624 173.1H228.124V257.7H229.624H231.124V173.1H229.624ZM229.624 257.7V256.2H196.324V257.7V259.2H229.624V257.7ZM196.324 257.7H197.824V173.1H196.324H194.824V257.7H196.324ZM196.324 173.1V174.6H229.624V173.1V171.6H196.324V173.1ZM326.114 221.25V222.75H327.415L327.599 221.462L326.114 221.25ZM272.564 221.25V219.75H270.958L271.068 221.352L272.564 221.25ZM289.514 227.25V225.75H288.574L288.164 226.596L289.514 227.25ZM324.764 227.25L326.235 227.544L326.594 225.75H324.764V227.25ZM317.114 243.45L315.95 242.504L315.948 242.507L317.114 243.45ZM302.564 254.7L303.197 256.06L303.207 256.055L302.564 254.7ZM260.864 253.5L260.153 254.821L260.161 254.825L260.864 253.5ZM245.564 238.5L244.247 239.218L244.254 239.23L244.26 239.242L245.564 238.5ZM245.564 192.45L244.256 191.716L244.252 191.723L245.564 192.45ZM260.864 177.3L260.161 175.975L260.153 175.979L260.864 177.3ZM305.714 177.3L305.003 178.621L305.015 178.627L305.027 178.633L305.714 177.3ZM321.014 192L319.707 192.735L319.711 192.743L319.715 192.751L321.014 192ZM292.814 206.7V208.2H294.314V206.7H292.814ZM290.114 200.4L289.154 201.552L289.173 201.568L289.193 201.584L290.114 200.4ZM273.014 206.7L271.537 206.441L271.228 208.2H273.014V206.7ZM326.564 214.65H325.064C325.064 216.885 324.918 219.014 324.629 221.038L326.114 221.25L327.599 221.462C327.91 219.286 328.064 217.015 328.064 214.65H326.564ZM326.114 221.25V219.75H272.564V221.25V222.75H326.114V221.25ZM272.564 221.25L271.068 221.352C271.328 225.159 272.265 228.257 274.076 230.424C275.937 232.652 278.557 233.7 281.714 233.7V232.2V230.7C279.271 230.7 277.566 229.923 276.378 228.501C275.138 227.018 274.3 224.641 274.061 221.147L272.564 221.25ZM281.714 232.2V233.7C283.75 233.7 285.589 233.231 287.168 232.229C288.745 231.228 289.966 229.757 290.864 227.904L289.514 227.25L288.164 226.596C287.462 228.043 286.583 229.047 285.56 229.696C284.539 230.344 283.278 230.7 281.714 230.7V232.2ZM289.514 227.25V228.75H324.764V227.25V225.75H289.514V227.25ZM324.764 227.25L323.293 226.956C322.142 232.714 319.698 237.891 315.95 242.504L317.114 243.45L318.278 244.396C322.33 239.409 324.987 233.786 326.235 227.544L324.764 227.25ZM317.114 243.45L315.948 242.507C312.3 247.018 307.634 250.633 301.921 253.345L302.564 254.7L303.207 256.055C309.294 253.167 314.328 249.282 318.281 244.393L317.114 243.45ZM302.564 254.7L301.931 253.34C296.347 255.939 290.166 257.25 283.364 257.25V258.75V260.25C290.562 260.25 297.181 258.861 303.197 256.06L302.564 254.7ZM283.364 258.75V257.25C275.178 257.25 267.925 255.546 261.567 252.175L260.864 253.5L260.161 254.825C267.004 258.454 274.75 260.25 283.364 260.25V258.75ZM260.864 253.5L261.575 252.179C255.327 248.815 250.43 244.017 246.868 237.758L245.564 238.5L244.26 239.242C248.098 245.983 253.402 251.185 260.153 254.821L260.864 253.5ZM245.564 238.5L246.881 237.782C243.42 231.437 241.664 223.992 241.664 215.4H240.164H238.664C238.664 224.408 240.508 232.363 244.247 239.218L245.564 238.5ZM240.164 215.4H241.664C241.664 206.807 243.42 199.417 246.876 193.177L245.564 192.45L244.252 191.723C240.508 198.483 238.664 206.393 238.664 215.4H240.164ZM245.564 192.45L246.872 193.183C250.437 186.825 255.333 181.982 261.575 178.621L260.864 177.3L260.153 175.979C253.396 179.618 248.091 184.875 244.256 191.716L245.564 192.45ZM260.864 177.3L261.567 178.625C267.925 175.254 275.178 173.55 283.364 173.55V172.05V170.55C274.75 170.55 267.004 172.346 260.161 175.975L260.864 177.3ZM283.364 172.05V173.55C291.55 173.55 298.75 175.254 305.003 178.621L305.714 177.3L306.425 175.979C299.678 172.346 291.978 170.55 283.364 170.55V172.05ZM305.714 177.3L305.027 178.633C311.369 181.901 316.252 186.594 319.707 192.735L321.014 192L322.321 191.265C318.576 184.606 313.259 179.499 306.401 175.966L305.714 177.3ZM321.014 192L319.715 192.751C323.262 198.885 325.064 206.167 325.064 214.65H326.564H328.064C328.064 205.733 326.166 197.915 322.313 191.249L321.014 192ZM292.814 206.7H294.314C294.314 203.554 293.284 200.965 291.035 199.216L290.114 200.4L289.193 201.584C290.544 202.635 291.314 204.246 291.314 206.7H292.814ZM290.114 200.4L291.074 199.248C288.964 197.489 286.359 196.65 283.364 196.65V198.15V199.65C285.77 199.65 287.664 200.311 289.154 201.552L290.114 200.4ZM283.364 198.15V196.65C280.177 196.65 277.465 197.422 275.396 199.131C273.323 200.843 272.08 203.344 271.537 206.441L273.014 206.7L274.492 206.959C274.948 204.356 275.93 202.582 277.307 201.444C278.688 200.303 280.651 199.65 283.364 199.65V198.15ZM273.014 206.7V208.2H292.814V206.7V205.2H273.014V206.7ZM418.996 182.25L417.842 183.209L417.851 183.219L418.996 182.25ZM427.246 257.7V259.2H428.746V257.7H427.246ZM394.096 257.7H392.596V259.2H394.096V257.7ZM390.796 203.4L389.667 204.388L389.689 204.413L389.712 204.437L390.796 203.4ZM373.546 203.4L374.653 204.411L374.664 204.4L374.675 204.388L373.546 203.4ZM370.396 257.7V259.2H371.896V257.7H370.396ZM337.096 257.7H335.596V259.2H337.096V257.7ZM337.096 173.1V171.6H335.596V173.1H337.096ZM370.396 173.1H371.896V171.6H370.396V173.1ZM370.396 186H368.896V191.06L371.653 186.817L370.396 186ZM380.746 176.25L380.005 174.946L379.998 174.949L379.992 174.953L380.746 176.25ZM396.346 172.5V174C405.674 174 412.771 177.104 417.842 183.208L418.996 182.25L420.149 181.291C414.42 174.395 406.418 171 396.346 171V172.5ZM418.996 182.25L417.851 183.219C423.059 189.375 425.746 197.795 425.746 208.65H427.246H428.746C428.746 197.305 425.932 188.125 420.141 181.281L418.996 182.25ZM427.246 208.65H425.746V257.7H427.246H428.746V208.65H427.246ZM427.246 257.7V256.2H394.096V257.7V259.2H427.246V257.7ZM394.096 257.7H395.596V212.85H394.096H392.596V257.7H394.096ZM394.096 212.85H395.596C395.596 208.568 394.411 205.009 391.88 202.363L390.796 203.4L389.712 204.437C391.581 206.391 392.596 209.132 392.596 212.85H394.096ZM390.796 203.4L391.925 202.412C389.501 199.643 386.216 198.3 382.246 198.3V199.8V201.3C385.475 201.3 387.89 202.357 389.667 204.388L390.796 203.4ZM382.246 199.8V198.3C378.19 198.3 374.849 199.633 372.417 202.412L373.546 203.4L374.675 204.388C376.443 202.367 378.902 201.3 382.246 201.3V199.8ZM373.546 203.4L372.438 202.389C370.02 205.037 368.896 208.586 368.896 212.85H370.396H371.896C371.896 209.114 372.871 206.363 374.653 204.411L373.546 203.4ZM370.396 212.85H368.896V257.7H370.396H371.896V212.85H370.396ZM370.396 257.7V256.2H337.096V257.7V259.2H370.396V257.7ZM337.096 257.7H338.596V173.1H337.096H335.596V257.7H337.096ZM337.096 173.1V174.6H370.396V173.1V171.6H337.096V173.1ZM370.396 173.1H368.896V186H370.396H371.896V173.1H370.396ZM370.396 186L371.653 186.817C374.12 183.023 377.394 179.934 381.5 177.547L380.746 176.25L379.992 174.953C375.498 177.566 371.872 180.977 369.138 185.182L370.396 186ZM380.746 176.25L381.487 177.554C385.622 175.204 390.557 174 396.346 174V172.5V171C390.134 171 384.669 172.295 380.005 174.946L380.746 176.25ZM494.336 229.35H495.836V227.85H494.336V229.35ZM494.336 257.7V259.2H495.836V257.7H494.336ZM446.936 200.85H448.436V199.35H446.936V200.85ZM436.436 200.85H434.936V202.35H436.436V200.85ZM436.436 173.1V171.6H434.936V173.1H436.436ZM446.936 173.1V174.6H448.436V173.1H446.936ZM446.936 152.7V151.2H445.436V152.7H446.936ZM480.236 152.7H481.736V151.2H480.236V152.7ZM480.236 173.1H478.736V174.6H480.236V173.1ZM494.036 173.1H495.536V171.6H494.036V173.1ZM494.036 200.85V202.35H495.536V200.85H494.036ZM480.236 200.85V199.35H478.736V200.85H480.236ZM481.586 228L480.525 229.061L480.553 229.089L480.582 229.115L481.586 228ZM494.336 229.35H492.836V257.7H494.336H495.836V229.35H494.336ZM494.336 257.7V256.2H481.736V257.7V259.2H494.336V257.7ZM481.736 257.7V256.2C470.365 256.2 462.113 253.37 456.694 247.975C451.276 242.58 448.436 234.367 448.436 223.05H446.936H445.436C445.436 234.833 448.395 243.945 454.577 250.1C460.758 256.255 469.906 259.2 481.736 259.2V257.7ZM446.936 223.05H448.436V200.85H446.936H445.436V223.05H446.936ZM446.936 200.85V199.35H436.436V200.85V202.35H446.936V200.85ZM436.436 200.85H437.936V173.1H436.436H434.936V200.85H436.436ZM436.436 173.1V174.6H446.936V173.1V171.6H436.436V173.1ZM446.936 173.1H448.436V152.7H446.936H445.436V173.1H446.936ZM446.936 152.7V154.2H480.236V152.7V151.2H446.936V152.7ZM480.236 152.7H478.736V173.1H480.236H481.736V152.7H480.236ZM480.236 173.1V174.6H494.036V173.1V171.6H480.236V173.1ZM494.036 173.1H492.536V200.85H494.036H495.536V173.1H494.036ZM494.036 200.85V199.35H480.236V200.85V202.35H494.036V200.85ZM480.236 200.85H478.736V223.65H480.236H481.736V200.85H480.236ZM480.236 223.65H478.736C478.736 225.827 479.219 227.755 480.525 229.061L481.586 228L482.646 226.939C482.152 226.445 481.736 225.473 481.736 223.65H480.236ZM481.586 228L480.582 229.115C481.987 230.379 484.036 230.85 486.386 230.85V229.35V227.85C484.335 227.85 483.185 227.421 482.589 226.885L481.586 228ZM486.386 229.35V230.85H494.336V229.35V227.85H486.386V229.35ZM588.468 221.25V222.75H589.769L589.953 221.462L588.468 221.25ZM534.918 221.25V219.75H533.311L533.421 221.352L534.918 221.25ZM551.868 227.25V225.75H550.928L550.518 226.596L551.868 227.25ZM587.118 227.25L588.588 227.544L588.947 225.75H587.118V227.25ZM579.468 243.45L578.303 242.504L578.301 242.507L579.468 243.45ZM564.918 254.7L565.551 256.06L565.561 256.055L564.918 254.7ZM523.218 253.5L522.506 254.821L522.515 254.825L523.218 253.5ZM507.918 238.5L506.601 239.218L506.607 239.23L506.614 239.242L507.918 238.5ZM507.918 192.45L506.609 191.716L506.605 191.723L507.918 192.45ZM523.218 177.3L522.515 175.975L522.506 175.979L523.218 177.3ZM568.068 177.3L567.356 178.621L567.368 178.627L567.381 178.633L568.068 177.3ZM583.368 192L582.06 192.735L582.065 192.743L582.069 192.751L583.368 192ZM555.168 206.7V208.2H556.668V206.7H555.168ZM552.468 200.4L551.507 201.552L551.527 201.568L551.547 201.584L552.468 200.4ZM535.368 206.7L533.89 206.441L533.582 208.2H535.368V206.7ZM588.918 214.65H587.418C587.418 216.885 587.272 219.014 586.983 221.038L588.468 221.25L589.953 221.462C590.263 219.286 590.418 217.015 590.418 214.65H588.918ZM588.468 221.25V219.75H534.918V221.25V222.75H588.468V221.25ZM534.918 221.25L533.421 221.352C533.682 225.159 534.618 228.257 536.429 230.424C538.291 232.652 540.911 233.7 544.068 233.7V232.2V230.7C541.625 230.7 539.919 229.923 538.731 228.501C537.492 227.018 536.653 224.641 536.414 221.147L534.918 221.25ZM544.068 232.2V233.7C546.103 233.7 547.943 233.231 549.521 232.229C551.098 231.228 552.319 229.757 553.217 227.904L551.868 227.25L550.518 226.596C549.816 228.043 548.937 229.047 547.914 229.696C546.892 230.344 545.632 230.7 544.068 230.7V232.2ZM551.868 227.25V228.75H587.118V227.25V225.75H551.868V227.25ZM587.118 227.25L585.647 226.956C584.495 232.714 582.052 237.891 578.303 242.504L579.468 243.45L580.632 244.396C584.684 239.409 587.34 233.786 588.588 227.544L587.118 227.25ZM579.468 243.45L578.301 242.507C574.654 247.018 569.988 250.633 564.274 253.345L564.918 254.7L565.561 256.055C571.647 253.167 576.682 249.282 580.634 244.393L579.468 243.45ZM564.918 254.7L564.285 253.34C558.701 255.939 552.52 257.25 545.718 257.25V258.75V260.25C552.915 260.25 559.534 258.861 565.551 256.06L564.918 254.7ZM545.718 258.75V257.25C537.532 257.25 530.278 255.546 523.92 252.175L523.218 253.5L522.515 254.825C529.357 258.454 537.103 260.25 545.718 260.25V258.75ZM523.218 253.5L523.929 252.179C517.68 248.815 512.784 244.017 509.221 237.758L507.918 238.5L506.614 239.242C510.451 245.983 515.755 251.185 522.506 254.821L523.218 253.5ZM507.918 238.5L509.234 237.782C505.774 231.437 504.018 223.992 504.018 215.4H502.518H501.018C501.018 224.408 502.862 232.363 506.601 239.218L507.918 238.5ZM502.518 215.4H504.018C504.018 206.807 505.774 199.417 509.23 193.177L507.918 192.45L506.605 191.723C502.861 198.483 501.018 206.393 501.018 215.4H502.518ZM507.918 192.45L509.226 193.183C512.79 186.825 517.686 181.982 523.929 178.621L523.218 177.3L522.506 175.979C515.749 179.618 510.445 184.875 506.609 191.716L507.918 192.45ZM523.218 177.3L523.92 178.625C530.278 175.254 537.532 173.55 545.718 173.55V172.05V170.55C537.103 170.55 529.357 172.346 522.515 175.975L523.218 177.3ZM545.718 172.05V173.55C553.904 173.55 561.104 175.254 567.356 178.621L568.068 177.3L568.779 175.979C562.032 172.346 554.331 170.55 545.718 170.55V172.05ZM568.068 177.3L567.381 178.633C573.723 181.901 578.606 186.594 582.06 192.735L583.368 192L584.675 191.265C580.929 184.606 575.612 179.499 568.755 175.966L568.068 177.3ZM583.368 192L582.069 192.751C585.615 198.885 587.418 206.167 587.418 214.65H588.918H590.418C590.418 205.733 588.52 197.915 584.666 191.249L583.368 192ZM555.168 206.7H556.668C556.668 203.554 555.637 200.965 553.388 199.216L552.468 200.4L551.547 201.584C552.898 202.635 553.668 204.246 553.668 206.7H555.168ZM552.468 200.4L553.428 199.248C551.318 197.489 548.712 196.65 545.718 196.65V198.15V199.65C548.123 199.65 550.017 200.311 551.507 201.552L552.468 200.4ZM545.718 198.15V196.65C542.531 196.65 539.819 197.422 537.75 199.131C535.677 200.843 534.433 203.344 533.89 206.441L535.368 206.7L536.845 206.959C537.302 204.356 538.283 202.582 539.66 201.444C541.041 200.303 543.004 199.65 545.718 199.65V198.15ZM535.368 206.7V208.2H555.168V206.7V205.2H535.368V206.7ZM615.799 254.85L615.211 256.23L615.219 256.233L615.799 254.85ZM595.099 228.45V226.95H593.464L593.605 228.579L595.099 228.45ZM627.049 228.45L628.53 228.213L628.328 226.95H627.049V228.45ZM630.199 234L629.334 235.225L629.351 235.237L629.367 235.248L630.199 234ZM640.999 234.75L641.859 235.979L641.899 235.951L641.936 235.921L640.999 234.75ZM628.699 225.15L628.993 223.679L628.989 223.678L628.699 225.15ZM613.549 221.25L613.042 222.662L613.054 222.666L613.549 221.25ZM603.199 214.05L602.058 215.023L602.066 215.033L602.074 215.042L603.199 214.05ZM602.899 185.85L601.642 185.031L601.637 185.039L602.899 185.85ZM615.199 175.8L615.808 177.171L615.819 177.166L615.829 177.161L615.199 175.8ZM661.549 180.45L660.561 181.579L660.57 181.586L661.549 180.45ZM673.249 202.35V203.85H674.981L674.734 202.135L673.249 202.35ZM643.699 202.35L642.233 202.669L642.49 203.85H643.699V202.35ZM640.549 197.1L639.603 198.264L639.626 198.282L639.649 198.3L640.549 197.1ZM630.199 196.2L631.031 197.448L631.077 197.418L631.12 197.384L630.199 196.2ZM631.999 202.95L631.408 204.329L631.437 204.341L631.465 204.352L631.999 202.95ZM642.049 205.5L642.339 204.028L642.337 204.028L642.049 205.5ZM657.499 209.55L656.995 210.963V210.963L657.499 209.55ZM668.449 217.35L667.299 218.313L667.306 218.321L667.313 218.329L668.449 217.35ZM668.749 245.85L669.964 246.73V246.73L668.749 245.85ZM656.149 255.3L655.57 253.916L655.561 253.92L656.149 255.3ZM637.099 258.75V257.25C629.261 257.25 622.364 255.976 616.379 253.467L615.799 254.85L615.219 256.233C621.634 258.923 628.937 260.25 637.099 260.25V258.75ZM615.799 254.85L616.387 253.47C610.488 250.956 605.854 247.5 602.43 243.125L601.249 244.05L600.068 244.974C603.844 249.8 608.91 253.544 615.211 256.23L615.799 254.85ZM601.249 244.05L602.43 243.125C599.009 238.754 597.069 233.83 596.594 228.321L595.099 228.45L593.605 228.579C594.13 234.67 596.289 240.146 600.068 244.974L601.249 244.05ZM595.099 228.45V229.95H627.049V228.45V226.95H595.099V228.45ZM627.049 228.45L625.568 228.687C626.017 231.493 627.235 233.743 629.334 235.225L630.199 234L631.064 232.775C629.764 231.857 628.881 230.406 628.53 228.213L627.049 228.45ZM630.199 234L629.367 235.248C631.468 236.649 634.027 237.3 636.949 237.3V235.8V234.3C634.472 234.3 632.53 233.751 631.031 232.752L630.199 234ZM636.949 235.8V237.3C638.84 237.3 640.526 236.912 641.859 235.979L640.999 234.75L640.139 233.521C639.473 233.988 638.459 234.3 636.949 234.3V235.8ZM640.999 234.75L641.936 235.921C643.227 234.889 643.999 233.533 643.999 231.9H642.499H640.999C640.999 232.466 640.772 233.011 640.062 233.579L640.999 234.75ZM642.499 231.9H643.999C643.999 230.656 643.648 229.509 642.896 228.542C642.157 227.592 641.111 226.916 639.883 226.448L639.349 227.85L638.815 229.252C639.687 229.584 640.216 229.983 640.528 230.383C640.825 230.766 640.999 231.244 640.999 231.9H642.499ZM639.349 227.85L639.883 226.448C637.656 225.6 633.999 224.68 628.993 223.679L628.699 225.15L628.405 226.621C633.399 227.62 636.842 228.5 638.815 229.252L639.349 227.85ZM628.699 225.15L628.989 223.678C622.93 222.486 617.954 221.203 614.045 219.834L613.549 221.25L613.054 222.666C617.144 224.097 622.269 225.414 628.41 226.622L628.699 225.15ZM613.549 221.25L614.056 219.838C610.416 218.531 607.173 216.286 604.324 213.058L603.199 214.05L602.074 215.042C605.226 218.614 608.882 221.168 613.042 222.662L613.549 221.25ZM603.199 214.05L604.34 213.077C601.741 210.029 600.349 205.716 600.349 199.95H598.849H597.349C597.349 206.184 598.857 211.271 602.058 215.023L603.199 214.05ZM598.849 199.95H600.349C600.349 195.025 601.623 190.609 604.161 186.661L602.899 185.85L601.637 185.039C598.775 189.491 597.349 194.475 597.349 199.95H598.849ZM602.899 185.85L604.156 186.668C606.775 182.646 610.632 179.471 615.808 177.171L615.199 175.8L614.59 174.429C608.966 176.929 604.623 180.454 601.642 185.031L602.899 185.85ZM615.199 175.8L615.829 177.161C620.983 174.775 627.305 173.55 634.849 173.55V172.05V170.55C626.993 170.55 620.216 171.825 614.569 174.439L615.199 175.8ZM634.849 172.05V173.55C646.011 173.55 654.516 176.289 660.561 181.579L661.549 180.45L662.537 179.321C655.782 173.411 646.487 170.55 634.849 170.55V172.05ZM661.549 180.45L660.57 181.586C666.779 186.935 670.513 193.899 671.765 202.564L673.249 202.35L674.734 202.135C673.385 192.801 669.32 185.165 662.528 179.314L661.549 180.45ZM673.249 202.35V200.85H643.699V202.35V203.85H673.249V202.35ZM643.699 202.35L645.165 202.031C644.603 199.445 643.387 197.353 641.449 195.9L640.549 197.1L639.649 198.3C640.911 199.247 641.796 200.655 642.233 202.669L643.699 202.35ZM640.549 197.1L641.495 195.936C639.555 194.359 637.036 193.65 634.099 193.65V195.15V196.65C636.562 196.65 638.344 197.241 639.603 198.264L640.549 197.1ZM634.099 195.15V193.65C632.222 193.65 630.543 194.032 629.278 195.016L630.199 196.2L631.12 197.384C631.655 196.968 632.576 196.65 634.099 196.65V195.15ZM630.199 196.2L629.367 194.952C627.962 195.889 627.349 197.365 627.349 199.05H628.849H630.349C630.349 198.135 630.637 197.711 631.031 197.448L630.199 196.2ZM628.849 199.05H627.349C627.349 200.236 627.725 201.321 628.47 202.242C629.194 203.14 630.212 203.816 631.408 204.329L631.999 202.95L632.59 201.571C631.686 201.184 631.129 200.76 630.804 200.357C630.498 199.979 630.349 199.563 630.349 199.05H628.849ZM631.999 202.95L631.465 204.352C633.692 205.2 637.147 206.069 641.761 206.972L642.049 205.5L642.337 204.028C637.751 203.131 634.507 202.3 632.533 201.548L631.999 202.95ZM642.049 205.5L641.76 206.972C647.813 208.163 652.886 209.495 656.995 210.963L657.499 209.55L658.004 208.137C653.712 206.605 648.486 205.237 642.339 204.028L642.049 205.5ZM657.499 209.55L656.995 210.963C660.923 212.366 664.356 214.8 667.299 218.313L668.449 217.35L669.599 216.387C666.342 212.5 662.475 209.734 658.004 208.137L657.499 209.55ZM668.449 217.35L667.313 218.329C670.107 221.574 671.599 226.184 671.599 232.35H673.099H674.599C674.599 225.716 672.991 220.325 669.586 216.371L668.449 217.35ZM673.099 232.35H671.599C671.599 237.038 670.247 241.229 667.535 244.969L668.749 245.85L669.964 246.73C673.052 242.471 674.599 237.662 674.599 232.35H673.099ZM668.749 245.85L667.535 244.969C664.827 248.704 660.869 251.7 655.57 253.916L656.149 255.3L656.728 256.684C662.429 254.3 666.871 250.996 669.964 246.73L668.749 245.85ZM656.149 255.3L655.561 253.92C650.387 256.124 644.245 257.25 637.099 257.25V258.75V260.25C644.554 260.25 651.112 259.076 656.737 256.68L656.149 255.3Z" fill="black" mask="url(#path-1-outside-1_595_18)"/>
</svg>
