<svg width="874" height="129" viewBox="0 0 874 129" fill="none" xmlns="http://www.w3.org/2000/svg">
<mask id="path-1-outside-1_83_1996" maskUnits="userSpaceOnUse" x="0" y="0" width="874" height="129" fill="black">
<rect fill="white" width="874" height="129"/>
<path d="M103.626 126H70.3264L35.0764 72.6V126H1.77637V19.8H35.0764L70.3264 74.1V19.8H103.626V126ZM158.871 127.05C150.371 127.05 142.721 125.3 135.921 121.8C129.121 118.3 123.771 113.3 119.871 106.8C116.071 100.2 114.171 92.5 114.171 83.7C114.171 74.9 116.071 67.25 119.871 60.75C123.771 54.15 129.121 49.1 135.921 45.6C142.721 42.1 150.371 40.35 158.871 40.35C167.371 40.35 175.021 42.1 181.821 45.6C188.621 49.1 193.921 54.15 197.721 60.75C201.621 67.25 203.571 74.9 203.571 83.7C203.571 92.5 201.621 100.2 197.721 106.8C193.921 113.3 188.621 118.3 181.821 121.8C175.021 125.3 167.371 127.05 158.871 127.05ZM158.871 98.25C161.971 98.25 164.571 97.05 166.671 94.65C168.771 92.15 169.821 88.5 169.821 83.7C169.821 78.9 168.771 75.3 166.671 72.9C164.571 70.4 161.971 69.15 158.871 69.15C155.771 69.15 153.171 70.4 151.071 72.9C148.971 75.3 147.921 78.9 147.921 83.7C147.921 88.5 148.921 92.15 150.921 94.65C153.021 97.05 155.671 98.25 158.871 98.25ZM251.682 127.05C243.682 127.05 236.582 125.75 230.382 123.15C224.282 120.55 219.432 116.95 215.832 112.35C212.232 107.75 210.182 102.55 209.682 96.75H241.632C242.032 99.25 243.082 101.1 244.782 102.3C246.582 103.5 248.832 104.1 251.532 104.1C253.232 104.1 254.582 103.75 255.582 103.05C256.582 102.25 257.082 101.3 257.082 100.2C257.082 98.3 256.032 96.95 253.932 96.15C251.832 95.35 248.282 94.45 243.282 93.45C237.182 92.25 232.132 90.95 228.132 89.55C224.232 88.15 220.782 85.75 217.782 82.35C214.882 78.95 213.432 74.25 213.432 68.25C213.432 63.05 214.782 58.35 217.482 54.15C220.282 49.85 224.382 46.5 229.782 44.1C235.182 41.6 241.732 40.35 249.432 40.35C260.832 40.35 269.732 43.15 276.132 48.75C282.632 54.35 286.532 61.65 287.832 70.65H258.282C257.782 68.35 256.732 66.6 255.132 65.4C253.532 64.1 251.382 63.45 248.682 63.45C246.982 63.45 245.682 63.8 244.782 64.5C243.882 65.1 243.432 66.05 243.432 67.35C243.432 69.05 244.482 70.35 246.582 71.25C248.682 72.05 252.032 72.9 256.632 73.8C262.732 75 267.882 76.35 272.082 77.85C276.282 79.35 279.932 81.95 283.032 85.65C286.132 89.25 287.682 94.25 287.682 100.65C287.682 105.65 286.232 110.15 283.332 114.15C280.432 118.15 276.232 121.3 270.732 123.6C265.332 125.9 258.982 127.05 251.682 127.05ZM323.386 72.75C323.386 62.25 325.486 52.9 329.686 44.7C333.986 36.5 340.086 30.15 347.986 25.65C355.886 21.05 365.186 18.75 375.886 18.75C385.086 18.75 393.286 20.5 400.486 24C407.786 27.4 413.686 32.25 418.186 38.55C422.786 44.85 425.836 52.2 427.336 60.6H392.236C390.636 57.1 388.336 54.4 385.336 52.5C382.436 50.5 379.086 49.5 375.286 49.5C369.686 49.5 365.236 51.6 361.936 55.8C358.736 60 357.136 65.65 357.136 72.75C357.136 79.85 358.736 85.5 361.936 89.7C365.236 93.9 369.686 96 375.286 96C379.086 96 382.436 95.05 385.336 93.15C388.336 91.15 390.636 88.4 392.236 84.9H427.336C425.836 93.3 422.786 100.65 418.186 106.95C413.686 113.25 407.786 118.15 400.486 121.65C393.286 125.05 385.086 126.75 375.886 126.75C365.186 126.75 355.886 124.5 347.986 120C340.086 115.4 333.986 109 329.686 100.8C325.486 92.6 323.386 83.25 323.386 72.75ZM472.625 15V126H439.325V15H472.625ZM504.465 34.65C498.665 34.65 494.015 33.1 490.515 30C487.015 26.9 485.265 23 485.265 18.3C485.265 13.5 487.015 9.54999 490.515 6.44999C494.015 3.24999 498.665 1.64999 504.465 1.64999C510.165 1.64999 514.765 3.24999 518.265 6.44999C521.765 9.54999 523.515 13.5 523.515 18.3C523.515 23 521.765 26.9 518.265 30C514.765 33.1 510.165 34.65 504.465 34.65ZM520.965 41.4V126H487.665V41.4H520.965ZM617.905 82.95C617.905 85.25 617.755 87.45 617.455 89.55H563.905C564.405 96.85 567.455 100.5 573.055 100.5C576.655 100.5 579.255 98.85 580.855 95.55H616.105C614.905 101.55 612.355 106.95 608.455 111.75C604.655 116.45 599.805 120.2 593.905 123C588.105 125.7 581.705 127.05 574.705 127.05C566.305 127.05 558.805 125.3 552.205 121.8C545.705 118.3 540.605 113.3 536.905 106.8C533.305 100.2 531.505 92.5 531.505 83.7C531.505 74.9 533.305 67.25 536.905 60.75C540.605 54.15 545.705 49.1 552.205 45.6C558.805 42.1 566.305 40.35 574.705 40.35C583.105 40.35 590.555 42.1 597.055 45.6C603.655 49 608.755 53.9 612.355 60.3C616.055 66.7 617.905 74.25 617.905 82.95ZM584.155 75C584.155 72.2 583.255 70.1 581.455 68.7C579.655 67.2 577.405 66.45 574.705 66.45C568.805 66.45 565.355 69.3 564.355 75H584.155ZM687.687 40.8C697.387 40.8 704.937 44.05 710.337 50.55C715.837 57.05 718.587 65.85 718.587 76.95V126H685.437V81.15C685.437 77.15 684.337 74 682.137 71.7C680.037 69.3 677.187 68.1 673.587 68.1C669.887 68.1 666.987 69.3 664.887 71.7C662.787 74 661.737 77.15 661.737 81.15V126H628.437V41.4H661.737V54.3C664.337 50.3 667.787 47.05 672.087 44.55C676.487 42.05 681.687 40.8 687.687 40.8ZM785.676 97.65V126H773.076C749.876 126 738.276 114.45 738.276 91.35V69.15H727.776V41.4H738.276V21H771.576V41.4H785.376V69.15H771.576V91.95C771.576 93.95 772.026 95.4 772.926 96.3C773.926 97.2 775.526 97.65 777.726 97.65H785.676ZM836.008 127.05C828.008 127.05 820.908 125.75 814.708 123.15C808.608 120.55 803.758 116.95 800.158 112.35C796.558 107.75 794.508 102.55 794.008 96.75H825.958C826.358 99.25 827.408 101.1 829.108 102.3C830.908 103.5 833.158 104.1 835.858 104.1C837.558 104.1 838.908 103.75 839.908 103.05C840.908 102.25 841.408 101.3 841.408 100.2C841.408 98.3 840.358 96.95 838.258 96.15C836.158 95.35 832.608 94.45 827.608 93.45C821.508 92.25 816.458 90.95 812.458 89.55C808.558 88.15 805.108 85.75 802.108 82.35C799.208 78.95 797.758 74.25 797.758 68.25C797.758 63.05 799.108 58.35 801.808 54.15C804.608 49.85 808.708 46.5 814.108 44.1C819.508 41.6 826.058 40.35 833.758 40.35C845.158 40.35 854.058 43.15 860.458 48.75C866.958 54.35 870.858 61.65 872.158 70.65H842.608C842.108 68.35 841.058 66.6 839.458 65.4C837.858 64.1 835.708 63.45 833.008 63.45C831.308 63.45 830.008 63.8 829.108 64.5C828.208 65.1 827.758 66.05 827.758 67.35C827.758 69.05 828.808 70.35 830.908 71.25C833.008 72.05 836.358 72.9 840.958 73.8C847.058 75 852.208 76.35 856.408 77.85C860.608 79.35 864.258 81.95 867.358 85.65C870.458 89.25 872.008 94.25 872.008 100.65C872.008 105.65 870.558 110.15 867.658 114.15C864.758 118.15 860.558 121.3 855.058 123.6C849.658 125.9 843.308 127.05 836.008 127.05Z"/>
</mask>
<path d="M103.626 126V127.5H105.126V126H103.626ZM70.3264 126L69.0745 126.826L69.5192 127.5H70.3264V126ZM35.0764 72.6L36.3282 71.7736L33.5764 67.6049V72.6H35.0764ZM35.0764 126V127.5H36.5764V126H35.0764ZM1.77637 126H0.276367V127.5H1.77637V126ZM1.77637 19.8V18.3H0.276367V19.8H1.77637ZM35.0764 19.8L36.3345 18.9832L35.891 18.3H35.0764V19.8ZM70.3264 74.1L69.0682 74.9167L71.8264 79.1655V74.1H70.3264ZM70.3264 19.8V18.3H68.8264V19.8H70.3264ZM103.626 19.8H105.126V18.3H103.626V19.8ZM103.626 126V124.5H70.3264V126V127.5H103.626V126ZM70.3264 126L71.5782 125.174L36.3282 71.7736L35.0764 72.6L33.8245 73.4264L69.0745 126.826L70.3264 126ZM35.0764 72.6H33.5764V126H35.0764H36.5764V72.6H35.0764ZM35.0764 126V124.5H1.77637V126V127.5H35.0764V126ZM1.77637 126H3.27637V19.8H1.77637H0.276367V126H1.77637ZM1.77637 19.8V21.3H35.0764V19.8V18.3H1.77637V19.8ZM35.0764 19.8L33.8182 20.6167L69.0682 74.9167L70.3264 74.1L71.5845 73.2832L36.3345 18.9832L35.0764 19.8ZM70.3264 74.1H71.8264V19.8H70.3264H68.8264V74.1H70.3264ZM70.3264 19.8V21.3H103.626V19.8V18.3H70.3264V19.8ZM103.626 19.8H102.126V126H103.626H105.126V19.8H103.626ZM135.921 121.8L136.607 120.466L135.921 121.8ZM119.871 106.8L118.571 107.548L118.578 107.56L118.585 107.572L119.871 106.8ZM119.871 60.75L118.579 59.9869L118.576 59.993L119.871 60.75ZM135.921 45.6L136.607 46.9337L135.921 45.6ZM181.821 45.6L181.134 46.9337L181.821 45.6ZM197.721 60.75L196.421 61.4984L196.428 61.5102L196.435 61.5217L197.721 60.75ZM197.721 106.8L196.43 106.037L196.426 106.043L197.721 106.8ZM181.821 121.8L181.134 120.466L181.821 121.8ZM166.671 94.65L167.8 95.6378L167.81 95.6264L167.819 95.6148L166.671 94.65ZM166.671 72.9L165.522 73.8648L165.532 73.8764L165.542 73.8878L166.671 72.9ZM151.071 72.9L152.2 73.8878L152.21 73.8764L152.219 73.8648L151.071 72.9ZM150.921 94.65L149.75 95.587L149.77 95.6129L149.792 95.6378L150.921 94.65ZM158.871 127.05V125.55C150.583 125.55 143.172 123.845 136.607 120.466L135.921 121.8L135.234 123.134C142.27 126.755 150.159 128.55 158.871 128.55V127.05ZM135.921 121.8L136.607 120.466C130.053 117.093 124.912 112.286 121.157 106.028L119.871 106.8L118.585 107.572C122.63 114.313 128.188 119.507 135.234 123.134L135.921 121.8ZM119.871 106.8L121.171 106.052C117.521 99.7126 115.671 92.2787 115.671 83.7H114.171H112.671C112.671 92.7213 114.621 100.687 118.571 107.548L119.871 106.8ZM114.171 83.7H115.671C115.671 75.1207 117.521 67.7411 121.166 61.507L119.871 60.75L118.576 59.993C114.62 66.7589 112.671 74.6793 112.671 83.7H114.171ZM119.871 60.75L121.162 61.5131C124.919 55.1559 130.059 50.304 136.607 46.9337L135.921 45.6L135.234 44.2663C128.182 47.896 122.623 53.1441 118.58 59.9869L119.871 60.75ZM135.921 45.6L136.607 46.9337C143.172 43.5547 150.583 41.85 158.871 41.85V40.35V38.85C150.159 38.85 142.27 40.6453 135.234 44.2663L135.921 45.6ZM158.871 40.35V41.85C167.159 41.85 174.57 43.5547 181.134 46.9337L181.821 45.6L182.507 44.2663C175.472 40.6453 167.583 38.85 158.871 38.85V40.35ZM181.821 45.6L181.134 46.9337C187.679 50.3023 192.766 55.1496 196.421 61.4984L197.721 60.75L199.021 60.0015C195.076 53.1504 189.563 47.8977 182.507 44.2663L181.821 45.6ZM197.721 60.75L196.435 61.5217C200.174 67.7533 202.071 75.1275 202.071 83.7H203.571H205.071C205.071 74.6725 203.068 66.7467 199.007 59.9783L197.721 60.75ZM203.571 83.7H202.071C202.071 92.2719 200.174 99.7005 196.43 106.037L197.721 106.8L199.012 107.563C203.068 100.7 205.071 92.7281 205.071 83.7H203.571ZM197.721 106.8L196.426 106.043C192.772 112.293 187.685 117.095 181.134 120.466L181.821 121.8L182.507 123.134C189.557 119.505 195.07 114.307 199.016 107.557L197.721 106.8ZM181.821 121.8L181.134 120.466C174.57 123.845 167.159 125.55 158.871 125.55V127.05V128.55C167.583 128.55 175.472 126.755 182.507 123.134L181.821 121.8ZM158.871 98.25V99.75C162.417 99.75 165.424 98.3526 167.8 95.6378L166.671 94.65L165.542 93.6622C163.718 95.7474 161.524 96.75 158.871 96.75V98.25ZM166.671 94.65L167.819 95.6148C170.232 92.7425 171.321 88.6917 171.321 83.7H169.821H168.321C168.321 88.3083 167.31 91.5575 165.522 93.6852L166.671 94.65ZM169.821 83.7H171.321C171.321 78.7143 170.235 74.6949 167.8 71.9122L166.671 72.9L165.542 73.8878C167.307 75.9051 168.321 79.0857 168.321 83.7H169.821ZM166.671 72.9L167.819 71.9352C165.452 69.1166 162.44 67.65 158.871 67.65V69.15V70.65C161.501 70.65 163.69 71.6834 165.522 73.8648L166.671 72.9ZM158.871 69.15V67.65C155.301 67.65 152.29 69.1166 149.922 71.9352L151.071 72.9L152.219 73.8648C154.052 71.6834 156.24 70.65 158.871 70.65V69.15ZM151.071 72.9L149.942 71.9122C147.507 74.6949 146.421 78.7143 146.421 83.7H147.921H149.421C149.421 79.0857 150.435 75.9051 152.2 73.8878L151.071 72.9ZM147.921 83.7H146.421C146.421 88.6777 147.454 92.7169 149.75 95.587L150.921 94.65L152.092 93.713C150.388 91.5831 149.421 88.3223 149.421 83.7H147.921ZM150.921 94.65L149.792 95.6378C152.178 98.3646 155.24 99.75 158.871 99.75V98.25V96.75C156.102 96.75 153.864 95.7354 152.05 93.6622L150.921 94.65ZM230.382 123.15L229.794 124.53L229.802 124.533L230.382 123.15ZM209.682 96.75V95.25H208.047L208.188 96.8788L209.682 96.75ZM241.632 96.75L243.113 96.513L242.911 95.25H241.632V96.75ZM244.782 102.3L243.917 103.525L243.934 103.537L243.95 103.548L244.782 102.3ZM255.582 103.05L256.442 104.279L256.482 104.251L256.519 104.221L255.582 103.05ZM243.282 93.45L243.576 91.9791L243.572 91.9782L243.282 93.45ZM228.132 89.55L227.625 90.9618L227.637 90.9658L228.132 89.55ZM217.782 82.35L216.641 83.3234L216.649 83.333L216.657 83.3424L217.782 82.35ZM217.482 54.15L216.225 53.3315L216.22 53.3389L217.482 54.15ZM229.782 44.1L230.391 45.4707L230.402 45.466L230.412 45.4612L229.782 44.1ZM276.132 48.75L275.144 49.8789L275.153 49.8864L276.132 48.75ZM287.832 70.65V72.15H289.564L289.317 70.4356L287.832 70.65ZM258.282 70.65L256.816 70.9686L257.073 72.15H258.282V70.65ZM255.132 65.4L254.186 66.5642L254.209 66.5825L254.232 66.6L255.132 65.4ZM244.782 64.5L245.614 65.7481L245.66 65.7177L245.703 65.684L244.782 64.5ZM246.582 71.25L245.991 72.6287L246.02 72.6408L246.048 72.6517L246.582 71.25ZM256.632 73.8L256.922 72.3282L256.92 72.3279L256.632 73.8ZM272.082 77.85L271.578 79.2626L272.082 77.85ZM283.032 85.65L281.882 86.6133L281.889 86.6211L281.896 86.6288L283.032 85.65ZM283.332 114.15L284.547 115.03L283.332 114.15ZM270.732 123.6L270.154 122.216L270.144 122.22L270.732 123.6ZM251.682 127.05V125.55C243.844 125.55 236.947 124.277 230.962 121.767L230.382 123.15L229.802 124.533C236.217 127.223 243.52 128.55 251.682 128.55V127.05ZM230.382 123.15L230.97 121.77C225.071 119.256 220.437 115.8 217.013 111.426L215.832 112.35L214.651 113.274C218.427 118.1 223.493 121.844 229.794 124.53L230.382 123.15ZM215.832 112.35L217.013 111.426C213.592 107.054 211.652 102.13 211.177 96.6212L209.682 96.75L208.188 96.8788C208.713 102.97 210.872 108.446 214.651 113.274L215.832 112.35ZM209.682 96.75V98.25H241.632V96.75V95.25H209.682V96.75ZM241.632 96.75L240.151 96.987C240.6 99.7935 241.818 102.043 243.917 103.525L244.782 102.3L245.647 101.075C244.347 100.157 243.464 98.7065 243.113 96.513L241.632 96.75ZM244.782 102.3L243.95 103.548C246.051 104.949 248.61 105.6 251.532 105.6V104.1V102.6C249.055 102.6 247.113 102.051 245.614 101.052L244.782 102.3ZM251.532 104.1V105.6C253.423 105.6 255.109 105.212 256.442 104.279L255.582 103.05L254.722 101.821C254.056 102.288 253.042 102.6 251.532 102.6V104.1ZM255.582 103.05L256.519 104.221C257.81 103.189 258.582 101.833 258.582 100.2H257.082H255.582C255.582 100.767 255.355 101.311 254.645 101.879L255.582 103.05ZM257.082 100.2H258.582C258.582 98.9556 258.231 97.8092 257.479 96.8416C256.74 95.8918 255.694 95.2161 254.466 94.7483L253.932 96.15L253.398 97.5517C254.27 97.8839 254.799 98.2831 255.111 98.6834C255.408 99.0658 255.582 99.5444 255.582 100.2H257.082ZM253.932 96.15L254.466 94.7483C252.239 93.8999 248.582 92.9802 243.576 91.9791L243.282 93.45L242.988 94.9209C247.982 95.9197 251.425 96.8 253.398 97.5517L253.932 96.15ZM243.282 93.45L243.572 91.9782C237.513 90.7862 232.537 89.5026 228.628 88.1342L228.132 89.55L227.637 90.9658C231.727 92.3974 236.852 93.7138 242.993 94.9218L243.282 93.45ZM228.132 89.55L228.639 88.1382C224.999 86.8316 221.756 84.5862 218.907 81.3576L217.782 82.35L216.657 83.3424C219.809 86.9138 223.465 89.4684 227.625 90.9618L228.132 89.55ZM217.782 82.35L218.923 81.3766C216.324 78.329 214.932 74.0163 214.932 68.25H213.432H211.932C211.932 74.4837 213.44 79.571 216.641 83.3234L217.782 82.35ZM213.432 68.25H214.932C214.932 63.3251 216.206 58.9088 218.744 54.9611L217.482 54.15L216.22 53.3389C213.358 57.7912 211.932 62.7749 211.932 68.25H213.432ZM217.482 54.15L218.739 54.9685C221.358 50.9464 225.215 47.7713 230.391 45.4707L229.782 44.1L229.173 42.7293C223.549 45.2287 219.206 48.7536 216.225 53.3315L217.482 54.15ZM229.782 44.1L230.412 45.4612C235.566 43.0754 241.888 41.85 249.432 41.85V40.35V38.85C241.576 38.85 234.799 40.1246 229.152 42.7388L229.782 44.1ZM249.432 40.35V41.85C260.594 41.85 269.099 44.5893 275.144 49.8789L276.132 48.75L277.12 47.6211C270.365 41.7107 261.07 38.85 249.432 38.85V40.35ZM276.132 48.75L275.153 49.8864C281.362 55.2352 285.096 62.1994 286.348 70.8644L287.832 70.65L289.317 70.4356C287.968 61.1006 283.903 53.4648 277.111 47.6136L276.132 48.75ZM287.832 70.65V69.15H258.282V70.65V72.15H287.832V70.65ZM258.282 70.65L259.748 70.3314C259.186 67.7448 257.97 65.6534 256.032 64.2L255.132 65.4L254.232 66.6C255.494 67.5466 256.379 68.9552 256.816 70.9686L258.282 70.65ZM255.132 65.4L256.078 64.2358C254.138 62.6592 251.619 61.95 248.682 61.95V63.45V64.95C251.145 64.95 252.927 65.5408 254.186 66.5642L255.132 65.4ZM248.682 63.45V61.95C246.805 61.95 245.126 62.3322 243.861 63.316L244.782 64.5L245.703 65.684C246.238 65.2678 247.159 64.95 248.682 64.95V63.45ZM244.782 64.5L243.95 63.2519C242.545 64.189 241.932 65.6647 241.932 67.35H243.432H244.932C244.932 66.4353 245.22 66.011 245.614 65.7481L244.782 64.5ZM243.432 67.35H241.932C241.932 68.5365 242.308 69.6207 243.053 70.5425C243.777 71.4396 244.795 72.1161 245.991 72.6287L246.582 71.25L247.173 69.8713C246.269 69.4839 245.712 69.0604 245.387 68.6575C245.081 68.2793 244.932 67.8634 244.932 67.35H243.432ZM246.582 71.25L246.048 72.6517C248.275 73.4999 251.73 74.3693 256.344 75.2721L256.632 73.8L256.92 72.3279C252.334 71.4307 249.09 70.6001 247.116 69.8483L246.582 71.25ZM256.632 73.8L256.343 75.2718C262.396 76.4626 267.469 77.7952 271.578 79.2626L272.082 77.85L272.587 76.4374C268.295 74.9048 263.069 73.5374 256.922 72.3282L256.632 73.8ZM272.082 77.85L271.578 79.2626C275.506 80.6656 278.939 83.1004 281.882 86.6133L283.032 85.65L284.182 84.6867C280.925 80.7996 277.059 78.0344 272.587 76.4374L272.082 77.85ZM283.032 85.65L281.896 86.6288C284.69 89.8745 286.182 94.4837 286.182 100.65H287.682H289.182C289.182 94.0163 287.574 88.6255 284.169 84.6712L283.032 85.65ZM287.682 100.65H286.182C286.182 105.338 284.83 109.529 282.118 113.27L283.332 114.15L284.547 115.03C287.635 110.771 289.182 105.962 289.182 100.65H287.682ZM283.332 114.15L282.118 113.27C279.41 117.004 275.452 120 270.154 122.216L270.732 123.6L271.311 124.984C277.012 122.6 281.454 119.296 284.547 115.03L283.332 114.15ZM270.732 123.6L270.144 122.22C264.97 124.424 258.828 125.55 251.682 125.55V127.05V128.55C259.137 128.55 265.695 127.376 271.32 124.98L270.732 123.6ZM329.686 44.7L328.357 44.0034L328.354 44.0098L328.351 44.0162L329.686 44.7ZM347.986 25.65L348.728 26.9534L348.734 26.9498L348.741 26.9463L347.986 25.65ZM400.486 24L399.83 25.3491L399.841 25.3545L399.852 25.3597L400.486 24ZM418.186 38.55L416.965 39.4219L416.97 39.4282L416.974 39.4345L418.186 38.55ZM427.336 60.6V62.1H429.127L428.812 60.3363L427.336 60.6ZM392.236 60.6L390.872 61.2236L391.272 62.1H392.236V60.6ZM385.336 52.5L384.484 53.7348L384.508 53.7515L384.533 53.7672L385.336 52.5ZM361.936 55.8L360.756 54.8733L360.749 54.882L360.743 54.8909L361.936 55.8ZM361.936 89.7L360.743 90.6091L360.749 90.618L360.756 90.6267L361.936 89.7ZM385.336 93.15L386.158 94.4047L386.168 94.3981L385.336 93.15ZM392.236 84.9V83.4H391.272L390.872 84.2764L392.236 84.9ZM427.336 84.9L428.812 85.1637L429.127 83.4H427.336V84.9ZM418.186 106.95L416.974 106.065L416.97 106.072L416.965 106.078L418.186 106.95ZM400.486 121.65L401.126 123.006L401.134 123.003L400.486 121.65ZM347.986 120L347.231 121.296L347.237 121.3L347.243 121.303L347.986 120ZM329.686 100.8L328.351 101.484L328.354 101.49L328.357 101.497L329.686 100.8ZM323.386 72.75H324.886C324.886 62.4543 326.943 53.3443 331.021 45.3838L329.686 44.7L328.351 44.0162C324.028 52.4557 321.886 62.0457 321.886 72.75H323.386ZM329.686 44.7L331.014 45.3966C335.184 37.4458 341.082 31.3086 348.728 26.9534L347.986 25.65L347.243 24.3466C339.089 28.9914 332.788 35.5542 328.357 44.0034L329.686 44.7ZM347.986 25.65L348.741 26.9463C356.375 22.5009 365.405 20.25 375.886 20.25V18.75V17.25C364.966 17.25 355.397 19.5991 347.231 24.3537L347.986 25.65ZM375.886 18.75V20.25C384.892 20.25 392.863 21.9622 399.83 25.3491L400.486 24L401.142 22.6509C393.709 19.0378 385.279 17.25 375.886 17.25V18.75ZM400.486 24L399.852 25.3597C406.928 28.6551 412.622 33.341 416.965 39.4219L418.186 38.55L419.406 37.6781C414.75 31.1589 408.644 26.1449 401.119 22.6402L400.486 24ZM418.186 38.55L416.974 39.4345C421.428 45.5336 424.395 52.6667 425.859 60.8637L427.336 60.6L428.812 60.3363C427.276 51.7333 424.144 44.1663 419.397 37.6655L418.186 38.55ZM427.336 60.6V59.1H392.236V60.6V62.1H427.336V60.6ZM392.236 60.6L393.6 59.9764C391.89 56.235 389.405 53.3014 386.138 51.2328L385.336 52.5L384.533 53.7672C387.267 55.4986 389.382 57.965 390.872 61.2236L392.236 60.6ZM385.336 52.5L386.187 51.2652C383.017 49.0787 379.365 48 375.286 48V49.5V51C378.807 51 381.854 51.9213 384.484 53.7348L385.336 52.5ZM375.286 49.5V48C369.251 48 364.356 50.2915 360.756 54.8733L361.936 55.8L363.115 56.7267C366.115 52.9085 370.12 51 375.286 51V49.5ZM361.936 55.8L360.743 54.8909C357.285 59.4293 355.636 65.4338 355.636 72.75H357.136H358.636C358.636 65.8661 360.187 60.5707 363.129 56.7091L361.936 55.8ZM357.136 72.75H355.636C355.636 80.0661 357.285 86.0707 360.743 90.6091L361.936 89.7L363.129 88.7909C360.187 84.9293 358.636 79.6339 358.636 72.75H357.136ZM361.936 89.7L360.756 90.6267C364.356 95.2085 369.251 97.5 375.286 97.5V96V94.5C370.12 94.5 366.115 92.5915 363.115 88.7733L361.936 89.7ZM375.286 96V97.5C379.349 97.5 382.99 96.48 386.158 94.4047L385.336 93.15L384.514 91.8953C381.881 93.62 378.823 94.5 375.286 94.5V96ZM385.336 93.15L386.168 94.3981C389.416 92.2329 391.892 89.2594 393.6 85.5236L392.236 84.9L390.872 84.2764C389.379 87.5406 387.256 90.0671 384.504 91.9019L385.336 93.15ZM392.236 84.9V86.4H427.336V84.9V83.4H392.236V84.9ZM427.336 84.9L425.859 84.6363C424.395 92.8333 421.428 99.9663 416.974 106.065L418.186 106.95L419.397 107.835C424.144 101.334 427.276 93.7667 428.812 85.1637L427.336 84.9ZM418.186 106.95L416.965 106.078C412.619 112.163 406.92 116.902 399.837 120.297L400.486 121.65L401.134 123.003C408.652 119.398 414.752 114.337 419.406 107.822L418.186 106.95ZM400.486 121.65L399.845 120.294C392.874 123.585 384.899 125.25 375.886 125.25V126.75V128.25C385.273 128.25 393.697 126.515 401.126 123.006L400.486 121.65ZM375.886 126.75V125.25C365.4 125.25 356.365 123.047 348.728 118.697L347.986 120L347.243 121.303C355.407 125.953 364.972 128.25 375.886 128.25V126.75ZM347.986 120L348.741 118.704C341.088 114.248 335.185 108.057 331.014 100.103L329.686 100.8L328.357 101.497C332.787 109.943 339.084 116.552 347.231 121.296L347.986 120ZM329.686 100.8L331.021 100.116C326.943 92.1557 324.886 83.0457 324.886 72.75H323.386H321.886C321.886 83.4543 324.028 93.0443 328.351 101.484L329.686 100.8ZM472.625 15H474.125V13.5H472.625V15ZM472.625 126V127.5H474.125V126H472.625ZM439.325 126H437.825V127.5H439.325V126ZM439.325 15V13.5H437.825V15H439.325ZM472.625 15H471.125V126H472.625H474.125V15H472.625ZM472.625 126V124.5H439.325V126V127.5H472.625V126ZM439.325 126H440.825V15H439.325H437.825V126H439.325ZM439.325 15V16.5H472.625V15V13.5H439.325V15ZM490.515 30L491.51 28.8771V28.8771L490.515 30ZM490.515 6.44999L491.51 7.57287L491.518 7.56502L491.527 7.55704L490.515 6.44999ZM518.265 6.44999L517.253 7.55704L517.262 7.56502L517.271 7.57287L518.265 6.44999ZM518.265 30L517.271 28.8771V28.8771L518.265 30ZM520.965 41.4H522.465V39.9H520.965V41.4ZM520.965 126V127.5H522.465V126H520.965ZM487.665 126H486.165V127.5H487.665V126ZM487.665 41.4V39.9H486.165V41.4H487.665ZM504.465 34.65V33.15C498.94 33.15 494.674 31.6796 491.51 28.8771L490.515 30L489.521 31.1229C493.356 34.5204 498.39 36.15 504.465 36.15V34.65ZM490.515 30L491.51 28.8771C488.333 26.0635 486.765 22.5732 486.765 18.3H485.265H483.765C483.765 23.4268 485.697 27.7365 489.521 31.1229L490.515 30ZM485.265 18.3H486.765C486.765 13.9163 488.341 10.3796 491.51 7.57287L490.515 6.44999L489.521 5.32711C485.689 8.72036 483.765 13.0837 483.765 18.3H485.265ZM490.515 6.44999L491.527 7.55704C494.692 4.66333 498.952 3.14999 504.465 3.14999V1.64999V0.149992C498.378 0.149992 493.338 1.83665 489.503 5.34295L490.515 6.44999ZM504.465 1.64999V3.14999C509.87 3.14999 514.083 4.65896 517.253 7.55704L518.265 6.44999L519.277 5.34295C515.447 1.84102 510.46 0.149992 504.465 0.149992V1.64999ZM518.265 6.44999L517.271 7.57287C520.439 10.3796 522.015 13.9163 522.015 18.3H523.515H525.015C525.015 13.0837 523.091 8.72036 519.26 5.32711L518.265 6.44999ZM523.515 18.3H522.015C522.015 22.5732 520.447 26.0635 517.271 28.8771L518.265 30L519.26 31.1229C523.083 27.7365 525.015 23.4268 525.015 18.3H523.515ZM518.265 30L517.271 28.8771C514.102 31.6837 509.883 33.15 504.465 33.15V34.65V36.15C510.448 36.15 515.428 34.5163 519.26 31.1229L518.265 30ZM520.965 41.4H519.465V126H520.965H522.465V41.4H520.965ZM520.965 126V124.5H487.665V126V127.5H520.965V126ZM487.665 126H489.165V41.4H487.665H486.165V126H487.665ZM487.665 41.4V42.9H520.965V41.4V39.9H487.665V41.4ZM617.455 89.55V91.05H618.756L618.94 89.7621L617.455 89.55ZM563.905 89.55V88.05H562.299L562.408 89.6525L563.905 89.55ZM580.855 95.55V94.05H579.915L579.505 94.8956L580.855 95.55ZM616.105 95.55L617.576 95.8442L617.935 94.05H616.105V95.55ZM608.455 111.75L607.291 110.804L607.288 110.807L608.455 111.75ZM593.905 123L594.538 124.36L594.548 124.355L593.905 123ZM552.205 121.8L551.494 123.121L551.502 123.125L552.205 121.8ZM536.905 106.8L535.588 107.518L535.595 107.53L535.601 107.542L536.905 106.8ZM536.905 60.75L535.596 60.0165L535.593 60.0232L536.905 60.75ZM552.205 45.6L551.502 44.2748L551.494 44.2793L552.205 45.6ZM597.055 45.6L596.344 46.9207L596.356 46.9272L596.368 46.9335L597.055 45.6ZM612.355 60.3L611.048 61.0354L611.052 61.0431L611.056 61.0508L612.355 60.3ZM584.155 75V76.5H585.655V75H584.155ZM581.455 68.7L580.495 69.8523L580.514 69.8685L580.534 69.884L581.455 68.7ZM564.355 75L562.877 74.7408L562.569 76.5H564.355V75ZM617.905 82.95H616.405C616.405 85.1849 616.259 87.3137 615.97 89.3379L617.455 89.55L618.94 89.7621C619.251 87.5863 619.405 85.3151 619.405 82.95H617.905ZM617.455 89.55V88.05H563.905V89.55V91.05H617.455V89.55ZM563.905 89.55L562.408 89.6525C562.669 93.4589 563.606 96.5574 565.416 98.7243C567.278 100.952 569.898 102 573.055 102V100.5V99C570.612 99 568.907 98.2228 567.718 96.8007C566.479 95.3176 565.641 92.9411 565.401 89.4475L563.905 89.55ZM573.055 100.5V102C575.091 102 576.93 101.531 578.509 100.529C580.086 99.5283 581.306 98.0568 582.205 96.2044L580.855 95.55L579.505 94.8956C578.803 96.3432 577.924 97.3467 576.901 97.996C575.88 98.6442 574.619 99 573.055 99V100.5ZM580.855 95.55V97.05H616.105V95.55V94.05H580.855V95.55ZM616.105 95.55L614.634 95.2558C613.482 101.014 611.039 106.191 607.291 110.804L608.455 111.75L609.619 112.696C613.671 107.709 616.327 102.086 617.576 95.8442L616.105 95.55ZM608.455 111.75L607.288 110.807C603.641 115.318 598.975 118.933 593.262 121.645L593.905 123L594.548 124.355C600.634 121.467 605.669 117.582 609.621 112.693L608.455 111.75ZM593.905 123L593.272 121.64C587.688 124.239 581.507 125.55 574.705 125.55V127.05V128.55C581.903 128.55 588.522 127.161 594.538 124.36L593.905 123ZM574.705 127.05V125.55C566.519 125.55 559.265 123.846 552.908 120.475L552.205 121.8L551.502 123.125C558.344 126.754 566.091 128.55 574.705 128.55V127.05ZM552.205 121.8L552.916 120.479C546.667 117.115 541.771 112.317 538.208 106.058L536.905 106.8L535.601 107.542C539.439 114.283 544.742 119.485 551.494 123.121L552.205 121.8ZM536.905 106.8L538.222 106.082C534.761 99.7369 533.005 92.292 533.005 83.7H531.505H530.005C530.005 92.708 531.849 100.663 535.588 107.518L536.905 106.8ZM531.505 83.7H533.005C533.005 75.1073 534.761 67.7166 538.217 61.4767L536.905 60.75L535.593 60.0232C531.849 66.7834 530.005 74.6927 530.005 83.7H531.505ZM536.905 60.75L538.213 61.4835C541.778 55.1254 546.673 50.2821 552.916 46.9207L552.205 45.6L551.494 44.2793C544.736 47.9179 539.432 53.1746 535.596 60.0165L536.905 60.75ZM552.205 45.6L552.908 46.9252C559.265 43.5536 566.519 41.85 574.705 41.85V40.35V38.85C566.091 38.85 558.344 40.6464 551.502 44.2748L552.205 45.6ZM574.705 40.35V41.85C582.891 41.85 590.091 43.5538 596.344 46.9207L597.055 45.6L597.766 44.2793C591.019 40.6462 583.319 38.85 574.705 38.85V40.35ZM597.055 45.6L596.368 46.9335C602.71 50.2007 607.593 54.8941 611.048 61.0354L612.355 60.3L613.662 59.5646C609.917 52.9059 604.6 47.7993 597.742 44.2665L597.055 45.6ZM612.355 60.3L611.056 61.0508C614.603 67.1851 616.405 74.4666 616.405 82.95H617.905H619.405C619.405 74.0333 617.507 66.2149 613.654 59.5492L612.355 60.3ZM584.155 75H585.655C585.655 71.854 584.625 69.265 582.376 67.516L581.455 68.7L580.534 69.884C581.885 70.935 582.655 72.546 582.655 75H584.155ZM581.455 68.7L582.415 67.5477C580.305 65.7894 577.699 64.95 574.705 64.95V66.45V67.95C577.11 67.95 579.005 68.6106 580.495 69.8523L581.455 68.7ZM574.705 66.45V64.95C571.518 64.95 568.806 65.7218 566.737 67.4311C564.664 69.1433 563.421 71.6443 562.877 74.7408L564.355 75L565.832 75.2592C566.289 72.6557 567.27 70.8817 568.648 69.7439C570.029 68.6032 571.992 67.95 574.705 67.95V66.45ZM564.355 75V76.5H584.155V75V73.5H564.355V75ZM710.337 50.55L709.183 51.5086L709.191 51.5189L710.337 50.55ZM718.587 126V127.5H720.087V126H718.587ZM685.437 126H683.937V127.5H685.437V126ZM682.137 71.7L681.008 72.6878L681.03 72.7128L681.053 72.7368L682.137 71.7ZM664.887 71.7L665.994 72.7114L666.005 72.6997L666.015 72.6878L664.887 71.7ZM661.737 126V127.5H663.237V126H661.737ZM628.437 126H626.937V127.5H628.437V126ZM628.437 41.4V39.9H626.937V41.4H628.437ZM661.737 41.4H663.237V39.9H661.737V41.4ZM661.737 54.3H660.237V59.36L662.994 55.1175L661.737 54.3ZM672.087 44.55L671.346 43.2458L671.339 43.2495L671.333 43.2532L672.087 44.55ZM687.687 40.8V42.3C697.014 42.3 704.112 45.4045 709.183 51.5085L710.337 50.55L711.49 49.5915C705.761 42.6954 697.759 39.3 687.687 39.3V40.8ZM710.337 50.55L709.191 51.5189C714.4 57.6748 717.087 66.0953 717.087 76.95H718.587H720.087C720.087 65.6047 717.273 56.4252 711.482 49.5811L710.337 50.55ZM718.587 76.95H717.087V126H718.587H720.087V76.95H718.587ZM718.587 126V124.5H685.437V126V127.5H718.587V126ZM685.437 126H686.937V81.15H685.437H683.937V126H685.437ZM685.437 81.15H686.937C686.937 76.8676 685.752 73.3093 683.221 70.6632L682.137 71.7L681.053 72.7368C682.922 74.6907 683.937 77.4324 683.937 81.15H685.437ZM682.137 71.7L683.265 70.7122C680.842 67.9427 677.557 66.6 673.587 66.6V68.1V69.6C676.816 69.6 679.231 70.6573 681.008 72.6878L682.137 71.7ZM673.587 68.1V66.6C669.531 66.6 666.189 67.9332 663.758 70.7122L664.887 71.7L666.015 72.6878C667.784 70.6668 670.242 69.6 673.587 69.6V68.1ZM664.887 71.7L663.779 70.6886C661.361 73.3366 660.237 76.8856 660.237 81.15H661.737H663.237C663.237 77.4144 664.212 74.6634 665.994 72.7114L664.887 71.7ZM661.737 81.15H660.237V126H661.737H663.237V81.15H661.737ZM661.737 126V124.5H628.437V126V127.5H661.737V126ZM628.437 126H629.937V41.4H628.437H626.937V126H628.437ZM628.437 41.4V42.9H661.737V41.4V39.9H628.437V41.4ZM661.737 41.4H660.237V54.3H661.737H663.237V41.4H661.737ZM661.737 54.3L662.994 55.1175C665.461 51.323 668.735 48.2338 672.84 45.8468L672.087 44.55L671.333 43.2532C666.838 45.8661 663.212 49.277 660.479 53.4825L661.737 54.3ZM672.087 44.55L672.828 45.8542C676.963 43.5045 681.898 42.3 687.687 42.3V40.8V39.3C681.475 39.3 676.01 40.5955 671.346 43.2458L672.087 44.55ZM785.676 97.65H787.176V96.15H785.676V97.65ZM785.676 126V127.5H787.176V126H785.676ZM738.276 69.15H739.776V67.65H738.276V69.15ZM727.776 69.15H726.276V70.65H727.776V69.15ZM727.776 41.4V39.9H726.276V41.4H727.776ZM738.276 41.4V42.9H739.776V41.4H738.276ZM738.276 21V19.5H736.776V21H738.276ZM771.576 21H773.076V19.5H771.576V21ZM771.576 41.4H770.076V42.9H771.576V41.4ZM785.376 41.4H786.876V39.9H785.376V41.4ZM785.376 69.15V70.65H786.876V69.15H785.376ZM771.576 69.15V67.65H770.076V69.15H771.576ZM772.926 96.3L771.866 97.3607L771.894 97.3885L771.923 97.4149L772.926 96.3ZM785.676 97.65H784.176V126H785.676H787.176V97.65H785.676ZM785.676 126V124.5H773.076V126V127.5H785.676V126ZM773.076 126V124.5C761.706 124.5 753.454 121.67 748.035 116.275C742.617 110.88 739.776 102.667 739.776 91.35H738.276H736.776C736.776 103.133 739.736 112.245 745.918 118.4C752.099 124.555 761.247 127.5 773.076 127.5V126ZM738.276 91.35H739.776V69.15H738.276H736.776V91.35H738.276ZM738.276 69.15V67.65H727.776V69.15V70.65H738.276V69.15ZM727.776 69.15H729.276V41.4H727.776H726.276V69.15H727.776ZM727.776 41.4V42.9H738.276V41.4V39.9H727.776V41.4ZM738.276 41.4H739.776V21H738.276H736.776V41.4H738.276ZM738.276 21V22.5H771.576V21V19.5H738.276V21ZM771.576 21H770.076V41.4H771.576H773.076V21H771.576ZM771.576 41.4V42.9H785.376V41.4V39.9H771.576V41.4ZM785.376 41.4H783.876V69.15H785.376H786.876V41.4H785.376ZM785.376 69.15V67.65H771.576V69.15V70.65H785.376V69.15ZM771.576 69.15H770.076V91.95H771.576H773.076V69.15H771.576ZM771.576 91.95H770.076C770.076 94.1274 770.56 96.0546 771.866 97.3607L772.926 96.3L773.987 95.2393C773.493 94.7454 773.076 93.7726 773.076 91.95H771.576ZM772.926 96.3L771.923 97.4149C773.327 98.679 775.377 99.15 777.726 99.15V97.65V96.15C775.676 96.15 774.525 95.721 773.93 95.1851L772.926 96.3ZM777.726 97.65V99.15H785.676V97.65V96.15H777.726V97.65ZM814.708 123.15L814.12 124.53L814.128 124.533L814.708 123.15ZM794.008 96.75V95.25H792.374L792.514 96.8788L794.008 96.75ZM825.958 96.75L827.44 96.513L827.237 95.25H825.958V96.75ZM829.108 102.3L828.243 103.525L828.26 103.537L828.276 103.548L829.108 102.3ZM839.908 103.05L840.769 104.279L840.808 104.251L840.845 104.221L839.908 103.05ZM827.608 93.45L827.903 91.9791L827.898 91.9782L827.608 93.45ZM812.458 89.55L811.952 90.9618L811.963 90.9658L812.458 89.55ZM802.108 82.35L800.967 83.3234L800.975 83.333L800.984 83.3424L802.108 82.35ZM801.808 54.15L800.551 53.3315L800.547 53.3389L801.808 54.15ZM814.108 44.1L814.718 45.4707L814.728 45.466L814.739 45.4612L814.108 44.1ZM860.458 48.75L859.471 49.8789L859.479 49.8864L860.458 48.75ZM872.158 70.65V72.15H873.891L873.643 70.4356L872.158 70.65ZM842.608 70.65L841.143 70.9686L841.399 72.15H842.608V70.65ZM839.458 65.4L838.513 66.5642L838.535 66.5825L838.558 66.6L839.458 65.4ZM829.108 64.5L829.94 65.7481L829.986 65.7177L830.029 65.684L829.108 64.5ZM830.908 71.25L830.318 72.6287L830.346 72.6408L830.374 72.6517L830.908 71.25ZM840.958 73.8L841.248 72.3282L841.246 72.3279L840.958 73.8ZM856.408 77.85L855.904 79.2626L856.408 77.85ZM867.358 85.65L866.209 86.6133L866.215 86.6211L866.222 86.6288L867.358 85.65ZM867.658 114.15L868.873 115.03L867.658 114.15ZM855.058 123.6L854.48 122.216L854.471 122.22L855.058 123.6ZM836.008 127.05V125.55C828.17 125.55 821.273 124.277 815.289 121.767L814.708 123.15L814.128 124.533C820.543 127.223 827.846 128.55 836.008 128.55V127.05ZM814.708 123.15L815.297 121.77C809.398 119.256 804.763 115.8 801.34 111.426L800.158 112.35L798.977 113.274C802.753 118.1 807.819 121.844 814.12 124.53L814.708 123.15ZM800.158 112.35L801.34 111.426C797.918 107.054 795.978 102.13 795.503 96.6212L794.008 96.75L792.514 96.8788C793.039 102.97 795.198 108.446 798.977 113.274L800.158 112.35ZM794.008 96.75V98.25H825.958V96.75V95.25H794.008V96.75ZM825.958 96.75L824.477 96.987C824.926 99.7935 826.144 102.043 828.243 103.525L829.108 102.3L829.973 101.075C828.673 100.157 827.791 98.7065 827.44 96.513L825.958 96.75ZM829.108 102.3L828.276 103.548C830.378 104.949 832.936 105.6 835.858 105.6V104.1V102.6C833.381 102.6 831.439 102.051 829.94 101.052L829.108 102.3ZM835.858 104.1V105.6C837.749 105.6 839.435 105.212 840.769 104.279L839.908 103.05L839.048 101.821C838.382 102.288 837.368 102.6 835.858 102.6V104.1ZM839.908 103.05L840.845 104.221C842.136 103.189 842.908 101.833 842.908 100.2H841.408H839.908C839.908 100.767 839.681 101.311 838.971 101.879L839.908 103.05ZM841.408 100.2H842.908C842.908 98.9556 842.557 97.8092 841.805 96.8416C841.066 95.8918 840.02 95.2161 838.792 94.7483L838.258 96.15L837.724 97.5517C838.596 97.8839 839.126 98.2831 839.437 98.6834C839.734 99.0658 839.908 99.5444 839.908 100.2H841.408ZM838.258 96.15L838.792 94.7483C836.566 93.8999 832.908 92.9802 827.903 91.9791L827.608 93.45L827.314 94.9209C832.309 95.9197 835.751 96.8 837.724 97.5517L838.258 96.15ZM827.608 93.45L827.898 91.9782C821.839 90.7862 816.864 89.5026 812.954 88.1342L812.458 89.55L811.963 90.9658C816.053 92.3974 821.178 93.7138 827.319 94.9218L827.608 93.45ZM812.458 89.55L812.965 88.1382C809.325 86.8316 806.082 84.5862 803.233 81.3576L802.108 82.35L800.984 83.3424C804.135 86.9138 807.792 89.4684 811.952 90.9618L812.458 89.55ZM802.108 82.35L803.25 81.3766C800.65 78.329 799.258 74.0163 799.258 68.25H797.758H796.258C796.258 74.4837 797.767 79.571 800.967 83.3234L802.108 82.35ZM797.758 68.25H799.258C799.258 63.3251 800.532 58.9088 803.07 54.9611L801.808 54.15L800.547 53.3389C797.684 57.7912 796.258 62.7749 796.258 68.25H797.758ZM801.808 54.15L803.065 54.9685C805.684 50.9464 809.541 47.7713 814.718 45.4707L814.108 44.1L813.499 42.7293C807.876 45.2287 803.532 48.7536 800.551 53.3315L801.808 54.15ZM814.108 44.1L814.739 45.4612C819.892 43.0754 826.215 41.85 833.758 41.85V40.35V38.85C825.902 38.85 819.125 40.1246 813.478 42.7388L814.108 44.1ZM833.758 40.35V41.85C844.92 41.85 853.425 44.5893 859.471 49.8789L860.458 48.75L861.446 47.6211C854.691 41.7107 845.397 38.85 833.758 38.85V40.35ZM860.458 48.75L859.479 49.8864C865.688 55.2352 869.422 62.1994 870.674 70.8644L872.158 70.65L873.643 70.4356C872.295 61.1006 868.229 53.4648 861.437 47.6136L860.458 48.75ZM872.158 70.65V69.15H842.608V70.65V72.15H872.158V70.65ZM842.608 70.65L844.074 70.3314C843.512 67.7448 842.296 65.6534 840.358 64.2L839.458 65.4L838.558 66.6C839.82 67.5466 840.705 68.9552 841.143 70.9686L842.608 70.65ZM839.458 65.4L840.404 64.2358C838.464 62.6592 835.945 61.95 833.008 61.95V63.45V64.95C835.472 64.95 837.253 65.5408 838.513 66.5642L839.458 65.4ZM833.008 63.45V61.95C831.132 61.95 829.452 62.3322 828.188 63.316L829.108 64.5L830.029 65.684C830.564 65.2678 831.485 64.95 833.008 64.95V63.45ZM829.108 64.5L828.276 63.2519C826.871 64.189 826.258 65.6647 826.258 67.35H827.758H829.258C829.258 66.4353 829.546 66.011 829.94 65.7481L829.108 64.5ZM827.758 67.35H826.258C826.258 68.5365 826.634 69.6207 827.379 70.5425C828.104 71.4396 829.121 72.1161 830.318 72.6287L830.908 71.25L831.499 69.8713C830.595 69.4839 830.038 69.0604 829.713 68.6575C829.407 68.2793 829.258 67.8634 829.258 67.35H827.758ZM830.908 71.25L830.374 72.6517C832.601 73.4999 836.056 74.3693 840.67 75.2721L840.958 73.8L841.246 72.3279C836.661 71.4307 833.416 70.6001 831.442 69.8483L830.908 71.25ZM840.958 73.8L840.669 75.2718C846.722 76.4626 851.795 77.7952 855.904 79.2626L856.408 77.85L856.913 76.4374C852.622 74.9048 847.395 73.5374 841.248 72.3282L840.958 73.8ZM856.408 77.85L855.904 79.2626C859.832 80.6656 863.265 83.1004 866.209 86.6133L867.358 85.65L868.508 84.6867C865.251 80.7996 861.385 78.0344 856.913 76.4374L856.408 77.85ZM867.358 85.65L866.222 86.6288C869.017 89.8745 870.508 94.4837 870.508 100.65H872.008H873.508C873.508 94.0163 871.9 88.6255 868.495 84.6712L867.358 85.65ZM872.008 100.65H870.508C870.508 105.338 869.156 109.529 866.444 113.27L867.658 114.15L868.873 115.03C871.961 110.771 873.508 105.962 873.508 100.65H872.008ZM867.658 114.15L866.444 113.27C863.736 117.004 859.778 120 854.48 122.216L855.058 123.6L855.637 124.984C861.339 122.6 865.781 119.296 868.873 115.03L867.658 114.15ZM855.058 123.6L854.471 122.22C849.296 124.424 843.154 125.55 836.008 125.55V127.05V128.55C843.463 128.55 850.021 127.376 855.646 124.98L855.058 123.6Z" fill="#252525" mask="url(#path-1-outside-1_83_1996)"/>
</svg>
