<svg width="871" height="129" viewBox="0 0 871 129" fill="none" xmlns="http://www.w3.org/2000/svg">
<mask id="path-1-outside-1_595_19" maskUnits="userSpaceOnUse" x="-0.425781" y="-0.149902" width="871" height="129" fill="black">
<rect fill="white" x="-0.425781" y="-0.149902" width="871" height="129"/>
<path d="M56.25 126.9C46.25 126.9 37.05 124.55 28.65 119.85C20.35 115.15 13.75 108.65 8.85 100.35C3.95 92.0501 1.5 82.7001 1.5 72.3001C1.5 61.9001 3.95 52.5501 8.85 44.2501C13.75 35.9501 20.35 29.5001 28.65 24.9001C37.05 20.2001 46.25 17.8501 56.25 17.8501C66.25 17.8501 75.4 20.2001 83.7 24.9001C92 29.5001 98.55 35.9501 103.35 44.2501C108.25 52.5501 110.7 61.9001 110.7 72.3001C110.7 82.7001 108.25 92.0501 103.35 100.35C98.55 108.65 91.95 115.15 83.55 119.85C75.25 124.55 66.15 126.9 56.25 126.9ZM56.25 95.8501C62.85 95.8501 67.95 93.7501 71.55 89.5501C75.15 85.2501 76.95 79.5001 76.95 72.3001C76.95 65.0001 75.15 59.2501 71.55 55.0501C67.95 50.7501 62.85 48.6001 56.25 48.6001C49.55 48.6001 44.4 50.7501 40.8 55.0501C37.2 59.2501 35.4 65.0001 35.4 72.3001C35.4 79.5001 37.2 85.2501 40.8 89.5501C44.4 93.7501 49.55 95.8501 56.25 95.8501ZM212.263 41.2501V125.85H178.963V112.95C176.363 116.95 172.863 120.2 168.463 122.7C164.163 125.2 159.013 126.45 153.013 126.45C143.313 126.45 135.713 123.2 130.213 116.7C124.813 110.2 122.113 101.4 122.113 90.3001V41.2501H155.263V86.1001C155.263 90.1001 156.313 93.3001 158.413 95.7001C160.613 98.0001 163.513 99.1501 167.113 99.1501C170.813 99.1501 173.713 98.0001 175.813 95.7001C177.913 93.3001 178.963 90.1001 178.963 86.1001V41.2501H212.263ZM260.603 56.8501C264.003 51.9501 268.153 48.0501 273.053 45.1501C277.953 42.1501 283.053 40.6501 288.353 40.6501V76.2001H278.903C272.603 76.2001 267.953 77.3001 264.953 79.5001C262.053 81.7001 260.603 85.6001 260.603 91.2001V125.85H227.303V41.2501H260.603V56.8501ZM319.811 72.6001C319.811 62.1001 321.911 52.7501 326.111 44.5501C330.411 36.3501 336.511 30.0001 344.411 25.5001C352.311 20.9001 361.611 18.6001 372.311 18.6001C381.511 18.6001 389.711 20.3501 396.911 23.8501C404.211 27.2501 410.111 32.1001 414.611 38.4001C419.211 44.7001 422.261 52.0501 423.761 60.4501H388.661C387.061 56.9501 384.761 54.2501 381.761 52.3501C378.861 50.3501 375.511 49.3501 371.711 49.3501C366.111 49.3501 361.661 51.4501 358.361 55.6501C355.161 59.8501 353.561 65.5001 353.561 72.6001C353.561 79.7001 355.161 85.3501 358.361 89.5501C361.661 93.7501 366.111 95.8501 371.711 95.8501C375.511 95.8501 378.861 94.9001 381.761 93.0001C384.761 91.0001 387.061 88.2501 388.661 84.7501H423.761C422.261 93.1501 419.211 100.5 414.611 106.8C410.111 113.1 404.211 118 396.911 121.5C389.711 124.9 381.511 126.6 372.311 126.6C361.611 126.6 352.311 124.35 344.411 119.85C336.511 115.25 330.411 108.85 326.111 100.65C321.911 92.4501 319.811 83.1001 319.811 72.6001ZM469.05 14.8501V125.85H435.75V14.8501H469.05ZM500.89 34.5001C495.09 34.5001 490.44 32.9501 486.94 29.8501C483.44 26.7501 481.69 22.8501 481.69 18.1501C481.69 13.3501 483.44 9.40009 486.94 6.30009C490.44 3.10009 495.09 1.50009 500.89 1.50009C506.59 1.50009 511.19 3.10009 514.69 6.30009C518.19 9.40009 519.94 13.3501 519.94 18.1501C519.94 22.8501 518.19 26.7501 514.69 29.8501C511.19 32.9501 506.59 34.5001 500.89 34.5001ZM517.39 41.2501V125.85H484.09V41.2501H517.39ZM614.33 82.8001C614.33 85.1001 614.18 87.3001 613.88 89.4001H560.33C560.83 96.7001 563.88 100.35 569.48 100.35C573.08 100.35 575.68 98.7001 577.28 95.4001H612.53C611.33 101.4 608.78 106.8 604.88 111.6C601.08 116.3 596.23 120.05 590.33 122.85C584.53 125.55 578.13 126.9 571.13 126.9C562.73 126.9 555.23 125.15 548.63 121.65C542.13 118.15 537.03 113.15 533.33 106.65C529.73 100.05 527.93 92.3501 527.93 83.5501C527.93 74.7501 529.73 67.1001 533.33 60.6001C537.03 54.0001 542.13 48.9501 548.63 45.4501C555.23 41.9501 562.73 40.2001 571.13 40.2001C579.53 40.2001 586.98 41.9501 593.48 45.4501C600.08 48.8501 605.18 53.7501 608.78 60.1501C612.48 66.5501 614.33 74.1001 614.33 82.8001ZM580.58 74.8501C580.58 72.0501 579.68 69.9501 577.88 68.5501C576.08 67.0501 573.83 66.3001 571.13 66.3001C565.23 66.3001 561.78 69.1501 560.78 74.8501H580.58ZM684.111 40.6501C693.811 40.6501 701.361 43.9001 706.761 50.4001C712.261 56.9001 715.011 65.7001 715.011 76.8001V125.85H681.861V81.0001C681.861 77.0001 680.761 73.8501 678.561 71.5501C676.461 69.1501 673.611 67.9501 670.011 67.9501C666.311 67.9501 663.411 69.1501 661.311 71.5501C659.211 73.8501 658.161 77.0001 658.161 81.0001V125.85H624.861V41.2501H658.161V54.1501C660.761 50.1501 664.211 46.9001 668.511 44.4001C672.911 41.9001 678.111 40.6501 684.111 40.6501ZM782.101 97.5001V125.85H769.501C746.301 125.85 734.701 114.3 734.701 91.2001V69.0001H724.201V41.2501H734.701V20.8501H768.001V41.2501H781.801V69.0001H768.001V91.8001C768.001 93.8001 768.451 95.2501 769.351 96.1501C770.351 97.0501 771.951 97.5001 774.151 97.5001H782.101ZM832.433 126.9C824.433 126.9 817.333 125.6 811.133 123C805.033 120.4 800.183 116.8 796.583 112.2C792.983 107.6 790.933 102.4 790.433 96.6001H822.383C822.783 99.1001 823.833 100.95 825.533 102.15C827.333 103.35 829.583 103.95 832.283 103.95C833.983 103.95 835.333 103.6 836.333 102.9C837.333 102.1 837.833 101.15 837.833 100.05C837.833 98.1501 836.783 96.8001 834.683 96.0001C832.583 95.2001 829.033 94.3001 824.033 93.3001C817.933 92.1001 812.883 90.8001 808.883 89.4001C804.983 88.0001 801.533 85.6001 798.533 82.2001C795.633 78.8001 794.183 74.1001 794.183 68.1001C794.183 62.9001 795.533 58.2001 798.233 54.0001C801.033 49.7001 805.133 46.3501 810.533 43.9501C815.933 41.4501 822.483 40.2001 830.183 40.2001C841.583 40.2001 850.483 43.0001 856.883 48.6001C863.383 54.2001 867.283 61.5001 868.583 70.5001H839.033C838.533 68.2001 837.483 66.4501 835.883 65.2501C834.283 63.9501 832.133 63.3001 829.433 63.3001C827.733 63.3001 826.433 63.6501 825.533 64.3501C824.633 64.9501 824.183 65.9001 824.183 67.2001C824.183 68.9001 825.233 70.2001 827.333 71.1001C829.433 71.9001 832.783 72.7501 837.383 73.6501C843.483 74.8501 848.633 76.2001 852.833 77.7001C857.033 79.2001 860.683 81.8001 863.783 85.5001C866.883 89.1001 868.433 94.1001 868.433 100.5C868.433 105.5 866.983 110 864.083 114C861.183 118 856.983 121.15 851.483 123.45C846.083 125.75 839.733 126.9 832.433 126.9Z"/>
</mask>
<path d="M28.65 119.85L27.9109 121.155L27.9176 121.159L28.65 119.85ZM8.85 100.35L7.5583 101.113V101.113L8.85 100.35ZM28.65 24.9001L29.3771 26.2121L29.3824 26.2091L28.65 24.9001ZM83.7 24.9001L82.9608 26.2054L82.9729 26.2121L83.7 24.9001ZM103.35 44.2501L102.051 45.0011L102.058 45.0127L103.35 44.2501ZM103.35 100.35L102.058 99.5875L102.052 99.5992L103.35 100.35ZM83.55 119.85L82.8176 118.541L82.8109 118.545L83.55 119.85ZM71.55 89.5501L72.6889 90.5263L72.6945 90.5197L72.7001 90.513L71.55 89.5501ZM71.55 55.0501L70.3999 56.013L70.4054 56.0197L70.4111 56.0263L71.55 55.0501ZM40.8 55.0501L41.9389 56.0263L41.9445 56.0197L41.9501 56.013L40.8 55.0501ZM40.8 89.5501L39.6499 90.513L39.6555 90.5197L39.6611 90.5263L40.8 89.5501ZM56.25 126.9V125.4C46.4961 125.4 37.5497 123.111 29.3824 118.541L28.65 119.85L27.9176 121.159C36.5503 125.989 46.0039 128.4 56.25 128.4V126.9ZM28.65 119.85L29.3891 118.545C21.3202 113.976 14.9097 107.664 10.1417 99.5875L8.85 100.35L7.5583 101.113C12.5903 109.636 19.3798 116.325 27.9109 121.155L28.65 119.85ZM8.85 100.35L10.1417 99.5875C5.3888 91.5367 3 82.4538 3 72.3001H1.5H0C0 82.9464 2.5112 92.5635 7.5583 101.113L8.85 100.35ZM1.5 72.3001H3C3 62.1464 5.3888 53.0635 10.1417 45.0127L8.85 44.2501L7.5583 43.4875C2.5112 52.0367 0 61.6538 0 72.3001H1.5ZM8.85 44.2501L10.1417 45.0127C14.9081 36.939 21.3147 30.6804 29.3771 26.2121L28.65 24.9001L27.9229 23.5881C19.3853 28.3198 12.5919 34.9612 7.5583 43.4875L8.85 44.2501ZM28.65 24.9001L29.3824 26.2091C37.5497 21.6393 46.4961 19.3501 56.25 19.3501V17.8501V16.3501C46.0039 16.3501 36.5503 18.7609 27.9176 23.5911L28.65 24.9001ZM56.25 17.8501V19.3501C66.004 19.3501 74.8974 21.6393 82.9609 26.2054L83.7 24.9001L84.4391 23.5948C75.9026 18.7609 66.496 16.3501 56.25 16.3501V17.8501ZM83.7 24.9001L82.9729 26.2121C91.0325 30.6789 97.3861 36.9338 102.052 45.001L103.35 44.2501L104.648 43.4992C99.7139 34.9664 92.9675 28.3213 84.4271 23.5881L83.7 24.9001ZM103.35 44.2501L102.058 45.0127C106.811 53.0635 109.2 62.1464 109.2 72.3001H110.7H112.2C112.2 61.6538 109.689 52.0367 104.642 43.4875L103.35 44.2501ZM110.7 72.3001H109.2C109.2 82.4538 106.811 91.5367 102.058 99.5875L103.35 100.35L104.642 101.113C109.689 92.5635 112.2 82.9464 112.2 72.3001H110.7ZM103.35 100.35L102.052 99.5992C97.3871 107.665 90.9831 113.972 82.8176 118.541L83.55 119.85L84.2824 121.159C92.9169 116.328 99.7129 109.636 104.648 101.101L103.35 100.35ZM83.55 119.85L82.8109 118.545C74.745 123.112 65.9012 125.4 56.25 125.4V126.9V128.4C66.3988 128.4 75.755 125.988 84.2891 121.155L83.55 119.85ZM56.25 95.8501V97.3501C63.1949 97.3501 68.7485 95.1234 72.6889 90.5263L71.55 89.5501L70.4111 88.5739C67.1515 92.3768 62.5051 94.3501 56.25 94.3501V95.8501ZM71.55 89.5501L72.7001 90.513C76.584 85.874 78.45 79.7502 78.45 72.3001H76.95H75.45C75.45 79.25 73.7161 84.6262 70.3999 88.5872L71.55 89.5501ZM76.95 72.3001H78.45C78.45 64.7581 76.5877 58.6225 72.6889 54.0739L71.55 55.0501L70.4111 56.0263C73.7123 59.8777 75.45 65.2421 75.45 72.3001H76.95ZM71.55 55.0501L72.7001 54.0872C68.7636 49.3852 63.2069 47.1001 56.25 47.1001V48.6001V50.1001C62.4931 50.1001 67.1364 52.115 70.3999 56.013L71.55 55.0501ZM56.25 48.6001V47.1001C49.2015 47.1001 43.5909 49.3798 39.6499 54.0872L40.8 55.0501L41.9501 56.013C45.2091 52.1204 49.8985 50.1001 56.25 50.1001V48.6001ZM40.8 55.0501L39.6611 54.0739C35.7623 58.6225 33.9 64.7581 33.9 72.3001H35.4H36.9C36.9 65.2421 38.6377 59.8777 41.9389 56.0263L40.8 55.0501ZM35.4 72.3001H33.9C33.9 79.7502 35.7661 85.874 39.6499 90.513L40.8 89.5501L41.9501 88.5872C38.634 84.6262 36.9 79.25 36.9 72.3001H35.4ZM40.8 89.5501L39.6611 90.5263C43.606 95.1286 49.2133 97.3501 56.25 97.3501V95.8501V94.3501C49.8867 94.3501 45.194 92.3716 41.9389 88.5739L40.8 89.5501ZM212.263 41.2501H213.763V39.7501H212.263V41.2501ZM212.263 125.85V127.35H213.763V125.85H212.263ZM178.963 125.85H177.463V127.35H178.963V125.85ZM178.963 112.95H180.463V107.89L177.705 112.133L178.963 112.95ZM168.463 122.7L167.722 121.396L167.715 121.4L167.709 121.403L168.463 122.7ZM130.213 116.7L129.059 117.659L129.068 117.669L130.213 116.7ZM122.113 41.2501V39.7501H120.613V41.2501H122.113ZM155.263 41.2501H156.763V39.7501H155.263V41.2501ZM158.413 95.7001L157.284 96.6879L157.306 96.7129L157.329 96.7369L158.413 95.7001ZM175.813 95.7001L176.921 96.7115L176.931 96.6998L176.942 96.6879L175.813 95.7001ZM178.963 41.2501V39.7501H177.463V41.2501H178.963ZM212.263 41.2501H210.763V125.85H212.263H213.763V41.2501H212.263ZM212.263 125.85V124.35H178.963V125.85V127.35H212.263V125.85ZM178.963 125.85H180.463V112.95H178.963H177.463V125.85H178.963ZM178.963 112.95L177.705 112.133C175.244 115.919 171.926 119.007 167.722 121.396L168.463 122.7L169.204 124.004C173.8 121.393 177.482 117.981 180.221 113.768L178.963 112.95ZM168.463 122.7L167.709 121.403C163.681 123.745 158.803 124.95 153.013 124.95V126.45V127.95C159.223 127.95 164.645 126.655 169.217 123.997L168.463 122.7ZM153.013 126.45V124.95C143.685 124.95 136.531 121.845 131.358 115.731L130.213 116.7L129.068 117.669C134.894 124.555 142.94 127.95 153.013 127.95V126.45ZM130.213 116.7L131.367 115.742C126.252 109.585 123.613 101.161 123.613 90.3001H122.113H120.613C120.613 101.639 123.373 110.815 129.059 117.659L130.213 116.7ZM122.113 90.3001H123.613V41.2501H122.113H120.613V90.3001H122.113ZM122.113 41.2501V42.7501H155.263V41.2501V39.7501H122.113V41.2501ZM155.263 41.2501H153.763V86.1001H155.263H156.763V41.2501H155.263ZM155.263 86.1001H153.763C153.763 90.3679 154.889 93.9502 157.284 96.6879L158.413 95.7001L159.542 94.7123C157.737 92.65 156.763 89.8323 156.763 86.1001H155.263ZM158.413 95.7001L157.329 96.7369C159.85 99.3728 163.162 100.65 167.113 100.65V99.1501V97.6501C163.863 97.6501 161.376 96.6274 159.497 94.6633L158.413 95.7001ZM167.113 99.1501V100.65C171.148 100.65 174.483 99.3813 176.921 96.7115L175.813 95.7001L174.705 94.6887C172.943 96.6189 170.478 97.6501 167.113 97.6501V99.1501ZM175.813 95.7001L176.942 96.6879C179.337 93.9502 180.463 90.3679 180.463 86.1001H178.963H177.463C177.463 89.8323 176.489 92.65 174.684 94.7123L175.813 95.7001ZM178.963 86.1001H180.463V41.2501H178.963H177.463V86.1001H178.963ZM178.963 41.2501V42.7501H212.263V41.2501V39.7501H178.963V41.2501ZM260.603 56.8501H259.103V61.6431L261.835 57.7052L260.603 56.8501ZM273.053 45.1501L273.817 46.441L273.826 46.4352L273.836 46.4294L273.053 45.1501ZM288.353 40.6501H289.853V39.1501H288.353V40.6501ZM288.353 76.2001V77.7001H289.853V76.2001H288.353ZM264.953 79.5001L264.066 78.2905L264.056 78.2977L264.046 78.3051L264.953 79.5001ZM260.603 125.85V127.35H262.103V125.85H260.603ZM227.303 125.85H225.803V127.35H227.303V125.85ZM227.303 41.2501V39.7501H225.803V41.2501H227.303ZM260.603 41.2501H262.103V39.7501H260.603V41.2501ZM260.603 56.8501L261.835 57.7052C265.118 52.9739 269.111 49.2259 273.817 46.441L273.053 45.1501L272.289 43.8592C267.194 46.8743 262.887 50.9263 259.37 55.995L260.603 56.8501ZM273.053 45.1501L273.836 46.4294C278.521 43.5611 283.352 42.1501 288.353 42.1501V40.6501V39.1501C282.753 39.1501 277.385 40.7391 272.27 43.8708L273.053 45.1501ZM288.353 40.6501H286.853V76.2001H288.353H289.853V40.6501H288.353ZM288.353 76.2001V74.7001H278.903V76.2001V77.7001H288.353V76.2001ZM278.903 76.2001V74.7001C272.483 74.7001 267.447 75.8107 264.066 78.2905L264.953 79.5001L265.84 80.7097C268.458 78.7895 272.722 77.7001 278.903 77.7001V76.2001ZM264.953 79.5001L264.046 78.3051C260.606 80.9151 259.103 85.3895 259.103 91.2001H260.603H262.103C262.103 85.8107 263.5 82.4851 265.859 80.6951L264.953 79.5001ZM260.603 91.2001H259.103V125.85H260.603H262.103V91.2001H260.603ZM260.603 125.85V124.35H227.303V125.85V127.35H260.603V125.85ZM227.303 125.85H228.803V41.2501H227.303H225.803V125.85H227.303ZM227.303 41.2501V42.7501H260.603V41.2501V39.7501H227.303V41.2501ZM260.603 41.2501H259.103V56.8501H260.603H262.103V41.2501H260.603ZM326.111 44.5501L324.782 43.8535L324.779 43.8599L324.775 43.8663L326.111 44.5501ZM344.411 25.5001L345.153 26.8035L345.159 26.7999L345.165 26.7964L344.411 25.5001ZM396.911 23.8501L396.255 25.1992L396.266 25.2046L396.277 25.2098L396.911 23.8501ZM414.611 38.4001L413.39 39.272L413.395 39.2783L413.399 39.2846L414.611 38.4001ZM423.761 60.4501V61.9501H425.552L425.237 60.1864L423.761 60.4501ZM388.661 60.4501L387.296 61.0737L387.697 61.9501H388.661V60.4501ZM381.761 52.3501L380.909 53.5849L380.933 53.6016L380.958 53.6173L381.761 52.3501ZM358.361 55.6501L357.181 54.7234L357.174 54.7321L357.167 54.741L358.361 55.6501ZM358.361 89.5501L357.167 90.4592L357.174 90.468L357.181 90.4768L358.361 89.5501ZM381.761 93.0001L382.583 94.2548L382.593 94.2482L381.761 93.0001ZM388.661 84.7501V83.2501H387.697L387.296 84.1264L388.661 84.7501ZM423.761 84.7501L425.237 85.0138L425.552 83.2501H423.761V84.7501ZM414.611 106.8L413.399 105.916L413.395 105.922L413.39 105.928L414.611 106.8ZM396.911 121.5L397.551 122.856L397.559 122.853L396.911 121.5ZM344.411 119.85L343.656 121.146L343.662 121.15L343.668 121.153L344.411 119.85ZM326.111 100.65L324.775 101.334L324.779 101.34L324.782 101.347L326.111 100.65ZM319.811 72.6001H321.311C321.311 62.3044 323.368 53.1944 327.446 45.2339L326.111 44.5501L324.775 43.8663C320.453 52.3058 318.311 61.8958 318.311 72.6001H319.811ZM326.111 44.5501L327.439 45.2467C331.608 37.2959 337.507 31.1587 345.153 26.8035L344.411 25.5001L343.668 24.1967C335.514 28.8415 329.213 35.4043 324.782 43.8535L326.111 44.5501ZM344.411 25.5001L345.165 26.7964C352.8 22.351 361.83 20.1001 372.311 20.1001V18.6001V17.1001C361.391 17.1001 351.821 19.4492 343.656 24.2038L344.411 25.5001ZM372.311 18.6001V20.1001C381.317 20.1001 389.288 21.8123 396.255 25.1992L396.911 23.8501L397.566 22.501C390.134 18.8879 381.704 17.1001 372.311 17.1001V18.6001ZM396.911 23.8501L396.277 25.2098C403.352 28.5052 409.047 33.1911 413.39 39.272L414.611 38.4001L415.831 37.5282C411.175 31.009 405.069 25.995 397.544 22.4903L396.911 23.8501ZM414.611 38.4001L413.399 39.2846C417.852 45.3837 420.82 52.5168 422.284 60.7138L423.761 60.4501L425.237 60.1864C423.701 51.5834 420.569 44.0164 415.822 37.5156L414.611 38.4001ZM423.761 60.4501V58.9501H388.661V60.4501V61.9501H423.761V60.4501ZM388.661 60.4501L390.025 59.8265C388.314 56.0851 385.829 53.1515 382.563 51.0829L381.761 52.3501L380.958 53.6173C383.692 55.3487 385.807 57.8151 387.296 61.0737L388.661 60.4501ZM381.761 52.3501L382.612 51.1153C379.442 48.9288 375.79 47.8501 371.711 47.8501V49.3501V50.8501C375.232 50.8501 378.279 51.7714 380.909 53.5849L381.761 52.3501ZM371.711 49.3501V47.8501C365.676 47.8501 360.781 50.1416 357.181 54.7234L358.361 55.6501L359.54 56.5768C362.54 52.7586 366.545 50.8501 371.711 50.8501V49.3501ZM358.361 55.6501L357.167 54.741C353.71 59.2794 352.061 65.2839 352.061 72.6001H353.561H355.061C355.061 65.7162 356.611 60.4208 359.554 56.5592L358.361 55.6501ZM353.561 72.6001H352.061C352.061 79.9162 353.71 85.9208 357.167 90.4592L358.361 89.5501L359.554 88.641C356.611 84.7794 355.061 79.4839 355.061 72.6001H353.561ZM358.361 89.5501L357.181 90.4768C360.781 95.0586 365.676 97.3501 371.711 97.3501V95.8501V94.3501C366.545 94.3501 362.54 92.4416 359.54 88.6234L358.361 89.5501ZM371.711 95.8501V97.3501C375.773 97.3501 379.415 96.3301 382.583 94.2548L381.761 93.0001L380.939 91.7454C378.306 93.4701 375.248 94.3501 371.711 94.3501V95.8501ZM381.761 93.0001L382.593 94.2482C385.84 92.083 388.317 89.1095 390.025 85.3737L388.661 84.7501L387.296 84.1264C385.804 87.3907 383.681 89.9172 380.928 91.752L381.761 93.0001ZM388.661 84.7501V86.2501H423.761V84.7501V83.2501H388.661V84.7501ZM423.761 84.7501L422.284 84.4864C420.82 92.6834 417.852 99.8164 413.399 105.916L414.611 106.8L415.822 107.685C420.569 101.184 423.701 93.6168 425.237 85.0138L423.761 84.7501ZM414.611 106.8L413.39 105.928C409.044 112.013 403.345 116.752 396.262 120.148L396.911 121.5L397.559 122.853C405.076 119.248 411.177 114.187 415.831 107.672L414.611 106.8ZM396.911 121.5L396.27 120.144C389.299 123.436 381.323 125.1 372.311 125.1V126.6V128.1C381.698 128.1 390.122 126.365 397.551 122.856L396.911 121.5ZM372.311 126.6V125.1C361.825 125.1 352.79 122.897 345.153 118.547L344.411 119.85L343.668 121.153C351.831 125.803 361.397 128.1 372.311 128.1V126.6ZM344.411 119.85L345.165 118.554C337.512 114.098 331.61 107.907 327.439 99.9535L326.111 100.65L324.782 101.347C329.211 109.793 335.509 116.402 343.656 121.146L344.411 119.85ZM326.111 100.65L327.446 99.9663C323.368 92.0058 321.311 82.8958 321.311 72.6001H319.811H318.311C318.311 83.3044 320.453 92.8944 324.775 101.334L326.111 100.65ZM469.05 14.8501H470.55V13.3501H469.05V14.8501ZM469.05 125.85V127.35H470.55V125.85H469.05ZM435.75 125.85H434.25V127.35H435.75V125.85ZM435.75 14.8501V13.3501H434.25V14.8501H435.75ZM469.05 14.8501H467.55V125.85H469.05H470.55V14.8501H469.05ZM469.05 125.85V124.35H435.75V125.85V127.35H469.05V125.85ZM435.75 125.85H437.25V14.8501H435.75H434.25V125.85H435.75ZM435.75 14.8501V16.3501H469.05V14.8501V13.3501H435.75V14.8501ZM486.94 29.8501L487.934 28.7272V28.7272L486.94 29.8501ZM486.94 6.30009L487.934 7.42297L487.943 7.41512L487.952 7.40714L486.94 6.30009ZM514.69 6.30009L513.678 7.40714L513.686 7.41512L513.695 7.42297L514.69 6.30009ZM514.69 29.8501L513.695 28.7272V28.7272L514.69 29.8501ZM517.39 41.2501H518.89V39.7501H517.39V41.2501ZM517.39 125.85V127.35H518.89V125.85H517.39ZM484.09 125.85H482.59V127.35H484.09V125.85ZM484.09 41.2501V39.7501H482.59V41.2501H484.09ZM500.89 34.5001V33.0001C495.365 33.0001 491.098 31.5297 487.934 28.7272L486.94 29.8501L485.945 30.973C489.781 34.3705 494.815 36.0001 500.89 36.0001V34.5001ZM486.94 29.8501L487.934 28.7272C484.758 25.9136 483.19 22.4233 483.19 18.1501H481.69H480.19C480.19 23.2769 482.122 27.5866 485.945 30.973L486.94 29.8501ZM481.69 18.1501H483.19C483.19 13.7664 484.766 10.2297 487.934 7.42297L486.94 6.30009L485.945 5.17721C482.114 8.57046 480.19 12.9338 480.19 18.1501H481.69ZM486.94 6.30009L487.952 7.40714C491.117 4.51343 495.377 3.00009 500.89 3.00009V1.50009V9.15527e-05C494.803 9.15527e-05 489.763 1.68674 485.928 5.19305L486.94 6.30009ZM500.89 1.50009V3.00009C506.295 3.00009 510.508 4.50906 513.678 7.40714L514.69 6.30009L515.702 5.19305C511.872 1.69112 506.885 9.15527e-05 500.89 9.15527e-05V1.50009ZM514.69 6.30009L513.695 7.42297C516.864 10.2297 518.44 13.7664 518.44 18.1501H519.94H521.44C521.44 12.9338 519.516 8.57046 515.684 5.17721L514.69 6.30009ZM519.94 18.1501H518.44C518.44 22.4233 516.872 25.9136 513.695 28.7272L514.69 29.8501L515.684 30.973C519.508 27.5866 521.44 23.2769 521.44 18.1501H519.94ZM514.69 29.8501L513.695 28.7272C510.527 31.5338 506.307 33.0001 500.89 33.0001V34.5001V36.0001C506.872 36.0001 511.853 34.3664 515.684 30.973L514.69 29.8501ZM517.39 41.2501H515.89V125.85H517.39H518.89V41.2501H517.39ZM517.39 125.85V124.35H484.09V125.85V127.35H517.39V125.85ZM484.09 125.85H485.59V41.2501H484.09H482.59V125.85H484.09ZM484.09 41.2501V42.7501H517.39V41.2501V39.7501H484.09V41.2501ZM613.88 89.4001V90.9001H615.181L615.365 89.6122L613.88 89.4001ZM560.33 89.4001V87.9001H558.723L558.833 89.5026L560.33 89.4001ZM577.28 95.4001V93.9001H576.34L575.93 94.7457L577.28 95.4001ZM612.53 95.4001L614.001 95.6943L614.359 93.9001H612.53V95.4001ZM604.88 111.6L603.716 110.654L603.713 110.657L604.88 111.6ZM590.33 122.85L590.963 124.21L590.973 124.205L590.33 122.85ZM548.63 121.65L547.919 122.971L547.927 122.975L548.63 121.65ZM533.33 106.65L532.013 107.368L532.019 107.38L532.026 107.392L533.33 106.65ZM533.33 60.6001L532.021 59.8666L532.018 59.8733L533.33 60.6001ZM548.63 45.4501L547.927 44.1249L547.919 44.1294L548.63 45.4501ZM593.48 45.4501L592.769 46.7708L592.781 46.7773L592.793 46.7836L593.48 45.4501ZM608.78 60.1501L607.472 60.8855L607.477 60.8932L607.481 60.9008L608.78 60.1501ZM580.58 74.8501V76.3501H582.08V74.8501H580.58ZM577.88 68.5501L576.919 69.7024L576.939 69.7186L576.959 69.7341L577.88 68.5501ZM560.78 74.8501L559.302 74.5909L558.994 76.3501H560.78V74.8501ZM614.33 82.8001H612.83C612.83 85.035 612.684 87.1638 612.395 89.188L613.88 89.4001L615.365 89.6122C615.675 87.4364 615.83 85.1652 615.83 82.8001H614.33ZM613.88 89.4001V87.9001H560.33V89.4001V90.9001H613.88V89.4001ZM560.33 89.4001L558.833 89.5026C559.094 93.309 560.03 96.4075 561.841 98.5744C563.703 100.802 566.323 101.85 569.48 101.85V100.35V98.8501C567.037 98.8501 565.332 98.0729 564.143 96.6508C562.904 95.1677 562.065 92.7912 561.826 89.2976L560.33 89.4001ZM569.48 100.35V101.85C571.515 101.85 573.355 101.381 574.933 100.379C576.51 99.3784 577.731 97.9069 578.629 96.0545L577.28 95.4001L575.93 94.7457C575.228 96.1933 574.349 97.1968 573.326 97.8461C572.305 98.4943 571.044 98.8501 569.48 98.8501V100.35ZM577.28 95.4001V96.9001H612.53V95.4001V93.9001H577.28V95.4001ZM612.53 95.4001L611.059 95.1059C609.907 100.864 607.464 106.041 603.716 110.654L604.88 111.6L606.044 112.546C610.096 107.559 612.752 101.936 614.001 95.6943L612.53 95.4001ZM604.88 111.6L603.713 110.657C600.066 115.168 595.4 118.783 589.687 121.495L590.33 122.85L590.973 124.205C597.059 121.317 602.094 117.432 606.046 112.543L604.88 111.6ZM590.33 122.85L589.697 121.49C584.113 124.09 577.932 125.4 571.13 125.4V126.9V128.4C578.328 128.4 584.946 127.011 590.963 124.21L590.33 122.85ZM571.13 126.9V125.4C562.944 125.4 555.69 123.696 549.332 120.325L548.63 121.65L547.927 122.975C554.769 126.604 562.516 128.4 571.13 128.4V126.9ZM548.63 121.65L549.341 120.329C543.092 116.965 538.196 112.167 534.633 105.908L533.33 106.65L532.026 107.392C535.863 114.133 541.167 119.335 547.919 122.971L548.63 121.65ZM533.33 106.65L534.647 105.932C531.186 99.587 529.43 92.1421 529.43 83.5501H527.93H526.43C526.43 92.5581 528.274 100.513 532.013 107.368L533.33 106.65ZM527.93 83.5501H529.43C529.43 74.9574 531.186 67.5667 534.642 61.3268L533.33 60.6001L532.018 59.8733C528.273 66.6335 526.43 74.5428 526.43 83.5501H527.93ZM533.33 60.6001L534.638 61.3336C538.202 54.9755 543.098 50.1322 549.341 46.7708L548.63 45.4501L547.919 44.1294C541.161 47.7679 535.857 53.0247 532.021 59.8666L533.33 60.6001ZM548.63 45.4501L549.332 46.7753C555.69 43.4037 562.944 41.7001 571.13 41.7001V40.2001V38.7001C562.516 38.7001 554.769 40.4965 547.927 44.1249L548.63 45.4501ZM571.13 40.2001V41.7001C579.316 41.7001 586.516 43.4039 592.769 46.7708L593.48 45.4501L594.191 44.1294C587.444 40.4963 579.743 38.7001 571.13 38.7001V40.2001ZM593.48 45.4501L592.793 46.7836C599.135 50.0508 604.018 54.7442 607.472 60.8855L608.78 60.1501L610.087 59.4147C606.341 52.756 601.024 47.6494 594.167 44.1166L593.48 45.4501ZM608.78 60.1501L607.481 60.9008C611.027 67.0352 612.83 74.3167 612.83 82.8001H614.33H615.83C615.83 73.8835 613.932 66.065 610.078 59.3993L608.78 60.1501ZM580.58 74.8501H582.08C582.08 71.7041 581.049 69.1151 578.801 67.3661L577.88 68.5501L576.959 69.7341C578.31 70.7851 579.08 72.3961 579.08 74.8501H580.58ZM577.88 68.5501L578.84 67.3978C576.73 65.6395 574.124 64.8001 571.13 64.8001V66.3001V67.8001C573.535 67.8001 575.429 68.4607 576.919 69.7024L577.88 68.5501ZM571.13 66.3001V64.8001C567.943 64.8001 565.231 65.5719 563.162 67.2812C561.089 68.9934 559.846 71.4944 559.302 74.5909L560.78 74.8501L562.257 75.1093C562.714 72.5058 563.695 70.7318 565.073 69.594C566.453 68.4533 568.416 67.8001 571.13 67.8001V66.3001ZM560.78 74.8501V76.3501H580.58V74.8501V73.3501H560.78V74.8501ZM706.761 50.4001L705.607 51.3587L705.616 51.369L706.761 50.4001ZM715.011 125.85V127.35H716.511V125.85H715.011ZM681.861 125.85H680.361V127.35H681.861V125.85ZM678.561 71.5501L677.432 72.5379L677.454 72.5629L677.477 72.5869L678.561 71.5501ZM661.311 71.5501L662.419 72.5615L662.43 72.5498L662.44 72.5379L661.311 71.5501ZM658.161 125.85V127.35H659.661V125.85H658.161ZM624.861 125.85H623.361V127.35H624.861V125.85ZM624.861 41.2501V39.7501H623.361V41.2501H624.861ZM658.161 41.2501H659.661V39.7501H658.161V41.2501ZM658.161 54.1501H656.661V59.2101L659.419 54.9676L658.161 54.1501ZM668.511 44.4001L667.77 43.0959L667.764 43.0996L667.757 43.1033L668.511 44.4001ZM684.111 40.6501V42.1501C693.439 42.1501 700.537 45.2546 705.608 51.3586L706.761 50.4001L707.915 49.4416C702.186 42.5455 694.183 39.1501 684.111 39.1501V40.6501ZM706.761 50.4001L705.616 51.369C710.825 57.5249 713.511 65.9454 713.511 76.8001H715.011H716.511C716.511 65.4548 713.698 56.2753 707.906 49.4312L706.761 50.4001ZM715.011 76.8001H713.511V125.85H715.011H716.511V76.8001H715.011ZM715.011 125.85V124.35H681.861V125.85V127.35H715.011V125.85ZM681.861 125.85H683.361V81.0001H681.861H680.361V125.85H681.861ZM681.861 81.0001H683.361C683.361 76.7177 682.176 73.1594 679.645 70.5133L678.561 71.5501L677.477 72.5869C679.346 74.5408 680.361 77.2825 680.361 81.0001H681.861ZM678.561 71.5501L679.69 70.5623C677.267 67.7928 673.982 66.4501 670.011 66.4501V67.9501V69.4501C673.241 69.4501 675.656 70.5074 677.432 72.5379L678.561 71.5501ZM670.011 67.9501V66.4501C665.955 66.4501 662.614 67.7833 660.182 70.5623L661.311 71.5501L662.44 72.5379C664.208 70.5169 666.667 69.4501 670.011 69.4501V67.9501ZM661.311 71.5501L660.204 70.5387C657.786 73.1867 656.661 76.7357 656.661 81.0001H658.161H659.661C659.661 77.2645 660.637 74.5135 662.419 72.5615L661.311 71.5501ZM658.161 81.0001H656.661V125.85H658.161H659.661V81.0001H658.161ZM658.161 125.85V124.35H624.861V125.85V127.35H658.161V125.85ZM624.861 125.85H626.361V41.2501H624.861H623.361V125.85H624.861ZM624.861 41.2501V42.7501H658.161V41.2501V39.7501H624.861V41.2501ZM658.161 41.2501H656.661V54.1501H658.161H659.661V41.2501H658.161ZM658.161 54.1501L659.419 54.9676C661.885 51.1731 665.159 48.0839 669.265 45.6969L668.511 44.4001L667.757 43.1033C663.263 45.7162 659.637 49.1271 656.904 53.3326L658.161 54.1501ZM668.511 44.4001L669.252 45.7043C673.388 43.3546 678.323 42.1501 684.111 42.1501V40.6501V39.1501C677.9 39.1501 672.435 40.4456 667.77 43.0959L668.511 44.4001ZM782.101 97.5001H783.601V96.0001H782.101V97.5001ZM782.101 125.85V127.35H783.601V125.85H782.101ZM734.701 69.0001H736.201V67.5001H734.701V69.0001ZM724.201 69.0001H722.701V70.5001H724.201V69.0001ZM724.201 41.2501V39.7501H722.701V41.2501H724.201ZM734.701 41.2501V42.7501H736.201V41.2501H734.701ZM734.701 20.8501V19.3501H733.201V20.8501H734.701ZM768.001 20.8501H769.501V19.3501H768.001V20.8501ZM768.001 41.2501H766.501V42.7501H768.001V41.2501ZM781.801 41.2501H783.301V39.7501H781.801V41.2501ZM781.801 69.0001V70.5001H783.301V69.0001H781.801ZM768.001 69.0001V67.5001H766.501V69.0001H768.001ZM769.351 96.1501L768.291 97.2108L768.318 97.2386L768.348 97.265L769.351 96.1501ZM782.101 97.5001H780.601V125.85H782.101H783.601V97.5001H782.101ZM782.101 125.85V124.35H769.501V125.85V127.35H782.101V125.85ZM769.501 125.85V124.35C758.131 124.35 749.879 121.521 744.46 116.125C739.041 110.73 736.201 102.517 736.201 91.2001H734.701H733.201C733.201 102.983 736.161 112.095 742.343 118.251C748.524 124.405 757.672 127.35 769.501 127.35V125.85ZM734.701 91.2001H736.201V69.0001H734.701H733.201V91.2001H734.701ZM734.701 69.0001V67.5001H724.201V69.0001V70.5001H734.701V69.0001ZM724.201 69.0001H725.701V41.2501H724.201H722.701V69.0001H724.201ZM724.201 41.2501V42.7501H734.701V41.2501V39.7501H724.201V41.2501ZM734.701 41.2501H736.201V20.8501H734.701H733.201V41.2501H734.701ZM734.701 20.8501V22.3501H768.001V20.8501V19.3501H734.701V20.8501ZM768.001 20.8501H766.501V41.2501H768.001H769.501V20.8501H768.001ZM768.001 41.2501V42.7501H781.801V41.2501V39.7501H768.001V41.2501ZM781.801 41.2501H780.301V69.0001H781.801H783.301V41.2501H781.801ZM781.801 69.0001V67.5001H768.001V69.0001V70.5001H781.801V69.0001ZM768.001 69.0001H766.501V91.8001H768.001H769.501V69.0001H768.001ZM768.001 91.8001H766.501C766.501 93.9775 766.984 95.9047 768.291 97.2108L769.351 96.1501L770.412 95.0894C769.918 94.5955 769.501 93.6227 769.501 91.8001H768.001ZM769.351 96.1501L768.348 97.265C769.752 98.5291 771.802 99.0001 774.151 99.0001V97.5001V96.0001C772.101 96.0001 770.95 95.5711 770.355 95.0352L769.351 96.1501ZM774.151 97.5001V99.0001H782.101V97.5001V96.0001H774.151V97.5001ZM811.133 123L810.545 124.38L810.553 124.383L811.133 123ZM790.433 96.6001V95.1001H788.798L788.939 96.7289L790.433 96.6001ZM822.383 96.6001L823.864 96.3631L823.662 95.1001H822.383V96.6001ZM825.533 102.15L824.668 103.376L824.685 103.387L824.701 103.398L825.533 102.15ZM836.333 102.9L837.193 104.129L837.233 104.101L837.27 104.071L836.333 102.9ZM824.033 93.3001L824.327 91.8292L824.323 91.8283L824.033 93.3001ZM808.883 89.4001L808.376 90.8119L808.388 90.8159L808.883 89.4001ZM798.533 82.2001L797.392 83.1735L797.4 83.1831L797.408 83.1925L798.533 82.2001ZM798.233 54.0001L796.976 53.1816L796.971 53.189L798.233 54.0001ZM810.533 43.9501L811.142 45.3208L811.153 45.3161L811.163 45.3113L810.533 43.9501ZM856.883 48.6001L855.895 49.729L855.904 49.7365L856.883 48.6001ZM868.583 70.5001V72.0001H870.315L870.068 70.2857L868.583 70.5001ZM839.033 70.5001L837.567 70.8187L837.824 72.0001H839.033V70.5001ZM835.883 65.2501L834.937 66.4143L834.96 66.4326L834.983 66.4501L835.883 65.2501ZM825.533 64.3501L826.365 65.5982L826.411 65.5678L826.454 65.5341L825.533 64.3501ZM827.333 71.1001L826.742 72.4788L826.771 72.4909L826.799 72.5018L827.333 71.1001ZM837.383 73.6501L837.673 72.1783L837.671 72.178L837.383 73.6501ZM852.833 77.7001L852.329 79.1127V79.1127L852.833 77.7001ZM863.783 85.5001L862.633 86.4634L862.64 86.4712L862.647 86.4789L863.783 85.5001ZM864.083 114L865.298 114.881V114.881L864.083 114ZM851.483 123.45L850.904 122.066L850.895 122.07L851.483 123.45ZM832.433 126.9V125.4C824.595 125.4 817.698 124.127 811.713 121.617L811.133 123L810.553 124.383C816.968 127.074 824.271 128.4 832.433 128.4V126.9ZM811.133 123L811.721 121.62C805.822 119.106 801.188 115.651 797.764 111.276L796.583 112.2L795.402 113.125C799.178 117.95 804.244 121.694 810.545 124.38L811.133 123ZM796.583 112.2L797.764 111.276C794.343 106.904 792.403 101.98 791.928 96.4713L790.433 96.6001L788.939 96.7289C789.464 102.82 791.623 108.296 795.402 113.125L796.583 112.2ZM790.433 96.6001V98.1001H822.383V96.6001V95.1001H790.433V96.6001ZM822.383 96.6001L820.902 96.8371C821.351 99.6436 822.569 101.894 824.668 103.376L825.533 102.15L826.398 100.925C825.098 100.007 824.215 98.5566 823.864 96.3631L822.383 96.6001ZM825.533 102.15L824.701 103.398C826.802 104.799 829.361 105.45 832.283 105.45V103.95V102.45C829.806 102.45 827.864 101.901 826.365 100.902L825.533 102.15ZM832.283 103.95V105.45C834.174 105.45 835.86 105.062 837.193 104.129L836.333 102.9L835.473 101.671C834.807 102.138 833.793 102.45 832.283 102.45V103.95ZM836.333 102.9L837.27 104.071C838.561 103.039 839.333 101.684 839.333 100.05H837.833H836.333C836.333 100.617 836.106 101.161 835.396 101.729L836.333 102.9ZM837.833 100.05H839.333C839.333 98.8057 838.982 97.6593 838.23 96.6917C837.491 95.7419 836.445 95.0662 835.217 94.5984L834.683 96.0001L834.149 97.4018C835.021 97.734 835.55 98.1332 835.862 98.5335C836.159 98.9159 836.333 99.3945 836.333 100.05H837.833ZM834.683 96.0001L835.217 94.5984C832.99 93.75 829.333 92.8303 824.327 91.8292L824.033 93.3001L823.739 94.771C828.733 95.7698 832.176 96.6501 834.149 97.4018L834.683 96.0001ZM824.033 93.3001L824.323 91.8283C818.264 90.6363 813.288 89.3527 809.379 87.9843L808.883 89.4001L808.388 90.8159C812.478 92.2475 817.603 93.5639 823.744 94.7719L824.033 93.3001ZM808.883 89.4001L809.39 87.9883C805.75 86.6816 802.507 84.4363 799.658 81.2077L798.533 82.2001L797.408 83.1925C800.56 86.7639 804.216 89.3185 808.376 90.8119L808.883 89.4001ZM798.533 82.2001L799.674 81.2267C797.075 78.1791 795.683 73.8664 795.683 68.1001H794.183H792.683C792.683 74.3338 794.191 79.4211 797.392 83.1735L798.533 82.2001ZM794.183 68.1001H795.683C795.683 63.1752 796.957 58.7589 799.495 54.8112L798.233 54.0001L796.971 53.189C794.109 57.6413 792.683 62.625 792.683 68.1001H794.183ZM798.233 54.0001L799.49 54.8186C802.109 50.7965 805.966 47.6214 811.142 45.3208L810.533 43.9501L809.924 42.5794C804.3 45.0788 799.957 48.6037 796.976 53.1816L798.233 54.0001ZM810.533 43.9501L811.163 45.3113C816.317 42.9255 822.639 41.7001 830.183 41.7001V40.2001V38.7001C822.327 38.7001 815.55 39.9747 809.903 42.5889L810.533 43.9501ZM830.183 40.2001V41.7001C841.345 41.7001 849.85 44.4394 855.895 49.729L856.883 48.6001L857.871 47.4712C851.116 41.5608 841.821 38.7001 830.183 38.7001V40.2001ZM856.883 48.6001L855.904 49.7365C862.113 55.0853 865.847 62.0495 867.099 70.7145L868.583 70.5001L870.068 70.2857C868.719 60.9507 864.654 53.3149 857.862 47.4637L856.883 48.6001ZM868.583 70.5001V69.0001H839.033V70.5001V72.0001H868.583V70.5001ZM839.033 70.5001L840.499 70.1814C839.937 67.5949 838.721 65.5035 836.783 64.0501L835.883 65.2501L834.983 66.4501C836.245 67.3967 837.13 68.8053 837.567 70.8187L839.033 70.5001ZM835.883 65.2501L836.829 64.0859C834.889 62.5093 832.37 61.8001 829.433 61.8001V63.3001V64.8001C831.896 64.8001 833.678 65.3909 834.937 66.4143L835.883 65.2501ZM829.433 63.3001V61.8001C827.556 61.8001 825.877 62.1823 824.612 63.1661L825.533 64.3501L826.454 65.5341C826.989 65.1179 827.91 64.8001 829.433 64.8001V63.3001ZM825.533 64.3501L824.701 63.102C823.296 64.0391 822.683 65.5148 822.683 67.2001H824.183H825.683C825.683 66.2854 825.971 65.8611 826.365 65.5982L825.533 64.3501ZM824.183 67.2001H822.683C822.683 68.3866 823.059 69.4708 823.804 70.3926C824.528 71.2897 825.546 71.9662 826.742 72.4788L827.333 71.1001L827.924 69.7214C827.02 69.334 826.463 68.9105 826.138 68.5076C825.832 68.1294 825.683 67.7135 825.683 67.2001H824.183ZM827.333 71.1001L826.799 72.5018C829.026 73.35 832.481 74.2194 837.095 75.1222L837.383 73.6501L837.671 72.178C833.085 71.2808 829.841 70.4502 827.867 69.6984L827.333 71.1001ZM837.383 73.6501L837.094 75.1219C843.147 76.3127 848.22 77.6453 852.329 79.1127L852.833 77.7001L853.338 76.2875C849.046 74.7549 843.82 73.3875 837.673 72.1783L837.383 73.6501ZM852.833 77.7001L852.329 79.1127C856.257 80.5157 859.69 82.9505 862.633 86.4634L863.783 85.5001L864.933 84.5368C861.676 80.6497 857.809 77.8845 853.338 76.2875L852.833 77.7001ZM863.783 85.5001L862.647 86.4789C865.441 89.7246 866.933 94.3337 866.933 100.5H868.433H869.933C869.933 93.8664 868.325 88.4756 864.92 84.5213L863.783 85.5001ZM868.433 100.5H866.933C866.933 105.188 865.581 109.379 862.869 113.12L864.083 114L865.298 114.881C868.386 110.621 869.933 105.812 869.933 100.5H868.433ZM864.083 114L862.869 113.12C860.161 116.855 856.203 119.85 850.904 122.066L851.483 123.45L852.062 124.834C857.763 122.45 862.205 119.146 865.298 114.881L864.083 114ZM851.483 123.45L850.895 122.07C845.721 124.274 839.579 125.4 832.433 125.4V126.9V128.4C839.888 128.4 846.446 127.226 852.071 124.83L851.483 123.45Z" fill="black" mask="url(#path-1-outside-1_595_19)"/>
</svg>
