<svg width="1782" height="179" viewBox="0 0 1782 179" fill="none" xmlns="http://www.w3.org/2000/svg">
<path d="M264.128 64.7906C262.061 58.7656 258.637 53.1173 253.831 48.3133L205.501 0L173.505 31.9845L190.947 49.4202L206.151 34.221L236.812 64.8704C236.892 64.9389 236.972 65.0188 237.04 65.0872C237.109 65.1557 237.188 65.2356 237.257 65.3155C242.964 71.2148 244.049 79.9213 240.533 86.9503C239.677 88.6734 238.547 90.2937 237.131 91.7543C237.063 91.8342 236.983 91.914 236.903 91.9939C236.823 92.0738 236.755 92.1423 236.663 92.2221C229.187 99.4566 217.304 99.4338 209.987 92.1194L133.256 15.4274C127.514 9.68777 120.334 5.44295 112.366 3.24067C107.093 1.76867 101.465 1.19813 95.6777 1.70021C92.824 1.93984 90.0502 2.4305 87.3677 3.14938C82.6191 4.42739 78.1901 6.40146 74.172 8.96889C82.4821 10.8174 90.3698 13.8755 97.6297 17.972C104.536 21.8517 110.871 26.6556 116.464 32.2469L193.195 108.95C198.001 113.754 203.651 117.189 209.678 119.243C210.774 119.619 211.882 119.95 213.012 120.236C220.968 122.267 229.392 121.97 237.211 119.368C237.816 119.174 238.421 118.946 239.026 118.718C244.46 116.63 249.539 113.412 253.911 109.042C258.774 104.181 262.221 98.441 264.242 92.3362C267.21 83.4244 267.175 73.7138 264.116 64.8134L264.128 64.7906Z" fill="#E43E56"/>
<path d="M197.039 131.875C190.43 128.064 184.357 123.408 178.97 118.034L103.654 42.7337C98.1177 37.5646 91.3715 33.7305 83.929 31.6766C78.6553 30.2046 73.0392 29.6341 67.2632 30.1247C65.8934 30.2388 64.5579 30.4328 63.2338 30.661C63.0511 30.6953 62.8799 30.7181 62.7087 30.7523C60.9508 31.0718 59.2385 31.4826 57.572 31.9847C57.2866 32.0646 57.0126 32.1559 56.7273 32.2471C56.2593 32.3955 55.7912 32.5552 55.3232 32.715C55.2547 32.7378 55.1862 32.7606 55.1063 32.7834C51.8074 33.9816 48.6912 35.4992 45.7918 37.3478C48.3259 37.8955 50.8143 38.5573 53.2571 39.3218C69.1124 44.2855 83.1185 53.7223 93.6659 66.2741L161.619 134.203C167.361 139.942 174.541 144.187 182.508 146.401C187.782 147.861 193.409 148.432 199.185 147.941C202.039 147.702 204.813 147.211 207.495 146.492C208.74 146.15 209.972 145.773 211.171 145.351C214.344 144.221 217.346 142.761 220.143 141.015C217.712 140.444 215.315 139.76 212.963 138.972C207.404 137.135 202.085 134.739 197.074 131.852L197.039 131.875Z" fill="#E43E56"/>
<path d="M150.606 146.869L73.0303 69.3213C68.2246 64.5173 62.5742 61.0827 56.5585 59.0173C55.4285 58.6293 54.287 58.287 53.1341 57.9903C45.1779 55.9706 36.7765 56.2673 28.9801 58.8576C28.4208 59.0515 27.8615 59.2455 27.3135 59.4509C21.8915 61.5163 16.8004 64.7341 12.4399 69.0931C7.63424 73.897 4.20976 79.5796 2.20074 85.6273C-0.778551 94.5391 -0.732891 104.261 2.33772 113.207C4.40382 119.221 7.85112 124.869 12.6568 129.662L61.661 178.648L93.6342 146.687L76.1922 129.251L61.0218 144.416L29.4595 112.865C23.5809 106.988 22.3709 98.202 25.8524 91.1387C26.6971 89.4043 27.8272 87.7725 29.2427 86.312C29.3112 86.2321 29.3911 86.1522 29.4595 86.0837C29.528 86.0153 29.6079 85.9354 29.6878 85.8669C37.0961 78.6895 48.922 78.7694 56.2389 86.0837L134.933 164.75C140.298 169.531 146.748 173.091 153.814 175.054C159.087 176.526 164.715 177.085 170.491 176.594C173.379 176.343 176.187 175.853 178.892 175.122C183.344 173.913 187.51 172.087 191.323 169.748C183.184 167.774 175.468 164.636 168.368 160.505C161.884 156.739 155.902 152.129 150.606 146.846V146.869Z" fill="#E43E56"/>
<path d="M326.776 131.634L330.608 106.151H406.357L410.189 131.634H326.776ZM368.032 60.822L344.36 115.171L345.037 122.388L324.296 167.491H288L368.032 0.383832L448.063 167.491H411.542L391.252 123.741L391.703 115.622L368.032 60.822Z" fill="#252525"/>
<path d="M499.901 78.8632L489.756 167.491H456.165L479.611 1.73693L545.665 103.67L611.72 1.73693L635.166 167.491H601.575L591.43 78.8632L545.665 152.832L499.901 78.8632Z" fill="#252525"/>
<path d="M674.214 114.495C677.521 120.358 681.128 125.47 685.036 129.83C689.094 134.19 693.527 137.572 698.337 139.978C703.146 142.383 708.331 143.586 713.892 143.586C720.355 143.586 725.615 141.932 729.673 138.625C733.731 135.317 735.76 130.807 735.76 125.094C735.76 120.133 734.482 116.148 731.927 113.142C729.523 110.135 725.841 107.504 720.881 105.249C716.071 102.843 710.135 100.287 703.071 97.581C699.314 96.2279 694.955 94.4238 689.995 92.1686C685.186 89.7631 680.602 86.7563 676.243 83.148C671.885 79.3894 668.278 74.8791 665.422 69.6171C662.567 64.2047 661.139 57.7399 661.139 50.2227C661.139 41.2021 663.393 33.4594 667.902 26.9947C672.561 20.3795 678.799 15.343 686.614 11.8851C694.579 8.27687 703.447 6.47275 713.216 6.47275C723.286 6.47275 731.927 8.2017 739.142 11.6596C746.506 14.9672 752.593 19.252 757.402 24.514C762.362 29.6257 766.195 34.9629 768.9 40.5256L743.65 54.5075C741.546 50.749 738.991 47.3662 735.985 44.3594C733.13 41.2021 729.823 38.7215 726.066 36.9173C722.309 34.9629 718.025 33.9856 713.216 33.9856C706.904 33.9856 702.169 35.4891 699.013 38.4959C695.857 41.3525 694.279 44.7352 694.279 48.6441C694.279 52.5531 695.556 56.011 698.111 59.0179C700.666 61.8744 704.574 64.6557 709.834 67.3619C715.095 69.9178 721.708 72.5488 729.673 75.255C734.783 77.0591 739.668 79.3143 744.327 82.0204C749.136 84.7266 753.42 88.0342 757.177 91.9431C761.085 95.7017 764.091 100.212 766.195 105.474C768.449 110.586 769.576 116.524 769.576 123.29C769.576 130.957 768.073 137.798 765.067 143.812C762.062 149.825 757.928 154.937 752.668 159.147C747.408 163.206 741.471 166.288 734.858 168.393C728.396 170.648 721.557 171.776 714.343 171.776C704.724 171.776 695.707 169.971 687.29 166.363C679.024 162.605 671.81 157.568 665.648 151.254C659.486 144.939 654.676 138.099 651.22 130.732L674.214 114.495Z" fill="#252525"/>
<path d="M885.316 131.634L889.148 106.151H964.896L968.729 131.634H885.316ZM926.572 60.822L902.9 115.171L903.576 122.388L882.836 167.491H846.54L926.572 0.383832L1006.6 167.491H970.082L949.792 123.741L950.243 115.622L926.572 60.822Z" fill="#252525"/>
<path d="M1093.55 108.857V83.148H1171.33C1171.78 95.1755 1170.35 106.526 1167.04 117.201C1163.89 127.875 1158.85 137.347 1151.94 145.616C1145.17 153.734 1136.76 160.124 1126.69 164.785C1116.62 169.445 1105.12 171.776 1092.2 171.776C1080.02 171.776 1068.75 169.746 1058.38 165.687C1048.16 161.627 1039.22 155.914 1031.55 148.547C1024.04 141.181 1018.18 132.386 1013.97 122.162C1009.91 111.939 1007.88 100.738 1007.88 88.5604C1007.88 76.3826 1009.98 65.2571 1014.19 55.1841C1018.55 44.9607 1024.56 36.2408 1032.23 29.0243C1039.89 21.8078 1048.91 16.2451 1059.28 12.3362C1069.65 8.42722 1080.92 6.47275 1093.1 6.47275C1103.92 6.47275 1113.61 7.97619 1122.18 10.9831C1130.9 13.9899 1138.56 18.1996 1145.17 23.6119C1151.94 28.874 1157.72 35.1884 1162.53 42.5552L1135.03 58.5668C1131.12 51.651 1125.64 46.0883 1118.57 41.8787C1111.66 37.5187 1103.17 35.3387 1093.1 35.3387C1083.63 35.3387 1074.99 37.5187 1067.17 41.8787C1059.36 46.0883 1053.12 52.1772 1048.46 60.1454C1043.95 68.1136 1041.7 77.5853 1041.7 88.5604C1041.7 99.3851 1043.95 108.932 1048.46 117.201C1052.97 125.319 1059.06 131.634 1066.72 136.144C1074.54 140.654 1083.33 142.91 1093.1 142.91C1099.56 142.91 1105.35 142.083 1110.46 140.429C1115.57 138.625 1119.92 136.144 1123.53 132.987C1127.29 129.83 1130.45 126.221 1133 122.162C1135.55 118.103 1137.51 113.668 1138.86 108.857H1093.55Z" fill="#252525"/>
<path d="M1218.39 167.491V140.203H1297.97V167.491H1218.39ZM1218.39 36.9173V9.62997H1297.97V36.9173H1218.39ZM1218.39 97.13V70.2936H1293.46V97.13H1218.39ZM1197.65 9.62997H1228.76V167.491H1197.65V9.62997Z" fill="#252525"/>
<path d="M1442.01 9.62997H1473.12V175.384L1360.85 69.6171V167.491H1329.74V1.73693L1442.01 107.504V9.62997Z" fill="#252525"/>
<path d="M1533.33 88.5604C1533.33 98.9341 1535.66 108.03 1540.32 115.848C1545.13 123.515 1551.37 129.454 1559.04 133.663C1566.7 137.723 1575.04 139.752 1584.06 139.752C1591.57 139.752 1598.26 138.775 1604.12 136.821C1609.98 134.866 1615.24 132.235 1619.9 128.928C1624.71 125.62 1628.85 122.012 1632.3 118.103V154.411C1625.84 159.523 1618.78 163.507 1611.11 166.363C1603.6 169.22 1594.05 170.648 1582.48 170.648C1570.46 170.648 1559.26 168.694 1548.89 164.785C1538.67 160.876 1529.73 155.238 1522.06 147.871C1514.55 140.504 1508.69 131.859 1504.48 121.937C1500.42 111.864 1498.39 100.738 1498.39 88.5604C1498.39 76.3826 1500.42 65.3323 1504.48 55.4096C1508.69 45.3366 1514.55 36.6167 1522.06 29.2498C1529.73 21.883 1538.67 16.2451 1548.89 12.3362C1559.26 8.42722 1570.46 6.47275 1582.48 6.47275C1594.05 6.47275 1603.6 7.90102 1611.11 10.7575C1618.78 13.6141 1625.84 17.5982 1632.3 22.7099V59.0179C1628.85 55.1089 1624.71 51.5007 1619.9 48.1931C1615.24 44.8856 1609.98 42.2545 1604.12 40.3001C1598.26 38.3456 1591.57 37.3684 1584.06 37.3684C1575.04 37.3684 1566.7 39.4732 1559.04 43.6828C1551.37 47.7421 1545.13 53.6055 1540.32 61.273C1535.66 68.9405 1533.33 78.0363 1533.33 88.5604Z" fill="#252525"/>
<path d="M1745.25 9.62997H1782L1727.67 102.091V167.491H1694.98V102.317L1640.65 9.62997H1677.4L1711.21 73.2253L1745.25 9.62997Z" fill="#252525"/>
</svg>
