<svg width="42" height="29" viewBox="0 0 42 29" fill="none" xmlns="http://www.w3.org/2000/svg">
<path d="M41.637 10.2175C41.3112 9.26681 40.7722 8.37833 40.014 7.62017L32.3939 0L27.3503 5.04359L30.0986 7.79194L32.4945 5.39602L37.3279 10.2293C37.3279 10.2293 37.3516 10.253 37.3634 10.2649C37.3752 10.2767 37.3871 10.2886 37.3989 10.3004C38.2993 11.2303 38.4681 12.6045 37.9143 13.7122C37.781 13.9846 37.6003 14.2393 37.3782 14.4703C37.3664 14.4822 37.3545 14.494 37.3427 14.5088C37.3308 14.5207 37.319 14.5325 37.3042 14.5444C36.1255 15.6846 34.2537 15.6816 33.0987 14.5296L21.0065 2.43146C20.1033 1.52818 18.969 0.855899 17.7133 0.509393C16.8811 0.278389 15.9955 0.18658 15.0834 0.266543C14.6332 0.305044 14.1949 0.382045 13.7743 0.494585C13.0251 0.695973 12.3261 1.00694 11.6953 1.41268C13.0043 1.70291 14.2482 2.18861 15.3943 2.83128C16.4842 3.44137 17.4823 4.2025 18.3648 5.08209L30.4599 17.1772C31.2181 17.9354 32.1095 18.4744 33.0573 18.8002C33.229 18.8594 33.4067 18.9127 33.5815 18.9571C34.8372 19.277 36.164 19.2326 37.396 18.8209C37.4908 18.7913 37.5855 18.7557 37.6803 18.7172C38.5362 18.3885 39.3388 17.8791 40.0259 17.192C40.7929 16.425 41.3349 15.5217 41.6547 14.5592C42.1227 13.1524 42.1168 11.6242 41.637 10.2204V10.2175Z" fill="#252525"/>
<path d="M31.0595 20.7933C30.0171 20.1921 29.0605 19.4576 28.2135 18.6106L16.3404 6.73762C15.4697 5.92318 14.4036 5.31901 13.2308 4.99324C12.3986 4.76224 11.5131 4.67043 10.6038 4.75039C10.3876 4.76816 10.1774 4.79777 9.97007 4.83331C9.94341 4.83924 9.9138 4.8422 9.88714 4.84812C9.61171 4.89847 9.33925 4.96362 9.07567 5.04359C9.03124 5.05839 8.98682 5.07024 8.94239 5.08505C8.86836 5.10874 8.79432 5.13243 8.72028 5.15909C8.70843 5.16205 8.69658 5.16501 8.6877 5.17093C8.16942 5.36048 7.67483 5.60036 7.21875 5.8906C7.61856 5.97649 8.00949 6.08014 8.3945 6.20157C10.8941 6.98343 13.1005 8.47311 14.7649 10.4514L25.4769 21.1635C26.3832 22.0698 27.5145 22.7391 28.7702 23.0856C29.6024 23.3166 30.488 23.4054 31.4001 23.3284C31.8503 23.2899 32.2886 23.2129 32.7091 23.1004C32.9046 23.0471 33.1001 22.9879 33.2867 22.9197C33.7872 22.742 34.261 22.511 34.7023 22.2356C34.3173 22.1438 33.9412 22.0372 33.571 21.9128C32.6943 21.6226 31.8562 21.2464 31.0655 20.7904L31.0595 20.7933Z" fill="#252525"/>
<path d="M23.7406 23.1596L11.5122 10.9312C10.754 10.173 9.86257 9.63402 8.91486 9.30529C8.73716 9.2431 8.55651 9.18979 8.37585 9.1424C7.12013 8.82551 5.7963 8.86993 4.57021 9.27863C4.48136 9.30825 4.39547 9.34083 4.30662 9.3734C3.45073 9.69918 2.64813 10.2056 1.96105 10.8957C1.20288 11.6538 0.66387 12.5482 0.34698 13.5048C-0.123913 14.9116 -0.115028 16.4427 0.370673 17.8524C0.696448 18.8001 1.23842 19.6916 1.99659 20.4468L9.72041 28.1706L14.761 23.13L12.0127 20.3816L9.61971 22.7746L4.64425 17.7991C3.71727 16.8721 3.52773 15.4861 4.07562 14.3726C4.20889 14.0971 4.38659 13.8424 4.61167 13.6114C4.62351 13.5996 4.63536 13.5877 4.64721 13.5759C4.65905 13.5641 4.6709 13.5522 4.68275 13.5404C5.84961 12.409 7.71541 12.4209 8.86747 13.5759L21.2736 25.982C22.1206 26.7372 23.1364 27.2969 24.25 27.6049C25.0822 27.836 25.9677 27.9248 26.8799 27.8478C27.3359 27.8093 27.7772 27.7323 28.2037 27.6168C28.9056 27.4273 29.5631 27.14 30.1613 26.7698C28.8789 26.4588 27.6617 25.9642 26.5422 25.3127C25.5205 24.7174 24.5787 23.9918 23.7435 23.1566L23.7406 23.1596Z" fill="#252525"/>
</svg>
