<svg width="311" height="49" viewBox="0 0 311 49" fill="none" xmlns="http://www.w3.org/2000/svg">
<path d="M31.588 2.6H40.144V48.17L9.268 19.092V46H0.712V0.429999L31.588 29.508V2.6ZM47.3273 31.74C47.3273 28.764 48.0093 26.16 49.3733 23.928C50.7787 21.696 52.6593 19.96 55.0153 18.72C57.4127 17.48 60.12 16.86 63.1373 16.86C66.1547 16.86 68.8413 17.48 71.1973 18.72C73.5947 19.96 75.4753 21.696 76.8393 23.928C78.2447 26.16 78.9473 28.764 78.9473 31.74C78.9473 34.6747 78.2447 37.2787 76.8393 39.552C75.4753 41.784 73.5947 43.52 71.1973 44.76C68.8413 46 66.1547 46.62 63.1373 46.62C60.12 46.62 57.4127 46 55.0153 44.76C52.6593 43.52 50.7787 41.784 49.3733 39.552C48.0093 37.2787 47.3273 34.6747 47.3273 31.74ZM55.5113 31.74C55.5113 33.352 55.842 34.778 56.5033 36.018C57.206 37.2167 58.136 38.1673 59.2933 38.87C60.4507 39.5313 61.732 39.862 63.1373 39.862C64.5427 39.862 65.824 39.5313 66.9813 38.87C68.1387 38.1673 69.048 37.2167 69.7093 36.018C70.412 34.778 70.7633 33.352 70.7633 31.74C70.7633 30.128 70.412 28.702 69.7093 27.462C69.048 26.222 68.1387 25.2713 66.9813 24.61C65.824 23.9487 64.5427 23.618 63.1373 23.618C61.732 23.618 60.4507 23.9487 59.2933 24.61C58.136 25.2713 57.206 26.222 56.5033 27.462C55.842 28.702 55.5113 30.128 55.5113 31.74ZM81.734 17.48H99.342V24.238H81.734V17.48ZM86.632 7.56H94.382V46H86.632V7.56ZM111.911 17.48V46H104.037V17.48H111.911ZM120.281 25.85C119.743 25.354 119.185 24.982 118.607 24.734C118.069 24.4447 117.387 24.3 116.561 24.3C115.569 24.3 114.721 24.5687 114.019 25.106C113.316 25.6433 112.779 26.408 112.407 27.4C112.076 28.3507 111.911 29.508 111.911 30.872L109.679 28.64C109.679 26.3667 110.113 24.362 110.981 22.626C111.849 20.8487 112.985 19.4433 114.391 18.41C115.796 17.3353 117.243 16.798 118.731 16.798C119.764 16.798 120.735 16.984 121.645 17.356C122.595 17.728 123.36 18.286 123.939 19.03L120.281 25.85ZM141.161 46.62C138.061 46.62 135.353 46 133.039 44.76C130.724 43.52 128.926 41.8047 127.645 39.614C126.405 37.382 125.785 34.7573 125.785 31.74C125.785 28.6813 126.405 26.0567 127.645 23.866C128.926 21.634 130.724 19.9187 133.039 18.72C135.353 17.48 138.081 16.86 141.223 16.86C144.364 16.86 147.03 17.4387 149.221 18.596C151.453 19.712 153.147 21.3653 154.305 23.556C155.462 25.7053 156.041 28.3093 156.041 31.368C156.041 31.74 156.02 32.1327 155.979 32.546C155.979 32.9593 155.958 33.29 155.917 33.538H130.373V28.578H148.911L146.741 31.43C146.906 31.182 147.051 30.8513 147.175 30.438C147.34 29.9833 147.423 29.6113 147.423 29.322C147.423 27.9167 147.154 26.718 146.617 25.726C146.121 24.734 145.397 23.9487 144.447 23.37C143.496 22.7913 142.38 22.502 141.099 22.502C139.528 22.502 138.205 22.8533 137.131 23.556C136.097 24.2173 135.291 25.23 134.713 26.594C134.175 27.9167 133.886 29.57 133.845 31.554C133.845 33.4553 134.113 35.0673 134.651 36.39C135.229 37.7127 136.077 38.7253 137.193 39.428C138.309 40.1307 139.652 40.482 141.223 40.482C143 40.482 144.509 40.1513 145.749 39.49C147.03 38.7873 148.084 37.754 148.911 36.39L155.917 38.56C154.429 41.2467 152.445 43.272 149.965 44.636C147.526 45.9587 144.591 46.62 141.161 46.62ZM188.283 36.142L189.337 29.136H210.169L211.223 36.142H188.283ZM199.629 16.674L193.119 31.616L193.305 33.6L187.601 46H177.619L199.629 0.0579965L221.639 46H211.595L206.015 33.972L206.139 31.74L199.629 16.674ZM226.767 2.6H235.819V46H226.767V2.6ZM241.523 46H232.471V37.94H241.213C243.115 37.94 244.913 37.692 246.607 37.196C248.302 36.6587 249.79 35.832 251.071 34.716C252.353 33.6 253.345 32.1947 254.047 30.5C254.791 28.764 255.163 26.6973 255.163 24.3C255.163 21.9027 254.791 19.8567 254.047 18.162C253.345 16.426 252.353 15 251.071 13.884C249.79 12.768 248.302 11.962 246.607 11.466C244.913 10.9287 243.115 10.66 241.213 10.66H232.471V2.6H241.523C246.07 2.6 250.038 3.48866 253.427 5.266C256.858 7.04333 259.524 9.56467 261.425 12.83C263.327 16.054 264.277 19.8773 264.277 24.3C264.277 28.7227 263.327 32.5667 261.425 35.832C259.524 39.056 256.858 41.5567 253.427 43.334C250.038 45.1113 246.07 46 241.523 46ZM302.444 2.6H311V48.17L280.124 19.092V46H271.568V0.429999L302.444 29.508V2.6Z" fill="#214182"/>
</svg>
