<svg width="755" height="176" viewBox="0 0 755 176" fill="none" xmlns="http://www.w3.org/2000/svg">
<mask id="path-1-outside-1_655_6" maskUnits="userSpaceOnUse" x="0" y="0" width="755" height="112" fill="black">
<rect fill="white" width="755" height="112"/>
<path d="M87.85 39.25C87.85 45.95 86.3 52.05 83.2 57.55C80.1 62.95 75.5 67.25 69.4 70.45C63.4 73.65 56.1 75.25 47.5 75.25H34.3V109H1V2.8H47.5C60.5 2.8 70.45 6.1 77.35 12.7C84.35 19.3 87.85 28.15 87.85 39.25ZM43.75 49C50.65 49 54.1 45.75 54.1 39.25C54.1 32.75 50.65 29.5 43.75 29.5H34.3V49H43.75ZM166.812 109L146.862 70.9H146.712V109H113.412V2.8H162.912C171.512 2.8 178.862 4.35 184.962 7.45C191.062 10.45 195.612 14.6 198.612 19.9C201.712 25.1 203.262 31 203.262 37.6C203.262 44.7 201.262 51 197.262 56.5C193.362 62 187.712 65.95 180.312 68.35L203.412 109H166.812ZM146.712 48.7H159.912C163.112 48.7 165.512 48 167.112 46.6C168.712 45.1 169.512 42.8 169.512 39.7C169.512 36.9 168.662 34.7 166.962 33.1C165.362 31.5 163.012 30.7 159.912 30.7H146.712V48.7ZM280.65 110.05C270.65 110.05 261.45 107.7 253.05 103C244.75 98.3 238.15 91.8 233.25 83.5C228.35 75.2 225.9 65.85 225.9 55.45C225.9 45.05 228.35 35.7 233.25 27.4C238.15 19.1 244.75 12.65 253.05 8.05C261.45 3.35 270.65 1 280.65 1C290.65 1 299.8 3.35 308.1 8.05C316.4 12.65 322.95 19.1 327.75 27.4C332.65 35.7 335.1 45.05 335.1 55.45C335.1 65.85 332.65 75.2 327.75 83.5C322.95 91.8 316.35 98.3 307.95 103C299.65 107.7 290.55 110.05 280.65 110.05ZM280.65 79C287.25 79 292.35 76.9 295.95 72.7C299.55 68.4 301.35 62.65 301.35 55.45C301.35 48.15 299.55 42.4 295.95 38.2C292.35 33.9 287.25 31.75 280.65 31.75C273.95 31.75 268.8 33.9 265.2 38.2C261.6 42.4 259.8 48.15 259.8 55.45C259.8 62.65 261.6 68.4 265.2 72.7C268.8 76.9 273.95 79 280.65 79ZM436.213 2.8V71.35C436.213 84.05 432.863 93.7 426.163 100.3C419.563 106.8 410.263 110.05 398.263 110.05C385.363 110.05 375.113 106.5 367.513 99.4C359.913 92.3 356.113 81.95 356.113 68.35H388.963C388.963 72.65 389.663 75.7 391.063 77.5C392.463 79.2 394.363 80.05 396.763 80.05C398.763 80.05 400.313 79.4 401.413 78.1C402.513 76.8 403.063 74.55 403.063 71.35V2.8H436.213ZM498.89 29.35V42.4H531.89V67.45H498.89V82.45H536.39V109H465.59V2.8H536.39V29.35H498.89ZM647.339 2.8V29.2H619.139V109H585.839V29.2H557.939V2.8H647.339ZM712.921 110.05C700.221 110.05 689.721 107.1 681.421 101.2C673.221 95.2 668.771 86.45 668.071 74.95H703.471C703.971 81.05 706.671 84.1 711.571 84.1C713.371 84.1 714.871 83.7 716.071 82.9C717.371 82 718.021 80.65 718.021 78.85C718.021 76.35 716.671 74.35 713.971 72.85C711.271 71.25 707.071 69.45 701.371 67.45C694.571 65.05 688.921 62.7 684.421 60.4C680.021 58.1 676.221 54.75 673.021 50.35C669.821 45.95 668.271 40.3 668.371 33.4C668.371 26.5 670.121 20.65 673.621 15.85C677.221 10.95 682.071 7.25 688.171 4.75C694.371 2.25 701.321 1 709.021 1C722.021 1 732.321 4 739.921 10C747.621 16 751.671 24.45 752.071 35.35H716.221C716.121 32.35 715.371 30.2 713.971 28.9C712.571 27.6 710.871 26.95 708.871 26.95C707.471 26.95 706.321 27.45 705.421 28.45C704.521 29.35 704.071 30.65 704.071 32.35C704.071 34.75 705.371 36.75 707.971 38.35C710.671 39.85 714.921 41.7 720.721 43.9C727.421 46.4 732.921 48.8 737.221 51.1C741.621 53.4 745.421 56.6 748.621 60.7C751.821 64.8 753.421 69.95 753.421 76.15C753.421 82.65 751.821 88.5 748.621 93.7C745.421 98.8 740.771 102.8 734.671 105.7C728.571 108.6 721.321 110.05 712.921 110.05Z"/>
</mask>
<path d="M87.85 39.25C87.85 45.95 86.3 52.05 83.2 57.55C80.1 62.95 75.5 67.25 69.4 70.45C63.4 73.65 56.1 75.25 47.5 75.25H34.3V109H1V2.8H47.5C60.5 2.8 70.45 6.1 77.35 12.7C84.35 19.3 87.85 28.15 87.85 39.25ZM43.75 49C50.65 49 54.1 45.75 54.1 39.25C54.1 32.75 50.65 29.5 43.75 29.5H34.3V49H43.75ZM166.812 109L146.862 70.9H146.712V109H113.412V2.8H162.912C171.512 2.8 178.862 4.35 184.962 7.45C191.062 10.45 195.612 14.6 198.612 19.9C201.712 25.1 203.262 31 203.262 37.6C203.262 44.7 201.262 51 197.262 56.5C193.362 62 187.712 65.95 180.312 68.35L203.412 109H166.812ZM146.712 48.7H159.912C163.112 48.7 165.512 48 167.112 46.6C168.712 45.1 169.512 42.8 169.512 39.7C169.512 36.9 168.662 34.7 166.962 33.1C165.362 31.5 163.012 30.7 159.912 30.7H146.712V48.7ZM280.65 110.05C270.65 110.05 261.45 107.7 253.05 103C244.75 98.3 238.15 91.8 233.25 83.5C228.35 75.2 225.9 65.85 225.9 55.45C225.9 45.05 228.35 35.7 233.25 27.4C238.15 19.1 244.75 12.65 253.05 8.05C261.45 3.35 270.65 1 280.65 1C290.65 1 299.8 3.35 308.1 8.05C316.4 12.65 322.95 19.1 327.75 27.4C332.65 35.7 335.1 45.05 335.1 55.45C335.1 65.85 332.65 75.2 327.75 83.5C322.95 91.8 316.35 98.3 307.95 103C299.65 107.7 290.55 110.05 280.65 110.05ZM280.65 79C287.25 79 292.35 76.9 295.95 72.7C299.55 68.4 301.35 62.65 301.35 55.45C301.35 48.15 299.55 42.4 295.95 38.2C292.35 33.9 287.25 31.75 280.65 31.75C273.95 31.75 268.8 33.9 265.2 38.2C261.6 42.4 259.8 48.15 259.8 55.45C259.8 62.65 261.6 68.4 265.2 72.7C268.8 76.9 273.95 79 280.65 79ZM436.213 2.8V71.35C436.213 84.05 432.863 93.7 426.163 100.3C419.563 106.8 410.263 110.05 398.263 110.05C385.363 110.05 375.113 106.5 367.513 99.4C359.913 92.3 356.113 81.95 356.113 68.35H388.963C388.963 72.65 389.663 75.7 391.063 77.5C392.463 79.2 394.363 80.05 396.763 80.05C398.763 80.05 400.313 79.4 401.413 78.1C402.513 76.8 403.063 74.55 403.063 71.35V2.8H436.213ZM498.89 29.35V42.4H531.89V67.45H498.89V82.45H536.39V109H465.59V2.8H536.39V29.35H498.89ZM647.339 2.8V29.2H619.139V109H585.839V29.2H557.939V2.8H647.339ZM712.921 110.05C700.221 110.05 689.721 107.1 681.421 101.2C673.221 95.2 668.771 86.45 668.071 74.95H703.471C703.971 81.05 706.671 84.1 711.571 84.1C713.371 84.1 714.871 83.7 716.071 82.9C717.371 82 718.021 80.65 718.021 78.85C718.021 76.35 716.671 74.35 713.971 72.85C711.271 71.25 707.071 69.45 701.371 67.45C694.571 65.05 688.921 62.7 684.421 60.4C680.021 58.1 676.221 54.75 673.021 50.35C669.821 45.95 668.271 40.3 668.371 33.4C668.371 26.5 670.121 20.65 673.621 15.85C677.221 10.95 682.071 7.25 688.171 4.75C694.371 2.25 701.321 1 709.021 1C722.021 1 732.321 4 739.921 10C747.621 16 751.671 24.45 752.071 35.35H716.221C716.121 32.35 715.371 30.2 713.971 28.9C712.571 27.6 710.871 26.95 708.871 26.95C707.471 26.95 706.321 27.45 705.421 28.45C704.521 29.35 704.071 30.65 704.071 32.35C704.071 34.75 705.371 36.75 707.971 38.35C710.671 39.85 714.921 41.7 720.721 43.9C727.421 46.4 732.921 48.8 737.221 51.1C741.621 53.4 745.421 56.6 748.621 60.7C751.821 64.8 753.421 69.95 753.421 76.15C753.421 82.65 751.821 88.5 748.621 93.7C745.421 98.8 740.771 102.8 734.671 105.7C728.571 108.6 721.321 110.05 712.921 110.05Z" stroke="#E0324C" stroke-width="2" mask="url(#path-1-outside-1_655_6)"/>
<path d="M113.872 80.684C116.952 80.684 119.654 81.286 121.978 82.49C124.33 83.694 126.136 85.416 127.396 87.656C128.684 89.868 129.328 92.444 129.328 95.384C129.328 98.324 128.684 100.9 127.396 103.112C126.136 105.296 124.33 106.99 121.978 108.194C119.654 109.398 116.952 110 113.872 110H103.624V80.684H113.872ZM113.662 105.002C116.742 105.002 119.122 104.162 120.802 102.482C122.482 100.802 123.322 98.436 123.322 95.384C123.322 92.332 122.482 89.952 120.802 88.244C119.122 86.508 116.742 85.64 113.662 85.64H109.504V105.002H113.662ZM140.029 80.684V110H134.149V80.684H140.029ZM156.381 110.294C154.337 110.294 152.489 109.944 150.837 109.244C149.213 108.544 147.925 107.536 146.973 106.22C146.021 104.904 145.531 103.35 145.503 101.558H151.803C151.887 102.762 152.307 103.714 153.063 104.414C153.847 105.114 154.911 105.464 156.255 105.464C157.627 105.464 158.705 105.142 159.489 104.498C160.273 103.826 160.665 102.958 160.665 101.894C160.665 101.026 160.399 100.312 159.867 99.752C159.335 99.192 158.663 98.758 157.851 98.45C157.067 98.114 155.975 97.75 154.575 97.358C152.671 96.798 151.117 96.252 149.913 95.72C148.737 95.16 147.715 94.334 146.847 93.242C146.007 92.122 145.587 90.638 145.587 88.79C145.587 87.054 146.021 85.542 146.889 84.254C147.757 82.966 148.975 81.986 150.543 81.314C152.111 80.614 153.903 80.264 155.919 80.264C158.943 80.264 161.393 81.006 163.269 82.49C165.173 83.946 166.223 85.99 166.419 88.622H159.951C159.895 87.614 159.461 86.788 158.649 86.144C157.865 85.472 156.815 85.136 155.499 85.136C154.351 85.136 153.427 85.43 152.727 86.018C152.055 86.606 151.719 87.46 151.719 88.58C151.719 89.364 151.971 90.022 152.475 90.554C153.007 91.058 153.651 91.478 154.407 91.814C155.191 92.122 156.283 92.486 157.683 92.906C159.587 93.466 161.141 94.026 162.345 94.586C163.549 95.146 164.585 95.986 165.453 97.106C166.321 98.226 166.755 99.696 166.755 101.516C166.755 103.084 166.349 104.54 165.537 105.884C164.725 107.228 163.535 108.306 161.967 109.118C160.399 109.902 158.537 110.294 156.381 110.294ZM170.844 95.3C170.844 92.416 171.488 89.84 172.776 87.572C174.092 85.276 175.87 83.498 178.11 82.238C180.378 80.95 182.912 80.306 185.712 80.306C188.988 80.306 191.858 81.146 194.322 82.826C196.786 84.506 198.508 86.83 199.488 89.798H192.726C192.054 88.398 191.102 87.348 189.87 86.648C188.666 85.948 187.266 85.598 185.67 85.598C183.962 85.598 182.436 86.004 181.092 86.816C179.776 87.6 178.74 88.72 177.984 90.176C177.256 91.632 176.892 93.34 176.892 95.3C176.892 97.232 177.256 98.94 177.984 100.424C178.74 101.88 179.776 103.014 181.092 103.826C182.436 104.61 183.962 105.002 185.67 105.002C187.266 105.002 188.666 104.652 189.87 103.952C191.102 103.224 192.054 102.16 192.726 100.76H199.488C198.508 103.756 196.786 106.094 194.322 107.774C191.886 109.426 189.016 110.252 185.712 110.252C182.912 110.252 180.378 109.622 178.11 108.362C175.87 107.074 174.092 105.296 172.776 103.028C171.488 100.76 170.844 98.184 170.844 95.3ZM218.539 110.294C215.795 110.294 213.275 109.65 210.979 108.362C208.683 107.074 206.863 105.296 205.519 103.028C204.175 100.732 203.503 98.142 203.503 95.258C203.503 92.402 204.175 89.84 205.519 87.572C206.863 85.276 208.683 83.484 210.979 82.196C213.275 80.908 215.795 80.264 218.539 80.264C221.311 80.264 223.831 80.908 226.099 82.196C228.395 83.484 230.201 85.276 231.517 87.572C232.861 89.84 233.533 92.402 233.533 95.258C233.533 98.142 232.861 100.732 231.517 103.028C230.201 105.296 228.395 107.074 226.099 108.362C223.803 109.65 221.283 110.294 218.539 110.294ZM218.539 105.044C220.303 105.044 221.857 104.652 223.201 103.868C224.545 103.056 225.595 101.908 226.351 100.424C227.107 98.94 227.485 97.218 227.485 95.258C227.485 93.298 227.107 91.59 226.351 90.134C225.595 88.65 224.545 87.516 223.201 86.732C221.857 85.948 220.303 85.556 218.539 85.556C216.775 85.556 215.207 85.948 213.835 86.732C212.491 87.516 211.441 88.65 210.685 90.134C209.929 91.59 209.551 93.298 209.551 95.258C209.551 97.218 209.929 98.94 210.685 100.424C211.441 101.908 212.491 103.056 213.835 103.868C215.207 104.652 216.775 105.044 218.539 105.044ZM264.661 80.684L253.909 110H246.769L236.017 80.684H242.317L250.381 103.994L258.403 80.684H264.661ZM274.487 85.43V92.78H284.357V97.442H274.487V105.212H285.617V110H268.607V80.642H285.617V85.43H274.487ZM306.5 110L300.032 98.576H297.26V110H291.38V80.684H302.384C304.652 80.684 306.584 81.09 308.18 81.902C309.776 82.686 310.966 83.764 311.75 85.136C312.562 86.48 312.968 87.992 312.968 89.672C312.968 91.604 312.408 93.354 311.288 94.922C310.168 96.462 308.502 97.526 306.29 98.114L313.304 110H306.5ZM297.26 94.166H302.174C303.77 94.166 304.96 93.788 305.744 93.032C306.528 92.248 306.92 91.17 306.92 89.798C306.92 88.454 306.528 87.418 305.744 86.69C304.96 85.934 303.77 85.556 302.174 85.556H297.26V94.166ZM342.742 110.294C339.998 110.294 337.478 109.65 335.182 108.362C332.886 107.074 331.066 105.296 329.722 103.028C328.378 100.732 327.706 98.142 327.706 95.258C327.706 92.402 328.378 89.84 329.722 87.572C331.066 85.276 332.886 83.484 335.182 82.196C337.478 80.908 339.998 80.264 342.742 80.264C345.514 80.264 348.034 80.908 350.302 82.196C352.598 83.484 354.404 85.276 355.72 87.572C357.064 89.84 357.736 92.402 357.736 95.258C357.736 98.142 357.064 100.732 355.72 103.028C354.404 105.296 352.598 107.074 350.302 108.362C348.006 109.65 345.486 110.294 342.742 110.294ZM342.742 105.044C344.506 105.044 346.06 104.652 347.404 103.868C348.748 103.056 349.798 101.908 350.554 100.424C351.31 98.94 351.688 97.218 351.688 95.258C351.688 93.298 351.31 91.59 350.554 90.134C349.798 88.65 348.748 87.516 347.404 86.732C346.06 85.948 344.506 85.556 342.742 85.556C340.978 85.556 339.41 85.948 338.038 86.732C336.694 87.516 335.644 88.65 334.888 90.134C334.132 91.59 333.754 93.298 333.754 95.258C333.754 97.218 334.132 98.94 334.888 100.424C335.644 101.908 336.694 103.056 338.038 103.868C339.41 104.652 340.978 105.044 342.742 105.044ZM368.327 80.684V98.828C368.327 100.816 368.845 102.342 369.881 103.406C370.917 104.442 372.373 104.96 374.249 104.96C376.153 104.96 377.623 104.442 378.659 103.406C379.695 102.342 380.213 100.816 380.213 98.828V80.684H386.135V98.786C386.135 101.278 385.589 103.392 384.497 105.128C383.433 106.836 381.991 108.124 380.171 108.992C378.379 109.86 376.377 110.294 374.165 110.294C371.981 110.294 369.993 109.86 368.201 108.992C366.437 108.124 365.037 106.836 364.001 105.128C362.965 103.392 362.447 101.278 362.447 98.786V80.684H368.327ZM407.356 110L400.888 98.576H398.116V110H392.236V80.684H403.24C405.508 80.684 407.44 81.09 409.036 81.902C410.632 82.686 411.822 83.764 412.606 85.136C413.418 86.48 413.824 87.992 413.824 89.672C413.824 91.604 413.264 93.354 412.144 94.922C411.024 96.462 409.358 97.526 407.146 98.114L414.16 110H407.356ZM398.116 94.166H403.03C404.626 94.166 405.816 93.788 406.6 93.032C407.384 92.248 407.776 91.17 407.776 89.798C407.776 88.454 407.384 87.418 406.6 86.69C405.816 85.934 404.626 85.556 403.03 85.556H398.116V94.166ZM451.368 89.756C451.368 91.324 450.99 92.794 450.234 94.166C449.506 95.538 448.344 96.644 446.748 97.484C445.18 98.324 443.192 98.744 440.784 98.744H435.87V110H429.99V80.684H440.784C443.052 80.684 444.984 81.076 446.58 81.86C448.176 82.644 449.366 83.722 450.15 85.094C450.962 86.466 451.368 88.02 451.368 89.756ZM440.532 93.998C442.156 93.998 443.36 93.634 444.144 92.906C444.928 92.15 445.32 91.1 445.32 89.756C445.32 86.9 443.724 85.472 440.532 85.472H435.87V93.998H440.532ZM471.083 110L464.615 98.576H461.843V110H455.963V80.684H466.967C469.235 80.684 471.167 81.09 472.763 81.902C474.359 82.686 475.549 83.764 476.333 85.136C477.145 86.48 477.551 87.992 477.551 89.672C477.551 91.604 476.991 93.354 475.871 94.922C474.751 96.462 473.085 97.526 470.873 98.114L477.887 110H471.083ZM461.843 94.166H466.757C468.353 94.166 469.543 93.788 470.327 93.032C471.111 92.248 471.503 91.17 471.503 89.798C471.503 88.454 471.111 87.418 470.327 86.69C469.543 85.934 468.353 85.556 466.757 85.556H461.843V94.166ZM496.897 110.294C494.153 110.294 491.633 109.65 489.337 108.362C487.041 107.074 485.221 105.296 483.877 103.028C482.533 100.732 481.861 98.142 481.861 95.258C481.861 92.402 482.533 89.84 483.877 87.572C485.221 85.276 487.041 83.484 489.337 82.196C491.633 80.908 494.153 80.264 496.897 80.264C499.669 80.264 502.189 80.908 504.457 82.196C506.753 83.484 508.559 85.276 509.875 87.572C511.219 89.84 511.891 92.402 511.891 95.258C511.891 98.142 511.219 100.732 509.875 103.028C508.559 105.296 506.753 107.074 504.457 108.362C502.161 109.65 499.641 110.294 496.897 110.294ZM496.897 105.044C498.661 105.044 500.215 104.652 501.559 103.868C502.903 103.056 503.953 101.908 504.709 100.424C505.465 98.94 505.843 97.218 505.843 95.258C505.843 93.298 505.465 91.59 504.709 90.134C503.953 88.65 502.903 87.516 501.559 86.732C500.215 85.948 498.661 85.556 496.897 85.556C495.133 85.556 493.565 85.948 492.193 86.732C490.849 87.516 489.799 88.65 489.043 90.134C488.287 91.59 487.909 93.298 487.909 95.258C487.909 97.218 488.287 98.94 489.043 100.424C489.799 101.908 490.849 103.056 492.193 103.868C493.565 104.652 495.133 105.044 496.897 105.044ZM533.78 80.684V101.264C533.78 104.12 532.954 106.346 531.302 107.942C529.65 109.51 527.438 110.294 524.666 110.294C521.866 110.294 519.598 109.482 517.862 107.858C516.154 106.234 515.3 103.966 515.3 101.054H521.18C521.208 102.314 521.502 103.294 522.062 103.994C522.65 104.694 523.49 105.044 524.582 105.044C525.646 105.044 526.458 104.708 527.018 104.036C527.578 103.364 527.858 102.44 527.858 101.264V80.684H533.78ZM546.939 85.43V92.78H556.809V97.442H546.939V105.212H558.069V110H541.059V80.642H558.069V85.43H546.939ZM562.404 95.3C562.404 92.416 563.048 89.84 564.336 87.572C565.652 85.276 567.43 83.498 569.67 82.238C571.938 80.95 574.472 80.306 577.272 80.306C580.548 80.306 583.418 81.146 585.882 82.826C588.346 84.506 590.068 86.83 591.048 89.798H584.286C583.614 88.398 582.662 87.348 581.43 86.648C580.226 85.948 578.826 85.598 577.23 85.598C575.522 85.598 573.996 86.004 572.652 86.816C571.336 87.6 570.3 88.72 569.544 90.176C568.816 91.632 568.452 93.34 568.452 95.3C568.452 97.232 568.816 98.94 569.544 100.424C570.3 101.88 571.336 103.014 572.652 103.826C573.996 104.61 575.522 105.002 577.23 105.002C578.826 105.002 580.226 104.652 581.43 103.952C582.662 103.224 583.614 102.16 584.286 100.76H591.048C590.068 103.756 588.346 106.094 585.882 107.774C583.446 109.426 580.576 110.252 577.272 110.252C574.472 110.252 571.938 109.622 569.67 108.362C567.43 107.074 565.652 105.296 564.336 103.028C563.048 100.76 562.404 98.184 562.404 95.3ZM616.44 80.684V85.43H608.628V110H602.748V85.43H594.936V80.684H616.44ZM631.273 110.294C629.229 110.294 627.381 109.944 625.729 109.244C624.105 108.544 622.817 107.536 621.865 106.22C620.913 104.904 620.423 103.35 620.395 101.558H626.695C626.779 102.762 627.199 103.714 627.955 104.414C628.739 105.114 629.803 105.464 631.147 105.464C632.519 105.464 633.597 105.142 634.381 104.498C635.165 103.826 635.557 102.958 635.557 101.894C635.557 101.026 635.291 100.312 634.759 99.752C634.227 99.192 633.555 98.758 632.743 98.45C631.959 98.114 630.867 97.75 629.467 97.358C627.563 96.798 626.009 96.252 624.805 95.72C623.629 95.16 622.607 94.334 621.739 93.242C620.899 92.122 620.479 90.638 620.479 88.79C620.479 87.054 620.913 85.542 621.781 84.254C622.649 82.966 623.867 81.986 625.435 81.314C627.003 80.614 628.795 80.264 630.811 80.264C633.835 80.264 636.285 81.006 638.161 82.49C640.065 83.946 641.115 85.99 641.311 88.622H634.843C634.787 87.614 634.353 86.788 633.541 86.144C632.757 85.472 631.707 85.136 630.391 85.136C629.243 85.136 628.319 85.43 627.619 86.018C626.947 86.606 626.611 87.46 626.611 88.58C626.611 89.364 626.863 90.022 627.367 90.554C627.899 91.058 628.543 91.478 629.299 91.814C630.083 92.122 631.175 92.486 632.575 92.906C634.479 93.466 636.033 94.026 637.237 94.586C638.441 95.146 639.477 95.986 640.345 97.106C641.213 98.226 641.647 99.696 641.647 101.516C641.647 103.084 641.241 104.54 640.429 105.884C639.617 107.228 638.427 108.306 636.859 109.118C635.291 109.902 633.429 110.294 631.273 110.294ZM161.03 155L154.562 143.576H151.79V155H145.91V125.684H156.914C159.182 125.684 161.114 126.09 162.71 126.902C164.306 127.686 165.496 128.764 166.28 130.136C167.092 131.48 167.498 132.992 167.498 134.672C167.498 136.604 166.938 138.354 165.818 139.922C164.698 141.462 163.032 142.526 160.82 143.114L167.834 155H161.03ZM151.79 139.166H156.704C158.3 139.166 159.49 138.788 160.274 138.032C161.058 137.248 161.45 136.17 161.45 134.798C161.45 133.454 161.058 132.418 160.274 131.69C159.49 130.934 158.3 130.556 156.704 130.556H151.79V139.166ZM179.116 130.43V137.78H188.986V142.442H179.116V150.212H190.246V155H173.236V125.642H190.246V130.43H179.116ZM194.582 140.3C194.582 137.416 195.226 134.84 196.514 132.572C197.83 130.276 199.608 128.498 201.848 127.238C204.116 125.95 206.65 125.306 209.45 125.306C212.726 125.306 215.596 126.146 218.06 127.826C220.524 129.506 222.246 131.83 223.226 134.798H216.464C215.792 133.398 214.84 132.348 213.608 131.648C212.404 130.948 211.004 130.598 209.408 130.598C207.7 130.598 206.174 131.004 204.83 131.816C203.514 132.6 202.478 133.72 201.722 135.176C200.994 136.632 200.63 138.34 200.63 140.3C200.63 142.232 200.994 143.94 201.722 145.424C202.478 146.88 203.514 148.014 204.83 148.826C206.174 149.61 207.7 150.002 209.408 150.002C211.004 150.002 212.404 149.652 213.608 148.952C214.84 148.224 215.792 147.16 216.464 145.76H223.226C222.246 148.756 220.524 151.094 218.06 152.774C215.624 154.426 212.754 155.252 209.45 155.252C206.65 155.252 204.116 154.622 201.848 153.362C199.608 152.074 197.83 150.296 196.514 148.028C195.226 145.76 194.582 143.184 194.582 140.3ZM234.548 130.43V137.78H244.418V142.442H234.548V150.212H245.678V155H228.668V125.642H245.678V130.43H234.548ZM276.516 155H270.636L257.322 134.882V155H251.442V125.642H257.322L270.636 145.802V125.642H276.516V155ZM302.696 125.684V130.43H294.884V155H289.004V130.43H281.192V125.684H302.696ZM313.287 150.338H322.947V155H307.407V125.684H313.287V150.338ZM350.414 125.684L340.502 144.794V155H334.622V144.794L324.668 125.684H331.304L337.604 139.082L343.862 125.684H350.414ZM363.225 140.3C363.225 137.416 363.869 134.84 365.157 132.572C366.473 130.276 368.251 128.498 370.491 127.238C372.759 125.95 375.293 125.306 378.093 125.306C381.369 125.306 384.239 126.146 386.703 127.826C389.167 129.506 390.889 131.83 391.869 134.798H385.107C384.435 133.398 383.483 132.348 382.251 131.648C381.047 130.948 379.647 130.598 378.051 130.598C376.343 130.598 374.817 131.004 373.473 131.816C372.157 132.6 371.121 133.72 370.365 135.176C369.637 136.632 369.273 138.34 369.273 140.3C369.273 142.232 369.637 143.94 370.365 145.424C371.121 146.88 372.157 148.014 373.473 148.826C374.817 149.61 376.343 150.002 378.051 150.002C379.647 150.002 381.047 149.652 382.251 148.952C383.483 148.224 384.435 147.16 385.107 145.76H391.869C390.889 148.756 389.167 151.094 386.703 152.774C384.267 154.426 381.397 155.252 378.093 155.252C375.293 155.252 372.759 154.622 370.491 153.362C368.251 152.074 366.473 150.296 365.157 148.028C363.869 145.76 363.225 143.184 363.225 140.3ZM410.919 155.294C408.175 155.294 405.655 154.65 403.359 153.362C401.063 152.074 399.243 150.296 397.899 148.028C396.555 145.732 395.883 143.142 395.883 140.258C395.883 137.402 396.555 134.84 397.899 132.572C399.243 130.276 401.063 128.484 403.359 127.196C405.655 125.908 408.175 125.264 410.919 125.264C413.691 125.264 416.211 125.908 418.479 127.196C420.775 128.484 422.581 130.276 423.897 132.572C425.241 134.84 425.913 137.402 425.913 140.258C425.913 143.142 425.241 145.732 423.897 148.028C422.581 150.296 420.775 152.074 418.479 153.362C416.183 154.65 413.663 155.294 410.919 155.294ZM410.919 150.044C412.683 150.044 414.237 149.652 415.581 148.868C416.925 148.056 417.975 146.908 418.731 145.424C419.487 143.94 419.865 142.218 419.865 140.258C419.865 138.298 419.487 136.59 418.731 135.134C417.975 133.65 416.925 132.516 415.581 131.732C414.237 130.948 412.683 130.556 410.919 130.556C409.155 130.556 407.587 130.948 406.215 131.732C404.871 132.516 403.821 133.65 403.065 135.134C402.309 136.59 401.931 138.298 401.931 140.258C401.931 142.218 402.309 143.94 403.065 145.424C403.821 146.908 404.871 148.056 406.215 148.868C407.587 149.652 409.155 150.044 410.919 150.044ZM462.67 125.684V155H456.79V135.932L448.936 155H444.484L436.588 135.932V155H430.708V125.684H437.386L446.71 147.482L456.034 125.684H462.67ZM490.281 134.756C490.281 136.324 489.903 137.794 489.147 139.166C488.419 140.538 487.257 141.644 485.661 142.484C484.093 143.324 482.105 143.744 479.697 143.744H474.783V155H468.903V125.684H479.697C481.965 125.684 483.897 126.076 485.493 126.86C487.089 127.644 488.279 128.722 489.063 130.094C489.875 131.466 490.281 133.02 490.281 134.756ZM479.445 138.998C481.069 138.998 482.273 138.634 483.057 137.906C483.841 137.15 484.233 136.1 484.233 134.756C484.233 131.9 482.637 130.472 479.445 130.472H474.783V138.998H479.445ZM500.756 150.338H510.416V155H494.876V125.684H500.756V150.338ZM520.453 130.43V137.78H530.323V142.442H520.453V150.212H531.583V155H514.573V125.642H531.583V130.43H520.453ZM557.297 125.684V130.43H549.485V155H543.605V130.43H535.793V125.684H557.297ZM567.887 130.43V137.78H577.757V142.442H567.887V150.212H579.017V155H562.007V125.642H579.017V130.43H567.887ZM595.029 125.684C598.109 125.684 600.811 126.286 603.135 127.49C605.487 128.694 607.293 130.416 608.553 132.656C609.841 134.868 610.485 137.444 610.485 140.384C610.485 143.324 609.841 145.9 608.553 148.112C607.293 150.296 605.487 151.99 603.135 153.194C600.811 154.398 598.109 155 595.029 155H584.781V125.684H595.029ZM594.819 150.002C597.899 150.002 600.279 149.162 601.959 147.482C603.639 145.802 604.479 143.436 604.479 140.384C604.479 137.332 603.639 134.952 601.959 133.244C600.279 131.508 597.899 130.64 594.819 130.64H590.661V150.002H594.819Z" fill="#224181"/>
</svg>
