<svg width="755" height="177" viewBox="0 0 755 177" fill="none" xmlns="http://www.w3.org/2000/svg">
<mask id="path-1-outside-1_655_8" maskUnits="userSpaceOnUse" x="0" y="0" width="755" height="112" fill="black">
<rect fill="white" width="755" height="112"/>
<path d="M87.85 39.25C87.85 45.95 86.3 52.05 83.2 57.55C80.1 62.95 75.5 67.25 69.4 70.45C63.4 73.65 56.1 75.25 47.5 75.25H34.3V109H1V2.8H47.5C60.5 2.8 70.45 6.1 77.35 12.7C84.35 19.3 87.85 28.15 87.85 39.25ZM43.75 49C50.65 49 54.1 45.75 54.1 39.25C54.1 32.75 50.65 29.5 43.75 29.5H34.3V49H43.75ZM166.812 109L146.862 70.9H146.712V109H113.412V2.8H162.912C171.512 2.8 178.862 4.35 184.962 7.45C191.062 10.45 195.612 14.6 198.612 19.9C201.712 25.1 203.262 31 203.262 37.6C203.262 44.7 201.262 51 197.262 56.5C193.362 62 187.712 65.95 180.312 68.35L203.412 109H166.812ZM146.712 48.7H159.912C163.112 48.7 165.512 48 167.112 46.6C168.712 45.1 169.512 42.8 169.512 39.7C169.512 36.9 168.662 34.7 166.962 33.1C165.362 31.5 163.012 30.7 159.912 30.7H146.712V48.7ZM280.65 110.05C270.65 110.05 261.45 107.7 253.05 103C244.75 98.3 238.15 91.8 233.25 83.5C228.35 75.2 225.9 65.85 225.9 55.45C225.9 45.05 228.35 35.7 233.25 27.4C238.15 19.1 244.75 12.65 253.05 8.05C261.45 3.35 270.65 1 280.65 1C290.65 1 299.8 3.35 308.1 8.05C316.4 12.65 322.95 19.1 327.75 27.4C332.65 35.7 335.1 45.05 335.1 55.45C335.1 65.85 332.65 75.2 327.75 83.5C322.95 91.8 316.35 98.3 307.95 103C299.65 107.7 290.55 110.05 280.65 110.05ZM280.65 79C287.25 79 292.35 76.9 295.95 72.7C299.55 68.4 301.35 62.65 301.35 55.45C301.35 48.15 299.55 42.4 295.95 38.2C292.35 33.9 287.25 31.75 280.65 31.75C273.95 31.75 268.8 33.9 265.2 38.2C261.6 42.4 259.8 48.15 259.8 55.45C259.8 62.65 261.6 68.4 265.2 72.7C268.8 76.9 273.95 79 280.65 79ZM436.213 2.8V71.35C436.213 84.05 432.863 93.7 426.163 100.3C419.563 106.8 410.263 110.05 398.263 110.05C385.363 110.05 375.113 106.5 367.513 99.4C359.913 92.3 356.113 81.95 356.113 68.35H388.963C388.963 72.65 389.663 75.7 391.063 77.5C392.463 79.2 394.363 80.05 396.763 80.05C398.763 80.05 400.313 79.4 401.413 78.1C402.513 76.8 403.063 74.55 403.063 71.35V2.8H436.213ZM498.89 29.35V42.4H531.89V67.45H498.89V82.45H536.39V109H465.59V2.8H536.39V29.35H498.89ZM647.339 2.8V29.2H619.139V109H585.839V29.2H557.939V2.8H647.339ZM712.921 110.05C700.221 110.05 689.721 107.1 681.421 101.2C673.221 95.2 668.771 86.45 668.071 74.95H703.471C703.971 81.05 706.671 84.1 711.571 84.1C713.371 84.1 714.871 83.7 716.071 82.9C717.371 82 718.021 80.65 718.021 78.85C718.021 76.35 716.671 74.35 713.971 72.85C711.271 71.25 707.071 69.45 701.371 67.45C694.571 65.05 688.921 62.7 684.421 60.4C680.021 58.1 676.221 54.75 673.021 50.35C669.821 45.95 668.271 40.3 668.371 33.4C668.371 26.5 670.121 20.65 673.621 15.85C677.221 10.95 682.071 7.25 688.171 4.75C694.371 2.25 701.321 1 709.021 1C722.021 1 732.321 4 739.921 10C747.621 16 751.671 24.45 752.071 35.35H716.221C716.121 32.35 715.371 30.2 713.971 28.9C712.571 27.6 710.871 26.95 708.871 26.95C707.471 26.95 706.321 27.45 705.421 28.45C704.521 29.35 704.071 30.65 704.071 32.35C704.071 34.75 705.371 36.75 707.971 38.35C710.671 39.85 714.921 41.7 720.721 43.9C727.421 46.4 732.921 48.8 737.221 51.1C741.621 53.4 745.421 56.6 748.621 60.7C751.821 64.8 753.421 69.95 753.421 76.15C753.421 82.65 751.821 88.5 748.621 93.7C745.421 98.8 740.771 102.8 734.671 105.7C728.571 108.6 721.321 110.05 712.921 110.05Z"/>
</mask>
<path d="M87.85 39.25C87.85 45.95 86.3 52.05 83.2 57.55C80.1 62.95 75.5 67.25 69.4 70.45C63.4 73.65 56.1 75.25 47.5 75.25H34.3V109H1V2.8H47.5C60.5 2.8 70.45 6.1 77.35 12.7C84.35 19.3 87.85 28.15 87.85 39.25ZM43.75 49C50.65 49 54.1 45.75 54.1 39.25C54.1 32.75 50.65 29.5 43.75 29.5H34.3V49H43.75ZM166.812 109L146.862 70.9H146.712V109H113.412V2.8H162.912C171.512 2.8 178.862 4.35 184.962 7.45C191.062 10.45 195.612 14.6 198.612 19.9C201.712 25.1 203.262 31 203.262 37.6C203.262 44.7 201.262 51 197.262 56.5C193.362 62 187.712 65.95 180.312 68.35L203.412 109H166.812ZM146.712 48.7H159.912C163.112 48.7 165.512 48 167.112 46.6C168.712 45.1 169.512 42.8 169.512 39.7C169.512 36.9 168.662 34.7 166.962 33.1C165.362 31.5 163.012 30.7 159.912 30.7H146.712V48.7ZM280.65 110.05C270.65 110.05 261.45 107.7 253.05 103C244.75 98.3 238.15 91.8 233.25 83.5C228.35 75.2 225.9 65.85 225.9 55.45C225.9 45.05 228.35 35.7 233.25 27.4C238.15 19.1 244.75 12.65 253.05 8.05C261.45 3.35 270.65 1 280.65 1C290.65 1 299.8 3.35 308.1 8.05C316.4 12.65 322.95 19.1 327.75 27.4C332.65 35.7 335.1 45.05 335.1 55.45C335.1 65.85 332.65 75.2 327.75 83.5C322.95 91.8 316.35 98.3 307.95 103C299.65 107.7 290.55 110.05 280.65 110.05ZM280.65 79C287.25 79 292.35 76.9 295.95 72.7C299.55 68.4 301.35 62.65 301.35 55.45C301.35 48.15 299.55 42.4 295.95 38.2C292.35 33.9 287.25 31.75 280.65 31.75C273.95 31.75 268.8 33.9 265.2 38.2C261.6 42.4 259.8 48.15 259.8 55.45C259.8 62.65 261.6 68.4 265.2 72.7C268.8 76.9 273.95 79 280.65 79ZM436.213 2.8V71.35C436.213 84.05 432.863 93.7 426.163 100.3C419.563 106.8 410.263 110.05 398.263 110.05C385.363 110.05 375.113 106.5 367.513 99.4C359.913 92.3 356.113 81.95 356.113 68.35H388.963C388.963 72.65 389.663 75.7 391.063 77.5C392.463 79.2 394.363 80.05 396.763 80.05C398.763 80.05 400.313 79.4 401.413 78.1C402.513 76.8 403.063 74.55 403.063 71.35V2.8H436.213ZM498.89 29.35V42.4H531.89V67.45H498.89V82.45H536.39V109H465.59V2.8H536.39V29.35H498.89ZM647.339 2.8V29.2H619.139V109H585.839V29.2H557.939V2.8H647.339ZM712.921 110.05C700.221 110.05 689.721 107.1 681.421 101.2C673.221 95.2 668.771 86.45 668.071 74.95H703.471C703.971 81.05 706.671 84.1 711.571 84.1C713.371 84.1 714.871 83.7 716.071 82.9C717.371 82 718.021 80.65 718.021 78.85C718.021 76.35 716.671 74.35 713.971 72.85C711.271 71.25 707.071 69.45 701.371 67.45C694.571 65.05 688.921 62.7 684.421 60.4C680.021 58.1 676.221 54.75 673.021 50.35C669.821 45.95 668.271 40.3 668.371 33.4C668.371 26.5 670.121 20.65 673.621 15.85C677.221 10.95 682.071 7.25 688.171 4.75C694.371 2.25 701.321 1 709.021 1C722.021 1 732.321 4 739.921 10C747.621 16 751.671 24.45 752.071 35.35H716.221C716.121 32.35 715.371 30.2 713.971 28.9C712.571 27.6 710.871 26.95 708.871 26.95C707.471 26.95 706.321 27.45 705.421 28.45C704.521 29.35 704.071 30.65 704.071 32.35C704.071 34.75 705.371 36.75 707.971 38.35C710.671 39.85 714.921 41.7 720.721 43.9C727.421 46.4 732.921 48.8 737.221 51.1C741.621 53.4 745.421 56.6 748.621 60.7C751.821 64.8 753.421 69.95 753.421 76.15C753.421 82.65 751.821 88.5 748.621 93.7C745.421 98.8 740.771 102.8 734.671 105.7C728.571 108.6 721.321 110.05 712.921 110.05Z" stroke="#E0324C" stroke-width="2" mask="url(#path-1-outside-1_655_8)"/>
<path d="M133.635 96.9962C136.715 96.9962 139.417 97.5982 141.741 98.8022C144.093 100.006 145.899 101.728 147.159 103.968C148.447 106.18 149.091 108.756 149.091 111.696C149.091 114.636 148.447 117.212 147.159 119.424C145.899 121.608 144.093 123.302 141.741 124.506C139.417 125.71 136.715 126.312 133.635 126.312H123.387V96.9962H133.635ZM133.425 121.314C136.505 121.314 138.885 120.474 140.565 118.794C142.245 117.114 143.085 114.748 143.085 111.696C143.085 108.644 142.245 106.264 140.565 104.556C138.885 102.82 136.505 101.952 133.425 101.952H129.267V121.314H133.425Z" fill="#214182"/>
<path d="M159.792 101.742V109.092H169.662V113.754H159.792V121.524H170.922V126.312H153.912V96.9542H170.922V101.742H159.792ZM166.806 90.9062L157.146 95.3162V91.1162L166.806 86.1182V90.9062Z" fill="#214182"/>
<path d="M175.258 111.612C175.258 108.728 175.902 106.152 177.19 103.884C178.506 101.588 180.284 99.8102 182.524 98.5502C184.792 97.2622 187.326 96.6182 190.126 96.6182C193.402 96.6182 196.272 97.4582 198.736 99.1382C201.2 100.818 202.922 103.142 203.902 106.11H197.14C196.468 104.71 195.516 103.66 194.284 102.96C193.08 102.26 191.68 101.91 190.084 101.91C188.376 101.91 186.85 102.316 185.506 103.128C184.19 103.912 183.154 105.032 182.398 106.488C181.67 107.944 181.306 109.652 181.306 111.612C181.306 113.544 181.67 115.252 182.398 116.736C183.154 118.192 184.19 119.326 185.506 120.138C186.85 120.922 188.376 121.314 190.084 121.314C191.68 121.314 193.08 120.964 194.284 120.264C195.516 119.536 196.468 118.472 197.14 117.072H203.902C202.922 120.068 201.2 122.406 198.736 124.086C196.3 125.738 193.43 126.564 190.126 126.564C187.326 126.564 184.792 125.934 182.524 124.674C180.284 123.386 178.506 121.608 177.19 119.34C175.902 117.072 175.258 114.496 175.258 111.612Z" fill="#214182"/>
<path d="M222.952 126.606C220.208 126.606 217.688 125.962 215.392 124.674C213.096 123.386 211.276 121.608 209.932 119.34C208.588 117.044 207.916 114.454 207.916 111.57C207.916 108.714 208.588 106.152 209.932 103.884C211.276 101.588 213.096 99.7962 215.392 98.5082C217.688 97.2202 220.208 96.5762 222.952 96.5762C225.724 96.5762 228.244 97.2202 230.512 98.5082C232.808 99.7962 234.614 101.588 235.93 103.884C237.274 106.152 237.946 108.714 237.946 111.57C237.946 114.454 237.274 117.044 235.93 119.34C234.614 121.608 232.808 123.386 230.512 124.674C228.216 125.962 225.696 126.606 222.952 126.606ZM222.952 121.356C224.716 121.356 226.27 120.964 227.614 120.18C228.958 119.368 230.008 118.22 230.764 116.736C231.52 115.252 231.898 113.53 231.898 111.57C231.898 109.61 231.52 107.902 230.764 106.446C230.008 104.962 228.958 103.828 227.614 103.044C226.27 102.26 224.716 101.868 222.952 101.868C221.188 101.868 219.62 102.26 218.248 103.044C216.904 103.828 215.854 104.962 215.098 106.446C214.342 107.902 213.964 109.61 213.964 111.57C213.964 113.53 214.342 115.252 215.098 116.736C215.854 118.22 216.904 119.368 218.248 120.18C219.62 120.964 221.188 121.356 222.952 121.356Z" fill="#214182"/>
<path d="M248.537 96.9962V115.14C248.537 117.128 249.055 118.654 250.091 119.718C251.127 120.754 252.583 121.272 254.459 121.272C256.363 121.272 257.833 120.754 258.869 119.718C259.905 118.654 260.423 117.128 260.423 115.14V96.9962H266.345V115.098C266.345 117.59 265.799 119.704 264.707 121.44C263.643 123.148 262.201 124.436 260.381 125.304C258.589 126.172 256.587 126.606 254.375 126.606C252.191 126.606 250.203 126.172 248.411 125.304C246.647 124.436 245.247 123.148 244.211 121.44C243.175 119.704 242.657 117.59 242.657 115.098V96.9962H248.537Z" fill="#214182"/>
<path d="M298.78 96.9962L288.028 126.312H280.888L270.136 96.9962H276.436L284.5 120.306L292.522 96.9962H298.78Z" fill="#214182"/>
<path d="M317.845 126.312L311.377 114.888H308.605V126.312H302.725V96.9962H313.729C315.997 96.9962 317.929 97.4022 319.525 98.2142C321.121 98.9982 322.311 100.076 323.095 101.448C323.907 102.792 324.313 104.304 324.313 105.984C324.313 107.916 323.753 109.666 322.633 111.234C321.513 112.774 319.847 113.838 317.635 114.426L324.649 126.312H317.845ZM308.605 110.478H313.519C315.115 110.478 316.305 110.1 317.089 109.344C317.873 108.56 318.265 107.482 318.265 106.11C318.265 104.766 317.873 103.73 317.089 103.002C316.305 102.246 315.115 101.868 313.519 101.868H308.605V110.478Z" fill="#214182"/>
<path d="M335.931 101.742V109.092H345.801V113.754H335.931V121.524H347.061V126.312H330.051V96.9542H347.061V101.742H335.931Z" fill="#214182"/>
<path d="M358.831 121.356H372.019V126.312H352.027V121.776L365.131 101.952H352.027V96.9962H372.019V101.532L358.831 121.356Z" fill="#214182"/>
<path d="M412.946 126.312H407.066L393.752 106.194V126.312H387.872V96.9542H393.752L407.066 117.114V96.9542H412.946V126.312Z" fill="#214182"/>
<path d="M432.785 126.606C430.041 126.606 427.521 125.962 425.225 124.674C422.929 123.386 421.109 121.608 419.765 119.34C418.421 117.044 417.749 114.454 417.749 111.57C417.749 108.714 418.421 106.152 419.765 103.884C421.109 101.588 422.929 99.7962 425.225 98.5082C427.521 97.2202 430.041 96.5762 432.785 96.5762C435.557 96.5762 438.077 97.2202 440.345 98.5082C442.641 99.7962 444.447 101.588 445.763 103.884C447.107 106.152 447.779 108.714 447.779 111.57C447.779 114.454 447.107 117.044 445.763 119.34C444.447 121.608 442.641 123.386 440.345 124.674C438.049 125.962 435.529 126.606 432.785 126.606ZM432.785 121.356C434.549 121.356 436.103 120.964 437.447 120.18C438.791 119.368 439.841 118.22 440.597 116.736C441.353 115.252 441.731 113.53 441.731 111.57C441.731 109.61 441.353 107.902 440.597 106.446C439.841 104.962 438.791 103.828 437.447 103.044C436.103 102.26 434.549 101.868 432.785 101.868C431.021 101.868 429.453 102.26 428.081 103.044C426.737 103.828 425.687 104.962 424.931 106.446C424.175 107.902 423.797 109.61 423.797 111.57C423.797 113.53 424.175 115.252 424.931 116.736C425.687 118.22 426.737 119.368 428.081 120.18C429.453 120.964 431.021 121.356 432.785 121.356Z" fill="#214182"/>
<path d="M462.695 126.606C460.651 126.606 458.803 126.256 457.151 125.556C455.527 124.856 454.239 123.848 453.287 122.532C452.335 121.216 451.845 119.662 451.817 117.87H458.117C458.201 119.074 458.621 120.026 459.377 120.726C460.161 121.426 461.225 121.776 462.569 121.776C463.941 121.776 465.019 121.454 465.803 120.81C466.587 120.138 466.979 119.27 466.979 118.206C466.979 117.338 466.713 116.624 466.181 116.064C465.649 115.504 464.977 115.07 464.165 114.762C463.381 114.426 462.289 114.062 460.889 113.67C458.985 113.11 457.431 112.564 456.227 112.032C455.051 111.472 454.029 110.646 453.161 109.554C452.321 108.434 451.901 106.95 451.901 105.102C451.901 103.366 452.335 101.854 453.203 100.566C454.071 99.2782 455.289 98.2982 456.857 97.6262C458.425 96.9262 460.217 96.5762 462.233 96.5762C465.257 96.5762 467.707 97.3182 469.583 98.8022C471.487 100.258 472.537 102.302 472.733 104.934H466.265C466.209 103.926 465.775 103.1 464.963 102.456C464.179 101.784 463.129 101.448 461.813 101.448C460.665 101.448 459.741 101.742 459.041 102.33C458.369 102.918 458.033 103.772 458.033 104.892C458.033 105.676 458.285 106.334 458.789 106.866C459.321 107.37 459.965 107.79 460.721 108.126C461.505 108.434 462.597 108.798 463.997 109.218C465.901 109.778 467.455 110.338 468.659 110.898C469.863 111.458 470.899 112.298 471.767 113.418C472.635 114.538 473.069 116.008 473.069 117.828C473.069 119.396 472.663 120.852 471.851 122.196C471.039 123.54 469.849 124.618 468.281 125.43C466.713 126.214 464.851 126.606 462.695 126.606Z" fill="#214182"/>
<path d="M510.393 106.068C510.393 107.636 510.015 109.106 509.259 110.478C508.531 111.85 507.369 112.956 505.773 113.796C504.205 114.636 502.217 115.056 499.809 115.056H494.895V126.312H489.015V96.9962H499.809C502.077 96.9962 504.009 97.3882 505.605 98.1722C507.201 98.9562 508.391 100.034 509.175 101.406C509.987 102.778 510.393 104.332 510.393 106.068ZM499.557 110.31C501.181 110.31 502.385 109.946 503.169 109.218C503.953 108.462 504.345 107.412 504.345 106.068C504.345 103.212 502.749 101.784 499.557 101.784H494.895V110.31H499.557Z" fill="#214182"/>
<path d="M530.107 126.312L523.639 114.888H520.867V126.312H514.987V96.9962H525.991C528.259 96.9962 530.191 97.4022 531.787 98.2142C533.383 98.9982 534.573 100.076 535.357 101.448C536.169 102.792 536.576 104.304 536.576 105.984C536.576 107.916 536.015 109.666 534.895 111.234C533.775 112.774 532.109 113.838 529.897 114.426L536.911 126.312H530.107ZM520.867 110.478H525.781C527.378 110.478 528.568 110.1 529.352 109.344C530.135 108.56 530.527 107.482 530.527 106.11C530.527 104.766 530.135 103.73 529.352 103.002C528.568 102.246 527.378 101.868 525.781 101.868H520.867V110.478Z" fill="#214182"/>
<path d="M555.922 126.606C553.178 126.606 550.658 125.962 548.362 124.674C546.066 123.386 544.246 121.608 542.902 119.34C541.558 117.044 540.886 114.454 540.886 111.57C540.886 108.714 541.558 106.152 542.902 103.884C544.246 101.588 546.066 99.7962 548.362 98.5082C550.658 97.2202 553.178 96.5762 555.922 96.5762C558.694 96.5762 561.214 97.2202 563.482 98.5082C565.778 99.7962 567.584 101.588 568.9 103.884C570.244 106.152 570.916 108.714 570.916 111.57C570.916 114.454 570.244 117.044 568.9 119.34C567.584 121.608 565.778 123.386 563.482 124.674C561.186 125.962 558.666 126.606 555.922 126.606ZM555.922 121.356C557.686 121.356 559.24 120.964 560.584 120.18C561.928 119.368 562.978 118.22 563.734 116.736C564.49 115.252 564.868 113.53 564.868 111.57C564.868 109.61 564.49 107.902 563.734 106.446C562.978 104.962 561.928 103.828 560.584 103.044C559.24 102.26 557.686 101.868 555.922 101.868C554.158 101.868 552.59 102.26 551.218 103.044C549.874 103.828 548.824 104.962 548.068 106.446C547.312 107.902 546.934 109.61 546.934 111.57C546.934 113.53 547.312 115.252 548.068 116.736C548.824 118.22 549.874 119.368 551.218 120.18C552.59 120.964 554.158 121.356 555.922 121.356Z" fill="#214182"/>
<path d="M592.804 96.9962V117.576C592.804 120.432 591.978 122.658 590.326 124.254C588.674 125.822 586.462 126.606 583.69 126.606C580.89 126.606 578.622 125.794 576.886 124.17C575.178 122.546 574.324 120.278 574.324 117.366H580.204C580.232 118.626 580.526 119.606 581.086 120.306C581.674 121.006 582.514 121.356 583.606 121.356C584.67 121.356 585.482 121.02 586.042 120.348C586.602 119.676 586.882 118.752 586.882 117.576V96.9962H592.804Z" fill="#214182"/>
<path d="M605.963 101.742V109.092H615.833V113.754H605.963V121.524H617.093V126.312H600.083V96.9542H617.093V101.742H605.963Z" fill="#214182"/>
<path d="M642.807 96.9962V101.742H634.995V126.312H629.115V101.742H621.303V96.9962H642.807Z" fill="#214182"/>
<path d="M657.639 126.606C655.595 126.606 653.747 126.256 652.095 125.556C650.471 124.856 649.183 123.848 648.231 122.532C647.279 121.216 646.789 119.662 646.761 117.87H653.061C653.145 119.074 653.565 120.026 654.321 120.726C655.105 121.426 656.169 121.776 657.513 121.776C658.885 121.776 659.963 121.454 660.747 120.81C661.531 120.138 661.923 119.27 661.923 118.206C661.923 117.338 661.657 116.624 661.125 116.064C660.593 115.504 659.921 115.07 659.109 114.762C658.325 114.426 657.233 114.062 655.833 113.67C653.929 113.11 652.375 112.564 651.171 112.032C649.995 111.472 648.973 110.646 648.105 109.554C647.265 108.434 646.845 106.95 646.845 105.102C646.845 103.366 647.279 101.854 648.147 100.566C649.015 99.2782 650.233 98.2982 651.801 97.6262C653.369 96.9262 655.161 96.5762 657.177 96.5762C660.201 96.5762 662.651 97.3182 664.527 98.8022C666.431 100.258 667.481 102.302 667.677 104.934H661.209C661.153 103.926 660.719 103.1 659.907 102.456C659.123 101.784 658.073 101.448 656.757 101.448C655.609 101.448 654.685 101.742 653.985 102.33C653.313 102.918 652.977 103.772 652.977 104.892C652.977 105.676 653.229 106.334 653.733 106.866C654.265 107.37 654.909 107.79 655.665 108.126C656.449 108.434 657.541 108.798 658.941 109.218C660.845 109.778 662.399 110.338 663.603 110.898C664.807 111.458 665.843 112.298 666.711 113.418C667.579 114.538 668.013 116.008 668.013 117.828C668.013 119.396 667.607 120.852 666.795 122.196C665.983 123.54 664.793 124.618 663.225 125.43C661.657 126.214 659.795 126.606 657.639 126.606Z" fill="#214182"/>
<path d="M175.666 176.312L169.198 164.888H166.426V176.312H160.546V146.996H171.55C173.818 146.996 175.75 147.402 177.346 148.214C178.942 148.998 180.132 150.076 180.916 151.448C181.728 152.792 182.134 154.304 182.134 155.984C182.134 157.916 181.574 159.666 180.454 161.234C179.334 162.774 177.668 163.838 175.456 164.426L182.47 176.312H175.666ZM166.426 160.478H171.34C172.936 160.478 174.126 160.1 174.91 159.344C175.694 158.56 176.086 157.482 176.086 156.11C176.086 154.766 175.694 153.73 174.91 153.002C174.126 152.246 172.936 151.868 171.34 151.868H166.426V160.478Z" fill="#214182"/>
<path d="M193.752 151.742V159.092H203.622V163.754H193.752V171.524H204.882V176.312H187.872V146.954H204.882V151.742H193.752ZM200.766 140.906L191.106 145.316V141.116L200.766 136.118V140.906Z" fill="#214182"/>
<path d="M209.218 161.612C209.218 158.728 209.862 156.152 211.15 153.884C212.466 151.588 214.244 149.81 216.484 148.55C218.752 147.262 221.286 146.618 224.086 146.618C227.362 146.618 230.232 147.458 232.696 149.138C235.16 150.818 236.882 153.142 237.862 156.11H231.1C230.428 154.71 229.476 153.66 228.244 152.96C227.04 152.26 225.64 151.91 224.044 151.91C222.336 151.91 220.81 152.316 219.466 153.128C218.15 153.912 217.114 155.032 216.358 156.488C215.63 157.944 215.266 159.652 215.266 161.612C215.266 163.544 215.63 165.252 216.358 166.736C217.114 168.192 218.15 169.326 219.466 170.138C220.81 170.922 222.336 171.314 224.044 171.314C225.64 171.314 227.04 170.964 228.244 170.264C229.476 169.536 230.428 168.472 231.1 167.072H237.862C236.882 170.068 235.16 172.406 232.696 174.086C230.26 175.738 227.39 176.564 224.086 176.564C221.286 176.564 218.752 175.934 216.484 174.674C214.244 173.386 212.466 171.608 211.15 169.34C209.862 167.072 209.218 164.496 209.218 161.612Z" fill="#214182"/>
<path d="M249.184 151.742V159.092H259.054V163.754H249.184V171.524H260.314V176.312H243.304V146.954H260.314V151.742H249.184Z" fill="#214182"/>
<path d="M298.04 146.996V176.312H292.16V157.244L284.306 176.312H279.854L271.958 157.244V176.312H266.078V146.996H272.756L282.08 168.794L291.404 146.996H298.04Z" fill="#214182"/>
<path d="M336.235 146.996V176.312H330.355V157.244L322.501 176.312H318.049L310.153 157.244V176.312H304.273V146.996H310.951L320.275 168.794L329.599 146.996H336.235Z" fill="#214182"/>
<path d="M348.348 151.742V159.092H358.218V163.754H348.348V171.524H359.478V176.312H342.468V146.954H359.478V151.742H348.348Z" fill="#214182"/>
<path d="M390.316 176.312H384.436L371.122 156.194V176.312H365.242V146.954H371.122L384.436 167.114V146.954H390.316V176.312Z" fill="#214182"/>
<path d="M416.497 146.996V151.742H408.685V176.312H402.805V151.742H394.993V146.996H416.497Z" fill="#214182"/>
<path d="M451.585 146.996V151.742H443.773V176.312H437.893V151.742H430.081V146.996H451.585Z" fill="#214182"/>
<path d="M462.175 151.742V159.092H472.045V163.754H462.175V171.524H473.305V176.312H456.295V146.954H473.305V151.742H462.175Z" fill="#214182"/>
<path d="M494.188 176.312L487.72 164.888H484.948V176.312H479.068V146.996H490.072C492.34 146.996 494.272 147.402 495.868 148.214C497.464 148.998 498.654 150.076 499.438 151.448C500.25 152.792 500.656 154.304 500.656 155.984C500.656 157.916 500.096 159.666 498.976 161.234C497.856 162.774 496.19 163.838 493.978 164.426L500.992 176.312H494.188ZM484.948 160.478H489.862C491.458 160.478 492.648 160.1 493.432 159.344C494.216 158.56 494.608 157.482 494.608 156.11C494.608 154.766 494.216 153.73 493.432 153.002C492.648 152.246 491.458 151.868 489.862 151.868H484.948V160.478Z" fill="#214182"/>
<path d="M538.357 146.996V176.312H532.477V157.244L524.623 176.312H520.171L512.275 157.244V176.312H506.395V146.996H513.073L522.397 168.794L531.721 146.996H538.357Z" fill="#214182"/>
<path d="M550.47 146.996V176.312H544.59V146.996H550.47Z" fill="#214182"/>
<path d="M581.774 176.312H575.894L562.58 156.194V176.312H556.7V146.954H562.58L575.894 167.114V146.954H581.774V176.312Z" fill="#214182"/>
<path d="M593.884 151.742V159.092H603.754V163.754H593.884V171.524H605.014V176.312H588.004V146.954H605.014V151.742H593.884ZM600.898 140.906L591.238 145.316V141.116L600.898 136.118V140.906Z" fill="#214182"/>
<path d="M620.9 176.606C618.856 176.606 617.008 176.256 615.356 175.556C613.732 174.856 612.444 173.848 611.492 172.532C610.54 171.216 610.05 169.662 610.022 167.87H616.322C616.406 169.074 616.826 170.026 617.582 170.726C618.366 171.426 619.43 171.776 620.774 171.776C622.146 171.776 623.224 171.454 624.008 170.81C624.792 170.138 625.184 169.27 625.184 168.206C625.184 167.338 624.918 166.624 624.386 166.064C623.854 165.504 623.182 165.07 622.37 164.762C621.586 164.426 620.494 164.062 619.094 163.67C617.19 163.11 615.636 162.564 614.432 162.032C613.256 161.472 612.234 160.646 611.366 159.554C610.526 158.434 610.106 156.95 610.106 155.102C610.106 153.366 610.54 151.854 611.408 150.566C612.276 149.278 613.494 148.298 615.062 147.626C616.63 146.926 618.422 146.576 620.438 146.576C623.462 146.576 625.912 147.318 627.788 148.802C629.692 150.258 630.742 152.302 630.938 154.934H624.47C624.414 153.926 623.98 153.1 623.168 152.456C622.384 151.784 621.334 151.448 620.018 151.448C618.87 151.448 617.946 151.742 617.246 152.33C616.574 152.918 616.238 153.772 616.238 154.892C616.238 155.676 616.49 156.334 616.994 156.866C617.526 157.37 618.17 157.79 618.926 158.126C619.71 158.434 620.802 158.798 622.202 159.218C624.106 159.778 625.66 160.338 626.864 160.898C628.068 161.458 629.104 162.298 629.972 163.418C630.84 164.538 631.274 166.008 631.274 167.828C631.274 169.396 630.868 170.852 630.056 172.196C629.244 173.54 628.054 174.618 626.486 175.43C624.918 176.214 623.056 176.606 620.9 176.606Z" fill="#214182"/>
</svg>
