<svg width="755" height="176" viewBox="0 0 755 176" fill="none" xmlns="http://www.w3.org/2000/svg">
<mask id="path-1-outside-1_655_7" maskUnits="userSpaceOnUse" x="0" y="0" width="755" height="112" fill="black">
<rect fill="white" width="755" height="112"/>
<path d="M87.85 39.25C87.85 45.95 86.3 52.05 83.2 57.55C80.1 62.95 75.5 67.25 69.4 70.45C63.4 73.65 56.1 75.25 47.5 75.25H34.3V109H1V2.8H47.5C60.5 2.8 70.45 6.1 77.35 12.7C84.35 19.3 87.85 28.15 87.85 39.25ZM43.75 49C50.65 49 54.1 45.75 54.1 39.25C54.1 32.75 50.65 29.5 43.75 29.5H34.3V49H43.75ZM166.812 109L146.862 70.9H146.712V109H113.412V2.8H162.912C171.512 2.8 178.862 4.35 184.962 7.45C191.062 10.45 195.612 14.6 198.612 19.9C201.712 25.1 203.262 31 203.262 37.6C203.262 44.7 201.262 51 197.262 56.5C193.362 62 187.712 65.95 180.312 68.35L203.412 109H166.812ZM146.712 48.7H159.912C163.112 48.7 165.512 48 167.112 46.6C168.712 45.1 169.512 42.8 169.512 39.7C169.512 36.9 168.662 34.7 166.962 33.1C165.362 31.5 163.012 30.7 159.912 30.7H146.712V48.7ZM280.65 110.05C270.65 110.05 261.45 107.7 253.05 103C244.75 98.3 238.15 91.8 233.25 83.5C228.35 75.2 225.9 65.85 225.9 55.45C225.9 45.05 228.35 35.7 233.25 27.4C238.15 19.1 244.75 12.65 253.05 8.05C261.45 3.35 270.65 1 280.65 1C290.65 1 299.8 3.35 308.1 8.05C316.4 12.65 322.95 19.1 327.75 27.4C332.65 35.7 335.1 45.05 335.1 55.45C335.1 65.85 332.65 75.2 327.75 83.5C322.95 91.8 316.35 98.3 307.95 103C299.65 107.7 290.55 110.05 280.65 110.05ZM280.65 79C287.25 79 292.35 76.9 295.95 72.7C299.55 68.4 301.35 62.65 301.35 55.45C301.35 48.15 299.55 42.4 295.95 38.2C292.35 33.9 287.25 31.75 280.65 31.75C273.95 31.75 268.8 33.9 265.2 38.2C261.6 42.4 259.8 48.15 259.8 55.45C259.8 62.65 261.6 68.4 265.2 72.7C268.8 76.9 273.95 79 280.65 79ZM436.213 2.8V71.35C436.213 84.05 432.863 93.7 426.163 100.3C419.563 106.8 410.263 110.05 398.263 110.05C385.363 110.05 375.113 106.5 367.513 99.4C359.913 92.3 356.113 81.95 356.113 68.35H388.963C388.963 72.65 389.663 75.7 391.063 77.5C392.463 79.2 394.363 80.05 396.763 80.05C398.763 80.05 400.313 79.4 401.413 78.1C402.513 76.8 403.063 74.55 403.063 71.35V2.8H436.213ZM498.89 29.35V42.4H531.89V67.45H498.89V82.45H536.39V109H465.59V2.8H536.39V29.35H498.89ZM647.339 2.8V29.2H619.139V109H585.839V29.2H557.939V2.8H647.339ZM712.921 110.05C700.221 110.05 689.721 107.1 681.421 101.2C673.221 95.2 668.771 86.45 668.071 74.95H703.471C703.971 81.05 706.671 84.1 711.571 84.1C713.371 84.1 714.871 83.7 716.071 82.9C717.371 82 718.021 80.65 718.021 78.85C718.021 76.35 716.671 74.35 713.971 72.85C711.271 71.25 707.071 69.45 701.371 67.45C694.571 65.05 688.921 62.7 684.421 60.4C680.021 58.1 676.221 54.75 673.021 50.35C669.821 45.95 668.271 40.3 668.371 33.4C668.371 26.5 670.121 20.65 673.621 15.85C677.221 10.95 682.071 7.25 688.171 4.75C694.371 2.25 701.321 1 709.021 1C722.021 1 732.321 4 739.921 10C747.621 16 751.671 24.45 752.071 35.35H716.221C716.121 32.35 715.371 30.2 713.971 28.9C712.571 27.6 710.871 26.95 708.871 26.95C707.471 26.95 706.321 27.45 705.421 28.45C704.521 29.35 704.071 30.65 704.071 32.35C704.071 34.75 705.371 36.75 707.971 38.35C710.671 39.85 714.921 41.7 720.721 43.9C727.421 46.4 732.921 48.8 737.221 51.1C741.621 53.4 745.421 56.6 748.621 60.7C751.821 64.8 753.421 69.95 753.421 76.15C753.421 82.65 751.821 88.5 748.621 93.7C745.421 98.8 740.771 102.8 734.671 105.7C728.571 108.6 721.321 110.05 712.921 110.05Z"/>
</mask>
<path d="M87.85 39.25C87.85 45.95 86.3 52.05 83.2 57.55C80.1 62.95 75.5 67.25 69.4 70.45C63.4 73.65 56.1 75.25 47.5 75.25H34.3V109H1V2.8H47.5C60.5 2.8 70.45 6.1 77.35 12.7C84.35 19.3 87.85 28.15 87.85 39.25ZM43.75 49C50.65 49 54.1 45.75 54.1 39.25C54.1 32.75 50.65 29.5 43.75 29.5H34.3V49H43.75ZM166.812 109L146.862 70.9H146.712V109H113.412V2.8H162.912C171.512 2.8 178.862 4.35 184.962 7.45C191.062 10.45 195.612 14.6 198.612 19.9C201.712 25.1 203.262 31 203.262 37.6C203.262 44.7 201.262 51 197.262 56.5C193.362 62 187.712 65.95 180.312 68.35L203.412 109H166.812ZM146.712 48.7H159.912C163.112 48.7 165.512 48 167.112 46.6C168.712 45.1 169.512 42.8 169.512 39.7C169.512 36.9 168.662 34.7 166.962 33.1C165.362 31.5 163.012 30.7 159.912 30.7H146.712V48.7ZM280.65 110.05C270.65 110.05 261.45 107.7 253.05 103C244.75 98.3 238.15 91.8 233.25 83.5C228.35 75.2 225.9 65.85 225.9 55.45C225.9 45.05 228.35 35.7 233.25 27.4C238.15 19.1 244.75 12.65 253.05 8.05C261.45 3.35 270.65 1 280.65 1C290.65 1 299.8 3.35 308.1 8.05C316.4 12.65 322.95 19.1 327.75 27.4C332.65 35.7 335.1 45.05 335.1 55.45C335.1 65.85 332.65 75.2 327.75 83.5C322.95 91.8 316.35 98.3 307.95 103C299.65 107.7 290.55 110.05 280.65 110.05ZM280.65 79C287.25 79 292.35 76.9 295.95 72.7C299.55 68.4 301.35 62.65 301.35 55.45C301.35 48.15 299.55 42.4 295.95 38.2C292.35 33.9 287.25 31.75 280.65 31.75C273.95 31.75 268.8 33.9 265.2 38.2C261.6 42.4 259.8 48.15 259.8 55.45C259.8 62.65 261.6 68.4 265.2 72.7C268.8 76.9 273.95 79 280.65 79ZM436.213 2.8V71.35C436.213 84.05 432.863 93.7 426.163 100.3C419.563 106.8 410.263 110.05 398.263 110.05C385.363 110.05 375.113 106.5 367.513 99.4C359.913 92.3 356.113 81.95 356.113 68.35H388.963C388.963 72.65 389.663 75.7 391.063 77.5C392.463 79.2 394.363 80.05 396.763 80.05C398.763 80.05 400.313 79.4 401.413 78.1C402.513 76.8 403.063 74.55 403.063 71.35V2.8H436.213ZM498.89 29.35V42.4H531.89V67.45H498.89V82.45H536.39V109H465.59V2.8H536.39V29.35H498.89ZM647.339 2.8V29.2H619.139V109H585.839V29.2H557.939V2.8H647.339ZM712.921 110.05C700.221 110.05 689.721 107.1 681.421 101.2C673.221 95.2 668.771 86.45 668.071 74.95H703.471C703.971 81.05 706.671 84.1 711.571 84.1C713.371 84.1 714.871 83.7 716.071 82.9C717.371 82 718.021 80.65 718.021 78.85C718.021 76.35 716.671 74.35 713.971 72.85C711.271 71.25 707.071 69.45 701.371 67.45C694.571 65.05 688.921 62.7 684.421 60.4C680.021 58.1 676.221 54.75 673.021 50.35C669.821 45.95 668.271 40.3 668.371 33.4C668.371 26.5 670.121 20.65 673.621 15.85C677.221 10.95 682.071 7.25 688.171 4.75C694.371 2.25 701.321 1 709.021 1C722.021 1 732.321 4 739.921 10C747.621 16 751.671 24.45 752.071 35.35H716.221C716.121 32.35 715.371 30.2 713.971 28.9C712.571 27.6 710.871 26.95 708.871 26.95C707.471 26.95 706.321 27.45 705.421 28.45C704.521 29.35 704.071 30.65 704.071 32.35C704.071 34.75 705.371 36.75 707.971 38.35C710.671 39.85 714.921 41.7 720.721 43.9C727.421 46.4 732.921 48.8 737.221 51.1C741.621 53.4 745.421 56.6 748.621 60.7C751.821 64.8 753.421 69.95 753.421 76.15C753.421 82.65 751.821 88.5 748.621 93.7C745.421 98.8 740.771 102.8 734.671 105.7C728.571 108.6 721.321 110.05 712.921 110.05Z" stroke="#E0324C" stroke-width="2" mask="url(#path-1-outside-1_655_7)"/>
<path d="M28.3656 80.684C31.4456 80.684 34.1476 81.286 36.4716 82.49C38.8236 83.694 40.6296 85.416 41.8896 87.656C43.1776 89.868 43.8216 92.444 43.8216 95.384C43.8216 98.324 43.1776 100.9 41.8896 103.112C40.6296 105.296 38.8236 106.99 36.4716 108.194C34.1476 109.398 31.4456 110 28.3656 110H18.1176V80.684H28.3656ZM28.1556 105.002C31.2356 105.002 33.6156 104.162 35.2956 102.482C36.9756 100.802 37.8156 98.436 37.8156 95.384C37.8156 92.332 36.9756 89.952 35.2956 88.244C33.6156 86.508 31.2356 85.64 28.1556 85.64H23.9976V105.002H28.1556ZM54.5231 85.43V92.78H64.3931V97.442H54.5231V105.212H65.6531V110H48.6431V80.642H65.6531V85.43H54.5231ZM81.5386 110.294C79.4946 110.294 77.6466 109.944 75.9946 109.244C74.3706 108.544 73.0826 107.536 72.1306 106.22C71.1786 104.904 70.6886 103.35 70.6606 101.558H76.9606C77.0446 102.762 77.4646 103.714 78.2206 104.414C79.0046 105.114 80.0686 105.464 81.4126 105.464C82.7846 105.464 83.8626 105.142 84.6466 104.498C85.4306 103.826 85.8226 102.958 85.8226 101.894C85.8226 101.026 85.5566 100.312 85.0246 99.752C84.4926 99.192 83.8206 98.758 83.0086 98.45C82.2246 98.114 81.1326 97.75 79.7326 97.358C77.8286 96.798 76.2746 96.252 75.0706 95.72C73.8946 95.16 72.8726 94.334 72.0046 93.242C71.1646 92.122 70.7446 90.638 70.7446 88.79C70.7446 87.054 71.1786 85.542 72.0466 84.254C72.9146 82.966 74.1326 81.986 75.7006 81.314C77.2686 80.614 79.0606 80.264 81.0766 80.264C84.1006 80.264 86.5506 81.006 88.4266 82.49C90.3306 83.946 91.3806 85.99 91.5766 88.622H85.1086C85.0526 87.614 84.6186 86.788 83.8066 86.144C83.0226 85.472 81.9726 85.136 80.6566 85.136C79.5086 85.136 78.5846 85.43 77.8846 86.018C77.2126 86.606 76.8766 87.46 76.8766 88.58C76.8766 89.364 77.1286 90.022 77.6326 90.554C78.1646 91.058 78.8086 91.478 79.5646 91.814C80.3486 92.122 81.4406 92.486 82.8406 92.906C84.7446 93.466 86.2986 94.026 87.5026 94.586C88.7066 95.146 89.7426 95.986 90.6106 97.106C91.4786 98.226 91.9126 99.696 91.9126 101.516C91.9126 103.084 91.5066 104.54 90.6946 105.884C89.8826 107.228 88.6926 108.306 87.1246 109.118C85.5566 109.902 83.6946 110.294 81.5386 110.294ZM96.0024 95.3C96.0024 92.416 96.6464 89.84 97.9344 87.572C99.2504 85.276 101.028 83.498 103.268 82.238C105.536 80.95 108.07 80.306 110.87 80.306C114.146 80.306 117.016 81.146 119.48 82.826C121.944 84.506 123.666 86.83 124.646 89.798H117.884C117.212 88.398 116.26 87.348 115.028 86.648C113.824 85.948 112.424 85.598 110.828 85.598C109.12 85.598 107.594 86.004 106.25 86.816C104.934 87.6 103.898 88.72 103.142 90.176C102.414 91.632 102.05 93.34 102.05 95.3C102.05 97.232 102.414 98.94 103.142 100.424C103.898 101.88 104.934 103.014 106.25 103.826C107.594 104.61 109.12 105.002 110.828 105.002C112.424 105.002 113.824 104.652 115.028 103.952C116.26 103.224 117.212 102.16 117.884 100.76H124.646C123.666 103.756 121.944 106.094 119.48 107.774C117.044 109.426 114.174 110.252 110.87 110.252C108.07 110.252 105.536 109.622 103.268 108.362C101.028 107.074 99.2504 105.296 97.9344 103.028C96.6464 100.76 96.0024 98.184 96.0024 95.3ZM135.885 80.684V98.828C135.885 100.816 136.403 102.342 137.439 103.406C138.475 104.442 139.931 104.96 141.807 104.96C143.711 104.96 145.181 104.442 146.217 103.406C147.253 102.342 147.771 100.816 147.771 98.828V80.684H153.693V98.786C153.693 101.278 153.147 103.392 152.055 105.128C150.991 106.836 149.549 108.124 147.729 108.992C145.937 109.86 143.935 110.294 141.723 110.294C139.539 110.294 137.551 109.86 135.759 108.992C133.995 108.124 132.595 106.836 131.559 105.128C130.523 103.392 130.005 101.278 130.005 98.786V80.684H135.885ZM176.426 94.964C178.078 95.272 179.436 96.098 180.5 97.442C181.564 98.786 182.096 100.326 182.096 102.062C182.096 103.63 181.704 105.016 180.92 106.22C180.164 107.396 179.058 108.32 177.602 108.992C176.146 109.664 174.424 110 172.436 110H159.794V80.684H171.89C173.878 80.684 175.586 81.006 177.014 81.65C178.47 82.294 179.562 83.19 180.29 84.338C181.046 85.486 181.424 86.788 181.424 88.244C181.424 89.952 180.962 91.38 180.038 92.528C179.142 93.676 177.938 94.488 176.426 94.964ZM165.674 92.78H171.05C172.45 92.78 173.528 92.472 174.284 91.856C175.04 91.212 175.418 90.302 175.418 89.126C175.418 87.95 175.04 87.04 174.284 86.396C173.528 85.752 172.45 85.43 171.05 85.43H165.674V92.78ZM171.596 105.212C173.024 105.212 174.13 104.876 174.914 104.204C175.726 103.532 176.132 102.58 176.132 101.348C176.132 100.088 175.712 99.108 174.872 98.408C174.032 97.68 172.898 97.316 171.47 97.316H165.674V105.212H171.596ZM202.322 110L195.854 98.576H193.082V110H187.202V80.684H198.206C200.474 80.684 202.406 81.09 204.002 81.902C205.598 82.686 206.788 83.764 207.572 85.136C208.384 86.48 208.79 87.992 208.79 89.672C208.79 91.604 208.23 93.354 207.11 94.922C205.99 96.462 204.324 97.526 202.112 98.114L209.126 110H202.322ZM193.082 94.166H197.996C199.592 94.166 200.782 93.788 201.566 93.032C202.35 92.248 202.742 91.17 202.742 89.798C202.742 88.454 202.35 87.418 201.566 86.69C200.782 85.934 199.592 85.556 197.996 85.556H193.082V94.166ZM220.408 85.43V92.78H230.278V97.442H220.408V105.212H231.538V110H214.528V80.642H231.538V85.43H220.408ZM272.804 110H266.924L253.61 89.882V110H247.73V80.642H253.61L266.924 100.802V80.642H272.804V110ZM284.83 80.684V98.828C284.83 100.816 285.348 102.342 286.384 103.406C287.42 104.442 288.876 104.96 290.752 104.96C292.656 104.96 294.126 104.442 295.162 103.406C296.198 102.342 296.716 100.816 296.716 98.828V80.684H302.638V98.786C302.638 101.278 302.092 103.392 301 105.128C299.936 106.836 298.494 108.124 296.674 108.992C294.882 109.86 292.88 110.294 290.668 110.294C288.484 110.294 286.496 109.86 284.704 108.992C282.94 108.124 281.54 106.836 280.504 105.128C279.468 103.392 278.95 101.278 278.95 98.786V80.684H284.83ZM314.62 85.43V92.78H324.49V97.442H314.62V105.212H325.75V110H308.74V80.642H325.75V85.43H314.62ZM341.635 110.294C339.591 110.294 337.743 109.944 336.091 109.244C334.467 108.544 333.179 107.536 332.227 106.22C331.275 104.904 330.785 103.35 330.757 101.558H337.057C337.141 102.762 337.561 103.714 338.317 104.414C339.101 105.114 340.165 105.464 341.509 105.464C342.881 105.464 343.959 105.142 344.743 104.498C345.527 103.826 345.919 102.958 345.919 101.894C345.919 101.026 345.653 100.312 345.121 99.752C344.589 99.192 343.917 98.758 343.105 98.45C342.321 98.114 341.229 97.75 339.829 97.358C337.925 96.798 336.371 96.252 335.167 95.72C333.991 95.16 332.969 94.334 332.101 93.242C331.261 92.122 330.841 90.638 330.841 88.79C330.841 87.054 331.275 85.542 332.143 84.254C333.011 82.966 334.229 81.986 335.797 81.314C337.365 80.614 339.157 80.264 341.173 80.264C344.197 80.264 346.647 81.006 348.523 82.49C350.427 83.946 351.477 85.99 351.673 88.622H345.205C345.149 87.614 344.715 86.788 343.903 86.144C343.119 85.472 342.069 85.136 340.753 85.136C339.605 85.136 338.681 85.43 337.981 86.018C337.309 86.606 336.973 87.46 336.973 88.58C336.973 89.364 337.225 90.022 337.729 90.554C338.261 91.058 338.905 91.478 339.661 91.814C340.445 92.122 341.537 92.486 342.937 92.906C344.841 93.466 346.395 94.026 347.599 94.586C348.803 95.146 349.839 95.986 350.707 97.106C351.575 98.226 352.009 99.696 352.009 101.516C352.009 103.084 351.603 104.54 350.791 105.884C349.979 107.228 348.789 108.306 347.221 109.118C345.653 109.902 343.791 110.294 341.635 110.294ZM377.477 80.684V85.43H369.665V110H363.785V85.43H355.973V80.684H377.477ZM397.307 110L390.839 98.576H388.067V110H382.187V80.684H393.191C395.459 80.684 397.391 81.09 398.987 81.902C400.583 82.686 401.773 83.764 402.557 85.136C403.369 86.48 403.775 87.992 403.775 89.672C403.775 91.604 403.215 93.354 402.095 94.922C400.975 96.462 399.309 97.526 397.097 98.114L404.111 110H397.307ZM388.067 94.166H392.981C394.577 94.166 395.767 93.788 396.551 93.032C397.335 92.248 397.727 91.17 397.727 89.798C397.727 88.454 397.335 87.418 396.551 86.69C395.767 85.934 394.577 85.556 392.981 85.556H388.067V94.166ZM423.121 110.294C420.377 110.294 417.857 109.65 415.561 108.362C413.265 107.074 411.445 105.296 410.101 103.028C408.757 100.732 408.085 98.142 408.085 95.258C408.085 92.402 408.757 89.84 410.101 87.572C411.445 85.276 413.265 83.484 415.561 82.196C417.857 80.908 420.377 80.264 423.121 80.264C425.893 80.264 428.413 80.908 430.681 82.196C432.977 83.484 434.783 85.276 436.099 87.572C437.443 89.84 438.115 92.402 438.115 95.258C438.115 98.142 437.443 100.732 436.099 103.028C434.783 105.296 432.977 107.074 430.681 108.362C428.385 109.65 425.865 110.294 423.121 110.294ZM423.121 105.044C424.885 105.044 426.439 104.652 427.783 103.868C429.127 103.056 430.177 101.908 430.933 100.424C431.689 98.94 432.067 97.218 432.067 95.258C432.067 93.298 431.689 91.59 430.933 90.134C430.177 88.65 429.127 87.516 427.783 86.732C426.439 85.948 424.885 85.556 423.121 85.556C421.357 85.556 419.789 85.948 418.417 86.732C417.073 87.516 416.023 88.65 415.267 90.134C414.511 91.59 414.133 93.298 414.133 95.258C414.133 97.218 414.511 98.94 415.267 100.424C416.023 101.908 417.073 103.056 418.417 103.868C419.789 104.652 421.357 105.044 423.121 105.044ZM453.032 110.294C450.988 110.294 449.14 109.944 447.488 109.244C445.864 108.544 444.576 107.536 443.624 106.22C442.672 104.904 442.182 103.35 442.154 101.558H448.454C448.538 102.762 448.958 103.714 449.714 104.414C450.498 105.114 451.562 105.464 452.906 105.464C454.278 105.464 455.356 105.142 456.14 104.498C456.924 103.826 457.316 102.958 457.316 101.894C457.316 101.026 457.05 100.312 456.518 99.752C455.986 99.192 455.314 98.758 454.502 98.45C453.718 98.114 452.626 97.75 451.226 97.358C449.322 96.798 447.768 96.252 446.564 95.72C445.388 95.16 444.366 94.334 443.498 93.242C442.658 92.122 442.238 90.638 442.238 88.79C442.238 87.054 442.672 85.542 443.54 84.254C444.408 82.966 445.626 81.986 447.194 81.314C448.762 80.614 450.554 80.264 452.57 80.264C455.594 80.264 458.044 81.006 459.92 82.49C461.824 83.946 462.874 85.99 463.07 88.622H456.602C456.546 87.614 456.112 86.788 455.3 86.144C454.516 85.472 453.466 85.136 452.15 85.136C451.002 85.136 450.078 85.43 449.378 86.018C448.706 86.606 448.37 87.46 448.37 88.58C448.37 89.364 448.622 90.022 449.126 90.554C449.658 91.058 450.302 91.478 451.058 91.814C451.842 92.122 452.934 92.486 454.334 92.906C456.238 93.466 457.792 94.026 458.996 94.586C460.2 95.146 461.236 95.986 462.104 97.106C462.972 98.226 463.406 99.696 463.406 101.516C463.406 103.084 463 104.54 462.188 105.884C461.376 107.228 460.186 108.306 458.618 109.118C457.05 109.902 455.188 110.294 453.032 110.294ZM500.729 89.756C500.729 91.324 500.351 92.794 499.595 94.166C498.867 95.538 497.705 96.644 496.109 97.484C494.541 98.324 492.553 98.744 490.145 98.744H485.231V110H479.351V80.684H490.145C492.413 80.684 494.345 81.076 495.941 81.86C497.537 82.644 498.727 83.722 499.511 85.094C500.323 86.466 500.729 88.02 500.729 89.756ZM489.893 93.998C491.517 93.998 492.721 93.634 493.505 92.906C494.289 92.15 494.681 91.1 494.681 89.756C494.681 86.9 493.085 85.472 489.893 85.472H485.231V93.998H489.893ZM520.444 110L513.976 98.576H511.204V110H505.324V80.684H516.328C518.596 80.684 520.528 81.09 522.124 81.902C523.72 82.686 524.91 83.764 525.694 85.136C526.506 86.48 526.912 87.992 526.912 89.672C526.912 91.604 526.352 93.354 525.232 94.922C524.112 96.462 522.446 97.526 520.234 98.114L527.248 110H520.444ZM511.204 94.166H516.118C517.714 94.166 518.904 93.788 519.688 93.032C520.472 92.248 520.864 91.17 520.864 89.798C520.864 88.454 520.472 87.418 519.688 86.69C518.904 85.934 517.714 85.556 516.118 85.556H511.204V94.166ZM546.258 110.294C543.514 110.294 540.994 109.65 538.698 108.362C536.402 107.074 534.582 105.296 533.238 103.028C531.894 100.732 531.222 98.142 531.222 95.258C531.222 92.402 531.894 89.84 533.238 87.572C534.582 85.276 536.402 83.484 538.698 82.196C540.994 80.908 543.514 80.264 546.258 80.264C549.03 80.264 551.55 80.908 553.818 82.196C556.114 83.484 557.92 85.276 559.236 87.572C560.58 89.84 561.252 92.402 561.252 95.258C561.252 98.142 560.58 100.732 559.236 103.028C557.92 105.296 556.114 107.074 553.818 108.362C551.522 109.65 549.002 110.294 546.258 110.294ZM546.258 105.044C548.022 105.044 549.576 104.652 550.92 103.868C552.264 103.056 553.314 101.908 554.07 100.424C554.826 98.94 555.204 97.218 555.204 95.258C555.204 93.298 554.826 91.59 554.07 90.134C553.314 88.65 552.264 87.516 550.92 86.732C549.576 85.948 548.022 85.556 546.258 85.556C544.494 85.556 542.926 85.948 541.554 86.732C540.21 87.516 539.16 88.65 538.404 90.134C537.648 91.59 537.27 93.298 537.27 95.258C537.27 97.218 537.648 98.94 538.404 100.424C539.16 101.908 540.21 103.056 541.554 103.868C542.926 104.652 544.494 105.044 546.258 105.044ZM589.357 80.684L579.445 99.794V110H573.565V99.794L563.611 80.684H570.247L576.547 94.082L582.805 80.684H589.357ZM599.048 85.43V92.78H608.918V97.442H599.048V105.212H610.178V110H593.168V80.642H610.178V85.43H599.048ZM614.514 95.3C614.514 92.416 615.158 89.84 616.446 87.572C617.762 85.276 619.54 83.498 621.78 82.238C624.048 80.95 626.582 80.306 629.382 80.306C632.658 80.306 635.528 81.146 637.992 82.826C640.456 84.506 642.178 86.83 643.158 89.798H636.396C635.724 88.398 634.772 87.348 633.54 86.648C632.336 85.948 630.936 85.598 629.34 85.598C627.632 85.598 626.106 86.004 624.762 86.816C623.446 87.6 622.41 88.72 621.654 90.176C620.926 91.632 620.562 93.34 620.562 95.3C620.562 97.232 620.926 98.94 621.654 100.424C622.41 101.88 623.446 103.014 624.762 103.826C626.106 104.61 627.632 105.002 629.34 105.002C630.936 105.002 632.336 104.652 633.54 103.952C634.772 103.224 635.724 102.16 636.396 100.76H643.158C642.178 103.756 640.456 106.094 637.992 107.774C635.556 109.426 632.686 110.252 629.382 110.252C626.582 110.252 624.048 109.622 621.78 108.362C619.54 107.074 617.762 105.296 616.446 103.028C615.158 100.76 614.514 98.184 614.514 95.3ZM668.55 80.684V85.43H660.738V110H654.858V85.43H647.046V80.684H668.55ZM686.868 110.294C684.124 110.294 681.604 109.65 679.308 108.362C677.012 107.074 675.192 105.296 673.848 103.028C672.504 100.732 671.832 98.142 671.832 95.258C671.832 92.402 672.504 89.84 673.848 87.572C675.192 85.276 677.012 83.484 679.308 82.196C681.604 80.908 684.124 80.264 686.868 80.264C689.64 80.264 692.16 80.908 694.428 82.196C696.724 83.484 698.53 85.276 699.846 87.572C701.19 89.84 701.862 92.402 701.862 95.258C701.862 98.142 701.19 100.732 699.846 103.028C698.53 105.296 696.724 107.074 694.428 108.362C692.132 109.65 689.612 110.294 686.868 110.294ZM686.868 105.044C688.632 105.044 690.186 104.652 691.53 103.868C692.874 103.056 693.924 101.908 694.68 100.424C695.436 98.94 695.814 97.218 695.814 95.258C695.814 93.298 695.436 91.59 694.68 90.134C693.924 88.65 692.874 87.516 691.53 86.732C690.186 85.948 688.632 85.556 686.868 85.556C685.104 85.556 683.536 85.948 682.164 86.732C680.82 87.516 679.77 88.65 679.014 90.134C678.258 91.59 677.88 93.298 677.88 95.258C677.88 97.218 678.258 98.94 679.014 100.424C679.77 101.908 680.82 103.056 682.164 103.868C683.536 104.652 685.104 105.044 686.868 105.044ZM716.779 110.294C714.735 110.294 712.887 109.944 711.235 109.244C709.611 108.544 708.323 107.536 707.371 106.22C706.419 104.904 705.929 103.35 705.901 101.558H712.201C712.285 102.762 712.705 103.714 713.461 104.414C714.245 105.114 715.309 105.464 716.653 105.464C718.025 105.464 719.103 105.142 719.887 104.498C720.671 103.826 721.063 102.958 721.063 101.894C721.063 101.026 720.797 100.312 720.265 99.752C719.733 99.192 719.061 98.758 718.249 98.45C717.465 98.114 716.373 97.75 714.973 97.358C713.069 96.798 711.515 96.252 710.311 95.72C709.135 95.16 708.113 94.334 707.245 93.242C706.405 92.122 705.985 90.638 705.985 88.79C705.985 87.054 706.419 85.542 707.287 84.254C708.155 82.966 709.373 81.986 710.941 81.314C712.509 80.614 714.301 80.264 716.317 80.264C719.341 80.264 721.791 81.006 723.667 82.49C725.571 83.946 726.621 85.99 726.817 88.622H720.349C720.293 87.614 719.859 86.788 719.047 86.144C718.263 85.472 717.213 85.136 715.897 85.136C714.749 85.136 713.825 85.43 713.125 86.018C712.453 86.606 712.117 87.46 712.117 88.58C712.117 89.364 712.369 90.022 712.873 90.554C713.405 91.058 714.049 91.478 714.805 91.814C715.589 92.122 716.681 92.486 718.081 92.906C719.985 93.466 721.539 94.026 722.743 94.586C723.947 95.146 724.983 95.986 725.851 97.106C726.719 98.226 727.153 99.696 727.153 101.516C727.153 103.084 726.747 104.54 725.935 105.884C725.123 107.228 723.933 108.306 722.365 109.118C720.797 109.902 718.935 110.294 716.779 110.294ZM84.0757 155L77.6077 143.576H74.8357V155H68.9557V125.684H79.9597C82.2277 125.684 84.1597 126.09 85.7557 126.902C87.3517 127.686 88.5417 128.764 89.3257 130.136C90.1377 131.48 90.5437 132.992 90.5437 134.672C90.5437 136.604 89.9837 138.354 88.8637 139.922C87.7437 141.462 86.0777 142.526 83.8657 143.114L90.8797 155H84.0757ZM74.8357 139.166H79.7497C81.3457 139.166 82.5357 138.788 83.3197 138.032C84.1037 137.248 84.4957 136.17 84.4957 134.798C84.4957 133.454 84.1037 132.418 83.3197 131.69C82.5357 130.934 81.3457 130.556 79.7497 130.556H74.8357V139.166ZM102.162 130.43V137.78H112.032V142.442H102.162V150.212H113.292V155H96.282V125.642H113.292V130.43H102.162ZM117.627 140.3C117.627 137.416 118.271 134.84 119.559 132.572C120.875 130.276 122.653 128.498 124.893 127.238C127.161 125.95 129.695 125.306 132.495 125.306C135.771 125.306 138.641 126.146 141.105 127.826C143.569 129.506 145.291 131.83 146.271 134.798H139.509C138.837 133.398 137.885 132.348 136.653 131.648C135.449 130.948 134.049 130.598 132.453 130.598C130.745 130.598 129.219 131.004 127.875 131.816C126.559 132.6 125.523 133.72 124.767 135.176C124.039 136.632 123.675 138.34 123.675 140.3C123.675 142.232 124.039 143.94 124.767 145.424C125.523 146.88 126.559 148.014 127.875 148.826C129.219 149.61 130.745 150.002 132.453 150.002C134.049 150.002 135.449 149.652 136.653 148.952C137.885 148.224 138.837 147.16 139.509 145.76H146.271C145.291 148.756 143.569 151.094 141.105 152.774C138.669 154.426 135.799 155.252 132.495 155.252C129.695 155.252 127.161 154.622 124.893 153.362C122.653 152.074 120.875 150.296 119.559 148.028C118.271 145.76 117.627 143.184 117.627 140.3ZM157.594 125.684V155H151.714V125.684H157.594ZM169.703 130.43V137.78H179.573V142.442H169.703V150.212H180.833V155H163.823V125.642H180.833V130.43H169.703ZM211.671 155H205.791L192.477 134.882V155H186.597V125.642H192.477L205.791 145.802V125.642H211.671V155ZM237.851 125.684V130.43H230.039V155H224.159V130.43H216.347V125.684H237.851ZM248.442 130.43V137.78H258.312V142.442H248.442V150.212H259.572V155H242.562V125.642H259.572V130.43H248.442ZM297.297 125.684V155H291.417V135.932L283.563 155H279.111L271.215 135.932V155H265.335V125.684H272.013L281.337 147.482L290.661 125.684H297.297ZM309.411 130.43V137.78H319.281V142.442H309.411V150.212H320.541V155H303.531V125.642H320.541V130.43H309.411ZM351.378 155H345.498L332.184 134.882V155H326.304V125.642H332.184L345.498 145.802V125.642H351.378V155ZM377.559 125.684V130.43H369.747V155H363.867V130.43H356.055V125.684H377.559ZM388.149 130.43V137.78H398.019V142.442H388.149V150.212H399.279V155H382.269V125.642H399.279V130.43H388.149ZM435.42 125.684V130.43H427.608V155H421.728V130.43H413.916V125.684H435.42ZM446.011 130.43V137.78H455.881V142.442H446.011V150.212H457.141V155H440.131V125.642H457.141V130.43H446.011ZM478.024 155L471.556 143.576H468.784V155H462.904V125.684H473.908C476.176 125.684 478.108 126.09 479.704 126.902C481.3 127.686 482.49 128.764 483.274 130.136C484.086 131.48 484.492 132.992 484.492 134.672C484.492 136.604 483.932 138.354 482.812 139.922C481.692 141.462 480.026 142.526 477.814 143.114L484.828 155H478.024ZM468.784 139.166H473.698C475.294 139.166 476.484 138.788 477.268 138.032C478.052 137.248 478.444 136.17 478.444 134.798C478.444 133.454 478.052 132.418 477.268 131.69C476.484 130.934 475.294 130.556 473.698 130.556H468.784V139.166ZM522.192 125.684V155H516.312V135.932L508.458 155H504.006L496.11 135.932V155H490.23V125.684H496.908L506.232 147.482L515.556 125.684H522.192ZM534.306 125.684V155H528.426V125.684H534.306ZM565.609 155H559.729L546.415 134.882V155H540.535V125.642H546.415L559.729 145.802V125.642H565.609V155ZM589.816 149.414H578.14L576.208 155H570.034L580.576 125.642H587.422L597.964 155H591.748L589.816 149.414ZM588.22 144.71L583.978 132.446L579.736 144.71H588.22ZM612.573 125.684C615.653 125.684 618.355 126.286 620.679 127.49C623.031 128.694 624.837 130.416 626.097 132.656C627.385 134.868 628.029 137.444 628.029 140.384C628.029 143.324 627.385 145.9 626.097 148.112C624.837 150.296 623.031 151.99 620.679 153.194C618.355 154.398 615.653 155 612.573 155H602.325V125.684H612.573ZM612.363 150.002C615.443 150.002 617.823 149.162 619.503 147.482C621.183 145.802 622.023 143.436 622.023 140.384C622.023 137.332 621.183 134.952 619.503 133.244C617.823 131.508 615.443 130.64 612.363 130.64H608.205V150.002H612.363ZM646.458 155.294C643.714 155.294 641.194 154.65 638.898 153.362C636.602 152.074 634.782 150.296 633.438 148.028C632.094 145.732 631.422 143.142 631.422 140.258C631.422 137.402 632.094 134.84 633.438 132.572C634.782 130.276 636.602 128.484 638.898 127.196C641.194 125.908 643.714 125.264 646.458 125.264C649.23 125.264 651.75 125.908 654.018 127.196C656.314 128.484 658.12 130.276 659.436 132.572C660.78 134.84 661.452 137.402 661.452 140.258C661.452 143.142 660.78 145.732 659.436 148.028C658.12 150.296 656.314 152.074 654.018 153.362C651.722 154.65 649.202 155.294 646.458 155.294ZM646.458 150.044C648.222 150.044 649.776 149.652 651.12 148.868C652.464 148.056 653.514 146.908 654.27 145.424C655.026 143.94 655.404 142.218 655.404 140.258C655.404 138.298 655.026 136.59 654.27 135.134C653.514 133.65 652.464 132.516 651.12 131.732C649.776 130.948 648.222 130.556 646.458 130.556C644.694 130.556 643.126 130.948 641.754 131.732C640.41 132.516 639.36 133.65 638.604 135.134C637.848 136.59 637.47 138.298 637.47 140.258C637.47 142.218 637.848 143.94 638.604 145.424C639.36 146.908 640.41 148.056 641.754 148.868C643.126 149.652 644.694 150.044 646.458 150.044ZM676.369 155.294C674.325 155.294 672.477 154.944 670.825 154.244C669.201 153.544 667.913 152.536 666.961 151.22C666.009 149.904 665.519 148.35 665.491 146.558H671.791C671.875 147.762 672.295 148.714 673.051 149.414C673.835 150.114 674.899 150.464 676.243 150.464C677.615 150.464 678.693 150.142 679.477 149.498C680.261 148.826 680.653 147.958 680.653 146.894C680.653 146.026 680.387 145.312 679.855 144.752C679.323 144.192 678.651 143.758 677.839 143.45C677.055 143.114 675.963 142.75 674.563 142.358C672.659 141.798 671.105 141.252 669.901 140.72C668.725 140.16 667.703 139.334 666.835 138.242C665.995 137.122 665.575 135.638 665.575 133.79C665.575 132.054 666.009 130.542 666.877 129.254C667.745 127.966 668.963 126.986 670.531 126.314C672.099 125.614 673.891 125.264 675.907 125.264C678.931 125.264 681.381 126.006 683.257 127.49C685.161 128.946 686.211 130.99 686.407 133.622H679.939C679.883 132.614 679.449 131.788 678.637 131.144C677.853 130.472 676.803 130.136 675.487 130.136C674.339 130.136 673.415 130.43 672.715 131.018C672.043 131.606 671.707 132.46 671.707 133.58C671.707 134.364 671.959 135.022 672.463 135.554C672.995 136.058 673.639 136.478 674.395 136.814C675.179 137.122 676.271 137.486 677.671 137.906C679.575 138.466 681.129 139.026 682.333 139.586C683.537 140.146 684.573 140.986 685.441 142.106C686.309 143.226 686.743 144.696 686.743 146.516C686.743 148.084 686.337 149.54 685.525 150.884C684.713 152.228 683.523 153.306 681.955 154.118C680.387 154.902 678.525 155.294 676.369 155.294Z" fill="#224181"/>
</svg>
