<svg width="966" height="126" viewBox="0 0 966 126" fill="none" xmlns="http://www.w3.org/2000/svg">
<mask id="path-1-outside-1_487_2" maskUnits="userSpaceOnUse" x="0" y="0" width="966" height="126" fill="black">
<rect fill="white" width="966" height="126"/>
<path d="M96.2 122.15H70.55L27.65 57.2V122.15H2V16.85H27.65L70.55 82.1V16.85H96.2V122.15ZM152.893 123.35C144.693 123.35 137.293 121.6 130.693 118.1C124.193 114.6 119.043 109.6 115.243 103.1C111.543 96.6 109.693 89 109.693 80.3C109.693 71.7 111.593 64.15 115.393 57.65C119.193 51.05 124.393 46 130.993 42.5C137.593 39 144.993 37.25 153.193 37.25C161.393 37.25 168.793 39 175.393 42.5C181.993 46 187.193 51.05 190.993 57.65C194.793 64.15 196.693 71.7 196.693 80.3C196.693 88.9 194.743 96.5 190.843 103.1C187.043 109.6 181.793 114.6 175.093 118.1C168.493 121.6 161.093 123.35 152.893 123.35ZM152.893 101.15C157.793 101.15 161.943 99.35 165.343 95.75C168.843 92.15 170.593 87 170.593 80.3C170.593 73.6 168.893 68.45 165.493 64.85C162.193 61.25 158.093 59.45 153.193 59.45C148.193 59.45 144.043 61.25 140.743 64.85C137.443 68.35 135.793 73.5 135.793 80.3C135.793 87 137.393 92.15 140.593 95.75C143.893 99.35 147.993 101.15 152.893 101.15ZM244.351 123.35C237.051 123.35 230.551 122.1 224.851 119.6C219.151 117.1 214.651 113.7 211.351 109.4C208.051 105 206.201 100.1 205.801 94.7H231.151C231.451 97.6 232.801 99.95 235.201 101.75C237.601 103.55 240.551 104.45 244.051 104.45C247.251 104.45 249.701 103.85 251.401 102.65C253.201 101.35 254.101 99.7 254.101 97.7C254.101 95.3 252.851 93.55 250.351 92.45C247.851 91.25 243.801 89.95 238.201 88.55C232.201 87.15 227.201 85.7 223.201 84.2C219.201 82.6 215.751 80.15 212.851 76.85C209.951 73.45 208.501 68.9 208.501 63.2C208.501 58.4 209.801 54.05 212.401 50.15C215.101 46.15 219.001 43 224.101 40.7C229.301 38.4 235.451 37.25 242.551 37.25C253.051 37.25 261.301 39.85 267.301 45.05C273.401 50.25 276.901 57.15 277.801 65.75H254.101C253.701 62.85 252.401 60.55 250.201 58.85C248.101 57.15 245.301 56.3 241.801 56.3C238.801 56.3 236.501 56.9 234.901 58.1C233.301 59.2 232.501 60.75 232.501 62.75C232.501 65.15 233.751 66.95 236.251 68.15C238.851 69.35 242.851 70.55 248.251 71.75C254.451 73.35 259.501 74.95 263.401 76.55C267.301 78.05 270.701 80.55 273.601 84.05C276.601 87.45 278.151 92.05 278.251 97.85C278.251 102.75 276.851 107.15 274.051 111.05C271.351 114.85 267.401 117.85 262.201 120.05C257.101 122.25 251.151 123.35 244.351 123.35ZM363.83 123.2C356.13 123.2 349.23 121.95 343.13 119.45C337.03 116.95 332.13 113.25 328.43 108.35C324.83 103.45 322.93 97.55 322.73 90.65H350.03C350.43 94.55 351.78 97.55 354.08 99.65C356.38 101.65 359.38 102.65 363.08 102.65C366.88 102.65 369.88 101.8 372.08 100.1C374.28 98.3 375.38 95.85 375.38 92.75C375.38 90.15 374.48 88 372.68 86.3C370.98 84.6 368.83 83.2 366.23 82.1C363.73 81 360.13 79.75 355.43 78.35C348.63 76.25 343.08 74.15 338.78 72.05C334.48 69.95 330.78 66.85 327.68 62.75C324.58 58.65 323.03 53.3 323.03 46.7C323.03 36.9 326.58 29.25 333.68 23.75C340.78 18.15 350.03 15.35 361.43 15.35C373.03 15.35 382.38 18.15 389.48 23.75C396.58 29.25 400.38 36.95 400.88 46.85H373.13C372.93 43.45 371.68 40.8 369.38 38.9C367.08 36.9 364.13 35.9 360.53 35.9C357.43 35.9 354.93 36.75 353.03 38.45C351.13 40.05 350.18 42.4 350.18 45.5C350.18 48.9 351.78 51.55 354.98 53.45C358.18 55.35 363.18 57.4 369.98 59.6C376.78 61.9 382.28 64.1 386.48 66.2C390.78 68.3 394.48 71.35 397.58 75.35C400.68 79.35 402.23 84.5 402.23 90.8C402.23 96.8 400.68 102.25 397.58 107.15C394.58 112.05 390.18 115.95 384.38 118.85C378.58 121.75 371.73 123.2 363.83 123.2ZM496.916 78.95C496.916 81.35 496.766 83.85 496.466 86.45H438.416C438.816 91.65 440.466 95.65 443.366 98.45C446.366 101.15 450.016 102.5 454.316 102.5C460.716 102.5 465.166 99.8 467.666 94.4H494.966C493.566 99.9 491.016 104.85 487.316 109.25C483.716 113.65 479.166 117.1 473.666 119.6C468.166 122.1 462.016 123.35 455.216 123.35C447.016 123.35 439.716 121.6 433.316 118.1C426.916 114.6 421.916 109.6 418.316 103.1C414.716 96.6 412.916 89 412.916 80.3C412.916 71.6 414.666 64 418.166 57.5C421.766 51 426.766 46 433.166 42.5C439.566 39 446.916 37.25 455.216 37.25C463.316 37.25 470.516 38.95 476.816 42.35C483.116 45.75 488.016 50.6 491.516 56.9C495.116 63.2 496.916 70.55 496.916 78.95ZM470.666 72.2C470.666 67.8 469.166 64.3 466.166 61.7C463.166 59.1 459.416 57.8 454.916 57.8C450.616 57.8 446.966 59.05 443.966 61.55C441.066 64.05 439.266 67.6 438.566 72.2H470.666ZM536.097 52.4C539.097 47.8 542.847 44.2 547.347 41.6C551.847 38.9 556.847 37.55 562.347 37.55V64.7H555.297C548.897 64.7 544.097 66.1 540.897 68.9C537.697 71.6 536.097 76.4 536.097 83.3V122.15H510.447V38.45H536.097V52.4ZM612.257 98.15L630.407 38.45H657.707L628.007 122.15H596.357L566.657 38.45H594.107L612.257 98.15ZM681.404 29.75C676.904 29.75 673.204 28.45 670.304 25.85C667.504 23.15 666.104 19.85 666.104 15.95C666.104 11.95 667.504 8.65 670.304 6.05C673.204 3.35 676.904 2 681.404 2C685.804 2 689.404 3.35 692.204 6.05C695.104 8.65 696.554 11.95 696.554 15.95C696.554 19.85 695.104 23.15 692.204 25.85C689.404 28.45 685.804 29.75 681.404 29.75ZM694.154 38.45V122.15H668.504V38.45H694.154ZM707.642 80.3C707.642 71.6 709.392 64 712.892 57.5C716.492 51 721.442 46 727.742 42.5C734.142 39 741.442 37.25 749.642 37.25C760.142 37.25 768.892 40 775.892 45.5C782.992 51 787.642 58.75 789.842 68.75H762.542C760.242 62.35 755.792 59.15 749.192 59.15C744.492 59.15 740.742 61 737.942 64.7C735.142 68.3 733.742 73.5 733.742 80.3C733.742 87.1 735.142 92.35 737.942 96.05C740.742 99.65 744.492 101.45 749.192 101.45C755.792 101.45 760.242 98.25 762.542 91.85H789.842C787.642 101.65 782.992 109.35 775.892 114.95C768.792 120.55 760.042 123.35 749.642 123.35C741.442 123.35 734.142 121.6 727.742 118.1C721.442 114.6 716.492 109.6 712.892 103.1C709.392 96.6 707.642 89 707.642 80.3ZM882.463 78.95C882.463 81.35 882.312 83.85 882.013 86.45H823.963C824.363 91.65 826.012 95.65 828.912 98.45C831.912 101.15 835.562 102.5 839.862 102.5C846.263 102.5 850.713 99.8 853.213 94.4H880.513C879.112 99.9 876.562 104.85 872.862 109.25C869.263 113.65 864.713 117.1 859.213 119.6C853.713 122.1 847.562 123.35 840.763 123.35C832.562 123.35 825.263 121.6 818.862 118.1C812.462 114.6 807.462 109.6 803.862 103.1C800.263 96.6 798.463 89 798.463 80.3C798.463 71.6 800.213 64 803.713 57.5C807.312 51 812.312 46 818.713 42.5C825.113 39 832.463 37.25 840.763 37.25C848.862 37.25 856.062 38.95 862.362 42.35C868.662 45.75 873.562 50.6 877.062 56.9C880.662 63.2 882.463 70.55 882.463 78.95ZM856.213 72.2C856.213 67.8 854.713 64.3 851.713 61.7C848.713 59.1 844.963 57.8 840.463 57.8C836.163 57.8 832.513 59.05 829.513 61.55C826.612 64.05 824.812 67.6 824.112 72.2H856.213ZM930.044 123.35C922.744 123.35 916.244 122.1 910.544 119.6C904.844 117.1 900.344 113.7 897.044 109.4C893.744 105 891.894 100.1 891.494 94.7H916.844C917.144 97.6 918.494 99.95 920.894 101.75C923.294 103.55 926.244 104.45 929.744 104.45C932.944 104.45 935.394 103.85 937.094 102.65C938.894 101.35 939.794 99.7 939.794 97.7C939.794 95.3 938.544 93.55 936.044 92.45C933.544 91.25 929.494 89.95 923.894 88.55C917.894 87.15 912.894 85.7 908.894 84.2C904.894 82.6 901.444 80.15 898.544 76.85C895.644 73.45 894.194 68.9 894.194 63.2C894.194 58.4 895.494 54.05 898.094 50.15C900.794 46.15 904.694 43 909.794 40.7C914.994 38.4 921.144 37.25 928.244 37.25C938.744 37.25 946.994 39.85 952.994 45.05C959.094 50.25 962.594 57.15 963.494 65.75H939.794C939.394 62.85 938.094 60.55 935.894 58.85C933.794 57.15 930.994 56.3 927.494 56.3C924.494 56.3 922.194 56.9 920.594 58.1C918.994 59.2 918.194 60.75 918.194 62.75C918.194 65.15 919.444 66.95 921.944 68.15C924.544 69.35 928.544 70.55 933.944 71.75C940.144 73.35 945.194 74.95 949.094 76.55C952.994 78.05 956.394 80.55 959.294 84.05C962.294 87.45 963.844 92.05 963.944 97.85C963.944 102.75 962.544 107.15 959.744 111.05C957.044 114.85 953.094 117.85 947.894 120.05C942.794 122.25 936.844 123.35 930.044 123.35Z"/>
</mask>
<path d="M96.2 122.15H70.55L27.65 57.2V122.15H2V16.85H27.65L70.55 82.1V16.85H96.2V122.15ZM152.893 123.35C144.693 123.35 137.293 121.6 130.693 118.1C124.193 114.6 119.043 109.6 115.243 103.1C111.543 96.6 109.693 89 109.693 80.3C109.693 71.7 111.593 64.15 115.393 57.65C119.193 51.05 124.393 46 130.993 42.5C137.593 39 144.993 37.25 153.193 37.25C161.393 37.25 168.793 39 175.393 42.5C181.993 46 187.193 51.05 190.993 57.65C194.793 64.15 196.693 71.7 196.693 80.3C196.693 88.9 194.743 96.5 190.843 103.1C187.043 109.6 181.793 114.6 175.093 118.1C168.493 121.6 161.093 123.35 152.893 123.35ZM152.893 101.15C157.793 101.15 161.943 99.35 165.343 95.75C168.843 92.15 170.593 87 170.593 80.3C170.593 73.6 168.893 68.45 165.493 64.85C162.193 61.25 158.093 59.45 153.193 59.45C148.193 59.45 144.043 61.25 140.743 64.85C137.443 68.35 135.793 73.5 135.793 80.3C135.793 87 137.393 92.15 140.593 95.75C143.893 99.35 147.993 101.15 152.893 101.15ZM244.351 123.35C237.051 123.35 230.551 122.1 224.851 119.6C219.151 117.1 214.651 113.7 211.351 109.4C208.051 105 206.201 100.1 205.801 94.7H231.151C231.451 97.6 232.801 99.95 235.201 101.75C237.601 103.55 240.551 104.45 244.051 104.45C247.251 104.45 249.701 103.85 251.401 102.65C253.201 101.35 254.101 99.7 254.101 97.7C254.101 95.3 252.851 93.55 250.351 92.45C247.851 91.25 243.801 89.95 238.201 88.55C232.201 87.15 227.201 85.7 223.201 84.2C219.201 82.6 215.751 80.15 212.851 76.85C209.951 73.45 208.501 68.9 208.501 63.2C208.501 58.4 209.801 54.05 212.401 50.15C215.101 46.15 219.001 43 224.101 40.7C229.301 38.4 235.451 37.25 242.551 37.25C253.051 37.25 261.301 39.85 267.301 45.05C273.401 50.25 276.901 57.15 277.801 65.75H254.101C253.701 62.85 252.401 60.55 250.201 58.85C248.101 57.15 245.301 56.3 241.801 56.3C238.801 56.3 236.501 56.9 234.901 58.1C233.301 59.2 232.501 60.75 232.501 62.75C232.501 65.15 233.751 66.95 236.251 68.15C238.851 69.35 242.851 70.55 248.251 71.75C254.451 73.35 259.501 74.95 263.401 76.55C267.301 78.05 270.701 80.55 273.601 84.05C276.601 87.45 278.151 92.05 278.251 97.85C278.251 102.75 276.851 107.15 274.051 111.05C271.351 114.85 267.401 117.85 262.201 120.05C257.101 122.25 251.151 123.35 244.351 123.35ZM363.83 123.2C356.13 123.2 349.23 121.95 343.13 119.45C337.03 116.95 332.13 113.25 328.43 108.35C324.83 103.45 322.93 97.55 322.73 90.65H350.03C350.43 94.55 351.78 97.55 354.08 99.65C356.38 101.65 359.38 102.65 363.08 102.65C366.88 102.65 369.88 101.8 372.08 100.1C374.28 98.3 375.38 95.85 375.38 92.75C375.38 90.15 374.48 88 372.68 86.3C370.98 84.6 368.83 83.2 366.23 82.1C363.73 81 360.13 79.75 355.43 78.35C348.63 76.25 343.08 74.15 338.78 72.05C334.48 69.95 330.78 66.85 327.68 62.75C324.58 58.65 323.03 53.3 323.03 46.7C323.03 36.9 326.58 29.25 333.68 23.75C340.78 18.15 350.03 15.35 361.43 15.35C373.03 15.35 382.38 18.15 389.48 23.75C396.58 29.25 400.38 36.95 400.88 46.85H373.13C372.93 43.45 371.68 40.8 369.38 38.9C367.08 36.9 364.13 35.9 360.53 35.9C357.43 35.9 354.93 36.75 353.03 38.45C351.13 40.05 350.18 42.4 350.18 45.5C350.18 48.9 351.78 51.55 354.98 53.45C358.18 55.35 363.18 57.4 369.98 59.6C376.78 61.9 382.28 64.1 386.48 66.2C390.78 68.3 394.48 71.35 397.58 75.35C400.68 79.35 402.23 84.5 402.23 90.8C402.23 96.8 400.68 102.25 397.58 107.15C394.58 112.05 390.18 115.95 384.38 118.85C378.58 121.75 371.73 123.2 363.83 123.2ZM496.916 78.95C496.916 81.35 496.766 83.85 496.466 86.45H438.416C438.816 91.65 440.466 95.65 443.366 98.45C446.366 101.15 450.016 102.5 454.316 102.5C460.716 102.5 465.166 99.8 467.666 94.4H494.966C493.566 99.9 491.016 104.85 487.316 109.25C483.716 113.65 479.166 117.1 473.666 119.6C468.166 122.1 462.016 123.35 455.216 123.35C447.016 123.35 439.716 121.6 433.316 118.1C426.916 114.6 421.916 109.6 418.316 103.1C414.716 96.6 412.916 89 412.916 80.3C412.916 71.6 414.666 64 418.166 57.5C421.766 51 426.766 46 433.166 42.5C439.566 39 446.916 37.25 455.216 37.25C463.316 37.25 470.516 38.95 476.816 42.35C483.116 45.75 488.016 50.6 491.516 56.9C495.116 63.2 496.916 70.55 496.916 78.95ZM470.666 72.2C470.666 67.8 469.166 64.3 466.166 61.7C463.166 59.1 459.416 57.8 454.916 57.8C450.616 57.8 446.966 59.05 443.966 61.55C441.066 64.05 439.266 67.6 438.566 72.2H470.666ZM536.097 52.4C539.097 47.8 542.847 44.2 547.347 41.6C551.847 38.9 556.847 37.55 562.347 37.55V64.7H555.297C548.897 64.7 544.097 66.1 540.897 68.9C537.697 71.6 536.097 76.4 536.097 83.3V122.15H510.447V38.45H536.097V52.4ZM612.257 98.15L630.407 38.45H657.707L628.007 122.15H596.357L566.657 38.45H594.107L612.257 98.15ZM681.404 29.75C676.904 29.75 673.204 28.45 670.304 25.85C667.504 23.15 666.104 19.85 666.104 15.95C666.104 11.95 667.504 8.65 670.304 6.05C673.204 3.35 676.904 2 681.404 2C685.804 2 689.404 3.35 692.204 6.05C695.104 8.65 696.554 11.95 696.554 15.95C696.554 19.85 695.104 23.15 692.204 25.85C689.404 28.45 685.804 29.75 681.404 29.75ZM694.154 38.45V122.15H668.504V38.45H694.154ZM707.642 80.3C707.642 71.6 709.392 64 712.892 57.5C716.492 51 721.442 46 727.742 42.5C734.142 39 741.442 37.25 749.642 37.25C760.142 37.25 768.892 40 775.892 45.5C782.992 51 787.642 58.75 789.842 68.75H762.542C760.242 62.35 755.792 59.15 749.192 59.15C744.492 59.15 740.742 61 737.942 64.7C735.142 68.3 733.742 73.5 733.742 80.3C733.742 87.1 735.142 92.35 737.942 96.05C740.742 99.65 744.492 101.45 749.192 101.45C755.792 101.45 760.242 98.25 762.542 91.85H789.842C787.642 101.65 782.992 109.35 775.892 114.95C768.792 120.55 760.042 123.35 749.642 123.35C741.442 123.35 734.142 121.6 727.742 118.1C721.442 114.6 716.492 109.6 712.892 103.1C709.392 96.6 707.642 89 707.642 80.3ZM882.463 78.95C882.463 81.35 882.312 83.85 882.013 86.45H823.963C824.363 91.65 826.012 95.65 828.912 98.45C831.912 101.15 835.562 102.5 839.862 102.5C846.263 102.5 850.713 99.8 853.213 94.4H880.513C879.112 99.9 876.562 104.85 872.862 109.25C869.263 113.65 864.713 117.1 859.213 119.6C853.713 122.1 847.562 123.35 840.763 123.35C832.562 123.35 825.263 121.6 818.862 118.1C812.462 114.6 807.462 109.6 803.862 103.1C800.263 96.6 798.463 89 798.463 80.3C798.463 71.6 800.213 64 803.713 57.5C807.312 51 812.312 46 818.713 42.5C825.113 39 832.463 37.25 840.763 37.25C848.862 37.25 856.062 38.95 862.362 42.35C868.662 45.75 873.562 50.6 877.062 56.9C880.662 63.2 882.463 70.55 882.463 78.95ZM856.213 72.2C856.213 67.8 854.713 64.3 851.713 61.7C848.713 59.1 844.963 57.8 840.463 57.8C836.163 57.8 832.513 59.05 829.513 61.55C826.612 64.05 824.812 67.6 824.112 72.2H856.213ZM930.044 123.35C922.744 123.35 916.244 122.1 910.544 119.6C904.844 117.1 900.344 113.7 897.044 109.4C893.744 105 891.894 100.1 891.494 94.7H916.844C917.144 97.6 918.494 99.95 920.894 101.75C923.294 103.55 926.244 104.45 929.744 104.45C932.944 104.45 935.394 103.85 937.094 102.65C938.894 101.35 939.794 99.7 939.794 97.7C939.794 95.3 938.544 93.55 936.044 92.45C933.544 91.25 929.494 89.95 923.894 88.55C917.894 87.15 912.894 85.7 908.894 84.2C904.894 82.6 901.444 80.15 898.544 76.85C895.644 73.45 894.194 68.9 894.194 63.2C894.194 58.4 895.494 54.05 898.094 50.15C900.794 46.15 904.694 43 909.794 40.7C914.994 38.4 921.144 37.25 928.244 37.25C938.744 37.25 946.994 39.85 952.994 45.05C959.094 50.25 962.594 57.15 963.494 65.75H939.794C939.394 62.85 938.094 60.55 935.894 58.85C933.794 57.15 930.994 56.3 927.494 56.3C924.494 56.3 922.194 56.9 920.594 58.1C918.994 59.2 918.194 60.75 918.194 62.75C918.194 65.15 919.444 66.95 921.944 68.15C924.544 69.35 928.544 70.55 933.944 71.75C940.144 73.35 945.194 74.95 949.094 76.55C952.994 78.05 956.394 80.55 959.294 84.05C962.294 87.45 963.844 92.05 963.944 97.85C963.944 102.75 962.544 107.15 959.744 111.05C957.044 114.85 953.094 117.85 947.894 120.05C942.794 122.25 936.844 123.35 930.044 123.35Z" stroke="black" stroke-width="4" mask="url(#path-1-outside-1_487_2)"/>
</svg>
