<svg width="721" height="271" viewBox="0 0 721 271" fill="none" xmlns="http://www.w3.org/2000/svg">
<mask id="path-1-outside-1_595_20" maskUnits="userSpaceOnUse" x="-0.03125" y="-0.300049" width="721" height="271" fill="black">
<rect fill="white" x="-0.03125" y="-0.300049" width="721" height="271"/>
<path d="M111.139 107.7H77.8391L42.5891 54.3V107.7H9.28906V1.49995H42.5891L77.8391 55.7999V1.49995H111.139V107.7ZM215.734 23.0999V107.7H182.434V94.8C179.834 98.8 176.334 102.05 171.934 104.55C167.634 107.05 162.484 108.3 156.484 108.3C146.784 108.3 139.184 105.05 133.684 98.55C128.284 92.05 125.584 83.25 125.584 72.1499V23.0999H158.734V67.9499C158.734 71.9499 159.784 75.15 161.884 77.55C164.084 79.85 166.984 81 170.584 81C174.284 81 177.184 79.85 179.284 77.55C181.384 75.15 182.434 71.9499 182.434 67.9499V23.0999H215.734ZM312.673 64.65C312.673 66.95 312.523 69.15 312.223 71.2499H258.673C259.173 78.55 262.223 82.2 267.823 82.2C271.423 82.2 274.023 80.55 275.623 77.2499H310.873C309.673 83.25 307.123 88.65 303.223 93.45C299.423 98.15 294.573 101.9 288.673 104.7C282.873 107.4 276.473 108.75 269.473 108.75C261.073 108.75 253.573 107 246.973 103.5C240.473 100 235.373 95 231.673 88.5C228.073 81.9 226.273 74.2 226.273 65.4C226.273 56.6 228.073 48.9499 231.673 42.4499C235.373 35.8499 240.473 30.7999 246.973 27.2999C253.573 23.7999 261.073 22.0499 269.473 22.0499C277.873 22.0499 285.323 23.7999 291.823 27.2999C298.423 30.6999 303.523 35.5999 307.123 41.9999C310.823 48.3999 312.673 55.9499 312.673 64.65ZM278.923 56.7C278.923 53.8999 278.023 51.7999 276.223 50.3999C274.423 48.8999 272.173 48.1499 269.473 48.1499C263.573 48.1499 260.123 50.9999 259.123 56.7H278.923ZM360.855 108.75C352.855 108.75 345.755 107.45 339.555 104.85C333.455 102.25 328.605 98.65 325.005 94.05C321.405 89.4499 319.355 84.2499 318.855 78.45H350.805C351.205 80.95 352.255 82.8 353.955 84C355.755 85.1999 358.005 85.7999 360.705 85.7999C362.405 85.7999 363.755 85.4499 364.755 84.7499C365.755 83.9499 366.255 82.9999 366.255 81.9C366.255 79.9999 365.205 78.6499 363.105 77.8499C361.005 77.0499 357.455 76.1499 352.455 75.15C346.355 73.9499 341.305 72.6499 337.305 71.2499C333.405 69.85 329.955 67.45 326.955 64.0499C324.055 60.6499 322.605 55.9499 322.605 49.9499C322.605 44.7499 323.955 40.0499 326.655 35.8499C329.455 31.5499 333.555 28.1999 338.955 25.8C344.355 23.2999 350.905 22.0499 358.605 22.0499C370.005 22.0499 378.905 24.8499 385.305 30.4499C391.805 36.0499 395.705 43.3499 397.005 52.3499H367.455C366.955 50.0499 365.905 48.2999 364.305 47.0999C362.705 45.7999 360.555 45.1499 357.855 45.1499C356.155 45.1499 354.855 45.4999 353.955 46.1999C353.055 46.7999 352.605 47.7499 352.605 49.0499C352.605 50.7499 353.655 52.0499 355.755 52.9499C357.855 53.7499 361.205 54.5999 365.805 55.4999C371.905 56.6999 377.055 58.0499 381.255 59.5499C385.455 61.0499 389.105 63.6499 392.205 67.3499C395.305 70.9499 396.855 75.9499 396.855 82.3499C396.855 87.35 395.405 91.85 392.505 95.85C389.605 99.85 385.405 103 379.905 105.3C374.505 107.6 368.155 108.75 360.855 108.75ZM462.72 79.3499V107.7H450.12C426.92 107.7 415.32 96.15 415.32 73.05V50.8499H404.82V23.0999H415.32V2.69994H448.62V23.0999H462.42V50.8499H448.62V73.6499C448.62 75.6499 449.07 77.0999 449.97 77.9999C450.97 78.8999 452.57 79.3499 454.77 79.3499H462.72ZM508.702 38.6999C512.102 33.8 516.252 29.8999 521.152 26.9999C526.052 23.9999 531.152 22.4999 536.452 22.4999V58.0499H527.002C520.702 58.0499 516.052 59.1499 513.052 61.3499C510.152 63.55 508.702 67.45 508.702 73.05V107.7H475.402V23.0999H508.702V38.6999ZM585.622 108.75C577.122 108.75 569.472 107 562.672 103.5C555.872 100 550.522 95 546.622 88.5C542.822 81.9 540.922 74.2 540.922 65.4C540.922 56.6 542.822 48.9499 546.622 42.4499C550.522 35.8499 555.872 30.7999 562.672 27.2999C569.472 23.7999 577.122 22.0499 585.622 22.0499C594.122 22.0499 601.772 23.7999 608.572 27.2999C615.372 30.7999 620.672 35.8499 624.472 42.4499C628.372 48.9499 630.322 56.6 630.322 65.4C630.322 74.2 628.372 81.9 624.472 88.5C620.672 95 615.372 100 608.572 103.5C601.772 107 594.122 108.75 585.622 108.75ZM585.622 79.95C588.722 79.95 591.322 78.75 593.422 76.35C595.522 73.8499 596.572 70.1999 596.572 65.4C596.572 60.5999 595.522 56.9999 593.422 54.6C591.322 52.1 588.722 50.8499 585.622 50.8499C582.522 50.8499 579.922 52.1 577.822 54.6C575.722 56.9999 574.672 60.5999 574.672 65.4C574.672 70.1999 575.672 73.8499 577.672 76.35C579.772 78.75 582.422 79.95 585.622 79.95ZM678.433 108.75C670.433 108.75 663.333 107.45 657.133 104.85C651.033 102.25 646.183 98.65 642.583 94.05C638.983 89.4499 636.933 84.2499 636.433 78.45H668.383C668.783 80.95 669.833 82.8 671.533 84C673.333 85.1999 675.583 85.7999 678.283 85.7999C679.983 85.7999 681.333 85.4499 682.333 84.7499C683.333 83.9499 683.833 82.9999 683.833 81.9C683.833 79.9999 682.783 78.6499 680.683 77.8499C678.583 77.0499 675.033 76.1499 670.033 75.15C663.933 73.9499 658.883 72.6499 654.883 71.2499C650.983 69.85 647.533 67.45 644.533 64.0499C641.633 60.6499 640.183 55.9499 640.183 49.9499C640.183 44.7499 641.533 40.0499 644.233 35.8499C647.033 31.5499 651.133 28.1999 656.533 25.8C661.933 23.2999 668.483 22.0499 676.183 22.0499C687.583 22.0499 696.483 24.8499 702.883 30.4499C709.383 36.0499 713.283 43.3499 714.583 52.3499H685.033C684.533 50.0499 683.483 48.2999 681.883 47.0999C680.283 45.7999 678.133 45.1499 675.433 45.1499C673.733 45.1499 672.433 45.4999 671.533 46.1999C670.633 46.7999 670.183 47.7499 670.183 49.0499C670.183 50.7499 671.233 52.0499 673.333 52.9499C675.433 53.7499 678.783 54.5999 683.383 55.4999C689.483 56.6999 694.633 58.0499 698.833 59.5499C703.033 61.0499 706.683 63.6499 709.783 67.3499C712.883 70.9499 714.433 75.9499 714.433 82.3499C714.433 87.35 712.983 91.85 710.083 95.85C707.183 99.85 702.983 103 697.483 105.3C692.083 107.6 685.733 108.75 678.433 108.75ZM46.4445 268.75C33.7445 268.75 23.2445 265.8 14.9445 259.9C6.74453 253.9 2.29453 245.15 1.59453 233.65H36.9945C37.4945 239.75 40.1945 242.8 45.0945 242.8C46.8945 242.8 48.3945 242.4 49.5945 241.6C50.8945 240.7 51.5445 239.35 51.5445 237.55C51.5445 235.05 50.1945 233.05 47.4945 231.55C44.7945 229.95 40.5945 228.15 34.8945 226.15C28.0945 223.75 22.4445 221.4 17.9445 219.1C13.5445 216.8 9.74453 213.45 6.54453 209.05C3.34453 204.65 1.79453 199 1.89453 192.1C1.89453 185.2 3.64453 179.35 7.14453 174.55C10.7445 169.65 15.5945 165.95 21.6945 163.45C27.8945 160.95 34.8445 159.7 42.5445 159.7C55.5445 159.7 65.8445 162.7 73.4445 168.7C81.1445 174.7 85.1945 183.15 85.5945 194.05H49.7445C49.6445 191.05 48.8945 188.9 47.4945 187.6C46.0945 186.3 44.3945 185.65 42.3945 185.65C40.9945 185.65 39.8445 186.15 38.9445 187.15C38.0445 188.05 37.5945 189.35 37.5945 191.05C37.5945 193.45 38.8945 195.45 41.4945 197.05C44.1945 198.55 48.4445 200.4 54.2445 202.6C60.9445 205.1 66.4445 207.5 70.7445 209.8C75.1445 212.1 78.9445 215.3 82.1445 219.4C85.3445 223.5 86.9445 228.65 86.9445 234.85C86.9445 241.35 85.3445 247.2 82.1445 252.4C78.9445 257.5 74.2945 261.5 68.1945 264.4C62.0945 267.3 54.8445 268.75 46.4445 268.75ZM180.545 224.65C180.545 226.95 180.395 229.15 180.095 231.25H126.545C127.045 238.55 130.095 242.2 135.695 242.2C139.295 242.2 141.895 240.55 143.495 237.25H178.745C177.545 243.25 174.995 248.65 171.095 253.45C167.295 258.15 162.445 261.9 156.545 264.7C150.745 267.4 144.345 268.75 137.345 268.75C128.945 268.75 121.445 267 114.845 263.5C108.345 260 103.245 255 99.5445 248.5C95.9445 241.9 94.1445 234.2 94.1445 225.4C94.1445 216.6 95.9445 208.95 99.5445 202.45C103.245 195.85 108.345 190.8 114.845 187.3C121.445 183.8 128.945 182.05 137.345 182.05C145.745 182.05 153.195 183.8 159.695 187.3C166.295 190.7 171.395 195.6 174.995 202C178.695 208.4 180.545 215.95 180.545 224.65ZM146.795 216.7C146.795 213.9 145.895 211.8 144.095 210.4C142.295 208.9 140.045 208.15 137.345 208.15C131.445 208.15 127.995 211 126.995 216.7H146.795ZM224.376 198.7C227.776 193.8 231.926 189.9 236.826 187C241.726 184 246.826 182.5 252.126 182.5V218.05H242.676C236.376 218.05 231.726 219.15 228.726 221.35C225.826 223.55 224.376 227.45 224.376 233.05V267.7H191.076V183.1H224.376V198.7ZM303.996 236.05L317.496 183.1H352.896L324.696 267.7H283.146L254.946 183.1H290.346L303.996 236.05ZM378.53 176.35C372.73 176.35 368.08 174.8 364.58 171.7C361.08 168.6 359.33 164.7 359.33 160C359.33 155.2 361.08 151.25 364.58 148.15C368.08 144.95 372.73 143.35 378.53 143.35C384.23 143.35 388.83 144.95 392.33 148.15C395.83 151.25 397.58 155.2 397.58 160C397.58 164.7 395.83 168.6 392.33 171.7C388.83 174.8 384.23 176.35 378.53 176.35ZM395.03 183.1V267.7H361.73V183.1H395.03ZM405.57 225.4C405.57 216.6 407.37 208.95 410.97 202.45C414.67 195.85 419.77 190.8 426.27 187.3C432.87 183.8 440.37 182.05 448.77 182.05C459.77 182.05 469.02 185.15 476.52 191.35C484.12 197.55 488.92 206.15 490.92 217.15H455.67C454.37 212.75 451.82 210.55 448.02 210.55C445.32 210.55 443.17 211.8 441.57 214.3C440.07 216.8 439.32 220.5 439.32 225.4C439.32 230.3 440.07 234 441.57 236.5C443.17 239 445.32 240.25 448.02 240.25C451.82 240.25 454.37 238.05 455.67 233.65H490.92C488.92 244.65 484.12 253.25 476.52 259.45C469.02 265.65 459.77 268.75 448.77 268.75C440.37 268.75 432.87 267 426.27 263.5C419.77 260 414.67 255 410.97 248.5C407.37 241.9 405.57 234.2 405.57 225.4ZM518.277 176.35C512.477 176.35 507.827 174.8 504.327 171.7C500.827 168.6 499.077 164.7 499.077 160C499.077 155.2 500.827 151.25 504.327 148.15C507.827 144.95 512.477 143.35 518.277 143.35C523.977 143.35 528.577 144.95 532.077 148.15C535.577 151.25 537.327 155.2 537.327 160C537.327 164.7 535.577 168.6 532.077 171.7C528.577 174.8 523.977 176.35 518.277 176.35ZM534.777 183.1V267.7H501.477V183.1H534.777ZM590.016 268.75C581.516 268.75 573.866 267 567.066 263.5C560.266 260 554.916 255 551.016 248.5C547.216 241.9 545.316 234.2 545.316 225.4C545.316 216.6 547.216 208.95 551.016 202.45C554.916 195.85 560.266 190.8 567.066 187.3C573.866 183.8 581.516 182.05 590.016 182.05C598.516 182.05 606.166 183.8 612.966 187.3C619.766 190.8 625.066 195.85 628.866 202.45C632.766 208.95 634.716 216.6 634.716 225.4C634.716 234.2 632.766 241.9 628.866 248.5C625.066 255 619.766 260 612.966 263.5C606.166 267 598.516 268.75 590.016 268.75ZM590.016 239.95C593.116 239.95 595.716 238.75 597.816 236.35C599.916 233.85 600.966 230.2 600.966 225.4C600.966 220.6 599.916 217 597.816 214.6C595.716 212.1 593.116 210.85 590.016 210.85C586.916 210.85 584.316 212.1 582.216 214.6C580.116 217 579.066 220.6 579.066 225.4C579.066 230.2 580.066 233.85 582.066 236.35C584.166 238.75 586.816 239.95 590.016 239.95ZM682.828 268.75C674.828 268.75 667.728 267.45 661.528 264.85C655.428 262.25 650.578 258.65 646.978 254.05C643.378 249.45 641.328 244.25 640.828 238.45H672.778C673.178 240.95 674.228 242.8 675.928 244C677.728 245.2 679.978 245.8 682.678 245.8C684.378 245.8 685.728 245.45 686.728 244.75C687.728 243.95 688.228 243 688.228 241.9C688.228 240 687.178 238.65 685.078 237.85C682.978 237.05 679.428 236.15 674.428 235.15C668.328 233.95 663.278 232.65 659.278 231.25C655.378 229.85 651.928 227.45 648.928 224.05C646.028 220.65 644.578 215.95 644.578 209.95C644.578 204.75 645.928 200.05 648.628 195.85C651.428 191.55 655.528 188.2 660.928 185.8C666.328 183.3 672.878 182.05 680.578 182.05C691.978 182.05 700.878 184.85 707.278 190.45C713.778 196.05 717.678 203.35 718.978 212.35H689.428C688.928 210.05 687.878 208.3 686.278 207.1C684.678 205.8 682.528 205.15 679.828 205.15C678.128 205.15 676.828 205.5 675.928 206.2C675.028 206.8 674.578 207.75 674.578 209.05C674.578 210.75 675.628 212.05 677.728 212.95C679.828 213.75 683.178 214.6 687.778 215.5C693.878 216.7 699.028 218.05 703.228 219.55C707.428 221.05 711.078 223.65 714.178 227.35C717.278 230.95 718.828 235.95 718.828 242.35C718.828 247.35 717.378 251.85 714.478 255.85C711.578 259.85 707.378 263 701.878 265.3C696.478 267.6 690.128 268.75 682.828 268.75Z"/>
</mask>
<path d="M111.139 107.7V109.2H112.639V107.7H111.139ZM77.8391 107.7L76.5872 108.526L77.0319 109.2H77.8391V107.7ZM42.5891 54.2999L43.8409 53.4736L41.0891 49.3048V54.2999H42.5891ZM42.5891 107.7V109.2H44.0891V107.7H42.5891ZM9.28906 107.7H7.78906V109.2H9.28906V107.7ZM9.28906 1.49995V-4.57764e-05H7.78906V1.49995H9.28906ZM42.5891 1.49995L43.8472 0.683205L43.4037 -4.57764e-05H42.5891V1.49995ZM77.8391 55.7999L76.5809 56.6167L79.3391 60.8654V55.7999H77.8391ZM77.8391 1.49995V-4.57764e-05H76.3391V1.49995H77.8391ZM111.139 1.49995H112.639V-4.57764e-05H111.139V1.49995ZM111.139 107.7V106.2H77.8391V107.7V109.2H111.139V107.7ZM77.8391 107.7L79.0909 106.874L43.8409 53.4736L42.5891 54.2999L41.3372 55.1263L76.5872 108.526L77.8391 107.7ZM42.5891 54.2999H41.0891V107.7H42.5891H44.0891V54.2999H42.5891ZM42.5891 107.7V106.2H9.28906V107.7V109.2H42.5891V107.7ZM9.28906 107.7H10.7891V1.49995H9.28906H7.78906V107.7H9.28906ZM9.28906 1.49995V2.99995H42.5891V1.49995V-4.57764e-05H9.28906V1.49995ZM42.5891 1.49995L41.3309 2.3167L76.5809 56.6167L77.8391 55.7999L79.0972 54.9832L43.8472 0.683205L42.5891 1.49995ZM77.8391 55.7999H79.3391V1.49995H77.8391H76.3391V55.7999H77.8391ZM77.8391 1.49995V2.99995H111.139V1.49995V-4.57764e-05H77.8391V1.49995ZM111.139 1.49995H109.639V107.7H111.139H112.639V1.49995H111.139ZM215.734 23.1H217.234V21.6H215.734V23.1ZM215.734 107.7V109.2H217.234V107.7H215.734ZM182.434 107.7H180.934V109.2H182.434V107.7ZM182.434 94.7999H183.934V89.7399L181.176 93.9825L182.434 94.7999ZM171.934 104.55L171.193 103.246L171.186 103.249L171.18 103.253L171.934 104.55ZM133.684 98.5499L132.53 99.5085L132.539 99.5189L133.684 98.5499ZM125.584 23.1V21.6H124.084V23.1H125.584ZM158.734 23.1H160.234V21.6H158.734V23.1ZM161.884 77.5499L160.755 78.5377L160.777 78.5627L160.8 78.5868L161.884 77.5499ZM179.284 77.5499L180.391 78.5614L180.402 78.5496L180.412 78.5377L179.284 77.5499ZM182.434 23.1V21.6H180.934V23.1H182.434ZM215.734 23.1H214.234V107.7H215.734H217.234V23.1H215.734ZM215.734 107.7V106.2H182.434V107.7V109.2H215.734V107.7ZM182.434 107.7H183.934V94.7999H182.434H180.934V107.7H182.434ZM182.434 94.7999L181.176 93.9825C178.715 97.769 175.397 100.857 171.193 103.246L171.934 104.55L172.675 105.854C177.27 103.243 180.953 99.8309 183.691 95.6174L182.434 94.7999ZM171.934 104.55L171.18 103.253C167.152 105.595 162.273 106.8 156.484 106.8V108.3V109.8C162.694 109.8 168.116 108.505 172.688 105.847L171.934 104.55ZM156.484 108.3V106.8C147.156 106.8 140.002 103.695 134.829 97.581L133.684 98.5499L132.539 99.5189C138.365 106.405 146.411 109.8 156.484 109.8V108.3ZM133.684 98.5499L134.837 97.5914C129.723 91.4353 127.084 83.0108 127.084 72.1499H125.584H124.084C124.084 83.4891 126.844 92.6646 132.53 99.5085L133.684 98.5499ZM125.584 72.1499H127.084V23.1H125.584H124.084V72.1499H125.584ZM125.584 23.1V24.6H158.734V23.1V21.6H125.584V23.1ZM158.734 23.1H157.234V67.95H158.734H160.234V23.1H158.734ZM158.734 67.95H157.234C157.234 72.2177 158.359 75.8 160.755 78.5377L161.884 77.5499L163.012 76.5622C161.208 74.4999 160.234 71.6822 160.234 67.95H158.734ZM161.884 77.5499L160.8 78.5868C163.321 81.2226 166.633 82.5 170.584 82.5V81V79.5C167.334 79.5 164.846 78.4772 162.968 76.5131L161.884 77.5499ZM170.584 81V82.5C174.619 82.5 177.954 81.2311 180.391 78.5614L179.284 77.5499L178.176 76.5385C176.413 78.4688 173.948 79.5 170.584 79.5V81ZM179.284 77.5499L180.412 78.5377C182.808 75.8 183.934 72.2177 183.934 67.95H182.434H180.934C180.934 71.6822 179.959 74.4999 178.155 76.5622L179.284 77.5499ZM182.434 67.95H183.934V23.1H182.434H180.934V67.95H182.434ZM182.434 23.1V24.6H215.734V23.1V21.6H182.434V23.1ZM312.223 71.25V72.75H313.524L313.708 71.4621L312.223 71.25ZM258.673 71.25V69.75H257.067L257.177 71.3524L258.673 71.25ZM275.623 77.25V75.75H274.684L274.274 76.5955L275.623 77.25ZM310.873 77.25L312.344 77.5441L312.703 75.75H310.873V77.25ZM303.223 93.45L302.059 92.5041L302.057 92.5069L303.223 93.45ZM288.673 104.7L289.307 106.06L289.317 106.055L288.673 104.7ZM246.973 103.5L246.262 104.821L246.271 104.825L246.973 103.5ZM231.673 88.5L230.357 89.2182L230.363 89.2302L230.37 89.242L231.673 88.5ZM231.673 42.4499L230.365 41.7164L230.361 41.7232L231.673 42.4499ZM246.973 27.2999L246.271 25.9747L246.262 25.9792L246.973 27.2999ZM291.823 27.2999L291.112 28.6207L291.124 28.6271L291.137 28.6334L291.823 27.2999ZM307.123 41.9999L305.816 42.7353L305.82 42.743L305.825 42.7507L307.123 41.9999ZM278.923 56.7V58.2H280.423V56.7H278.923ZM276.223 50.3999L275.263 51.5523L275.283 51.5685L275.303 51.584L276.223 50.3999ZM259.123 56.7L257.646 56.4408L257.337 58.2H259.123V56.7ZM312.673 64.6499H311.173C311.173 66.8848 311.028 69.0137 310.739 71.0378L312.223 71.25L313.708 71.4621C314.019 69.2862 314.173 67.0151 314.173 64.6499H312.673ZM312.223 71.25V69.75H258.673V71.25V72.75H312.223V71.25ZM258.673 71.25L257.177 71.3524C257.438 75.1588 258.374 78.2574 260.185 80.4243C262.047 82.6522 264.666 83.7 267.823 83.7V82.2V80.7C265.38 80.7 263.675 79.9227 262.487 78.5006C261.248 77.0175 260.409 74.6411 260.17 71.1474L258.673 71.25ZM267.823 82.2V83.7C269.859 83.7 271.699 83.2307 273.277 82.2289C274.854 81.2282 276.075 79.7568 276.973 77.9044L275.623 77.25L274.274 76.5955C273.572 78.0431 272.693 79.0467 271.67 79.696C270.648 80.3442 269.388 80.7 267.823 80.7V82.2ZM275.623 77.25V78.75H310.873V77.25V75.75H275.623V77.25ZM310.873 77.25L309.403 76.9558C308.251 82.7142 305.807 87.891 302.059 92.5041L303.223 93.45L304.388 94.3958C308.44 89.4089 311.096 83.7857 312.344 77.5441L310.873 77.25ZM303.223 93.45L302.057 92.5069C298.409 97.0182 293.744 100.633 288.03 103.345L288.673 104.7L289.317 106.055C295.403 103.167 300.437 99.2817 304.39 94.393L303.223 93.45ZM288.673 104.7L288.04 103.34C282.457 105.939 276.276 107.25 269.473 107.25V108.75V110.25C276.671 110.25 283.29 108.861 289.306 106.06L288.673 104.7ZM269.473 108.75V107.25C261.288 107.25 254.034 105.546 247.676 102.175L246.973 103.5L246.271 104.825C253.113 108.454 260.859 110.25 269.473 110.25V108.75ZM246.973 103.5L247.685 102.179C241.436 98.8146 236.54 94.0166 232.977 87.7579L231.673 88.5L230.37 89.242C234.207 95.9833 239.511 101.185 246.262 104.821L246.973 103.5ZM231.673 88.5L232.99 87.7817C229.529 81.4369 227.773 73.9919 227.773 65.3999H226.273H224.773C224.773 74.408 226.617 82.363 230.357 89.2182L231.673 88.5ZM226.273 65.3999H227.773C227.773 56.8073 229.53 49.4165 232.986 43.1767L231.673 42.4499L230.361 41.7232C226.617 48.4834 224.773 56.3926 224.773 65.3999H226.273ZM231.673 42.4499L232.982 43.1835C236.546 36.8254 241.442 31.9821 247.685 28.6207L246.973 27.2999L246.262 25.9792C239.505 29.6178 234.201 34.8745 230.365 41.7164L231.673 42.4499ZM246.973 27.2999L247.676 28.6251C254.034 25.2536 261.288 23.5499 269.473 23.5499V22.0499V20.5499C260.859 20.5499 253.113 22.3463 246.271 25.9748L246.973 27.2999ZM269.473 22.0499V23.5499C277.66 23.5499 284.859 25.2537 291.112 28.6207L291.823 27.2999L292.535 25.9792C285.787 22.3462 278.087 20.5499 269.473 20.5499V22.0499ZM291.823 27.2999L291.137 28.6334C297.479 31.9006 302.362 36.5941 305.816 42.7353L307.123 41.9999L308.431 41.2646C304.685 34.6058 299.368 29.4993 292.51 25.9665L291.823 27.2999ZM307.123 41.9999L305.825 42.7507C309.371 48.885 311.173 56.1666 311.173 64.6499H312.673H314.173C314.173 55.7333 312.276 47.9149 308.422 41.2492L307.123 41.9999ZM278.923 56.7H280.423C280.423 53.554 279.393 50.9649 277.144 49.2159L276.223 50.3999L275.303 51.584C276.654 52.635 277.423 54.2459 277.423 56.7H278.923ZM276.223 50.3999L277.184 49.2476C275.074 47.4893 272.468 46.6499 269.473 46.6499V48.1499V49.6499C271.879 49.6499 273.773 50.3106 275.263 51.5523L276.223 50.3999ZM269.473 48.1499V46.6499C266.287 46.6499 263.575 47.4217 261.506 49.131C259.433 50.8433 258.189 53.3443 257.646 56.4408L259.123 56.7L260.601 56.9592C261.058 54.3556 262.039 52.5816 263.416 51.4439C264.797 50.3032 266.76 49.6499 269.473 49.6499V48.1499ZM259.123 56.7V58.2H278.923V56.7V55.2H259.123V56.7ZM339.555 104.85L338.967 106.23L338.975 106.233L339.555 104.85ZM318.855 78.45V76.95H317.22L317.361 78.5788L318.855 78.45ZM350.805 78.45L352.286 78.213L352.084 76.95H350.805V78.45ZM353.955 84L353.09 85.2254L353.106 85.2369L353.123 85.248L353.955 84ZM364.755 84.7499L365.615 85.9788L365.655 85.9513L365.692 85.9212L364.755 84.7499ZM352.455 75.1499L352.749 73.6791L352.745 73.6782L352.455 75.1499ZM337.305 71.25L336.798 72.6618L336.81 72.6657L337.305 71.25ZM326.955 64.0499L325.814 65.0234L325.822 65.0329L325.83 65.0424L326.955 64.0499ZM326.655 35.8499L325.398 35.0314L325.393 35.0388L326.655 35.8499ZM338.955 25.7999L339.564 27.1707L339.575 27.166L339.585 27.1611L338.955 25.7999ZM385.305 30.4499L384.317 31.5788L384.326 31.5864L385.305 30.4499ZM397.005 52.3499V53.8499H398.737L398.49 52.1355L397.005 52.3499ZM367.455 52.3499L365.989 52.6686L366.246 53.8499H367.455V52.3499ZM364.305 47.0999L363.359 48.2641L363.382 48.2825L363.405 48.2999L364.305 47.0999ZM353.955 46.1999L354.787 47.448L354.833 47.4176L354.876 47.384L353.955 46.1999ZM355.755 52.95L355.164 54.3287L355.192 54.3408L355.221 54.3517L355.755 52.95ZM365.805 55.4999L366.095 54.0282L366.093 54.0279L365.805 55.4999ZM381.255 59.5499L380.751 60.9626V60.9626L381.255 59.5499ZM392.205 67.3499L391.055 68.3133L391.062 68.321L391.068 68.3287L392.205 67.3499ZM392.505 95.85L393.719 96.7304V96.7304L392.505 95.85ZM379.905 105.3L379.326 103.916L379.317 103.92L379.905 105.3ZM360.855 108.75V107.25C353.017 107.25 346.12 105.976 340.135 103.467L339.555 104.85L338.975 106.233C345.39 108.923 352.693 110.25 360.855 110.25V108.75ZM339.555 104.85L340.143 103.47C334.244 100.956 329.61 97.5004 326.186 93.1255L325.005 94.0499L323.824 94.9744C327.6 99.7995 332.666 103.544 338.967 106.23L339.555 104.85ZM325.005 94.0499L326.186 93.1255C322.765 88.7539 320.824 83.8301 320.35 78.3211L318.855 78.45L317.361 78.5788C317.886 84.6698 320.045 90.146 323.824 94.9744L325.005 94.0499ZM318.855 78.45V79.95H350.805V78.45V76.95H318.855V78.45ZM350.805 78.45L349.324 78.6869C349.773 81.4935 350.991 83.7434 353.09 85.2254L353.955 84L354.82 82.7745C353.52 81.8565 352.637 80.4064 352.286 78.213L350.805 78.45ZM353.955 84L353.123 85.248C355.224 86.6489 357.783 87.2999 360.705 87.2999V85.7999V84.2999C358.228 84.2999 356.286 83.751 354.787 82.7519L353.955 84ZM360.705 85.7999V87.2999C362.596 87.2999 364.282 86.9123 365.615 85.9788L364.755 84.7499L363.895 83.5211C363.228 83.9876 362.215 84.2999 360.705 84.2999V85.7999ZM364.755 84.7499L365.692 85.9212C366.982 84.889 367.755 83.5334 367.755 81.8999H366.255H364.755C364.755 82.4665 364.528 83.0109 363.818 83.5786L364.755 84.7499ZM366.255 81.8999H367.755C367.755 80.6555 367.404 79.5091 366.652 78.5415C365.913 77.5918 364.867 76.916 363.639 76.4482L363.105 77.8499L362.571 79.2517C363.443 79.5839 363.972 79.9831 364.284 80.3834C364.581 80.7658 364.755 81.2444 364.755 81.8999H366.255ZM363.105 77.8499L363.639 76.4482C361.412 75.5999 357.755 74.6802 352.749 73.6791L352.455 75.1499L352.161 76.6208C357.155 77.6197 360.598 78.5 362.571 79.2517L363.105 77.8499ZM352.455 75.1499L352.745 73.6782C346.685 72.4862 341.71 71.2025 337.801 69.8342L337.305 71.25L336.81 72.6657C340.9 74.0974 346.025 75.4137 352.166 76.6217L352.455 75.1499ZM337.305 71.25L337.812 69.8382C334.172 68.5315 330.929 66.2862 328.08 63.0575L326.955 64.0499L325.83 65.0424C328.982 68.6137 332.638 71.1684 336.798 72.6617L337.305 71.25ZM326.955 64.0499L328.096 63.0765C325.497 60.0289 324.105 55.7162 324.105 49.95H322.605H321.105C321.105 56.1836 322.613 61.271 325.814 65.0234L326.955 64.0499ZM322.605 49.95H324.105C324.105 45.025 325.379 40.6088 327.917 36.6611L326.655 35.8499L325.393 35.0388C322.531 39.4911 321.105 44.4749 321.105 49.95H322.605ZM326.655 35.8499L327.912 36.6685C330.531 32.6464 334.388 29.4713 339.564 27.1707L338.955 25.7999L338.346 24.4292C332.722 26.9286 328.379 30.4535 325.398 35.0314L326.655 35.8499ZM338.955 25.7999L339.585 27.1611C344.739 24.7753 351.061 23.5499 358.605 23.5499V22.0499V20.5499C350.749 20.5499 343.971 21.8246 338.325 24.4388L338.955 25.7999ZM358.605 22.0499V23.5499C369.767 23.5499 378.272 26.2893 384.317 31.5788L385.305 30.4499L386.293 29.3211C379.538 23.4106 370.243 20.5499 358.605 20.5499V22.0499ZM385.305 30.4499L384.326 31.5864C390.534 36.9352 394.269 43.8993 395.521 52.5644L397.005 52.3499L398.49 52.1355C397.141 42.8006 393.076 35.1647 386.284 29.3135L385.305 30.4499ZM397.005 52.3499V50.8499H367.455V52.3499V53.8499H397.005V52.3499ZM367.455 52.3499L368.921 52.0313C368.359 49.4447 367.143 47.3534 365.205 45.8999L364.305 47.0999L363.405 48.2999C364.667 49.2465 365.552 50.6552 365.989 52.6686L367.455 52.3499ZM364.305 47.0999L365.251 45.9358C363.311 44.3592 360.792 43.6499 357.855 43.6499V45.1499V46.6499C360.318 46.6499 362.1 47.2407 363.359 48.2641L364.305 47.0999ZM357.855 45.1499V43.6499C355.978 43.6499 354.299 44.0322 353.034 45.0159L353.955 46.1999L354.876 47.384C355.411 46.9677 356.332 46.6499 357.855 46.6499V45.1499ZM353.955 46.1999L353.123 44.9519C351.717 45.8889 351.105 47.3647 351.105 49.0499H352.605H354.105C354.105 48.1352 354.393 47.711 354.787 47.448L353.955 46.1999ZM352.605 49.0499H351.105C351.105 50.2365 351.481 51.3206 352.226 52.2425C352.95 53.1395 353.968 53.816 355.164 54.3287L355.755 52.95L356.346 51.5712C355.442 51.1839 354.885 50.7604 354.559 50.3574C354.254 49.9793 354.105 49.5634 354.105 49.0499H352.605ZM355.755 52.95L355.221 54.3517C357.447 55.1998 360.903 56.0693 365.517 56.972L365.805 55.4999L366.093 54.0279C361.507 53.1306 358.263 52.3001 356.289 51.5482L355.755 52.95ZM365.805 55.4999L365.516 56.9717C371.569 58.1625 376.642 59.4952 380.751 60.9626L381.255 59.5499L381.76 58.1373C377.468 56.6047 372.242 55.2374 366.095 54.0282L365.805 55.4999ZM381.255 59.5499L380.751 60.9626C384.679 62.3655 388.112 64.8004 391.055 68.3133L392.205 67.3499L393.355 66.3866C390.098 62.4995 386.231 59.7344 381.76 58.1373L381.255 59.5499ZM392.205 67.3499L391.068 68.3287C393.863 71.5744 395.355 76.1836 395.355 82.3499H396.855H398.355C398.355 75.7163 396.747 70.3255 393.342 66.3712L392.205 67.3499ZM396.855 82.3499H395.355C395.355 87.0378 394.003 91.2288 391.291 94.9695L392.505 95.85L393.719 96.7304C396.807 92.4711 398.355 87.6621 398.355 82.3499H396.855ZM392.505 95.85L391.291 94.9695C388.583 98.7044 384.625 101.7 379.326 103.916L379.905 105.3L380.484 106.684C386.185 104.3 390.627 100.996 393.719 96.7304L392.505 95.85ZM379.905 105.3L379.317 103.92C374.143 106.124 368.001 107.25 360.855 107.25V108.75V110.25C368.309 110.25 374.868 109.076 380.493 106.68L379.905 105.3ZM462.72 79.3499H464.22V77.8499H462.72V79.3499ZM462.72 107.7V109.2H464.22V107.7H462.72ZM415.32 50.8499H416.82V49.3499H415.32V50.8499ZM404.82 50.8499H403.32V52.3499H404.82V50.8499ZM404.82 23.1V21.6H403.32V23.1H404.82ZM415.32 23.1V24.6H416.82V23.1H415.32ZM415.32 2.69994V1.19994H413.82V2.69994H415.32ZM448.62 2.69994H450.12V1.19994H448.62V2.69994ZM448.62 23.1H447.12V24.6H448.62V23.1ZM462.42 23.1H463.92V21.6H462.42V23.1ZM462.42 50.8499V52.3499H463.92V50.8499H462.42ZM448.62 50.8499V49.3499H447.12V50.8499H448.62ZM449.97 77.9999L448.91 79.0606L448.938 79.0885L448.967 79.1149L449.97 77.9999ZM462.72 79.3499H461.22V107.7H462.72H464.22V79.3499H462.72ZM462.72 107.7V106.2H450.12V107.7V109.2H462.72V107.7ZM450.12 107.7V106.2C438.75 106.2 430.498 103.37 425.079 97.9745C419.661 92.5798 416.82 84.3671 416.82 73.0499H415.32H413.82C413.82 84.8328 416.78 93.9451 422.962 100.1C429.143 106.255 438.291 109.2 450.12 109.2V107.7ZM415.32 73.0499H416.82V50.8499H415.32H413.82V73.0499H415.32ZM415.32 50.8499V49.3499H404.82V50.8499V52.3499H415.32V50.8499ZM404.82 50.8499H406.32V23.1H404.82H403.32V50.8499H404.82ZM404.82 23.1V24.6H415.32V23.1V21.6H404.82V23.1ZM415.32 23.1H416.82V2.69994H415.32H413.82V23.1H415.32ZM415.32 2.69994V4.19994H448.62V2.69994V1.19994H415.32V2.69994ZM448.62 2.69994H447.12V23.1H448.62H450.12V2.69994H448.62ZM448.62 23.1V24.6H462.42V23.1V21.6H448.62V23.1ZM462.42 23.1H460.92V50.8499H462.42H463.92V23.1H462.42ZM462.42 50.8499V49.3499H448.62V50.8499V52.3499H462.42V50.8499ZM448.62 50.8499H447.12V73.6499H448.62H450.12V50.8499H448.62ZM448.62 73.6499H447.12C447.12 75.8274 447.604 77.7546 448.91 79.0606L449.97 77.9999L451.031 76.9393C450.537 76.4453 450.12 75.4725 450.12 73.6499H448.62ZM449.97 77.9999L448.967 79.1149C450.371 80.3789 452.421 80.8499 454.77 80.8499V79.3499V77.8499C452.72 77.8499 451.569 77.421 450.974 76.885L449.97 77.9999ZM454.77 79.3499V80.8499H462.72V79.3499V77.8499H454.77V79.3499ZM508.702 38.7H507.202V43.4929L509.935 39.5551L508.702 38.7ZM521.152 26.9999L521.916 28.2908L521.926 28.2851L521.936 28.2792L521.152 26.9999ZM536.452 22.4999H537.952V20.9999H536.452V22.4999ZM536.452 58.0499V59.5499H537.952V58.0499H536.452ZM513.052 61.3499L512.165 60.1403L512.155 60.1476L512.146 60.1549L513.052 61.3499ZM508.702 107.7V109.2H510.202V107.7H508.702ZM475.402 107.7H473.902V109.2H475.402V107.7ZM475.402 23.1V21.6H473.902V23.1H475.402ZM508.702 23.1H510.202V21.6H508.702V23.1ZM508.702 38.7L509.935 39.5551C513.218 34.8237 517.211 31.0757 521.916 28.2908L521.152 26.9999L520.388 25.7091C515.294 28.7242 510.987 32.7762 507.47 37.8448L508.702 38.7ZM521.152 26.9999L521.936 28.2792C526.62 25.411 531.452 23.9999 536.452 23.9999V22.4999V20.9999C530.853 20.9999 525.484 22.5889 520.369 25.7207L521.152 26.9999ZM536.452 22.4999H534.952V58.0499H536.452H537.952V22.4999H536.452ZM536.452 58.0499V56.5499H527.002V58.0499V59.5499H536.452V58.0499ZM527.002 58.0499V56.5499C520.583 56.5499 515.547 57.6606 512.165 60.1403L513.052 61.3499L513.939 62.5596C516.558 60.6393 520.822 59.5499 527.002 59.5499V58.0499ZM513.052 61.3499L512.146 60.1549C508.705 62.7649 507.202 67.2394 507.202 73.0499H508.702H510.202C510.202 67.6605 511.599 64.335 513.959 62.545L513.052 61.3499ZM508.702 73.0499H507.202V107.7H508.702H510.202V73.0499H508.702ZM508.702 107.7V106.2H475.402V107.7V109.2H508.702V107.7ZM475.402 107.7H476.902V23.1H475.402H473.902V107.7H475.402ZM475.402 23.1V24.6H508.702V23.1V21.6H475.402V23.1ZM508.702 23.1H507.202V38.7H508.702H510.202V23.1H508.702ZM562.672 103.5L563.358 102.166L562.672 103.5ZM546.622 88.5L545.322 89.2484L545.329 89.2601L545.336 89.2717L546.622 88.5ZM546.622 42.4499L545.33 41.6868L545.327 41.6929L546.622 42.4499ZM562.672 27.2999L563.358 28.6337V28.6337L562.672 27.2999ZM608.572 27.2999L607.885 28.6337V28.6337L608.572 27.2999ZM624.472 42.4499L623.172 43.1984L623.179 43.2101L623.186 43.2217L624.472 42.4499ZM624.472 88.5L623.18 87.7368L623.177 87.7429L624.472 88.5ZM608.572 103.5L607.885 102.166V102.166L608.572 103.5ZM593.422 76.35L594.551 77.3377L594.561 77.3263L594.57 77.3147L593.422 76.35ZM593.422 54.6L592.273 55.5647L592.283 55.5763L592.293 55.5877L593.422 54.6ZM577.822 54.6L578.951 55.5877L578.961 55.5763L578.97 55.5647L577.822 54.6ZM577.672 76.35L576.501 77.287L576.521 77.3128L576.543 77.3377L577.672 76.35ZM585.622 108.75V107.25C577.334 107.25 569.923 105.545 563.358 102.166L562.672 103.5L561.985 104.834C569.021 108.455 576.91 110.25 585.622 110.25V108.75ZM562.672 103.5L563.358 102.166C556.804 98.7929 551.663 93.9865 547.908 87.7282L546.622 88.5L545.336 89.2717C549.381 96.0135 554.939 101.207 561.985 104.834L562.672 103.5ZM546.622 88.5L547.922 87.7515C544.272 81.4125 542.422 73.9786 542.422 65.3999H540.922H539.422C539.422 74.4213 541.372 82.3874 545.322 89.2484L546.622 88.5ZM540.922 65.3999H542.422C542.422 56.8207 544.272 49.4411 547.917 43.207L546.622 42.4499L545.327 41.6929C541.371 48.4588 539.422 56.3792 539.422 65.3999H540.922ZM546.622 42.4499L547.913 43.213C551.67 36.8558 556.81 32.0039 563.358 28.6337L562.672 27.2999L561.985 25.9662C554.933 29.596 549.374 34.8441 545.331 41.6869L546.622 42.4499ZM562.672 27.2999L563.358 28.6337C569.923 25.2547 577.334 23.5499 585.622 23.5499V22.0499V20.5499C576.91 20.5499 569.021 22.3452 561.985 25.9662L562.672 27.2999ZM585.622 22.0499V23.5499C593.91 23.5499 601.32 25.2547 607.885 28.6337L608.572 27.2999L609.258 25.9662C602.223 22.3452 594.334 20.5499 585.622 20.5499V22.0499ZM608.572 27.2999L607.885 28.6337C614.43 32.0022 619.517 36.8495 623.172 43.1984L624.472 42.4499L625.772 41.7015C621.827 34.8504 616.314 29.5977 609.258 25.9662L608.572 27.2999ZM624.472 42.4499L623.186 43.2217C626.925 49.4532 628.822 56.8274 628.822 65.3999H630.322H631.822C631.822 56.3725 629.819 48.4467 625.758 41.6782L624.472 42.4499ZM630.322 65.3999H628.822C628.822 73.9719 626.925 81.4004 623.18 87.7369L624.472 88.5L625.763 89.263C629.819 82.3995 631.822 74.428 631.822 65.3999H630.322ZM624.472 88.5L623.177 87.7429C619.523 93.9927 614.436 98.7946 607.885 102.166L608.572 103.5L609.258 104.834C616.308 101.205 621.821 96.0072 625.767 89.257L624.472 88.5ZM608.572 103.5L607.885 102.166C601.32 105.545 593.91 107.25 585.622 107.25V108.75V110.25C594.334 110.25 602.223 108.455 609.258 104.834L608.572 103.5ZM585.622 79.95V81.45C589.168 81.45 592.175 80.0525 594.551 77.3377L593.422 76.35L592.293 75.3622C590.469 77.4474 588.275 78.45 585.622 78.45V79.95ZM593.422 76.35L594.57 77.3147C596.983 74.4425 598.072 70.3917 598.072 65.3999H596.572H595.072C595.072 70.0082 594.061 73.2574 592.273 75.3852L593.422 76.35ZM596.572 65.3999H598.072C598.072 60.4143 596.986 56.3949 594.551 53.6122L593.422 54.6L592.293 55.5877C594.058 57.605 595.072 60.7856 595.072 65.3999H596.572ZM593.422 54.6L594.57 53.6352C592.203 50.8165 589.191 49.3499 585.622 49.3499V50.8499V52.3499C588.252 52.3499 590.441 53.3834 592.273 55.5647L593.422 54.6ZM585.622 50.8499V49.3499C582.052 49.3499 579.041 50.8165 576.673 53.6352L577.822 54.6L578.97 55.5647C580.803 53.3834 582.991 52.3499 585.622 52.3499V50.8499ZM577.822 54.6L576.693 53.6122C574.258 56.3949 573.172 60.4143 573.172 65.3999H574.672H576.172C576.172 60.7856 577.186 57.605 578.951 55.5877L577.822 54.6ZM574.672 65.3999H573.172C573.172 70.3776 574.204 74.4169 576.501 77.287L577.672 76.35L578.843 75.4129C577.139 73.283 576.172 70.0223 576.172 65.3999H574.672ZM577.672 76.35L576.543 77.3377C578.929 80.0645 581.991 81.45 585.622 81.45V79.95V78.45C582.853 78.45 580.615 77.4354 578.801 75.3622L577.672 76.35ZM657.133 104.85L656.545 106.23L656.553 106.233L657.133 104.85ZM636.433 78.45V76.95H634.798L634.939 78.5788L636.433 78.45ZM668.383 78.45L669.864 78.213L669.662 76.95H668.383V78.45ZM671.533 84L670.668 85.2254L670.685 85.2369L670.701 85.248L671.533 84ZM682.333 84.7499L683.193 85.9788L683.233 85.9513L683.27 85.9212L682.333 84.7499ZM670.033 75.1499L670.327 73.6791L670.323 73.6782L670.033 75.1499ZM654.883 71.25L654.376 72.6618L654.388 72.6657L654.883 71.25ZM644.533 64.0499L643.392 65.0234L643.4 65.0329L643.408 65.0424L644.533 64.0499ZM644.233 35.8499L642.976 35.0314L642.971 35.0388L644.233 35.8499ZM656.533 25.7999L657.142 27.1707L657.153 27.166L657.163 27.1611L656.533 25.7999ZM702.883 30.4499L701.895 31.5788L701.904 31.5864L702.883 30.4499ZM714.583 52.3499V53.8499H716.315L716.068 52.1355L714.583 52.3499ZM685.033 52.3499L683.567 52.6686L683.824 53.8499H685.033V52.3499ZM681.883 47.0999L680.937 48.2641L680.96 48.2825L680.983 48.2999L681.883 47.0999ZM671.533 46.1999L672.365 47.448L672.411 47.4176L672.454 47.384L671.533 46.1999ZM673.333 52.95L672.742 54.3287L672.771 54.3408L672.799 54.3517L673.333 52.95ZM683.383 55.4999L683.673 54.0282L683.671 54.0279L683.383 55.4999ZM698.833 59.5499L698.329 60.9626V60.9626L698.833 59.5499ZM709.783 67.3499L708.633 68.3133L708.64 68.321L708.647 68.3287L709.783 67.3499ZM710.083 95.85L711.298 96.7304V96.7304L710.083 95.85ZM697.483 105.3L696.904 103.916L696.895 103.92L697.483 105.3ZM678.433 108.75V107.25C670.595 107.25 663.698 105.976 657.713 103.467L657.133 104.85L656.553 106.233C662.968 108.923 670.271 110.25 678.433 110.25V108.75ZM657.133 104.85L657.721 103.47C651.822 100.956 647.188 97.5004 643.764 93.1255L642.583 94.0499L641.402 94.9744C645.178 99.7995 650.244 103.544 656.545 106.23L657.133 104.85ZM642.583 94.0499L643.764 93.1255C640.343 88.7539 638.403 83.8301 637.928 78.3211L636.433 78.45L634.939 78.5788C635.464 84.6698 637.623 90.146 641.402 94.9744L642.583 94.0499ZM636.433 78.45V79.95H668.383V78.45V76.95H636.433V78.45ZM668.383 78.45L666.902 78.6869C667.351 81.4935 668.569 83.7434 670.668 85.2254L671.533 84L672.398 82.7745C671.098 81.8565 670.215 80.4064 669.864 78.213L668.383 78.45ZM671.533 84L670.701 85.248C672.802 86.6489 675.361 87.2999 678.283 87.2999V85.7999V84.2999C675.806 84.2999 673.864 83.751 672.365 82.7519L671.533 84ZM678.283 85.7999V87.2999C680.174 87.2999 681.86 86.9123 683.193 85.9788L682.333 84.7499L681.473 83.5211C680.807 83.9876 679.793 84.2999 678.283 84.2999V85.7999ZM682.333 84.7499L683.27 85.9212C684.561 84.889 685.333 83.5334 685.333 81.8999H683.833H682.333C682.333 82.4665 682.106 83.0109 681.396 83.5786L682.333 84.7499ZM683.833 81.8999H685.333C685.333 80.6555 684.982 79.5091 684.23 78.5415C683.491 77.5918 682.445 76.916 681.217 76.4482L680.683 77.8499L680.149 79.2517C681.021 79.5839 681.55 79.9831 681.862 80.3834C682.159 80.7658 682.333 81.2444 682.333 81.8999H683.833ZM680.683 77.8499L681.217 76.4482C678.99 75.5999 675.333 74.6802 670.327 73.6791L670.033 75.1499L669.739 76.6208C674.733 77.6197 678.176 78.5 680.149 79.2517L680.683 77.8499ZM670.033 75.1499L670.323 73.6782C664.264 72.4862 659.288 71.2025 655.379 69.8342L654.883 71.25L654.388 72.6657C658.478 74.0974 663.603 75.4137 669.744 76.6217L670.033 75.1499ZM654.883 71.25L655.39 69.8382C651.75 68.5315 648.507 66.2862 645.658 63.0575L644.533 64.0499L643.408 65.0424C646.56 68.6137 650.216 71.1684 654.376 72.6617L654.883 71.25ZM644.533 64.0499L645.674 63.0765C643.075 60.0289 641.683 55.7162 641.683 49.95H640.183H638.683C638.683 56.1836 640.191 61.271 643.392 65.0234L644.533 64.0499ZM640.183 49.95H641.683C641.683 45.025 642.957 40.6088 645.495 36.6611L644.233 35.8499L642.971 35.0388C640.109 39.4911 638.683 44.4749 638.683 49.95H640.183ZM644.233 35.8499L645.49 36.6685C648.109 32.6464 651.966 29.4713 657.142 27.1707L656.533 25.7999L655.924 24.4292C650.3 26.9286 645.957 30.4535 642.976 35.0314L644.233 35.8499ZM656.533 25.7999L657.163 27.1611C662.317 24.7753 668.639 23.5499 676.183 23.5499V22.0499V20.5499C668.327 20.5499 661.55 21.8246 655.903 24.4388L656.533 25.7999ZM676.183 22.0499V23.5499C687.345 23.5499 695.85 26.2893 701.895 31.5788L702.883 30.4499L703.871 29.3211C697.116 23.4106 687.821 20.5499 676.183 20.5499V22.0499ZM702.883 30.4499L701.904 31.5864C708.113 36.9352 711.847 43.8993 713.099 52.5644L714.583 52.3499L716.068 52.1355C714.719 42.8006 710.654 35.1647 703.862 29.3135L702.883 30.4499ZM714.583 52.3499V50.8499H685.033V52.3499V53.8499H714.583V52.3499ZM685.033 52.3499L686.499 52.0313C685.937 49.4447 684.721 47.3534 682.783 45.8999L681.883 47.0999L680.983 48.2999C682.245 49.2465 683.13 50.6552 683.567 52.6686L685.033 52.3499ZM681.883 47.0999L682.829 45.9358C680.889 44.3592 678.37 43.6499 675.433 43.6499V45.1499V46.6499C677.896 46.6499 679.678 47.2407 680.937 48.2641L681.883 47.0999ZM675.433 45.1499V43.6499C673.556 43.6499 671.877 44.0322 670.612 45.0159L671.533 46.1999L672.454 47.384C672.989 46.9677 673.91 46.6499 675.433 46.6499V45.1499ZM671.533 46.1999L670.701 44.9519C669.296 45.8889 668.683 47.3647 668.683 49.0499H670.183H671.683C671.683 48.1352 671.971 47.711 672.365 47.448L671.533 46.1999ZM670.183 49.0499H668.683C668.683 50.2365 669.059 51.3206 669.804 52.2425C670.528 53.1395 671.546 53.816 672.742 54.3287L673.333 52.95L673.924 51.5712C673.02 51.1839 672.463 50.7604 672.138 50.3574C671.832 49.9793 671.683 49.5634 671.683 49.0499H670.183ZM673.333 52.95L672.799 54.3517C675.026 55.1998 678.481 56.0693 683.095 56.972L683.383 55.4999L683.671 54.0279C679.085 53.1306 675.841 52.3001 673.867 51.5482L673.333 52.95ZM683.383 55.4999L683.094 56.9717C689.147 58.1625 694.22 59.4952 698.329 60.9626L698.833 59.5499L699.338 58.1373C695.046 56.6047 689.82 55.2374 683.673 54.0282L683.383 55.4999ZM698.833 59.5499L698.329 60.9626C702.257 62.3655 705.69 64.8004 708.633 68.3133L709.783 67.3499L710.933 66.3866C707.676 62.4995 703.809 59.7344 699.338 58.1373L698.833 59.5499ZM709.783 67.3499L708.647 68.3287C711.441 71.5744 712.933 76.1836 712.933 82.3499H714.433H715.933C715.933 75.7163 714.325 70.3255 710.92 66.3712L709.783 67.3499ZM714.433 82.3499H712.933C712.933 87.0378 711.581 91.2288 708.869 94.9695L710.083 95.85L711.298 96.7304C714.386 92.4711 715.933 87.6621 715.933 82.3499H714.433ZM710.083 95.85L708.869 94.9695C706.161 98.7044 702.203 101.7 696.904 103.916L697.483 105.3L698.062 106.684C703.763 104.3 708.205 100.996 711.298 96.7304L710.083 95.85ZM697.483 105.3L696.895 103.92C691.721 106.124 685.579 107.25 678.433 107.25V108.75V110.25C685.888 110.25 692.446 109.076 698.071 106.68L697.483 105.3ZM14.9445 259.9L14.0588 261.111L14.0671 261.117L14.0755 261.123L14.9445 259.9ZM1.59453 233.65V232.15H0.000450134L0.0973053 233.741L1.59453 233.65ZM36.9945 233.65L38.4895 233.527L38.3766 232.15H36.9945V233.65ZM49.5945 241.6L50.4266 242.848L50.4375 242.841L50.4483 242.833L49.5945 241.6ZM47.4945 231.55L46.7298 232.84L46.7478 232.851L46.7661 232.861L47.4945 231.55ZM34.8945 226.15L34.3953 227.564L34.3979 227.565L34.8945 226.15ZM17.9445 219.1L17.2496 220.429L17.2619 220.436L17.9445 219.1ZM6.54453 209.05L7.75764 208.168V208.168L6.54453 209.05ZM1.89453 192.1L3.39437 192.122L3.39453 192.111V192.1H1.89453ZM7.14453 174.55L5.9357 173.662L5.93252 173.666L7.14453 174.55ZM21.6945 163.45L21.1336 162.059L21.1257 162.062L21.6945 163.45ZM73.4445 168.7L72.515 169.877L72.5226 169.883L73.4445 168.7ZM85.5945 194.05V195.55H87.1506L87.0935 193.995L85.5945 194.05ZM49.7445 194.05L48.2454 194.1L48.2937 195.55H49.7445V194.05ZM38.9445 187.15L40.0052 188.211L40.0331 188.183L40.0595 188.153L38.9445 187.15ZM41.4945 197.05L40.7084 198.327L40.7368 198.345L40.7661 198.361L41.4945 197.05ZM54.2445 202.6L53.7125 204.002L53.7202 204.005L54.2445 202.6ZM70.7445 209.8L70.037 211.123L70.0433 211.126L70.0497 211.129L70.7445 209.8ZM82.1445 219.4L80.9621 220.323V220.323L82.1445 219.4ZM82.1445 252.4L83.4152 253.197L83.422 253.186L82.1445 252.4ZM68.1945 264.4L67.5505 263.045L68.1945 264.4ZM46.4445 268.75V267.25C33.9783 267.25 23.803 264.357 15.8136 258.677L14.9445 259.9L14.0755 261.123C22.6861 267.243 33.5108 270.25 46.4445 270.25V268.75ZM14.9445 259.9L15.8303 258.689C8.04141 252.99 3.76872 244.68 3.09176 233.559L1.59453 233.65L0.0973053 233.741C0.820343 245.62 5.44765 254.81 14.0588 261.111L14.9445 259.9ZM1.59453 233.65V235.15H36.9945V233.65V232.15H1.59453V233.65ZM36.9945 233.65L35.4995 233.772C35.7634 236.991 36.6226 239.644 38.2714 241.507C39.9636 243.418 42.3101 244.3 45.0945 244.3V242.8V241.3C42.979 241.3 41.5255 240.657 40.5177 239.518C39.4664 238.331 38.7257 236.409 38.4895 233.527L36.9945 233.65ZM45.0945 242.8V244.3C47.117 244.3 48.9253 243.849 50.4266 242.848L49.5945 241.6L48.7625 240.352C47.8637 240.951 46.672 241.3 45.0945 241.3V242.8ZM49.5945 241.6L50.4483 242.833C52.2139 241.611 53.0445 239.763 53.0445 237.55H51.5445H50.0445C50.0445 238.937 49.5751 239.789 48.7407 240.367L49.5945 241.6ZM51.5445 237.55H53.0445C53.0445 234.369 51.2671 231.93 48.223 230.239L47.4945 231.55L46.7661 232.861C49.122 234.17 50.0445 235.731 50.0445 237.55H51.5445ZM47.4945 231.55L48.2592 230.26C45.4286 228.582 41.1157 226.743 35.3912 224.735L34.8945 226.15L34.3979 227.565C40.0734 229.557 44.1604 231.318 46.7298 232.84L47.4945 231.55ZM34.8945 226.15L35.3938 224.735C28.6325 222.349 23.0488 220.024 18.6272 217.764L17.9445 219.1L17.2619 220.436C21.8403 222.776 27.5566 225.151 34.3953 227.564L34.8945 226.15ZM17.9445 219.1L18.6394 217.771C14.4634 215.588 10.8349 212.399 7.75764 208.168L6.54453 209.05L5.33143 209.932C8.65417 214.501 12.6257 218.012 17.2496 220.429L17.9445 219.1ZM6.54453 209.05L7.75764 208.168C4.79442 204.093 3.2978 198.785 3.39437 192.122L1.89453 192.1L0.394691 192.078C0.29126 199.215 1.89464 205.207 5.33143 209.932L6.54453 209.05ZM1.89453 192.1H3.39453C3.39453 185.464 5.07273 179.937 8.35654 175.434L7.14453 174.55L5.93252 173.666C2.21633 178.763 0.394531 184.935 0.394531 192.1H1.89453ZM7.14453 174.55L8.35336 175.438C11.7763 170.779 16.3963 167.242 22.2634 164.838L21.6945 163.45L21.1257 162.062C14.7928 164.657 9.71272 168.521 5.93571 173.662L7.14453 174.55ZM21.6945 163.45L22.2555 164.841C28.2523 162.423 35.0079 161.2 42.5445 161.2V159.7V158.2C34.6812 158.2 27.5368 159.477 21.1336 162.059L21.6945 163.45ZM42.5445 159.7V161.2C55.3224 161.2 65.2579 164.148 72.5151 169.877L73.4445 168.7L74.374 167.523C66.4312 161.252 55.7666 158.2 42.5445 158.2V159.7ZM73.4445 168.7L72.5226 169.883C79.8293 175.577 83.7097 183.589 84.0956 194.105L85.5945 194.05L87.0935 193.995C86.6794 182.711 82.4597 173.823 74.3665 167.517L73.4445 168.7ZM85.5945 194.05V192.55H49.7445V194.05V195.55H85.5945V194.05ZM49.7445 194.05L51.2437 194C51.1378 190.822 50.3382 188.193 48.5152 186.501L47.4945 187.6L46.4739 188.699C47.4509 189.606 48.1513 191.278 48.2454 194.1L49.7445 194.05ZM47.4945 187.6L48.5152 186.501C46.8238 184.93 44.7536 184.15 42.3945 184.15V185.65V187.15C44.0354 187.15 45.3653 187.67 46.4739 188.699L47.4945 187.6ZM42.3945 185.65V184.15C40.5889 184.15 39.0269 184.816 37.8296 186.147L38.9445 187.15L40.0595 188.153C40.6622 187.484 41.4002 187.15 42.3945 187.15V185.65ZM38.9445 187.15L37.8839 186.089C36.6181 187.355 36.0945 189.09 36.0945 191.05H37.5945H39.0945C39.0945 189.61 39.4709 188.745 40.0052 188.211L38.9445 187.15ZM37.5945 191.05H36.0945C36.0945 194.115 37.8028 196.539 40.7084 198.327L41.4945 197.05L42.2807 195.772C39.9863 194.361 39.0945 192.785 39.0945 191.05H37.5945ZM41.4945 197.05L40.7661 198.361C43.5647 199.916 47.8981 201.797 53.7126 204.002L54.2445 202.6L54.7765 201.197C48.991 199.003 44.8244 197.184 42.223 195.739L41.4945 197.05ZM54.2445 202.6L53.7202 204.005C60.3834 206.492 65.8165 208.865 70.037 211.123L70.7445 209.8L71.452 208.477C67.0726 206.135 61.5056 203.708 54.7689 201.195L54.2445 202.6ZM70.7445 209.8L70.0497 211.129C74.251 213.325 77.8873 216.383 80.9621 220.323L82.1445 219.4L83.327 218.477C80.0017 214.217 76.0381 210.874 71.4394 208.471L70.7445 209.8ZM82.1445 219.4L80.9621 220.323C83.9188 224.111 85.4445 228.918 85.4445 234.85H86.9445H88.4445C88.4445 228.382 86.7703 222.889 83.327 218.477L82.1445 219.4ZM86.9445 234.85H85.4445C85.4445 241.091 83.9121 246.666 80.867 251.614L82.1445 252.4L83.422 253.186C86.777 247.734 88.4445 241.609 88.4445 234.85H86.9445ZM82.1445 252.4L80.8739 251.603C77.8435 256.432 73.4252 260.252 67.5505 263.045L68.1945 264.4L68.8386 265.755C75.1638 262.748 80.0456 258.567 83.4151 253.197L82.1445 252.4ZM68.1945 264.4L67.5505 263.045C61.6946 265.829 54.6747 267.25 46.4445 267.25V268.75V270.25C55.0144 270.25 62.4945 268.771 68.8386 265.755L68.1945 264.4ZM180.095 231.25V232.75H181.395L181.579 231.462L180.095 231.25ZM126.545 231.25V229.75H124.938L125.048 231.352L126.545 231.25ZM143.495 237.25V235.75H142.555L142.145 236.596L143.495 237.25ZM178.745 237.25L180.215 237.544L180.574 235.75H178.745V237.25ZM171.095 253.45L169.93 252.504L169.928 252.507L171.095 253.45ZM156.545 264.7L157.178 266.06L157.188 266.055L156.545 264.7ZM114.845 263.5L114.133 264.821L114.142 264.825L114.845 263.5ZM99.5445 248.5L98.2277 249.218L98.2342 249.23L98.2409 249.242L99.5445 248.5ZM99.5445 202.45L98.2361 201.716L98.2323 201.723L99.5445 202.45ZM114.845 187.3L114.142 185.975L114.133 185.979L114.845 187.3ZM159.695 187.3L158.983 188.621L158.995 188.627L159.008 188.633L159.695 187.3ZM174.995 202L173.687 202.735L173.691 202.743L173.696 202.751L174.995 202ZM146.795 216.7V218.2H148.295V216.7H146.795ZM144.095 210.4L143.134 211.552L143.154 211.568L143.174 211.584L144.095 210.4ZM126.995 216.7L125.517 216.441L125.208 218.2H126.995V216.7ZM180.545 224.65H179.045C179.045 226.885 178.899 229.014 178.61 231.038L180.095 231.25L181.579 231.462C181.89 229.286 182.045 227.015 182.045 224.65H180.545ZM180.095 231.25V229.75H126.545V231.25V232.75H180.095V231.25ZM126.545 231.25L125.048 231.352C125.309 235.159 126.245 238.257 128.056 240.424C129.918 242.652 132.537 243.7 135.695 243.7V242.2V240.7C133.252 240.7 131.546 239.923 130.358 238.501C129.119 237.018 128.28 234.641 128.041 231.147L126.545 231.25ZM135.695 242.2V243.7C137.73 243.7 139.57 243.231 141.148 242.229C142.725 241.228 143.946 239.757 144.844 237.904L143.495 237.25L142.145 236.596C141.443 238.043 140.564 239.047 139.541 239.696C138.519 240.344 137.259 240.7 135.695 240.7V242.2ZM143.495 237.25V238.75H178.745V237.25V235.75H143.495V237.25ZM178.745 237.25L177.274 236.956C176.122 242.714 173.678 247.891 169.93 252.504L171.095 253.45L172.259 254.396C176.311 249.409 178.967 243.786 180.215 237.544L178.745 237.25ZM171.095 253.45L169.928 252.507C166.281 257.018 161.615 260.633 155.901 263.345L156.545 264.7L157.188 266.055C163.274 263.167 168.308 259.282 172.261 254.393L171.095 253.45ZM156.545 264.7L155.911 263.34C150.328 265.939 144.147 267.25 137.345 267.25V268.75V270.25C144.542 270.25 151.161 268.861 157.178 266.06L156.545 264.7ZM137.345 268.75V267.25C129.159 267.25 121.905 265.546 115.547 262.175L114.845 263.5L114.142 264.825C120.984 268.454 128.73 270.25 137.345 270.25V268.75ZM114.845 263.5L115.556 262.179C109.307 258.815 104.411 254.017 100.848 247.758L99.5445 248.5L98.2409 249.242C102.078 255.983 107.382 261.185 114.133 264.821L114.845 263.5ZM99.5445 248.5L100.861 247.782C97.4006 241.437 95.6445 233.992 95.6445 225.4H94.1445H92.6445C92.6445 234.408 94.4885 242.363 98.2277 249.218L99.5445 248.5ZM94.1445 225.4H95.6445C95.6445 216.807 97.4008 209.417 100.857 203.177L99.5445 202.45L98.2323 201.723C94.4883 208.483 92.6445 216.393 92.6445 225.4H94.1445ZM99.5445 202.45L100.853 203.183C104.417 196.825 109.313 191.982 115.556 188.621L114.845 187.3L114.133 185.979C107.376 189.618 102.072 194.875 98.2361 201.716L99.5445 202.45ZM114.845 187.3L115.547 188.625C121.905 185.254 129.159 183.55 137.345 183.55V182.05V180.55C128.73 180.55 120.984 182.346 114.142 185.975L114.845 187.3ZM137.345 182.05V183.55C145.531 183.55 152.73 185.254 158.983 188.621L159.695 187.3L160.406 185.979C153.659 182.346 145.958 180.55 137.345 180.55V182.05ZM159.695 187.3L159.008 188.633C165.35 191.901 170.233 196.594 173.687 202.735L174.995 202L176.302 201.265C172.556 194.606 167.239 189.499 160.381 185.966L159.695 187.3ZM174.995 202L173.696 202.751C177.242 208.885 179.045 216.167 179.045 224.65H180.545H182.045C182.045 215.733 180.147 207.915 176.293 201.249L174.995 202ZM146.795 216.7H148.295C148.295 213.554 147.264 210.965 145.015 209.216L144.095 210.4L143.174 211.584C144.525 212.635 145.295 214.246 145.295 216.7H146.795ZM144.095 210.4L145.055 209.248C142.945 207.489 140.339 206.65 137.345 206.65V208.15V209.65C139.75 209.65 141.644 210.311 143.134 211.552L144.095 210.4ZM137.345 208.15V206.65C134.158 206.65 131.446 207.422 129.377 209.131C127.304 210.843 126.06 213.344 125.517 216.441L126.995 216.7L128.472 216.959C128.929 214.356 129.91 212.582 131.287 211.444C132.668 210.303 134.631 209.65 137.345 209.65V208.15ZM126.995 216.7V218.2H146.795V216.7V215.2H126.995V216.7ZM224.376 198.7H222.876V203.493L225.609 199.555L224.376 198.7ZM236.826 187L237.59 188.291L237.6 188.285L237.609 188.279L236.826 187ZM252.126 182.5H253.626V181H252.126V182.5ZM252.126 218.05V219.55H253.626V218.05H252.126ZM228.726 221.35L227.839 220.14L227.829 220.148L227.82 220.155L228.726 221.35ZM224.376 267.7V269.2H225.876V267.7H224.376ZM191.076 267.7H189.576V269.2H191.076V267.7ZM191.076 183.1V181.6H189.576V183.1H191.076ZM224.376 183.1H225.876V181.6H224.376V183.1ZM224.376 198.7L225.609 199.555C228.892 194.824 232.885 191.076 237.59 188.291L236.826 187L236.062 185.709C230.968 188.724 226.661 192.776 223.144 197.845L224.376 198.7ZM236.826 187L237.609 188.279C242.294 185.411 247.126 184 252.126 184V182.5V181C246.527 181 241.158 182.589 236.043 185.721L236.826 187ZM252.126 182.5H250.626V218.05H252.126H253.626V182.5H252.126ZM252.126 218.05V216.55H242.676V218.05V219.55H252.126V218.05ZM242.676 218.05V216.55C236.257 216.55 231.221 217.661 227.839 220.14L228.726 221.35L229.613 222.56C232.232 220.639 236.496 219.55 242.676 219.55V218.05ZM228.726 221.35L227.82 220.155C224.379 222.765 222.876 227.239 222.876 233.05H224.376H225.876C225.876 227.661 227.273 224.335 229.633 222.545L228.726 221.35ZM224.376 233.05H222.876V267.7H224.376H225.876V233.05H224.376ZM224.376 267.7V266.2H191.076V267.7V269.2H224.376V267.7ZM191.076 267.7H192.576V183.1H191.076H189.576V267.7H191.076ZM191.076 183.1V184.6H224.376V183.1V181.6H191.076V183.1ZM224.376 183.1H222.876V198.7H224.376H225.876V183.1H224.376ZM303.996 236.05L302.543 236.424L305.449 236.421L303.996 236.05ZM317.496 183.1V181.6H316.33L316.042 182.729L317.496 183.1ZM352.896 183.1L354.319 183.574L354.977 181.6H352.896V183.1ZM324.696 267.7V269.2H325.777L326.119 268.174L324.696 267.7ZM283.146 267.7L281.723 268.174L282.065 269.2H283.146V267.7ZM254.946 183.1V181.6H252.865L253.523 183.574L254.946 183.1ZM290.346 183.1L291.798 182.726L291.508 181.6H290.346V183.1ZM303.996 236.05L305.449 236.421L318.949 183.471L317.496 183.1L316.042 182.729L302.542 235.679L303.996 236.05ZM317.496 183.1V184.6H352.896V183.1V181.6H317.496V183.1ZM352.896 183.1L351.473 182.626L323.273 267.226L324.696 267.7L326.119 268.174L354.319 183.574L352.896 183.1ZM324.696 267.7V266.2H283.146V267.7V269.2H324.696V267.7ZM283.146 267.7L284.569 267.226L256.369 182.626L254.946 183.1L253.523 183.574L281.723 268.174L283.146 267.7ZM254.946 183.1V184.6H290.346V183.1V181.6H254.946V183.1ZM290.346 183.1L288.893 183.474L302.543 236.424L303.996 236.05L305.448 235.676L291.798 182.726L290.346 183.1ZM364.58 171.7L365.575 170.577V170.577L364.58 171.7ZM364.58 148.15L365.575 149.273L365.584 149.265L365.593 149.257L364.58 148.15ZM392.33 148.15L391.318 149.257L391.327 149.265L391.336 149.273L392.33 148.15ZM392.33 171.7L391.336 170.577V170.577L392.33 171.7ZM395.03 183.1H396.53V181.6H395.03V183.1ZM395.03 267.7V269.2H396.53V267.7H395.03ZM361.73 267.7H360.23V269.2H361.73V267.7ZM361.73 183.1V181.6H360.23V183.1H361.73ZM378.53 176.35V174.85C373.005 174.85 368.739 173.38 365.575 170.577L364.58 171.7L363.586 172.823C367.422 176.22 372.456 177.85 378.53 177.85V176.35ZM364.58 171.7L365.575 170.577C362.398 167.763 360.83 164.273 360.83 160H359.33H357.83C357.83 165.127 359.763 169.436 363.586 172.823L364.58 171.7ZM359.33 160H360.83C360.83 155.616 362.406 152.08 365.575 149.273L364.58 148.15L363.586 147.027C359.755 150.42 357.83 154.784 357.83 160H359.33ZM364.58 148.15L365.593 149.257C368.758 146.363 373.017 144.85 378.53 144.85V143.35V141.85C372.444 141.85 367.403 143.537 363.568 147.043L364.58 148.15ZM378.53 143.35V144.85C383.936 144.85 388.149 146.359 391.318 149.257L392.33 148.15L393.343 147.043C389.512 143.541 384.525 141.85 378.53 141.85V143.35ZM392.33 148.15L391.336 149.273C394.505 152.08 396.08 155.616 396.08 160H397.58H399.08C399.08 154.784 397.156 150.42 393.325 147.027L392.33 148.15ZM397.58 160H396.08C396.08 164.273 394.513 167.763 391.336 170.577L392.33 171.7L393.325 172.823C397.148 169.436 399.08 165.127 399.08 160H397.58ZM392.33 171.7L391.336 170.577C388.167 173.384 383.948 174.85 378.53 174.85V176.35V177.85C384.513 177.85 389.494 176.216 393.325 172.823L392.33 171.7ZM395.03 183.1H393.53V267.7H395.03H396.53V183.1H395.03ZM395.03 267.7V266.2H361.73V267.7V269.2H395.03V267.7ZM361.73 267.7H363.23V183.1H361.73H360.23V267.7H361.73ZM361.73 183.1V184.6H395.03V183.1V181.6H361.73V183.1ZM410.97 202.45L409.662 201.716L409.658 201.723L410.97 202.45ZM426.27 187.3L425.568 185.975L425.559 185.979L426.27 187.3ZM476.52 191.35L475.565 192.506L475.572 192.512L476.52 191.35ZM490.92 217.15V218.65H492.718L492.396 216.882L490.92 217.15ZM455.67 217.15L454.232 217.575L454.549 218.65H455.67V217.15ZM441.57 214.3L440.307 213.491L440.295 213.51L440.284 213.528L441.57 214.3ZM441.57 236.5L440.284 237.272L440.295 237.29L440.307 237.309L441.57 236.5ZM455.67 233.65V232.15H454.549L454.232 233.225L455.67 233.65ZM490.92 233.65L492.396 233.918L492.718 232.15H490.92V233.65ZM476.52 259.45L475.572 258.288L475.565 258.294L476.52 259.45ZM426.27 263.5L425.559 264.821L425.568 264.825L426.27 263.5ZM410.97 248.5L409.653 249.218L409.66 249.23L409.667 249.242L410.97 248.5ZM405.57 225.4H407.07C407.07 216.807 408.827 209.417 412.282 203.177L410.97 202.45L409.658 201.723C405.914 208.483 404.07 216.393 404.07 225.4H405.57ZM410.97 202.45L412.279 203.183C415.843 196.825 420.739 191.982 426.981 188.621L426.27 187.3L425.559 185.979C418.802 189.618 413.497 194.875 409.662 201.716L410.97 202.45ZM426.27 187.3L426.973 188.625C433.331 185.254 440.584 183.55 448.77 183.55V182.05V180.55C440.156 180.55 432.41 182.346 425.568 185.975L426.27 187.3ZM448.77 182.05V183.55C459.47 183.55 468.368 186.557 475.565 192.506L476.52 191.35L477.476 190.194C469.672 183.743 460.071 180.55 448.77 180.55V182.05ZM476.52 191.35L475.572 192.512C482.857 198.455 487.499 206.717 489.445 217.418L490.92 217.15L492.396 216.882C490.342 205.583 485.384 196.645 477.469 190.188L476.52 191.35ZM490.92 217.15V215.65H455.67V217.15V218.65H490.92V217.15ZM455.67 217.15L457.109 216.725C456.406 214.346 455.321 212.409 453.763 211.064C452.18 209.699 450.231 209.05 448.02 209.05V210.55V212.05C449.61 212.05 450.835 212.501 451.803 213.336C452.794 214.191 453.635 215.554 454.232 217.575L455.67 217.15ZM448.02 210.55V209.05C444.751 209.05 442.15 210.611 440.307 213.491L441.57 214.3L442.834 215.109C444.191 212.988 445.889 212.05 448.02 212.05V210.55ZM441.57 214.3L440.284 213.528C438.579 216.37 437.82 220.392 437.82 225.4H439.32H440.82C440.82 220.608 441.562 217.23 442.857 215.072L441.57 214.3ZM439.32 225.4H437.82C437.82 230.408 438.579 234.43 440.284 237.272L441.57 236.5L442.857 235.728C441.562 233.57 440.82 230.192 440.82 225.4H439.32ZM441.57 236.5L440.307 237.309C442.15 240.188 444.751 241.75 448.02 241.75V240.25V238.75C445.889 238.75 444.191 237.811 442.834 235.691L441.57 236.5ZM448.02 240.25V241.75C450.231 241.75 452.18 241.101 453.763 239.736C455.321 238.391 456.406 236.454 457.109 234.075L455.67 233.65L454.232 233.225C453.635 235.246 452.794 236.609 451.803 237.464C450.835 238.299 449.61 238.75 448.02 238.75V240.25ZM455.67 233.65V235.15H490.92V233.65V232.15H455.67V233.65ZM490.92 233.65L489.445 233.382C487.499 244.083 482.857 252.345 475.572 258.288L476.52 259.45L477.469 260.612C485.384 254.155 490.342 245.217 492.396 233.918L490.92 233.65ZM476.52 259.45L475.565 258.294C468.368 264.243 459.47 267.25 448.77 267.25V268.75V270.25C460.071 270.25 469.672 267.057 477.476 260.606L476.52 259.45ZM448.77 268.75V267.25C440.584 267.25 433.331 265.546 426.973 262.175L426.27 263.5L425.568 264.825C432.41 268.454 440.156 270.25 448.77 270.25V268.75ZM426.27 263.5L426.981 262.179C420.733 258.815 415.837 254.017 412.274 247.758L410.97 248.5L409.667 249.242C413.504 255.983 418.808 261.185 425.559 264.821L426.27 263.5ZM410.97 248.5L412.287 247.782C408.826 241.437 407.07 233.992 407.07 225.4H405.57H404.07C404.07 234.408 405.914 242.363 409.653 249.218L410.97 248.5ZM504.327 171.7L505.321 170.577V170.577L504.327 171.7ZM504.327 148.15L505.321 149.273L505.33 149.265L505.339 149.257L504.327 148.15ZM532.077 148.15L531.064 149.257L531.073 149.265L531.082 149.273L532.077 148.15ZM532.077 171.7L531.082 170.577V170.577L532.077 171.7ZM534.777 183.1H536.277V181.6H534.777V183.1ZM534.777 267.7V269.2H536.277V267.7H534.777ZM501.477 267.7H499.977V269.2H501.477V267.7ZM501.477 183.1V181.6H499.977V183.1H501.477ZM518.277 176.35V174.85C512.751 174.85 508.485 173.38 505.321 170.577L504.327 171.7L503.332 172.823C507.168 176.22 512.202 177.85 518.277 177.85V176.35ZM504.327 171.7L505.321 170.577C502.144 167.763 500.577 164.273 500.577 160H499.077H497.577C497.577 165.127 499.509 169.436 503.332 172.823L504.327 171.7ZM499.077 160H500.577C500.577 155.616 502.152 152.08 505.321 149.273L504.327 148.15L503.332 147.027C499.501 150.42 497.577 154.784 497.577 160H499.077ZM504.327 148.15L505.339 149.257C508.504 146.363 512.763 144.85 518.277 144.85V143.35V141.85C512.19 141.85 507.149 143.537 503.314 147.043L504.327 148.15ZM518.277 143.35V144.85C523.682 144.85 527.895 146.359 531.064 149.257L532.077 148.15L533.089 147.043C529.258 143.541 524.271 141.85 518.277 141.85V143.35ZM532.077 148.15L531.082 149.273C534.251 152.08 535.827 155.616 535.827 160H537.327H538.827C538.827 154.784 536.902 150.42 533.071 147.027L532.077 148.15ZM537.327 160H535.827C535.827 164.273 534.259 167.763 531.082 170.577L532.077 171.7L533.071 172.823C536.894 169.436 538.827 165.127 538.827 160H537.327ZM532.077 171.7L531.082 170.577C527.913 173.384 523.694 174.85 518.277 174.85V176.35V177.85C524.259 177.85 529.24 176.216 533.071 172.823L532.077 171.7ZM534.777 183.1H533.277V267.7H534.777H536.277V183.1H534.777ZM534.777 267.7V266.2H501.477V267.7V269.2H534.777V267.7ZM501.477 267.7H502.977V183.1H501.477H499.977V267.7H501.477ZM501.477 183.1V184.6H534.777V183.1V181.6H501.477V183.1ZM567.066 263.5L567.753 262.166L567.066 263.5ZM551.016 248.5L549.716 249.248L549.723 249.26L549.73 249.272L551.016 248.5ZM551.016 202.45L549.725 201.687L549.721 201.693L551.016 202.45ZM567.066 187.3L567.753 188.634V188.634L567.066 187.3ZM612.966 187.3L612.28 188.634V188.634L612.966 187.3ZM628.866 202.45L627.566 203.198L627.573 203.21L627.58 203.222L628.866 202.45ZM628.866 248.5L627.575 247.737L627.571 247.743L628.866 248.5ZM612.966 263.5L612.28 262.166V262.166L612.966 263.5ZM597.816 236.35L598.945 237.338L598.955 237.326L598.965 237.315L597.816 236.35ZM597.816 214.6L596.668 215.565L596.678 215.576L596.688 215.588L597.816 214.6ZM582.216 214.6L583.345 215.588L583.355 215.576L583.365 215.565L582.216 214.6ZM582.066 236.35L580.895 237.287L580.916 237.313L580.938 237.338L582.066 236.35ZM590.016 268.75V267.25C581.728 267.25 574.318 265.545 567.753 262.166L567.066 263.5L566.38 264.834C573.415 268.455 581.305 270.25 590.016 270.25V268.75ZM567.066 263.5L567.753 262.166C561.199 258.793 556.058 253.986 552.303 247.728L551.016 248.5L549.73 249.272C553.775 256.013 559.334 261.207 566.38 264.834L567.066 263.5ZM551.016 248.5L552.316 247.751C548.667 241.413 546.816 233.979 546.816 225.4H545.316H543.816C543.816 234.421 545.766 242.387 549.716 249.248L551.016 248.5ZM545.316 225.4H546.816C546.816 216.821 548.667 209.441 552.311 203.207L551.016 202.45L549.721 201.693C545.766 208.459 543.816 216.379 543.816 225.4H545.316ZM551.016 202.45L552.308 203.213C556.064 196.856 561.205 192.004 567.753 188.634L567.066 187.3L566.38 185.966C559.328 189.596 553.768 194.844 549.725 201.687L551.016 202.45ZM567.066 187.3L567.753 188.634C574.318 185.255 581.728 183.55 590.016 183.55V182.05V180.55C581.305 180.55 573.415 182.345 566.38 185.966L567.066 187.3ZM590.016 182.05V183.55C598.305 183.55 605.715 185.255 612.28 188.634L612.966 187.3L613.653 185.966C606.618 182.345 598.728 180.55 590.016 180.55V182.05ZM612.966 187.3L612.28 188.634C618.825 192.002 623.911 196.85 627.566 203.198L628.866 202.45L630.166 201.702C626.222 194.85 620.708 189.598 613.653 185.966L612.966 187.3ZM628.866 202.45L627.58 203.222C631.319 209.453 633.216 216.827 633.216 225.4H634.716H636.216C636.216 216.372 634.214 208.447 630.153 201.678L628.866 202.45ZM634.716 225.4H633.216C633.216 233.972 631.319 241.4 627.575 247.737L628.866 248.5L630.158 249.263C634.214 242.399 636.216 234.428 636.216 225.4H634.716ZM628.866 248.5L627.571 247.743C623.918 253.993 618.831 258.795 612.28 262.166L612.966 263.5L613.653 264.834C620.702 261.205 626.215 256.007 630.161 249.257L628.866 248.5ZM612.966 263.5L612.28 262.166C605.715 265.545 598.305 267.25 590.016 267.25V268.75V270.25C598.728 270.25 606.618 268.455 613.653 264.834L612.966 263.5ZM590.016 239.95V241.45C593.563 241.45 596.57 240.053 598.945 237.338L597.816 236.35L596.688 235.362C594.863 237.447 592.67 238.45 590.016 238.45V239.95ZM597.816 236.35L598.965 237.315C601.378 234.442 602.466 230.392 602.466 225.4H600.966H599.466C599.466 230.008 598.455 233.257 596.668 235.385L597.816 236.35ZM600.966 225.4H602.466C602.466 220.414 601.38 216.395 598.945 213.612L597.816 214.6L596.688 215.588C598.453 217.605 599.466 220.786 599.466 225.4H600.966ZM597.816 214.6L598.965 213.635C596.597 210.817 593.586 209.35 590.016 209.35V210.85V212.35C592.647 212.35 594.836 213.383 596.668 215.565L597.816 214.6ZM590.016 210.85V209.35C586.447 209.35 583.435 210.817 581.068 213.635L582.216 214.6L583.365 215.565C585.197 213.383 587.386 212.35 590.016 212.35V210.85ZM582.216 214.6L581.088 213.612C578.653 216.395 577.566 220.414 577.566 225.4H579.066H580.566C580.566 220.786 581.58 217.605 583.345 215.588L582.216 214.6ZM579.066 225.4H577.566C577.566 230.378 578.599 234.417 580.895 237.287L582.066 236.35L583.238 235.413C581.534 233.283 580.566 230.022 580.566 225.4H579.066ZM582.066 236.35L580.938 237.338C583.323 240.065 586.386 241.45 590.016 241.45V239.95V238.45C587.247 238.45 585.009 237.435 583.195 235.362L582.066 236.35ZM661.528 264.85L660.94 266.23L660.948 266.233L661.528 264.85ZM640.828 238.45V236.95H639.193L639.333 238.579L640.828 238.45ZM672.778 238.45L674.259 238.213L674.057 236.95H672.778V238.45ZM675.928 244L675.063 245.225L675.079 245.237L675.096 245.248L675.928 244ZM686.728 244.75L687.588 245.979L687.627 245.951L687.665 245.921L686.728 244.75ZM674.428 235.15L674.722 233.679L674.717 233.678L674.428 235.15ZM659.278 231.25L658.771 232.662L658.782 232.666L659.278 231.25ZM648.928 224.05L647.786 225.023L647.795 225.033L647.803 225.042L648.928 224.05ZM648.628 195.85L647.371 195.031L647.366 195.039L648.628 195.85ZM660.928 185.8L661.537 187.171L661.547 187.166L661.558 187.161L660.928 185.8ZM707.278 190.45L706.29 191.579L706.299 191.586L707.278 190.45ZM718.978 212.35V213.85H720.71L720.462 212.135L718.978 212.35ZM689.428 212.35L687.962 212.669L688.219 213.85H689.428V212.35ZM686.278 207.1L685.332 208.264L685.354 208.282L685.378 208.3L686.278 207.1ZM675.928 206.2L676.76 207.448L676.805 207.418L676.849 207.384L675.928 206.2ZM677.728 212.95L677.137 214.329L677.165 214.341L677.194 214.352L677.728 212.95ZM687.778 215.5L688.067 214.028L688.066 214.028L687.778 215.5ZM703.228 219.55L702.723 220.963V220.963L703.228 219.55ZM714.178 227.35L713.028 228.313L713.034 228.321L713.041 228.329L714.178 227.35ZM714.478 255.85L715.692 256.73V256.73L714.478 255.85ZM701.878 265.3L701.299 263.916L701.29 263.92L701.878 265.3ZM682.828 268.75V267.25C674.99 267.25 668.093 265.976 662.108 263.467L661.528 264.85L660.948 266.233C667.363 268.923 674.666 270.25 682.828 270.25V268.75ZM661.528 264.85L662.116 263.47C656.217 260.956 651.583 257.5 648.159 253.125L646.978 254.05L645.796 254.974C649.573 259.8 654.639 263.544 660.94 266.23L661.528 264.85ZM646.978 254.05L648.159 253.125C644.738 248.754 642.797 243.83 642.322 238.321L640.828 238.45L639.333 238.579C639.858 244.67 642.018 250.146 645.796 254.974L646.978 254.05ZM640.828 238.45V239.95H672.778V238.45V236.95H640.828V238.45ZM672.778 238.45L671.297 238.687C671.746 241.493 672.963 243.743 675.063 245.225L675.928 244L676.793 242.775C675.492 241.857 674.61 240.406 674.259 238.213L672.778 238.45ZM675.928 244L675.096 245.248C677.197 246.649 679.755 247.3 682.678 247.3V245.8V244.3C680.2 244.3 678.259 243.751 676.76 242.752L675.928 244ZM682.678 245.8V247.3C684.568 247.3 686.254 246.912 687.588 245.979L686.728 244.75L685.868 243.521C685.201 243.988 684.187 244.3 682.678 244.3V245.8ZM686.728 244.75L687.665 245.921C688.955 244.889 689.728 243.533 689.728 241.9H688.228H686.728C686.728 242.466 686.5 243.011 685.791 243.579L686.728 244.75ZM688.228 241.9H689.728C689.728 240.656 689.377 239.509 688.624 238.542C687.886 237.592 686.84 236.916 685.612 236.448L685.078 237.85L684.544 239.252C685.416 239.584 685.945 239.983 686.256 240.383C686.554 240.766 686.728 241.244 686.728 241.9H688.228ZM685.078 237.85L685.612 236.448C683.385 235.6 679.728 234.68 674.722 233.679L674.428 235.15L674.134 236.621C679.128 237.62 682.571 238.5 684.544 239.252L685.078 237.85ZM674.428 235.15L674.717 233.678C668.658 232.486 663.683 231.203 659.773 229.834L659.278 231.25L658.782 232.666C662.873 234.097 667.997 235.414 674.138 236.622L674.428 235.15ZM659.278 231.25L659.785 229.838C656.145 228.531 652.901 226.286 650.052 223.058L648.928 224.05L647.803 225.042C650.954 228.614 654.611 231.168 658.771 232.662L659.278 231.25ZM648.928 224.05L650.069 223.077C647.47 220.029 646.078 215.716 646.078 209.95H644.578H643.078C643.078 216.184 644.586 221.271 647.786 225.023L648.928 224.05ZM644.578 209.95H646.078C646.078 205.025 647.352 200.609 649.89 196.661L648.628 195.85L647.366 195.039C644.504 199.491 643.078 204.475 643.078 209.95H644.578ZM648.628 195.85L649.885 196.668C652.504 192.646 656.361 189.471 661.537 187.171L660.928 185.8L660.319 184.429C654.695 186.929 650.352 190.454 647.371 195.031L648.628 195.85ZM660.928 185.8L661.558 187.161C666.711 184.775 673.034 183.55 680.578 183.55V182.05V180.55C672.722 180.55 665.944 181.825 660.298 184.439L660.928 185.8ZM680.578 182.05V183.55C691.74 183.55 700.245 186.289 706.29 191.579L707.278 190.45L708.266 189.321C701.511 183.411 692.216 180.55 680.578 180.55V182.05ZM707.278 190.45L706.299 191.586C712.507 196.935 716.242 203.899 717.493 212.564L718.978 212.35L720.462 212.135C719.114 202.801 715.048 195.165 708.257 189.314L707.278 190.45ZM718.978 212.35V210.85H689.428V212.35V213.85H718.978V212.35ZM689.428 212.35L690.893 212.031C690.331 209.445 689.116 207.353 687.178 205.9L686.278 207.1L685.378 208.3C686.64 209.247 687.524 210.655 687.962 212.669L689.428 212.35ZM686.278 207.1L687.224 205.936C685.283 204.359 682.765 203.65 679.828 203.65V205.15V206.65C682.291 206.65 684.072 207.241 685.332 208.264L686.278 207.1ZM679.828 205.15V203.65C677.951 203.65 676.272 204.032 675.007 205.016L675.928 206.2L676.849 207.384C677.384 206.968 678.305 206.65 679.828 206.65V205.15ZM675.928 206.2L675.096 204.952C673.69 205.889 673.078 207.365 673.078 209.05H674.578H676.078C676.078 208.135 676.365 207.711 676.76 207.448L675.928 206.2ZM674.578 209.05H673.078C673.078 210.236 673.454 211.321 674.198 212.242C674.923 213.14 675.941 213.816 677.137 214.329L677.728 212.95L678.319 211.571C677.415 211.184 676.858 210.76 676.532 210.357C676.227 209.979 676.078 209.563 676.078 209.05H674.578ZM677.728 212.95L677.194 214.352C679.42 215.2 682.876 216.069 687.49 216.972L687.778 215.5L688.066 214.028C683.48 213.131 680.235 212.3 678.262 211.548L677.728 212.95ZM687.778 215.5L687.488 216.972C693.541 218.163 698.615 219.495 702.723 220.963L703.228 219.55L703.732 218.137C699.441 216.605 694.214 215.237 688.067 214.028L687.778 215.5ZM703.228 219.55L702.723 220.963C706.651 222.366 710.085 224.8 713.028 228.313L714.178 227.35L715.328 226.387C712.071 222.5 708.204 219.734 703.732 218.137L703.228 219.55ZM714.178 227.35L713.041 228.329C715.836 231.574 717.328 236.184 717.328 242.35H718.828H720.328C720.328 235.716 718.719 230.325 715.314 226.371L714.178 227.35ZM718.828 242.35H717.328C717.328 247.038 715.975 251.229 713.263 254.97L714.478 255.85L715.692 256.73C718.78 252.471 720.328 247.662 720.328 242.35H718.828ZM714.478 255.85L713.263 254.97C710.556 258.704 706.598 261.7 701.299 263.916L701.878 265.3L702.456 266.684C708.158 264.3 712.6 260.996 715.692 256.73L714.478 255.85ZM701.878 265.3L701.29 263.92C696.115 266.124 689.973 267.25 682.828 267.25V268.75V270.25C690.282 270.25 696.84 269.076 702.466 266.68L701.878 265.3Z" fill="black" mask="url(#path-1-outside-1_595_20)"/>
</svg>
