<svg width="670" height="273" viewBox="0 0 670 273" fill="none" xmlns="http://www.w3.org/2000/svg">
<mask id="path-1-outside-1_595_21" maskUnits="userSpaceOnUse" x="-0.666016" y="-0.5" width="671" height="273" fill="black">
<rect fill="white" x="-0.666016" y="-0.5" width="671" height="273"/>
<path d="M248.173 110.55C238.173 110.55 228.973 108.2 220.573 103.5C212.273 98.8 205.673 92.3 200.773 84C195.873 75.7 193.423 66.35 193.423 55.95C193.423 45.55 195.873 36.2 200.773 27.9C205.673 19.6 212.273 13.15 220.573 8.54999C228.973 3.85 238.173 1.5 248.173 1.5C258.173 1.5 267.323 3.85 275.623 8.54999C283.923 13.15 290.473 19.6 295.273 27.9C300.173 36.2 302.623 45.55 302.623 55.95C302.623 66.35 300.173 75.7 295.273 84C290.473 92.3 283.873 98.8 275.473 103.5C267.173 108.2 258.073 110.55 248.173 110.55ZM248.173 79.5C254.773 79.5 259.873 77.4 263.473 73.2C267.073 68.9 268.873 63.15 268.873 55.95C268.873 48.65 267.073 42.9 263.473 38.7C259.873 34.4 254.773 32.25 248.173 32.25C241.473 32.25 236.323 34.4 232.723 38.7C229.123 42.9 227.323 48.65 227.323 55.95C227.323 63.15 229.123 68.9 232.723 73.2C236.323 77.4 241.473 79.5 248.173 79.5ZM404.186 24.9V109.5H370.886V96.6C368.286 100.6 364.786 103.85 360.386 106.35C356.086 108.85 350.936 110.1 344.936 110.1C335.236 110.1 327.636 106.85 322.136 100.35C316.736 93.85 314.036 85.05 314.036 73.95V24.9H347.186V69.75C347.186 73.75 348.236 76.95 350.336 79.35C352.536 81.65 355.436 82.8 359.036 82.8C362.736 82.8 365.636 81.65 367.736 79.35C369.836 76.95 370.886 73.75 370.886 69.75V24.9H404.186ZM452.526 40.5C455.926 35.6 460.076 31.7 464.976 28.8C469.876 25.8 474.976 24.3 480.276 24.3V59.85H470.826C464.526 59.85 459.876 60.95 456.876 63.15C453.976 65.35 452.526 69.25 452.526 74.85V109.5H419.226V24.9H452.526V40.5ZM46.4445 270.55C33.7445 270.55 23.2445 267.6 14.9445 261.7C6.74453 255.7 2.29453 246.95 1.59453 235.45H36.9945C37.4945 241.55 40.1945 244.6 45.0945 244.6C46.8945 244.6 48.3945 244.2 49.5945 243.4C50.8945 242.5 51.5445 241.15 51.5445 239.35C51.5445 236.85 50.1945 234.85 47.4945 233.35C44.7945 231.75 40.5945 229.95 34.8945 227.95C28.0945 225.55 22.4445 223.2 17.9445 220.9C13.5445 218.6 9.74453 215.25 6.54453 210.85C3.34453 206.45 1.79453 200.8 1.89453 193.9C1.89453 187 3.64453 181.15 7.14453 176.35C10.7445 171.45 15.5945 167.75 21.6945 165.25C27.8945 162.75 34.8445 161.5 42.5445 161.5C55.5445 161.5 65.8445 164.5 73.4445 170.5C81.1445 176.5 85.1945 184.95 85.5945 195.85H49.7445C49.6445 192.85 48.8945 190.7 47.4945 189.4C46.0945 188.1 44.3945 187.45 42.3945 187.45C40.9945 187.45 39.8445 187.95 38.9445 188.95C38.0445 189.85 37.5945 191.15 37.5945 192.85C37.5945 195.25 38.8945 197.25 41.4945 198.85C44.1945 200.35 48.4445 202.2 54.2445 204.4C60.9445 206.9 66.4445 209.3 70.7445 211.6C75.1445 213.9 78.9445 217.1 82.1445 221.2C85.3445 225.3 86.9445 230.45 86.9445 236.65C86.9445 243.15 85.3445 249 82.1445 254.2C78.9445 259.3 74.2945 263.3 68.1945 266.2C62.0945 269.1 54.8445 270.55 46.4445 270.55ZM180.545 226.45C180.545 228.75 180.395 230.95 180.095 233.05H126.545C127.045 240.35 130.095 244 135.695 244C139.295 244 141.895 242.35 143.495 239.05H178.745C177.545 245.05 174.995 250.45 171.095 255.25C167.295 259.95 162.445 263.7 156.545 266.5C150.745 269.2 144.345 270.55 137.345 270.55C128.945 270.55 121.445 268.8 114.845 265.3C108.345 261.8 103.245 256.8 99.5445 250.3C95.9445 243.7 94.1445 236 94.1445 227.2C94.1445 218.4 95.9445 210.75 99.5445 204.25C103.245 197.65 108.345 192.6 114.845 189.1C121.445 185.6 128.945 183.85 137.345 183.85C145.745 183.85 153.195 185.6 159.695 189.1C166.295 192.5 171.395 197.4 174.995 203.8C178.695 210.2 180.545 217.75 180.545 226.45ZM146.795 218.5C146.795 215.7 145.895 213.6 144.095 212.2C142.295 210.7 140.045 209.95 137.345 209.95C131.445 209.95 127.995 212.8 126.995 218.5H146.795ZM224.376 200.5C227.776 195.6 231.926 191.7 236.826 188.8C241.726 185.8 246.826 184.3 252.126 184.3V219.85H242.676C236.376 219.85 231.726 220.95 228.726 223.15C225.826 225.35 224.376 229.25 224.376 234.85V269.5H191.076V184.9H224.376V200.5ZM303.996 237.85L317.496 184.9H352.896L324.696 269.5H283.146L254.946 184.9H290.346L303.996 237.85ZM378.53 178.15C372.73 178.15 368.08 176.6 364.58 173.5C361.08 170.4 359.33 166.5 359.33 161.8C359.33 157 361.08 153.05 364.58 149.95C368.08 146.75 372.73 145.15 378.53 145.15C384.23 145.15 388.83 146.75 392.33 149.95C395.83 153.05 397.58 157 397.58 161.8C397.58 166.5 395.83 170.4 392.33 173.5C388.83 176.6 384.23 178.15 378.53 178.15ZM395.03 184.9V269.5H361.73V184.9H395.03ZM405.57 227.2C405.57 218.4 407.37 210.75 410.97 204.25C414.67 197.65 419.77 192.6 426.27 189.1C432.87 185.6 440.37 183.85 448.77 183.85C459.77 183.85 469.02 186.95 476.52 193.15C484.12 199.35 488.92 207.95 490.92 218.95H455.67C454.37 214.55 451.82 212.35 448.02 212.35C445.32 212.35 443.17 213.6 441.57 216.1C440.07 218.6 439.32 222.3 439.32 227.2C439.32 232.1 440.07 235.8 441.57 238.3C443.17 240.8 445.32 242.05 448.02 242.05C451.82 242.05 454.37 239.85 455.67 235.45H490.92C488.92 246.45 484.12 255.05 476.52 261.25C469.02 267.45 459.77 270.55 448.77 270.55C440.37 270.55 432.87 268.8 426.27 265.3C419.77 261.8 414.67 256.8 410.97 250.3C407.37 243.7 405.57 236 405.57 227.2ZM583.377 226.45C583.377 228.75 583.227 230.95 582.927 233.05H529.377C529.877 240.35 532.927 244 538.527 244C542.127 244 544.727 242.35 546.327 239.05H581.577C580.377 245.05 577.827 250.45 573.927 255.25C570.127 259.95 565.277 263.7 559.377 266.5C553.577 269.2 547.177 270.55 540.177 270.55C531.777 270.55 524.277 268.8 517.677 265.3C511.177 261.8 506.077 256.8 502.377 250.3C498.777 243.7 496.977 236 496.977 227.2C496.977 218.4 498.777 210.75 502.377 204.25C506.077 197.65 511.177 192.6 517.677 189.1C524.277 185.6 531.777 183.85 540.177 183.85C548.577 183.85 556.027 185.6 562.527 189.1C569.127 192.5 574.227 197.4 577.827 203.8C581.527 210.2 583.377 217.75 583.377 226.45ZM549.627 218.5C549.627 215.7 548.727 213.6 546.927 212.2C545.127 210.7 542.877 209.95 540.177 209.95C534.277 209.95 530.827 212.8 529.827 218.5H549.627ZM631.558 270.55C623.558 270.55 616.458 269.25 610.258 266.65C604.158 264.05 599.308 260.45 595.708 255.85C592.108 251.25 590.058 246.05 589.558 240.25H621.508C621.908 242.75 622.958 244.6 624.658 245.8C626.458 247 628.708 247.6 631.408 247.6C633.108 247.6 634.458 247.25 635.458 246.55C636.458 245.75 636.958 244.8 636.958 243.7C636.958 241.8 635.908 240.45 633.808 239.65C631.708 238.85 628.158 237.95 623.158 236.95C617.058 235.75 612.008 234.45 608.008 233.05C604.108 231.65 600.658 229.25 597.658 225.85C594.758 222.45 593.308 217.75 593.308 211.75C593.308 206.55 594.658 201.85 597.358 197.65C600.158 193.35 604.258 190 609.658 187.6C615.058 185.1 621.608 183.85 629.308 183.85C640.708 183.85 649.608 186.65 656.008 192.25C662.508 197.85 666.408 205.15 667.708 214.15H638.158C637.658 211.85 636.608 210.1 635.008 208.9C633.408 207.6 631.258 206.95 628.558 206.95C626.858 206.95 625.558 207.3 624.658 208C623.758 208.6 623.308 209.55 623.308 210.85C623.308 212.55 624.358 213.85 626.458 214.75C628.558 215.55 631.908 216.4 636.508 217.3C642.608 218.5 647.758 219.85 651.958 221.35C656.158 222.85 659.808 225.45 662.908 229.15C666.008 232.75 667.558 237.75 667.558 244.15C667.558 249.15 666.108 253.65 663.208 257.65C660.308 261.65 656.108 264.8 650.608 267.1C645.208 269.4 638.858 270.55 631.558 270.55Z"/>
</mask>
<path d="M220.573 103.5L219.834 104.805L219.84 104.809L220.573 103.5ZM200.773 84L199.481 84.7626V84.7626L200.773 84ZM220.573 8.55L221.3 9.86198L221.305 9.85902L220.573 8.55ZM275.623 8.55L274.884 9.85531L274.896 9.86198L275.623 8.55ZM295.273 27.9L293.974 28.651L293.981 28.6626L295.273 27.9ZM295.273 84L293.981 83.2374L293.974 83.2491L295.273 84ZM275.473 103.5L274.74 102.191L274.734 102.195L275.473 103.5ZM263.473 73.2L264.612 74.1762L264.617 74.1696L264.623 74.1629L263.473 73.2ZM263.473 38.7L262.323 39.6629L262.328 39.6696L262.334 39.6762L263.473 38.7ZM232.723 38.7L233.862 39.6762L233.867 39.6696L233.873 39.6629L232.723 38.7ZM232.723 73.2L231.573 74.1629L231.578 74.1696L231.584 74.1762L232.723 73.2ZM248.173 110.55V109.05C238.419 109.05 229.473 106.761 221.305 102.191L220.573 103.5L219.84 104.809C228.473 109.639 237.927 112.05 248.173 112.05V110.55ZM220.573 103.5L221.312 102.195C213.243 97.6256 206.833 91.3138 202.065 83.2374L200.773 84L199.481 84.7626C204.513 93.2862 211.303 99.9744 219.834 104.805L220.573 103.5ZM200.773 84L202.065 83.2374C197.312 75.1866 194.923 66.1037 194.923 55.95H193.423H191.923C191.923 66.5963 194.434 76.2134 199.481 84.7626L200.773 84ZM193.423 55.95H194.923C194.923 45.7963 197.312 36.7134 202.065 28.6626L200.773 27.9L199.481 27.1374C194.434 35.6866 191.923 45.3037 191.923 55.95H193.423ZM200.773 27.9L202.065 28.6626C206.831 20.5889 213.238 14.3303 221.3 9.86198L220.573 8.55L219.846 7.23801C211.308 11.9697 204.515 18.6111 199.481 27.1374L200.773 27.9ZM220.573 8.55L221.305 9.85902C229.473 5.28922 238.419 2.99999 248.173 2.99999V1.49999V-7.62939e-06C237.927 -7.62939e-06 228.473 2.41077 219.84 7.24097L220.573 8.55ZM248.173 1.49999V2.99999C257.927 2.99999 266.82 5.28917 274.884 9.85526L275.623 8.55L276.362 7.24474C267.826 2.41082 258.419 -7.62939e-06 248.173 -7.62939e-06V1.49999ZM275.623 8.55L274.896 9.86198C282.955 14.3288 289.309 20.5837 293.974 28.6509L295.273 27.9L296.571 27.1491C291.637 18.6163 284.89 11.9712 276.35 7.23801L275.623 8.55ZM295.273 27.9L293.981 28.6626C298.734 36.7134 301.123 45.7963 301.123 55.95H302.623H304.123C304.123 45.3037 301.612 35.6866 296.565 27.1374L295.273 27.9ZM302.623 55.95H301.123C301.123 66.1037 298.734 75.1866 293.981 83.2374L295.273 84L296.565 84.7626C301.612 76.2134 304.123 66.5963 304.123 55.95H302.623ZM295.273 84L293.974 83.2491C289.31 91.3145 282.906 97.6222 274.74 102.191L275.473 103.5L276.205 104.809C284.84 99.9778 291.636 93.2854 296.571 84.7509L295.273 84ZM275.473 103.5L274.734 102.195C266.668 106.762 257.824 109.05 248.173 109.05V110.55V112.05C258.322 112.05 267.678 109.638 276.212 104.805L275.473 103.5ZM248.173 79.5V81C255.118 81 260.671 78.7733 264.612 74.1762L263.473 73.2L262.334 72.2238C259.074 76.0267 254.428 78 248.173 78V79.5ZM263.473 73.2L264.623 74.1629C268.507 69.5239 270.373 63.4001 270.373 55.95H268.873H267.373C267.373 62.8999 265.639 68.2761 262.323 72.2371L263.473 73.2ZM268.873 55.95H270.373C270.373 48.408 268.511 42.2724 264.612 37.7238L263.473 38.7L262.334 39.6762C265.635 43.5276 267.373 48.892 267.373 55.95H268.873ZM263.473 38.7L264.623 37.7371C260.686 33.0351 255.13 30.75 248.173 30.75V32.25V33.75C254.416 33.75 259.059 35.7649 262.323 39.6629L263.473 38.7ZM248.173 32.25V30.75C241.124 30.75 235.514 33.0297 231.573 37.7371L232.723 38.7L233.873 39.6629C237.132 35.7703 241.821 33.75 248.173 33.75V32.25ZM232.723 38.7L231.584 37.7238C227.685 42.2724 225.823 48.408 225.823 55.95H227.323H228.823C228.823 48.892 230.561 43.5276 233.862 39.6762L232.723 38.7ZM227.323 55.95H225.823C225.823 63.4001 227.689 69.5239 231.573 74.1629L232.723 73.2L233.873 72.2371C230.557 68.2761 228.823 62.8999 228.823 55.95H227.323ZM232.723 73.2L231.584 74.1762C235.529 78.7785 241.136 81 248.173 81V79.5V78C241.81 78 237.117 76.0215 233.862 72.2238L232.723 73.2ZM404.186 24.9H405.686V23.4H404.186V24.9ZM404.186 109.5V111H405.686V109.5H404.186ZM370.886 109.5H369.386V111H370.886V109.5ZM370.886 96.6H372.386V91.54L369.628 95.7825L370.886 96.6ZM360.386 106.35L359.645 105.046L359.638 105.049L359.632 105.053L360.386 106.35ZM322.136 100.35L320.982 101.309L320.991 101.319L322.136 100.35ZM314.036 24.9V23.4H312.536V24.9H314.036ZM347.186 24.9H348.686V23.4H347.186V24.9ZM350.336 79.35L349.207 80.3378L349.229 80.3628L349.252 80.3868L350.336 79.35ZM367.736 79.35L368.843 80.3614L368.854 80.3497L368.865 80.3378L367.736 79.35ZM370.886 24.9V23.4H369.386V24.9H370.886ZM404.186 24.9H402.686V109.5H404.186H405.686V24.9H404.186ZM404.186 109.5V108H370.886V109.5V111H404.186V109.5ZM370.886 109.5H372.386V96.6H370.886H369.386V109.5H370.886ZM370.886 96.6L369.628 95.7825C367.167 99.5691 363.849 102.657 359.645 105.046L360.386 106.35L361.127 107.654C365.722 105.043 369.405 101.631 372.143 97.4175L370.886 96.6ZM360.386 106.35L359.632 105.053C355.604 107.395 350.726 108.6 344.936 108.6V110.1V111.6C351.146 111.6 356.568 110.305 361.14 107.647L360.386 106.35ZM344.936 110.1V108.6C335.608 108.6 328.454 105.495 323.281 99.3811L322.136 100.35L320.991 101.319C326.817 108.205 334.863 111.6 344.936 111.6V110.1ZM322.136 100.35L323.29 99.3915C318.175 93.2353 315.536 84.8109 315.536 73.95H314.036H312.536C312.536 85.2891 315.296 94.4647 320.982 101.309L322.136 100.35ZM314.036 73.95H315.536V24.9H314.036H312.536V73.95H314.036ZM314.036 24.9V26.4H347.186V24.9V23.4H314.036V24.9ZM347.186 24.9H345.686V69.75H347.186H348.686V24.9H347.186ZM347.186 69.75H345.686C345.686 74.0178 346.811 77.6001 349.207 80.3378L350.336 79.35L351.465 78.3622C349.66 76.2999 348.686 73.4822 348.686 69.75H347.186ZM350.336 79.35L349.252 80.3868C351.773 83.0227 355.085 84.3 359.036 84.3V82.8V81.3C355.786 81.3 353.298 80.2773 351.42 78.3132L350.336 79.35ZM359.036 82.8V84.3C363.071 84.3 366.406 83.0312 368.843 80.3614L367.736 79.35L366.628 78.3386C364.866 80.2688 362.401 81.3 359.036 81.3V82.8ZM367.736 79.35L368.865 80.3378C371.26 77.6001 372.386 74.0178 372.386 69.75H370.886H369.386C369.386 73.4822 368.411 76.2999 366.607 78.3622L367.736 79.35ZM370.886 69.75H372.386V24.9H370.886H369.386V69.75H370.886ZM370.886 24.9V26.4H404.186V24.9V23.4H370.886V24.9ZM452.526 40.5H451.026V45.293L453.758 41.3551L452.526 40.5ZM464.976 28.8L465.74 30.0909L465.749 30.0851L465.759 30.0793L464.976 28.8ZM480.276 24.3H481.776V22.8H480.276V24.3ZM480.276 59.85V61.35H481.776V59.85H480.276ZM456.876 63.15L455.989 61.9404L455.979 61.9476L455.969 61.955L456.876 63.15ZM452.526 109.5V111H454.026V109.5H452.526ZM419.226 109.5H417.726V111H419.226V109.5ZM419.226 24.9V23.4H417.726V24.9H419.226ZM452.526 24.9H454.026V23.4H452.526V24.9ZM452.526 40.5L453.758 41.3551C457.041 36.6238 461.034 32.8758 465.74 30.0909L464.976 28.8L464.212 27.5091C459.117 30.5242 454.81 34.5762 451.293 39.6449L452.526 40.5ZM464.976 28.8L465.759 30.0793C470.444 27.211 475.275 25.8 480.276 25.8V24.3V22.8C474.676 22.8 469.308 24.389 464.192 27.5207L464.976 28.8ZM480.276 24.3H478.776V59.85H480.276H481.776V24.3H480.276ZM480.276 59.85V58.35H470.826V59.85V61.35H480.276V59.85ZM470.826 59.85V58.35C464.406 58.35 459.37 59.4606 455.989 61.9404L456.876 63.15L457.763 64.3596C460.381 62.4394 464.645 61.35 470.826 61.35V59.85ZM456.876 63.15L455.969 61.955C452.529 64.565 451.026 69.0394 451.026 74.85H452.526H454.026C454.026 69.4606 455.423 66.135 457.782 64.345L456.876 63.15ZM452.526 74.85H451.026V109.5H452.526H454.026V74.85H452.526ZM452.526 109.5V108H419.226V109.5V111H452.526V109.5ZM419.226 109.5H420.726V24.9H419.226H417.726V109.5H419.226ZM419.226 24.9V26.4H452.526V24.9V23.4H419.226V24.9ZM452.526 24.9H451.026V40.5H452.526H454.026V24.9H452.526ZM14.9445 261.7L14.0588 262.911L14.0671 262.917L14.0755 262.923L14.9445 261.7ZM1.59453 235.45V233.95H0.000457764L0.0973053 235.541L1.59453 235.45ZM36.9945 235.45L38.4895 235.327L38.3766 233.95H36.9945V235.45ZM49.5945 243.4L50.4266 244.648L50.4375 244.641L50.4483 244.633L49.5945 243.4ZM47.4945 233.35L46.7298 234.64L46.7478 234.651L46.7661 234.661L47.4945 233.35ZM34.8945 227.95L34.3953 229.364L34.3979 229.365L34.8945 227.95ZM17.9445 220.9L17.2496 222.229L17.2619 222.236L17.9445 220.9ZM6.54453 210.85L7.75763 209.968V209.968L6.54453 210.85ZM1.89453 193.9L3.39438 193.922L3.39453 193.911V193.9H1.89453ZM7.14453 176.35L5.9357 175.462L5.93253 175.466L7.14453 176.35ZM21.6945 165.25L21.1336 163.859L21.1257 163.862L21.6945 165.25ZM73.4445 170.5L72.515 171.677L72.5226 171.683L73.4445 170.5ZM85.5945 195.85V197.35H87.1506L87.0935 195.795L85.5945 195.85ZM49.7445 195.85L48.2454 195.9L48.2937 197.35H49.7445V195.85ZM38.9445 188.95L40.0052 190.011L40.0331 189.983L40.0595 189.953L38.9445 188.95ZM41.4945 198.85L40.7084 200.127L40.7368 200.145L40.7661 200.161L41.4945 198.85ZM54.2445 204.4L53.7125 205.803L53.7202 205.805L54.2445 204.4ZM70.7445 211.6L70.037 212.923L70.0433 212.926L70.0497 212.929L70.7445 211.6ZM82.1445 221.2L80.9621 222.123V222.123L82.1445 221.2ZM82.1445 254.2L83.4152 254.997L83.422 254.986L82.1445 254.2ZM68.1945 266.2L67.5505 264.845L68.1945 266.2ZM46.4445 270.55V269.05C33.9783 269.05 23.803 266.157 15.8136 260.477L14.9445 261.7L14.0755 262.923C22.6861 269.043 33.5108 272.05 46.4445 272.05V270.55ZM14.9445 261.7L15.8303 260.489C8.04141 254.79 3.76872 246.48 3.09177 235.359L1.59453 235.45L0.0973053 235.541C0.820343 247.42 5.44765 256.61 14.0588 262.911L14.9445 261.7ZM1.59453 235.45V236.95H36.9945V235.45V233.95H1.59453V235.45ZM36.9945 235.45L35.4995 235.573C35.7634 238.791 36.6226 241.444 38.2714 243.307C39.9636 245.218 42.3101 246.1 45.0945 246.1V244.6V243.1C42.979 243.1 41.5255 242.457 40.5177 241.318C39.4664 240.131 38.7257 238.209 38.4895 235.327L36.9945 235.45ZM45.0945 244.6V246.1C47.117 246.1 48.9253 245.649 50.4266 244.648L49.5945 243.4L48.7625 242.152C47.8637 242.751 46.672 243.1 45.0945 243.1V244.6ZM49.5945 243.4L50.4483 244.633C52.2139 243.411 53.0445 241.563 53.0445 239.35H51.5445H50.0445C50.0445 240.737 49.5751 241.589 48.7407 242.167L49.5945 243.4ZM51.5445 239.35H53.0445C53.0445 236.169 51.2671 233.73 48.223 232.039L47.4945 233.35L46.7661 234.661C49.122 235.97 50.0445 237.531 50.0445 239.35H51.5445ZM47.4945 233.35L48.2592 232.06C45.4286 230.382 41.1157 228.543 35.3912 226.535L34.8945 227.95L34.3979 229.365C40.0734 231.357 44.1604 233.118 46.7298 234.64L47.4945 233.35ZM34.8945 227.95L35.3938 226.536C28.6325 224.149 23.0488 221.824 18.6272 219.564L17.9445 220.9L17.2619 222.236C21.8403 224.576 27.5566 226.951 34.3953 229.364L34.8945 227.95ZM17.9445 220.9L18.6394 219.571C14.4633 217.388 10.8349 214.199 7.75763 209.968L6.54453 210.85L5.33142 211.732C8.65417 216.301 12.6257 219.812 17.2496 222.229L17.9445 220.9ZM6.54453 210.85L7.75763 209.968C4.79442 205.893 3.29781 200.585 3.39438 193.922L1.89453 193.9L0.394684 193.878C0.29126 201.015 1.89464 207.007 5.33142 211.732L6.54453 210.85ZM1.89453 193.9H3.39453C3.39453 187.265 5.07274 181.737 8.35654 177.234L7.14453 176.35L5.93253 175.466C2.21632 180.563 0.394531 186.735 0.394531 193.9H1.89453ZM7.14453 176.35L8.35335 177.238C11.7764 172.579 16.3963 169.042 22.2634 166.638L21.6945 165.25L21.1257 163.862C14.7928 166.458 9.71272 170.321 5.93571 175.462L7.14453 176.35ZM21.6945 165.25L22.2555 166.641C28.2523 164.223 35.0079 163 42.5445 163V161.5V160C34.6812 160 27.5368 161.277 21.1336 163.859L21.6945 165.25ZM42.5445 161.5V163C55.3224 163 65.2579 165.948 72.5151 171.677L73.4445 170.5L74.374 169.323C66.4312 163.052 55.7666 160 42.5445 160V161.5ZM73.4445 170.5L72.5226 171.683C79.8293 177.377 83.7097 185.389 84.0956 195.905L85.5945 195.85L87.0935 195.795C86.6794 184.511 82.4597 175.623 74.3665 169.317L73.4445 170.5ZM85.5945 195.85V194.35H49.7445V195.85V197.35H85.5945V195.85ZM49.7445 195.85L51.2437 195.8C51.1378 192.622 50.3382 189.994 48.5152 188.301L47.4945 189.4L46.4739 190.499C47.4509 191.406 48.1513 193.078 48.2454 195.9L49.7445 195.85ZM47.4945 189.4L48.5152 188.301C46.8238 186.73 44.7536 185.95 42.3945 185.95V187.45V188.95C44.0354 188.95 45.3653 189.47 46.4739 190.499L47.4945 189.4ZM42.3945 187.45V185.95C40.5889 185.95 39.0269 186.616 37.8296 187.947L38.9445 188.95L40.0595 189.953C40.6622 189.284 41.4002 188.95 42.3945 188.95V187.45ZM38.9445 188.95L37.8839 187.889C36.6181 189.155 36.0945 190.89 36.0945 192.85H37.5945H39.0945C39.0945 191.41 39.4709 190.545 40.0052 190.011L38.9445 188.95ZM37.5945 192.85H36.0945C36.0945 195.915 37.8028 198.339 40.7084 200.127L41.4945 198.85L42.2807 197.573C39.9863 196.161 39.0945 194.585 39.0945 192.85H37.5945ZM41.4945 198.85L40.7661 200.161C43.5647 201.716 47.8981 203.597 53.7126 205.802L54.2445 204.4L54.7765 202.997C48.991 200.803 44.8244 198.984 42.223 197.539L41.4945 198.85ZM54.2445 204.4L53.7202 205.805C60.3834 208.292 65.8165 210.665 70.037 212.923L70.7445 211.6L71.452 210.277C67.0726 207.935 61.5056 205.508 54.7689 202.995L54.2445 204.4ZM70.7445 211.6L70.0497 212.929C74.251 215.125 77.8873 218.183 80.9621 222.123L82.1445 221.2L83.327 220.277C80.0017 216.017 76.0381 212.675 71.4394 210.271L70.7445 211.6ZM82.1445 221.2L80.9621 222.123C83.9188 225.911 85.4445 230.718 85.4445 236.65H86.9445H88.4445C88.4445 230.182 86.7703 224.689 83.327 220.277L82.1445 221.2ZM86.9445 236.65H85.4445C85.4445 242.891 83.9121 248.466 80.867 253.414L82.1445 254.2L83.422 254.986C86.777 249.534 88.4445 243.409 88.4445 236.65H86.9445ZM82.1445 254.2L80.8739 253.403C77.8435 258.233 73.4252 262.052 67.5505 264.845L68.1945 266.2L68.8386 267.555C75.1638 264.548 80.0456 260.367 83.4151 254.997L82.1445 254.2ZM68.1945 266.2L67.5505 264.845C61.6946 267.629 54.6747 269.05 46.4445 269.05V270.55V272.05C55.0144 272.05 62.4945 270.571 68.8386 267.555L68.1945 266.2ZM180.095 233.05V234.55H181.395L181.579 233.262L180.095 233.05ZM126.545 233.05V231.55H124.938L125.048 233.152L126.545 233.05ZM143.495 239.05V237.55H142.555L142.145 238.396L143.495 239.05ZM178.745 239.05L180.215 239.344L180.574 237.55H178.745V239.05ZM171.095 255.25L169.93 254.304L169.928 254.307L171.095 255.25ZM156.545 266.5L157.178 267.86L157.188 267.855L156.545 266.5ZM114.845 265.3L114.133 266.621L114.142 266.625L114.845 265.3ZM99.5445 250.3L98.2277 251.018L98.2342 251.03L98.2409 251.042L99.5445 250.3ZM99.5445 204.25L98.2361 203.516L98.2323 203.523L99.5445 204.25ZM114.845 189.1L114.142 187.775L114.133 187.779L114.845 189.1ZM159.695 189.1L158.983 190.421L158.995 190.427L159.008 190.433L159.695 189.1ZM174.995 203.8L173.687 204.535L173.691 204.543L173.696 204.551L174.995 203.8ZM146.795 218.5V220H148.295V218.5H146.795ZM144.095 212.2L143.134 213.352L143.154 213.368L143.174 213.384L144.095 212.2ZM126.995 218.5L125.517 218.241L125.208 220H126.995V218.5ZM180.545 226.45H179.045C179.045 228.685 178.899 230.814 178.61 232.838L180.095 233.05L181.579 233.262C181.89 231.086 182.045 228.815 182.045 226.45H180.545ZM180.095 233.05V231.55H126.545V233.05V234.55H180.095V233.05ZM126.545 233.05L125.048 233.152C125.309 236.959 126.245 240.057 128.056 242.224C129.918 244.452 132.538 245.5 135.695 245.5V244V242.5C133.252 242.5 131.546 241.723 130.358 240.301C129.119 238.818 128.28 236.441 128.041 232.947L126.545 233.05ZM135.695 244V245.5C137.73 245.5 139.57 245.031 141.148 244.029C142.725 243.028 143.946 241.557 144.844 239.704L143.495 239.05L142.145 238.396C141.443 239.843 140.564 240.847 139.541 241.496C138.519 242.144 137.259 242.5 135.695 242.5V244ZM143.495 239.05V240.55H178.745V239.05V237.55H143.495V239.05ZM178.745 239.05L177.274 238.756C176.122 244.514 173.678 249.691 169.93 254.304L171.095 255.25L172.259 256.196C176.311 251.209 178.967 245.586 180.215 239.344L178.745 239.05ZM171.095 255.25L169.928 254.307C166.281 258.818 161.615 262.433 155.901 265.145L156.545 266.5L157.188 267.855C163.274 264.967 168.308 261.082 172.261 256.193L171.095 255.25ZM156.545 266.5L155.911 265.14C150.328 267.739 144.147 269.05 137.345 269.05V270.55V272.05C144.542 272.05 151.161 270.661 157.178 267.86L156.545 266.5ZM137.345 270.55V269.05C129.159 269.05 121.905 267.346 115.547 263.975L114.845 265.3L114.142 266.625C120.984 270.254 128.73 272.05 137.345 272.05V270.55ZM114.845 265.3L115.556 263.979C109.307 260.615 104.411 255.817 100.848 249.558L99.5445 250.3L98.2409 251.042C102.078 257.783 107.382 262.985 114.133 266.621L114.845 265.3ZM99.5445 250.3L100.861 249.582C97.4006 243.237 95.6445 235.792 95.6445 227.2H94.1445H92.6445C92.6445 236.208 94.4885 244.163 98.2277 251.018L99.5445 250.3ZM94.1445 227.2H95.6445C95.6445 218.607 97.4008 211.217 100.857 204.977L99.5445 204.25L98.2323 203.523C94.4883 210.283 92.6445 218.193 92.6445 227.2H94.1445ZM99.5445 204.25L100.853 204.984C104.417 198.625 109.313 193.782 115.556 190.421L114.845 189.1L114.133 187.779C107.376 191.418 102.072 196.675 98.2361 203.516L99.5445 204.25ZM114.845 189.1L115.547 190.425C121.905 187.054 129.159 185.35 137.345 185.35V183.85V182.35C128.73 182.35 120.984 184.146 114.142 187.775L114.845 189.1ZM137.345 183.85V185.35C145.531 185.35 152.73 187.054 158.983 190.421L159.695 189.1L160.406 187.779C153.659 184.146 145.958 182.35 137.345 182.35V183.85ZM159.695 189.1L159.008 190.433C165.35 193.701 170.233 198.394 173.687 204.535L174.995 203.8L176.302 203.065C172.556 196.406 167.239 191.299 160.381 187.767L159.695 189.1ZM174.995 203.8L173.696 204.551C177.242 210.685 179.045 217.967 179.045 226.45H180.545H182.045C182.045 217.533 180.147 209.715 176.293 203.049L174.995 203.8ZM146.795 218.5H148.295C148.295 215.354 147.264 212.765 145.015 211.016L144.095 212.2L143.174 213.384C144.525 214.435 145.295 216.046 145.295 218.5H146.795ZM144.095 212.2L145.055 211.048C142.945 209.289 140.339 208.45 137.345 208.45V209.95V211.45C139.75 211.45 141.644 212.111 143.134 213.352L144.095 212.2ZM137.345 209.95V208.45C134.158 208.45 131.446 209.222 129.377 210.931C127.304 212.643 126.06 215.144 125.517 218.241L126.995 218.5L128.472 218.759C128.929 216.156 129.91 214.382 131.287 213.244C132.668 212.103 134.631 211.45 137.345 211.45V209.95ZM126.995 218.5V220H146.795V218.5V217H126.995V218.5ZM224.376 200.5H222.876V205.293L225.609 201.355L224.376 200.5ZM236.826 188.8L237.59 190.091L237.6 190.085L237.609 190.079L236.826 188.8ZM252.126 184.3H253.626V182.8H252.126V184.3ZM252.126 219.85V221.35H253.626V219.85H252.126ZM228.726 223.15L227.839 221.94L227.829 221.948L227.82 221.955L228.726 223.15ZM224.376 269.5V271H225.876V269.5H224.376ZM191.076 269.5H189.576V271H191.076V269.5ZM191.076 184.9V183.4H189.576V184.9H191.076ZM224.376 184.9H225.876V183.4H224.376V184.9ZM224.376 200.5L225.609 201.355C228.892 196.624 232.885 192.876 237.59 190.091L236.826 188.8L236.062 187.509C230.968 190.524 226.661 194.576 223.144 199.645L224.376 200.5ZM236.826 188.8L237.609 190.079C242.294 187.211 247.126 185.8 252.126 185.8V184.3V182.8C246.527 182.8 241.158 184.389 236.043 187.521L236.826 188.8ZM252.126 184.3H250.626V219.85H252.126H253.626V184.3H252.126ZM252.126 219.85V218.35H242.676V219.85V221.35H252.126V219.85ZM242.676 219.85V218.35C236.257 218.35 231.221 219.461 227.839 221.94L228.726 223.15L229.613 224.36C232.232 222.439 236.496 221.35 242.676 221.35V219.85ZM228.726 223.15L227.82 221.955C224.379 224.565 222.876 229.039 222.876 234.85H224.376H225.876C225.876 229.461 227.273 226.135 229.633 224.345L228.726 223.15ZM224.376 234.85H222.876V269.5H224.376H225.876V234.85H224.376ZM224.376 269.5V268H191.076V269.5V271H224.376V269.5ZM191.076 269.5H192.576V184.9H191.076H189.576V269.5H191.076ZM191.076 184.9V186.4H224.376V184.9V183.4H191.076V184.9ZM224.376 184.9H222.876V200.5H224.376H225.876V184.9H224.376ZM303.996 237.85L302.543 238.224L305.449 238.221L303.996 237.85ZM317.496 184.9V183.4H316.33L316.042 184.529L317.496 184.9ZM352.896 184.9L354.319 185.374L354.977 183.4H352.896V184.9ZM324.696 269.5V271H325.777L326.119 269.974L324.696 269.5ZM283.146 269.5L281.723 269.974L282.065 271H283.146V269.5ZM254.946 184.9V183.4H252.865L253.523 185.374L254.946 184.9ZM290.346 184.9L291.798 184.526L291.508 183.4H290.346V184.9ZM303.996 237.85L305.449 238.221L318.949 185.271L317.496 184.9L316.042 184.529L302.542 237.479L303.996 237.85ZM317.496 184.9V186.4H352.896V184.9V183.4H317.496V184.9ZM352.896 184.9L351.473 184.426L323.273 269.026L324.696 269.5L326.119 269.974L354.319 185.374L352.896 184.9ZM324.696 269.5V268H283.146V269.5V271H324.696V269.5ZM283.146 269.5L284.569 269.026L256.369 184.426L254.946 184.9L253.523 185.374L281.723 269.974L283.146 269.5ZM254.946 184.9V186.4H290.346V184.9V183.4H254.946V184.9ZM290.346 184.9L288.893 185.274L302.543 238.224L303.996 237.85L305.448 237.476L291.798 184.526L290.346 184.9ZM364.58 173.5L365.575 172.377V172.377L364.58 173.5ZM364.58 149.95L365.575 151.073L365.584 151.065L365.593 151.057L364.58 149.95ZM392.33 149.95L391.318 151.057L391.327 151.065L391.336 151.073L392.33 149.95ZM392.33 173.5L391.336 172.377V172.377L392.33 173.5ZM395.03 184.9H396.53V183.4H395.03V184.9ZM395.03 269.5V271H396.53V269.5H395.03ZM361.73 269.5H360.23V271H361.73V269.5ZM361.73 184.9V183.4H360.23V184.9H361.73ZM378.53 178.15V176.65C373.005 176.65 368.739 175.18 365.575 172.377L364.58 173.5L363.586 174.623C367.422 178.02 372.456 179.65 378.53 179.65V178.15ZM364.58 173.5L365.575 172.377C362.398 169.564 360.83 166.073 360.83 161.8H359.33H357.83C357.83 166.927 359.763 171.236 363.586 174.623L364.58 173.5ZM359.33 161.8H360.83C360.83 157.416 362.406 153.88 365.575 151.073L364.58 149.95L363.586 148.827C359.755 152.22 357.83 156.584 357.83 161.8H359.33ZM364.58 149.95L365.593 151.057C368.758 148.163 373.017 146.65 378.53 146.65V145.15V143.65C372.444 143.65 367.403 145.337 363.568 148.843L364.58 149.95ZM378.53 145.15V146.65C383.936 146.65 388.149 148.159 391.318 151.057L392.33 149.95L393.343 148.843C389.512 145.341 384.525 143.65 378.53 143.65V145.15ZM392.33 149.95L391.336 151.073C394.505 153.88 396.08 157.416 396.08 161.8H397.58H399.08C399.08 156.584 397.156 152.22 393.325 148.827L392.33 149.95ZM397.58 161.8H396.08C396.08 166.073 394.513 169.564 391.336 172.377L392.33 173.5L393.325 174.623C397.148 171.236 399.08 166.927 399.08 161.8H397.58ZM392.33 173.5L391.336 172.377C388.167 175.184 383.948 176.65 378.53 176.65V178.15V179.65C384.513 179.65 389.494 178.016 393.325 174.623L392.33 173.5ZM395.03 184.9H393.53V269.5H395.03H396.53V184.9H395.03ZM395.03 269.5V268H361.73V269.5V271H395.03V269.5ZM361.73 269.5H363.23V184.9H361.73H360.23V269.5H361.73ZM361.73 184.9V186.4H395.03V184.9V183.4H361.73V184.9ZM410.97 204.25L409.662 203.516L409.658 203.523L410.97 204.25ZM426.27 189.1L425.568 187.775L425.559 187.779L426.27 189.1ZM476.52 193.15L475.565 194.306L475.572 194.312L476.52 193.15ZM490.92 218.95V220.45H492.718L492.396 218.682L490.92 218.95ZM455.67 218.95L454.232 219.375L454.549 220.45H455.67V218.95ZM441.57 216.1L440.307 215.291L440.295 215.31L440.284 215.328L441.57 216.1ZM441.57 238.3L440.284 239.072L440.295 239.09L440.307 239.109L441.57 238.3ZM455.67 235.45V233.95H454.549L454.232 235.025L455.67 235.45ZM490.92 235.45L492.396 235.718L492.718 233.95H490.92V235.45ZM476.52 261.25L475.572 260.088L475.565 260.094L476.52 261.25ZM426.27 265.3L425.559 266.621L425.568 266.625L426.27 265.3ZM410.97 250.3L409.653 251.018L409.66 251.03L409.667 251.042L410.97 250.3ZM405.57 227.2H407.07C407.07 218.607 408.827 211.217 412.282 204.977L410.97 204.25L409.658 203.523C405.914 210.283 404.07 218.193 404.07 227.2H405.57ZM410.97 204.25L412.279 204.984C415.843 198.625 420.739 193.782 426.981 190.421L426.27 189.1L425.559 187.779C418.802 191.418 413.497 196.675 409.662 203.516L410.97 204.25ZM426.27 189.1L426.973 190.425C433.331 187.054 440.584 185.35 448.77 185.35V183.85V182.35C440.156 182.35 432.41 184.146 425.568 187.775L426.27 189.1ZM448.77 183.85V185.35C459.47 185.35 468.368 188.357 475.565 194.306L476.52 193.15L477.476 191.994C469.672 185.543 460.071 182.35 448.77 182.35V183.85ZM476.52 193.15L475.572 194.312C482.857 200.255 487.499 208.517 489.445 219.218L490.92 218.95L492.396 218.682C490.342 207.383 485.384 198.445 477.469 191.988L476.52 193.15ZM490.92 218.95V217.45H455.67V218.95V220.45H490.92V218.95ZM455.67 218.95L457.109 218.525C456.406 216.146 455.321 214.209 453.763 212.864C452.18 211.499 450.231 210.85 448.02 210.85V212.35V213.85C449.61 213.85 450.835 214.301 451.803 215.136C452.794 215.991 453.635 217.354 454.232 219.375L455.67 218.95ZM448.02 212.35V210.85C444.751 210.85 442.15 212.411 440.307 215.291L441.57 216.1L442.834 216.909C444.191 214.788 445.889 213.85 448.02 213.85V212.35ZM441.57 216.1L440.284 215.328C438.579 218.17 437.82 222.192 437.82 227.2H439.32H440.82C440.82 222.408 441.562 219.03 442.857 216.872L441.57 216.1ZM439.32 227.2H437.82C437.82 232.208 438.579 236.23 440.284 239.072L441.57 238.3L442.857 237.528C441.562 235.37 440.82 231.992 440.82 227.2H439.32ZM441.57 238.3L440.307 239.109C442.15 241.988 444.751 243.55 448.02 243.55V242.05V240.55C445.889 240.55 444.191 239.611 442.834 237.491L441.57 238.3ZM448.02 242.05V243.55C450.231 243.55 452.18 242.901 453.763 241.536C455.321 240.191 456.406 238.254 457.109 235.875L455.67 235.45L454.232 235.025C453.635 237.046 452.794 238.409 451.803 239.264C450.835 240.099 449.61 240.55 448.02 240.55V242.05ZM455.67 235.45V236.95H490.92V235.45V233.95H455.67V235.45ZM490.92 235.45L489.445 235.182C487.499 245.883 482.857 254.145 475.572 260.088L476.52 261.25L477.469 262.412C485.384 255.955 490.342 247.017 492.396 235.718L490.92 235.45ZM476.52 261.25L475.565 260.094C468.368 266.043 459.47 269.05 448.77 269.05V270.55V272.05C460.071 272.05 469.672 268.857 477.476 262.406L476.52 261.25ZM448.77 270.55V269.05C440.584 269.05 433.331 267.346 426.973 263.975L426.27 265.3L425.568 266.625C432.41 270.254 440.156 272.05 448.77 272.05V270.55ZM426.27 265.3L426.981 263.979C420.733 260.615 415.837 255.817 412.274 249.558L410.97 250.3L409.667 251.042C413.504 257.783 418.808 262.985 425.559 266.621L426.27 265.3ZM410.97 250.3L412.287 249.582C408.826 243.237 407.07 235.792 407.07 227.2H405.57H404.07C404.07 236.208 405.914 244.163 409.653 251.018L410.97 250.3ZM582.927 233.05V234.55H584.228L584.411 233.262L582.927 233.05ZM529.377 233.05V231.55H527.77L527.88 233.152L529.377 233.05ZM546.327 239.05V237.55H545.387L544.977 238.396L546.327 239.05ZM581.577 239.05L583.047 239.344L583.406 237.55H581.577V239.05ZM573.927 255.25L572.762 254.304L572.76 254.307L573.927 255.25ZM559.377 266.5L560.01 267.86L560.02 267.855L559.377 266.5ZM517.677 265.3L516.965 266.621L516.974 266.625L517.677 265.3ZM502.377 250.3L501.06 251.018L501.066 251.03L501.073 251.042L502.377 250.3ZM502.377 204.25L501.068 203.516L501.064 203.523L502.377 204.25ZM517.677 189.1L516.974 187.775L516.965 187.779L517.677 189.1ZM562.527 189.1L561.815 190.421L561.827 190.427L561.84 190.433L562.527 189.1ZM577.827 203.8L576.519 204.535L576.524 204.543L576.528 204.551L577.827 203.8ZM549.627 218.5V220H551.127V218.5H549.627ZM546.927 212.2L545.966 213.352L545.986 213.368L546.006 213.384L546.927 212.2ZM529.827 218.5L528.349 218.241L528.041 220H529.827V218.5ZM583.377 226.45H581.877C581.877 228.685 581.731 230.814 581.442 232.838L582.927 233.05L584.411 233.262C584.722 231.086 584.877 228.815 584.877 226.45H583.377ZM582.927 233.05V231.55H529.377V233.05V234.55H582.927V233.05ZM529.377 233.05L527.88 233.152C528.141 236.959 529.077 240.057 530.888 242.224C532.75 244.452 535.37 245.5 538.527 245.5V244V242.5C536.084 242.5 534.378 241.723 533.19 240.301C531.951 238.818 531.112 236.441 530.873 232.947L529.377 233.05ZM538.527 244V245.5C540.562 245.5 542.402 245.031 543.98 244.029C545.557 243.028 546.778 241.557 547.676 239.704L546.327 239.05L544.977 238.396C544.275 239.843 543.396 240.847 542.373 241.496C541.351 242.144 540.091 242.5 538.527 242.5V244ZM546.327 239.05V240.55H581.577V239.05V237.55H546.327V239.05ZM581.577 239.05L580.106 238.756C578.954 244.514 576.51 249.691 572.762 254.304L573.927 255.25L575.091 256.196C579.143 251.209 581.799 245.586 583.047 239.344L581.577 239.05ZM573.927 255.25L572.76 254.307C569.113 258.818 564.447 262.433 558.733 265.145L559.377 266.5L560.02 267.855C566.106 264.967 571.141 261.082 575.093 256.193L573.927 255.25ZM559.377 266.5L558.744 265.14C553.16 267.739 546.979 269.05 540.177 269.05V270.55V272.05C547.374 272.05 553.993 270.661 560.01 267.86L559.377 266.5ZM540.177 270.55V269.05C531.991 269.05 524.737 267.346 518.379 263.975L517.677 265.3L516.974 266.625C523.816 270.254 531.562 272.05 540.177 272.05V270.55ZM517.677 265.3L518.388 263.979C512.139 260.615 507.243 255.817 503.68 249.558L502.377 250.3L501.073 251.042C504.91 257.783 510.214 262.985 516.965 266.621L517.677 265.3ZM502.377 250.3L503.693 249.582C500.233 243.237 498.477 235.792 498.477 227.2H496.977H495.477C495.477 236.208 497.32 244.163 501.06 251.018L502.377 250.3ZM496.977 227.2H498.477C498.477 218.607 500.233 211.217 503.689 204.977L502.377 204.25L501.064 203.523C497.32 210.283 495.477 218.193 495.477 227.2H496.977ZM502.377 204.25L503.685 204.984C507.249 198.625 512.145 193.782 518.388 190.421L517.677 189.1L516.965 187.779C510.208 191.418 504.904 196.675 501.068 203.516L502.377 204.25ZM517.677 189.1L518.379 190.425C524.737 187.054 531.991 185.35 540.177 185.35V183.85V182.35C531.562 182.35 523.816 184.146 516.974 187.775L517.677 189.1ZM540.177 183.85V185.35C548.363 185.35 555.563 187.054 561.815 190.421L562.527 189.1L563.238 187.779C556.491 184.146 548.79 182.35 540.177 182.35V183.85ZM562.527 189.1L561.84 190.433C568.182 193.701 573.065 198.394 576.519 204.535L577.827 203.8L579.134 203.065C575.388 196.406 570.071 191.299 563.214 187.767L562.527 189.1ZM577.827 203.8L576.528 204.551C580.074 210.685 581.877 217.967 581.877 226.45H583.377H584.877C584.877 217.533 582.979 209.715 579.125 203.049L577.827 203.8ZM549.627 218.5H551.127C551.127 215.354 550.096 212.765 547.847 211.016L546.927 212.2L546.006 213.384C547.357 214.435 548.127 216.046 548.127 218.5H549.627ZM546.927 212.2L547.887 211.048C545.777 209.289 543.171 208.45 540.177 208.45V209.95V211.45C542.582 211.45 544.476 212.111 545.966 213.352L546.927 212.2ZM540.177 209.95V208.45C536.99 208.45 534.278 209.222 532.209 210.931C530.136 212.643 528.892 215.144 528.349 218.241L529.827 218.5L531.304 218.759C531.761 216.156 532.742 214.382 534.119 213.244C535.5 212.103 537.463 211.45 540.177 211.45V209.95ZM529.827 218.5V220H549.627V218.5V217H529.827V218.5ZM610.258 266.65L609.67 268.03L609.678 268.033L610.258 266.65ZM589.558 240.25V238.75H587.923L588.064 240.379L589.558 240.25ZM621.508 240.25L622.989 240.013L622.787 238.75H621.508V240.25ZM624.658 245.8L623.793 247.025L623.81 247.037L623.826 247.048L624.658 245.8ZM635.458 246.55L636.318 247.779L636.358 247.751L636.395 247.721L635.458 246.55ZM623.158 236.95L623.452 235.479L623.448 235.478L623.158 236.95ZM608.008 233.05L607.501 234.462L607.513 234.466L608.008 233.05ZM597.658 225.85L596.517 226.823L596.525 226.833L596.533 226.842L597.658 225.85ZM597.358 197.65L596.101 196.831L596.096 196.839L597.358 197.65ZM609.658 187.6L610.267 188.971L610.278 188.966L610.288 188.961L609.658 187.6ZM656.008 192.25L655.02 193.379L655.029 193.386L656.008 192.25ZM667.708 214.15V215.65H669.44L669.193 213.936L667.708 214.15ZM638.158 214.15L636.692 214.469L636.949 215.65H638.158V214.15ZM635.008 208.9L634.062 210.064L634.085 210.083L634.108 210.1L635.008 208.9ZM624.658 208L625.49 209.248L625.536 209.218L625.579 209.184L624.658 208ZM626.458 214.75L625.867 216.129L625.896 216.141L625.924 216.152L626.458 214.75ZM636.508 217.3L636.798 215.828L636.796 215.828L636.508 217.3ZM651.958 221.35L651.454 222.763V222.763L651.958 221.35ZM662.908 229.15L661.758 230.113L661.765 230.121L661.772 230.129L662.908 229.15ZM663.208 257.65L664.423 258.53V258.53L663.208 257.65ZM650.608 267.1L650.029 265.716L650.02 265.72L650.608 267.1ZM631.558 270.55V269.05C623.72 269.05 616.823 267.777 610.838 265.267L610.258 266.65L609.678 268.033C616.093 270.723 623.396 272.05 631.558 272.05V270.55ZM610.258 266.65L610.846 265.27C604.947 262.756 600.313 259.3 596.889 254.926L595.708 255.85L594.527 256.774C598.303 261.6 603.369 265.344 609.67 268.03L610.258 266.65ZM595.708 255.85L596.889 254.926C593.468 250.554 591.528 245.63 591.053 240.121L589.558 240.25L588.064 240.379C588.589 246.47 590.748 251.946 594.527 256.774L595.708 255.85ZM589.558 240.25V241.75H621.508V240.25V238.75H589.558V240.25ZM621.508 240.25L620.027 240.487C620.476 243.294 621.694 245.543 623.793 247.025L624.658 245.8L625.523 244.575C624.223 243.657 623.34 242.206 622.989 240.013L621.508 240.25ZM624.658 245.8L623.826 247.048C625.927 248.449 628.486 249.1 631.408 249.1V247.6V246.1C628.931 246.1 626.989 245.551 625.49 244.552L624.658 245.8ZM631.408 247.6V249.1C633.299 249.1 634.985 248.712 636.318 247.779L635.458 246.55L634.598 245.321C633.932 245.788 632.918 246.1 631.408 246.1V247.6ZM635.458 246.55L636.395 247.721C637.686 246.689 638.458 245.333 638.458 243.7H636.958H635.458C635.458 244.267 635.231 244.811 634.521 245.379L635.458 246.55ZM636.958 243.7H638.458C638.458 242.456 638.107 241.309 637.355 240.342C636.616 239.392 635.57 238.716 634.342 238.248L633.808 239.65L633.274 241.052C634.146 241.384 634.675 241.783 634.987 242.183C635.284 242.566 635.458 243.044 635.458 243.7H636.958ZM633.808 239.65L634.342 238.248C632.115 237.4 628.458 236.48 623.452 235.479L623.158 236.95L622.864 238.421C627.858 239.42 631.301 240.3 633.274 241.052L633.808 239.65ZM623.158 236.95L623.448 235.478C617.389 234.286 612.413 233.003 608.504 231.634L608.008 233.05L607.513 234.466C611.603 235.897 616.728 237.214 622.869 238.422L623.158 236.95ZM608.008 233.05L608.515 231.638C604.875 230.332 601.632 228.086 598.783 224.858L597.658 225.85L596.533 226.842C599.685 230.414 603.341 232.968 607.501 234.462L608.008 233.05ZM597.658 225.85L598.799 224.877C596.2 221.829 594.808 217.516 594.808 211.75H593.308H591.808C591.808 217.984 593.316 223.071 596.517 226.823L597.658 225.85ZM593.308 211.75H594.808C594.808 206.825 596.082 202.409 598.62 198.461L597.358 197.65L596.096 196.839C593.234 201.291 591.808 206.275 591.808 211.75H593.308ZM597.358 197.65L598.615 198.469C601.234 194.446 605.091 191.271 610.267 188.971L609.658 187.6L609.049 186.229C603.425 188.729 599.082 192.254 596.101 196.831L597.358 197.65ZM609.658 187.6L610.288 188.961C615.442 186.575 621.764 185.35 629.308 185.35V183.85V182.35C621.452 182.35 614.675 183.625 609.028 186.239L609.658 187.6ZM629.308 183.85V185.35C640.47 185.35 648.975 188.089 655.02 193.379L656.008 192.25L656.996 191.121C650.241 185.211 640.946 182.35 629.308 182.35V183.85ZM656.008 192.25L655.029 193.386C661.238 198.735 664.972 205.699 666.224 214.364L667.708 214.15L669.193 213.936C667.844 204.601 663.779 196.965 656.987 191.114L656.008 192.25ZM667.708 214.15V212.65H638.158V214.15V215.65H667.708V214.15ZM638.158 214.15L639.624 213.831C639.062 211.245 637.846 209.153 635.908 207.7L635.008 208.9L634.108 210.1C635.37 211.047 636.255 212.455 636.692 214.469L638.158 214.15ZM635.008 208.9L635.954 207.736C634.014 206.159 631.495 205.45 628.558 205.45V206.95V208.45C631.021 208.45 632.803 209.041 634.062 210.064L635.008 208.9ZM628.558 206.95V205.45C626.681 205.45 625.002 205.832 623.737 206.816L624.658 208L625.579 209.184C626.114 208.768 627.035 208.45 628.558 208.45V206.95ZM624.658 208L623.826 206.752C622.421 207.689 621.808 209.165 621.808 210.85H623.308H624.808C624.808 209.935 625.096 209.511 625.49 209.248L624.658 208ZM623.308 210.85H621.808C621.808 212.037 622.184 213.121 622.929 214.043C623.653 214.94 624.671 215.616 625.867 216.129L626.458 214.75L627.049 213.371C626.145 212.984 625.588 212.56 625.263 212.158C624.957 211.779 624.808 211.363 624.808 210.85H623.308ZM626.458 214.75L625.924 216.152C628.151 217 631.606 217.869 636.22 218.772L636.508 217.3L636.796 215.828C632.21 214.931 628.966 214.1 626.992 213.348L626.458 214.75ZM636.508 217.3L636.219 218.772C642.272 219.963 647.345 221.295 651.454 222.763L651.958 221.35L652.463 219.937C648.171 218.405 642.945 217.037 636.798 215.828L636.508 217.3ZM651.958 221.35L651.454 222.763C655.382 224.166 658.815 226.6 661.758 230.113L662.908 229.15L664.058 228.187C660.801 224.3 656.934 221.534 652.463 219.937L651.958 221.35ZM662.908 229.15L661.772 230.129C664.566 233.374 666.058 237.984 666.058 244.15H667.558H669.058C669.058 237.516 667.45 232.126 664.045 228.171L662.908 229.15ZM667.558 244.15H666.058C666.058 248.838 664.706 253.029 661.994 256.77L663.208 257.65L664.423 258.53C667.511 254.271 669.058 249.462 669.058 244.15H667.558ZM663.208 257.65L661.994 256.77C659.286 260.504 655.328 263.5 650.029 265.716L650.608 267.1L651.187 268.484C656.888 266.1 661.33 262.796 664.423 258.53L663.208 257.65ZM650.608 267.1L650.02 265.72C644.846 267.924 638.704 269.05 631.558 269.05V270.55V272.05C639.013 272.05 645.571 270.876 651.196 268.48L650.608 267.1Z" fill="black" mask="url(#path-1-outside-1_595_21)"/>
</svg>
