<svg width="1440" height="3462" viewBox="0 0 1440 3462" fill="none" xmlns="http://www.w3.org/2000/svg">
<path d="M2 3462H1437L1437 129H2L2 3462Z" fill="#FFF8FC"/>
<path d="M352.359 1796.88C352.406 1796.61 352.267 1796.35 352.02 1796.24C351.775 1796.13 351.485 1796.2 351.321 1796.42C343.035 1806.98 329.629 1812.05 320.27 1814.94C316.813 1816.01 313.247 1816.99 309.802 1817.93C301.467 1820.21 292.853 1822.57 284.963 1826.45C272.686 1832.5 261.517 1842.91 254.643 1854.63C254.688 1853.91 254.727 1853.2 254.767 1852.5C255.11 1846.37 255.368 1840.3 255.536 1834.36C263.636 1824.57 271.152 1821.99 281.53 1818.43C283.298 1817.82 285.127 1817.19 287.055 1816.49C290.595 1815.21 294.249 1814.02 297.786 1812.87C307.559 1809.68 317.665 1806.38 326.535 1800.87C330.498 1798.41 334.214 1795.46 337.596 1792.12C338.169 1791.68 338.742 1791.23 339.306 1790.75C339.431 1790.65 339.447 1790.47 339.342 1790.35C339.339 1790.34 339.339 1790.34 339.336 1790.34C342.191 1787.3 344.783 1783.97 347.041 1780.41C352.33 1772.08 355.711 1762.65 356.815 1753.15C356.847 1752.88 356.694 1752.63 356.44 1752.53C356.19 1752.44 355.905 1752.53 355.751 1752.75C349.021 1762.57 338.058 1770 321.252 1776.16C317.023 1777.7 312.65 1779.12 308.423 1780.49C299.269 1783.45 289.807 1786.52 281.17 1791.12C267.757 1798.27 259.237 1807.15 255.771 1817.55C255.769 1817.5 255.772 1817.45 255.773 1817.4C255.774 1817.37 255.775 1817.35 255.77 1817.33C255.764 1810.51 255.632 1803.79 255.372 1797.35C255.369 1797.27 255.365 1797.18 255.363 1797.1C255.442 1797.02 255.503 1796.93 255.529 1796.81C257.577 1787.45 264.707 1783.01 272.458 1778.93C278.136 1775.95 284.036 1775.03 290.278 1774.05C293.075 1773.62 295.969 1773.17 298.87 1772.52C308.442 1770.36 317.69 1768.01 325.674 1762.95C337.055 1755.72 344.878 1742.9 346.093 1729.48C346.119 1729.21 345.955 1728.96 345.706 1728.87C345.452 1728.78 345.175 1728.88 345.024 1729.1C344.894 1729.3 344.756 1729.49 344.622 1729.69C344.605 1729.67 344.588 1729.65 344.561 1729.65C344.412 1729.58 344.241 1729.65 344.176 1729.8C343.987 1730.23 343.791 1730.66 343.593 1731.09C337.763 1738.7 328.644 1744.55 315.804 1748.91C310.838 1750.6 305.671 1751.98 300.674 1753.31C294.145 1755.06 287.391 1756.87 280.983 1759.38C267.615 1764.62 259.113 1771.22 254.367 1780.06C254.3 1779.21 254.237 1778.36 254.163 1777.51C254.015 1775.7 253.844 1773.81 253.644 1771.72C253.283 1768.01 252.861 1764.23 252.396 1760.49C258.227 1753.09 266.244 1750.11 274.724 1746.97C276.707 1746.23 278.758 1745.47 280.818 1744.64C282.683 1743.88 284.594 1743.14 286.446 1742.42C295.62 1738.85 305.108 1735.15 313.108 1729.17C325.82 1719.67 334.071 1704.54 335.177 1688.71C335.195 1688.42 335.009 1688.17 334.737 1688.1C334.46 1688.03 334.179 1688.16 334.063 1688.42C330.505 1696.15 323.118 1702.48 312.109 1707.23C307.896 1709.05 303.461 1710.56 299.172 1712.01C294.129 1713.72 288.918 1715.49 284.005 1717.79C270.927 1723.91 258.621 1735.55 250.794 1749.14C250.76 1748.91 250.728 1748.69 250.691 1748.47C250.018 1744.21 249.26 1739.89 248.432 1735.64C251.805 1722.87 262.701 1716.38 274.233 1709.51C275.055 1709.02 275.881 1708.52 276.706 1708.03C282.436 1704.59 288.562 1701.6 294.486 1698.71C301.375 1695.34 308.497 1691.86 315.066 1687.65C329.611 1678.32 338.775 1666.27 340.867 1653.71C340.903 1653.49 340.812 1653.27 340.631 1653.14C340.434 1653.01 340.207 1653 340.012 1653.1C331.298 1657.8 322.001 1661.74 313.01 1665.54C303.676 1669.48 294.028 1673.57 284.989 1678.52C275.488 1683.73 266.941 1690.19 260.27 1697.21C253.137 1704.72 248.119 1712.8 245.325 1721.25C245.062 1720.14 244.807 1719.1 244.56 1718.12C244.559 1718.11 244.555 1718.11 244.556 1718.1C244.555 1718.09 244.554 1718.09 244.554 1718.09C243.098 1712.22 241.48 1706.38 239.736 1700.73C239.73 1700.71 239.723 1700.69 239.717 1700.68C239.283 1699.27 238.818 1697.79 238.329 1696.3C243.018 1686.22 251.734 1682.9 261.819 1679.06C264.326 1678.11 266.915 1677.12 269.536 1676C274.305 1673.94 279.289 1672.12 284.108 1670.36C292.56 1667.27 301.3 1664.08 309.241 1659.5C325.699 1650.01 338.678 1634.28 344.847 1616.31C344.933 1616.06 344.838 1615.78 344.617 1615.63C344.617 1615.63 344.614 1615.63 344.61 1615.63C344.383 1615.48 344.085 1615.51 343.893 1615.7C332.401 1626.56 316.982 1631.85 303.431 1635.95C301.516 1636.53 299.592 1637.11 297.667 1637.67C284.986 1641.43 271.876 1645.32 260.544 1652.45C248.943 1659.75 237.173 1673.44 235.632 1688.35C234.128 1684.11 232.535 1679.92 230.88 1675.85C230.872 1675.83 230.859 1675.81 230.85 1675.79C230.625 1675.23 230.394 1674.67 230.158 1674.11L230.104 1673.98C235.222 1660.51 246.46 1648.93 263.511 1639.56C269.949 1636.02 276.756 1632.9 283.338 1629.88C291.761 1626.02 300.472 1622.03 308.522 1617.12C320.495 1609.8 335.629 1597.23 339.749 1578.87C339.797 1578.65 339.717 1578.43 339.547 1578.29C339.375 1578.14 339.138 1578.11 338.937 1578.21L337.954 1578.65C337.947 1578.64 337.946 1578.64 337.94 1578.63C337.814 1578.54 337.631 1578.56 337.528 1578.69C337.464 1578.77 337.398 1578.85 337.334 1578.93L285.713 1602.2C272.133 1608.32 258.089 1614.65 246.629 1624.7C240.923 1629.71 235.727 1636.73 231.996 1644.47C228.518 1651.69 226.596 1658.87 226.363 1665.42C224.246 1660.78 222.021 1656.24 219.73 1651.9C219.47 1650.7 219.211 1649.5 218.949 1648.3C215.673 1633.18 212.288 1617.55 205.866 1603.62C197.7 1585.91 188.483 1572.1 177.691 1561.4C164.724 1548.56 148.938 1540.15 133.238 1537.74C132.979 1537.7 132.726 1537.83 132.617 1538.07C132.508 1538.3 132.569 1538.59 132.767 1538.76C132.87 1538.85 132.974 1538.94 133.08 1539.03C133.022 1539.06 132.976 1539.11 132.95 1539.18C132.894 1539.33 132.974 1539.5 133.123 1539.55C133.456 1539.68 133.786 1539.81 134.12 1539.94C151.674 1555.51 164.453 1576.35 176.819 1596.52C188.986 1616.36 201.566 1636.87 218.705 1652.45C220.462 1655.79 222.185 1659.24 223.847 1662.77C204.544 1651.79 182.601 1646.02 161.358 1640.43C157.711 1639.47 153.945 1638.48 150.256 1637.48C124.838 1630.58 98.6525 1621.71 79.3446 1603.6C79.1315 1603.4 78.8082 1603.39 78.5812 1603.57C78.3563 1603.75 78.2922 1604.07 78.4375 1604.32C85.5735 1616.82 95.5825 1628.14 107.38 1637.06C109.26 1638.48 111.19 1639.84 113.156 1641.14C123.53 1647.98 135.03 1653.06 146.78 1655.96C155.987 1658.24 165.556 1659.3 174.814 1660.34C179.893 1660.91 185.149 1661.49 190.274 1662.27C204.108 1664.37 218.554 1667.2 229.853 1676.45C231.561 1680.65 233.2 1684.99 234.742 1689.37C227.39 1681.3 215.284 1675.08 199.462 1671.27C184.931 1667.78 167.809 1666.41 151.246 1667.43C146.301 1667.73 141.303 1668.31 136.469 1668.86C131.15 1669.48 125.654 1670.11 120.226 1670.38C107.936 1670.99 98.0483 1669.45 90.003 1665.67C89.7536 1665.56 89.4535 1665.63 89.2884 1665.85C89.1199 1666.07 89.1326 1666.38 89.3132 1666.58C93.3235 1671.22 97.966 1675.26 103.052 1678.61C112.455 1684.81 123.384 1688.67 134.676 1689.59C146.445 1690.55 158.288 1688.38 169.744 1686.28L171.498 1685.96C183.988 1683.68 196.18 1681.78 208.02 1683.49C222.245 1685.56 233.402 1691.99 238.641 1701.17C240.207 1706.24 241.664 1711.48 243.002 1716.76C231.091 1707.4 219.077 1701.34 206.321 1698.25C194.637 1695.42 182.187 1695.11 168.261 1697.27C163.796 1697.97 159.322 1698.98 154.998 1699.97C150.445 1701 145.737 1702.07 141.052 1702.76C130.134 1704.37 121.336 1703.49 114.154 1700.08C113.908 1699.97 113.612 1700.03 113.442 1700.25C113.273 1700.46 113.275 1700.76 113.446 1700.98C115.92 1704.05 118.768 1706.54 121.829 1708.55C133.32 1716.13 147.793 1717.03 156.512 1716.73C164.16 1716.47 171.846 1715.34 179.282 1714.25C187.106 1713.1 195.196 1711.91 203.207 1711.74C212.206 1711.55 234.321 1712.73 245.606 1727.8C246.157 1730.31 246.697 1732.91 247.25 1735.76C247.881 1739.01 248.475 1742.29 249.02 1745.56C241.612 1734.06 226.946 1726.74 214.952 1724.48C204.073 1722.43 192.814 1722.85 181.925 1723.26C179.181 1723.36 176.341 1723.46 173.561 1723.53C160.787 1723.82 146.03 1723.25 133.458 1716.84C133.216 1716.72 132.921 1716.78 132.747 1716.98C132.57 1717.19 132.559 1717.49 132.719 1717.71C136.706 1723.18 141.659 1727.88 147.272 1731.58C152.071 1734.74 157.354 1737.18 162.92 1738.76C172.562 1741.49 182.742 1741.58 192.589 1741.66C199.872 1741.73 207.4 1741.8 214.652 1742.93C228.64 1745.11 240.164 1748.52 250.873 1758.01C250.976 1758.8 251.078 1759.59 251.182 1760.39C251.182 1760.41 251.186 1760.44 251.191 1760.47C251.667 1764.26 252.092 1768.1 252.459 1771.87C252.578 1773.09 252.682 1774.23 252.778 1775.34C245.127 1764.24 232.68 1756.25 217.456 1752.73C207.696 1750.47 197.556 1749.65 187.752 1748.86C182.616 1748.44 177.306 1748.02 172.121 1747.38C153.312 1745.1 139.991 1740.21 130.192 1732.01C129.977 1731.83 129.668 1731.83 129.45 1732C129.233 1732.18 129.169 1732.48 129.296 1732.73C135.067 1743.98 143.704 1753.55 154.195 1760.47C157.526 1762.66 161.047 1764.59 164.72 1766.23C177.607 1771.95 191.849 1773.8 205.623 1775.59C213.086 1776.55 220.801 1777.56 228.217 1779.16C238.014 1781.29 247.895 1784.18 253.877 1790.95C254.005 1793.32 254.103 1795.44 254.176 1797.44C254.411 1803.29 254.542 1809.39 254.567 1815.58C243.994 1801.18 228.181 1790.04 211.924 1785.59C204.173 1783.48 196.065 1782.57 188.223 1781.69C184.543 1781.27 180.741 1780.85 177.028 1780.3C167.901 1778.96 154.631 1776.22 144.798 1768.01C144.607 1767.84 144.339 1767.83 144.126 1767.95C143.912 1768.08 143.8 1768.32 143.85 1768.57C145.521 1776.99 151.324 1785.08 159.773 1790.74C159.88 1790.81 159.984 1790.88 160.088 1790.95C168.424 1796.45 178.03 1799.1 185.492 1800.8C188.904 1801.57 192.391 1802.26 195.766 1802.92C201.251 1804 206.922 1805.11 212.384 1806.65C230.983 1811.87 243.588 1818.39 254.475 1828.41C254.349 1835.22 254.1 1842.27 253.729 1849.4C249.448 1838.06 239.524 1828.03 226.051 1821.56C217.171 1817.3 207.557 1814.53 198.262 1811.86C194.024 1810.64 189.637 1809.38 185.388 1808C168.373 1802.46 156.989 1795.56 149.554 1786.3C149.398 1786.11 149.129 1786.03 148.894 1786.12C148.659 1786.21 148.504 1786.44 148.513 1786.68C148.863 1797.67 153.982 1808.61 162.192 1815.94C163.772 1817.35 165.45 1818.62 167.198 1819.77C175.748 1825.41 185.947 1828.17 194.302 1829.97C196.949 1830.54 199.658 1831.07 202.276 1831.58C210.97 1833.29 219.959 1835.05 228.198 1838.56C237.955 1842.71 249.547 1851.29 252.811 1862.94C252.829 1863 252.858 1863.06 252.894 1863.11C252.847 1863.81 252.796 1864.52 252.742 1865.24C252.679 1865.37 252.67 1865.52 252.712 1865.65C251.45 1882.71 249.6 1900.65 246.889 1922.08C246.86 1922.31 246.966 1922.53 247.149 1922.65C247.22 1922.69 247.306 1922.73 247.396 1922.74C247.716 1922.78 248.008 1922.56 248.051 1922.23C250.772 1900.73 252.631 1882.73 253.889 1865.62C259.484 1857.09 268.375 1853.4 277.784 1849.49L278.846 1849.05C283.982 1846.92 288.738 1845.74 293.34 1844.61C297.709 1843.53 302.223 1842.41 307.14 1840.47C314.886 1837.43 326.255 1832.45 335.536 1824.49C344.638 1816.66 350.603 1806.87 352.359 1796.88ZM252.198 1758.89C252.193 1758.86 252.193 1758.83 252.187 1758.81C252.226 1758.8 252.26 1758.79 252.296 1758.78C252.262 1758.81 252.233 1758.85 252.198 1758.89ZM286.03 1741.33C284.176 1742.05 282.262 1742.8 280.389 1743.55C278.342 1744.38 276.301 1745.13 274.323 1745.87C266.14 1748.9 258.382 1751.78 252.458 1758.58C254.196 1755.03 257.364 1751.85 261.628 1749.39C265.491 1747.16 269.799 1745.7 273.966 1744.3L299.786 1735.6C295.281 1737.72 290.615 1739.54 286.03 1741.33ZM312.416 1728.23C309.655 1730.29 306.699 1732.08 303.638 1733.69L273.78 1743.76C269.587 1745.17 265.252 1746.63 261.336 1748.89C257.09 1751.34 253.903 1754.5 252.086 1758.03C252.068 1757.89 252.05 1757.75 252.029 1757.6C252.026 1757.58 252.022 1757.55 252.014 1757.53C251.923 1756.85 251.828 1756.16 251.734 1755.48C251.765 1755.45 251.793 1755.42 251.811 1755.39C256.779 1746.53 265.526 1738.99 278.563 1732.33C282.892 1730.11 287.418 1728.09 291.796 1726.14C298.216 1723.28 304.853 1720.32 311.012 1716.68C318.66 1712.16 328.355 1704.72 333.345 1694.09C330.961 1707.55 323.387 1720.03 312.416 1728.23ZM284.515 1718.84C289.372 1716.57 294.552 1714.82 299.56 1713.12C303.869 1711.65 308.328 1710.14 312.582 1708.3C322.582 1703.98 329.679 1698.36 333.726 1691.57C333.718 1691.64 333.707 1691.71 333.697 1691.79C329.119 1703.38 318.77 1711.41 310.712 1716.17C304.587 1719.8 297.963 1722.75 291.558 1725.61C287.176 1727.56 282.642 1729.58 278.298 1731.8C265.421 1738.39 256.686 1745.84 251.61 1754.56C251.443 1753.37 251.269 1752.19 251.09 1751C258.752 1737.07 271.235 1725.06 284.515 1718.84ZM314.445 1686.66C307.934 1690.84 300.844 1694.3 293.984 1697.65C288.037 1700.55 281.89 1703.55 276.115 1707.02C275.291 1707.51 274.466 1708 273.644 1708.49C266.867 1712.53 260.309 1716.44 255.298 1721.57C260.715 1713.34 269.553 1706.42 282.817 1699.97C286.274 1698.29 289.859 1696.7 293.325 1695.16C301.551 1691.51 310.06 1687.72 317.555 1682.49C325.465 1676.96 332.244 1669.78 337.339 1661.58C333.421 1670.85 325.529 1679.55 314.445 1686.66ZM285.561 1679.54C294.55 1674.61 304.172 1670.54 313.474 1666.6C321.946 1663.02 330.686 1659.32 338.981 1654.96C335.11 1663 327.501 1669.8 316.349 1675.18C311.654 1677.45 306.695 1679.35 301.9 1681.18C296.883 1683.1 291.692 1685.09 286.788 1687.5C270.697 1695.43 256.198 1710.27 246.933 1728.29C246.869 1727.99 246.803 1727.68 246.737 1727.39L246.736 1727.38C246.734 1727.38 246.733 1727.37 246.732 1727.37C246.404 1725.86 246.127 1724.62 245.861 1723.5C252.481 1700.56 273.566 1686.11 285.561 1679.54ZM283.716 1669.25C278.884 1671.02 273.885 1672.84 269.084 1674.91C266.489 1676.03 263.91 1677.01 261.417 1677.96C251.463 1681.75 242.812 1685.05 237.823 1694.69C237.756 1694.49 237.688 1694.28 237.622 1694.08C237.686 1694.03 237.727 1693.96 237.739 1693.88C238.378 1688.47 242.002 1683.28 247.685 1679.63C252.802 1676.35 258.75 1674.66 264.504 1673.03C267.223 1672.26 269.902 1671.51 272.568 1670.77C282.326 1668.05 291.637 1665.45 302.206 1661.84C296.183 1664.69 289.873 1667 283.716 1669.25ZM308.666 1658.47C307.876 1658.93 307.072 1659.37 306.266 1659.8C293.902 1664.21 283.441 1667.13 272.401 1670.21C269.735 1670.95 267.056 1671.69 264.337 1672.47C258.544 1674.11 252.551 1675.81 247.364 1679.14C241.898 1682.65 238.285 1687.57 237.313 1692.77C237.309 1692.77 237.311 1692.77 237.308 1692.76C237.251 1692.72 237.191 1692.67 237.133 1692.63C237.061 1692.41 236.988 1692.19 236.918 1691.99C236.914 1691.97 236.906 1691.96 236.897 1691.94C236.889 1691.92 236.878 1691.89 236.873 1691.87C241.028 1680.22 250.2 1672.23 257.24 1667.54C266.314 1661.51 276.658 1657.54 287.341 1653.67L289.444 1652.91C299.066 1649.44 309.016 1645.85 317.976 1640.61C327.497 1635.05 336.017 1627.5 342.712 1618.73C336.291 1635.25 324.016 1649.62 308.666 1658.47ZM261.176 1653.43C272.371 1646.38 285.407 1642.52 298.007 1638.78C299.935 1638.21 301.862 1637.64 303.779 1637.06C317.102 1633.02 330.787 1628.06 341.514 1619.32C334.98 1627.63 326.792 1634.78 317.68 1640.1C308.765 1645.31 298.841 1648.89 289.242 1652.36L287.14 1653.12C276.42 1657 266.042 1660.98 256.914 1667.05C249.98 1671.67 241.007 1679.46 236.654 1690.77C237.086 1675.37 249.216 1660.95 261.176 1653.43ZM262.956 1638.52C246.128 1647.77 234.863 1659.17 229.462 1672.43C229.128 1671.64 228.79 1670.85 228.447 1670.06C232.377 1652.14 246.002 1634.09 262.522 1625.01C268.816 1621.55 275.728 1619.11 282.41 1616.75C286.507 1615.31 290.739 1613.81 294.805 1612.09C311.205 1605.16 325.735 1594.22 336.926 1580.39L337.804 1580C334.011 1587.77 329.039 1594.85 323.016 1601.06C311.909 1612.52 297.524 1621.2 283.031 1628.73C282.977 1628.76 282.923 1628.78 282.869 1628.81C276.26 1631.83 269.431 1634.96 262.956 1638.52ZM307.923 1616.1C302.783 1619.24 297.353 1622.01 291.905 1624.61C303.428 1618.13 314.484 1610.69 323.432 1601.47C329.357 1595.36 334.277 1588.4 338.062 1580.78C333.362 1597.57 319.216 1609.21 307.923 1616.1ZM247.417 1625.56C258.746 1615.62 272.708 1609.33 286.208 1603.25L335.719 1580.93C324.693 1594.26 310.523 1604.81 294.572 1611.55C290.525 1613.26 286.3 1614.76 282.213 1616.2C275.508 1618.57 268.571 1621.01 262.236 1624.5C253.977 1629.04 246.353 1635.76 240.18 1643.94C234.246 1651.81 230.073 1660.5 228.047 1669.15C227.881 1668.77 227.718 1668.39 227.55 1668.01C227.042 1654.19 235.568 1635.96 247.417 1625.56ZM176.881 1562.21C187.574 1572.81 196.712 1586.51 204.82 1604.09C211.188 1617.9 214.559 1633.47 217.823 1648.53C217.906 1648.9 217.986 1649.28 218.067 1649.66L191.751 1602.57C184.697 1589.94 177.399 1576.89 168.07 1565.47C158.313 1553.53 147.555 1545.01 136.06 1540.08C135.741 1539.79 135.428 1539.5 135.107 1539.22C149.887 1541.98 164.647 1550.09 176.881 1562.21ZM137.388 1541.31C148.21 1546.29 158.359 1554.52 167.614 1565.84C176.912 1577.22 184.197 1590.25 191.239 1602.85L217.331 1649.54C201.409 1634.34 189.427 1614.8 177.825 1595.88C166.002 1576.6 153.801 1556.71 137.388 1541.31ZM149.964 1638.58C153.657 1639.59 157.428 1640.58 161.075 1641.54C182.772 1647.24 205.21 1653.14 224.721 1664.6C225.291 1665.83 225.856 1667.07 226.412 1668.32C226.418 1668.34 226.425 1668.35 226.434 1668.37C226.58 1668.7 226.722 1669.03 226.869 1669.36C214.095 1661.36 198.851 1657.94 186.993 1655.85C182.874 1655.13 178.672 1654.48 174.605 1653.86C164.961 1652.37 154.986 1650.83 145.444 1648.16C122.469 1641.73 101.438 1628.43 85.7068 1610.5C104.241 1624.78 127.403 1632.47 149.964 1638.58ZM190.456 1661.09C185.306 1660.31 180.04 1659.72 174.949 1659.15C165.728 1658.12 156.2 1657.06 147.067 1654.8C120.288 1648.19 96.0233 1630.45 81.432 1607.03C82.0579 1607.57 82.6849 1608.1 83.3215 1608.62C91.0948 1617.94 100.267 1626.08 110.406 1632.77C121.125 1639.83 132.925 1645.27 145.283 1648.73C154.858 1651.41 164.85 1652.95 174.511 1654.44C178.573 1655.06 182.775 1655.71 186.887 1656.43C198.707 1658.51 213.904 1661.92 226.6 1669.89C226.736 1669.97 226.916 1669.93 227.003 1669.79C227.016 1669.77 227.018 1669.76 227.024 1669.73C227.673 1671.22 228.319 1672.71 228.937 1674.19L228.954 1674.23C217.701 1665.82 203.794 1663.11 190.456 1661.09ZM120.297 1671.51C125.763 1671.24 131.281 1670.61 136.614 1669.99C141.434 1669.43 146.413 1668.86 151.327 1668.56C181.609 1666.7 218.139 1672.74 233.953 1690.19C215.815 1677.01 192.258 1671.1 170.095 1674.31C165.224 1675.02 160.348 1676.16 155.629 1677.26C149.077 1678.79 142.299 1680.36 135.487 1680.8C121.066 1681.71 106.396 1677.35 94.7706 1668.77C101.94 1671.11 110.352 1672.01 120.297 1671.51ZM208.197 1682.3C196.18 1680.56 183.885 1682.48 171.296 1684.78L169.539 1685.1C158.159 1687.18 146.391 1689.33 134.777 1688.39C118.572 1687.06 103.13 1679.59 91.996 1667.77C92.3265 1667.9 92.6613 1668.02 92.9993 1668.14C94.319 1669.18 95.6838 1670.16 97.0839 1671.09C108.353 1678.52 122.049 1682.23 135.525 1681.38C142.384 1680.94 149.186 1679.36 155.765 1677.82C160.47 1676.72 165.337 1675.59 170.182 1674.89C193.028 1671.57 217.359 1678.03 235.626 1692.18C235.699 1692.27 235.774 1692.36 235.844 1692.46C236.243 1693.63 236.707 1695.01 237.157 1696.41C237.242 1696.67 237.326 1696.93 237.411 1697.19C231.393 1689.51 220.997 1684.16 208.197 1682.3ZM141.242 1703.88C145.971 1703.19 150.7 1702.11 155.277 1701.07C159.583 1700.1 164.035 1699.08 168.459 1698.4C181.167 1696.42 192.757 1696.51 203.706 1698.8C194.345 1697.86 184.917 1698.04 175.571 1699.36C171.605 1699.92 167.61 1700.7 163.745 1701.46C159.902 1702.21 155.932 1702.98 151.993 1703.54C145.751 1704.43 139.34 1705.33 133.145 1704.63C135.712 1704.55 138.407 1704.3 141.242 1703.88ZM129.597 1704.64C136.935 1706.27 144.626 1705.18 152.076 1704.12C156.028 1703.55 160.006 1702.78 163.858 1702.03C167.715 1701.28 171.701 1700.5 175.651 1699.94C186.617 1698.39 197.694 1698.41 208.639 1700C220.753 1703.33 232.143 1709.46 243.486 1718.59C243.619 1719.11 243.751 1719.65 243.885 1720.21C232.958 1708.64 213.745 1706.65 205.687 1706.35C197.123 1706.02 188.464 1706.93 180.087 1707.81C174.572 1708.39 168.869 1708.99 163.25 1709.23C147.615 1709.9 132.118 1707.89 117.169 1703.27C116.782 1702.9 116.402 1702.51 116.029 1702.11C120.069 1703.66 124.571 1704.5 129.597 1704.64ZM203.2 1710.54C195.117 1710.71 186.987 1711.9 179.131 1713.05C171.726 1714.14 164.072 1715.26 156.49 1715.52C146.781 1715.86 129.794 1714.68 118.148 1704.18C132.804 1708.57 147.977 1710.47 163.28 1709.81C168.919 1709.57 174.63 1708.97 180.153 1708.39C188.511 1707.51 197.149 1706.61 205.668 1706.93C213.832 1707.24 233.537 1709.28 244.169 1721.36C244.333 1722.06 244.507 1722.78 244.682 1723.55C244.686 1723.57 244.689 1723.59 244.693 1723.6C244.813 1724.11 244.934 1724.64 245.061 1725.2C233.099 1711.46 211.998 1710.35 203.2 1710.54ZM247.123 1729.15C247.147 1729.13 247.17 1729.11 247.186 1729.07C256.383 1710.94 270.914 1695.98 287.049 1688.03C291.926 1685.63 297.105 1683.65 302.111 1681.73C306.92 1679.89 311.892 1677.99 316.604 1675.71C327.669 1670.36 335.29 1663.62 339.284 1655.67C339.065 1656.6 338.802 1657.53 338.503 1658.46C333.309 1667.77 325.957 1675.91 317.216 1682.02C309.765 1687.22 301.284 1690.99 293.082 1694.64C289.613 1696.18 286.023 1697.77 282.555 1699.46C267.806 1706.62 258.474 1714.39 253.206 1723.89C250.976 1726.6 249.175 1729.65 247.952 1733.2C247.681 1731.8 247.404 1730.46 247.123 1729.15ZM173.611 1724.66C176.4 1724.59 179.245 1724.49 181.992 1724.39C192.816 1723.98 204.006 1723.57 214.757 1725.59C226.971 1727.89 243.054 1736.12 249.562 1748.75C249.663 1749.39 249.761 1750.03 249.859 1750.67L249.907 1750.98C249.95 1751.26 249.988 1751.54 250.031 1751.82C240.976 1741.29 228.01 1734.04 214.303 1731.86C206.538 1730.63 198.552 1730.96 190.826 1731.29C184.438 1731.55 177.836 1731.83 171.397 1731.22C160.708 1730.2 150.378 1726.76 141.219 1721.2C151.904 1724.58 163.39 1724.89 173.611 1724.66ZM163.265 1737.59C152.207 1734.46 142.308 1727.86 135.153 1718.9C136.366 1719.45 137.596 1719.94 138.84 1720.39C148.568 1726.76 159.751 1730.69 171.341 1731.79C177.82 1732.41 184.445 1732.13 190.852 1731.86C198.547 1731.54 206.506 1731.21 214.216 1732.44C228.095 1734.64 241.204 1742.1 250.193 1752.9C250.248 1753.28 250.307 1753.66 250.36 1754.04C241.253 1744.94 228.683 1739.14 215.853 1738.14C209.554 1737.64 203.182 1738.25 197.014 1738.83L182.097 1740.24C175.729 1739.97 169.369 1739.32 163.265 1737.59ZM214.858 1741.73C207.521 1740.58 199.948 1740.51 192.623 1740.45C190.695 1740.43 188.753 1740.42 186.807 1740.38L197.066 1739.41C203.206 1738.83 209.553 1738.23 215.803 1738.71C228.525 1739.71 240.988 1745.47 250 1754.51C250.113 1754.62 250.299 1754.62 250.414 1754.51C250.417 1754.51 250.419 1754.5 250.421 1754.5C250.502 1755.07 250.578 1755.64 250.654 1756.21C240.023 1747.2 228.61 1743.88 214.858 1741.73ZM290.105 1772.9C283.763 1773.89 277.771 1774.82 271.919 1777.9C265.016 1781.53 258.119 1785.75 255.223 1793.7C255.176 1792.72 255.126 1791.72 255.069 1790.65C255.068 1790.64 255.069 1790.63 255.068 1790.63C255.066 1790.62 255.066 1790.6 255.063 1790.59C255.062 1790.59 255.064 1790.58 255.061 1790.58C254.998 1789.35 254.924 1788.09 254.843 1786.82C254.9 1786.8 254.952 1786.76 254.985 1786.71C260.66 1777.15 270.06 1769.95 280.772 1766.96C285.089 1765.76 289.633 1765.21 294.026 1764.69C297.464 1764.28 301.016 1763.85 304.454 1763.11C320.792 1759.6 335.197 1748.52 342.933 1733.76C343.138 1733.53 343.337 1733.29 343.533 1733.05C340.803 1742.46 335.401 1751.12 328.129 1757.66C323.592 1761.75 318.566 1765.04 313.347 1767.43C308.626 1769.05 303.671 1770.24 298.614 1771.38C295.755 1772.02 292.882 1772.46 290.105 1772.9ZM154.202 1758.71C154.081 1758.63 153.931 1758.66 153.836 1758.75C144.857 1752.61 137.32 1744.46 131.899 1734.97C134.819 1738 138.134 1740.74 141.885 1743.21C149.54 1748.26 158.983 1752.18 170.409 1755.08C178.003 1757.01 185.851 1758.37 193.438 1759.69C200.265 1760.88 207.329 1762.1 214.179 1763.74C231.483 1767.87 244.319 1774.17 253.417 1782.99C253.56 1784.98 253.683 1786.94 253.796 1788.87C244.282 1780.81 234.208 1775.56 223.018 1772.83C214.683 1770.81 205.987 1770.18 197.575 1769.56C194.345 1769.33 191.004 1769.09 187.734 1768.77C177.612 1767.79 164.65 1765.74 154.202 1758.71ZM325.056 1761.96C322.946 1763.29 320.74 1764.44 318.459 1765.44C321.986 1763.39 325.375 1760.93 328.526 1758.09C336.221 1751.17 341.844 1741.9 344.466 1731.89C344.532 1731.8 344.602 1731.72 344.665 1731.63C342.86 1743.87 335.491 1755.33 325.056 1761.96ZM254.74 1781.91C259.195 1772.66 267.672 1765.85 281.42 1760.46C287.769 1757.97 294.49 1756.17 300.988 1754.44C306.003 1753.1 311.191 1751.71 316.192 1750.01C327.106 1746.31 335.388 1741.53 341.303 1735.51C333.424 1749.1 319.752 1759.22 304.338 1762.54C300.925 1763.27 297.386 1763.69 293.962 1764.1C289.544 1764.63 284.981 1765.18 280.622 1766.4C269.953 1769.38 260.569 1776.47 254.79 1785.91C254.71 1784.67 254.626 1783.41 254.531 1782.15C254.617 1782.09 254.688 1782.01 254.74 1781.91ZM172.017 1748.51C177.225 1749.14 182.547 1749.57 187.697 1749.98C197.458 1750.77 207.557 1751.59 217.232 1753.83C232.97 1757.47 245.673 1765.96 253.023 1777.74C253.146 1779.21 253.256 1780.67 253.364 1782.12C244.221 1773.46 231.44 1767.25 214.324 1763.17C207.456 1761.53 200.386 1760.3 193.544 1759.12C185.967 1757.8 178.133 1756.44 170.56 1754.52C154.734 1750.5 142.761 1744.53 134.076 1736.3C143.51 1742.61 155.746 1746.53 172.017 1748.51ZM228.501 1777.98C221.037 1776.36 213.295 1775.36 205.808 1774.39C192.119 1772.61 177.963 1770.77 165.231 1765.12C164.079 1764.6 162.946 1764.06 161.824 1763.49C170.528 1767.23 179.931 1768.6 187.678 1769.36C190.956 1769.68 194.301 1769.92 197.533 1770.15C205.922 1770.76 214.593 1771.39 222.88 1773.41C230.895 1775.36 238.334 1778.62 245.407 1783.29C240.275 1780.8 234.371 1779.25 228.501 1777.98ZM285.485 1827.5C293.272 1823.67 301.836 1821.32 310.114 1819.05C313.57 1818.1 317.144 1817.13 320.619 1816.05C329.584 1813.28 342.205 1808.53 350.733 1798.94C350.72 1799 350.699 1799.06 350.684 1799.12C344.215 1807.87 334.232 1815.15 320.201 1821.35C314.765 1823.74 309.098 1825.86 303.618 1827.91C296.984 1830.39 290.122 1832.96 283.61 1836.04C270.064 1842.47 260.217 1850.45 254.322 1859.79C254.377 1858.96 254.431 1858.12 254.484 1857.31C261.096 1844.94 272.677 1833.8 285.485 1827.5ZM325.926 1799.88C317.176 1805.32 307.139 1808.59 297.43 1811.76C293.884 1812.91 290.221 1814.11 286.665 1815.39C284.744 1816.09 282.921 1816.71 281.158 1817.32C271.001 1820.81 263.54 1823.37 255.593 1832.5C255.616 1831.63 255.634 1830.76 255.652 1829.89C266.653 1819.12 282.124 1813.78 297.055 1809.23C298.72 1808.72 300.376 1808.23 302.022 1807.74C311.829 1804.82 321.239 1802.01 329.842 1797.22C328.57 1798.16 327.263 1799.05 325.926 1799.88ZM333.365 1794.42C323.821 1800.63 313.093 1803.83 301.848 1807.18C300.199 1807.67 298.54 1808.17 296.875 1808.67C282.065 1813.18 266.722 1818.47 255.66 1829.06C255.665 1828.75 255.674 1828.44 255.679 1828.14C255.679 1828.12 255.681 1828.11 255.681 1828.09C255.69 1827.51 255.694 1826.93 255.704 1826.35C265.729 1814.45 275.77 1806.24 287.276 1800.53C293.702 1797.34 300.553 1794.79 307.176 1792.33C313.564 1789.95 320.167 1787.49 326.397 1784.46C336.631 1779.48 349.691 1770.72 355.051 1756.99C352.393 1771.36 344.491 1784.89 333.365 1794.42ZM281.729 1792.16C290.273 1787.6 299.688 1784.55 308.794 1781.6C313.034 1780.23 317.417 1778.81 321.665 1777.26C337.211 1771.57 347.843 1764.76 354.81 1756C349.715 1770.01 336.482 1778.9 326.154 1783.93C319.949 1786.95 313.357 1789.41 306.987 1791.78C300.345 1794.25 293.481 1796.8 287.028 1800.01C275.623 1805.67 265.653 1813.77 255.726 1825.44C255.74 1824.38 255.761 1823.33 255.769 1822.28C258.017 1810.27 266.749 1800.14 281.729 1792.16ZM147.877 1771.68C148.489 1772.08 149.108 1772.47 149.736 1772.84C150.46 1773.36 151.191 1773.86 151.934 1774.35C159.631 1779.43 168.346 1782.99 177.396 1784.73C183.366 1785.88 189.53 1786.25 195.498 1786.61C198.936 1786.81 202.489 1787.03 205.967 1787.39C214.266 1788.25 220.913 1789.94 226.345 1792.59C227.793 1793.37 229.226 1794.19 230.634 1795.06C231.31 1795.51 231.969 1795.98 232.606 1796.47C232.696 1796.54 232.81 1796.55 232.906 1796.51C241.292 1802.08 248.825 1809.3 254.614 1817.55C254.615 1819.05 254.607 1820.57 254.6 1822.08L254.598 1822.2C254.599 1822.21 254.597 1822.21 254.598 1822.22C254.598 1822.22 254.596 1822.22 254.599 1822.22C254.597 1822.58 254.587 1822.94 254.585 1823.3C245.23 1812.27 236.995 1805.43 227.967 1801.17C218.788 1796.83 208.741 1795.27 198.396 1793.93L196.159 1793.65C186.953 1792.47 177.434 1791.25 168.647 1787.97C158.885 1784.32 151.342 1778.4 147.123 1771.16C147.375 1771.33 147.623 1771.51 147.877 1771.68ZM176.898 1781.42C180.629 1781.97 184.445 1782.39 188.131 1782.81C195.927 1783.68 203.991 1784.59 211.653 1786.68C214.223 1787.38 216.777 1788.26 219.301 1789.28C215.4 1788.14 211.01 1787.33 206.025 1786.81C202.535 1786.45 198.977 1786.23 195.533 1786.03C189.589 1785.67 183.441 1785.3 177.509 1784.16C169.503 1782.62 161.768 1779.64 154.773 1775.45C162.503 1778.93 170.655 1780.5 176.898 1781.42ZM212.735 1805.48C207.228 1803.94 201.534 1802.82 196.028 1801.74C192.662 1801.08 189.182 1800.4 185.787 1799.62C178.328 1797.93 168.696 1795.25 160.46 1789.73C152.814 1784.61 147.407 1777.46 145.411 1769.93C145.604 1770.07 145.8 1770.22 145.995 1770.36C148.65 1775.39 152.849 1779.83 158.251 1783.39C161.289 1785.39 164.709 1787.12 168.445 1788.51C177.293 1791.82 186.846 1793.04 196.085 1794.23L198.319 1794.52C208.618 1795.85 218.613 1797.4 227.714 1801.7C236.801 1805.98 245.085 1812.92 254.569 1824.19C254.555 1825.07 254.548 1825.94 254.535 1826.82C243.679 1817.06 231.089 1810.64 212.735 1805.48ZM185.061 1809.08C189.331 1810.46 193.725 1811.73 197.974 1812.95C207.227 1815.61 216.794 1818.36 225.58 1822.58C239.871 1829.43 250.079 1840.35 253.594 1852.54C253.532 1853.66 253.465 1854.78 253.396 1855.92C251.248 1847.34 244.782 1839.34 235.53 1833.86C226.906 1828.76 216.919 1826.18 207.432 1823.98C206.552 1823.78 205.672 1823.58 204.792 1823.38C196.11 1821.38 187.133 1819.32 178.977 1815.5C167.302 1810.04 157.466 1800.98 151.021 1789.84C151.005 1789.78 150.985 1789.71 150.968 1789.64C160.914 1800.3 175.013 1805.8 185.061 1809.08ZM163.004 1815.03C155.616 1808.44 150.812 1798.84 149.868 1788.99C150.065 1789.34 150.265 1789.69 150.466 1790.04C153.664 1802.14 161.207 1813.22 171.232 1820.78C168.312 1819.17 165.525 1817.28 163.004 1815.03ZM228.684 1837.45C220.336 1833.9 211.285 1832.12 202.53 1830.4C199.917 1829.88 197.214 1829.36 194.58 1828.79C188.538 1827.49 181.523 1825.68 174.905 1822.63C163.947 1815.59 155.476 1804.42 151.631 1791.98C156.509 1799.79 163.061 1806.49 170.739 1811.55C173.285 1813.23 175.954 1814.73 178.729 1816.03C186.941 1819.88 195.95 1821.94 204.661 1823.94C205.542 1824.15 206.422 1824.35 207.302 1824.55C216.744 1826.74 226.68 1829.3 235.233 1834.36C244.667 1839.95 251.154 1848.17 253.032 1856.92C253.063 1857.06 253.183 1857.15 253.318 1857.15C253.256 1858.12 253.194 1859.1 253.127 1860.09C248.922 1849.33 237.99 1841.4 228.684 1837.45ZM334.8 1823.56C325.655 1831.41 314.404 1836.33 306.736 1839.35C301.891 1841.26 297.416 1842.36 293.081 1843.43C288.44 1844.58 283.637 1845.76 278.421 1847.93L277.359 1848.37C268.385 1852.1 259.875 1855.63 254.079 1863.32C254.131 1862.55 254.186 1861.8 254.235 1861.05C259.995 1851.4 269.96 1843.16 283.86 1836.57C290.349 1833.5 297.2 1830.94 303.821 1828.46C309.308 1826.41 314.987 1824.29 320.437 1821.88C333.953 1815.91 343.747 1808.93 350.289 1800.6C347.864 1808.95 342.47 1816.98 334.8 1823.56Z" fill="#871054" fill-opacity="0.2"/>
<path d="M1156.36 1027.88C1156.41 1027.61 1156.27 1027.35 1156.02 1027.24C1155.77 1027.13 1155.49 1027.2 1155.32 1027.42C1147.03 1037.98 1133.63 1043.05 1124.27 1045.94C1120.81 1047.01 1117.25 1047.99 1113.8 1048.93C1105.47 1051.21 1096.85 1053.57 1088.96 1057.45C1076.69 1063.5 1065.52 1073.91 1058.64 1085.63C1058.69 1084.91 1058.73 1084.2 1058.77 1083.5C1059.11 1077.37 1059.37 1071.3 1059.54 1065.36C1067.64 1055.57 1075.15 1052.99 1085.53 1049.43C1087.3 1048.82 1089.13 1048.19 1091.06 1047.49C1094.59 1046.21 1098.25 1045.02 1101.79 1043.87C1111.56 1040.68 1121.67 1037.38 1130.54 1031.87C1134.5 1029.41 1138.21 1026.46 1141.6 1023.12C1142.17 1022.68 1142.74 1022.23 1143.31 1021.75C1143.43 1021.65 1143.45 1021.47 1143.34 1021.35C1143.34 1021.34 1143.34 1021.34 1143.34 1021.34C1146.19 1018.3 1148.78 1014.97 1151.04 1011.41C1156.33 1003.08 1159.71 993.65 1160.81 984.147C1160.85 983.879 1160.69 983.629 1160.44 983.531C1160.19 983.436 1159.91 983.528 1159.75 983.748C1153.02 993.566 1142.06 1001 1125.25 1007.16C1121.02 1008.7 1116.65 1010.12 1112.42 1011.49C1103.27 1014.45 1093.81 1017.52 1085.17 1022.12C1071.76 1029.27 1063.24 1038.15 1059.77 1048.55C1059.77 1048.5 1059.77 1048.45 1059.77 1048.4C1059.77 1048.37 1059.77 1048.35 1059.77 1048.33C1059.76 1041.51 1059.63 1034.79 1059.37 1028.35C1059.37 1028.27 1059.37 1028.18 1059.36 1028.1C1059.44 1028.02 1059.5 1027.93 1059.53 1027.81C1061.58 1018.45 1068.71 1014.01 1076.46 1009.93C1082.14 1006.95 1088.04 1006.03 1094.28 1005.05C1097.07 1004.62 1099.97 1004.17 1102.87 1003.52C1112.44 1001.36 1121.69 999.011 1129.67 993.946C1141.05 986.725 1148.88 973.903 1150.09 960.477C1150.12 960.21 1149.96 959.962 1149.71 959.872C1149.45 959.784 1149.18 959.877 1149.02 960.099C1148.89 960.297 1148.76 960.491 1148.62 960.687C1148.61 960.671 1148.59 960.655 1148.56 960.646C1148.41 960.581 1148.24 960.65 1148.18 960.798C1147.99 961.233 1147.79 961.664 1147.59 962.093C1141.76 969.701 1132.64 975.547 1119.8 979.908C1114.84 981.595 1109.67 982.977 1104.67 984.313C1098.15 986.061 1091.39 987.866 1084.98 990.379C1071.62 995.619 1063.11 1002.22 1058.37 1011.06C1058.3 1010.21 1058.24 1009.36 1058.16 1008.51C1058.01 1006.7 1057.84 1004.81 1057.64 1002.72C1057.28 999.006 1056.86 995.231 1056.4 991.487C1062.23 984.089 1070.24 981.112 1078.72 977.965C1080.71 977.231 1082.76 976.466 1084.82 975.637C1086.68 974.885 1088.59 974.14 1090.45 973.421C1099.62 969.845 1109.11 966.146 1117.11 960.169C1129.82 950.668 1138.07 935.54 1139.18 919.706C1139.19 919.424 1139.01 919.167 1138.74 919.099C1138.46 919.028 1138.18 919.165 1138.06 919.419C1134.51 927.145 1127.12 933.475 1116.11 938.233C1111.9 940.053 1107.46 941.558 1103.17 943.011C1098.13 944.722 1092.92 946.49 1088 948.79C1074.93 954.908 1062.62 966.55 1054.79 980.135C1054.76 979.912 1054.73 979.691 1054.69 979.47C1054.02 975.212 1053.26 970.893 1052.43 966.636C1055.81 953.868 1066.7 947.376 1078.23 940.506C1079.06 940.017 1079.88 939.522 1080.71 939.03C1086.44 935.59 1092.56 932.597 1098.49 929.705C1105.37 926.343 1112.5 922.86 1119.07 918.649C1133.61 909.322 1142.77 897.266 1144.87 884.713C1144.9 884.494 1144.81 884.271 1144.63 884.142C1144.43 884.008 1144.21 883.998 1144.01 884.103C1135.3 888.802 1126 892.735 1117.01 896.538C1107.68 900.484 1098.03 904.568 1088.99 909.519C1079.49 914.726 1070.94 921.191 1064.27 928.212C1057.14 935.722 1052.12 943.8 1049.33 952.254C1049.06 951.143 1048.81 950.098 1048.56 949.12C1048.56 949.114 1048.56 949.107 1048.56 949.098C1048.55 949.093 1048.55 949.087 1048.55 949.087C1047.1 943.217 1045.48 937.375 1043.74 931.731C1043.73 931.712 1043.72 931.694 1043.72 931.681C1043.28 930.271 1042.82 928.794 1042.33 927.296C1047.02 917.224 1055.73 913.902 1065.82 910.064C1068.33 909.11 1070.92 908.123 1073.54 906.997C1078.31 904.942 1083.29 903.122 1088.11 901.361C1096.56 898.27 1105.3 895.075 1113.24 890.5C1129.7 881.012 1142.68 865.275 1148.85 847.31C1148.93 847.059 1148.84 846.777 1148.62 846.631C1148.62 846.631 1148.61 846.629 1148.61 846.627C1148.38 846.482 1148.09 846.509 1147.89 846.695C1136.4 857.556 1120.98 862.847 1107.43 866.954C1105.52 867.534 1103.59 868.107 1101.67 868.675C1088.99 872.433 1075.88 876.318 1064.54 883.451C1052.94 890.751 1041.17 904.436 1039.63 919.349C1038.13 915.112 1036.53 910.918 1034.88 906.852C1034.87 906.829 1034.86 906.806 1034.85 906.786C1034.62 906.227 1034.39 905.669 1034.16 905.113L1034.1 904.984C1039.22 891.511 1050.46 879.928 1067.51 870.556C1073.95 867.018 1080.76 863.901 1087.34 860.883C1095.76 857.021 1104.47 853.034 1112.52 848.115C1124.5 840.804 1139.63 828.232 1143.75 809.867C1143.8 809.652 1143.72 809.426 1143.55 809.287C1143.37 809.145 1143.14 809.114 1142.94 809.206L1141.95 809.649C1141.95 809.644 1141.95 809.639 1141.94 809.635C1141.81 809.542 1141.63 809.557 1141.53 809.685C1141.46 809.769 1141.4 809.847 1141.33 809.93L1089.71 833.198C1076.13 839.319 1062.09 845.648 1050.63 855.703C1044.92 860.708 1039.73 867.732 1036 875.474C1032.52 882.689 1030.6 889.871 1030.36 896.423C1028.25 891.777 1026.02 887.237 1023.73 882.896C1023.47 881.703 1023.21 880.502 1022.95 879.298C1019.67 864.18 1016.29 848.547 1009.87 834.623C1001.7 816.91 992.483 803.101 981.691 792.404C968.724 779.556 952.938 771.148 937.238 768.737C936.979 768.697 936.726 768.833 936.617 769.069C936.508 769.305 936.569 769.588 936.767 769.755C936.87 769.847 936.974 769.938 937.08 770.032C937.022 770.063 936.976 770.112 936.95 770.179C936.894 770.329 936.974 770.498 937.123 770.554C937.456 770.681 937.786 770.81 938.12 770.941C955.674 786.511 968.453 807.345 980.819 827.515C992.986 847.358 1005.57 867.87 1022.71 883.451C1024.46 886.787 1026.18 890.24 1027.85 893.77C1008.54 882.787 986.601 877.015 965.358 871.426C961.711 870.467 957.945 869.476 954.256 868.475C928.838 861.582 902.652 852.706 883.345 834.604C883.132 834.403 882.808 834.39 882.581 834.571C882.356 834.75 882.292 835.066 882.438 835.321C889.573 847.822 899.582 859.141 911.38 868.057C913.26 869.479 915.19 870.839 917.156 872.136C927.53 878.976 939.03 884.059 950.78 886.961C959.987 889.236 969.556 890.304 978.814 891.34C983.893 891.905 989.149 892.493 994.274 893.271C1008.11 895.374 1022.55 898.198 1033.85 907.453C1035.56 911.652 1037.2 915.988 1038.74 920.366C1031.39 912.301 1019.28 906.077 1003.46 902.271C988.931 898.775 971.809 897.409 955.246 898.425C950.301 898.727 945.303 899.307 940.469 899.864C935.15 900.479 929.654 901.113 924.226 901.381C911.936 901.988 902.048 900.448 894.003 896.673C893.754 896.555 893.454 896.628 893.288 896.85C893.12 897.07 893.133 897.377 893.313 897.585C897.324 902.215 901.966 906.256 907.052 909.609C916.455 915.809 927.384 919.667 938.676 920.588C950.445 921.55 962.288 919.38 973.744 917.281L975.498 916.959C987.988 914.679 1000.18 912.776 1012.02 914.493C1026.24 916.556 1037.4 922.994 1042.64 932.165C1044.21 937.245 1045.66 942.481 1047 947.756C1035.09 938.401 1023.08 932.336 1010.32 929.25C998.637 926.424 986.187 926.105 972.261 928.273C967.796 928.966 963.322 929.984 958.998 930.966C954.445 931.998 949.737 933.067 945.052 933.76C934.134 935.369 925.336 934.492 918.154 931.081C917.908 930.965 917.612 931.031 917.442 931.246C917.273 931.461 917.275 931.761 917.446 931.976C919.92 935.048 922.768 937.537 925.829 939.555C937.32 947.131 951.793 948.029 960.512 947.73C968.16 947.466 975.846 946.337 983.282 945.248C991.106 944.102 999.196 942.913 1007.21 942.744C1016.21 942.55 1038.32 943.734 1049.61 958.799C1050.16 961.308 1050.7 963.911 1051.25 966.756C1051.88 970.008 1052.47 973.295 1053.02 976.564C1045.61 965.063 1030.95 957.739 1018.95 955.482C1008.07 953.433 996.814 953.853 985.925 954.255C983.181 954.358 980.341 954.462 977.561 954.527C964.787 954.82 950.03 954.253 937.458 947.842C937.216 947.72 936.921 947.778 936.747 947.985C936.57 948.19 936.559 948.49 936.719 948.708C940.706 954.181 945.659 958.878 951.272 962.579C956.071 965.744 961.354 968.182 966.92 969.758C976.562 972.488 986.742 972.578 996.589 972.664C1003.87 972.728 1011.4 972.796 1018.65 973.926C1032.64 976.113 1044.16 979.524 1054.87 989.014C1054.98 989.8 1055.08 990.595 1055.18 991.386C1055.18 991.414 1055.19 991.445 1055.19 991.472C1055.67 995.264 1056.09 999.097 1056.46 1002.87C1056.58 1004.09 1056.68 1005.23 1056.78 1006.34C1049.13 995.242 1036.68 987.254 1021.46 983.73C1011.7 981.473 1001.56 980.654 991.752 979.859C986.616 979.443 981.306 979.015 976.121 978.385C957.312 976.098 943.991 971.213 934.192 963.012C933.977 962.828 933.668 962.83 933.45 963.004C933.233 963.177 933.169 963.48 933.296 963.727C939.067 974.983 947.704 984.549 958.195 991.466C961.526 993.662 965.047 995.592 968.72 997.226C981.607 1002.95 995.849 1004.8 1009.62 1006.59C1017.09 1007.55 1024.8 1008.56 1032.22 1010.16C1042.01 1012.29 1051.9 1015.18 1057.88 1021.95C1058 1024.32 1058.1 1026.44 1058.18 1028.44C1058.41 1034.29 1058.54 1040.39 1058.57 1046.58C1047.99 1032.18 1032.18 1021.04 1015.92 1016.59C1008.17 1014.48 1000.07 1013.57 992.223 1012.69C988.543 1012.27 984.741 1011.85 981.028 1011.3C971.901 1009.96 958.631 1007.22 948.798 999.007C948.607 998.844 948.339 998.826 948.126 998.951C947.912 999.076 947.8 999.324 947.85 999.567C949.521 1007.99 955.324 1016.08 963.773 1021.74C963.88 1021.81 963.984 1021.88 964.088 1021.95C972.424 1027.45 982.03 1030.1 989.492 1031.8C992.904 1032.57 996.391 1033.26 999.766 1033.92C1005.25 1035 1010.92 1036.11 1016.38 1037.65C1034.98 1042.87 1047.59 1049.39 1058.47 1059.41C1058.35 1066.22 1058.1 1073.27 1057.73 1080.4C1053.45 1069.06 1043.52 1059.03 1030.05 1052.56C1021.17 1048.3 1011.56 1045.53 1002.26 1042.86C998.024 1041.64 993.637 1040.38 989.388 1039C972.373 1033.46 960.989 1026.56 953.554 1017.3C953.398 1017.11 953.129 1017.03 952.894 1017.12C952.659 1017.21 952.504 1017.44 952.513 1017.68C952.863 1028.67 957.982 1039.61 966.192 1046.94C967.772 1048.35 969.45 1049.62 971.198 1050.77C979.748 1056.41 989.947 1059.17 998.302 1060.97C1000.95 1061.54 1003.66 1062.07 1006.28 1062.58C1014.97 1064.29 1023.96 1066.05 1032.2 1069.56C1041.95 1073.71 1053.55 1082.29 1056.81 1093.94C1056.83 1094 1056.86 1094.06 1056.89 1094.11C1056.85 1094.81 1056.8 1095.52 1056.74 1096.24C1056.68 1096.37 1056.67 1096.52 1056.71 1096.65C1055.45 1113.71 1053.6 1131.65 1050.89 1153.08C1050.86 1153.31 1050.97 1153.53 1051.15 1153.65C1051.22 1153.69 1051.31 1153.73 1051.4 1153.74C1051.72 1153.78 1052.01 1153.56 1052.05 1153.23C1054.77 1131.73 1056.63 1113.73 1057.89 1096.62C1063.48 1088.09 1072.37 1084.4 1081.78 1080.49L1082.85 1080.05C1087.98 1077.92 1092.74 1076.74 1097.34 1075.61C1101.71 1074.53 1106.22 1073.41 1111.14 1071.47C1118.89 1068.43 1130.25 1063.45 1139.54 1055.49C1148.64 1047.66 1154.6 1037.87 1156.36 1027.88ZM1056.2 989.888C1056.19 989.861 1056.19 989.833 1056.19 989.806C1056.23 989.804 1056.26 989.794 1056.3 989.775C1056.26 989.813 1056.23 989.85 1056.2 989.888ZM1090.03 972.331C1088.18 973.053 1086.26 973.801 1084.39 974.552C1082.34 975.375 1080.3 976.133 1078.32 976.866C1070.14 979.902 1062.38 982.783 1056.46 989.579C1058.2 986.029 1061.36 982.854 1065.63 980.391C1069.49 978.159 1073.8 976.705 1077.97 975.302L1103.79 966.601C1099.28 968.722 1094.62 970.542 1090.03 972.331ZM1116.42 959.228C1113.65 961.291 1110.7 963.082 1107.64 964.692L1077.78 974.755C1073.59 976.169 1069.25 977.628 1065.34 979.891C1061.09 982.342 1057.9 985.496 1056.09 989.031C1056.07 988.888 1056.05 988.746 1056.03 988.601C1056.03 988.576 1056.02 988.555 1056.01 988.531C1055.92 987.846 1055.83 987.163 1055.73 986.476C1055.76 986.45 1055.79 986.422 1055.81 986.387C1060.78 977.534 1069.53 969.993 1082.56 963.328C1086.89 961.113 1091.42 959.094 1095.8 957.145C1102.22 954.281 1108.85 951.322 1115.01 947.684C1122.66 943.163 1132.36 935.721 1137.34 925.092C1134.96 938.549 1127.39 951.027 1116.42 959.228ZM1088.51 949.845C1093.37 947.573 1098.55 945.817 1103.56 944.116C1107.87 942.653 1112.33 941.14 1116.58 939.301C1126.58 934.982 1133.68 929.362 1137.73 922.573C1137.72 922.642 1137.71 922.714 1137.7 922.787C1133.12 934.378 1122.77 942.415 1114.71 947.174C1108.59 950.797 1101.96 953.75 1095.56 956.606C1091.18 958.561 1086.64 960.585 1082.3 962.803C1069.42 969.388 1060.69 976.839 1055.61 985.565C1055.44 984.373 1055.27 983.185 1055.09 982.004C1062.75 968.073 1075.23 956.057 1088.51 949.845ZM1118.45 917.657C1111.93 921.836 1104.84 925.299 1097.98 928.646C1092.04 931.552 1085.89 934.554 1080.11 938.021C1079.29 938.512 1078.47 939.004 1077.64 939.493C1070.87 943.529 1064.31 947.44 1059.3 952.567C1064.72 944.337 1073.55 937.415 1086.82 930.973C1090.27 929.294 1093.86 927.703 1097.32 926.16C1105.55 922.505 1114.06 918.725 1121.55 913.487C1129.46 907.959 1136.24 900.78 1141.34 892.585C1137.42 901.85 1129.53 910.547 1118.45 917.657ZM1089.56 910.536C1098.55 905.611 1108.17 901.539 1117.47 897.605C1125.95 894.023 1134.69 890.32 1142.98 885.964C1139.11 893.997 1131.5 900.796 1120.35 906.182C1115.65 908.449 1110.69 910.346 1105.9 912.183C1100.88 914.103 1095.69 916.089 1090.79 918.502C1074.7 926.428 1060.2 941.275 1050.93 959.287C1050.87 958.988 1050.8 958.684 1050.74 958.388L1050.74 958.383C1050.73 958.377 1050.73 958.372 1050.73 958.367C1050.4 956.859 1050.13 955.622 1049.86 954.495C1056.48 931.559 1077.57 917.11 1089.56 910.536ZM1087.72 900.249C1082.88 902.015 1077.88 903.844 1073.08 905.911C1070.49 907.026 1067.91 908.011 1065.42 908.959C1055.46 912.748 1046.81 916.048 1041.82 925.69C1041.76 925.487 1041.69 925.279 1041.62 925.081C1041.69 925.035 1041.73 924.964 1041.74 924.883C1042.38 919.471 1046 914.279 1051.68 910.635C1056.8 907.35 1062.75 905.663 1068.5 904.029C1071.22 903.256 1073.9 902.509 1076.57 901.768C1086.33 899.048 1095.64 896.454 1106.21 892.838C1100.18 895.688 1093.87 897.995 1087.72 900.249ZM1112.67 889.473C1111.88 889.927 1111.07 890.367 1110.27 890.796C1097.9 895.215 1087.44 898.129 1076.4 901.206C1073.74 901.947 1071.06 902.694 1068.34 903.466C1062.54 905.111 1056.55 906.811 1051.36 910.143C1045.9 913.651 1042.29 918.571 1041.31 923.772C1041.31 923.77 1041.31 923.767 1041.31 923.765C1041.25 923.717 1041.19 923.673 1041.13 923.626C1041.06 923.41 1040.99 923.195 1040.92 922.99C1040.91 922.973 1040.91 922.958 1040.9 922.943C1040.89 922.92 1040.88 922.894 1040.87 922.867C1045.03 911.222 1054.2 903.228 1061.24 898.544C1070.31 892.506 1080.66 888.536 1091.34 884.668L1093.44 883.91C1103.07 880.439 1113.02 876.848 1121.98 871.611C1131.5 866.049 1140.02 858.499 1146.71 849.726C1140.29 866.252 1128.02 880.625 1112.67 889.473ZM1065.18 884.427C1076.37 877.381 1089.41 873.517 1102.01 869.781C1103.93 869.21 1105.86 868.639 1107.78 868.056C1121.1 864.017 1134.79 859.056 1145.51 850.317C1138.98 858.626 1130.79 865.78 1121.68 871.104C1112.77 876.314 1102.84 879.894 1093.24 883.357L1091.14 884.116C1080.42 887.997 1070.04 891.982 1060.91 898.054C1053.98 902.668 1045.01 910.461 1040.65 921.767C1041.09 906.375 1053.22 891.953 1065.18 884.427ZM1066.96 869.519C1050.13 878.767 1038.86 890.169 1033.46 903.427C1033.13 902.638 1032.79 901.846 1032.45 901.056C1036.38 883.135 1050 865.092 1066.52 856.008C1072.82 852.548 1079.73 850.106 1086.41 847.751C1090.51 846.306 1094.74 844.812 1098.8 843.095C1115.2 836.161 1129.73 825.219 1140.93 811.391L1141.8 810.995C1138.01 818.767 1133.04 825.855 1127.02 832.063C1115.91 843.517 1101.52 852.199 1087.03 859.733C1086.98 859.758 1086.92 859.783 1086.87 859.809C1080.26 862.832 1073.43 865.963 1066.96 869.519ZM1111.92 847.105C1106.78 850.244 1101.35 853.01 1095.9 855.606C1107.43 849.126 1118.48 841.695 1127.43 832.467C1133.36 826.358 1138.28 819.399 1142.06 811.781C1137.36 828.565 1123.22 840.207 1111.92 847.105ZM1051.42 856.563C1062.75 846.622 1076.71 840.332 1090.21 834.247L1139.72 811.933C1128.69 825.255 1114.52 835.814 1098.57 842.555C1094.52 844.265 1090.3 845.755 1086.21 847.201C1079.51 849.569 1072.57 852.013 1066.24 855.498C1057.98 860.04 1050.35 866.764 1044.18 874.943C1038.25 882.81 1034.07 891.497 1032.05 900.153C1031.88 899.774 1031.72 899.391 1031.55 899.015C1031.04 885.19 1039.57 866.96 1051.42 856.563ZM980.881 793.214C991.574 803.807 1000.71 817.508 1008.82 835.09C1015.19 848.899 1018.56 864.467 1021.82 879.526C1021.91 879.902 1021.99 880.277 1022.07 880.657L995.751 833.57C988.697 820.945 981.399 807.889 972.07 796.474C962.313 784.533 951.555 776.008 940.06 771.082C939.741 770.793 939.428 770.503 939.107 770.217C953.887 772.981 968.647 781.09 980.881 793.214ZM941.388 772.312C952.21 777.289 962.359 785.519 971.614 796.84C980.912 808.216 988.197 821.25 995.239 833.852L1021.33 880.54C1005.41 865.337 993.427 845.803 981.825 826.882C970.002 807.602 957.801 787.713 941.388 772.312ZM953.964 869.584C957.657 870.587 961.428 871.577 965.075 872.536C986.772 878.243 1009.21 884.145 1028.72 895.597C1029.29 896.83 1029.86 898.07 1030.41 899.318C1030.42 899.336 1030.42 899.354 1030.43 899.369C1030.58 899.699 1030.72 900.031 1030.87 900.36C1018.1 892.363 1002.85 888.942 990.993 886.855C986.874 886.13 982.672 885.481 978.605 884.856C968.961 883.37 958.986 881.834 949.444 879.161C926.469 872.727 905.438 859.435 889.707 841.499C908.241 855.78 931.403 863.465 953.964 869.584ZM994.456 892.089C989.306 891.305 984.04 890.719 978.949 890.151C969.728 889.122 960.2 888.057 951.067 885.803C924.288 879.188 900.023 861.455 885.432 838.027C886.058 838.566 886.685 839.096 887.321 839.618C895.095 848.935 904.267 857.081 914.406 863.766C925.125 870.834 936.925 876.269 949.283 879.731C958.858 882.411 968.85 883.95 978.511 885.437C982.573 886.064 986.775 886.713 990.887 887.433C1002.71 889.515 1017.9 892.922 1030.6 900.888C1030.74 900.973 1030.92 900.933 1031 900.794C1031.02 900.775 1031.02 900.757 1031.02 900.734C1031.67 902.215 1032.32 903.709 1032.94 905.194L1032.95 905.233C1021.7 896.82 1007.79 894.114 994.456 892.089ZM924.297 902.514C929.763 902.243 935.281 901.605 940.614 900.99C945.434 900.433 950.413 899.86 955.327 899.556C985.609 897.699 1022.14 903.744 1037.95 921.194C1019.82 908.013 996.258 902.095 974.095 905.314C969.224 906.019 964.348 907.159 959.629 908.258C953.077 909.785 946.299 911.364 939.487 911.797C925.066 912.711 910.396 908.349 898.771 899.765C905.94 902.105 914.352 903.007 924.297 902.514ZM1012.2 913.304C1000.18 911.564 987.885 913.483 975.296 915.777L973.539 916.096C962.159 918.18 950.391 920.334 938.777 919.386C922.572 918.06 907.13 910.588 895.996 898.766C896.326 898.895 896.661 899.018 896.999 899.143C898.319 900.181 899.684 901.165 901.084 902.088C912.353 909.518 926.049 913.233 939.525 912.377C946.384 911.943 953.186 910.357 959.765 908.824C964.47 907.725 969.337 906.592 974.182 905.889C997.028 902.571 1021.36 909.03 1039.63 923.178C1039.7 923.272 1039.77 923.364 1039.84 923.457C1040.24 924.629 1040.71 926.008 1041.16 927.409C1041.24 927.67 1041.33 927.932 1041.41 928.193C1035.39 920.508 1025 915.16 1012.2 913.304ZM945.242 934.882C949.971 934.186 954.7 933.113 959.277 932.073C963.583 931.098 968.035 930.084 972.459 929.397C985.167 927.419 996.757 927.511 1007.71 929.801C998.345 928.857 988.917 929.043 979.571 930.365C975.605 930.925 971.61 931.705 967.745 932.458C963.902 933.206 959.932 933.978 955.993 934.539C949.751 935.426 943.34 936.328 937.145 935.634C939.712 935.545 942.407 935.298 945.242 934.882ZM933.597 935.645C940.935 937.27 948.626 936.176 956.076 935.115C960.028 934.555 964.006 933.779 967.858 933.031C971.715 932.282 975.701 931.501 979.651 930.945C990.617 929.39 1001.69 929.41 1012.64 930.998C1024.75 934.327 1036.14 940.462 1047.49 949.587C1047.62 950.108 1047.75 950.652 1047.89 951.206C1036.96 939.637 1017.74 937.652 1009.69 937.347C1001.12 937.021 992.464 937.933 984.087 938.812C978.572 939.391 972.869 939.991 967.25 940.231C951.615 940.903 936.118 938.892 921.169 934.272C920.782 933.896 920.402 933.51 920.029 933.11C924.069 934.664 928.571 935.502 933.597 935.645ZM1007.2 941.536C999.117 941.709 990.987 942.9 983.131 944.053C975.726 945.138 968.072 946.261 960.49 946.522C950.781 946.858 933.794 945.683 922.148 935.183C936.804 939.573 951.977 941.473 967.28 940.815C972.919 940.574 978.63 939.975 984.153 939.392C992.511 938.514 1001.15 937.607 1009.67 937.927C1017.83 938.236 1037.54 940.275 1048.17 952.363C1048.33 953.064 1048.51 953.785 1048.68 954.553C1048.69 954.569 1048.69 954.585 1048.69 954.602C1048.81 955.106 1048.93 955.638 1049.06 956.197C1037.1 942.463 1016 941.35 1007.2 941.536ZM1051.12 960.154C1051.15 960.132 1051.17 960.105 1051.19 960.074C1060.38 941.937 1074.91 926.977 1091.05 919.028C1095.93 916.626 1101.1 914.645 1106.11 912.728C1110.92 910.89 1115.89 908.988 1120.6 906.709C1131.67 901.364 1139.29 894.624 1143.28 886.667C1143.07 887.601 1142.8 888.532 1142.5 889.459C1137.31 898.769 1129.96 906.908 1121.22 913.016C1113.77 918.222 1105.28 921.989 1097.08 925.636C1093.61 927.177 1090.02 928.774 1086.56 930.456C1071.81 937.62 1062.47 945.391 1057.21 954.89C1054.98 957.598 1053.17 960.649 1051.95 964.197C1051.68 962.802 1051.4 961.458 1051.12 960.154ZM977.611 955.656C980.4 955.592 983.245 955.486 985.992 955.386C996.816 954.983 1008.01 954.569 1018.76 956.593C1030.97 958.892 1047.05 967.119 1053.56 979.752C1053.66 980.392 1053.76 981.03 1053.86 981.668L1053.91 981.984C1053.95 982.26 1053.99 982.541 1054.03 982.817C1044.98 972.291 1032.01 965.038 1018.3 962.864C1010.54 961.633 1002.55 961.963 994.826 962.287C988.438 962.552 981.836 962.83 975.397 962.216C964.708 961.203 954.378 957.763 945.219 952.204C955.904 955.575 967.39 955.888 977.611 955.656ZM967.265 968.591C956.207 965.46 946.308 958.863 939.153 949.898C940.366 950.446 941.596 950.94 942.84 951.391C952.568 957.759 963.751 961.691 975.341 962.79C981.82 963.407 988.445 963.13 994.852 962.864C1002.55 962.543 1010.51 962.213 1018.22 963.436C1032.09 965.64 1045.2 973.099 1054.19 983.903C1054.25 984.28 1054.31 984.659 1054.36 985.039C1045.25 975.938 1032.68 970.14 1019.85 969.137C1013.55 968.644 1007.18 969.245 1001.01 969.828L986.097 971.239C979.729 970.971 973.369 970.322 967.265 968.591ZM1018.86 972.729C1011.52 971.584 1003.95 971.515 996.623 971.451C994.695 971.434 992.753 971.417 990.807 971.379L1001.07 970.408C1007.21 969.825 1013.55 969.226 1019.8 969.715C1032.53 970.712 1044.99 976.467 1054 985.506C1054.11 985.618 1054.3 985.619 1054.41 985.508C1054.42 985.505 1054.42 985.502 1054.42 985.499C1054.5 986.07 1054.58 986.642 1054.65 987.214C1044.02 978.2 1032.61 974.876 1018.86 972.729ZM1094.1 1003.9C1087.76 1004.89 1081.77 1005.82 1075.92 1008.9C1069.02 1012.53 1062.12 1016.75 1059.22 1024.7C1059.18 1023.72 1059.13 1022.72 1059.07 1021.65C1059.07 1021.64 1059.07 1021.63 1059.07 1021.63C1059.07 1021.62 1059.07 1021.6 1059.06 1021.59C1059.06 1021.59 1059.06 1021.58 1059.06 1021.58C1059 1020.35 1058.92 1019.09 1058.84 1017.82C1058.9 1017.8 1058.95 1017.76 1058.99 1017.71C1064.66 1008.15 1074.06 1000.95 1084.77 997.961C1089.09 996.756 1093.63 996.212 1098.03 995.686C1101.46 995.276 1105.02 994.848 1108.45 994.112C1124.79 990.602 1139.2 979.517 1146.93 964.758C1147.14 964.525 1147.34 964.288 1147.53 964.054C1144.8 973.459 1139.4 982.119 1132.13 988.664C1127.59 992.746 1122.57 996.04 1117.35 998.428C1112.63 1000.05 1107.67 1001.24 1102.61 1002.38C1099.75 1003.02 1096.88 1003.46 1094.1 1003.9ZM958.202 989.712C958.081 989.633 957.931 989.655 957.836 989.751C948.857 983.607 941.32 975.462 935.899 965.971C938.819 968.996 942.134 971.741 945.885 974.214C953.54 979.262 962.983 983.184 974.409 986.083C982.003 988.013 989.851 989.373 997.438 990.691C1004.27 991.878 1011.33 993.103 1018.18 994.738C1035.48 998.868 1048.32 1005.17 1057.42 1013.99C1057.56 1015.98 1057.68 1017.94 1057.8 1019.87C1048.28 1011.81 1038.21 1006.56 1027.02 1003.83C1018.68 1001.81 1009.99 1001.18 1001.58 1000.56C998.345 1000.33 995.004 1000.09 991.734 999.767C981.612 998.787 968.65 996.737 958.202 989.712ZM1129.06 992.956C1126.95 994.293 1124.74 995.436 1122.46 996.436C1125.99 994.388 1129.38 991.926 1132.53 989.089C1140.22 982.165 1145.84 972.9 1148.47 962.887C1148.53 962.801 1148.6 962.716 1148.67 962.627C1146.86 974.866 1139.49 986.333 1129.06 992.956ZM1058.74 1012.91C1063.19 1003.66 1071.67 996.85 1085.42 991.459C1091.77 988.972 1098.49 987.174 1104.99 985.439C1110 984.096 1115.19 982.71 1120.19 981.013C1131.11 977.307 1139.39 972.532 1145.3 966.514C1137.42 980.102 1123.75 990.224 1108.34 993.537C1104.92 994.271 1101.39 994.693 1097.96 995.103C1093.54 995.632 1088.98 996.176 1084.62 997.396C1073.95 1000.38 1064.57 1007.47 1058.79 1016.91C1058.71 1015.67 1058.63 1014.41 1058.53 1013.15C1058.62 1013.09 1058.69 1013.01 1058.74 1012.91ZM976.017 979.506C981.225 980.137 986.547 980.568 991.697 980.984C1001.46 981.773 1011.56 982.589 1021.23 984.828C1036.97 988.471 1049.67 996.958 1057.02 1008.74C1057.15 1010.21 1057.26 1011.67 1057.36 1013.12C1048.22 1004.46 1035.44 998.252 1018.32 994.171C1011.46 992.534 1004.39 991.305 997.544 990.118C989.967 988.801 982.133 987.441 974.56 985.52C958.734 981.502 946.761 975.529 938.076 967.303C947.51 973.612 959.746 977.529 976.017 979.506ZM1032.5 1008.98C1025.04 1007.36 1017.3 1006.36 1009.81 1005.39C996.119 1003.61 981.963 1001.77 969.231 996.117C968.079 995.605 966.946 995.063 965.824 994.491C974.528 998.23 983.931 999.599 991.678 1000.36C994.956 1000.68 998.301 1000.92 1001.53 1001.15C1009.92 1001.76 1018.59 1002.39 1026.88 1004.41C1034.89 1006.36 1042.33 1009.62 1049.41 1014.29C1044.28 1011.8 1038.37 1010.25 1032.5 1008.98ZM1089.49 1058.5C1097.27 1054.67 1105.84 1052.32 1114.11 1050.05C1117.57 1049.1 1121.14 1048.13 1124.62 1047.05C1133.58 1044.28 1146.2 1039.53 1154.73 1029.94C1154.72 1030 1154.7 1030.06 1154.68 1030.12C1148.22 1038.87 1138.23 1046.15 1124.2 1052.35C1118.77 1054.74 1113.1 1056.86 1107.62 1058.91C1100.98 1061.39 1094.12 1063.96 1087.61 1067.04C1074.06 1073.47 1064.22 1081.45 1058.32 1090.79C1058.38 1089.96 1058.43 1089.12 1058.48 1088.31C1065.1 1075.94 1076.68 1064.8 1089.49 1058.5ZM1129.93 1030.88C1121.18 1036.32 1111.14 1039.59 1101.43 1042.76C1097.88 1043.91 1094.22 1045.11 1090.67 1046.39C1088.74 1047.09 1086.92 1047.71 1085.16 1048.32C1075 1051.81 1067.54 1054.37 1059.59 1063.5C1059.62 1062.63 1059.63 1061.76 1059.65 1060.89C1070.65 1050.12 1086.12 1044.78 1101.05 1040.23C1102.72 1039.72 1104.38 1039.23 1106.02 1038.74C1115.83 1035.82 1125.24 1033.01 1133.84 1028.22C1132.57 1029.16 1131.26 1030.05 1129.93 1030.88ZM1137.37 1025.42C1127.82 1031.63 1117.09 1034.83 1105.85 1038.18C1104.2 1038.67 1102.54 1039.17 1100.88 1039.67C1086.06 1044.18 1070.72 1049.47 1059.66 1060.06C1059.66 1059.75 1059.67 1059.44 1059.68 1059.14C1059.68 1059.12 1059.68 1059.11 1059.68 1059.09C1059.69 1058.51 1059.69 1057.93 1059.7 1057.35C1069.73 1045.45 1079.77 1037.24 1091.28 1031.53C1097.7 1028.34 1104.55 1025.79 1111.18 1023.33C1117.56 1020.95 1124.17 1018.49 1130.4 1015.46C1140.63 1010.48 1153.69 1001.72 1159.05 987.991C1156.39 1002.36 1148.49 1015.89 1137.37 1025.42ZM1085.73 1023.16C1094.27 1018.6 1103.69 1015.55 1112.79 1012.6C1117.03 1011.23 1121.42 1009.81 1125.67 1008.26C1141.21 1002.57 1151.84 995.764 1158.81 987.003C1153.71 1001.01 1140.48 1009.9 1130.15 1014.93C1123.95 1017.95 1117.36 1020.41 1110.99 1022.78C1104.35 1025.25 1097.48 1027.8 1091.03 1031.01C1079.62 1036.67 1069.65 1044.77 1059.73 1056.44C1059.74 1055.38 1059.76 1054.33 1059.77 1053.28C1062.02 1041.27 1070.75 1031.14 1085.73 1023.16ZM951.877 1002.68C952.489 1003.08 953.108 1003.47 953.736 1003.84C954.46 1004.36 955.191 1004.86 955.934 1005.35C963.631 1010.43 972.346 1013.99 981.396 1015.73C987.366 1016.88 993.53 1017.25 999.498 1017.61C1002.94 1017.81 1006.49 1018.03 1009.97 1018.39C1018.27 1019.25 1024.91 1020.94 1030.34 1023.59C1031.79 1024.37 1033.23 1025.19 1034.63 1026.06C1035.31 1026.51 1035.97 1026.98 1036.61 1027.47C1036.7 1027.54 1036.81 1027.55 1036.91 1027.51C1045.29 1033.08 1052.83 1040.3 1058.61 1048.55C1058.61 1050.05 1058.61 1051.57 1058.6 1053.08L1058.6 1053.2C1058.6 1053.21 1058.6 1053.21 1058.6 1053.22C1058.6 1053.22 1058.6 1053.22 1058.6 1053.22C1058.6 1053.58 1058.59 1053.94 1058.58 1054.3C1049.23 1043.27 1041 1036.43 1031.97 1032.17C1022.79 1027.83 1012.74 1026.27 1002.4 1024.93L1000.16 1024.65C990.953 1023.47 981.434 1022.25 972.647 1018.97C962.885 1015.32 955.342 1009.4 951.123 1002.16C951.375 1002.33 951.623 1002.51 951.877 1002.68ZM980.898 1012.42C984.629 1012.97 988.445 1013.39 992.131 1013.81C999.927 1014.68 1007.99 1015.59 1015.65 1017.68C1018.22 1018.38 1020.78 1019.26 1023.3 1020.28C1019.4 1019.14 1015.01 1018.33 1010.02 1017.81C1006.54 1017.45 1002.98 1017.23 999.533 1017.03C993.589 1016.67 987.441 1016.3 981.509 1015.16C973.503 1013.62 965.768 1010.64 958.773 1006.45C966.503 1009.93 974.655 1011.5 980.898 1012.42ZM1016.73 1036.48C1011.23 1034.94 1005.53 1033.82 1000.03 1032.74C996.662 1032.08 993.182 1031.4 989.787 1030.62C982.328 1028.93 972.696 1026.25 964.46 1020.73C956.814 1015.61 951.407 1008.46 949.411 1000.93C949.604 1001.07 949.8 1001.22 949.995 1001.36C952.65 1006.39 956.849 1010.83 962.251 1014.39C965.289 1016.39 968.709 1018.12 972.445 1019.51C981.293 1022.82 990.846 1024.04 1000.08 1025.23L1002.32 1025.52C1012.62 1026.85 1022.61 1028.4 1031.71 1032.7C1040.8 1036.98 1049.09 1043.92 1058.57 1055.19C1058.56 1056.07 1058.55 1056.94 1058.53 1057.82C1047.68 1048.06 1035.09 1041.64 1016.73 1036.48ZM989.061 1040.08C993.331 1041.46 997.725 1042.73 1001.97 1043.95C1011.23 1046.61 1020.79 1049.36 1029.58 1053.58C1043.87 1060.43 1054.08 1071.35 1057.59 1083.54C1057.53 1084.66 1057.46 1085.78 1057.4 1086.92C1055.25 1078.34 1048.78 1070.34 1039.53 1064.86C1030.91 1059.76 1020.92 1057.18 1011.43 1054.98C1010.55 1054.78 1009.67 1054.58 1008.79 1054.38C1000.11 1052.38 991.133 1050.32 982.977 1046.5C971.302 1041.04 961.466 1031.98 955.021 1020.84C955.005 1020.78 954.985 1020.71 954.968 1020.64C964.914 1031.3 979.013 1036.8 989.061 1040.08ZM967.004 1046.03C959.616 1039.44 954.812 1029.84 953.868 1019.99C954.065 1020.34 954.265 1020.69 954.466 1021.04C957.664 1033.14 965.207 1044.22 975.232 1051.78C972.312 1050.17 969.525 1048.28 967.004 1046.03ZM1032.68 1068.45C1024.34 1064.9 1015.29 1063.12 1006.53 1061.4C1003.92 1060.88 1001.21 1060.36 998.58 1059.79C992.538 1058.49 985.523 1056.68 978.905 1053.63C967.947 1046.59 959.476 1035.42 955.631 1022.98C960.509 1030.79 967.061 1037.49 974.739 1042.55C977.285 1044.23 979.954 1045.73 982.729 1047.03C990.941 1050.88 999.95 1052.94 1008.66 1054.94C1009.54 1055.15 1010.42 1055.35 1011.3 1055.55C1020.74 1057.74 1030.68 1060.3 1039.23 1065.36C1048.67 1070.95 1055.15 1079.17 1057.03 1087.92C1057.06 1088.06 1057.18 1088.15 1057.32 1088.15C1057.26 1089.12 1057.19 1090.1 1057.13 1091.09C1052.92 1080.33 1041.99 1072.4 1032.68 1068.45ZM1138.8 1054.56C1129.66 1062.41 1118.4 1067.33 1110.74 1070.35C1105.89 1072.26 1101.42 1073.36 1097.08 1074.43C1092.44 1075.58 1087.64 1076.76 1082.42 1078.93L1081.36 1079.37C1072.39 1083.1 1063.88 1086.63 1058.08 1094.32C1058.13 1093.55 1058.19 1092.8 1058.24 1092.05C1064 1082.4 1073.96 1074.16 1087.86 1067.57C1094.35 1064.5 1101.2 1061.94 1107.82 1059.46C1113.31 1057.41 1118.99 1055.29 1124.44 1052.88C1137.95 1046.91 1147.75 1039.93 1154.29 1031.6C1151.86 1039.95 1146.47 1047.98 1138.8 1054.56Z" fill="#871054" fill-opacity="0.2"/>
<path d="M1262.36 2314.88C1262.41 2314.61 1262.27 2314.35 1262.02 2314.24C1261.77 2314.13 1261.49 2314.2 1261.32 2314.42C1253.03 2324.98 1239.63 2330.05 1230.27 2332.94C1226.81 2334.01 1223.25 2334.99 1219.8 2335.93C1211.47 2338.21 1202.85 2340.57 1194.96 2344.45C1182.69 2350.5 1171.52 2360.91 1164.64 2372.63C1164.69 2371.91 1164.73 2371.2 1164.77 2370.5C1165.11 2364.37 1165.37 2358.3 1165.54 2352.36C1173.64 2342.57 1181.15 2339.99 1191.53 2336.43C1193.3 2335.82 1195.13 2335.19 1197.06 2334.49C1200.59 2333.21 1204.25 2332.02 1207.79 2330.87C1217.56 2327.68 1227.67 2324.38 1236.54 2318.87C1240.5 2316.41 1244.21 2313.46 1247.6 2310.12C1248.17 2309.68 1248.74 2309.23 1249.31 2308.75C1249.43 2308.65 1249.45 2308.47 1249.34 2308.35C1249.34 2308.34 1249.34 2308.34 1249.34 2308.34C1252.19 2305.3 1254.78 2301.97 1257.04 2298.41C1262.33 2290.08 1265.71 2280.65 1266.81 2271.15C1266.85 2270.88 1266.69 2270.63 1266.44 2270.53C1266.19 2270.44 1265.91 2270.53 1265.75 2270.75C1259.02 2280.57 1248.06 2288 1231.25 2294.16C1227.02 2295.7 1222.65 2297.12 1218.42 2298.49C1209.27 2301.45 1199.81 2304.52 1191.17 2309.12C1177.76 2316.27 1169.24 2325.15 1165.77 2335.55C1165.77 2335.5 1165.77 2335.45 1165.77 2335.4C1165.77 2335.37 1165.77 2335.35 1165.77 2335.33C1165.76 2328.51 1165.63 2321.79 1165.37 2315.35C1165.37 2315.27 1165.37 2315.18 1165.36 2315.1C1165.44 2315.02 1165.5 2314.93 1165.53 2314.81C1167.58 2305.45 1174.71 2301.01 1182.46 2296.93C1188.14 2293.95 1194.04 2293.03 1200.28 2292.05C1203.07 2291.62 1205.97 2291.17 1208.87 2290.52C1218.44 2288.36 1227.69 2286.01 1235.67 2280.95C1247.05 2273.72 1254.88 2260.9 1256.09 2247.48C1256.12 2247.21 1255.96 2246.96 1255.71 2246.87C1255.45 2246.78 1255.18 2246.88 1255.02 2247.1C1254.89 2247.3 1254.76 2247.49 1254.62 2247.69C1254.61 2247.67 1254.59 2247.65 1254.56 2247.65C1254.41 2247.58 1254.24 2247.65 1254.18 2247.8C1253.99 2248.23 1253.79 2248.66 1253.59 2249.09C1247.76 2256.7 1238.64 2262.55 1225.8 2266.91C1220.84 2268.6 1215.67 2269.98 1210.67 2271.31C1204.15 2273.06 1197.39 2274.87 1190.98 2277.38C1177.62 2282.62 1169.11 2289.22 1164.37 2298.06C1164.3 2297.21 1164.24 2296.36 1164.16 2295.51C1164.01 2293.7 1163.84 2291.81 1163.64 2289.72C1163.28 2286.01 1162.86 2282.23 1162.4 2278.49C1168.23 2271.09 1176.24 2268.11 1184.72 2264.97C1186.71 2264.23 1188.76 2263.47 1190.82 2262.64C1192.68 2261.88 1194.59 2261.14 1196.45 2260.42C1205.62 2256.85 1215.11 2253.15 1223.11 2247.17C1235.82 2237.67 1244.07 2222.54 1245.18 2206.71C1245.19 2206.42 1245.01 2206.17 1244.74 2206.1C1244.46 2206.03 1244.18 2206.16 1244.06 2206.42C1240.51 2214.15 1233.12 2220.48 1222.11 2225.23C1217.9 2227.05 1213.46 2228.56 1209.17 2230.01C1204.13 2231.72 1198.92 2233.49 1194 2235.79C1180.93 2241.91 1168.62 2253.55 1160.79 2267.14C1160.76 2266.91 1160.73 2266.69 1160.69 2266.47C1160.02 2262.21 1159.26 2257.89 1158.43 2253.64C1161.81 2240.87 1172.7 2234.38 1184.23 2227.51C1185.06 2227.02 1185.88 2226.52 1186.71 2226.03C1192.44 2222.59 1198.56 2219.6 1204.49 2216.71C1211.37 2213.34 1218.5 2209.86 1225.07 2205.65C1239.61 2196.32 1248.77 2184.27 1250.87 2171.71C1250.9 2171.49 1250.81 2171.27 1250.63 2171.14C1250.43 2171.01 1250.21 2171 1250.01 2171.1C1241.3 2175.8 1232 2179.74 1223.01 2183.54C1213.68 2187.48 1204.03 2191.57 1194.99 2196.52C1185.49 2201.73 1176.94 2208.19 1170.27 2215.21C1163.14 2222.72 1158.12 2230.8 1155.33 2239.25C1155.06 2238.14 1154.81 2237.1 1154.56 2236.12C1154.56 2236.11 1154.56 2236.11 1154.56 2236.1C1154.55 2236.09 1154.55 2236.09 1154.55 2236.09C1153.1 2230.22 1151.48 2224.38 1149.74 2218.73C1149.73 2218.71 1149.72 2218.69 1149.72 2218.68C1149.28 2217.27 1148.82 2215.79 1148.33 2214.3C1153.02 2204.22 1161.73 2200.9 1171.82 2197.06C1174.33 2196.11 1176.92 2195.12 1179.54 2194C1184.31 2191.94 1189.29 2190.12 1194.11 2188.36C1202.56 2185.27 1211.3 2182.08 1219.24 2177.5C1235.7 2168.01 1248.68 2152.28 1254.85 2134.31C1254.93 2134.06 1254.84 2133.78 1254.62 2133.63C1254.62 2133.63 1254.61 2133.63 1254.61 2133.63C1254.38 2133.48 1254.09 2133.51 1253.89 2133.7C1242.4 2144.56 1226.98 2149.85 1213.43 2153.95C1211.52 2154.53 1209.59 2155.11 1207.67 2155.67C1194.99 2159.43 1181.88 2163.32 1170.54 2170.45C1158.94 2177.75 1147.17 2191.44 1145.63 2206.35C1144.13 2202.11 1142.53 2197.92 1140.88 2193.85C1140.87 2193.83 1140.86 2193.81 1140.85 2193.79C1140.62 2193.23 1140.39 2192.67 1140.16 2192.11L1140.1 2191.98C1145.22 2178.51 1156.46 2166.93 1173.51 2157.56C1179.95 2154.02 1186.76 2150.9 1193.34 2147.88C1201.76 2144.02 1210.47 2140.03 1218.52 2135.12C1230.5 2127.8 1245.63 2115.23 1249.75 2096.87C1249.8 2096.65 1249.72 2096.43 1249.55 2096.29C1249.37 2096.14 1249.14 2096.11 1248.94 2096.21L1247.95 2096.65C1247.95 2096.64 1247.95 2096.64 1247.94 2096.63C1247.81 2096.54 1247.63 2096.56 1247.53 2096.69C1247.46 2096.77 1247.4 2096.85 1247.33 2096.93L1195.71 2120.2C1182.13 2126.32 1168.09 2132.65 1156.63 2142.7C1150.92 2147.71 1145.73 2154.73 1142 2162.47C1138.52 2169.69 1136.6 2176.87 1136.36 2183.42C1134.25 2178.78 1132.02 2174.24 1129.73 2169.9C1129.47 2168.7 1129.21 2167.5 1128.95 2166.3C1125.67 2151.18 1122.29 2135.55 1115.87 2121.62C1107.7 2103.91 1098.48 2090.1 1087.69 2079.4C1074.72 2066.56 1058.94 2058.15 1043.24 2055.74C1042.98 2055.7 1042.73 2055.83 1042.62 2056.07C1042.51 2056.3 1042.57 2056.59 1042.77 2056.76C1042.87 2056.85 1042.97 2056.94 1043.08 2057.03C1043.02 2057.06 1042.98 2057.11 1042.95 2057.18C1042.89 2057.33 1042.97 2057.5 1043.12 2057.55C1043.46 2057.68 1043.79 2057.81 1044.12 2057.94C1061.67 2073.51 1074.45 2094.35 1086.82 2114.52C1098.99 2134.36 1111.57 2154.87 1128.71 2170.45C1130.46 2173.79 1132.18 2177.24 1133.85 2180.77C1114.54 2169.79 1092.6 2164.02 1071.36 2158.43C1067.71 2157.47 1063.95 2156.48 1060.26 2155.48C1034.84 2148.58 1008.65 2139.71 989.345 2121.6C989.132 2121.4 988.808 2121.39 988.581 2121.57C988.356 2121.75 988.292 2122.07 988.438 2122.32C995.573 2134.82 1005.58 2146.14 1017.38 2155.06C1019.26 2156.48 1021.19 2157.84 1023.16 2159.14C1033.53 2165.98 1045.03 2171.06 1056.78 2173.96C1065.99 2176.24 1075.56 2177.3 1084.81 2178.34C1089.89 2178.91 1095.15 2179.49 1100.27 2180.27C1114.11 2182.37 1128.55 2185.2 1139.85 2194.45C1141.56 2198.65 1143.2 2202.99 1144.74 2207.37C1137.39 2199.3 1125.28 2193.08 1109.46 2189.27C1094.93 2185.78 1077.81 2184.41 1061.25 2185.43C1056.3 2185.73 1051.3 2186.31 1046.47 2186.86C1041.15 2187.48 1035.65 2188.11 1030.23 2188.38C1017.94 2188.99 1008.05 2187.45 1000 2183.67C999.754 2183.56 999.454 2183.63 999.288 2183.85C999.12 2184.07 999.133 2184.38 999.313 2184.58C1003.32 2189.22 1007.97 2193.26 1013.05 2196.61C1022.46 2202.81 1033.38 2206.67 1044.68 2207.59C1056.44 2208.55 1068.29 2206.38 1079.74 2204.28L1081.5 2203.96C1093.99 2201.68 1106.18 2199.78 1118.02 2201.49C1132.24 2203.56 1143.4 2209.99 1148.64 2219.17C1150.21 2224.24 1151.66 2229.48 1153 2234.76C1141.09 2225.4 1129.08 2219.34 1116.32 2216.25C1104.64 2213.42 1092.19 2213.11 1078.26 2215.27C1073.8 2215.97 1069.32 2216.98 1065 2217.97C1060.45 2219 1055.74 2220.07 1051.05 2220.76C1040.13 2222.37 1031.34 2221.49 1024.15 2218.08C1023.91 2217.97 1023.61 2218.03 1023.44 2218.25C1023.27 2218.46 1023.28 2218.76 1023.45 2218.98C1025.92 2222.05 1028.77 2224.54 1031.83 2226.55C1043.32 2234.13 1057.79 2235.03 1066.51 2234.73C1074.16 2234.47 1081.85 2233.34 1089.28 2232.25C1097.11 2231.1 1105.2 2229.91 1113.21 2229.74C1122.21 2229.55 1144.32 2230.73 1155.61 2245.8C1156.16 2248.31 1156.7 2250.91 1157.25 2253.76C1157.88 2257.01 1158.47 2260.29 1159.02 2263.56C1151.61 2252.06 1136.95 2244.74 1124.95 2242.48C1114.07 2240.43 1102.81 2240.85 1091.92 2241.26C1089.18 2241.36 1086.34 2241.46 1083.56 2241.53C1070.79 2241.82 1056.03 2241.25 1043.46 2234.84C1043.22 2234.72 1042.92 2234.78 1042.75 2234.98C1042.57 2235.19 1042.56 2235.49 1042.72 2235.71C1046.71 2241.18 1051.66 2245.88 1057.27 2249.58C1062.07 2252.74 1067.35 2255.18 1072.92 2256.76C1082.56 2259.49 1092.74 2259.58 1102.59 2259.66C1109.87 2259.73 1117.4 2259.8 1124.65 2260.93C1138.64 2263.11 1150.16 2266.52 1160.87 2276.01C1160.98 2276.8 1161.08 2277.59 1161.18 2278.39C1161.18 2278.41 1161.19 2278.44 1161.19 2278.47C1161.67 2282.26 1162.09 2286.1 1162.46 2289.87C1162.58 2291.09 1162.68 2292.23 1162.78 2293.34C1155.13 2282.24 1142.68 2274.25 1127.46 2270.73C1117.7 2268.47 1107.56 2267.65 1097.75 2266.86C1092.62 2266.44 1087.31 2266.02 1082.12 2265.38C1063.31 2263.1 1049.99 2258.21 1040.19 2250.01C1039.98 2249.83 1039.67 2249.83 1039.45 2250C1039.23 2250.18 1039.17 2250.48 1039.3 2250.73C1045.07 2261.98 1053.7 2271.55 1064.19 2278.47C1067.53 2280.66 1071.05 2282.59 1074.72 2284.23C1087.61 2289.95 1101.85 2291.8 1115.62 2293.59C1123.09 2294.55 1130.8 2295.56 1138.22 2297.16C1148.01 2299.29 1157.9 2302.18 1163.88 2308.95C1164 2311.32 1164.1 2313.44 1164.18 2315.44C1164.41 2321.29 1164.54 2327.39 1164.57 2333.58C1153.99 2319.18 1138.18 2308.04 1121.92 2303.59C1114.17 2301.48 1106.07 2300.57 1098.22 2299.69C1094.54 2299.27 1090.74 2298.85 1087.03 2298.3C1077.9 2296.96 1064.63 2294.22 1054.8 2286.01C1054.61 2285.84 1054.34 2285.83 1054.13 2285.95C1053.91 2286.08 1053.8 2286.32 1053.85 2286.57C1055.52 2294.99 1061.32 2303.08 1069.77 2308.74C1069.88 2308.81 1069.98 2308.88 1070.09 2308.95C1078.42 2314.45 1088.03 2317.1 1095.49 2318.8C1098.9 2319.57 1102.39 2320.26 1105.77 2320.92C1111.25 2322 1116.92 2323.11 1122.38 2324.65C1140.98 2329.87 1153.59 2336.39 1164.47 2346.41C1164.35 2353.22 1164.1 2360.27 1163.73 2367.4C1159.45 2356.06 1149.52 2346.03 1136.05 2339.56C1127.17 2335.3 1117.56 2332.53 1108.26 2329.86C1104.02 2328.64 1099.64 2327.38 1095.39 2326C1078.37 2320.46 1066.99 2313.56 1059.55 2304.3C1059.4 2304.11 1059.13 2304.03 1058.89 2304.12C1058.66 2304.21 1058.5 2304.44 1058.51 2304.68C1058.86 2315.67 1063.98 2326.61 1072.19 2333.94C1073.77 2335.35 1075.45 2336.62 1077.2 2337.77C1085.75 2343.41 1095.95 2346.17 1104.3 2347.97C1106.95 2348.54 1109.66 2349.07 1112.28 2349.58C1120.97 2351.29 1129.96 2353.05 1138.2 2356.56C1147.95 2360.71 1159.55 2369.29 1162.81 2380.94C1162.83 2381 1162.86 2381.06 1162.89 2381.11C1162.85 2381.81 1162.8 2382.52 1162.74 2383.24C1162.68 2383.37 1162.67 2383.52 1162.71 2383.65C1161.45 2400.71 1159.6 2418.65 1156.89 2440.08C1156.86 2440.31 1156.97 2440.53 1157.15 2440.65C1157.22 2440.69 1157.31 2440.73 1157.4 2440.74C1157.72 2440.78 1158.01 2440.56 1158.05 2440.23C1160.77 2418.73 1162.63 2400.73 1163.89 2383.62C1169.48 2375.09 1178.37 2371.4 1187.78 2367.49L1188.85 2367.05C1193.98 2364.92 1198.74 2363.74 1203.34 2362.61C1207.71 2361.53 1212.22 2360.41 1217.14 2358.47C1224.89 2355.43 1236.25 2350.45 1245.54 2342.49C1254.64 2334.66 1260.6 2324.87 1262.36 2314.88ZM1162.2 2276.89C1162.19 2276.86 1162.19 2276.83 1162.19 2276.81C1162.23 2276.8 1162.26 2276.79 1162.3 2276.78C1162.26 2276.81 1162.23 2276.85 1162.2 2276.89ZM1196.03 2259.33C1194.18 2260.05 1192.26 2260.8 1190.39 2261.55C1188.34 2262.38 1186.3 2263.13 1184.32 2263.87C1176.14 2266.9 1168.38 2269.78 1162.46 2276.58C1164.2 2273.03 1167.36 2269.85 1171.63 2267.39C1175.49 2265.16 1179.8 2263.7 1183.97 2262.3L1209.79 2253.6C1205.28 2255.72 1200.62 2257.54 1196.03 2259.33ZM1222.42 2246.23C1219.65 2248.29 1216.7 2250.08 1213.64 2251.69L1183.78 2261.76C1179.59 2263.17 1175.25 2264.63 1171.34 2266.89C1167.09 2269.34 1163.9 2272.5 1162.09 2276.03C1162.07 2275.89 1162.05 2275.75 1162.03 2275.6C1162.03 2275.58 1162.02 2275.55 1162.01 2275.53C1161.92 2274.85 1161.83 2274.16 1161.73 2273.48C1161.76 2273.45 1161.79 2273.42 1161.81 2273.39C1166.78 2264.53 1175.53 2256.99 1188.56 2250.33C1192.89 2248.11 1197.42 2246.09 1201.8 2244.14C1208.22 2241.28 1214.85 2238.32 1221.01 2234.68C1228.66 2230.16 1238.36 2222.72 1243.34 2212.09C1240.96 2225.55 1233.39 2238.03 1222.42 2246.23ZM1194.51 2236.84C1199.37 2234.57 1204.55 2232.82 1209.56 2231.12C1213.87 2229.65 1218.33 2228.14 1222.58 2226.3C1232.58 2221.98 1239.68 2216.36 1243.73 2209.57C1243.72 2209.64 1243.71 2209.71 1243.7 2209.79C1239.12 2221.38 1228.77 2229.41 1220.71 2234.17C1214.59 2237.8 1207.96 2240.75 1201.56 2243.61C1197.18 2245.56 1192.64 2247.58 1188.3 2249.8C1175.42 2256.39 1166.69 2263.84 1161.61 2272.56C1161.44 2271.37 1161.27 2270.19 1161.09 2269C1168.75 2255.07 1181.23 2243.06 1194.51 2236.84ZM1224.45 2204.66C1217.93 2208.84 1210.84 2212.3 1203.98 2215.65C1198.04 2218.55 1191.89 2221.55 1186.11 2225.02C1185.29 2225.51 1184.47 2226 1183.64 2226.49C1176.87 2230.53 1170.31 2234.44 1165.3 2239.57C1170.72 2231.34 1179.55 2224.42 1192.82 2217.97C1196.27 2216.29 1199.86 2214.7 1203.32 2213.16C1211.55 2209.51 1220.06 2205.72 1227.55 2200.49C1235.46 2194.96 1242.24 2187.78 1247.34 2179.58C1243.42 2188.85 1235.53 2197.55 1224.45 2204.66ZM1195.56 2197.54C1204.55 2192.61 1214.17 2188.54 1223.47 2184.6C1231.95 2181.02 1240.69 2177.32 1248.98 2172.96C1245.11 2181 1237.5 2187.8 1226.35 2193.18C1221.65 2195.45 1216.69 2197.35 1211.9 2199.18C1206.88 2201.1 1201.69 2203.09 1196.79 2205.5C1180.7 2213.43 1166.2 2228.27 1156.93 2246.29C1156.87 2245.99 1156.8 2245.68 1156.74 2245.39L1156.74 2245.38C1156.73 2245.38 1156.73 2245.37 1156.73 2245.37C1156.4 2243.86 1156.13 2242.62 1155.86 2241.5C1162.48 2218.56 1183.57 2204.11 1195.56 2197.54ZM1193.72 2187.25C1188.88 2189.02 1183.88 2190.84 1179.08 2192.91C1176.49 2194.03 1173.91 2195.01 1171.42 2195.96C1161.46 2199.75 1152.81 2203.05 1147.82 2212.69C1147.76 2212.49 1147.69 2212.28 1147.62 2212.08C1147.69 2212.03 1147.73 2211.96 1147.74 2211.88C1148.38 2206.47 1152 2201.28 1157.68 2197.63C1162.8 2194.35 1168.75 2192.66 1174.5 2191.03C1177.22 2190.26 1179.9 2189.51 1182.57 2188.77C1192.33 2186.05 1201.64 2183.45 1212.21 2179.84C1206.18 2182.69 1199.87 2185 1193.72 2187.25ZM1218.67 2176.47C1217.88 2176.93 1217.07 2177.37 1216.27 2177.8C1203.9 2182.21 1193.44 2185.13 1182.4 2188.21C1179.74 2188.95 1177.06 2189.69 1174.34 2190.47C1168.54 2192.11 1162.55 2193.81 1157.36 2197.14C1151.9 2200.65 1148.29 2205.57 1147.31 2210.77C1147.31 2210.77 1147.31 2210.77 1147.31 2210.76C1147.25 2210.72 1147.19 2210.67 1147.13 2210.63C1147.06 2210.41 1146.99 2210.19 1146.92 2209.99C1146.91 2209.97 1146.91 2209.96 1146.9 2209.94C1146.89 2209.92 1146.88 2209.89 1146.87 2209.87C1151.03 2198.22 1160.2 2190.23 1167.24 2185.54C1176.31 2179.51 1186.66 2175.54 1197.34 2171.67L1199.44 2170.91C1209.07 2167.44 1219.02 2163.85 1227.98 2158.61C1237.5 2153.05 1246.02 2145.5 1252.71 2136.73C1246.29 2153.25 1234.02 2167.62 1218.67 2176.47ZM1171.18 2171.43C1182.37 2164.38 1195.41 2160.52 1208.01 2156.78C1209.93 2156.21 1211.86 2155.64 1213.78 2155.06C1227.1 2151.02 1240.79 2146.06 1251.51 2137.32C1244.98 2145.63 1236.79 2152.78 1227.68 2158.1C1218.77 2163.31 1208.84 2166.89 1199.24 2170.36L1197.14 2171.12C1186.42 2175 1176.04 2178.98 1166.91 2185.05C1159.98 2189.67 1151.01 2197.46 1146.65 2208.77C1147.09 2193.37 1159.22 2178.95 1171.18 2171.43ZM1172.96 2156.52C1156.13 2165.77 1144.86 2177.17 1139.46 2190.43C1139.13 2189.64 1138.79 2188.85 1138.45 2188.06C1142.38 2170.14 1156 2152.09 1172.52 2143.01C1178.82 2139.55 1185.73 2137.11 1192.41 2134.75C1196.51 2133.31 1200.74 2131.81 1204.8 2130.09C1221.2 2123.16 1235.73 2112.22 1246.93 2098.39L1247.8 2098C1244.01 2105.77 1239.04 2112.85 1233.02 2119.06C1221.91 2130.52 1207.52 2139.2 1193.03 2146.73C1192.98 2146.76 1192.92 2146.78 1192.87 2146.81C1186.26 2149.83 1179.43 2152.96 1172.96 2156.52ZM1217.92 2134.1C1212.78 2137.24 1207.35 2140.01 1201.9 2142.61C1213.43 2136.13 1224.48 2128.69 1233.43 2119.47C1239.36 2113.36 1244.28 2106.4 1248.06 2098.78C1243.36 2115.57 1229.22 2127.21 1217.92 2134.1ZM1157.42 2143.56C1168.75 2133.62 1182.71 2127.33 1196.21 2121.25L1245.72 2098.93C1234.69 2112.26 1220.52 2122.81 1204.57 2129.55C1200.52 2131.26 1196.3 2132.76 1192.21 2134.2C1185.51 2136.57 1178.57 2139.01 1172.24 2142.5C1163.98 2147.04 1156.35 2153.76 1150.18 2161.94C1144.25 2169.81 1140.07 2178.5 1138.05 2187.15C1137.88 2186.77 1137.72 2186.39 1137.55 2186.01C1137.04 2172.19 1145.57 2153.96 1157.42 2143.56ZM1086.88 2080.21C1097.57 2090.81 1106.71 2104.51 1114.82 2122.09C1121.19 2135.9 1124.56 2151.47 1127.82 2166.53C1127.91 2166.9 1127.99 2167.28 1128.07 2167.66L1101.75 2120.57C1094.7 2107.94 1087.4 2094.89 1078.07 2083.47C1068.31 2071.53 1057.55 2063.01 1046.06 2058.08C1045.74 2057.79 1045.43 2057.5 1045.11 2057.22C1059.89 2059.98 1074.65 2068.09 1086.88 2080.21ZM1047.39 2059.31C1058.21 2064.29 1068.36 2072.52 1077.61 2083.84C1086.91 2095.22 1094.2 2108.25 1101.24 2120.85L1127.33 2167.54C1111.41 2152.34 1099.43 2132.8 1087.83 2113.88C1076 2094.6 1063.8 2074.71 1047.39 2059.31ZM1059.96 2156.58C1063.66 2157.59 1067.43 2158.58 1071.08 2159.54C1092.77 2165.24 1115.21 2171.14 1134.72 2182.6C1135.29 2183.83 1135.86 2185.07 1136.41 2186.32C1136.42 2186.34 1136.42 2186.35 1136.43 2186.37C1136.58 2186.7 1136.72 2187.03 1136.87 2187.36C1124.1 2179.36 1108.85 2175.94 1096.99 2173.85C1092.87 2173.13 1088.67 2172.48 1084.6 2171.86C1074.96 2170.37 1064.99 2168.83 1055.44 2166.16C1032.47 2159.73 1011.44 2146.43 995.707 2128.5C1014.24 2142.78 1037.4 2150.47 1059.96 2156.58ZM1100.46 2179.09C1095.31 2178.31 1090.04 2177.72 1084.95 2177.15C1075.73 2176.12 1066.2 2175.06 1057.07 2172.8C1030.29 2166.19 1006.02 2148.45 991.432 2125.03C992.058 2125.57 992.685 2126.1 993.321 2126.62C1001.09 2135.94 1010.27 2144.08 1020.41 2150.77C1031.12 2157.83 1042.92 2163.27 1055.28 2166.73C1064.86 2169.41 1074.85 2170.95 1084.51 2172.44C1088.57 2173.06 1092.77 2173.71 1096.89 2174.43C1108.71 2176.51 1123.9 2179.92 1136.6 2187.89C1136.74 2187.97 1136.92 2187.93 1137 2187.79C1137.02 2187.77 1137.02 2187.76 1137.02 2187.73C1137.67 2189.22 1138.32 2190.71 1138.94 2192.19L1138.95 2192.23C1127.7 2183.82 1113.79 2181.11 1100.46 2179.09ZM1030.3 2189.51C1035.76 2189.24 1041.28 2188.61 1046.61 2187.99C1051.43 2187.43 1056.41 2186.86 1061.33 2186.56C1091.61 2184.7 1128.14 2190.74 1143.95 2208.19C1125.82 2195.01 1102.26 2189.1 1080.09 2192.31C1075.22 2193.02 1070.35 2194.16 1065.63 2195.26C1059.08 2196.79 1052.3 2198.36 1045.49 2198.8C1031.07 2199.71 1016.4 2195.35 1004.77 2186.77C1011.94 2189.11 1020.35 2190.01 1030.3 2189.51ZM1118.2 2200.3C1106.18 2198.56 1093.89 2200.48 1081.3 2202.78L1079.54 2203.1C1068.16 2205.18 1056.39 2207.33 1044.78 2206.39C1028.57 2205.06 1013.13 2197.59 1002 2185.77C1002.33 2185.9 1002.66 2186.02 1003 2186.14C1004.32 2187.18 1005.68 2188.16 1007.08 2189.09C1018.35 2196.52 1032.05 2200.23 1045.53 2199.38C1052.38 2198.94 1059.19 2197.36 1065.77 2195.82C1070.47 2194.72 1075.34 2193.59 1080.18 2192.89C1103.03 2189.57 1127.36 2196.03 1145.63 2210.18C1145.7 2210.27 1145.77 2210.36 1145.84 2210.46C1146.24 2211.63 1146.71 2213.01 1147.16 2214.41C1147.24 2214.67 1147.33 2214.93 1147.41 2215.19C1141.39 2207.51 1131 2202.16 1118.2 2200.3ZM1051.24 2221.88C1055.97 2221.19 1060.7 2220.11 1065.28 2219.07C1069.58 2218.1 1074.04 2217.08 1078.46 2216.4C1091.17 2214.42 1102.76 2214.51 1113.71 2216.8C1104.35 2215.86 1094.92 2216.04 1085.57 2217.36C1081.6 2217.92 1077.61 2218.7 1073.75 2219.46C1069.9 2220.21 1065.93 2220.98 1061.99 2221.54C1055.75 2222.43 1049.34 2223.33 1043.15 2222.63C1045.71 2222.55 1048.41 2222.3 1051.24 2221.88ZM1039.6 2222.64C1046.93 2224.27 1054.63 2223.18 1062.08 2222.12C1066.03 2221.55 1070.01 2220.78 1073.86 2220.03C1077.72 2219.28 1081.7 2218.5 1085.65 2217.94C1096.62 2216.39 1107.69 2216.41 1118.64 2218C1130.75 2221.33 1142.14 2227.46 1153.49 2236.59C1153.62 2237.11 1153.75 2237.65 1153.89 2238.21C1142.96 2226.64 1123.74 2224.65 1115.69 2224.35C1107.12 2224.02 1098.46 2224.93 1090.09 2225.81C1084.57 2226.39 1078.87 2226.99 1073.25 2227.23C1057.61 2227.9 1042.12 2225.89 1027.17 2221.27C1026.78 2220.9 1026.4 2220.51 1026.03 2220.11C1030.07 2221.66 1034.57 2222.5 1039.6 2222.64ZM1113.2 2228.54C1105.12 2228.71 1096.99 2229.9 1089.13 2231.05C1081.73 2232.14 1074.07 2233.26 1066.49 2233.52C1056.78 2233.86 1039.79 2232.68 1028.15 2222.18C1042.8 2226.57 1057.98 2228.47 1073.28 2227.81C1078.92 2227.57 1084.63 2226.97 1090.15 2226.39C1098.51 2225.51 1107.15 2224.61 1115.67 2224.93C1123.83 2225.24 1143.54 2227.28 1154.17 2239.36C1154.33 2240.06 1154.51 2240.78 1154.68 2241.55C1154.69 2241.57 1154.69 2241.59 1154.69 2241.6C1154.81 2242.11 1154.93 2242.64 1155.06 2243.2C1143.1 2229.46 1122 2228.35 1113.2 2228.54ZM1157.12 2247.15C1157.15 2247.13 1157.17 2247.11 1157.19 2247.07C1166.38 2228.94 1180.91 2213.98 1197.05 2206.03C1201.93 2203.63 1207.1 2201.65 1212.11 2199.73C1216.92 2197.89 1221.89 2195.99 1226.6 2193.71C1237.67 2188.36 1245.29 2181.62 1249.28 2173.67C1249.07 2174.6 1248.8 2175.53 1248.5 2176.46C1243.31 2185.77 1235.96 2193.91 1227.22 2200.02C1219.77 2205.22 1211.28 2208.99 1203.08 2212.64C1199.61 2214.18 1196.02 2215.77 1192.56 2217.46C1177.81 2224.62 1168.47 2232.39 1163.21 2241.89C1160.98 2244.6 1159.17 2247.65 1157.95 2251.2C1157.68 2249.8 1157.4 2248.46 1157.12 2247.15ZM1083.61 2242.66C1086.4 2242.59 1089.24 2242.49 1091.99 2242.39C1102.82 2241.98 1114.01 2241.57 1124.76 2243.59C1136.97 2245.89 1153.05 2254.12 1159.56 2266.75C1159.66 2267.39 1159.76 2268.03 1159.86 2268.67L1159.91 2268.98C1159.95 2269.26 1159.99 2269.54 1160.03 2269.82C1150.98 2259.29 1138.01 2252.04 1124.3 2249.86C1116.54 2248.63 1108.55 2248.96 1100.83 2249.29C1094.44 2249.55 1087.84 2249.83 1081.4 2249.22C1070.71 2248.2 1060.38 2244.76 1051.22 2239.2C1061.9 2242.58 1073.39 2242.89 1083.61 2242.66ZM1073.26 2255.59C1062.21 2252.46 1052.31 2245.86 1045.15 2236.9C1046.37 2237.45 1047.6 2237.94 1048.84 2238.39C1058.57 2244.76 1069.75 2248.69 1081.34 2249.79C1087.82 2250.41 1094.44 2250.13 1100.85 2249.86C1108.55 2249.54 1116.51 2249.21 1124.22 2250.44C1138.09 2252.64 1151.2 2260.1 1160.19 2270.9C1160.25 2271.28 1160.31 2271.66 1160.36 2272.04C1151.25 2262.94 1138.68 2257.14 1125.85 2256.14C1119.55 2255.64 1113.18 2256.25 1107.01 2256.83L1092.1 2258.24C1085.73 2257.97 1079.37 2257.32 1073.26 2255.59ZM1124.86 2259.73C1117.52 2258.58 1109.95 2258.51 1102.62 2258.45C1100.7 2258.43 1098.75 2258.42 1096.81 2258.38L1107.07 2257.41C1113.21 2256.83 1119.55 2256.23 1125.8 2256.71C1138.53 2257.71 1150.99 2263.47 1160 2272.51C1160.11 2272.62 1160.3 2272.62 1160.41 2272.51C1160.42 2272.51 1160.42 2272.5 1160.42 2272.5C1160.5 2273.07 1160.58 2273.64 1160.65 2274.21C1150.02 2265.2 1138.61 2261.88 1124.86 2259.73ZM1200.1 2290.9C1193.76 2291.89 1187.77 2292.82 1181.92 2295.9C1175.02 2299.53 1168.12 2303.75 1165.22 2311.7C1165.18 2310.72 1165.13 2309.72 1165.07 2308.65C1165.07 2308.64 1165.07 2308.63 1165.07 2308.63C1165.07 2308.62 1165.07 2308.6 1165.06 2308.59C1165.06 2308.59 1165.06 2308.58 1165.06 2308.58C1165 2307.35 1164.92 2306.09 1164.84 2304.82C1164.9 2304.8 1164.95 2304.76 1164.99 2304.71C1170.66 2295.15 1180.06 2287.95 1190.77 2284.96C1195.09 2283.76 1199.63 2283.21 1204.03 2282.69C1207.46 2282.28 1211.02 2281.85 1214.45 2281.11C1230.79 2277.6 1245.2 2266.52 1252.93 2251.76C1253.14 2251.53 1253.34 2251.29 1253.53 2251.05C1250.8 2260.46 1245.4 2269.12 1238.13 2275.66C1233.59 2279.75 1228.57 2283.04 1223.35 2285.43C1218.63 2287.05 1213.67 2288.24 1208.61 2289.38C1205.75 2290.02 1202.88 2290.46 1200.1 2290.9ZM1064.2 2276.71C1064.08 2276.63 1063.93 2276.66 1063.84 2276.75C1054.86 2270.61 1047.32 2262.46 1041.9 2252.97C1044.82 2256 1048.13 2258.74 1051.88 2261.21C1059.54 2266.26 1068.98 2270.18 1080.41 2273.08C1088 2275.01 1095.85 2276.37 1103.44 2277.69C1110.27 2278.88 1117.33 2280.1 1124.18 2281.74C1141.48 2285.87 1154.32 2292.17 1163.42 2300.99C1163.56 2302.98 1163.68 2304.94 1163.8 2306.87C1154.28 2298.81 1144.21 2293.56 1133.02 2290.83C1124.68 2288.81 1115.99 2288.18 1107.58 2287.56C1104.34 2287.33 1101 2287.09 1097.73 2286.77C1087.61 2285.79 1074.65 2283.74 1064.2 2276.71ZM1235.06 2279.96C1232.95 2281.29 1230.74 2282.44 1228.46 2283.44C1231.99 2281.39 1235.38 2278.93 1238.53 2276.09C1246.22 2269.17 1251.84 2259.9 1254.47 2249.89C1254.53 2249.8 1254.6 2249.72 1254.67 2249.63C1252.86 2261.87 1245.49 2273.33 1235.06 2279.96ZM1164.74 2299.91C1169.19 2290.66 1177.67 2283.85 1191.42 2278.46C1197.77 2275.97 1204.49 2274.17 1210.99 2272.44C1216 2271.1 1221.19 2269.71 1226.19 2268.01C1237.11 2264.31 1245.39 2259.53 1251.3 2253.51C1243.42 2267.1 1229.75 2277.22 1214.34 2280.54C1210.92 2281.27 1207.39 2281.69 1203.96 2282.1C1199.54 2282.63 1194.98 2283.18 1190.62 2284.4C1179.95 2287.38 1170.57 2294.47 1164.79 2303.91C1164.71 2302.67 1164.63 2301.41 1164.53 2300.15C1164.62 2300.09 1164.69 2300.01 1164.74 2299.91ZM1082.02 2266.51C1087.23 2267.14 1092.55 2267.57 1097.7 2267.98C1107.46 2268.77 1117.56 2269.59 1127.23 2271.83C1142.97 2275.47 1155.67 2283.96 1163.02 2295.74C1163.15 2297.21 1163.26 2298.67 1163.36 2300.12C1154.22 2291.46 1141.44 2285.25 1124.32 2281.17C1117.46 2279.53 1110.39 2278.3 1103.54 2277.12C1095.97 2275.8 1088.13 2274.44 1080.56 2272.52C1064.73 2268.5 1052.76 2262.53 1044.08 2254.3C1053.51 2260.61 1065.75 2264.53 1082.02 2266.51ZM1138.5 2295.98C1131.04 2294.36 1123.3 2293.36 1115.81 2292.39C1102.12 2290.61 1087.96 2288.77 1075.23 2283.12C1074.08 2282.6 1072.95 2282.06 1071.82 2281.49C1080.53 2285.23 1089.93 2286.6 1097.68 2287.36C1100.96 2287.68 1104.3 2287.92 1107.53 2288.15C1115.92 2288.76 1124.59 2289.39 1132.88 2291.41C1140.89 2293.36 1148.33 2296.62 1155.41 2301.29C1150.28 2298.8 1144.37 2297.25 1138.5 2295.98ZM1195.49 2345.5C1203.27 2341.67 1211.84 2339.32 1220.11 2337.05C1223.57 2336.1 1227.14 2335.13 1230.62 2334.05C1239.58 2331.28 1252.2 2326.53 1260.73 2316.94C1260.72 2317 1260.7 2317.06 1260.68 2317.12C1254.22 2325.87 1244.23 2333.15 1230.2 2339.35C1224.77 2341.74 1219.1 2343.86 1213.62 2345.91C1206.98 2348.39 1200.12 2350.96 1193.61 2354.04C1180.06 2360.47 1170.22 2368.45 1164.32 2377.79C1164.38 2376.96 1164.43 2376.12 1164.48 2375.31C1171.1 2362.94 1182.68 2351.8 1195.49 2345.5ZM1235.93 2317.88C1227.18 2323.32 1217.14 2326.59 1207.43 2329.76C1203.88 2330.91 1200.22 2332.11 1196.67 2333.39C1194.74 2334.09 1192.92 2334.71 1191.16 2335.32C1181 2338.81 1173.54 2341.37 1165.59 2350.5C1165.62 2349.63 1165.63 2348.76 1165.65 2347.89C1176.65 2337.12 1192.12 2331.78 1207.05 2327.23C1208.72 2326.72 1210.38 2326.23 1212.02 2325.74C1221.83 2322.82 1231.24 2320.01 1239.84 2315.22C1238.57 2316.16 1237.26 2317.05 1235.93 2317.88ZM1243.37 2312.42C1233.82 2318.63 1223.09 2321.83 1211.85 2325.18C1210.2 2325.67 1208.54 2326.17 1206.88 2326.67C1192.06 2331.18 1176.72 2336.47 1165.66 2347.06C1165.66 2346.75 1165.67 2346.44 1165.68 2346.14C1165.68 2346.12 1165.68 2346.11 1165.68 2346.09C1165.69 2345.51 1165.69 2344.93 1165.7 2344.35C1175.73 2332.45 1185.77 2324.24 1197.28 2318.53C1203.7 2315.34 1210.55 2312.79 1217.18 2310.33C1223.56 2307.95 1230.17 2305.49 1236.4 2302.46C1246.63 2297.48 1259.69 2288.72 1265.05 2274.99C1262.39 2289.36 1254.49 2302.89 1243.37 2312.42ZM1191.73 2310.16C1200.27 2305.6 1209.69 2302.55 1218.79 2299.6C1223.03 2298.23 1227.42 2296.81 1231.67 2295.26C1247.21 2289.57 1257.84 2282.76 1264.81 2274C1259.71 2288.01 1246.48 2296.9 1236.15 2301.93C1229.95 2304.95 1223.36 2307.41 1216.99 2309.78C1210.35 2312.25 1203.48 2314.8 1197.03 2318.01C1185.62 2323.67 1175.65 2331.77 1165.73 2343.44C1165.74 2342.38 1165.76 2341.33 1165.77 2340.28C1168.02 2328.27 1176.75 2318.14 1191.73 2310.16ZM1057.88 2289.68C1058.49 2290.08 1059.11 2290.47 1059.74 2290.84C1060.46 2291.36 1061.19 2291.86 1061.93 2292.35C1069.63 2297.43 1078.35 2300.99 1087.4 2302.73C1093.37 2303.88 1099.53 2304.25 1105.5 2304.61C1108.94 2304.81 1112.49 2305.03 1115.97 2305.39C1124.27 2306.25 1130.91 2307.94 1136.34 2310.59C1137.79 2311.37 1139.23 2312.19 1140.63 2313.06C1141.31 2313.51 1141.97 2313.98 1142.61 2314.47C1142.7 2314.54 1142.81 2314.55 1142.91 2314.51C1151.29 2320.08 1158.83 2327.3 1164.61 2335.55C1164.61 2337.05 1164.61 2338.57 1164.6 2340.08L1164.6 2340.2C1164.6 2340.21 1164.6 2340.21 1164.6 2340.22C1164.6 2340.22 1164.6 2340.22 1164.6 2340.22C1164.6 2340.58 1164.59 2340.94 1164.58 2341.3C1155.23 2330.27 1147 2323.43 1137.97 2319.17C1128.79 2314.83 1118.74 2313.27 1108.4 2311.93L1106.16 2311.65C1096.95 2310.47 1087.43 2309.25 1078.65 2305.97C1068.88 2302.32 1061.34 2296.4 1057.12 2289.16C1057.38 2289.33 1057.62 2289.51 1057.88 2289.68ZM1086.9 2299.42C1090.63 2299.97 1094.44 2300.39 1098.13 2300.81C1105.93 2301.68 1113.99 2302.59 1121.65 2304.68C1124.22 2305.38 1126.78 2306.26 1129.3 2307.28C1125.4 2306.14 1121.01 2305.33 1116.02 2304.81C1112.54 2304.45 1108.98 2304.23 1105.53 2304.03C1099.59 2303.67 1093.44 2303.3 1087.51 2302.16C1079.5 2300.62 1071.77 2297.64 1064.77 2293.45C1072.5 2296.93 1080.65 2298.5 1086.9 2299.42ZM1122.73 2323.48C1117.23 2321.94 1111.53 2320.82 1106.03 2319.74C1102.66 2319.08 1099.18 2318.4 1095.79 2317.62C1088.33 2315.93 1078.7 2313.25 1070.46 2307.73C1062.81 2302.61 1057.41 2295.46 1055.41 2287.93C1055.6 2288.07 1055.8 2288.22 1056 2288.36C1058.65 2293.39 1062.85 2297.83 1068.25 2301.39C1071.29 2303.39 1074.71 2305.12 1078.44 2306.51C1087.29 2309.82 1096.85 2311.04 1106.08 2312.23L1108.32 2312.52C1118.62 2313.85 1128.61 2315.4 1137.71 2319.7C1146.8 2323.98 1155.09 2330.92 1164.57 2342.19C1164.56 2343.07 1164.55 2343.94 1164.53 2344.82C1153.68 2335.06 1141.09 2328.64 1122.73 2323.48ZM1095.06 2327.08C1099.33 2328.46 1103.72 2329.73 1107.97 2330.95C1117.23 2333.61 1126.79 2336.36 1135.58 2340.58C1149.87 2347.43 1160.08 2358.35 1163.59 2370.54C1163.53 2371.66 1163.46 2372.78 1163.4 2373.92C1161.25 2365.34 1154.78 2357.34 1145.53 2351.86C1136.91 2346.76 1126.92 2344.18 1117.43 2341.98C1116.55 2341.78 1115.67 2341.58 1114.79 2341.38C1106.11 2339.38 1097.13 2337.32 1088.98 2333.5C1077.3 2328.04 1067.47 2318.98 1061.02 2307.84C1061 2307.78 1060.98 2307.71 1060.97 2307.64C1070.91 2318.3 1085.01 2323.8 1095.06 2327.08ZM1073 2333.03C1065.62 2326.44 1060.81 2316.84 1059.87 2306.99C1060.06 2307.34 1060.26 2307.69 1060.47 2308.04C1063.66 2320.14 1071.21 2331.22 1081.23 2338.78C1078.31 2337.17 1075.52 2335.28 1073 2333.03ZM1138.68 2355.45C1130.34 2351.9 1121.29 2350.12 1112.53 2348.4C1109.92 2347.88 1107.21 2347.36 1104.58 2346.79C1098.54 2345.49 1091.52 2343.68 1084.9 2340.63C1073.95 2333.59 1065.48 2322.42 1061.63 2309.98C1066.51 2317.79 1073.06 2324.49 1080.74 2329.55C1083.28 2331.23 1085.95 2332.73 1088.73 2334.03C1096.94 2337.88 1105.95 2339.94 1114.66 2341.94C1115.54 2342.15 1116.42 2342.35 1117.3 2342.55C1126.74 2344.74 1136.68 2347.3 1145.23 2352.36C1154.67 2357.95 1161.15 2366.17 1163.03 2374.92C1163.06 2375.06 1163.18 2375.15 1163.32 2375.15C1163.26 2376.12 1163.19 2377.1 1163.13 2378.09C1158.92 2367.33 1147.99 2359.4 1138.68 2355.45ZM1244.8 2341.56C1235.66 2349.41 1224.4 2354.33 1216.74 2357.35C1211.89 2359.26 1207.42 2360.36 1203.08 2361.43C1198.44 2362.58 1193.64 2363.76 1188.42 2365.93L1187.36 2366.37C1178.39 2370.1 1169.88 2373.63 1164.08 2381.32C1164.13 2380.55 1164.19 2379.8 1164.24 2379.05C1170 2369.4 1179.96 2361.16 1193.86 2354.57C1200.35 2351.5 1207.2 2348.94 1213.82 2346.46C1219.31 2344.41 1224.99 2342.29 1230.44 2339.88C1243.95 2333.91 1253.75 2326.93 1260.29 2318.6C1257.86 2326.95 1252.47 2334.98 1244.8 2341.56Z" fill="#871054" fill-opacity="0.2"/>
<path d="M1639.8 3287.03C1521.08 3250.95 1398.32 3213.65 1292.92 3142.53C1238.35 3105.7 1191.29 3059.75 1156.82 3009.64C1118.37 2953.74 1096.37 2894.76 1091.41 2834.34C1086.56 2775.2 1098.32 2716.05 1109.68 2658.85C1120.31 2605.33 1131.31 2549.99 1128.42 2495.34C1124.89 2428.75 1100.94 2364.18 1077.79 2301.74L1073.64 2290.56C1024.83 2158.56 978.816 2016.28 972.683 1870.25C963.949 1662.4 1035.72 1461.03 1105.13 1266.3C1172.53 1077.19 1242.23 881.657 1237.69 680.955C1231.61 410.564 1078.43 165.348 856.537 70.7583L861.116 60C974.765 108.445 1071.95 195.511 1142.19 311.778C1208.42 421.417 1246.48 552.43 1249.38 680.7C1253.96 883.561 1183.89 1080.13 1116.13 1270.24C1047.1 1463.92 975.716 1664.2 984.356 1869.77C990.423 2014.17 1036.13 2155.41 1084.6 2286.51L1088.73 2297.69C1112.2 2360.96 1136.46 2426.37 1140.08 2494.73C1143.05 2550.84 1131.91 2606.92 1121.13 2661.14C1109.92 2717.55 1098.33 2775.89 1103.05 2833.4C1112.27 2945.68 1183.85 3054.83 1299.45 3132.85C1403.39 3202.99 1525.29 3240.03 1643.19 3275.85L1639.8 3287.03Z" fill="#871054" fill-opacity="0.3"/>
<path d="M1744.55 3580C1657.17 3522.13 1582.04 3458.11 1521.28 3389.74C1452.31 3312.14 1401.83 3228.78 1371.27 3141.97C1359.11 3107.42 1349.76 3071.35 1340.72 3036.47C1330.06 2995.36 1319.05 2952.84 1303.36 2912.7C1260.16 2802.16 1180.88 2706.14 1104.21 2613.27C1053.08 2551.34 1000.21 2487.3 959.53 2420.37C913.912 2345.3 888.475 2273.98 881.786 2202.33C867.541 2049.7 942.393 1899.97 1002.54 1779.67L1178.34 1428C1240.93 1302.8 1305.64 1173.36 1338.4 1034.58C1374.71 880.751 1363.37 733.341 1306.47 619.507C1277.61 561.783 1235 506.606 1176.17 450.815C997.866 281.709 762.503 206.873 561.914 255.525L561 251.735C664.54 226.617 778.594 233.566 890.84 271.809C995.237 307.375 1094.83 368.304 1178.85 447.987C1238.01 504.088 1280.89 559.624 1309.95 617.762C1340.24 678.361 1357.83 747.248 1362.24 822.519C1366.24 890.529 1359.48 962.179 1342.18 1035.48C1309.31 1174.69 1244.5 1304.35 1181.82 1429.74L1006.01 1781.4C946.095 1901.26 871.516 2050.44 885.658 2201.97C900.44 2360.34 1000.88 2481.99 1107.21 2610.79C1184.08 2703.9 1263.56 2800.17 1306.98 2911.29C1322.75 2951.64 1333.79 2994.28 1344.48 3035.5C1353.49 3070.31 1362.82 3106.29 1374.92 3140.68C1431.96 3302.66 1560.51 3453.45 1746.69 3576.75L1744.55 3580Z" fill="#871054" fill-opacity="0.3"/>
<path d="M-200.106 3227.03C-81.3879 3190.95 41.3716 3153.65 146.768 3082.53C201.336 3045.7 248.395 2999.75 282.868 2949.64C321.316 2893.74 343.324 2834.76 348.28 2774.34C353.132 2715.2 341.374 2656.05 330.012 2598.85C319.375 2545.33 308.381 2489.99 311.273 2435.34C314.797 2368.75 338.746 2304.18 361.903 2241.74L366.048 2230.56C414.86 2098.56 460.874 1956.28 467.007 1810.25C475.741 1602.4 403.969 1401.03 334.562 1206.3C267.162 1017.19 197.464 821.657 201.995 620.955C208.081 350.564 361.262 105.348 583.153 10.7583L578.574 -3.41854e-05C464.925 48.4453 367.735 135.511 297.499 251.778C231.267 361.417 193.205 492.43 190.313 620.7C185.734 823.561 255.8 1020.13 323.558 1210.24C392.588 1403.92 463.973 1604.2 455.334 1809.77C449.267 1954.17 403.564 2095.41 355.092 2226.51L350.956 2237.69C327.487 2300.96 303.227 2366.37 299.609 2434.73C296.642 2490.84 307.778 2546.92 318.556 2601.14C329.767 2657.55 341.355 2715.89 336.635 2773.4C327.421 2885.68 255.838 2994.83 140.239 3072.85C36.303 3142.99 -85.5993 3180.03 -203.497 3215.85L-200.106 3227.03Z" fill="#871054" fill-opacity="0.3"/>
<path d="M-304.861 3520C-217.479 3462.13 -142.353 3398.11 -81.5952 3329.74C-12.6219 3252.14 37.8575 3168.78 68.4201 3081.97C80.583 3047.42 89.929 3011.35 98.9735 2976.47C109.629 2935.36 120.642 2892.84 136.329 2852.7C179.526 2742.16 258.806 2646.14 335.476 2553.27C386.606 2491.34 439.478 2427.3 480.159 2360.37C525.777 2285.3 551.215 2213.98 557.904 2142.33C572.149 1989.7 497.297 1839.97 437.151 1719.67L261.35 1368C198.764 1242.8 134.049 1113.36 101.291 974.583C64.9813 820.751 76.3151 673.341 133.22 559.507C162.077 501.783 204.69 446.606 263.516 390.815C441.824 221.709 677.187 146.873 877.776 195.525L878.69 191.735C775.15 166.617 661.095 173.566 548.85 211.809C444.452 247.375 344.86 308.304 260.841 387.987C201.684 444.088 158.799 499.624 129.743 557.762C99.4538 618.361 81.8549 687.248 77.4457 762.519C73.451 830.529 80.2061 902.179 97.513 975.478C130.375 1114.69 195.193 1244.35 257.873 1369.74L433.675 1721.4C493.594 1841.26 568.173 1990.44 554.032 2141.97C539.25 2300.34 438.809 2421.99 332.48 2550.79C255.612 2643.9 176.134 2740.17 132.711 2851.29C116.94 2891.64 105.898 2934.28 95.2143 2975.5C86.1982 3010.31 76.8711 3046.29 64.7647 3080.68C7.72813 3242.66 -120.826 3393.45 -307 3516.75L-304.861 3520Z" fill="#871054" fill-opacity="0.3"/>
</svg>
