<svg width="390" height="1370" viewBox="0 0 390 1370" fill="none" xmlns="http://www.w3.org/2000/svg">
<path d="M-25.9193 1244.41C20.3423 1232.79 68.1789 1220.77 109.982 1195.43C131.626 1182.31 150.557 1165.55 164.733 1146.96C180.545 1126.21 190.101 1103.98 193.137 1080.87C196.108 1058.25 192.703 1035.32 189.412 1013.14C186.331 992.395 183.147 970.937 185.282 950.007C187.883 924.505 198.29 900.161 208.352 876.62L210.154 872.404C231.371 822.632 251.707 768.862 256.799 712.906C264.049 633.26 240.266 554.592 217.266 478.516C194.93 404.64 171.833 328.252 177.336 251.271C184.742 147.561 248.157 56.2743 335.132 24.1133L333.576 19.8965C289.028 36.368 250.077 67.9775 220.928 111.305C193.441 152.162 176.37 201.756 172.855 250.955C167.293 328.763 190.512 405.557 212.966 479.824C235.841 555.49 259.497 633.731 252.326 712.503C247.289 767.837 227.093 821.211 206.022 870.645L204.225 874.858C194.027 898.712 183.485 923.376 180.815 949.557C178.623 971.046 181.848 992.786 184.97 1013.81C188.217 1035.68 191.573 1058.3 188.683 1080.29C183.04 1123.23 153.507 1163.8 107.657 1191.59C66.4325 1216.58 18.9299 1228.52 -27.0122 1240.06L-25.9193 1244.41Z" fill="#871054" fill-opacity="0.3"/>
<path d="M-124.775 1347.12C-90.1369 1326.54 -60.0902 1303.37 -35.4786 1278.25C-7.53922 1249.75 13.4066 1218.69 26.7694 1185.93C32.0875 1172.89 36.3523 1159.21 40.479 1145.99C45.3414 1130.4 50.3674 1114.28 57.1432 1099.17C75.8022 1057.53 108.044 1022.14 139.225 987.923C160.019 965.102 181.522 941.503 198.397 916.564C217.321 888.596 228.425 861.688 232.337 834.301C240.668 775.96 214.733 717.063 193.894 669.742L132.982 531.413C111.298 482.167 88.8752 431.248 78.8984 377.347C67.8401 317.598 74.9555 261.208 98.9399 218.565C111.103 196.941 128.5 176.553 152.134 156.233C223.771 94.6424 315.548 70.3189 391.658 92.7611L392.08 91.3228C352.794 79.7367 308.869 80.2669 265.052 92.8473C224.299 104.547 184.915 126.075 151.159 155.097C127.393 175.53 109.884 196.05 97.6377 217.83C84.8711 240.531 76.822 266.652 73.7178 295.472C70.909 321.511 72.1596 349.15 77.431 377.62C87.4394 431.689 109.898 482.693 131.615 532.014L192.527 670.343C213.288 717.49 239.128 776.168 230.857 834.087C222.212 894.624 181.364 939.452 138.121 986.915C106.86 1021.23 74.5372 1056.7 55.7805 1098.55C48.9681 1113.75 43.929 1129.92 39.0538 1145.55C34.9393 1158.74 30.6834 1172.38 25.39 1185.36C0.452426 1246.49 -51.7365 1301.98 -125.535 1345.83L-124.775 1347.12Z" fill="#871054" fill-opacity="0.3"/>
</svg>
