<svg width="454" height="184" viewBox="0 0 454 184" fill="none" xmlns="http://www.w3.org/2000/svg">
<g clip-path="url(#clip0_324_884)">
<path d="M326.135 140.805L211.879 140.725L213.802 136.199L328.058 136.279L326.135 140.805Z" fill="#870F54"/>
<path d="M255.382 81.9279C249.788 81.8167 244.431 83.9209 239.707 87.5734C238.987 88.1292 237.911 87.8513 237.634 86.9858C236.7 84.0956 232.72 82.8489 229.397 82.6822C228.923 82.6584 228.479 82.9125 228.234 83.3095L213.216 107.202C209.838 110.505 206.174 113.355 202.875 115.158C196.062 118.795 187.912 122.05 192.755 114.396L211.341 84.7546C211.911 83.8415 211.246 82.6504 210.178 82.6743C204.038 82.8172 199.821 83.6747 196.276 87.3114C195.572 88.034 194.345 87.7878 194.044 86.8111C193.206 84.1035 190.99 82.3567 187.287 81.8802C172.451 80.1096 158.984 93.5366 153.731 101.945C150.304 107.4 149.228 113.236 151.499 117.207C142.289 125.139 131.734 132.349 119.937 137.669C67.1447 161.212 12.1216 152.358 23.2861 107.504C30.4231 78.5612 62.1678 47.9117 92.5991 34.1274C110.196 26.2824 128.822 21.1133 144.861 23.813C154.332 25.2899 162.181 29.403 158.692 35.9696C158.415 36.4936 157.821 36.7636 157.244 36.6445C155.978 36.3983 154.553 36.2713 152.971 36.2713C145.612 36.2713 138.539 39.5189 138.388 43.5446C137.993 47.7609 143.903 50.8338 151.539 50.8417C163.146 50.8417 170.584 43.1873 169.769 36.8589C168.733 27.6561 156.263 22.6617 142.946 20.9307C138.768 20.3907 134.567 20.097 130.397 20.0096C122.294 19.8429 114.303 20.4701 106.667 21.7247C103.526 22.2408 100.448 22.8919 97.4415 23.6383C92.3775 24.8214 87.4955 26.3539 82.843 28.069C82.0201 28.3707 81.1972 28.6804 80.3902 28.998C73.1265 31.8247 66.4247 35.2311 60.1264 38.9075C55.0308 41.8771 50.2121 45.0532 45.6308 48.3802C40.8754 51.8422 36.3812 55.4709 32.1718 59.2584C27.9228 63.0697 23.9586 67.0319 20.3268 71.145C16.7662 75.1707 13.5221 79.3393 10.6816 83.6589C7.97551 87.7719 5.64135 92.02 3.8294 96.4109C2.14405 100.5 0.901793 104.709 0.347923 109.02C-3.12564 136.239 22.2337 153.509 59.5092 154.685C78.8552 155.272 103.542 149.158 123.355 139.392C134.701 133.841 144.497 127.116 153.287 119.35C155.123 120.915 157.829 121.915 161.596 122.034C167.435 122.034 173.132 119.676 178.307 115.428C179.122 114.761 180.356 115.214 180.49 116.27C180.989 120.264 184.494 122.05 187.928 122.05C194.48 122.05 202.637 118.334 210.138 112.133L206.894 117.294C192.937 139.376 175.039 170.121 145.423 178.386C123.426 184.548 96.9351 185.12 85.7469 166.317C85.4225 165.777 84.7816 165.515 84.1881 165.698C78.8235 167.405 80.8174 171.447 83.9508 173.702C101.271 186.644 123.276 185.779 146.958 179.895C180.53 171.383 202.93 145.664 217.948 121.32L220.417 117.318C220.986 116.397 222.355 116.484 222.775 117.492C223.803 119.962 226.185 121.621 229.706 122.082C244.518 123.725 257.827 110.426 263.262 102.017C269.094 92.7346 268.374 82.309 255.413 81.9279H255.382ZM186.559 101.842C180.15 112.006 171.272 119.406 166.549 119.406C160.195 119.406 161.445 111.998 167.854 101.834C174.255 91.6706 183.798 84.8975 188.498 84.7784C193.586 84.7784 192.968 91.6865 186.567 101.85L186.559 101.842ZM248.878 102.009C242.492 112.299 232.958 119.072 228.052 119.065C222.964 119.065 223.969 112.284 230.355 101.993C236.756 91.8294 244.455 84.9293 249.542 84.9372C254.448 84.9372 255.287 91.8453 248.878 102.009Z" fill="#870F54"/>
<path d="M298.307 76.0599C302.302 76.0599 306.132 74.0589 306.401 71.4228C306.512 68.9137 303.228 66.7777 299.058 66.7698C295.063 66.7698 290.893 68.8978 290.782 71.4069C290.695 74.0431 294.129 76.052 298.307 76.0599Z" fill="#870F54"/>
<path d="M450.898 30.3398C433.578 17.3972 411.565 18.2627 387.891 24.1464C354.319 32.6584 331.618 58.7581 316.015 82.8489L300.791 107.067C300.744 107.146 300.696 107.226 300.649 107.305C297.246 110.584 293.591 113.427 290.402 115.221C283.589 118.858 275.258 122.114 280.1 114.459L293.899 92.4963C298.228 85.5644 291.937 82.9521 286.778 82.7139C286.303 82.6901 285.86 82.9441 285.615 83.3491L270.819 107.043C264.117 117.58 269.806 122.106 275.258 122.106C282.134 122.106 290.853 118 298.647 111.251C297.167 115.102 297.666 117.818 299.343 119.612C304.565 125.639 317.55 119.874 321.973 117.119C324.79 115.372 327.638 113.276 330.384 110.918C329.205 117.675 333.248 122.272 344.84 122.28C349.049 122.28 352.491 121.82 356.02 121.002C356.273 120.946 356.526 120.962 356.772 121.05C358.283 121.613 360.221 122.05 362.255 122.169C367.382 122.423 375.477 120.922 383.025 116.285C384.608 115.293 386.166 114.173 387.693 112.943C390.036 117.127 395.281 120.589 401.944 121.693C407.751 122.701 414.588 122.328 420.372 120.073C427.659 117.064 430.096 112.299 426.528 106.392C423.165 100.611 415.917 94.4575 414.54 89.6854C412.539 82.6503 426.939 81.507 431.164 85.9059C432.003 86.7793 431.354 88.2482 430.152 88.2006C430.009 88.2006 429.859 88.1927 429.716 88.1927C425.903 88.1927 422.579 89.9475 422.287 92.4566C422.16 94.8387 425.365 96.6014 429.178 96.6014C434.994 96.6014 439.33 93.3459 437.882 89.2011C436.545 85.6835 431.433 82.4201 423.015 82.0389C405.085 81.2767 401.683 90.94 407.308 98.2212L413.227 106.13C419.28 113.792 415.387 118.556 408.321 119.684C401.168 120.986 392.599 117.905 389.703 112.371C389.521 112.029 389.513 111.64 389.632 111.299C393.042 108.297 396.223 104.756 399.032 100.881C399.515 100.278 399.966 99.6902 400.361 99.1502C400.717 98.6659 400.1 98.0068 399.269 98.0148C393.509 98.0704 389.078 100.984 387.701 103.486C386.166 106.05 386.032 108.766 386.942 111.299C384.956 112.855 383.001 114.229 381.213 115.277C377.249 117.532 370.239 120.041 364.755 118.779C364.186 118.652 363.624 118.525 363.394 118.278C371.41 114.269 377.407 107.996 381.284 102.096C388.239 90.9321 386.325 82.0151 370.16 82.0072C354.176 81.9992 341.2 90.9003 334.055 102.064C332.726 104.232 331.713 106.304 331.048 108.25C327.875 111.037 324.528 113.451 321.632 115.237C315.405 119.128 305.214 122.129 310.057 114.475L327.757 86.7475C341.714 64.6656 359.794 33.9209 389.41 25.6551C411.407 19.4934 437.898 18.9217 449.086 37.7243C449.411 38.2642 450.051 38.5262 450.645 38.3436C456.009 36.6365 454.016 32.5949 450.882 30.3398H450.898ZM347.324 102.072C353.733 91.9087 363.41 83.8811 369.044 83.8811C373.04 83.8811 375.817 86.2711 374.116 92.1707C372.351 98.2848 368.601 103.914 363.909 109.187C363.671 109.457 363.323 109.616 362.959 109.631C354.944 110.013 350.608 113.872 352.064 117.333C352.341 117.985 352.016 118.747 351.375 119.041C348.725 120.263 346.77 120.637 345.829 120.637C340.013 120.637 340.939 112.347 347.324 102.056V102.072Z" fill="#870F54"/>
<path d="M340.488 131.491C339.475 130.967 337.758 130.967 336.469 131.427C335.843 131.65 335.274 131.952 334.759 132.333C334.253 132.706 333.786 133.15 333.383 133.651C332.987 134.143 332.623 134.667 332.307 135.207C331.998 135.739 331.705 136.303 331.452 136.89C331.199 137.462 330.977 138.018 330.779 138.55C330.566 139.122 330.368 139.701 330.17 140.289C329.965 140.9 329.806 141.496 329.695 142.067C329.585 142.647 329.529 143.219 329.545 143.751C329.561 144.33 329.688 144.839 329.933 145.259C330.186 145.704 330.582 146.069 331.112 146.331C331.618 146.585 332.299 146.712 333.137 146.712C333.913 146.712 334.649 146.562 335.329 146.268C335.994 145.982 336.643 145.553 337.252 145.005C337.529 144.751 337.766 144.497 337.972 144.243C338.178 143.989 338.36 143.735 338.51 143.489C338.668 143.235 338.811 142.973 338.937 142.703L339.301 141.909C339.388 141.75 339.467 141.583 339.523 141.416C339.57 141.289 339.626 141.162 339.697 141.043L340.069 140.376H337.363L337.228 140.622C337.133 140.797 337.054 140.972 336.983 141.138C336.92 141.281 336.856 141.432 336.769 141.591C336.579 141.972 336.374 142.337 336.168 142.687C335.97 143.012 335.733 143.314 335.464 143.576C335.203 143.83 334.91 144.029 334.585 144.18C333.992 144.457 333.042 144.481 332.686 144.18C332.496 144.021 332.378 143.822 332.314 143.56C332.243 143.258 332.227 142.909 332.275 142.52C332.33 142.099 332.409 141.662 332.528 141.226C332.647 140.781 332.781 140.352 332.94 139.939C333.098 139.519 333.24 139.145 333.375 138.812C333.486 138.502 333.628 138.153 333.786 137.756C333.944 137.367 334.126 136.962 334.332 136.541C334.53 136.136 334.759 135.731 335.021 135.342C335.274 134.961 335.551 134.619 335.851 134.326C336.144 134.04 336.469 133.81 336.817 133.643C337.497 133.309 338.447 133.349 338.826 133.579C339.008 133.69 339.127 133.833 339.19 134.024C339.262 134.238 339.285 134.5 339.238 134.802C339.19 135.151 339.095 135.525 338.969 135.906L338.771 136.493H341.382L341.493 136.2C341.754 135.541 341.904 134.897 341.952 134.302C341.991 133.675 341.896 133.119 341.659 132.634C341.414 132.142 341.018 131.753 340.488 131.475V131.491Z" fill="#870F54"/>
<path d="M358.473 132.412C358.196 131.999 357.793 131.674 357.27 131.443C356.265 130.983 354.469 130.991 353.164 131.42C352.523 131.634 351.937 131.928 351.415 132.285C350.901 132.642 350.426 133.071 350.015 133.555C349.603 134.032 349.239 134.548 348.923 135.08C348.606 135.612 348.313 136.168 348.06 136.747C347.815 137.311 347.585 137.867 347.388 138.415C347.04 139.407 346.739 140.376 346.501 141.305C346.256 142.274 346.169 143.147 346.24 143.918C346.319 144.751 346.644 145.426 347.198 145.934C347.76 146.45 348.654 146.712 349.848 146.712C350.996 146.712 352.024 146.474 352.895 146.006C353.749 145.545 354.501 144.926 355.134 144.164C355.751 143.417 356.305 142.56 356.764 141.607C357.215 140.678 357.626 139.701 357.99 138.717C358.188 138.169 358.378 137.613 358.552 137.049C358.734 136.47 358.861 135.906 358.94 135.366C359.019 134.81 359.027 134.278 358.971 133.786C358.908 133.254 358.742 132.793 358.473 132.396V132.412ZM356.218 134.659C356.265 135.12 356.218 135.675 356.052 136.311C355.894 136.962 355.664 137.692 355.379 138.47C355.007 139.479 354.635 140.376 354.279 141.123C353.931 141.861 353.559 142.488 353.164 142.988C352.784 143.465 352.372 143.822 351.921 144.06C351.486 144.291 350.956 144.41 350.355 144.41C349.809 144.41 349.397 144.307 349.176 144.124C348.954 143.941 348.844 143.648 348.82 143.243C348.796 142.766 348.883 142.155 349.073 141.424C349.271 140.678 349.564 139.781 349.935 138.772C350.22 137.994 350.537 137.264 350.861 136.605C351.178 135.961 351.542 135.382 351.945 134.897C352.333 134.429 352.768 134.056 353.227 133.794C353.67 133.54 354.153 133.42 354.699 133.42C355.205 133.42 355.577 133.524 355.791 133.73C356.02 133.952 356.155 134.254 356.202 134.667L356.218 134.659Z" fill="#870F54"/>
<path d="M370.603 131.388H367.968L362.429 146.387L371.078 146.395L371.932 144.076L365.919 144.068L370.603 131.388Z" fill="#870F54"/>
<path d="M391.309 132.436C391.033 132.031 390.629 131.698 390.107 131.467C389.094 131.007 387.298 131.015 386 131.443C385.359 131.658 384.774 131.952 384.252 132.309C383.737 132.666 383.263 133.095 382.851 133.579C382.448 134.056 382.076 134.564 381.751 135.104C381.435 135.636 381.142 136.2 380.889 136.771C380.644 137.335 380.414 137.891 380.216 138.439C379.868 139.423 379.567 140.392 379.33 141.329C379.085 142.298 378.998 143.171 379.069 143.941C379.148 144.775 379.473 145.45 380.026 145.958C380.588 146.474 381.482 146.736 382.677 146.736C383.832 146.736 384.853 146.498 385.723 146.03C386.578 145.569 387.33 144.95 387.963 144.188C388.588 143.441 389.134 142.584 389.593 141.631C390.044 140.702 390.455 139.725 390.819 138.748C391.017 138.201 391.207 137.645 391.381 137.081C391.563 136.501 391.689 135.938 391.768 135.398C391.848 134.834 391.855 134.302 391.8 133.818C391.737 133.294 391.571 132.825 391.302 132.428L391.309 132.436ZM389.062 134.675C389.11 135.136 389.062 135.691 388.896 136.327C388.73 136.994 388.509 137.724 388.224 138.486C387.86 139.479 387.488 140.376 387.124 141.139C386.776 141.877 386.396 142.504 386.008 143.004C385.636 143.473 385.217 143.838 384.766 144.076C384.331 144.307 383.801 144.426 383.199 144.426C382.645 144.426 382.242 144.323 382.02 144.14C381.799 143.949 381.688 143.664 381.664 143.259C381.64 142.782 381.728 142.171 381.917 141.44C382.123 140.67 382.416 139.781 382.78 138.788C383.057 138.026 383.373 137.295 383.706 136.62C384.03 135.969 384.394 135.398 384.798 134.913C385.185 134.445 385.613 134.072 386.079 133.81C386.522 133.556 387.005 133.436 387.551 133.436C388.057 133.436 388.429 133.54 388.643 133.746C388.872 133.968 389.007 134.27 389.054 134.683L389.062 134.675Z" fill="#870F54"/>
<path d="M407.127 131.594C406.517 131.475 405.797 131.412 404.998 131.412H400.868L395.321 146.411H397.956L400.251 140.209H402.767C403.265 140.209 403.542 140.297 403.677 140.368C403.851 140.456 403.97 140.575 404.033 140.71C404.104 140.876 404.128 141.075 404.104 141.313C404.065 141.599 403.993 141.901 403.875 142.218C403.788 142.464 403.685 142.75 403.582 143.084C403.487 143.409 403.392 143.743 403.305 144.084C403.218 144.426 403.147 144.767 403.099 145.093C403.044 145.442 403.02 145.728 403.028 145.982L403.044 146.419H405.742L406.193 145.196H405.71C405.71 145.148 405.71 145.101 405.718 145.061L405.742 144.862C405.853 144.338 405.979 143.83 406.122 143.314C406.256 142.798 406.415 142.282 406.589 141.726C406.699 141.25 406.763 140.829 406.786 140.479C406.81 140.074 406.747 139.733 406.581 139.455C406.47 139.265 406.312 139.106 406.114 138.979C406.502 138.804 406.866 138.582 407.206 138.32C407.973 137.724 408.543 136.962 408.899 136.065C409.255 135.183 409.405 134.469 409.374 133.873C409.334 133.238 409.105 132.73 408.701 132.349C408.314 131.983 407.783 131.737 407.111 131.61L407.127 131.594ZM403.012 137.891H401.105L402.648 133.722H404.61C404.872 133.722 405.164 133.738 405.489 133.77C405.758 133.794 405.987 133.865 406.193 133.984C406.351 134.08 406.462 134.238 406.525 134.461C406.573 134.627 406.589 134.969 406.367 135.604C406.177 136.152 405.924 136.581 405.631 136.867C405.323 137.168 404.998 137.399 404.682 137.542C404.349 137.692 404.033 137.788 403.748 137.819C403.439 137.859 403.194 137.883 403.012 137.883V137.891Z" fill="#870F54"/>
<path d="M425.618 132.325C425.009 131.539 423.941 131.142 422.437 131.142C421.788 131.142 421.148 131.237 420.522 131.435C419.905 131.634 419.328 131.912 418.805 132.277C418.283 132.642 417.816 133.079 417.413 133.587C417.009 134.095 416.685 134.667 416.455 135.286C416.179 136.041 416.052 136.732 416.091 137.335C416.139 138.034 416.511 138.598 417.207 139.01C417.381 139.122 417.595 139.233 417.832 139.336C418.054 139.431 418.275 139.527 418.505 139.622C418.734 139.717 418.964 139.812 419.193 139.9C419.407 139.987 419.597 140.066 419.763 140.138C420.087 140.281 420.388 140.4 420.657 140.503C420.839 140.575 420.981 140.662 421.068 140.765C421.14 140.853 421.179 140.995 421.179 141.178C421.179 141.345 421.132 141.67 420.91 142.274C420.641 143.012 420.222 143.536 419.636 143.894C419.035 144.259 418.378 144.434 417.642 144.434C416.97 144.434 416.63 144.33 416.463 144.251C416.258 144.148 416.139 144.021 416.084 143.838C416.012 143.616 416.02 143.338 416.099 142.996C416.186 142.599 416.345 142.147 416.55 141.647L416.812 141.027H414.145L414.034 141.329C413.963 141.52 413.884 141.734 413.813 141.956C413.734 142.187 413.662 142.425 413.591 142.663C413.52 142.909 413.465 143.147 413.425 143.378C413.378 143.632 413.362 143.87 413.378 144.092C413.425 144.632 413.567 145.085 413.813 145.434C414.058 145.783 414.367 146.053 414.723 146.252C415.071 146.443 415.459 146.57 415.87 146.641C416.258 146.712 416.653 146.744 417.049 146.744C418.568 146.744 419.929 146.347 421.092 145.553C422.255 144.759 423.11 143.64 423.632 142.218C423.814 141.734 423.933 141.281 423.988 140.884C424.043 140.44 423.988 140.035 423.838 139.669C423.679 139.304 423.395 138.963 422.991 138.661C422.619 138.391 422.113 138.113 421.472 137.851C421.132 137.716 420.799 137.573 420.467 137.43C420.135 137.287 419.787 137.144 419.454 137.009C419.169 136.882 418.995 136.732 418.924 136.549C418.845 136.342 418.885 136.041 419.019 135.66C419.114 135.406 419.233 135.136 419.383 134.866C419.518 134.612 419.707 134.381 419.937 134.175C420.166 133.968 420.459 133.794 420.815 133.659C421.171 133.516 421.614 133.452 422.145 133.452C422.469 133.452 422.73 133.5 422.92 133.595C423.086 133.682 423.197 133.794 423.268 133.929C423.339 134.087 423.371 134.286 423.347 134.516C423.323 134.778 423.236 135.072 423.094 135.398L422.817 136.025H425.476L425.594 135.747C426.227 134.27 426.235 133.119 425.618 132.317V132.325Z" fill="#870F54"/>
<path d="M139.251 12.1803C154.498 3.16812 179.881 1.10365 201.633 11.164C214.372 16.7857 225.22 24.9404 235.957 32.2454C255.611 46.2362 276.991 55.963 302.129 58.6706C313.143 59.9808 322.978 58.1228 332.971 56.4712C316.418 61.9182 302.864 63.0775 282.165 58.2895C268.477 55.1293 255.065 49.5552 243.497 42.3772C240.206 40.2492 235.435 37.3034 232.293 35.1118C218.383 25.5518 204.806 14.6815 187.485 9.75855C170.252 4.9785 152.781 6.97945 139.251 12.1724V12.1803Z" fill="#E7C464"/>
<path d="M152.995 3.0966C192.051 -7.59895 246.212 10.6081 277.046 38.7326C287.522 48.1735 300.974 53.7556 315.833 57.3843C308.451 56.4711 300.894 54.756 293.583 52.0166C282.49 48.0862 273.945 40.7176 265.415 34.3178C262.638 32.3486 259.568 30.3 256.609 28.4658C253.048 26.2425 248.617 23.789 244.89 21.788C241.124 19.8903 236.44 17.6591 232.491 15.9678C230.062 14.9038 227.285 13.9033 224.816 12.887C200.778 3.97003 176.155 0.28574 152.995 3.0966Z" fill="#E7C464"/>
<path d="M259.718 21.5737C273.644 22.4472 287.38 29.2202 296.708 37.1367C303.426 42.6869 309.368 48.8724 318.491 52.4614C321.403 53.6048 324.655 54.24 328.065 54.4385C325.059 55.2167 321.372 55.1611 317.779 54.4306C307.192 52.1756 298.924 45.2278 292.19 39.5823C283.115 31.8961 272.607 25.798 259.718 21.5737Z" fill="#E7C464"/>
<path d="M200.572 170.764L204.18 160.449H208.081C209.901 160.449 209.941 161.934 209.434 163.387C209.126 164.268 208.548 165.261 207.622 165.833C206.855 166.317 206 166.468 205.272 166.452H203.99L202.479 170.772H200.572V170.764ZM204.521 164.928H205.541C206.372 164.928 207.053 164.57 207.488 163.324C207.899 162.14 207.504 161.966 206.427 161.958H205.557L204.521 164.928Z" fill="#E7C464"/>
<path d="M215.392 166.325L213.841 170.772H211.935L215.543 160.449H219.151C220.796 160.449 221.849 161.029 221.184 162.927C220.789 164.054 220.092 165.237 218.747 165.42V165.452C219.815 165.602 219.902 166.333 219.554 167.325C219.404 167.754 218.462 170.287 218.818 170.589L218.755 170.78H216.658C216.658 170.12 217.141 168.85 217.37 168.167C217.576 167.532 217.893 166.666 217.307 166.476C216.848 166.325 216.278 166.341 215.733 166.341H215.392V166.325ZM215.922 164.808H217.418C218.059 164.769 218.692 164.356 219.056 163.324C219.459 162.164 219.056 161.974 218.336 161.958H216.919L215.922 164.8V164.808Z" fill="#E7C464"/>
<path d="M226.098 164.792C227.103 162.164 227.989 160.211 231.035 160.211C234.089 160.211 233.607 162.164 232.768 164.8L232.254 166.269C231.288 169.025 230.378 171.034 227.253 171.026C224.12 171.026 224.618 169.017 225.583 166.261L226.098 164.792ZM227.206 167.23C226.905 168.088 226.486 169.477 227.799 169.477C229.16 169.477 229.666 168.064 230.014 167.071L230.94 164.427C231.225 163.601 231.913 161.767 230.497 161.767C229.002 161.767 228.495 163.57 228.21 164.364L227.213 167.222L227.206 167.23Z" fill="#E7C464"/>
<path d="M236.305 170.787L239.913 160.473H245.317L244.787 161.989H241.29L240.38 164.602H243.663L243.133 166.118H239.849L238.212 170.795H236.305V170.787Z" fill="#E7C464"/>
<path d="M246.812 170.795L250.421 160.481H255.785L255.255 161.998H251.797L250.887 164.594H254.076L253.546 166.111H250.357L249.25 169.287H252.707L252.177 170.803H246.812V170.795Z" fill="#E7C464"/>
<path d="M263.895 163.617C264.235 162.696 264.465 161.783 263.421 161.783C262.78 161.783 262.281 162.045 262.036 162.744C261.759 163.53 262.147 163.832 262.613 164.213C263.104 164.61 263.99 165.38 264.338 165.904C264.766 166.547 264.758 167.167 264.441 168.064C263.753 170.017 262.123 171.034 260.256 171.034C257.969 171.034 257.597 169.739 258.246 167.889L258.507 167.135H260.414L260.2 167.738C259.805 168.747 259.852 169.477 260.794 169.477C261.593 169.477 262.131 169.049 262.4 168.27C262.613 167.667 262.487 167.254 262.115 166.905C261.395 166.119 260.35 165.555 259.939 164.523C259.789 164.054 259.812 163.49 260.002 162.943C260.62 161.18 261.941 160.219 263.951 160.219C266.989 160.219 266.079 162.585 265.731 163.609H263.895V163.617Z" fill="#E7C464"/>
<path d="M275.289 163.625C275.63 162.704 275.859 161.791 274.815 161.791C274.174 161.791 273.675 162.053 273.43 162.752C273.153 163.538 273.541 163.84 274 164.221C274.49 164.618 275.376 165.388 275.725 165.912C276.152 166.555 276.144 167.175 275.827 168.072C275.139 170.025 273.509 171.041 271.642 171.041C269.355 171.041 268.991 169.747 269.632 167.897L269.893 167.143H271.8L271.586 167.746C271.199 168.755 271.238 169.485 272.18 169.485C272.979 169.485 273.509 169.056 273.786 168.278C274 167.675 273.873 167.262 273.501 166.913C272.781 166.126 271.745 165.563 271.325 164.53C271.175 164.062 271.199 163.498 271.389 162.95C272.006 161.188 273.319 160.227 275.337 160.227C278.375 160.227 277.465 162.593 277.117 163.617H275.281L275.289 163.625Z" fill="#E7C464"/>
<path d="M280.282 170.811L283.89 160.497H285.797L282.189 170.819H280.282V170.811Z" fill="#E7C464"/>
<path d="M289.864 164.84C290.869 162.212 291.755 160.259 294.801 160.259C297.855 160.259 297.373 162.212 296.534 164.848L296.02 166.317C295.054 169.072 294.145 171.081 291.019 171.073C287.886 171.073 288.384 169.064 289.35 166.309L289.864 164.84ZM290.98 167.27C290.687 168.127 290.26 169.517 291.573 169.517C292.934 169.517 293.448 168.104 293.788 167.111L294.714 164.467C295.007 163.641 295.687 161.807 294.271 161.807C292.776 161.807 292.269 163.609 291.984 164.403L290.98 167.262V167.27Z" fill="#E7C464"/>
<path d="M308.181 160.513H310.088L306.48 170.835H304.494L304.296 167.159C304.225 165.936 304.249 164.681 304.367 163.053H304.344C304.114 163.911 303.829 164.951 303.521 165.999C303.212 167.032 302.896 168.064 302.603 168.89L301.923 170.827H300.016L303.624 160.505H305.602L305.776 164.26C305.847 165.459 305.823 166.682 305.705 168.366H305.728C305.99 167.429 306.274 166.428 306.567 165.436C306.86 164.451 307.168 163.458 307.485 162.537L308.189 160.513H308.181Z" fill="#E7C464"/>
<path d="M311.346 170.835L317.391 160.521H319.963L318.665 170.843H316.624L317.035 168.231H314.804L313.388 170.843H311.346V170.835ZM315.635 166.706H317.265L317.771 163.776C317.842 163.292 317.969 162.823 318.08 162.347C318.151 162.109 318.206 161.878 318.254 161.656H318.23C318.127 161.878 318.016 162.109 317.921 162.347C317.7 162.831 317.494 163.3 317.233 163.776L315.635 166.706Z" fill="#E7C464"/>
<path d="M323.54 170.843L327.148 160.529H329.055L325.977 169.334H329.521L328.991 170.851H323.547L323.54 170.843Z" fill="#E7C464"/>
<path d="M341.382 170.859L344.99 160.544H348.883C350.711 160.544 350.742 162.029 350.236 163.482C349.927 164.364 349.35 165.356 348.424 165.928C347.657 166.412 346.802 166.563 346.066 166.547H344.784L343.273 170.867H341.366L341.382 170.859ZM345.33 165.023H346.351C347.182 165.023 347.862 164.665 348.305 163.419C348.717 162.236 348.321 162.061 347.245 162.053H346.375L345.338 165.023H345.33Z" fill="#E7C464"/>
<path d="M356.202 166.42L354.651 170.867H352.744L356.352 160.544H359.96C361.606 160.544 362.658 161.124 361.994 163.022C361.598 164.149 360.902 165.332 359.557 165.515V165.547C360.625 165.698 360.712 166.428 360.364 167.421C360.213 167.849 359.272 170.382 359.628 170.684L359.565 170.875H357.468C357.468 170.216 357.951 168.945 358.18 168.262C358.386 167.627 358.702 166.762 358.117 166.571C357.65 166.42 357.088 166.436 356.542 166.436H356.202V166.42ZM356.732 164.904H358.227C358.868 164.864 359.501 164.451 359.865 163.419C360.269 162.26 359.865 162.069 359.145 162.053H357.729L356.732 164.896V164.904Z" fill="#E7C464"/>
<path d="M366.907 164.888C367.912 162.259 368.798 160.306 371.845 160.306C374.891 160.306 374.416 162.259 373.578 164.896L373.063 166.365C372.098 169.12 371.196 171.129 368.063 171.121C364.929 171.121 365.428 169.112 366.393 166.357L366.907 164.888ZM368.015 167.325C367.714 168.183 367.295 169.572 368.609 169.572C369.969 169.572 370.476 168.159 370.824 167.167L371.75 164.522C372.035 163.697 372.723 161.862 371.307 161.862C369.811 161.862 369.305 163.665 369.02 164.459L368.023 167.317L368.015 167.325Z" fill="#E7C464"/>
<path d="M377.099 170.883L380.707 160.568H384.679C385.146 160.568 385.992 160.775 386.246 161.744C386.428 162.458 386.158 163.602 385.557 165.309C384.845 167.341 384.022 169.7 382.131 170.621C381.625 170.867 381.095 170.899 380.62 170.899H377.091L377.099 170.883ZM380.367 169.366C382.068 169.366 382.495 168.461 383.539 165.475C384.394 163.038 384.481 162.077 383.334 162.077H382.084L379.536 169.366H380.367Z" fill="#E7C464"/>
<path d="M397.37 160.576H399.277L396.761 167.778C395.962 170.057 394.846 171.145 392.354 171.145C389.838 171.145 389.482 170.049 390.281 167.77L392.797 160.576H394.704L392.243 167.611C391.895 168.604 391.618 169.596 392.908 169.596C394.15 169.596 394.561 168.604 394.909 167.619L397.37 160.592V160.576Z" fill="#E7C464"/>
<path d="M408.653 167.23C408.574 167.421 408.487 167.627 408.408 167.818C407.656 169.7 406.525 171.145 404.397 171.145C401.263 171.145 401.762 169.136 402.727 166.381L403.241 164.912C404.238 162.283 405.132 160.33 408.179 160.33C409.872 160.362 410.513 161.243 410.038 162.998C409.975 163.26 409.912 163.522 409.809 163.784H407.926C408.076 163.125 408.574 161.886 407.641 161.886C406.145 161.886 405.639 163.689 405.354 164.483L404.357 167.341C404.056 168.199 403.637 169.588 404.95 169.588C406.003 169.588 406.47 167.881 406.747 167.222H408.669L408.653 167.23Z" fill="#E7C464"/>
<path d="M415.624 160.584H421.986L421.456 162.101H419.232L416.154 170.907H414.248L417.326 162.101H415.094L415.624 160.584Z" fill="#E7C464"/>
</g>
<defs>
<clipPath id="clip0_324_884">
<rect width="454" height="184" fill="white"/>
</clipPath>
</defs>
</svg>
