<svg width="1438" height="1429" viewBox="0 0 1438 1429" fill="none" xmlns="http://www.w3.org/2000/svg">
<g opacity="0.1">
<path d="M73.5515 84.6605C73.5515 104.964 57.079 121.436 36.7757 121.436C16.4725 121.436 0 104.964 0 84.6605C0 64.3572 16.4725 47.8848 36.7757 47.8848C57.079 47.8848 73.5515 64.3572 73.5515 84.6605Z" fill="#003DA6"/>
<path d="M164.725 132.546C164.725 152.85 148.252 169.322 127.949 169.322C107.646 169.322 91.1733 152.85 91.1733 132.546C91.1733 112.243 107.646 95.7705 127.949 95.7705C148.252 95.7705 164.725 112.243 164.725 132.546Z" fill="#003DA6"/>
<path d="M164.725 36.7757C164.725 57.079 148.252 73.5515 127.949 73.5515C107.646 73.5515 91.1733 57.079 91.1733 36.7757C91.1733 16.4725 107.646 0 127.949 0C148.252 0 164.725 16.4725 164.725 36.7757Z" fill="#003DA6"/>
<path d="M255.77 84.6605C255.77 104.964 239.298 121.436 218.994 121.436C198.691 121.436 182.219 104.964 182.219 84.6605C182.219 64.3572 198.691 47.8848 218.994 47.8848C239.298 47.8848 255.77 64.3572 255.77 84.6605Z" fill="#003DA6"/>
<path d="M73.5515 84.6605C73.5515 104.964 57.079 121.436 36.7757 121.436C16.4725 121.436 0 104.964 0 84.6605C0 64.3572 16.4725 47.8848 36.7757 47.8848C57.079 47.8848 73.5515 64.3572 73.5515 84.6605Z" fill="#00ABC8"/>
<path d="M346.816 132.546C346.816 152.85 330.343 169.322 310.04 169.322C289.737 169.322 273.264 152.85 273.264 132.546C273.264 112.243 289.737 95.7705 310.04 95.7705C330.343 95.7705 346.816 112.243 346.816 132.546Z" fill="#003DA6"/>
<path d="M346.816 36.7757C346.816 57.079 330.343 73.5515 310.04 73.5515C289.737 73.5515 273.264 57.079 273.264 36.7757C273.264 16.4725 289.737 0 310.04 0C330.343 0 346.816 16.4725 346.816 36.7757Z" fill="#003DA6"/>
<path d="M437.989 84.6605C437.989 104.964 421.516 121.436 401.213 121.436C380.91 121.436 364.438 104.964 364.438 84.6605C364.438 64.3572 380.91 47.8848 401.213 47.8848C421.516 47.8848 437.989 64.3572 437.989 84.6605Z" fill="#003DA6"/>
<path d="M255.77 84.6605C255.77 104.964 239.298 121.436 218.994 121.436C198.691 121.436 182.219 104.964 182.219 84.6605C182.219 64.3572 198.691 47.8848 218.994 47.8848C239.298 47.8848 255.77 64.3572 255.77 84.6605Z" fill="#00ABC8"/>
<path d="M529.034 132.546C529.034 152.85 512.562 169.322 492.259 169.322C471.955 169.322 455.483 152.85 455.483 132.546C455.483 112.243 471.955 95.7705 492.259 95.7705C512.562 95.7705 529.034 112.243 529.034 132.546Z" fill="#003DA6"/>
<path d="M529.034 36.7757C529.034 57.079 512.562 73.5515 492.259 73.5515C471.955 73.5515 455.483 57.079 455.483 36.7757C455.483 16.4725 471.955 0 492.259 0C512.562 0 529.034 16.4725 529.034 36.7757Z" fill="#003DA6"/>
<path d="M620.208 84.6605C620.208 104.964 603.735 121.436 583.432 121.436C563.129 121.436 546.656 104.964 546.656 84.6605C546.656 64.3572 563.129 47.8848 583.432 47.8848C603.735 47.8848 620.208 64.3572 620.208 84.6605Z" fill="#003DA6"/>
<path d="M437.989 84.6605C437.989 104.964 421.516 121.436 401.213 121.436C380.91 121.436 364.438 104.964 364.438 84.6605C364.438 64.3572 380.91 47.8848 401.213 47.8848C421.516 47.8848 437.989 64.3572 437.989 84.6605Z" fill="#00ABC8"/>
<path d="M711.253 132.546C711.253 152.85 694.781 169.322 674.477 169.322C654.174 169.322 637.702 152.85 637.702 132.546C637.702 112.243 654.174 95.7705 674.477 95.7705C694.781 95.7705 711.253 112.243 711.253 132.546Z" fill="#003DA6"/>
<path d="M711.253 36.7757C711.253 57.079 694.781 73.5515 674.477 73.5515C654.174 73.5515 637.702 57.079 637.702 36.7757C637.702 16.4725 654.174 0 674.477 0C694.781 0 711.253 16.4725 711.253 36.7757Z" fill="#003DA6"/>
<path d="M802.299 84.6605C802.299 104.964 785.826 121.436 765.523 121.436C745.22 121.436 728.747 104.964 728.747 84.6605C728.747 64.3572 745.22 47.8848 765.523 47.8848C785.826 47.8848 802.299 64.3572 802.299 84.6605Z" fill="#003DA6"/>
<path d="M620.208 84.6605C620.208 104.964 603.735 121.436 583.432 121.436C563.129 121.436 546.656 104.964 546.656 84.6605C546.656 64.3572 563.129 47.8848 583.432 47.8848C603.735 47.8848 620.208 64.3572 620.208 84.6605Z" fill="#00ABC8"/>
<path d="M893.472 132.546C893.472 152.85 876.999 169.322 856.696 169.322C836.393 169.322 819.92 152.85 819.92 132.546C819.92 112.243 836.393 95.7705 856.696 95.7705C876.999 95.7705 893.472 112.243 893.472 132.546Z" fill="#003DA6"/>
<path d="M893.472 36.7757C893.472 57.079 876.999 73.5515 856.696 73.5515C836.393 73.5515 819.92 57.079 819.92 36.7757C819.92 16.4725 836.393 0 856.696 0C876.999 0 893.472 16.4725 893.472 36.7757Z" fill="#003DA6"/>
<path d="M984.517 84.6605C984.517 104.964 968.045 121.436 947.742 121.436C927.438 121.436 910.966 104.964 910.966 84.6605C910.966 64.3572 927.438 47.8848 947.742 47.8848C968.045 47.8848 984.517 64.3572 984.517 84.6605Z" fill="#003DA6"/>
<path d="M802.299 84.6605C802.299 104.964 785.826 121.436 765.523 121.436C745.22 121.436 728.747 104.964 728.747 84.6605C728.747 64.3572 745.22 47.8848 765.523 47.8848C785.826 47.8848 802.299 64.3572 802.299 84.6605Z" fill="#00ABC8"/>
<path d="M1075.56 132.546C1075.56 152.85 1059.09 169.322 1038.79 169.322C1018.48 169.322 1002.01 152.85 1002.01 132.546C1002.01 112.243 1018.48 95.7705 1038.79 95.7705C1059.09 95.7705 1075.56 112.243 1075.56 132.546Z" fill="#003DA6"/>
<path d="M1075.56 36.7757C1075.56 57.079 1059.09 73.5515 1038.79 73.5515C1018.48 73.5515 1002.01 57.079 1002.01 36.7757C1002.01 16.4725 1018.48 0 1038.79 0C1059.09 0 1075.56 16.4725 1075.56 36.7757Z" fill="#003DA6"/>
<path d="M1166.74 84.6605C1166.74 104.964 1150.26 121.436 1129.96 121.436C1109.66 121.436 1093.18 104.964 1093.18 84.6605C1093.18 64.3572 1109.66 47.8848 1129.96 47.8848C1150.26 47.8848 1166.74 64.3572 1166.74 84.6605Z" fill="#003DA6"/>
<path d="M984.517 84.6605C984.517 104.964 968.045 121.436 947.742 121.436C927.438 121.436 910.966 104.964 910.966 84.6605C910.966 64.3572 927.438 47.8848 947.742 47.8848C968.045 47.8848 984.517 64.3572 984.517 84.6605Z" fill="#00ABC8"/>
<path d="M1257.78 132.546C1257.78 152.85 1241.31 169.322 1221.01 169.322C1200.7 169.322 1184.23 152.85 1184.23 132.546C1184.23 112.243 1200.7 95.7705 1221.01 95.7705C1241.31 95.7705 1257.78 112.243 1257.78 132.546Z" fill="#003DA6"/>
<path d="M1257.78 36.7757C1257.78 57.079 1241.31 73.5515 1221.01 73.5515C1200.7 73.5515 1184.23 57.079 1184.23 36.7757C1184.23 16.4725 1200.7 0 1221.01 0C1241.31 0 1257.78 16.4725 1257.78 36.7757Z" fill="#003DA6"/>
<path d="M1348.95 84.6605C1348.95 104.964 1332.48 121.436 1312.18 121.436C1291.88 121.436 1275.4 104.964 1275.4 84.6605C1275.4 64.3572 1291.88 47.8848 1312.18 47.8848C1332.48 47.8848 1348.95 64.3572 1348.95 84.6605Z" fill="#003DA6"/>
<path d="M1166.74 84.6605C1166.74 104.964 1150.26 121.436 1129.96 121.436C1109.66 121.436 1093.18 104.964 1093.18 84.6605C1093.18 64.3572 1109.66 47.8848 1129.96 47.8848C1150.26 47.8848 1166.74 64.3572 1166.74 84.6605Z" fill="#00ABC8"/>
<path d="M1440 132.546C1440 152.85 1423.53 169.322 1403.22 169.322C1382.92 169.322 1366.45 152.85 1366.45 132.546C1366.45 112.243 1382.92 95.7705 1403.22 95.7705C1423.53 95.7705 1440 112.243 1440 132.546Z" fill="#003DA6"/>
<path d="M1440 36.7757C1440 57.079 1423.53 73.5515 1403.22 73.5515C1382.92 73.5515 1366.45 57.079 1366.45 36.7757C1366.45 16.4725 1382.92 0 1403.22 0C1423.53 0 1440 16.4725 1440 36.7757Z" fill="#003DA6"/>
<path d="M1348.95 84.6605C1348.95 104.964 1332.48 121.436 1312.18 121.436C1291.88 121.436 1275.4 104.964 1275.4 84.6605C1275.4 64.3572 1291.88 47.8848 1312.18 47.8848C1332.48 47.8848 1348.95 64.3572 1348.95 84.6605Z" fill="#00ABC8"/>
<path d="M73.5515 185.666C73.5515 205.97 57.079 222.442 36.7757 222.442C16.4725 222.442 0 205.97 0 185.666C0 165.363 16.4725 148.891 36.7757 148.891C57.079 148.891 73.5515 165.363 73.5515 185.666Z" fill="#00ABC8"/>
<path d="M73.5515 377.206C73.5515 397.51 57.079 413.982 36.7757 413.982C16.4725 413.982 0 397.51 0 377.206C0 356.903 16.4725 340.431 36.7757 340.431C57.079 340.431 73.5515 356.903 73.5515 377.206Z" fill="#003DA6"/>
<path d="M73.5515 281.437C73.5515 301.74 57.079 318.213 36.7757 318.213C16.4725 318.213 0 301.74 0 281.437C0 261.134 16.4725 244.661 36.7757 244.661C57.079 244.661 73.5515 261.134 73.5515 281.437Z" fill="#003DA6"/>
<path d="M164.725 329.322C164.725 349.625 148.252 366.097 127.949 366.097C107.646 366.097 91.1733 349.625 91.1733 329.322C91.1733 309.018 107.646 292.546 127.949 292.546C148.252 292.546 164.725 309.018 164.725 329.322Z" fill="#003DA6"/>
<path d="M164.725 233.551C164.725 253.854 148.252 270.327 127.949 270.327C107.646 270.327 91.1733 253.854 91.1733 233.551C91.1733 213.248 107.646 196.775 127.949 196.775C148.252 196.775 164.725 213.248 164.725 233.551Z" fill="#003DA6"/>
<path d="M255.77 185.666C255.77 205.97 239.298 222.442 218.994 222.442C198.691 222.442 182.219 205.97 182.219 185.666C182.219 165.363 198.691 148.891 218.994 148.891C239.298 148.891 255.77 165.363 255.77 185.666Z" fill="#00ABC8"/>
<path d="M255.77 377.206C255.77 397.51 239.298 413.982 218.994 413.982C198.691 413.982 182.219 397.51 182.219 377.206C182.219 356.903 198.691 340.431 218.994 340.431C239.298 340.431 255.77 356.903 255.77 377.206Z" fill="#003DA6"/>
<path d="M255.77 281.437C255.77 301.74 239.298 318.213 218.994 318.213C198.691 318.213 182.219 301.74 182.219 281.437C182.219 261.134 198.691 244.661 218.994 244.661C239.298 244.661 255.77 261.134 255.77 281.437Z" fill="#003DA6"/>
<path d="M346.816 329.322C346.816 349.625 330.343 366.097 310.04 366.097C289.737 366.097 273.264 349.625 273.264 329.322C273.264 309.018 289.737 292.546 310.04 292.546C330.343 292.546 346.816 309.018 346.816 329.322Z" fill="#003DA6"/>
<path d="M346.816 233.551C346.816 253.854 330.343 270.327 310.04 270.327C289.737 270.327 273.264 253.854 273.264 233.551C273.264 213.248 289.737 196.775 310.04 196.775C330.343 196.775 346.816 213.248 346.816 233.551Z" fill="#003DA6"/>
<path d="M164.725 329.322C164.725 349.625 148.252 366.097 127.949 366.097C107.646 366.097 91.1733 349.625 91.1733 329.322C91.1733 309.018 107.646 292.546 127.949 292.546C148.252 292.546 164.725 309.018 164.725 329.322Z" fill="#00ABC8"/>
<path d="M164.725 233.551C164.725 253.854 148.252 270.327 127.949 270.327C107.646 270.327 91.1733 253.854 91.1733 233.551C91.1733 213.248 107.646 196.775 127.949 196.775C148.252 196.775 164.725 213.248 164.725 233.551Z" fill="#00ABC8"/>
<path d="M437.989 185.666C437.989 205.97 421.516 222.442 401.213 222.442C380.91 222.442 364.438 205.97 364.438 185.666C364.438 165.363 380.91 148.891 401.213 148.891C421.516 148.891 437.989 165.363 437.989 185.666Z" fill="#00ABC8"/>
<path d="M437.989 377.206C437.989 397.51 421.516 413.982 401.213 413.982C380.91 413.982 364.438 397.51 364.438 377.206C364.438 356.903 380.91 340.431 401.213 340.431C421.516 340.431 437.989 356.903 437.989 377.206Z" fill="#003DA6"/>
<path d="M437.989 281.437C437.989 301.74 421.516 318.213 401.213 318.213C380.91 318.213 364.438 301.74 364.438 281.437C364.438 261.134 380.91 244.661 401.213 244.661C421.516 244.661 437.989 261.134 437.989 281.437Z" fill="#003DA6"/>
<path d="M529.034 329.322C529.034 349.625 512.562 366.097 492.259 366.097C471.955 366.097 455.483 349.625 455.483 329.322C455.483 309.018 471.955 292.546 492.259 292.546C512.562 292.546 529.034 309.018 529.034 329.322Z" fill="#003DA6"/>
<path d="M529.034 233.551C529.034 253.854 512.562 270.327 492.259 270.327C471.955 270.327 455.483 253.854 455.483 233.551C455.483 213.248 471.955 196.775 492.259 196.775C512.562 196.775 529.034 213.248 529.034 233.551Z" fill="#003DA6"/>
<path d="M346.816 329.322C346.816 349.625 330.343 366.097 310.04 366.097C289.737 366.097 273.264 349.625 273.264 329.322C273.264 309.018 289.737 292.546 310.04 292.546C330.343 292.546 346.816 309.018 346.816 329.322Z" fill="#00ABC8"/>
<path d="M346.816 233.551C346.816 253.854 330.343 270.327 310.04 270.327C289.737 270.327 273.264 253.854 273.264 233.551C273.264 213.248 289.737 196.775 310.04 196.775C330.343 196.775 346.816 213.248 346.816 233.551Z" fill="#00ABC8"/>
<path d="M620.208 185.666C620.208 205.97 603.735 222.442 583.432 222.442C563.129 222.442 546.656 205.97 546.656 185.666C546.656 165.363 563.129 148.891 583.432 148.891C603.735 148.891 620.208 165.363 620.208 185.666Z" fill="#00ABC8"/>
<path d="M620.208 377.206C620.208 397.51 603.735 413.982 583.432 413.982C563.129 413.982 546.656 397.51 546.656 377.206C546.656 356.903 563.129 340.431 583.432 340.431C603.735 340.431 620.208 356.903 620.208 377.206Z" fill="#003DA6"/>
<path d="M620.208 281.437C620.208 301.74 603.735 318.213 583.432 318.213C563.129 318.213 546.656 301.74 546.656 281.437C546.656 261.134 563.129 244.661 583.432 244.661C603.735 244.661 620.208 261.134 620.208 281.437Z" fill="#003DA6"/>
<path d="M711.253 329.322C711.253 349.625 694.781 366.097 674.477 366.097C654.174 366.097 637.702 349.625 637.702 329.322C637.702 309.018 654.174 292.546 674.477 292.546C694.781 292.546 711.253 309.018 711.253 329.322Z" fill="#003DA6"/>
<path d="M711.253 233.551C711.253 253.854 694.781 270.327 674.477 270.327C654.174 270.327 637.702 253.854 637.702 233.551C637.702 213.248 654.174 196.775 674.477 196.775C694.781 196.775 711.253 213.248 711.253 233.551Z" fill="#003DA6"/>
<path d="M529.034 329.322C529.034 349.625 512.562 366.097 492.259 366.097C471.955 366.097 455.483 349.625 455.483 329.322C455.483 309.018 471.955 292.546 492.259 292.546C512.562 292.546 529.034 309.018 529.034 329.322Z" fill="#00ABC8"/>
<path d="M529.034 233.551C529.034 253.854 512.562 270.327 492.259 270.327C471.955 270.327 455.483 253.854 455.483 233.551C455.483 213.248 471.955 196.775 492.259 196.775C512.562 196.775 529.034 213.248 529.034 233.551Z" fill="#00ABC8"/>
<path d="M802.299 185.666C802.299 205.97 785.826 222.442 765.523 222.442C745.22 222.442 728.747 205.97 728.747 185.666C728.747 165.363 745.22 148.891 765.523 148.891C785.826 148.891 802.299 165.363 802.299 185.666Z" fill="#00ABC8"/>
<path d="M802.299 377.206C802.299 397.51 785.826 413.982 765.523 413.982C745.22 413.982 728.747 397.51 728.747 377.206C728.747 356.903 745.22 340.431 765.523 340.431C785.826 340.431 802.299 356.903 802.299 377.206Z" fill="#003DA6"/>
<path d="M802.299 281.437C802.299 301.74 785.826 318.213 765.523 318.213C745.22 318.213 728.747 301.74 728.747 281.437C728.747 261.134 745.22 244.661 765.523 244.661C785.826 244.661 802.299 261.134 802.299 281.437Z" fill="#003DA6"/>
<path d="M893.472 329.322C893.472 349.625 876.999 366.097 856.696 366.097C836.393 366.097 819.92 349.625 819.92 329.322C819.92 309.018 836.393 292.546 856.696 292.546C876.999 292.546 893.472 309.018 893.472 329.322Z" fill="#003DA6"/>
<path d="M893.472 233.551C893.472 253.854 876.999 270.327 856.696 270.327C836.393 270.327 819.92 253.854 819.92 233.551C819.92 213.248 836.393 196.775 856.696 196.775C876.999 196.775 893.472 213.248 893.472 233.551Z" fill="#003DA6"/>
<path d="M711.253 329.322C711.253 349.625 694.781 366.097 674.477 366.097C654.174 366.097 637.702 349.625 637.702 329.322C637.702 309.018 654.174 292.546 674.477 292.546C694.781 292.546 711.253 309.018 711.253 329.322Z" fill="#00ABC8"/>
<path d="M711.253 233.551C711.253 253.854 694.781 270.327 674.477 270.327C654.174 270.327 637.702 253.854 637.702 233.551C637.702 213.248 654.174 196.775 674.477 196.775C694.781 196.775 711.253 213.248 711.253 233.551Z" fill="#00ABC8"/>
<path d="M984.517 185.666C984.517 205.97 968.045 222.442 947.742 222.442C927.438 222.442 910.966 205.97 910.966 185.666C910.966 165.363 927.438 148.891 947.742 148.891C968.045 148.891 984.517 165.363 984.517 185.666Z" fill="#00ABC8"/>
<path d="M984.517 377.206C984.517 397.51 968.045 413.982 947.742 413.982C927.438 413.982 910.966 397.51 910.966 377.206C910.966 356.903 927.438 340.431 947.742 340.431C968.045 340.431 984.517 356.903 984.517 377.206Z" fill="#003DA6"/>
<path d="M984.517 281.437C984.517 301.74 968.045 318.213 947.742 318.213C927.438 318.213 910.966 301.74 910.966 281.437C910.966 261.134 927.438 244.661 947.742 244.661C968.045 244.661 984.517 261.134 984.517 281.437Z" fill="#003DA6"/>
<path d="M1075.56 329.322C1075.56 349.625 1059.09 366.097 1038.79 366.097C1018.48 366.097 1002.01 349.625 1002.01 329.322C1002.01 309.018 1018.48 292.546 1038.79 292.546C1059.09 292.546 1075.56 309.018 1075.56 329.322Z" fill="#003DA6"/>
<path d="M1075.56 233.551C1075.56 253.854 1059.09 270.327 1038.79 270.327C1018.48 270.327 1002.01 253.854 1002.01 233.551C1002.01 213.248 1018.48 196.775 1038.79 196.775C1059.09 196.775 1075.56 213.248 1075.56 233.551Z" fill="#003DA6"/>
<path d="M893.472 329.322C893.472 349.625 876.999 366.097 856.696 366.097C836.393 366.097 819.92 349.625 819.92 329.322C819.92 309.018 836.393 292.546 856.696 292.546C876.999 292.546 893.472 309.018 893.472 329.322Z" fill="#00ABC8"/>
<path d="M893.472 233.551C893.472 253.854 876.999 270.327 856.696 270.327C836.393 270.327 819.92 253.854 819.92 233.551C819.92 213.248 836.393 196.775 856.696 196.775C876.999 196.775 893.472 213.248 893.472 233.551Z" fill="#00ABC8"/>
<path d="M1166.74 185.666C1166.74 205.97 1150.26 222.442 1129.96 222.442C1109.66 222.442 1093.18 205.97 1093.18 185.666C1093.18 165.363 1109.66 148.891 1129.96 148.891C1150.26 148.891 1166.74 165.363 1166.74 185.666Z" fill="#00ABC8"/>
<path d="M1166.74 377.206C1166.74 397.51 1150.26 413.982 1129.96 413.982C1109.66 413.982 1093.18 397.51 1093.18 377.206C1093.18 356.903 1109.66 340.431 1129.96 340.431C1150.26 340.431 1166.74 356.903 1166.74 377.206Z" fill="#003DA6"/>
<path d="M1166.74 281.437C1166.74 301.74 1150.26 318.213 1129.96 318.213C1109.66 318.213 1093.18 301.74 1093.18 281.437C1093.18 261.134 1109.66 244.661 1129.96 244.661C1150.26 244.661 1166.74 261.134 1166.74 281.437Z" fill="#003DA6"/>
<path d="M1257.78 329.322C1257.78 349.625 1241.31 366.097 1221.01 366.097C1200.7 366.097 1184.23 349.625 1184.23 329.322C1184.23 309.018 1200.7 292.546 1221.01 292.546C1241.31 292.546 1257.78 309.018 1257.78 329.322Z" fill="#003DA6"/>
<path d="M1257.78 233.551C1257.78 253.854 1241.31 270.327 1221.01 270.327C1200.7 270.327 1184.23 253.854 1184.23 233.551C1184.23 213.248 1200.7 196.775 1221.01 196.775C1241.31 196.775 1257.78 213.248 1257.78 233.551Z" fill="#003DA6"/>
<path d="M1075.56 329.322C1075.56 349.625 1059.09 366.097 1038.79 366.097C1018.48 366.097 1002.01 349.625 1002.01 329.322C1002.01 309.018 1018.48 292.546 1038.79 292.546C1059.09 292.546 1075.56 309.018 1075.56 329.322Z" fill="#00ABC8"/>
<path d="M1075.56 233.551C1075.56 253.854 1059.09 270.327 1038.79 270.327C1018.48 270.327 1002.01 253.854 1002.01 233.551C1002.01 213.248 1018.48 196.775 1038.79 196.775C1059.09 196.775 1075.56 213.248 1075.56 233.551Z" fill="#00ABC8"/>
<path d="M1348.95 185.666C1348.95 205.97 1332.48 222.442 1312.18 222.442C1291.88 222.442 1275.4 205.97 1275.4 185.666C1275.4 165.363 1291.88 148.891 1312.18 148.891C1332.48 148.891 1348.95 165.363 1348.95 185.666Z" fill="#00ABC8"/>
<path d="M1348.95 377.206C1348.95 397.51 1332.48 413.982 1312.18 413.982C1291.88 413.982 1275.4 397.51 1275.4 377.206C1275.4 356.903 1291.88 340.431 1312.18 340.431C1332.48 340.431 1348.95 356.903 1348.95 377.206Z" fill="#003DA6"/>
<path d="M1348.95 281.437C1348.95 301.74 1332.48 318.213 1312.18 318.213C1291.88 318.213 1275.4 301.74 1275.4 281.437C1275.4 261.134 1291.88 244.661 1312.18 244.661C1332.48 244.661 1348.95 261.134 1348.95 281.437Z" fill="#003DA6"/>
<path d="M1440 329.322C1440 349.625 1423.53 366.097 1403.22 366.097C1382.92 366.097 1366.45 349.625 1366.45 329.322C1366.45 309.018 1382.92 292.546 1403.22 292.546C1423.53 292.546 1440 309.018 1440 329.322Z" fill="#003DA6"/>
<path d="M1440 233.551C1440 253.854 1423.53 270.327 1403.22 270.327C1382.92 270.327 1366.45 253.854 1366.45 233.551C1366.45 213.248 1382.92 196.775 1403.22 196.775C1423.53 196.775 1440 213.248 1440 233.551Z" fill="#003DA6"/>
<path d="M1257.78 329.322C1257.78 349.625 1241.31 366.097 1221.01 366.097C1200.7 366.097 1184.23 349.625 1184.23 329.322C1184.23 309.018 1200.7 292.546 1221.01 292.546C1241.31 292.546 1257.78 309.018 1257.78 329.322Z" fill="#00ABC8"/>
<path d="M1257.78 233.551C1257.78 253.854 1241.31 270.327 1221.01 270.327C1200.7 270.327 1184.23 253.854 1184.23 233.551C1184.23 213.248 1200.7 196.775 1221.01 196.775C1241.31 196.775 1257.78 213.248 1257.78 233.551Z" fill="#00ABC8"/>
<path d="M1440 329.322C1440 349.625 1423.53 366.097 1403.22 366.097C1382.92 366.097 1366.45 349.625 1366.45 329.322C1366.45 309.018 1382.92 292.546 1403.22 292.546C1423.53 292.546 1440 309.018 1440 329.322Z" fill="#00ABC8"/>
<path d="M1440 233.551C1440 253.854 1423.53 270.327 1403.22 270.327C1382.92 270.327 1366.45 253.854 1366.45 233.551C1366.45 213.248 1382.92 196.775 1403.22 196.775C1423.53 196.775 1440 213.248 1440 233.551Z" fill="#00ABC8"/>
<path d="M73.5515 568.109C73.5515 588.412 57.079 604.884 36.7757 604.884C16.4725 604.884 0 588.412 0 568.109C0 547.805 16.4725 531.333 36.7757 531.333C57.079 531.333 73.5515 547.805 73.5515 568.109Z" fill="#003DA6"/>
<path d="M73.5515 472.338C73.5515 492.642 57.079 509.114 36.7757 509.114C16.4725 509.114 0 492.642 0 472.338C0 452.035 16.4725 435.562 36.7757 435.562C57.079 435.562 73.5515 452.035 73.5515 472.338Z" fill="#003DA6"/>
<path d="M164.725 424.453C164.725 444.757 148.252 461.229 127.949 461.229C107.646 461.229 91.1733 444.757 91.1733 424.453C91.1733 404.15 107.646 387.678 127.949 387.678C148.252 387.678 164.725 404.15 164.725 424.453Z" fill="#00ABC8"/>
<path d="M164.725 615.994C164.725 636.297 148.252 652.769 127.949 652.769C107.646 652.769 91.1733 636.297 91.1733 615.994C91.1733 595.69 107.646 579.218 127.949 579.218C148.252 579.218 164.725 595.69 164.725 615.994Z" fill="#003DA6"/>
<path d="M164.725 520.223C164.725 540.526 148.252 556.999 127.949 556.999C107.646 556.999 91.1733 540.526 91.1733 520.223C91.1733 499.92 107.646 483.447 127.949 483.447C148.252 483.447 164.725 499.92 164.725 520.223Z" fill="#003DA6"/>
<path d="M255.77 568.109C255.77 588.412 239.298 604.884 218.994 604.884C198.691 604.884 182.219 588.412 182.219 568.109C182.219 547.805 198.691 531.333 218.994 531.333C239.298 531.333 255.77 547.805 255.77 568.109Z" fill="#003DA6"/>
<path d="M255.77 472.338C255.77 492.642 239.298 509.114 218.994 509.114C198.691 509.114 182.219 492.642 182.219 472.338C182.219 452.035 198.691 435.562 218.994 435.562C239.298 435.562 255.77 452.035 255.77 472.338Z" fill="#003DA6"/>
<path d="M73.5515 568.109C73.5515 588.412 57.079 604.884 36.7757 604.884C16.4725 604.884 0 588.412 0 568.109C0 547.805 16.4725 531.333 36.7757 531.333C57.079 531.333 73.5515 547.805 73.5515 568.109Z" fill="#00ABC8"/>
<path d="M73.5515 472.338C73.5515 492.642 57.079 509.114 36.7757 509.114C16.4725 509.114 0 492.642 0 472.338C0 452.035 16.4725 435.562 36.7757 435.562C57.079 435.562 73.5515 452.035 73.5515 472.338Z" fill="#00ABC8"/>
<path d="M346.816 424.453C346.816 444.757 330.343 461.229 310.04 461.229C289.737 461.229 273.264 444.757 273.264 424.453C273.264 404.15 289.737 387.678 310.04 387.678C330.343 387.678 346.816 404.15 346.816 424.453Z" fill="#00ABC8"/>
<path d="M346.816 615.994C346.816 636.297 330.343 652.769 310.04 652.769C289.737 652.769 273.264 636.297 273.264 615.994C273.264 595.69 289.737 579.218 310.04 579.218C330.343 579.218 346.816 595.69 346.816 615.994Z" fill="#003DA6"/>
<path d="M346.816 520.223C346.816 540.526 330.343 556.999 310.04 556.999C289.737 556.999 273.264 540.526 273.264 520.223C273.264 499.92 289.737 483.447 310.04 483.447C330.343 483.447 346.816 499.92 346.816 520.223Z" fill="#003DA6"/>
<path d="M437.989 568.109C437.989 588.412 421.516 604.884 401.213 604.884C380.91 604.884 364.438 588.412 364.438 568.109C364.438 547.805 380.91 531.333 401.213 531.333C421.516 531.333 437.989 547.805 437.989 568.109Z" fill="#003DA6"/>
<path d="M437.989 472.338C437.989 492.642 421.516 509.114 401.213 509.114C380.91 509.114 364.438 492.642 364.438 472.338C364.438 452.035 380.91 435.562 401.213 435.562C421.516 435.562 437.989 452.035 437.989 472.338Z" fill="#003DA6"/>
<path d="M255.77 568.109C255.77 588.412 239.298 604.884 218.994 604.884C198.691 604.884 182.219 588.412 182.219 568.109C182.219 547.805 198.691 531.333 218.994 531.333C239.298 531.333 255.77 547.805 255.77 568.109Z" fill="#00ABC8"/>
<path d="M255.77 472.338C255.77 492.642 239.298 509.114 218.994 509.114C198.691 509.114 182.219 492.642 182.219 472.338C182.219 452.035 198.691 435.562 218.994 435.562C239.298 435.562 255.77 452.035 255.77 472.338Z" fill="#00ABC8"/>
<path d="M529.034 424.453C529.034 444.757 512.562 461.229 492.259 461.229C471.955 461.229 455.483 444.757 455.483 424.453C455.483 404.15 471.955 387.678 492.259 387.678C512.562 387.678 529.034 404.15 529.034 424.453Z" fill="#00ABC8"/>
<path d="M529.034 615.994C529.034 636.297 512.562 652.769 492.259 652.769C471.955 652.769 455.483 636.297 455.483 615.994C455.483 595.69 471.955 579.218 492.259 579.218C512.562 579.218 529.034 595.69 529.034 615.994Z" fill="#003DA6"/>
<path d="M529.034 520.223C529.034 540.526 512.562 556.999 492.259 556.999C471.955 556.999 455.483 540.526 455.483 520.223C455.483 499.92 471.955 483.447 492.259 483.447C512.562 483.447 529.034 499.92 529.034 520.223Z" fill="#003DA6"/>
<path d="M620.208 568.109C620.208 588.412 603.735 604.884 583.432 604.884C563.129 604.884 546.656 588.412 546.656 568.109C546.656 547.805 563.129 531.333 583.432 531.333C603.735 531.333 620.208 547.805 620.208 568.109Z" fill="#003DA6"/>
<path d="M620.208 472.338C620.208 492.642 603.735 509.114 583.432 509.114C563.129 509.114 546.656 492.642 546.656 472.338C546.656 452.035 563.129 435.562 583.432 435.562C603.735 435.562 620.208 452.035 620.208 472.338Z" fill="#003DA6"/>
<path d="M437.989 568.109C437.989 588.412 421.516 604.884 401.213 604.884C380.91 604.884 364.438 588.412 364.438 568.109C364.438 547.805 380.91 531.333 401.213 531.333C421.516 531.333 437.989 547.805 437.989 568.109Z" fill="#00ABC8"/>
<path d="M437.989 472.338C437.989 492.642 421.516 509.114 401.213 509.114C380.91 509.114 364.438 492.642 364.438 472.338C364.438 452.035 380.91 435.562 401.213 435.562C421.516 435.562 437.989 452.035 437.989 472.338Z" fill="#00ABC8"/>
<path d="M711.253 424.453C711.253 444.757 694.781 461.229 674.477 461.229C654.174 461.229 637.702 444.757 637.702 424.453C637.702 404.15 654.174 387.678 674.477 387.678C694.781 387.678 711.253 404.15 711.253 424.453Z" fill="#00ABC8"/>
<path d="M711.253 615.994C711.253 636.297 694.781 652.769 674.477 652.769C654.174 652.769 637.702 636.297 637.702 615.994C637.702 595.69 654.174 579.218 674.477 579.218C694.781 579.218 711.253 595.69 711.253 615.994Z" fill="#003DA6"/>
<path d="M711.253 520.223C711.253 540.526 694.781 556.999 674.477 556.999C654.174 556.999 637.702 540.526 637.702 520.223C637.702 499.92 654.174 483.447 674.477 483.447C694.781 483.447 711.253 499.92 711.253 520.223Z" fill="#003DA6"/>
<path d="M802.299 568.109C802.299 588.412 785.826 604.884 765.523 604.884C745.22 604.884 728.747 588.412 728.747 568.109C728.747 547.805 745.22 531.333 765.523 531.333C785.826 531.333 802.299 547.805 802.299 568.109Z" fill="#003DA6"/>
<path d="M802.299 472.338C802.299 492.642 785.826 509.114 765.523 509.114C745.22 509.114 728.747 492.642 728.747 472.338C728.747 452.035 745.22 435.562 765.523 435.562C785.826 435.562 802.299 452.035 802.299 472.338Z" fill="#003DA6"/>
<path d="M620.208 568.109C620.208 588.412 603.735 604.884 583.432 604.884C563.129 604.884 546.656 588.412 546.656 568.109C546.656 547.805 563.129 531.333 583.432 531.333C603.735 531.333 620.208 547.805 620.208 568.109Z" fill="#00ABC8"/>
<path d="M620.208 472.338C620.208 492.642 603.735 509.114 583.432 509.114C563.129 509.114 546.656 492.642 546.656 472.338C546.656 452.035 563.129 435.562 583.432 435.562C603.735 435.562 620.208 452.035 620.208 472.338Z" fill="#00ABC8"/>
<path d="M893.472 424.453C893.472 444.757 876.999 461.229 856.696 461.229C836.393 461.229 819.92 444.757 819.92 424.453C819.92 404.15 836.393 387.678 856.696 387.678C876.999 387.678 893.472 404.15 893.472 424.453Z" fill="#00ABC8"/>
<path d="M893.472 615.994C893.472 636.297 876.999 652.769 856.696 652.769C836.393 652.769 819.92 636.297 819.92 615.994C819.92 595.69 836.393 579.218 856.696 579.218C876.999 579.218 893.472 595.69 893.472 615.994Z" fill="#003DA6"/>
<path d="M893.472 520.223C893.472 540.526 876.999 556.999 856.696 556.999C836.393 556.999 819.92 540.526 819.92 520.223C819.92 499.92 836.393 483.447 856.696 483.447C876.999 483.447 893.472 499.92 893.472 520.223Z" fill="#003DA6"/>
<path d="M984.517 568.109C984.517 588.412 968.045 604.884 947.742 604.884C927.438 604.884 910.966 588.412 910.966 568.109C910.966 547.805 927.438 531.333 947.742 531.333C968.045 531.333 984.517 547.805 984.517 568.109Z" fill="#003DA6"/>
<path d="M984.517 472.338C984.517 492.642 968.045 509.114 947.742 509.114C927.438 509.114 910.966 492.642 910.966 472.338C910.966 452.035 927.438 435.562 947.742 435.562C968.045 435.562 984.517 452.035 984.517 472.338Z" fill="#003DA6"/>
<path d="M802.299 568.109C802.299 588.412 785.826 604.884 765.523 604.884C745.22 604.884 728.747 588.412 728.747 568.109C728.747 547.805 745.22 531.333 765.523 531.333C785.826 531.333 802.299 547.805 802.299 568.109Z" fill="#00ABC8"/>
<path d="M802.299 472.338C802.299 492.642 785.826 509.114 765.523 509.114C745.22 509.114 728.747 492.642 728.747 472.338C728.747 452.035 745.22 435.562 765.523 435.562C785.826 435.562 802.299 452.035 802.299 472.338Z" fill="#00ABC8"/>
<path d="M1075.56 424.453C1075.56 444.757 1059.09 461.229 1038.79 461.229C1018.48 461.229 1002.01 444.757 1002.01 424.453C1002.01 404.15 1018.48 387.678 1038.79 387.678C1059.09 387.678 1075.56 404.15 1075.56 424.453Z" fill="#00ABC8"/>
<path d="M1075.56 615.994C1075.56 636.297 1059.09 652.769 1038.79 652.769C1018.48 652.769 1002.01 636.297 1002.01 615.994C1002.01 595.69 1018.48 579.218 1038.79 579.218C1059.09 579.218 1075.56 595.69 1075.56 615.994Z" fill="#003DA6"/>
<path d="M1075.56 520.223C1075.56 540.526 1059.09 556.999 1038.79 556.999C1018.48 556.999 1002.01 540.526 1002.01 520.223C1002.01 499.92 1018.48 483.447 1038.79 483.447C1059.09 483.447 1075.56 499.92 1075.56 520.223Z" fill="#003DA6"/>
<path d="M1166.74 568.109C1166.74 588.412 1150.26 604.884 1129.96 604.884C1109.66 604.884 1093.18 588.412 1093.18 568.109C1093.18 547.805 1109.66 531.333 1129.96 531.333C1150.26 531.333 1166.74 547.805 1166.74 568.109Z" fill="#003DA6"/>
<path d="M1166.74 472.338C1166.74 492.642 1150.26 509.114 1129.96 509.114C1109.66 509.114 1093.18 492.642 1093.18 472.338C1093.18 452.035 1109.66 435.562 1129.96 435.562C1150.26 435.562 1166.74 452.035 1166.74 472.338Z" fill="#003DA6"/>
<path d="M984.517 568.109C984.517 588.412 968.045 604.884 947.742 604.884C927.438 604.884 910.966 588.412 910.966 568.109C910.966 547.805 927.438 531.333 947.742 531.333C968.045 531.333 984.517 547.805 984.517 568.109Z" fill="#00ABC8"/>
<path d="M984.517 472.338C984.517 492.642 968.045 509.114 947.742 509.114C927.438 509.114 910.966 492.642 910.966 472.338C910.966 452.035 927.438 435.562 947.742 435.562C968.045 435.562 984.517 452.035 984.517 472.338Z" fill="#00ABC8"/>
<path d="M1257.78 424.453C1257.78 444.757 1241.31 461.229 1221.01 461.229C1200.7 461.229 1184.23 444.757 1184.23 424.453C1184.23 404.15 1200.7 387.678 1221.01 387.678C1241.31 387.678 1257.78 404.15 1257.78 424.453Z" fill="#00ABC8"/>
<path d="M1257.78 615.994C1257.78 636.297 1241.31 652.769 1221.01 652.769C1200.7 652.769 1184.23 636.297 1184.23 615.994C1184.23 595.69 1200.7 579.218 1221.01 579.218C1241.31 579.218 1257.78 595.69 1257.78 615.994Z" fill="#003DA6"/>
<path d="M1257.78 520.223C1257.78 540.526 1241.31 556.999 1221.01 556.999C1200.7 556.999 1184.23 540.526 1184.23 520.223C1184.23 499.92 1200.7 483.447 1221.01 483.447C1241.31 483.447 1257.78 499.92 1257.78 520.223Z" fill="#003DA6"/>
<path d="M1348.95 568.109C1348.95 588.412 1332.48 604.884 1312.18 604.884C1291.88 604.884 1275.4 588.412 1275.4 568.109C1275.4 547.805 1291.88 531.333 1312.18 531.333C1332.48 531.333 1348.95 547.805 1348.95 568.109Z" fill="#003DA6"/>
<path d="M1348.95 472.338C1348.95 492.642 1332.48 509.114 1312.18 509.114C1291.88 509.114 1275.4 492.642 1275.4 472.338C1275.4 452.035 1291.88 435.562 1312.18 435.562C1332.48 435.562 1348.95 452.035 1348.95 472.338Z" fill="#003DA6"/>
<path d="M1166.74 568.109C1166.74 588.412 1150.26 604.884 1129.96 604.884C1109.66 604.884 1093.18 588.412 1093.18 568.109C1093.18 547.805 1109.66 531.333 1129.96 531.333C1150.26 531.333 1166.74 547.805 1166.74 568.109Z" fill="#00ABC8"/>
<path d="M1166.74 472.338C1166.74 492.642 1150.26 509.114 1129.96 509.114C1109.66 509.114 1093.18 492.642 1093.18 472.338C1093.18 452.035 1109.66 435.562 1129.96 435.562C1150.26 435.562 1166.74 452.035 1166.74 472.338Z" fill="#00ABC8"/>
<path d="M1440 424.453C1440 444.757 1423.53 461.229 1403.22 461.229C1382.92 461.229 1366.45 444.757 1366.45 424.453C1366.45 404.15 1382.92 387.678 1403.22 387.678C1423.53 387.678 1440 404.15 1440 424.453Z" fill="#00ABC8"/>
<path d="M1440 615.994C1440 636.297 1423.53 652.769 1403.22 652.769C1382.92 652.769 1366.45 636.297 1366.45 615.994C1366.45 595.69 1382.92 579.218 1403.22 579.218C1423.53 579.218 1440 595.69 1440 615.994Z" fill="#003DA6"/>
<path d="M1440 520.223C1440 540.526 1423.53 556.999 1403.22 556.999C1382.92 556.999 1366.45 540.526 1366.45 520.223C1366.45 499.92 1382.92 483.447 1403.22 483.447C1423.53 483.447 1440 499.92 1440 520.223Z" fill="#003DA6"/>
<path d="M1348.95 568.109C1348.95 588.412 1332.48 604.884 1312.18 604.884C1291.88 604.884 1275.4 588.412 1275.4 568.109C1275.4 547.805 1291.88 531.333 1312.18 531.333C1332.48 531.333 1348.95 547.805 1348.95 568.109Z" fill="#00ABC8"/>
<path d="M1348.95 472.338C1348.95 492.642 1332.48 509.114 1312.18 509.114C1291.88 509.114 1275.4 492.642 1275.4 472.338C1275.4 452.035 1291.88 435.562 1312.18 435.562C1332.48 435.562 1348.95 452.035 1348.95 472.338Z" fill="#00ABC8"/>
<path d="M73.5515 669.114C73.5515 689.417 57.079 705.889 36.7757 705.889C16.4725 705.889 0 689.417 0 669.114C0 648.81 16.4725 632.338 36.7757 632.338C57.079 632.338 73.5515 648.81 73.5515 669.114Z" fill="#00ABC8"/>
<path d="M73.5515 860.655C73.5515 880.958 57.079 897.43 36.7757 897.43C16.4725 897.43 0 880.958 0 860.655C0 840.351 16.4725 823.879 36.7757 823.879C57.079 823.879 73.5515 840.351 73.5515 860.655Z" fill="#003DA6"/>
<path d="M73.5515 764.884C73.5515 785.187 57.079 801.66 36.7757 801.66C16.4725 801.66 0 785.187 0 764.884C0 744.581 16.4725 728.108 36.7757 728.108C57.079 728.108 73.5515 744.581 73.5515 764.884Z" fill="#003DA6"/>
<path d="M164.725 812.769C164.725 833.072 148.252 849.545 127.949 849.545C107.646 849.545 91.1733 833.072 91.1733 812.769C91.1733 792.466 107.646 775.993 127.949 775.993C148.252 775.993 164.725 792.466 164.725 812.769Z" fill="#003DA6"/>
<path d="M164.725 716.999C164.725 737.303 148.252 753.775 127.949 753.775C107.646 753.775 91.1733 737.303 91.1733 716.999C91.1733 696.696 107.646 680.224 127.949 680.224C148.252 680.224 164.725 696.696 164.725 716.999Z" fill="#003DA6"/>
<path d="M255.77 669.114C255.77 689.417 239.298 705.889 218.994 705.889C198.691 705.889 182.219 689.417 182.219 669.114C182.219 648.81 198.691 632.338 218.994 632.338C239.298 632.338 255.77 648.81 255.77 669.114Z" fill="#00ABC8"/>
<path d="M255.77 860.655C255.77 880.958 239.298 897.43 218.994 897.43C198.691 897.43 182.219 880.958 182.219 860.655C182.219 840.351 198.691 823.879 218.994 823.879C239.298 823.879 255.77 840.351 255.77 860.655Z" fill="#003DA6"/>
<path d="M255.77 764.884C255.77 785.187 239.298 801.66 218.994 801.66C198.691 801.66 182.219 785.187 182.219 764.884C182.219 744.581 198.691 728.108 218.994 728.108C239.298 728.108 255.77 744.581 255.77 764.884Z" fill="#003DA6"/>
<path d="M346.816 812.769C346.816 833.072 330.343 849.545 310.04 849.545C289.737 849.545 273.264 833.072 273.264 812.769C273.264 792.466 289.737 775.993 310.04 775.993C330.343 775.993 346.816 792.466 346.816 812.769Z" fill="#003DA6"/>
<path d="M346.816 716.999C346.816 737.303 330.343 753.775 310.04 753.775C289.737 753.775 273.264 737.303 273.264 716.999C273.264 696.696 289.737 680.224 310.04 680.224C330.343 680.224 346.816 696.696 346.816 716.999Z" fill="#003DA6"/>
<path d="M164.725 812.769C164.725 833.072 148.252 849.545 127.949 849.545C107.646 849.545 91.1733 833.072 91.1733 812.769C91.1733 792.466 107.646 775.993 127.949 775.993C148.252 775.993 164.725 792.466 164.725 812.769Z" fill="#00ABC8"/>
<path d="M164.725 716.999C164.725 737.303 148.252 753.775 127.949 753.775C107.646 753.775 91.1733 737.303 91.1733 716.999C91.1733 696.696 107.646 680.224 127.949 680.224C148.252 680.224 164.725 696.696 164.725 716.999Z" fill="#00ABC8"/>
<path d="M437.989 669.114C437.989 689.417 421.516 705.889 401.213 705.889C380.91 705.889 364.438 689.417 364.438 669.114C364.438 648.81 380.91 632.338 401.213 632.338C421.516 632.338 437.989 648.81 437.989 669.114Z" fill="#00ABC8"/>
<path d="M437.989 860.655C437.989 880.958 421.516 897.43 401.213 897.43C380.91 897.43 364.438 880.958 364.438 860.655C364.438 840.351 380.91 823.879 401.213 823.879C421.516 823.879 437.989 840.351 437.989 860.655Z" fill="#003DA6"/>
<path d="M437.989 764.884C437.989 785.187 421.516 801.66 401.213 801.66C380.91 801.66 364.438 785.187 364.438 764.884C364.438 744.581 380.91 728.108 401.213 728.108C421.516 728.108 437.989 744.581 437.989 764.884Z" fill="#003DA6"/>
<path d="M529.034 812.769C529.034 833.072 512.562 849.545 492.259 849.545C471.955 849.545 455.483 833.072 455.483 812.769C455.483 792.466 471.955 775.993 492.259 775.993C512.562 775.993 529.034 792.466 529.034 812.769Z" fill="#003DA6"/>
<path d="M529.034 716.999C529.034 737.303 512.562 753.775 492.259 753.775C471.955 753.775 455.483 737.303 455.483 716.999C455.483 696.696 471.955 680.224 492.259 680.224C512.562 680.224 529.034 696.696 529.034 716.999Z" fill="#003DA6"/>
<path d="M346.816 812.769C346.816 833.072 330.343 849.545 310.04 849.545C289.737 849.545 273.264 833.072 273.264 812.769C273.264 792.466 289.737 775.993 310.04 775.993C330.343 775.993 346.816 792.466 346.816 812.769Z" fill="#00ABC8"/>
<path d="M346.816 716.999C346.816 737.303 330.343 753.775 310.04 753.775C289.737 753.775 273.264 737.303 273.264 716.999C273.264 696.696 289.737 680.224 310.04 680.224C330.343 680.224 346.816 696.696 346.816 716.999Z" fill="#00ABC8"/>
<path d="M620.208 669.114C620.208 689.417 603.735 705.889 583.432 705.889C563.129 705.889 546.656 689.417 546.656 669.114C546.656 648.81 563.129 632.338 583.432 632.338C603.735 632.338 620.208 648.81 620.208 669.114Z" fill="#00ABC8"/>
<path d="M620.208 860.655C620.208 880.958 603.735 897.43 583.432 897.43C563.129 897.43 546.656 880.958 546.656 860.655C546.656 840.351 563.129 823.879 583.432 823.879C603.735 823.879 620.208 840.351 620.208 860.655Z" fill="#003DA6"/>
<path d="M620.208 764.884C620.208 785.187 603.735 801.66 583.432 801.66C563.129 801.66 546.656 785.187 546.656 764.884C546.656 744.581 563.129 728.108 583.432 728.108C603.735 728.108 620.208 744.581 620.208 764.884Z" fill="#003DA6"/>
<path d="M711.253 812.769C711.253 833.072 694.781 849.545 674.477 849.545C654.174 849.545 637.702 833.072 637.702 812.769C637.702 792.466 654.174 775.993 674.477 775.993C694.781 775.993 711.253 792.466 711.253 812.769Z" fill="#003DA6"/>
<path d="M711.253 716.999C711.253 737.303 694.781 753.775 674.477 753.775C654.174 753.775 637.702 737.303 637.702 716.999C637.702 696.696 654.174 680.224 674.477 680.224C694.781 680.224 711.253 696.696 711.253 716.999Z" fill="#003DA6"/>
<path d="M529.034 812.769C529.034 833.072 512.562 849.545 492.259 849.545C471.955 849.545 455.483 833.072 455.483 812.769C455.483 792.466 471.955 775.993 492.259 775.993C512.562 775.993 529.034 792.466 529.034 812.769Z" fill="#00ABC8"/>
<path d="M529.034 716.999C529.034 737.303 512.562 753.775 492.259 753.775C471.955 753.775 455.483 737.303 455.483 716.999C455.483 696.696 471.955 680.224 492.259 680.224C512.562 680.224 529.034 696.696 529.034 716.999Z" fill="#00ABC8"/>
<path d="M802.299 669.114C802.299 689.417 785.826 705.889 765.523 705.889C745.22 705.889 728.747 689.417 728.747 669.114C728.747 648.81 745.22 632.338 765.523 632.338C785.826 632.338 802.299 648.81 802.299 669.114Z" fill="#00ABC8"/>
<path d="M802.299 860.655C802.299 880.958 785.826 897.43 765.523 897.43C745.22 897.43 728.747 880.958 728.747 860.655C728.747 840.351 745.22 823.879 765.523 823.879C785.826 823.879 802.299 840.351 802.299 860.655Z" fill="#003DA6"/>
<path d="M802.299 764.884C802.299 785.187 785.826 801.66 765.523 801.66C745.22 801.66 728.747 785.187 728.747 764.884C728.747 744.581 745.22 728.108 765.523 728.108C785.826 728.108 802.299 744.581 802.299 764.884Z" fill="#003DA6"/>
<path d="M893.472 812.769C893.472 833.072 876.999 849.545 856.696 849.545C836.393 849.545 819.92 833.072 819.92 812.769C819.92 792.466 836.393 775.993 856.696 775.993C876.999 775.993 893.472 792.466 893.472 812.769Z" fill="#003DA6"/>
<path d="M893.472 716.999C893.472 737.303 876.999 753.775 856.696 753.775C836.393 753.775 819.92 737.303 819.92 716.999C819.92 696.696 836.393 680.224 856.696 680.224C876.999 680.224 893.472 696.696 893.472 716.999Z" fill="#003DA6"/>
<path d="M711.253 812.769C711.253 833.072 694.781 849.545 674.477 849.545C654.174 849.545 637.702 833.072 637.702 812.769C637.702 792.466 654.174 775.993 674.477 775.993C694.781 775.993 711.253 792.466 711.253 812.769Z" fill="#00ABC8"/>
<path d="M711.253 716.999C711.253 737.303 694.781 753.775 674.477 753.775C654.174 753.775 637.702 737.303 637.702 716.999C637.702 696.696 654.174 680.224 674.477 680.224C694.781 680.224 711.253 696.696 711.253 716.999Z" fill="#00ABC8"/>
<path d="M984.517 669.114C984.517 689.417 968.045 705.889 947.742 705.889C927.438 705.889 910.966 689.417 910.966 669.114C910.966 648.81 927.438 632.338 947.742 632.338C968.045 632.338 984.517 648.81 984.517 669.114Z" fill="#00ABC8"/>
<path d="M984.517 860.655C984.517 880.958 968.045 897.43 947.742 897.43C927.438 897.43 910.966 880.958 910.966 860.655C910.966 840.351 927.438 823.879 947.742 823.879C968.045 823.879 984.517 840.351 984.517 860.655Z" fill="#003DA6"/>
<path d="M984.517 764.884C984.517 785.187 968.045 801.66 947.742 801.66C927.438 801.66 910.966 785.187 910.966 764.884C910.966 744.581 927.438 728.108 947.742 728.108C968.045 728.108 984.517 744.581 984.517 764.884Z" fill="#003DA6"/>
<path d="M1075.56 812.769C1075.56 833.072 1059.09 849.545 1038.79 849.545C1018.48 849.545 1002.01 833.072 1002.01 812.769C1002.01 792.466 1018.48 775.993 1038.79 775.993C1059.09 775.993 1075.56 792.466 1075.56 812.769Z" fill="#003DA6"/>
<path d="M1075.56 716.999C1075.56 737.303 1059.09 753.775 1038.79 753.775C1018.48 753.775 1002.01 737.303 1002.01 716.999C1002.01 696.696 1018.48 680.224 1038.79 680.224C1059.09 680.224 1075.56 696.696 1075.56 716.999Z" fill="#003DA6"/>
<path d="M893.472 812.769C893.472 833.072 876.999 849.545 856.696 849.545C836.393 849.545 819.92 833.072 819.92 812.769C819.92 792.466 836.393 775.993 856.696 775.993C876.999 775.993 893.472 792.466 893.472 812.769Z" fill="#00ABC8"/>
<path d="M893.472 716.999C893.472 737.303 876.999 753.775 856.696 753.775C836.393 753.775 819.92 737.303 819.92 716.999C819.92 696.696 836.393 680.224 856.696 680.224C876.999 680.224 893.472 696.696 893.472 716.999Z" fill="#00ABC8"/>
<path d="M1166.74 669.114C1166.74 689.417 1150.26 705.889 1129.96 705.889C1109.66 705.889 1093.18 689.417 1093.18 669.114C1093.18 648.81 1109.66 632.338 1129.96 632.338C1150.26 632.338 1166.74 648.81 1166.74 669.114Z" fill="#00ABC8"/>
<path d="M1166.74 860.655C1166.74 880.958 1150.26 897.43 1129.96 897.43C1109.66 897.43 1093.18 880.958 1093.18 860.655C1093.18 840.351 1109.66 823.879 1129.96 823.879C1150.26 823.879 1166.74 840.351 1166.74 860.655Z" fill="#003DA6"/>
<path d="M1166.74 764.884C1166.74 785.187 1150.26 801.66 1129.96 801.66C1109.66 801.66 1093.18 785.187 1093.18 764.884C1093.18 744.581 1109.66 728.108 1129.96 728.108C1150.26 728.108 1166.74 744.581 1166.74 764.884Z" fill="#003DA6"/>
<path d="M1257.78 812.769C1257.78 833.072 1241.31 849.545 1221.01 849.545C1200.7 849.545 1184.23 833.072 1184.23 812.769C1184.23 792.466 1200.7 775.993 1221.01 775.993C1241.31 775.993 1257.78 792.466 1257.78 812.769Z" fill="#003DA6"/>
<path d="M1257.78 716.999C1257.78 737.303 1241.31 753.775 1221.01 753.775C1200.7 753.775 1184.23 737.303 1184.23 716.999C1184.23 696.696 1200.7 680.224 1221.01 680.224C1241.31 680.224 1257.78 696.696 1257.78 716.999Z" fill="#003DA6"/>
<path d="M1075.56 812.769C1075.56 833.072 1059.09 849.545 1038.79 849.545C1018.48 849.545 1002.01 833.072 1002.01 812.769C1002.01 792.466 1018.48 775.993 1038.79 775.993C1059.09 775.993 1075.56 792.466 1075.56 812.769Z" fill="#00ABC8"/>
<path d="M1075.56 716.999C1075.56 737.303 1059.09 753.775 1038.79 753.775C1018.48 753.775 1002.01 737.303 1002.01 716.999C1002.01 696.696 1018.48 680.224 1038.79 680.224C1059.09 680.224 1075.56 696.696 1075.56 716.999Z" fill="#00ABC8"/>
<path d="M1348.95 669.114C1348.95 689.417 1332.48 705.889 1312.18 705.889C1291.88 705.889 1275.4 689.417 1275.4 669.114C1275.4 648.81 1291.88 632.338 1312.18 632.338C1332.48 632.338 1348.95 648.81 1348.95 669.114Z" fill="#00ABC8"/>
<path d="M1348.95 860.655C1348.95 880.958 1332.48 897.43 1312.18 897.43C1291.88 897.43 1275.4 880.958 1275.4 860.655C1275.4 840.351 1291.88 823.879 1312.18 823.879C1332.48 823.879 1348.95 840.351 1348.95 860.655Z" fill="#003DA6"/>
<path d="M1348.95 764.884C1348.95 785.187 1332.48 801.66 1312.18 801.66C1291.88 801.66 1275.4 785.187 1275.4 764.884C1275.4 744.581 1291.88 728.108 1312.18 728.108C1332.48 728.108 1348.95 744.581 1348.95 764.884Z" fill="#003DA6"/>
<path d="M1440 812.769C1440 833.072 1423.53 849.545 1403.22 849.545C1382.92 849.545 1366.45 833.072 1366.45 812.769C1366.45 792.466 1382.92 775.993 1403.22 775.993C1423.53 775.993 1440 792.466 1440 812.769Z" fill="#003DA6"/>
<path d="M1440 716.999C1440 737.303 1423.53 753.775 1403.22 753.775C1382.92 753.775 1366.45 737.303 1366.45 716.999C1366.45 696.696 1382.92 680.224 1403.22 680.224C1423.53 680.224 1440 696.696 1440 716.999Z" fill="#003DA6"/>
<path d="M1257.78 812.769C1257.78 833.072 1241.31 849.545 1221.01 849.545C1200.7 849.545 1184.23 833.072 1184.23 812.769C1184.23 792.466 1200.7 775.993 1221.01 775.993C1241.31 775.993 1257.78 792.466 1257.78 812.769Z" fill="#00ABC8"/>
<path d="M1257.78 716.999C1257.78 737.303 1241.31 753.775 1221.01 753.775C1200.7 753.775 1184.23 737.303 1184.23 716.999C1184.23 696.696 1200.7 680.224 1221.01 680.224C1241.31 680.224 1257.78 696.696 1257.78 716.999Z" fill="#00ABC8"/>
<path d="M1440 812.769C1440 833.072 1423.53 849.545 1403.22 849.545C1382.92 849.545 1366.45 833.072 1366.45 812.769C1366.45 792.466 1382.92 775.993 1403.22 775.993C1423.53 775.993 1440 792.466 1440 812.769Z" fill="#00ABC8"/>
<path d="M1440 716.999C1440 737.303 1423.53 753.775 1403.22 753.775C1382.92 753.775 1366.45 737.303 1366.45 716.999C1366.45 696.696 1382.92 680.224 1403.22 680.224C1423.53 680.224 1440 696.696 1440 716.999Z" fill="#00ABC8"/>
<path d="M73.5515 1051.56C73.5515 1071.86 57.079 1088.33 36.7757 1088.33C16.4725 1088.33 0 1071.86 0 1051.56C0 1031.25 16.4725 1014.78 36.7757 1014.78C57.079 1014.78 73.5515 1031.25 73.5515 1051.56Z" fill="#003DA6"/>
<path d="M73.5515 955.786C73.5515 976.09 57.079 992.562 36.7757 992.562C16.4725 992.562 0 976.09 0 955.786C0 935.483 16.4725 919.011 36.7757 919.011C57.079 919.011 73.5515 935.483 73.5515 955.786Z" fill="#003DA6"/>
<path d="M164.725 907.901C164.725 928.204 148.252 944.677 127.949 944.677C107.646 944.677 91.1733 928.204 91.1733 907.901C91.1733 887.597 107.646 871.125 127.949 871.125C148.252 871.125 164.725 887.597 164.725 907.901Z" fill="#00ABC8"/>
<path d="M164.725 1099.44C164.725 1119.74 148.252 1136.22 127.949 1136.22C107.646 1136.22 91.1733 1119.74 91.1733 1099.44C91.1733 1079.14 107.646 1062.67 127.949 1062.67C148.252 1062.67 164.725 1079.14 164.725 1099.44Z" fill="#003DA6"/>
<path d="M164.725 1003.67C164.725 1023.97 148.252 1040.45 127.949 1040.45C107.646 1040.45 91.1733 1023.97 91.1733 1003.67C91.1733 983.368 107.646 966.896 127.949 966.896C148.252 966.896 164.725 983.368 164.725 1003.67Z" fill="#003DA6"/>
<path d="M255.77 1051.56C255.77 1071.86 239.298 1088.33 218.994 1088.33C198.691 1088.33 182.219 1071.86 182.219 1051.56C182.219 1031.25 198.691 1014.78 218.994 1014.78C239.298 1014.78 255.77 1031.25 255.77 1051.56Z" fill="#003DA6"/>
<path d="M255.77 955.786C255.77 976.09 239.298 992.562 218.994 992.562C198.691 992.562 182.219 976.09 182.219 955.786C182.219 935.483 198.691 919.011 218.994 919.011C239.298 919.011 255.77 935.483 255.77 955.786Z" fill="#003DA6"/>
<path d="M73.5515 1051.56C73.5515 1071.86 57.079 1088.33 36.7757 1088.33C16.4725 1088.33 0 1071.86 0 1051.56C0 1031.25 16.4725 1014.78 36.7757 1014.78C57.079 1014.78 73.5515 1031.25 73.5515 1051.56Z" fill="#00ABC8"/>
<path d="M73.5515 955.786C73.5515 976.09 57.079 992.562 36.7757 992.562C16.4725 992.562 0 976.09 0 955.786C0 935.483 16.4725 919.011 36.7757 919.011C57.079 919.011 73.5515 935.483 73.5515 955.786Z" fill="#00ABC8"/>
<path d="M346.816 907.901C346.816 928.204 330.343 944.677 310.04 944.677C289.737 944.677 273.264 928.204 273.264 907.901C273.264 887.597 289.737 871.125 310.04 871.125C330.343 871.125 346.816 887.597 346.816 907.901Z" fill="#00ABC8"/>
<path d="M346.816 1099.44C346.816 1119.74 330.343 1136.22 310.04 1136.22C289.737 1136.22 273.264 1119.74 273.264 1099.44C273.264 1079.14 289.737 1062.67 310.04 1062.67C330.343 1062.67 346.816 1079.14 346.816 1099.44Z" fill="#003DA6"/>
<path d="M346.816 1003.67C346.816 1023.97 330.343 1040.45 310.04 1040.45C289.737 1040.45 273.264 1023.97 273.264 1003.67C273.264 983.368 289.737 966.896 310.04 966.896C330.343 966.896 346.816 983.368 346.816 1003.67Z" fill="#003DA6"/>
<path d="M437.989 1051.56C437.989 1071.86 421.516 1088.33 401.213 1088.33C380.91 1088.33 364.438 1071.86 364.438 1051.56C364.438 1031.25 380.91 1014.78 401.213 1014.78C421.516 1014.78 437.989 1031.25 437.989 1051.56Z" fill="#003DA6"/>
<path d="M437.989 955.786C437.989 976.09 421.516 992.562 401.213 992.562C380.91 992.562 364.438 976.09 364.438 955.786C364.438 935.483 380.91 919.011 401.213 919.011C421.516 919.011 437.989 935.483 437.989 955.786Z" fill="#003DA6"/>
<path d="M255.77 1051.56C255.77 1071.86 239.298 1088.33 218.994 1088.33C198.691 1088.33 182.219 1071.86 182.219 1051.56C182.219 1031.25 198.691 1014.78 218.994 1014.78C239.298 1014.78 255.77 1031.25 255.77 1051.56Z" fill="#00ABC8"/>
<path d="M255.77 955.786C255.77 976.09 239.298 992.562 218.994 992.562C198.691 992.562 182.219 976.09 182.219 955.786C182.219 935.483 198.691 919.011 218.994 919.011C239.298 919.011 255.77 935.483 255.77 955.786Z" fill="#00ABC8"/>
<path d="M529.034 907.901C529.034 928.204 512.562 944.677 492.259 944.677C471.955 944.677 455.483 928.204 455.483 907.901C455.483 887.597 471.955 871.125 492.259 871.125C512.562 871.125 529.034 887.597 529.034 907.901Z" fill="#00ABC8"/>
<path d="M529.034 1099.44C529.034 1119.74 512.562 1136.22 492.259 1136.22C471.955 1136.22 455.483 1119.74 455.483 1099.44C455.483 1079.14 471.955 1062.67 492.259 1062.67C512.562 1062.67 529.034 1079.14 529.034 1099.44Z" fill="#003DA6"/>
<path d="M529.034 1003.67C529.034 1023.97 512.562 1040.45 492.259 1040.45C471.955 1040.45 455.483 1023.97 455.483 1003.67C455.483 983.368 471.955 966.896 492.259 966.896C512.562 966.896 529.034 983.368 529.034 1003.67Z" fill="#003DA6"/>
<path d="M620.208 1051.56C620.208 1071.86 603.735 1088.33 583.432 1088.33C563.129 1088.33 546.656 1071.86 546.656 1051.56C546.656 1031.25 563.129 1014.78 583.432 1014.78C603.735 1014.78 620.208 1031.25 620.208 1051.56Z" fill="#003DA6"/>
<path d="M620.208 955.786C620.208 976.09 603.735 992.562 583.432 992.562C563.129 992.562 546.656 976.09 546.656 955.786C546.656 935.483 563.129 919.011 583.432 919.011C603.735 919.011 620.208 935.483 620.208 955.786Z" fill="#003DA6"/>
<path d="M437.989 1051.56C437.989 1071.86 421.516 1088.33 401.213 1088.33C380.91 1088.33 364.438 1071.86 364.438 1051.56C364.438 1031.25 380.91 1014.78 401.213 1014.78C421.516 1014.78 437.989 1031.25 437.989 1051.56Z" fill="#00ABC8"/>
<path d="M437.989 955.786C437.989 976.09 421.516 992.562 401.213 992.562C380.91 992.562 364.438 976.09 364.438 955.786C364.438 935.483 380.91 919.011 401.213 919.011C421.516 919.011 437.989 935.483 437.989 955.786Z" fill="#00ABC8"/>
<path d="M711.253 907.901C711.253 928.204 694.781 944.677 674.477 944.677C654.174 944.677 637.702 928.204 637.702 907.901C637.702 887.597 654.174 871.125 674.477 871.125C694.781 871.125 711.253 887.597 711.253 907.901Z" fill="#00ABC8"/>
<path d="M711.253 1099.44C711.253 1119.74 694.781 1136.22 674.477 1136.22C654.174 1136.22 637.702 1119.74 637.702 1099.44C637.702 1079.14 654.174 1062.67 674.477 1062.67C694.781 1062.67 711.253 1079.14 711.253 1099.44Z" fill="#003DA6"/>
<path d="M711.253 1003.67C711.253 1023.97 694.781 1040.45 674.477 1040.45C654.174 1040.45 637.702 1023.97 637.702 1003.67C637.702 983.368 654.174 966.896 674.477 966.896C694.781 966.896 711.253 983.368 711.253 1003.67Z" fill="#003DA6"/>
<path d="M802.299 1051.56C802.299 1071.86 785.826 1088.33 765.523 1088.33C745.22 1088.33 728.747 1071.86 728.747 1051.56C728.747 1031.25 745.22 1014.78 765.523 1014.78C785.826 1014.78 802.299 1031.25 802.299 1051.56Z" fill="#003DA6"/>
<path d="M802.299 955.786C802.299 976.09 785.826 992.562 765.523 992.562C745.22 992.562 728.747 976.09 728.747 955.786C728.747 935.483 745.22 919.011 765.523 919.011C785.826 919.011 802.299 935.483 802.299 955.786Z" fill="#003DA6"/>
<path d="M620.208 1051.56C620.208 1071.86 603.735 1088.33 583.432 1088.33C563.129 1088.33 546.656 1071.86 546.656 1051.56C546.656 1031.25 563.129 1014.78 583.432 1014.78C603.735 1014.78 620.208 1031.25 620.208 1051.56Z" fill="#00ABC8"/>
<path d="M620.208 955.786C620.208 976.09 603.735 992.562 583.432 992.562C563.129 992.562 546.656 976.09 546.656 955.786C546.656 935.483 563.129 919.011 583.432 919.011C603.735 919.011 620.208 935.483 620.208 955.786Z" fill="#00ABC8"/>
<path d="M893.472 907.901C893.472 928.204 876.999 944.677 856.696 944.677C836.393 944.677 819.92 928.204 819.92 907.901C819.92 887.597 836.393 871.125 856.696 871.125C876.999 871.125 893.472 887.597 893.472 907.901Z" fill="#00ABC8"/>
<path d="M893.472 1099.44C893.472 1119.74 876.999 1136.22 856.696 1136.22C836.393 1136.22 819.92 1119.74 819.92 1099.44C819.92 1079.14 836.393 1062.67 856.696 1062.67C876.999 1062.67 893.472 1079.14 893.472 1099.44Z" fill="#003DA6"/>
<path d="M893.472 1003.67C893.472 1023.97 876.999 1040.45 856.696 1040.45C836.393 1040.45 819.92 1023.97 819.92 1003.67C819.92 983.368 836.393 966.896 856.696 966.896C876.999 966.896 893.472 983.368 893.472 1003.67Z" fill="#003DA6"/>
<path d="M984.517 1051.56C984.517 1071.86 968.045 1088.33 947.742 1088.33C927.438 1088.33 910.966 1071.86 910.966 1051.56C910.966 1031.25 927.438 1014.78 947.742 1014.78C968.045 1014.78 984.517 1031.25 984.517 1051.56Z" fill="#003DA6"/>
<path d="M984.517 955.786C984.517 976.09 968.045 992.562 947.742 992.562C927.438 992.562 910.966 976.09 910.966 955.786C910.966 935.483 927.438 919.011 947.742 919.011C968.045 919.011 984.517 935.483 984.517 955.786Z" fill="#003DA6"/>
<path d="M802.299 1051.56C802.299 1071.86 785.826 1088.33 765.523 1088.33C745.22 1088.33 728.747 1071.86 728.747 1051.56C728.747 1031.25 745.22 1014.78 765.523 1014.78C785.826 1014.78 802.299 1031.25 802.299 1051.56Z" fill="#00ABC8"/>
<path d="M802.299 955.786C802.299 976.09 785.826 992.562 765.523 992.562C745.22 992.562 728.747 976.09 728.747 955.786C728.747 935.483 745.22 919.011 765.523 919.011C785.826 919.011 802.299 935.483 802.299 955.786Z" fill="#00ABC8"/>
<path d="M1075.56 907.901C1075.56 928.204 1059.09 944.677 1038.79 944.677C1018.48 944.677 1002.01 928.204 1002.01 907.901C1002.01 887.597 1018.48 871.125 1038.79 871.125C1059.09 871.125 1075.56 887.597 1075.56 907.901Z" fill="#00ABC8"/>
<path d="M1075.56 1099.44C1075.56 1119.74 1059.09 1136.22 1038.79 1136.22C1018.48 1136.22 1002.01 1119.74 1002.01 1099.44C1002.01 1079.14 1018.48 1062.67 1038.79 1062.67C1059.09 1062.67 1075.56 1079.14 1075.56 1099.44Z" fill="#003DA6"/>
<path d="M1075.56 1003.67C1075.56 1023.97 1059.09 1040.45 1038.79 1040.45C1018.48 1040.45 1002.01 1023.97 1002.01 1003.67C1002.01 983.368 1018.48 966.896 1038.79 966.896C1059.09 966.896 1075.56 983.368 1075.56 1003.67Z" fill="#003DA6"/>
<path d="M1166.74 1051.56C1166.74 1071.86 1150.26 1088.33 1129.96 1088.33C1109.66 1088.33 1093.18 1071.86 1093.18 1051.56C1093.18 1031.25 1109.66 1014.78 1129.96 1014.78C1150.26 1014.78 1166.74 1031.25 1166.74 1051.56Z" fill="#003DA6"/>
<path d="M1166.74 955.786C1166.74 976.09 1150.26 992.562 1129.96 992.562C1109.66 992.562 1093.18 976.09 1093.18 955.786C1093.18 935.483 1109.66 919.011 1129.96 919.011C1150.26 919.011 1166.74 935.483 1166.74 955.786Z" fill="#003DA6"/>
<path d="M984.517 1051.56C984.517 1071.86 968.045 1088.33 947.742 1088.33C927.438 1088.33 910.966 1071.86 910.966 1051.56C910.966 1031.25 927.438 1014.78 947.742 1014.78C968.045 1014.78 984.517 1031.25 984.517 1051.56Z" fill="#00ABC8"/>
<path d="M984.517 955.786C984.517 976.09 968.045 992.562 947.742 992.562C927.438 992.562 910.966 976.09 910.966 955.786C910.966 935.483 927.438 919.011 947.742 919.011C968.045 919.011 984.517 935.483 984.517 955.786Z" fill="#00ABC8"/>
<path d="M1257.78 907.901C1257.78 928.204 1241.31 944.677 1221.01 944.677C1200.7 944.677 1184.23 928.204 1184.23 907.901C1184.23 887.597 1200.7 871.125 1221.01 871.125C1241.31 871.125 1257.78 887.597 1257.78 907.901Z" fill="#00ABC8"/>
<path d="M1257.78 1099.44C1257.78 1119.74 1241.31 1136.22 1221.01 1136.22C1200.7 1136.22 1184.23 1119.74 1184.23 1099.44C1184.23 1079.14 1200.7 1062.67 1221.01 1062.67C1241.31 1062.67 1257.78 1079.14 1257.78 1099.44Z" fill="#003DA6"/>
<path d="M1257.78 1003.67C1257.78 1023.97 1241.31 1040.45 1221.01 1040.45C1200.7 1040.45 1184.23 1023.97 1184.23 1003.67C1184.23 983.368 1200.7 966.896 1221.01 966.896C1241.31 966.896 1257.78 983.368 1257.78 1003.67Z" fill="#003DA6"/>
<path d="M1348.95 1051.56C1348.95 1071.86 1332.48 1088.33 1312.18 1088.33C1291.88 1088.33 1275.4 1071.86 1275.4 1051.56C1275.4 1031.25 1291.88 1014.78 1312.18 1014.78C1332.48 1014.78 1348.95 1031.25 1348.95 1051.56Z" fill="#003DA6"/>
<path d="M1348.95 955.786C1348.95 976.09 1332.48 992.562 1312.18 992.562C1291.88 992.562 1275.4 976.09 1275.4 955.786C1275.4 935.483 1291.88 919.011 1312.18 919.011C1332.48 919.011 1348.95 935.483 1348.95 955.786Z" fill="#003DA6"/>
<path d="M1166.74 1051.56C1166.74 1071.86 1150.26 1088.33 1129.96 1088.33C1109.66 1088.33 1093.18 1071.86 1093.18 1051.56C1093.18 1031.25 1109.66 1014.78 1129.96 1014.78C1150.26 1014.78 1166.74 1031.25 1166.74 1051.56Z" fill="#00ABC8"/>
<path d="M1166.74 955.786C1166.74 976.09 1150.26 992.562 1129.96 992.562C1109.66 992.562 1093.18 976.09 1093.18 955.786C1093.18 935.483 1109.66 919.011 1129.96 919.011C1150.26 919.011 1166.74 935.483 1166.74 955.786Z" fill="#00ABC8"/>
<path d="M1440 907.901C1440 928.204 1423.53 944.677 1403.22 944.677C1382.92 944.677 1366.45 928.204 1366.45 907.901C1366.45 887.597 1382.92 871.125 1403.22 871.125C1423.53 871.125 1440 887.597 1440 907.901Z" fill="#00ABC8"/>
<path d="M1440 1099.44C1440 1119.74 1423.53 1136.22 1403.22 1136.22C1382.92 1136.22 1366.45 1119.74 1366.45 1099.44C1366.45 1079.14 1382.92 1062.67 1403.22 1062.67C1423.53 1062.67 1440 1079.14 1440 1099.44Z" fill="#003DA6"/>
<path d="M1440 1003.67C1440 1023.97 1423.53 1040.45 1403.22 1040.45C1382.92 1040.45 1366.45 1023.97 1366.45 1003.67C1366.45 983.368 1382.92 966.896 1403.22 966.896C1423.53 966.896 1440 983.368 1440 1003.67Z" fill="#003DA6"/>
<path d="M1348.95 1051.56C1348.95 1071.86 1332.48 1088.33 1312.18 1088.33C1291.88 1088.33 1275.4 1071.86 1275.4 1051.56C1275.4 1031.25 1291.88 1014.78 1312.18 1014.78C1332.48 1014.78 1348.95 1031.25 1348.95 1051.56Z" fill="#00ABC8"/>
<path d="M1348.95 955.786C1348.95 976.09 1332.48 992.562 1312.18 992.562C1291.88 992.562 1275.4 976.09 1275.4 955.786C1275.4 935.483 1291.88 919.011 1312.18 919.011C1332.48 919.011 1348.95 935.483 1348.95 955.786Z" fill="#00ABC8"/>
<path d="M73.5515 1152.56C73.5515 1172.87 57.079 1189.34 36.7757 1189.34C16.4725 1189.34 0 1172.87 0 1152.56C0 1132.26 16.4725 1115.79 36.7757 1115.79C57.079 1115.79 73.5515 1132.26 73.5515 1152.56Z" fill="#00ABC8"/>
<path d="M73.5515 1344.1C73.5515 1364.41 57.079 1380.88 36.7757 1380.88C16.4725 1380.88 0 1364.41 0 1344.1C0 1323.8 16.4725 1307.33 36.7757 1307.33C57.079 1307.33 73.5515 1323.8 73.5515 1344.1Z" fill="#003DA6"/>
<path d="M73.5515 1248.33C73.5515 1268.63 57.079 1285.11 36.7757 1285.11C16.4725 1285.11 0 1268.63 0 1248.33C0 1228.03 16.4725 1211.56 36.7757 1211.56C57.079 1211.56 73.5515 1228.03 73.5515 1248.33Z" fill="#003DA6"/>
<path d="M164.725 1296.22C164.725 1316.52 148.252 1332.99 127.949 1332.99C107.646 1332.99 91.1733 1316.52 91.1733 1296.22C91.1733 1275.91 107.646 1259.44 127.949 1259.44C148.252 1259.44 164.725 1275.91 164.725 1296.22Z" fill="#003DA6"/>
<path d="M164.725 1200.45C164.725 1220.75 148.252 1237.22 127.949 1237.22C107.646 1237.22 91.1733 1220.75 91.1733 1200.45C91.1733 1180.14 107.646 1163.67 127.949 1163.67C148.252 1163.67 164.725 1180.14 164.725 1200.45Z" fill="#003DA6"/>
<path d="M255.77 1152.56C255.77 1172.87 239.298 1189.34 218.994 1189.34C198.691 1189.34 182.219 1172.87 182.219 1152.56C182.219 1132.26 198.691 1115.79 218.994 1115.79C239.298 1115.79 255.77 1132.26 255.77 1152.56Z" fill="#00ABC8"/>
<path d="M255.77 1344.1C255.77 1364.41 239.298 1380.88 218.994 1380.88C198.691 1380.88 182.219 1364.41 182.219 1344.1C182.219 1323.8 198.691 1307.33 218.994 1307.33C239.298 1307.33 255.77 1323.8 255.77 1344.1Z" fill="#003DA6"/>
<path d="M255.77 1248.33C255.77 1268.63 239.298 1285.11 218.994 1285.11C198.691 1285.11 182.219 1268.63 182.219 1248.33C182.219 1228.03 198.691 1211.56 218.994 1211.56C239.298 1211.56 255.77 1228.03 255.77 1248.33Z" fill="#003DA6"/>
<path d="M346.816 1296.22C346.816 1316.52 330.343 1332.99 310.04 1332.99C289.737 1332.99 273.264 1316.52 273.264 1296.22C273.264 1275.91 289.737 1259.44 310.04 1259.44C330.343 1259.44 346.816 1275.91 346.816 1296.22Z" fill="#003DA6"/>
<path d="M346.816 1200.45C346.816 1220.75 330.343 1237.22 310.04 1237.22C289.737 1237.22 273.264 1220.75 273.264 1200.45C273.264 1180.14 289.737 1163.67 310.04 1163.67C330.343 1163.67 346.816 1180.14 346.816 1200.45Z" fill="#003DA6"/>
<path d="M164.725 1296.22C164.725 1316.52 148.252 1332.99 127.949 1332.99C107.646 1332.99 91.1733 1316.52 91.1733 1296.22C91.1733 1275.91 107.646 1259.44 127.949 1259.44C148.252 1259.44 164.725 1275.91 164.725 1296.22Z" fill="#00ABC8"/>
<path d="M164.725 1200.45C164.725 1220.75 148.252 1237.22 127.949 1237.22C107.646 1237.22 91.1733 1220.75 91.1733 1200.45C91.1733 1180.14 107.646 1163.67 127.949 1163.67C148.252 1163.67 164.725 1180.14 164.725 1200.45Z" fill="#00ABC8"/>
<path d="M437.989 1152.56C437.989 1172.87 421.516 1189.34 401.213 1189.34C380.91 1189.34 364.438 1172.87 364.438 1152.56C364.438 1132.26 380.91 1115.79 401.213 1115.79C421.516 1115.79 437.989 1132.26 437.989 1152.56Z" fill="#00ABC8"/>
<path d="M437.989 1344.1C437.989 1364.41 421.516 1380.88 401.213 1380.88C380.91 1380.88 364.438 1364.41 364.438 1344.1C364.438 1323.8 380.91 1307.33 401.213 1307.33C421.516 1307.33 437.989 1323.8 437.989 1344.1Z" fill="#003DA6"/>
<path d="M437.989 1248.33C437.989 1268.63 421.516 1285.11 401.213 1285.11C380.91 1285.11 364.438 1268.63 364.438 1248.33C364.438 1228.03 380.91 1211.56 401.213 1211.56C421.516 1211.56 437.989 1228.03 437.989 1248.33Z" fill="#003DA6"/>
<path d="M529.034 1296.22C529.034 1316.52 512.562 1332.99 492.259 1332.99C471.955 1332.99 455.483 1316.52 455.483 1296.22C455.483 1275.91 471.955 1259.44 492.259 1259.44C512.562 1259.44 529.034 1275.91 529.034 1296.22Z" fill="#003DA6"/>
<path d="M529.034 1200.45C529.034 1220.75 512.562 1237.22 492.259 1237.22C471.955 1237.22 455.483 1220.75 455.483 1200.45C455.483 1180.14 471.955 1163.67 492.259 1163.67C512.562 1163.67 529.034 1180.14 529.034 1200.45Z" fill="#003DA6"/>
<path d="M346.816 1296.22C346.816 1316.52 330.343 1332.99 310.04 1332.99C289.737 1332.99 273.264 1316.52 273.264 1296.22C273.264 1275.91 289.737 1259.44 310.04 1259.44C330.343 1259.44 346.816 1275.91 346.816 1296.22Z" fill="#00ABC8"/>
<path d="M346.816 1200.45C346.816 1220.75 330.343 1237.22 310.04 1237.22C289.737 1237.22 273.264 1220.75 273.264 1200.45C273.264 1180.14 289.737 1163.67 310.04 1163.67C330.343 1163.67 346.816 1180.14 346.816 1200.45Z" fill="#00ABC8"/>
<path d="M620.208 1152.56C620.208 1172.87 603.735 1189.34 583.432 1189.34C563.129 1189.34 546.656 1172.87 546.656 1152.56C546.656 1132.26 563.129 1115.79 583.432 1115.79C603.735 1115.79 620.208 1132.26 620.208 1152.56Z" fill="#00ABC8"/>
<path d="M620.208 1344.1C620.208 1364.41 603.735 1380.88 583.432 1380.88C563.129 1380.88 546.656 1364.41 546.656 1344.1C546.656 1323.8 563.129 1307.33 583.432 1307.33C603.735 1307.33 620.208 1323.8 620.208 1344.1Z" fill="#003DA6"/>
<path d="M620.208 1248.33C620.208 1268.63 603.735 1285.11 583.432 1285.11C563.129 1285.11 546.656 1268.63 546.656 1248.33C546.656 1228.03 563.129 1211.56 583.432 1211.56C603.735 1211.56 620.208 1228.03 620.208 1248.33Z" fill="#003DA6"/>
<path d="M711.253 1296.22C711.253 1316.52 694.781 1332.99 674.477 1332.99C654.174 1332.99 637.702 1316.52 637.702 1296.22C637.702 1275.91 654.174 1259.44 674.477 1259.44C694.781 1259.44 711.253 1275.91 711.253 1296.22Z" fill="#003DA6"/>
<path d="M711.253 1200.45C711.253 1220.75 694.781 1237.22 674.477 1237.22C654.174 1237.22 637.702 1220.75 637.702 1200.45C637.702 1180.14 654.174 1163.67 674.477 1163.67C694.781 1163.67 711.253 1180.14 711.253 1200.45Z" fill="#003DA6"/>
<path d="M529.034 1296.22C529.034 1316.52 512.562 1332.99 492.259 1332.99C471.955 1332.99 455.483 1316.52 455.483 1296.22C455.483 1275.91 471.955 1259.44 492.259 1259.44C512.562 1259.44 529.034 1275.91 529.034 1296.22Z" fill="#00ABC8"/>
<path d="M529.034 1200.45C529.034 1220.75 512.562 1237.22 492.259 1237.22C471.955 1237.22 455.483 1220.75 455.483 1200.45C455.483 1180.14 471.955 1163.67 492.259 1163.67C512.562 1163.67 529.034 1180.14 529.034 1200.45Z" fill="#00ABC8"/>
<path d="M802.299 1152.56C802.299 1172.87 785.826 1189.34 765.523 1189.34C745.22 1189.34 728.747 1172.87 728.747 1152.56C728.747 1132.26 745.22 1115.79 765.523 1115.79C785.826 1115.79 802.299 1132.26 802.299 1152.56Z" fill="#00ABC8"/>
<path d="M802.299 1344.1C802.299 1364.41 785.826 1380.88 765.523 1380.88C745.22 1380.88 728.747 1364.41 728.747 1344.1C728.747 1323.8 745.22 1307.33 765.523 1307.33C785.826 1307.33 802.299 1323.8 802.299 1344.1Z" fill="#003DA6"/>
<path d="M802.299 1248.33C802.299 1268.63 785.826 1285.11 765.523 1285.11C745.22 1285.11 728.747 1268.63 728.747 1248.33C728.747 1228.03 745.22 1211.56 765.523 1211.56C785.826 1211.56 802.299 1228.03 802.299 1248.33Z" fill="#003DA6"/>
<path d="M893.472 1296.22C893.472 1316.52 876.999 1332.99 856.696 1332.99C836.393 1332.99 819.92 1316.52 819.92 1296.22C819.92 1275.91 836.393 1259.44 856.696 1259.44C876.999 1259.44 893.472 1275.91 893.472 1296.22Z" fill="#003DA6"/>
<path d="M893.472 1200.45C893.472 1220.75 876.999 1237.22 856.696 1237.22C836.393 1237.22 819.92 1220.75 819.92 1200.45C819.92 1180.14 836.393 1163.67 856.696 1163.67C876.999 1163.67 893.472 1180.14 893.472 1200.45Z" fill="#003DA6"/>
<path d="M711.253 1296.22C711.253 1316.52 694.781 1332.99 674.477 1332.99C654.174 1332.99 637.702 1316.52 637.702 1296.22C637.702 1275.91 654.174 1259.44 674.477 1259.44C694.781 1259.44 711.253 1275.91 711.253 1296.22Z" fill="#00ABC8"/>
<path d="M711.253 1200.45C711.253 1220.75 694.781 1237.22 674.477 1237.22C654.174 1237.22 637.702 1220.75 637.702 1200.45C637.702 1180.14 654.174 1163.67 674.477 1163.67C694.781 1163.67 711.253 1180.14 711.253 1200.45Z" fill="#00ABC8"/>
<path d="M984.517 1152.56C984.517 1172.87 968.045 1189.34 947.742 1189.34C927.438 1189.34 910.966 1172.87 910.966 1152.56C910.966 1132.26 927.438 1115.79 947.742 1115.79C968.045 1115.79 984.517 1132.26 984.517 1152.56Z" fill="#00ABC8"/>
<path d="M984.517 1344.1C984.517 1364.41 968.045 1380.88 947.742 1380.88C927.438 1380.88 910.966 1364.41 910.966 1344.1C910.966 1323.8 927.438 1307.33 947.742 1307.33C968.045 1307.33 984.517 1323.8 984.517 1344.1Z" fill="#003DA6"/>
<path d="M984.517 1248.33C984.517 1268.63 968.045 1285.11 947.742 1285.11C927.438 1285.11 910.966 1268.63 910.966 1248.33C910.966 1228.03 927.438 1211.56 947.742 1211.56C968.045 1211.56 984.517 1228.03 984.517 1248.33Z" fill="#003DA6"/>
<path d="M1075.56 1296.22C1075.56 1316.52 1059.09 1332.99 1038.79 1332.99C1018.48 1332.99 1002.01 1316.52 1002.01 1296.22C1002.01 1275.91 1018.48 1259.44 1038.79 1259.44C1059.09 1259.44 1075.56 1275.91 1075.56 1296.22Z" fill="#003DA6"/>
<path d="M1075.56 1200.45C1075.56 1220.75 1059.09 1237.22 1038.79 1237.22C1018.48 1237.22 1002.01 1220.75 1002.01 1200.45C1002.01 1180.14 1018.48 1163.67 1038.79 1163.67C1059.09 1163.67 1075.56 1180.14 1075.56 1200.45Z" fill="#003DA6"/>
<path d="M893.472 1296.22C893.472 1316.52 876.999 1332.99 856.696 1332.99C836.393 1332.99 819.92 1316.52 819.92 1296.22C819.92 1275.91 836.393 1259.44 856.696 1259.44C876.999 1259.44 893.472 1275.91 893.472 1296.22Z" fill="#00ABC8"/>
<path d="M893.472 1200.45C893.472 1220.75 876.999 1237.22 856.696 1237.22C836.393 1237.22 819.92 1220.75 819.92 1200.45C819.92 1180.14 836.393 1163.67 856.696 1163.67C876.999 1163.67 893.472 1180.14 893.472 1200.45Z" fill="#00ABC8"/>
<path d="M1166.74 1152.56C1166.74 1172.87 1150.26 1189.34 1129.96 1189.34C1109.66 1189.34 1093.18 1172.87 1093.18 1152.56C1093.18 1132.26 1109.66 1115.79 1129.96 1115.79C1150.26 1115.79 1166.74 1132.26 1166.74 1152.56Z" fill="#00ABC8"/>
<path d="M1166.74 1344.1C1166.74 1364.41 1150.26 1380.88 1129.96 1380.88C1109.66 1380.88 1093.18 1364.41 1093.18 1344.1C1093.18 1323.8 1109.66 1307.33 1129.96 1307.33C1150.26 1307.33 1166.74 1323.8 1166.74 1344.1Z" fill="#003DA6"/>
<path d="M1166.74 1248.33C1166.74 1268.63 1150.26 1285.11 1129.96 1285.11C1109.66 1285.11 1093.18 1268.63 1093.18 1248.33C1093.18 1228.03 1109.66 1211.56 1129.96 1211.56C1150.26 1211.56 1166.74 1228.03 1166.74 1248.33Z" fill="#003DA6"/>
<path d="M1257.78 1296.22C1257.78 1316.52 1241.31 1332.99 1221.01 1332.99C1200.7 1332.99 1184.23 1316.52 1184.23 1296.22C1184.23 1275.91 1200.7 1259.44 1221.01 1259.44C1241.31 1259.44 1257.78 1275.91 1257.78 1296.22Z" fill="#003DA6"/>
<path d="M1257.78 1200.45C1257.78 1220.75 1241.31 1237.22 1221.01 1237.22C1200.7 1237.22 1184.23 1220.75 1184.23 1200.45C1184.23 1180.14 1200.7 1163.67 1221.01 1163.67C1241.31 1163.67 1257.78 1180.14 1257.78 1200.45Z" fill="#003DA6"/>
<path d="M1075.56 1296.22C1075.56 1316.52 1059.09 1332.99 1038.79 1332.99C1018.48 1332.99 1002.01 1316.52 1002.01 1296.22C1002.01 1275.91 1018.48 1259.44 1038.79 1259.44C1059.09 1259.44 1075.56 1275.91 1075.56 1296.22Z" fill="#00ABC8"/>
<path d="M1075.56 1200.45C1075.56 1220.75 1059.09 1237.22 1038.79 1237.22C1018.48 1237.22 1002.01 1220.75 1002.01 1200.45C1002.01 1180.14 1018.48 1163.67 1038.79 1163.67C1059.09 1163.67 1075.56 1180.14 1075.56 1200.45Z" fill="#00ABC8"/>
<path d="M1348.95 1152.56C1348.95 1172.87 1332.48 1189.34 1312.18 1189.34C1291.88 1189.34 1275.4 1172.87 1275.4 1152.56C1275.4 1132.26 1291.88 1115.79 1312.18 1115.79C1332.48 1115.79 1348.95 1132.26 1348.95 1152.56Z" fill="#00ABC8"/>
<path d="M1348.95 1344.1C1348.95 1364.41 1332.48 1380.88 1312.18 1380.88C1291.88 1380.88 1275.4 1364.41 1275.4 1344.1C1275.4 1323.8 1291.88 1307.33 1312.18 1307.33C1332.48 1307.33 1348.95 1323.8 1348.95 1344.1Z" fill="#003DA6"/>
<path d="M1348.95 1248.33C1348.95 1268.63 1332.48 1285.11 1312.18 1285.11C1291.88 1285.11 1275.4 1268.63 1275.4 1248.33C1275.4 1228.03 1291.88 1211.56 1312.18 1211.56C1332.48 1211.56 1348.95 1228.03 1348.95 1248.33Z" fill="#003DA6"/>
<path d="M1440 1296.22C1440 1316.52 1423.53 1332.99 1403.22 1332.99C1382.92 1332.99 1366.45 1316.52 1366.45 1296.22C1366.45 1275.91 1382.92 1259.44 1403.22 1259.44C1423.53 1259.44 1440 1275.91 1440 1296.22Z" fill="#003DA6"/>
<path d="M1440 1200.45C1440 1220.75 1423.53 1237.22 1403.22 1237.22C1382.92 1237.22 1366.45 1220.75 1366.45 1200.45C1366.45 1180.14 1382.92 1163.67 1403.22 1163.67C1423.53 1163.67 1440 1180.14 1440 1200.45Z" fill="#003DA6"/>
<path d="M1257.78 1296.22C1257.78 1316.52 1241.31 1332.99 1221.01 1332.99C1200.7 1332.99 1184.23 1316.52 1184.23 1296.22C1184.23 1275.91 1200.7 1259.44 1221.01 1259.44C1241.31 1259.44 1257.78 1275.91 1257.78 1296.22Z" fill="#00ABC8"/>
<path d="M1257.78 1200.45C1257.78 1220.75 1241.31 1237.22 1221.01 1237.22C1200.7 1237.22 1184.23 1220.75 1184.23 1200.45C1184.23 1180.14 1200.7 1163.67 1221.01 1163.67C1241.31 1163.67 1257.78 1180.14 1257.78 1200.45Z" fill="#00ABC8"/>
<path d="M1440 1296.22C1440 1316.52 1423.53 1332.99 1403.22 1332.99C1382.92 1332.99 1366.45 1316.52 1366.45 1296.22C1366.45 1275.91 1382.92 1259.44 1403.22 1259.44C1423.53 1259.44 1440 1275.91 1440 1296.22Z" fill="#00ABC8"/>
<path d="M1440 1200.45C1440 1220.75 1423.53 1237.22 1403.22 1237.22C1382.92 1237.22 1366.45 1220.75 1366.45 1200.45C1366.45 1180.14 1382.92 1163.67 1403.22 1163.67C1423.53 1163.67 1440 1180.14 1440 1200.45Z" fill="#00ABC8"/>
<path d="M164.725 1391.35C164.725 1411.65 148.252 1428.12 127.949 1428.12C107.646 1428.12 91.1733 1411.65 91.1733 1391.35C91.1733 1371.05 107.646 1354.57 127.949 1354.57C148.252 1354.57 164.725 1371.05 164.725 1391.35Z" fill="#00ABC8"/>
<path d="M346.816 1391.35C346.816 1411.65 330.343 1428.12 310.04 1428.12C289.737 1428.12 273.264 1411.65 273.264 1391.35C273.264 1371.05 289.737 1354.57 310.04 1354.57C330.343 1354.57 346.816 1371.05 346.816 1391.35Z" fill="#00ABC8"/>
<path d="M529.034 1391.35C529.034 1411.65 512.562 1428.12 492.259 1428.12C471.955 1428.12 455.483 1411.65 455.483 1391.35C455.483 1371.05 471.955 1354.57 492.259 1354.57C512.562 1354.57 529.034 1371.05 529.034 1391.35Z" fill="#00ABC8"/>
<path d="M711.253 1391.35C711.253 1411.65 694.781 1428.12 674.477 1428.12C654.174 1428.12 637.702 1411.65 637.702 1391.35C637.702 1371.05 654.174 1354.57 674.477 1354.57C694.781 1354.57 711.253 1371.05 711.253 1391.35Z" fill="#00ABC8"/>
<path d="M893.472 1391.35C893.472 1411.65 876.999 1428.12 856.696 1428.12C836.393 1428.12 819.92 1411.65 819.92 1391.35C819.92 1371.05 836.393 1354.57 856.696 1354.57C876.999 1354.57 893.472 1371.05 893.472 1391.35Z" fill="#00ABC8"/>
<path d="M1075.56 1391.35C1075.56 1411.65 1059.09 1428.12 1038.79 1428.12C1018.48 1428.12 1002.01 1411.65 1002.01 1391.35C1002.01 1371.05 1018.48 1354.57 1038.79 1354.57C1059.09 1354.57 1075.56 1371.05 1075.56 1391.35Z" fill="#00ABC8"/>
<path d="M1257.78 1391.35C1257.78 1411.65 1241.31 1428.12 1221.01 1428.12C1200.7 1428.12 1184.23 1411.65 1184.23 1391.35C1184.23 1371.05 1200.7 1354.57 1221.01 1354.57C1241.31 1354.57 1257.78 1371.05 1257.78 1391.35Z" fill="#00ABC8"/>
<path d="M1440 1391.35C1440 1411.65 1423.53 1428.12 1403.22 1428.12C1382.92 1428.12 1366.45 1411.65 1366.45 1391.35C1366.45 1371.05 1382.92 1354.57 1403.22 1354.57C1423.53 1354.57 1440 1371.05 1440 1391.35Z" fill="#00ABC8"/>
</g>
</svg>
