<svg width="908" height="658" viewBox="0 0 908 658" fill="none" xmlns="http://www.w3.org/2000/svg">
<g opacity="0.1">
<path d="M1050.82 658H59.0627C35.8722 658 15.4006 643.689 5.64462 620.704C-5.07099 595.388 -0.272956 566.44 17.8529 546.978L297.152 245.625L318.316 265.9L39.0176 567.253C26.6493 580.534 27.7156 597.99 32.407 608.994C37.5249 621.137 47.4941 628.401 59.0627 628.401H1050.87C1062.44 628.401 1072.41 621.137 1077.58 608.94C1082.22 597.935 1083.23 580.426 1070.91 567.253L786.604 266.008L807.609 245.462L1091.97 546.816C1110.15 566.277 1115 595.171 1104.34 620.595C1094.58 643.634 1074.11 657.946 1050.92 657.946" fill="#003DA6"/>
<path d="M606.358 52.2584C606.358 81.0981 583.381 104.517 554.966 104.517C526.551 104.517 503.521 81.0981 503.521 52.2584C503.521 23.4187 526.551 0 554.966 0C583.381 0 606.358 23.3645 606.358 52.2584Z" fill="#00ABC8"/>
<path d="M606.358 324.283C606.358 353.123 583.381 376.542 554.966 376.542C526.551 376.542 503.521 353.123 503.521 324.283C503.521 295.444 526.551 272.025 554.966 272.025C583.381 272.025 606.358 295.389 606.358 324.283Z" fill="#003DA6"/>
<path d="M606.358 188.271C606.358 217.11 583.381 240.529 554.966 240.529C526.551 240.529 503.521 217.164 503.521 188.271C503.521 159.377 526.551 136.012 554.966 136.012C583.381 136.012 606.358 159.431 606.358 188.271Z" fill="#003DA6"/>
<path d="M733.613 256.25C733.613 285.09 710.636 308.508 682.22 308.508C653.805 308.508 630.775 285.144 630.775 256.25C630.775 227.356 653.805 203.991 682.22 203.991C710.636 203.991 733.613 227.41 733.613 256.25Z" fill="#003DA6"/>
<path d="M733.613 120.292C733.613 149.131 710.636 172.496 682.22 172.496C653.805 172.496 630.775 149.131 630.775 120.292C630.775 91.4519 653.805 67.979 682.22 67.979C710.636 67.979 733.613 91.3977 733.613 120.292Z" fill="#003DA6"/>
<path d="M479.051 256.25C479.051 285.09 456.073 308.508 427.658 308.508C399.243 308.508 376.266 285.144 376.266 256.25C376.266 227.356 399.243 203.991 427.658 203.991C456.073 203.991 479.051 227.41 479.051 256.25Z" fill="#00ABC8"/>
<path d="M479.051 120.292C479.051 149.131 456.073 172.496 427.658 172.496C399.243 172.496 376.266 149.131 376.266 120.292C376.266 91.4519 399.243 67.979 427.658 67.979C456.073 67.979 479.051 91.3977 479.051 120.292Z" fill="#00ABC8"/>
<path d="M557.899 506.212C371.468 506.212 186.957 458.616 24.1973 368.573L38.1116 342.552C196.553 430.318 376.32 476.614 557.899 476.614C739.477 476.614 914.926 431.348 1071.82 345.751L1085.58 371.826C924.415 459.7 741.93 506.212 557.899 506.212Z" fill="#003DA6"/>
</g>
</svg>
