<svg width="1440" height="836" viewBox="0 0 1440 836" fill="none" xmlns="http://www.w3.org/2000/svg">
<g filter="url(#filter0_f_15_377)">
<ellipse cx="722.5" cy="181" rx="387" ry="907.5" transform="rotate(90 722.5 181)" fill="url(#paint0_linear_15_377)" fill-opacity="0.71"/>
<path d="M1629.5 181C1629.5 234.264 1604.19 285.049 1558.33 331.286C1512.47 377.526 1446.08 419.19 1364 454.19C1199.85 524.191 973.048 567.5 722.5 567.5C471.952 567.5 245.147 524.191 80.997 454.19C-1.07855 419.19 -67.4672 377.526 -113.329 331.286C-159.189 285.049 -184.5 234.264 -184.5 181C-184.5 127.736 -159.189 76.9513 -113.329 30.7139C-67.4672 -15.5256 -1.07851 -57.1896 80.9971 -92.1904C245.147 -162.191 471.952 -205.5 722.5 -205.5C973.048 -205.5 1199.85 -162.191 1364 -92.1904C1446.08 -57.1896 1512.47 -15.5255 1558.33 30.7139C1604.19 76.9513 1629.5 127.736 1629.5 181Z" stroke="black"/>
<path d="M1629.5 181C1629.5 234.264 1604.19 285.049 1558.33 331.286C1512.47 377.526 1446.08 419.19 1364 454.19C1199.85 524.191 973.048 567.5 722.5 567.5C471.952 567.5 245.147 524.191 80.997 454.19C-1.07855 419.19 -67.4672 377.526 -113.329 331.286C-159.189 285.049 -184.5 234.264 -184.5 181C-184.5 127.736 -159.189 76.9513 -113.329 30.7139C-67.4672 -15.5256 -1.07851 -57.1896 80.9971 -92.1904C245.147 -162.191 471.952 -205.5 722.5 -205.5C973.048 -205.5 1199.85 -162.191 1364 -92.1904C1446.08 -57.1896 1512.47 -15.5255 1558.33 30.7139C1604.19 76.9513 1629.5 127.736 1629.5 181Z" stroke="black" stroke-opacity="0.2"/>
</g>
<defs>
<filter id="filter0_f_15_377" x="-453" y="-474" width="2351" height="1310" filterUnits="userSpaceOnUse" color-interpolation-filters="sRGB">
<feFlood flood-opacity="0" result="BackgroundImageFix"/>
<feBlend mode="normal" in="SourceGraphic" in2="BackgroundImageFix" result="shape"/>
<feGaussianBlur stdDeviation="134" result="effect1_foregroundBlur_15_377"/>
</filter>
<linearGradient id="paint0_linear_15_377" x1="872.5" y1="736.5" x2="872.5" y2="-73" gradientUnits="userSpaceOnUse">
<stop stop-color="#00ABC8"/>
<stop offset="1" stop-color="#003DA6"/>
</linearGradient>
</defs>
</svg>
